<?xml version="1.0" encoding="utf-8"?>
<!-- Generator: Adobe Illustrator 23.0.0, SVG Export Plug-In . SVG Version: 6.00 Build 0)  -->
<svg version="1.1" id="Capa_1" xmlns="http://www.w3.org/2000/svg" xmlns:xlink="http://www.w3.org/1999/xlink" x="0px" y="0px"
	 viewBox="0 0 126.89 35.64" style="enable-background:new 0 0 126.89 35.64;" xml:space="preserve">
<style type="text/css">
	.st0{fill-rule:evenodd;clip-rule:evenodd;fill:#005EA5;}
	.st1{fill:#005EA5;}
</style>
<g>
	<path class="st0" d="M19.94,0.73c0,0.48,0,0.96,0,1.45c2.42,1.74,5.05,3.28,7.44,5.06c0,0.72,0,1.45,0,2.17c-0.55,0-1.1,0-1.65,0
		c0-0.41,0-0.83,0-1.24c-2.36-1.81-4.98-3.35-7.44-5.06c0-0.41,0-0.83,0-1.24c-2.59-0.38-6.21-0.5-8.78,0C9.23,2.04,9.57,2.82,9.3,3
		C6.62,4.62,4.03,6.34,1.56,8.16v19.42c0,0-0.12,4.95,0.59,5.62c0.76,0.72,5.2,0.47,5.2,0.47h17.04v1.76H6.1c0,0-4.19,0.15-5.22-0.6
		c-1.01-0.73-0.87-5.45-0.87-5.45V7.23c1.15-1.1,6.44-4.56,7.85-5.27c0.19-0.32,0.07-0.96,0.31-1.24
		C11.42-0.3,16.65-0.19,19.94,0.73z"/>
	<path class="st0" d="M6.51,5.38c4.01,0.2,7.94-0.27,11.46,0c4.97,0.38,7.88,4.52,7.44,9.29c-0.28,2.99-1.93,4.66-3.82,6.4
		c1.44,3.69,4.23,11.15,4.23,11.15l-7.85,0.62l-3.92-10.33v9.71L6,32.85V5.69C6,5.69,6.37,5.4,6.51,5.38z M22.31,8.78
		c-1.11-0.97-2.78-0.95-3.92-0.1c-1.42,1.05-2.62,3.28-3.82,5.16c-1.14,1.79-2.66,4.31-4.54,4.54c-1.35,0.17-1.8-0.64-2.58-0.62
		c0.48,2.2,2.81,4.17,5.06,3.51c2.75-0.81,4.62-3.51,6.3-5.58c0.94-1.16,2.22-2.72,3.72-2.69c1.06,0.03,1.49,0.89,2.27,1.45
		C24.8,12.03,23.59,9.9,22.31,8.78z M14.36,8.89c-2.36,1.24-4,6.98-7.44,5.47c0.31,1.62,1.95,2.63,3.51,2.07
		c2.64-0.96,3.82-6.03,6.4-7.23C15.97,8.46,14.99,8.56,14.36,8.89z"/>
	<path class="st0" d="M50.3,12.71c1.76-0.11,3.02,0.81,2.99,2.27c-0.02,1.42-1.27,2.15-2.99,2.17c0.02,2.64-0.29,5.49,0,8.06
		c0.83,0.29,1.64-0.27,2.69-0.1c1.25,0.4,1.64,2.46,0.83,3.51c-0.96,1.24-4.36,1.69-6.3,0.93c-3.61-1.41-1.98-7.95-2.27-12.29
		c-0.6-0.37-1.34-0.37-1.76-1.03c-0.89-1.41,0.13-3.49,1.86-3.41c-0.09-2.52-0.07-5.02,1.76-5.58C49.93,6.36,50.91,9.72,50.3,12.71z
		"/>
	<path class="st0" d="M97.91,27.89c-3.46,3.12-10.22,2.29-10.53-2.89c-0.34-5.58,5.59-5.5,9.92-6.71c0.21-2.03-2.5-2.06-3.82-1.34
		c-1.3,0.71-1.37,2.24-2.38,2.58c-1.05,0.35-2.42-0.21-2.79-1.24c-0.62-1.75,0.46-3.59,1.75-4.54c1.35-0.99,3.36-1.41,4.96-1.45
		c3.11-0.07,5.9,0.79,6.82,3.2c0.86,2.27,0.26,5.79,0.31,8.16c0.03,1.34,0.92,2.91,0.62,4.34c-0.2,0.93-1.33,1.87-2.58,1.76
		C98.99,29.64,98.67,28.63,97.91,27.89z M92.44,24.17c-0.1,0.79,0.54,1.43,1.24,1.55c1.61,0.27,3.1-0.98,3.41-2.27
		c0.1-0.41,0.35-1.15,0-1.24C95.7,22.95,92.64,22.52,92.44,24.17z"/>
	<path class="st0" d="M109.17,13.84c1.62-1.86,6.86-2.07,7.95,0.41c1.02-0.56,1.31-1.16,2.27-1.55c3.56-1.43,7.14,0.75,7.44,4.65
		c0.09,1.2,0.08,3.09,0,4.96c-0.11,2.71,0.3,5.32-0.83,6.61c-1.17,1.34-3.49,0.75-4.13-0.52c-0.63-1.25-0.29-3.82-0.21-5.89
		c0.08-1.9,0.38-5.11-0.72-5.58c-0.99-0.42-2.07,0.48-2.38,1.14c-1.38,2.99,1.59,12.25-3.41,11.67c-4.37-0.51-0.61-10.11-2.68-12.81
		c-2.21-0.34-2.72,0.98-2.89,2.99c-0.33,3.74,1.18,10.33-3.1,9.81c-2.5-0.3-2.19-3.44-2.07-6.3c0.05-1.11,0-2.39,0-3.82
		c0-2.27-0.26-5.63,0.93-6.71C106.48,11.88,108.68,12.36,109.17,13.84z"/>
	<path class="st0" d="M60.73,12.5c5.3-0.57,8.52,2.89,8.68,8.06c0.11,3.65-1.35,6.71-3.72,8.16c-1.99,1.22-5.06,1.55-7.44,0.62
		c-3.28-1.29-5.1-4.7-4.75-9.19C53.84,15.76,56.49,12.95,60.73,12.5z M59.6,17.56c-1.32,1.36-1.54,5.98,0.1,7.33
		c0.89,0.73,2.65,0.66,3.51-0.1c2.14-1.88,1.77-8.68-2.27-7.85C60.11,17.11,59.93,17.22,59.6,17.56z"/>
	<path class="st0" d="M75.6,14.05c0.89-0.35,1.2-0.93,1.96-1.24c2.57-1.05,5.13-0.08,6.51,1.14c4.59,4.04,2.77,15.02-3.41,15.8
		c-2.39,0.3-3.76-0.4-5.06-1.55c-0.13,2.23,0.43,5.56-0.83,6.82c-0.74,0.74-2.45,0.89-3.3,0.1c-1.15-1.06-0.67-4.7-0.62-7.02
		c0.03-1.54-0.07-3.19,0-5.06c0.13-3.3-0.4-7.82,0.52-9.5C72.18,12.04,75.16,11.88,75.6,14.05z M78.19,25.2
		c4.47,0.95,4.72-9.27,0.1-8.26C75.01,17.66,75.23,24.57,78.19,25.2z"/>
	<path class="st0" d="M33.88,12.6c4.32-0.55,7.15,1.66,8.26,3.92c1.94,3.95,0.8,9.13-1.86,11.46c-2.13,1.87-5.87,2.66-8.99,1.14
		c-2.72-1.33-4.52-4.66-4.23-8.67c0.19-2.68,1.14-4.71,2.69-6.09C30.66,13.55,31.99,12.84,33.88,12.6z M33.05,17.77
		c-1.46,1.72-1.24,6.54,0.62,7.44c5.09,2.45,6.17-9.05,1.03-8.26C33.97,17.06,33.44,17.31,33.05,17.77z"/>
	<g>
		<path class="st1" d="M120.96,1.95c2.52,0,4.52,1.95,4.52,4.43c0,2.49-2,4.46-4.54,4.46c-2.54,0-4.57-1.97-4.57-4.46
			c0-2.49,2.03-4.43,4.57-4.43H120.96z M120.91,2.84c-1.92,0-3.41,1.6-3.41,3.54c0,1.97,1.49,3.54,3.46,3.54
			c1.92,0.03,3.38-1.57,3.38-3.52c0-1.97-1.46-3.57-3.41-3.57H120.91z M120.23,8.68h-1.03V4.24c0.4-0.06,0.97-0.14,1.7-0.14
			c0.84,0,1.22,0.14,1.52,0.35c0.27,0.19,0.46,0.52,0.46,0.95c0,0.54-0.4,0.89-0.92,1.05v0.05c0.43,0.14,0.65,0.49,0.78,1.08
			c0.13,0.68,0.24,0.92,0.32,1.08h-1.08c-0.13-0.16-0.22-0.54-0.35-1.08c-0.08-0.46-0.35-0.68-0.92-0.68h-0.49V8.68z M120.26,6.19
			h0.49c0.57,0,1.03-0.19,1.03-0.65c0-0.41-0.3-0.68-0.95-0.68c-0.27,0-0.46,0.03-0.57,0.05V6.19z"/>
	</g>
</g>
</svg>
