<?xml version="1.0" encoding="utf-8" ?>
<svg xmlns="http://www.w3.org/2000/svg" xmlns:xlink="http://www.w3.org/1999/xlink" width="1024" height="1024">
	<g>
		<path fill="#00B4F3" d="M313.42 388.926C324.041 378.266 334.349 367.302 345.05 356.719C349.518 352.299 354.13 347.174 359.209 343.463C361.063 342.108 362.63 341.155 364.892 340.707C367.31 341.114 369.272 342.408 371.198 343.879C376.19 347.694 380.707 352.626 385.211 357.016Q399.078 370.503 412.589 384.345C420.789 392.361 429.373 400.014 437.304 408.293C445.658 400.312 453.756 391.898 462.27 384.108C469.746 376.348 502.818 341.217 509.962 340.504C516.604 339.841 531.346 356.314 536.117 361.135C546.976 372.106 557.603 383.586 569.013 393.984L584.031 408.085Q603.791 388.438 624.216 369.482C627.451 366.432 630.364 362.57 633.612 359.714C634.729 358.732 635.969 358.374 637.427 358.275L638.148 358.687C638.298 359.874 638.209 360.434 637.5 361.439C634.726 365.374 630.314 368.97 626.856 372.329C617.435 381.48 607.683 390.304 598.19 399.386C593.32 404.045 587.876 408.689 583.858 414.121C584.365 440.678 583.514 467.346 583.43 493.916C583.41 500.049 582.418 514.198 583.638 519.531C584.737 521.631 583.863 526.433 586.484 527.191C590.759 528.427 610.947 527.473 616.461 527.452L703.366 527.147C715.964 527.138 729.01 526.339 741.557 527.068C743.021 527.153 743.915 527.135 745.06 528.084L745.193 529.313C743.882 530.808 742.649 530.997 740.704 531.14C735.388 531.532 729.868 531.036 724.528 531.044L685.839 531.109L572.979 530.999C500.522 530.314 428.036 531.792 355.582 530.865L154.633 531.274Q136.457 531.49 118.279 531.416C111.642 531.421 104.93 531.707 98.3058 531.487C96.4337 531.425 94.4837 531.426 93.1275 529.973C93.1836 528.679 93.4084 528.684 94.1593 527.699C98.5507 526.404 135.949 527.453 143.659 527.484C143.578 520.966 143.404 514.371 143.874 507.868C143.647 491.766 144.012 475.612 144.049 459.504C144.082 445.178 143.743 430.755 144.237 416.447C144.32 414.041 144.394 411.224 145.278 408.971C147.791 402.568 159.497 393.93 164.777 388.988C164.822 388.937 164.864 388.884 164.912 388.836L192.951 361.234C199.284 354.953 205.806 347.314 213.125 342.265C214.395 341.39 215.936 341.075 217.454 341.036C218.769 341.002 219.812 341.296 220.919 342C227.602 346.252 233.527 353.252 239.126 358.856L265.819 385.578C269.719 389.382 288.121 407.417 291.682 409.035C292.587 408.69 293.285 408.346 294.074 407.783C295.126 404.603 309.845 392.556 313.42 388.926Z"/>
		<path fill="#FE5168" d="M217.24 346.693C230.525 359.81 244.623 372.012 258.661 384.307C264.678 389.576 271.401 396.663 278.364 400.491C280.325 405.776 287.528 410.657 291.061 415.284L291.096 467.897C291.178 479.514 291.585 491.206 291.286 502.816C290.795 508.961 290.003 515.259 289.932 521.414C289.747 523.683 289.575 525.935 289.537 528.213Q245.628 528.892 201.72 528.176C192.559 527.979 183.006 528.412 173.9 527.635L153.144 527.665L147.861 528.236C148.027 524.993 148.933 517.507 146.979 514.994L146.063 514.945C146.293 511.39 147.179 507.918 147.315 504.307C147.724 493.402 147.956 418.536 146.196 415.423C147.431 410.089 149.749 407.227 153.474 403.455C154.349 402.568 155.705 401.677 155.699 400.415C164.445 396.77 208.533 355.252 217.24 346.693Z"/>
		<path fill="#FF9BA8" d="M153.144 527.665C151.672 527.654 150.274 527.843 149.039 526.915L149.151 526.397C154.591 524.811 204.051 524.904 206.267 526.297C206.403 526.381 206.513 526.501 206.635 526.603C204.009 528.67 179.357 527.258 173.9 527.635L153.144 527.665Z"/>
		<path fill="#F6F6F6" d="M162.251 417.177C169.498 419.99 208.168 456.362 217.408 464.213C221.986 460.509 226.26 456.289 230.659 452.36L255.806 430.178C260.44 426.126 265.452 420.963 270.749 417.909C272.047 417.865 271.987 417.904 272.991 418.744C272.869 419.863 272.385 420.506 271.653 421.319C266.893 426.609 260.867 431.31 255.565 436.06C243.984 446.435 232.192 456.676 221.104 467.578C227.572 473.426 273.372 512.531 274.183 514.438C274.382 514.906 274.364 515.438 274.455 515.938C273.757 516.031 273.478 516.088 272.836 516.118C271.582 516.176 270.805 515.774 269.79 515.112C263.46 510.981 257.59 505.249 251.845 500.325Q234.493 485.439 217.403 470.252C205.6 480.311 194.229 490.988 182.627 501.287C177.904 505.479 173.106 510.465 167.9 514.008C166.71 514.818 165.09 515.813 163.6 515.608C162.909 515.513 162.774 515.044 162.382 514.537C162.943 512.038 209.45 471.159 214.03 466.799C209.088 462.842 161.119 421.025 160.793 420.255C160.673 419.972 160.674 419.653 160.614 419.351L162.251 417.177Z"/>
		<path fill="#F6F6F6" d="M166.666 403.184C177.139 402.724 263.65 402.068 267.327 403.717C268.234 404.845 268.231 404.914 268.291 406.366C246.228 406.788 224.096 406.203 202.021 406.297L178.769 406.413C175.1 406.435 171.094 406.895 167.479 406.341C166.445 405.23 166.701 404.666 166.666 403.184Z"/>
		<path fill="#34234D" d="M313.42 388.926C324.041 378.266 334.349 367.302 345.05 356.719C349.518 352.299 354.13 347.174 359.209 343.463C361.063 342.108 362.63 341.155 364.892 340.707C367.31 341.114 369.272 342.408 371.198 343.879C376.19 347.694 380.707 352.626 385.211 357.016Q399.078 370.503 412.589 384.345C420.789 392.361 429.373 400.014 437.304 408.293C445.658 400.312 453.756 391.898 462.27 384.108C469.746 376.348 502.818 341.217 509.962 340.504C516.604 339.841 531.346 356.314 536.117 361.135C546.976 372.106 557.603 383.586 569.013 393.984L584.031 408.085Q603.791 388.438 624.216 369.482C627.451 366.432 630.364 362.57 633.612 359.714C634.729 358.732 635.969 358.374 637.427 358.275L638.148 358.687C638.298 359.874 638.209 360.434 637.5 361.439C634.726 365.374 630.314 368.97 626.856 372.329C617.435 381.48 607.683 390.304 598.19 399.386C593.32 404.045 587.876 408.689 583.858 414.121C579.893 408.954 572.776 403.883 570.163 398.086C557.609 390.716 517.632 349.711 510.386 347.704C510.36 347.697 509.437 347.477 509.266 347.549C506.336 348.794 500.731 355.226 498.165 357.607Q481.742 372.795 464.601 387.167C461.219 390.029 457.458 393.947 453.587 396.081C453.298 396.24 453.004 396.39 452.713 396.544C452.462 399.515 439.549 411.339 437.014 414.255C435.052 412.06 422.749 399.17 422.744 397.528C413.346 391.72 405.086 383.101 396.797 375.795C389.049 368.966 380.931 362.481 373.48 355.329C372.994 353.779 372.289 353.282 372.626 351.599C370.372 349.058 367.429 347.257 364.453 345.684C358.921 349.171 349.768 356.904 345.506 361.878C341.498 364.595 337.883 368.303 334.275 371.533Q324.304 380.321 314.686 389.493C311.928 392.133 308.351 394.989 306.658 398.478C302.206 403.221 297.78 407.988 293.149 412.558C292.502 413.571 291.893 414.404 291.061 415.284C287.528 410.657 280.325 405.776 278.364 400.491C271.401 396.663 264.678 389.576 258.661 384.307C244.623 372.012 230.525 359.81 217.24 346.693C208.533 355.252 164.445 396.77 155.699 400.415C155.705 401.677 154.349 402.568 153.474 403.455C149.749 407.227 147.431 410.089 146.196 415.423C147.956 418.536 147.724 493.402 147.315 504.307C147.179 507.918 146.293 511.39 146.063 514.945L146.979 514.994C148.933 517.507 148.027 524.993 147.861 528.236L153.144 527.665L173.9 527.635C183.006 528.412 192.559 527.979 201.72 528.176Q245.628 528.892 289.537 528.213C289.575 525.935 289.747 523.683 289.932 521.414C290.003 515.259 290.795 508.961 291.286 502.816C291.441 509.043 291.307 515.316 292.072 521.502C292.181 522.381 292.268 523.262 292.371 524.142C292.607 522.531 292.641 521.033 293.774 519.77L294.371 519.762C294.996 522.556 294.412 525.586 294.403 528.438C302.74 528.53 311.149 528.853 319.479 528.57C330.072 529.872 341.429 529.173 352.125 529.212Q383.921 529.345 415.716 529.023L435.442 528.961C435.46 524.03 435.438 519.134 435.965 514.224C436.229 516.242 436.284 518.051 437.655 519.671L437.7 519.448C439.568 522.207 438.986 525.402 438.882 528.585L446.84 528.583C459.417 529.588 472.309 529.138 484.927 529.137C494.335 529.135 504.081 529.652 513.454 529.012C523.275 529.428 533.182 529.213 543.015 529.234C552.283 529.253 561.641 529.527 570.897 529.189L581.124 529.188Q582.317 524.343 583.638 519.531C584.737 521.631 583.863 526.433 586.484 527.191C590.759 528.427 610.947 527.473 616.461 527.452L703.366 527.147C715.964 527.138 729.01 526.339 741.557 527.068C743.021 527.153 743.915 527.135 745.06 528.084L745.193 529.313C743.882 530.808 742.649 530.997 740.704 531.14C735.388 531.532 729.868 531.036 724.528 531.044L685.839 531.109L572.979 530.999C500.522 530.314 428.036 531.792 355.582 530.865L154.633 531.274Q136.457 531.49 118.279 531.416C111.642 531.421 104.93 531.707 98.3058 531.487C96.4337 531.425 94.4837 531.426 93.1275 529.973C93.1836 528.679 93.4084 528.684 94.1593 527.699C98.5507 526.404 135.949 527.453 143.659 527.484C143.578 520.966 143.404 514.371 143.874 507.868C143.647 491.766 144.012 475.612 144.049 459.504C144.082 445.178 143.743 430.755 144.237 416.447C144.32 414.041 144.394 411.224 145.278 408.971C147.791 402.568 159.497 393.93 164.777 388.988C164.822 388.937 164.864 388.884 164.912 388.836L192.951 361.234C199.284 354.953 205.806 347.314 213.125 342.265C214.395 341.39 215.936 341.075 217.454 341.036C218.769 341.002 219.812 341.296 220.919 342C227.602 346.252 233.527 353.252 239.126 358.856L265.819 385.578C269.719 389.382 288.121 407.417 291.682 409.035C292.587 408.69 293.285 408.346 294.074 407.783C295.126 404.603 309.845 392.556 313.42 388.926Z"/>
		<path fill="#F6F6F6" d="M217.099 345.534C224.668 349.431 231.932 357.194 238.38 362.813C247.425 370.695 256.618 378.435 265.464 386.54C269.907 390.674 275.5 395.091 278.364 400.491C271.401 396.663 264.678 389.576 258.661 384.307C244.623 372.012 230.525 359.81 217.24 346.693C208.533 355.252 164.445 396.77 155.699 400.415C158.124 396.521 161.93 393.27 165.21 390.086C173.778 382.367 182.601 374.896 191.238 367.245C199.529 359.9 207.956 351.792 217.099 345.534Z"/>
		<path fill="#FEFEFE" d="M462.794 385.193C468.968 379.733 505.966 346.585 509.869 345.862C512.193 346.255 513.886 347.199 515.833 348.511C521.438 352.289 526.665 357.362 531.809 361.762Q550.53 377.736 568.531 394.518C569.162 395.694 569.771 396.802 570.163 398.086C557.609 390.716 517.632 349.711 510.386 347.704C510.36 347.697 509.437 347.477 509.266 347.549C506.336 348.794 500.731 355.226 498.165 357.607Q481.742 372.795 464.601 387.167C461.219 390.029 457.458 393.947 453.587 396.081C453.298 396.24 453.004 396.39 452.713 396.544C454.282 392.111 459.374 388.363 462.794 385.193Z"/>
		<path fill="#FEFEFE" d="M146.196 415.423C147.956 418.536 147.724 493.402 147.315 504.307C147.179 507.918 146.293 511.39 146.063 514.945L145.575 516.695C144.895 516.339 145.085 516.566 144.841 516.194C145.736 508.262 144.727 500.091 144.725 492.117L144.913 440.428C144.926 432.866 143.999 422.643 146.196 415.423Z"/>
		<path fill="#FEFEFE" d="M372.626 351.599C382.072 358.787 390.995 367.019 399.905 374.858C403.62 378.127 407.407 381.988 411.451 384.812C415.132 388.269 420.769 392.431 423.367 396.594C422.959 397.494 423.267 397.281 422.744 397.528C413.346 391.72 405.086 383.101 396.797 375.795C389.049 368.966 380.931 362.481 373.48 355.329C372.994 353.779 372.289 353.282 372.626 351.599Z"/>
		<path fill="#3A95EC" d="M463.667 525.842C477.456 526.832 491.386 525.839 505.178 526.524C516.106 525.967 565.579 528.904 570.904 526.508L570.897 529.189C561.641 529.527 552.283 529.253 543.015 529.234C533.182 529.213 523.275 529.428 513.454 529.012C504.081 529.652 494.335 529.135 484.927 529.137C472.309 529.138 459.417 529.588 446.84 528.583C450.638 528.143 458.903 529.611 461.946 528.282C463.223 527.724 463.224 527.063 463.667 525.842Z"/>
		<path fill="#FEFEFE" d="M463.667 525.842C467.602 524.872 564.08 523.572 570.216 524.674L570.842 525.195L570.904 526.508C565.579 528.904 516.106 525.967 505.178 526.524C491.386 525.839 477.456 526.832 463.667 525.842Z"/>
		<path fill="#FEFEFE" d="M345.506 361.878C345.797 361.797 346.09 361.725 346.379 361.636C347.942 361.155 349.161 359.947 350.379 358.905C348.748 360.799 345.86 363.163 345.064 365.423C340.096 371.19 313.108 395.684 306.658 398.478C308.351 394.989 311.928 392.133 314.686 389.493Q324.304 380.321 334.275 371.533C337.883 368.303 341.498 364.595 345.506 361.878Z"/>
		<path fill="#F6F6F6" d="M364.453 345.684C367.429 347.257 370.372 349.058 372.626 351.599C372.289 353.282 372.994 353.779 373.48 355.329C370.446 352.85 367.56 350.295 364.737 347.58C358.011 353.299 352.07 360.068 345.064 365.423C345.86 363.163 348.748 360.799 350.379 358.905C349.161 359.947 347.942 361.155 346.379 361.636C346.09 361.725 345.797 361.797 345.506 361.878C349.768 356.904 358.921 349.171 364.453 345.684Z"/>
		<path fill="#F6F6F6" d="M456.018 418.293C462.108 422.18 467.797 428.237 473.304 432.999L510.257 464.981C522.371 454.033 534.879 443.476 547.19 432.748C551.302 429.165 558.763 421.239 563.312 419.071C564.698 419.143 565.244 419.31 566.363 420.135L566.452 421.015C563.654 424.953 554.781 431.53 550.832 434.969L513.349 467.69C525.188 478.66 537.751 489.315 550.097 499.718C554.933 503.792 560.102 507.638 564.75 511.915C565.773 512.856 567.39 514.013 567.555 515.392L565.526 517.178C561.58 516.295 516.775 476.511 510.221 470.589C505.542 473.984 501.146 478.225 496.743 481.999L469.616 505.263C466.316 508.092 461.365 513.473 457.466 515.069C456.816 515.336 456.383 515.012 455.788 514.795L455.585 514.02C456.155 512.285 457.234 511.067 458.5 509.779C463.551 504.643 469.496 500.167 474.946 495.446Q490.937 481.432 507.131 467.652Q490.867 453.821 474.809 439.753C468.124 433.939 460.34 428.133 454.784 421.228C454.606 419.655 455.073 419.505 456.018 418.293Z"/>
		<path fill="#F6F6F6" d="M310.729 417.822C316.501 420.887 329.877 434.117 335.49 439.149Q349.686 451.854 364.238 464.149C373.755 454.893 384.019 446.358 394.044 437.661C399.916 432.567 405.669 426.844 411.995 422.338C414.178 420.784 416.33 419.594 418.881 418.725L419.826 418.964L419.614 418.648L419.611 419.472C415.997 425.108 374.608 460.01 366.759 466.608C372.116 471.21 419.293 511.374 419.793 512.453C420.131 513.181 419.638 513.698 419.343 514.373C418.682 514.462 418.441 514.507 417.741 514.542C416.549 514.602 415.725 514.162 414.768 513.517C408.448 509.257 402.64 503.507 396.895 498.498Q380.288 483.803 363.419 469.408C354.731 477.885 345.012 485.573 335.879 493.593C329.46 499.229 323.205 505.662 316.508 510.872C315.22 511.873 313.652 512.8 312.139 513.408C311.047 513.846 310.228 514.176 309.124 513.674C310.5 508.62 354.068 472.405 360.775 466.903C348.956 456.099 336.771 445.65 324.788 435.023C319.251 430.113 312.878 425.287 308.065 419.713C308.695 418.596 309.612 418.392 310.729 417.822Z"/>
		<path fill="#F6F6F6" d="M313.646 403.746C326.961 403.505 415.243 402.789 417.812 404.332C418.16 405.584 418.088 405.724 417.677 406.971L416.537 407.354L345.888 407.155L326.001 407.038C322.765 407.049 319.467 407.426 316.246 407.262C314.776 407.187 313.617 407.108 312.302 406.38C311.868 405.26 311.928 405.234 312.29 404.076L313.646 403.746Z"/>
		<path fill="#F6F6F6" d="M459.007 403.745L527.928 403.646C539.58 403.62 551.983 402.671 563.536 403.86L564.087 404.766C563.919 406.137 564.088 406.309 563.046 407.177L486.582 407.136C479.184 407.125 464.397 408.281 457.972 406.734C457.37 405.513 457.508 405.478 457.866 404.142L459.007 403.745Z"/>
		<path fill="#F6F6F6" d="M331.744 525.481C339.711 524.678 347.95 524.934 355.961 524.887L394.813 524.781C399.299 524.777 409.856 524.038 413.332 524.763C413.687 524.837 413.951 525.139 414.261 525.327L414.383 526.931C398.21 527.727 381.519 526.62 365.3 526.359C355.244 526.197 341.237 526.919 331.744 525.481Z"/>
		<path fill="#70355B" d="M815.471 403.536C815.151 398.727 813.317 387.881 815.834 383.984C821.225 380.813 834.477 381.407 840.441 382.839C841.532 383.101 843.285 383.591 843.826 384.664C845.955 388.881 844.38 399.242 844.778 404.317C849.18 405.618 853.304 407.258 857.515 409.075C860.673 405.436 867.336 396.981 871.815 395.599C876.656 397.196 886.976 407.005 889.374 411.487C889.849 412.375 889.952 412.476 889.62 413.477C887.879 418.726 880.554 424.715 876.388 428.299C878.807 433.003 880.89 437.608 882.356 442.698C886.304 442.686 900.037 441.693 902.382 443.562C905.333 448.732 904.915 460.906 903.398 466.647C903.059 467.93 902.982 468.248 901.969 469.079C896.064 470.604 888.021 469.561 881.875 469.474C880.817 473.878 879.179 477.934 877.303 482.047C882.292 486.931 887.776 491.837 891.9 497.49C888.08 503.758 879.34 511.811 873.213 515.804C867.766 510.945 862.7 505.879 857.76 500.504C853.278 502.687 848.884 504.215 844.046 505.397C844.388 512.325 844.862 519.432 844.44 526.363C835.994 529.527 824.984 529.358 816.338 527.059L816.422 506.503C811.469 504.714 806.524 503.087 802.028 500.279C798.895 504.08 791.618 514.525 786.988 515.379C785.607 515.634 784.364 515.002 783.343 514.136C778.453 509.987 774.364 503.383 768.952 500.024C768.686 499.361 768.551 498.708 768.392 498.014C770.003 493.206 777.948 486.201 781.615 482.095C779.086 478.13 778.079 473.406 776.891 468.91C771.058 469.154 761.777 470.497 756.557 467.922C754.337 465.022 755.11 451.147 755.599 447.434C755.864 445.42 756.09 443.364 757.628 441.972C763.25 440.431 770.775 441.64 776.592 441.896Q779.009 435.003 781.943 428.313C777.249 423.548 772.262 418.886 768.757 413.139C771.581 409.115 781.933 397.066 786.674 396.145C788.277 395.833 789.065 396.256 790.353 397.174C794.517 400.141 798.499 405.207 801.826 409.101C806.347 407.166 810.855 405.239 815.471 403.536ZM833.554 487.499C843.502 485.631 851.415 481.869 857.255 473.272C862.113 466.121 864.115 457.461 862.428 448.946Q862.273 448.151 862.078 447.364Q861.883 446.577 861.649 445.801Q861.416 445.025 861.143 444.262Q860.871 443.499 860.56 442.75Q860.25 442.001 859.903 441.269Q859.556 440.537 859.172 439.823Q858.788 439.109 858.37 438.415Q857.951 437.721 857.498 437.049Q857.045 436.377 856.559 435.729Q856.073 435.08 855.555 434.457Q855.037 433.833 854.489 433.237Q853.941 432.64 853.363 432.071Q852.786 431.503 852.18 430.964Q851.575 430.425 850.944 429.917Q850.312 429.409 849.656 428.933Q849 428.457 848.321 428.015C842.477 424.22 834.824 422.105 827.854 422.692C818.521 423.786 809.68 427.438 803.698 434.961Q803.214 435.58 802.76 436.221Q802.307 436.863 801.886 437.527Q801.466 438.19 801.079 438.874Q800.692 439.558 800.339 440.26Q799.986 440.962 799.669 441.681Q799.352 442.4 799.07 443.133Q798.789 443.867 798.545 444.614Q798.301 445.361 798.094 446.118Q797.887 446.876 797.718 447.644Q797.549 448.411 797.418 449.186Q797.288 449.961 797.196 450.741Q797.104 451.521 797.051 452.305Q796.998 453.089 796.984 453.875Q796.97 454.66 796.995 455.446Q797.021 456.231 797.085 457.014Q797.149 457.797 797.252 458.576Q797.347 459.378 797.481 460.175Q797.616 460.972 797.79 461.761Q797.963 462.55 798.176 463.33Q798.389 464.109 798.639 464.877Q798.89 465.645 799.179 466.4Q799.468 467.155 799.793 467.894Q800.119 468.634 800.48 469.356Q800.842 470.079 801.239 470.782Q801.637 471.486 802.068 472.169Q802.499 472.853 802.964 473.514Q803.429 474.175 803.926 474.812Q804.423 475.449 804.95 476.061Q805.478 476.673 806.036 477.258Q806.593 477.843 807.179 478.399Q807.764 478.956 808.377 479.483Q808.989 480.01 809.627 480.506C816.741 485.978 824.726 487.719 833.554 487.499Z"/>
		<path fill="#34234D" d="M781.615 482.095L782.534 481.188L783.266 481.313C783.743 482.759 783.762 483.746 783.131 485.13C781.414 488.899 772.132 496.359 768.952 500.024C768.686 499.361 768.551 498.708 768.392 498.014C770.003 493.206 777.948 486.201 781.615 482.095Z"/>
		<path fill="#34234D" d="M824.703 419.167C832.875 417.618 842.934 419.984 849.929 424.295C857.789 429.139 864.038 437.709 866.109 446.722C868.226 455.939 866.075 466.279 861.106 474.244C855.321 483.517 847.394 488.069 836.941 490.481C836.622 490.537 836.304 490.597 835.985 490.648C826.725 492.13 815.933 489.046 808.44 483.557C800.708 477.894 795.386 468.881 793.973 459.41C792.633 450.43 795.154 440.433 800.662 433.212Q801.198 432.497 801.77 431.81Q802.341 431.123 802.946 430.465Q803.551 429.807 804.188 429.18Q804.825 428.553 805.492 427.958Q806.159 427.364 806.855 426.803Q807.551 426.243 808.274 425.717Q808.997 425.192 809.745 424.703Q810.494 424.215 811.266 423.764Q812.037 423.313 812.83 422.901Q813.623 422.489 814.436 422.118Q815.249 421.746 816.079 421.415Q816.909 421.084 817.755 420.794Q818.6 420.505 819.459 420.258Q820.318 420.011 821.188 419.808Q822.058 419.604 822.938 419.444Q823.817 419.283 824.703 419.167ZM833.554 487.499C843.502 485.631 851.415 481.869 857.255 473.272C862.113 466.121 864.115 457.461 862.428 448.946Q862.273 448.151 862.078 447.364Q861.883 446.577 861.649 445.801Q861.416 445.025 861.143 444.262Q860.871 443.499 860.56 442.75Q860.25 442.001 859.903 441.269Q859.556 440.537 859.172 439.823Q858.788 439.109 858.37 438.415Q857.951 437.721 857.498 437.049Q857.045 436.377 856.559 435.729Q856.073 435.08 855.555 434.457Q855.037 433.833 854.489 433.237Q853.941 432.64 853.363 432.071Q852.786 431.503 852.18 430.964Q851.575 430.425 850.944 429.917Q850.312 429.409 849.656 428.933Q849 428.457 848.321 428.015C842.477 424.22 834.824 422.105 827.854 422.692C818.521 423.786 809.68 427.438 803.698 434.961Q803.214 435.58 802.76 436.221Q802.307 436.863 801.886 437.527Q801.466 438.19 801.079 438.874Q800.692 439.558 800.339 440.26Q799.986 440.962 799.669 441.681Q799.352 442.4 799.07 443.133Q798.789 443.867 798.545 444.614Q798.301 445.361 798.094 446.118Q797.887 446.876 797.718 447.644Q797.549 448.411 797.418 449.186Q797.288 449.961 797.196 450.741Q797.104 451.521 797.051 452.305Q796.998 453.089 796.984 453.875Q796.97 454.66 796.995 455.446Q797.021 456.231 797.085 457.014Q797.149 457.797 797.252 458.576Q797.347 459.378 797.481 460.175Q797.616 460.972 797.79 461.761Q797.963 462.55 798.176 463.33Q798.389 464.109 798.639 464.877Q798.89 465.645 799.179 466.4Q799.468 467.155 799.793 467.894Q800.119 468.634 800.48 469.356Q800.842 470.079 801.239 470.782Q801.637 471.486 802.068 472.169Q802.499 472.853 802.964 473.514Q803.429 474.175 803.926 474.812Q804.423 475.449 804.95 476.061Q805.478 476.673 806.036 477.258Q806.593 477.843 807.179 478.399Q807.764 478.956 808.377 479.483Q808.989 480.01 809.627 480.506C816.741 485.978 824.726 487.719 833.554 487.499Z"/>
		<path fill="#34234D" d="M746.754 277.688C750.797 277.631 759.604 276.469 762.91 278.822C765.906 280.954 763.517 286.338 764.511 289.497C765.615 293.005 771.505 294.23 774.616 295.538C776.922 293.354 779.415 291.174 782.008 289.336C782.905 288.7 784.456 287.636 785.578 287.932C789.869 289.064 797.042 297.021 799.021 300.849Q795.087 306.26 791.353 311.811C792.916 314.791 793.992 317.797 794.927 321.019C798.934 321.16 804.497 320.675 807.999 322.693C808.658 324.137 808.872 325.433 809.018 327.012C809.251 329.536 809.812 341.088 807.957 342.756C805.792 344.702 798.028 344.246 795.052 344.398C794.004 347.788 792.594 351.01 791.201 354.27C794.099 358.029 796.758 361.842 799.188 365.921C796.253 369.319 789.537 377.469 785.129 378.033C780.871 378.579 776.625 373.454 773.823 370.789C771.098 371.845 768.219 372.399 765.373 373.033C765.054 377.759 766.36 383.17 764.176 387.516C763.044 388.724 761.675 388.746 760.125 388.984C756.771 389.079 746.918 390.321 744.495 388.062C741.971 385.708 742.287 377.115 741.996 373.706C738.405 372.941 735.418 371.805 732.235 370.032C728.941 373.373 725.762 376.582 721.569 378.776C716.699 375.641 711.707 370.798 708.485 365.989C710.145 361.614 712.551 358.424 715.433 354.813C713.728 351.56 712.424 348.042 711.014 344.649C707.948 344.229 700.456 344.334 698.343 342.251C696.325 337.466 696.228 328.886 697.895 323.939C700.261 321.571 707.919 321.869 711.407 321.358C712.647 318.196 714.145 315.141 715.588 312.069C712.622 308.655 709.717 305.204 707.576 301.202C711.129 295.95 716.185 291.188 721.18 287.319Q726.316 291.371 731.409 295.476C734.365 294.36 737.195 293.316 740.309 292.714C741.193 289.241 741.292 282.14 743.194 279.392C744.124 278.048 745.292 278.046 746.754 277.688ZM757.765 354.549C764.616 352.389 770.31 349.026 773.638 342.334C776.324 336.931 776.525 330.669 774.588 324.988Q774.417 324.471 774.22 323.962Q774.024 323.454 773.801 322.957Q773.579 322.459 773.331 321.974Q773.084 321.489 772.812 321.016Q772.54 320.544 772.244 320.086Q771.949 319.628 771.63 319.186Q771.312 318.744 770.971 318.319Q770.631 317.893 770.269 317.486Q769.907 317.078 769.525 316.69Q769.143 316.301 768.742 315.933Q768.34 315.564 767.921 315.217Q767.501 314.869 767.065 314.543Q766.628 314.217 766.175 313.914Q765.722 313.611 765.255 313.331Q764.787 313.051 764.306 312.795Q763.825 312.54 763.331 312.309C758.857 310.245 754.244 310.134 749.437 310.593C743.121 312.071 737.674 314.973 734.105 320.594Q733.815 321.047 733.547 321.514Q733.28 321.98 733.037 322.46Q732.793 322.939 732.574 323.431Q732.355 323.922 732.16 324.423Q731.966 324.925 731.797 325.436Q731.628 325.946 731.485 326.465Q731.342 326.983 731.225 327.508Q731.108 328.033 731.018 328.564Q730.927 329.094 730.863 329.628Q730.799 330.162 730.763 330.699Q730.726 331.235 730.716 331.773Q730.706 332.311 730.723 332.848Q730.74 333.386 730.783 333.922Q730.827 334.458 730.898 334.991Q730.969 335.525 731.066 336.054Q731.163 336.583 731.287 337.106Q731.424 337.678 731.589 338.242Q731.754 338.806 731.948 339.361Q732.141 339.916 732.362 340.46Q732.583 341.005 732.831 341.538Q733.079 342.071 733.353 342.59Q733.627 343.11 733.927 343.616Q734.227 344.121 734.552 344.611Q734.877 345.1 735.226 345.573Q735.575 346.046 735.947 346.501Q736.32 346.956 736.714 347.391Q737.109 347.827 737.525 348.242Q737.941 348.657 738.377 349.051Q738.813 349.445 739.268 349.817Q739.724 350.188 740.197 350.536Q740.671 350.885 741.161 351.209Q741.651 351.533 742.157 351.832C747.15 354.754 752.161 355.329 757.765 354.549Z"/>
		<path fill="#FE5168" d="M747.98 281.26C752.352 281.178 756.62 281.242 760.979 281.608C761.12 285.639 761.404 289.621 761.803 293.634C766.337 295.309 770.789 297.2 775.256 299.045C778.725 296.591 781.62 293.679 785.421 291.648C788.825 294.383 792.288 297.29 794.874 300.83C792.48 304.476 789.633 307.739 786.818 311.061C789.083 315.343 791.321 319.297 792.606 324.005C797.046 324.303 801.445 324.58 805.839 325.32C805.981 330.337 805.828 335.379 805.776 340.399Q799.317 340.52 792.865 340.861C791.009 345.715 789.012 350.435 786.836 355.153C790.076 358.108 792.602 361.66 795.053 365.271C791.394 368.675 787.598 371.902 783.788 375.134Q779.055 370.812 774.219 366.607C770.114 368.347 766.232 369.551 761.819 370.233C761.91 373.89 763.276 380.949 761.346 384.191C760.501 385.611 759.424 385.557 757.98 385.861Q752.273 385.862 746.567 385.769C745.545 381.027 745.383 375.95 744.721 371.122C739.857 369.998 735.941 368.149 731.532 365.847C729.25 368.299 725.715 373.43 722.036 373.487C718.253 373.546 713.706 367.288 711.306 364.687C713.514 361.19 716.84 358.119 719.655 355.086C717.173 350.596 715.33 346.115 713.673 341.259C710.347 341.117 704.303 341.587 701.857 339.082C699.433 336.6 700.399 329.509 700.476 326.132C704.963 325.366 709.505 324.979 714.033 324.549C715.357 319.888 717.243 315.608 719.214 311.201C716.575 308.095 714.016 304.97 711.568 301.712C714.414 298.068 717.744 294.901 721.028 291.66C724.564 294.411 728.42 297.299 732.354 299.43C736.065 297.399 740.222 296.011 744.165 294.481C744.514 291.121 744.231 284.529 746.198 281.86C746.639 281.262 747.298 281.37 747.98 281.26ZM757.765 354.549C764.616 352.389 770.31 349.026 773.638 342.334C776.324 336.931 776.525 330.669 774.588 324.988Q774.417 324.471 774.22 323.962Q774.024 323.454 773.801 322.957Q773.579 322.459 773.331 321.974Q773.084 321.489 772.812 321.016Q772.54 320.544 772.244 320.086Q771.949 319.628 771.63 319.186Q771.312 318.744 770.971 318.319Q770.631 317.893 770.269 317.486Q769.907 317.078 769.525 316.69Q769.143 316.301 768.742 315.933Q768.34 315.564 767.921 315.217Q767.501 314.869 767.065 314.543Q766.628 314.217 766.175 313.914Q765.722 313.611 765.255 313.331Q764.787 313.051 764.306 312.795Q763.825 312.54 763.331 312.309C758.857 310.245 754.244 310.134 749.437 310.593C743.121 312.071 737.674 314.973 734.105 320.594Q733.815 321.047 733.547 321.514Q733.28 321.98 733.037 322.46Q732.793 322.939 732.574 323.431Q732.355 323.922 732.16 324.423Q731.966 324.925 731.797 325.436Q731.628 325.946 731.485 326.465Q731.342 326.983 731.225 327.508Q731.108 328.033 731.018 328.564Q730.927 329.094 730.863 329.628Q730.799 330.162 730.763 330.699Q730.726 331.235 730.716 331.773Q730.706 332.311 730.723 332.848Q730.74 333.386 730.783 333.922Q730.827 334.458 730.898 334.991Q730.969 335.525 731.066 336.054Q731.163 336.583 731.287 337.106Q731.424 337.678 731.589 338.242Q731.754 338.806 731.948 339.361Q732.141 339.916 732.362 340.46Q732.583 341.005 732.831 341.538Q733.079 342.071 733.353 342.59Q733.627 343.11 733.927 343.616Q734.227 344.121 734.552 344.611Q734.877 345.1 735.226 345.573Q735.575 346.046 735.947 346.501Q736.32 346.956 736.714 347.391Q737.109 347.827 737.525 348.242Q737.941 348.657 738.377 349.051Q738.813 349.445 739.268 349.817Q739.724 350.188 740.197 350.536Q740.671 350.885 741.161 351.209Q741.651 351.533 742.157 351.832C747.15 354.754 752.161 355.329 757.765 354.549Z"/>
		<path fill="#34234D" d="M751.371 306.671C756.871 306.086 762.703 307.332 767.418 310.242Q767.962 310.579 768.489 310.944Q769.015 311.308 769.523 311.698Q770.031 312.089 770.518 312.504Q771.006 312.919 771.472 313.358Q771.938 313.797 772.381 314.259Q772.825 314.721 773.245 315.205Q773.664 315.688 774.059 316.192Q774.454 316.696 774.823 317.219Q775.193 317.743 775.535 318.284Q775.878 318.825 776.193 319.382Q776.508 319.94 776.795 320.512Q777.082 321.085 777.339 321.671Q777.597 322.257 777.825 322.855Q778.053 323.454 778.251 324.063Q778.448 324.672 778.615 325.29Q778.782 325.908 778.918 326.534C780.464 333.498 779.335 341.405 775.248 347.336C770.789 353.804 763.821 356.627 756.41 357.967C749.704 358.18 743.905 357.286 738.309 353.301C732.552 349.2 728.824 342.717 727.772 335.766C726.737 328.935 728.376 321.904 732.643 316.431C737.417 310.306 743.891 307.648 751.371 306.671ZM757.765 354.549C764.616 352.389 770.31 349.026 773.638 342.334C776.324 336.931 776.525 330.669 774.588 324.988Q774.417 324.471 774.22 323.962Q774.024 323.454 773.801 322.957Q773.579 322.459 773.331 321.974Q773.084 321.489 772.812 321.016Q772.54 320.544 772.244 320.086Q771.949 319.628 771.63 319.186Q771.312 318.744 770.971 318.319Q770.631 317.893 770.269 317.486Q769.907 317.078 769.525 316.69Q769.143 316.301 768.742 315.933Q768.34 315.564 767.921 315.217Q767.501 314.869 767.065 314.543Q766.628 314.217 766.175 313.914Q765.722 313.611 765.255 313.331Q764.787 313.051 764.306 312.795Q763.825 312.54 763.331 312.309C758.857 310.245 754.244 310.134 749.437 310.593C743.121 312.071 737.674 314.973 734.105 320.594Q733.815 321.047 733.547 321.514Q733.28 321.98 733.037 322.46Q732.793 322.939 732.574 323.431Q732.355 323.922 732.16 324.423Q731.966 324.925 731.797 325.436Q731.628 325.946 731.485 326.465Q731.342 326.983 731.225 327.508Q731.108 328.033 731.018 328.564Q730.927 329.094 730.863 329.628Q730.799 330.162 730.763 330.699Q730.726 331.235 730.716 331.773Q730.706 332.311 730.723 332.848Q730.74 333.386 730.783 333.922Q730.827 334.458 730.898 334.991Q730.969 335.525 731.066 336.054Q731.163 336.583 731.287 337.106Q731.424 337.678 731.589 338.242Q731.754 338.806 731.948 339.361Q732.141 339.916 732.362 340.46Q732.583 341.005 732.831 341.538Q733.079 342.071 733.353 342.59Q733.627 343.11 733.927 343.616Q734.227 344.121 734.552 344.611Q734.877 345.1 735.226 345.573Q735.575 346.046 735.947 346.501Q736.32 346.956 736.714 347.391Q737.109 347.827 737.525 348.242Q737.941 348.657 738.377 349.051Q738.813 349.445 739.268 349.817Q739.724 350.188 740.197 350.536Q740.671 350.885 741.161 351.209Q741.651 351.533 742.157 351.832C747.15 354.754 752.161 355.329 757.765 354.549Z"/>
		<path fill="#34234D" d="M23.5905 787.075C32.7981 786.145 42.8155 786.924 52.0788 786.964L109.773 787.149L304.617 787.05L795.851 786.952C861.341 786.911 926.889 788.037 992.368 787.283C995.697 787.244 1001.96 786.484 1004.63 788.476C1004.71 788.819 1004.85 789.344 1004.81 789.689C1004.68 790.968 1004.01 791.162 1003.03 791.756C984.4 792.296 965.631 791.723 946.992 791.708L830.167 791.551L488.563 791.637L176.303 791.998L71.8807 792.012C63.8403 792.007 55.78 791.813 47.7429 791.938C41.4162 792.036 34.9555 792.487 28.6401 792.247C26.2436 792.156 24.5147 792.107 22.8141 790.3C22.6876 788.743 22.8736 788.488 23.5905 787.075Z"/>
		<path fill="#70355B" d="M813.994 604.69C816.283 604.362 818.713 604.401 821.025 604.343C832.584 604.053 844.828 605.767 853.415 614.284C859.624 620.442 861.864 628.593 861.999 637.103C862.16 647.175 859.619 654.254 852.557 661.611C855.36 663.847 858.375 665.856 861.32 667.899C859.444 670.91 857.927 674.73 854.917 676.73C851.164 677.184 846.695 672.881 843.592 670.813C840.352 669.029 836.037 670.722 832.489 671.261C820.231 673.121 803.258 672.332 793.002 664.444C786.605 659.524 783.876 652.481 782.917 644.729C781.715 634.998 782.695 623.806 789.049 615.891C795.295 608.11 804.582 605.887 813.994 604.69ZM828.747 657.082C826.236 655.282 820.132 652.295 818.76 649.898L818.78 649.745C819.92 646.811 821.14 641.74 824.392 640.456C825.954 639.839 827.509 640.422 828.867 641.215C832.749 643.482 836.053 646.619 839.978 648.93C841.672 641.995 843.274 632.759 839.177 626.366C836.775 622.618 832.828 620.681 828.548 619.912C824.96 619.267 821.243 619.452 817.621 619.635C812.711 620.525 808.446 621.873 805.484 626.227C802.076 631.235 801.817 639.157 803.051 644.964C803.797 648.473 805.482 651.753 808.554 653.749C813.979 657.274 822.548 656.922 828.747 657.082Z"/>
		<path fill="#00B4F3" d="M209.863 605.204C218.73 605.82 227.923 605.394 236.83 605.404L236.607 671.198Q226.929 671.071 217.253 671.272C217.235 656.587 217.766 641.702 216.966 627.048C211.248 641.888 205.251 656.787 199.081 671.444L182.585 671.506C178.253 659.389 172.547 647.651 167.539 635.794L164.099 627.707C165.175 642.076 164.392 657.028 164.355 671.45Q154.681 671.332 145.006 671.318L145.071 605.371L173.567 605.478C178.38 619.105 185.231 634.142 191.453 647.276Q201.026 626.401 209.863 605.204Z"/>
		<path fill="#70355B" d="M658.506 605.274L687.508 605.17L687.185 671.483L667.818 671.456C667.936 666.207 669.065 629.681 668.302 627.213C668.194 626.863 667.875 626.618 667.662 626.321C665.218 631.221 663.577 636.813 661.725 641.966Q656.508 656.735 651.016 671.404L632.595 671.384C626.955 655.934 621.443 639.683 614.673 624.698C614.604 640.307 614.801 655.905 614.56 671.515L596.096 671.494C595.805 649.475 596.043 627.417 596.028 605.394L614.555 605.256L624.898 605.215C631.246 619.905 635.559 635.596 641.59 650.48C647.876 635.693 653.027 620.378 658.506 605.274Z"/>
		<path fill="#00B4F3" d="M248.48 605.306L314.43 605.343L314.384 621.963L269.154 622.016L269.23 630.043C281.385 630.158 298.521 628.931 310.092 630.597C310.197 635.571 310.11 640.558 310.096 645.534L284.054 645.643Q276.704 645.67 269.356 645.851L269.314 654.337C284.688 654.847 300.196 654.442 315.589 654.508L315.649 671.387L248.654 671.122L248.48 605.306Z"/>
		<path fill="#70355B" d="M722.828 605.219L748.743 605.175Q763.345 638.5 778.609 671.528L757.347 671.52C755.979 668.081 754.766 662.657 752.145 660.03C751.105 658.987 750.009 659.262 748.625 659.208C738.414 659.243 728.167 658.918 717.965 659.397C716.152 663.299 714.678 667.42 713.078 671.417L691.897 671.388C695.842 662.403 719.669 608.369 722.828 605.219ZM725.038 644.314L734.875 644.349L745.803 644.271C744.021 640.044 737.749 622.208 735.208 620.235C731.814 628.253 728.295 636.24 725.038 644.314Z"/>
		<path fill="#00B4F3" d="M414.954 605.336C423.61 605.579 432.322 605.412 440.985 605.446C449.415 627.824 461.024 648.968 470.073 671.119L448.046 671.088C446.876 667.95 445.777 663.733 443.876 661C443.229 660.07 443.155 660.28 442.125 660.075L410.931 660.062C409.317 663.641 408.08 667.381 406.778 671.081L385.09 671.065Q400.659 638.49 414.954 605.336ZM418.385 644.035L428.763 644.044L436.646 644.018C434.64 638.901 430.472 625.839 427.207 622.353Q423.298 633.398 418.385 644.035Z"/>
		<path fill="#34234D" d="M491.934 715.636C498.301 715.028 504.487 716.055 510.107 719.184Q510.716 719.525 511.307 719.897Q511.898 720.268 512.47 720.669Q513.041 721.07 513.592 721.5Q514.142 721.929 514.67 722.386Q515.198 722.843 515.703 723.326Q516.207 723.809 516.686 724.317Q517.165 724.824 517.618 725.356Q518.071 725.887 518.496 726.441Q518.921 726.995 519.318 727.569Q519.714 728.144 520.082 728.738Q520.449 729.332 520.785 729.943Q521.122 730.555 521.427 731.183Q521.732 731.811 522.005 732.454Q522.278 733.096 522.518 733.752Q522.758 734.408 522.964 735.075Q523.171 735.741 523.343 736.418Q523.537 737.146 523.695 737.882Q523.853 738.619 523.973 739.362Q524.093 740.106 524.176 740.855Q524.258 741.603 524.303 742.355Q524.348 743.107 524.354 743.86Q524.361 744.614 524.33 745.366Q524.299 746.119 524.23 746.869Q524.161 747.619 524.054 748.365Q523.947 749.11 523.803 749.849Q523.658 750.589 523.477 751.32Q523.296 752.051 523.078 752.772Q522.86 753.493 522.606 754.202Q522.351 754.911 522.062 755.606Q521.772 756.302 521.448 756.982Q521.124 757.662 520.766 758.324Q520.408 758.987 520.017 759.631C515.504 767.024 508.647 771.029 500.394 773.045C493.116 773.524 486.235 772.585 479.984 768.493C473.604 764.315 469.108 757.458 467.574 750.006Q467.429 749.294 467.32 748.577Q467.211 747.859 467.137 747.136Q467.064 746.414 467.027 745.689Q466.989 744.964 466.988 744.238Q466.987 743.511 467.022 742.786Q467.056 742.061 467.127 741.338Q467.198 740.616 467.305 739.897Q467.412 739.179 467.554 738.467Q467.696 737.755 467.873 737.051Q468.051 736.347 468.263 735.653Q468.475 734.958 468.722 734.275Q468.968 733.592 469.249 732.922Q469.529 732.252 469.842 731.597Q470.155 730.942 470.5 730.304Q470.846 729.665 471.222 729.044Q471.599 728.423 472.006 727.822C476.868 720.634 483.648 717.209 491.934 715.636ZM500.022 767.547C506.828 766.013 512.276 763.11 516.008 756.939Q516.316 756.42 516.598 755.886Q516.879 755.352 517.135 754.805Q517.39 754.259 517.619 753.7Q517.847 753.141 518.048 752.572Q518.249 752.003 518.422 751.424Q518.594 750.846 518.739 750.26Q518.883 749.674 518.998 749.081Q519.114 748.489 519.2 747.891Q519.287 747.294 519.344 746.693Q519.401 746.092 519.428 745.489Q519.456 744.886 519.454 744.283Q519.452 743.679 519.421 743.076Q519.389 742.473 519.328 741.873Q519.268 741.272 519.177 740.676Q519.087 740.079 518.968 739.487Q518.849 738.895 518.701 738.31Q518.559 737.741 518.388 737.181Q518.218 736.62 518.019 736.069Q517.821 735.517 517.595 734.977Q517.369 734.436 517.116 733.908Q516.863 733.379 516.583 732.864Q516.304 732.349 515.999 731.848Q515.694 731.348 515.365 730.863Q515.035 730.379 514.681 729.912Q514.327 729.445 513.951 728.996Q513.574 728.547 513.175 728.118Q512.776 727.689 512.356 727.28Q511.936 726.872 511.496 726.485Q511.055 726.098 510.596 725.734Q510.137 725.369 509.66 725.029Q509.183 724.688 508.69 724.372Q508.197 724.056 507.688 723.765C503.521 721.37 498.574 720.329 493.79 720.601C486.905 721.888 480.851 724.627 476.71 730.548C473.104 735.703 471.842 742.31 472.945 748.475C474.051 754.657 477.535 760.35 482.772 763.875C488.114 767.47 493.804 767.859 500.022 767.547Z"/>
		<path fill="#00B4F3" d="M320.939 605.181Q355.908 605.463 390.878 605.348Q390.526 613.736 390.529 622.132L366.046 622.139L366.047 646.75L366.003 671.097L345.49 671.163L345.513 622.122Q333.112 622.24 320.711 622.132C320.968 616.505 320.883 610.817 320.939 605.181Z"/>
		<path fill="#00B4F3" d="M479.189 605.39L500.22 605.465Q500.45 629.708 500.16 653.95Q522.062 653.775 543.964 653.884C543.983 659.628 544.336 665.546 543.79 671.261L479.294 671.275L479.189 605.39Z"/>
		<path fill="#34234D" d="M240.19 742.584C256.713 742.272 440.712 742.085 442.572 742.945C443.236 743.251 443.205 743.645 443.448 744.271C443.193 745.65 442.976 746.209 442.011 747.235L295.99 747.425L256.281 747.424C251.709 747.421 245.845 748.136 241.478 747.366C240.195 747.139 240.034 746.985 239.326 746.009C239.14 744.515 239.542 743.88 240.19 742.584Z"/>
		<path fill="#34234D" d="M546.519 742.055C564.714 741.993 740.757 741.232 743.259 742.499C743.844 743.801 743.586 744.844 743.382 746.198Q672.321 746.746 601.258 746.545L563.394 746.478C559.594 746.473 555.762 746.935 551.977 746.82C550.237 746.767 548.782 746.471 547.217 745.724C546.3 744.291 546.49 743.721 546.519 742.055Z"/>
		<path fill="#34234D" d="M547.189 629.641L584.363 629.63C584.415 634.587 584.344 639.556 584.332 644.514L547.261 644.527L547.189 629.641Z"/>
		<path fill="#34234D" d="M609.554 411.123C617.47 411.116 699.241 410.38 700.653 411.099C700.954 411.252 701.158 411.547 701.411 411.771C701.513 413.007 701.382 413.602 700.876 414.733C683.613 415.593 666.006 415.015 648.706 415.062C636.552 415.096 623.445 415.965 611.414 414.954C610.586 414.884 610.028 414.668 609.325 414.24C608.839 412.807 609.072 412.586 609.554 411.123Z"/>
		<path fill="#34234D" d="M606.465 420.86C607.192 420.898 607.968 420.917 608.647 421.219C611.575 422.521 653.824 461.907 654.26 463.222C654.51 463.976 653.749 464.845 653.403 465.503C652.48 465.321 651.76 465.066 651.002 464.499C642.85 458.4 633.935 449.179 626.307 442.163C621.311 437.566 610.443 428.775 606.824 423.601C606.007 422.435 606.211 422.185 606.465 420.86Z"/>
		<path fill="#34234D" d="M862.465 527.186C870.445 527.152 917.849 526.005 920.635 527.718C921.31 529.095 920.972 529.702 920.707 531.184C911.298 530.993 866.411 532.117 862.577 530.717C861.928 529.452 862.218 528.51 862.465 527.186Z"/>
		<path fill="#34234D" d="M709.159 421.398C710.083 421.877 710.38 422.231 711.042 423.006C711.002 423.353 711.057 423.726 710.921 424.048C709.975 426.298 668.885 461.196 664.355 465.185C663.329 464.369 663.11 464.18 662.607 462.981C663.701 459.546 703.269 425.847 709.159 421.398Z"/>
		<path fill="#34234D" d="M650.048 473.314C650.207 473.373 650.384 473.396 650.525 473.49C651.579 474.193 651.963 474.616 652.216 475.784C648.323 481.245 641.565 486.213 636.587 490.748Q622.228 503.714 608.143 516.976C606.993 516.488 606.398 516.168 605.606 515.192C605.681 514.8 605.655 514.373 605.831 514.014C606.968 511.697 644.66 478.13 650.048 473.314Z"/>
		<path fill="#34234D" d="M666.751 475.675C668.015 475.951 668.9 476.339 669.935 477.13C674.572 480.677 706.574 509.361 709.154 512.976C709.943 514.081 709.713 514.402 709.505 515.675L707.732 516.062C706.243 515.661 669.219 482.235 667.284 479.708C666.239 478.344 666.621 477.253 666.751 475.675Z"/>
	</g>
	<g>
		<path fill="none" d="M0 0L1024 0L1024 1024L0 1024L0 0ZM143.659 527.484C135.949 527.453 98.5507 526.404 94.1593 527.699C93.4084 528.684 93.1836 528.679 93.1275 529.973C94.4837 531.426 96.4337 531.425 98.3058 531.487C104.93 531.707 111.642 531.421 118.279 531.416Q136.457 531.49 154.633 531.274L355.582 530.865C428.036 531.792 500.522 530.314 572.979 530.999L685.839 531.109L724.528 531.044C729.868 531.036 735.388 531.532 740.704 531.14C742.649 530.997 743.882 530.808 745.193 529.313L745.06 528.084C743.915 527.135 743.021 527.153 741.557 527.068C729.01 526.339 715.964 527.138 703.366 527.147L616.461 527.452C610.947 527.473 590.759 528.427 586.484 527.191C583.863 526.433 584.737 521.631 583.638 519.531C582.418 514.198 583.41 500.049 583.43 493.916C583.514 467.346 584.365 440.678 583.858 414.121C587.876 408.689 593.32 404.045 598.19 399.386C607.683 390.304 617.435 381.48 626.856 372.329C630.314 368.97 634.726 365.374 637.5 361.439C638.209 360.434 638.298 359.874 638.148 358.687L637.427 358.275C635.969 358.374 634.729 358.732 633.612 359.714C630.364 362.57 627.451 366.432 624.216 369.482Q603.791 388.438 584.031 408.085L569.013 393.984C557.603 383.586 546.976 372.106 536.117 361.135C531.346 356.314 516.604 339.841 509.962 340.504C502.818 341.217 469.746 376.348 462.27 384.108C453.756 391.898 445.658 400.312 437.304 408.293C429.373 400.014 420.789 392.361 412.589 384.345Q399.078 370.503 385.211 357.016C380.707 352.626 376.19 347.694 371.198 343.879C369.272 342.408 367.31 341.114 364.892 340.707C362.63 341.155 361.063 342.108 359.209 343.463C354.13 347.174 349.518 352.299 345.05 356.719C334.349 367.302 324.041 378.266 313.42 388.926C309.845 392.556 295.126 404.603 294.074 407.783C293.285 408.346 292.587 408.69 291.682 409.035C288.121 407.417 269.719 389.382 265.819 385.578L239.126 358.856C233.527 353.252 227.602 346.252 220.919 342C219.812 341.296 218.769 341.002 217.454 341.036C215.936 341.075 214.395 341.39 213.125 342.265C205.806 347.314 199.284 354.953 192.951 361.234L164.912 388.836C164.864 388.884 164.822 388.937 164.777 388.988C159.497 393.93 147.791 402.568 145.278 408.971C144.394 411.224 144.32 414.041 144.237 416.447C143.743 430.755 144.082 445.178 144.049 459.504C144.012 475.612 143.647 491.766 143.874 507.868C143.404 514.371 143.578 520.966 143.659 527.484ZM801.826 409.101C798.499 405.207 794.517 400.141 790.353 397.174C789.065 396.256 788.277 395.833 786.674 396.145C781.933 397.066 771.581 409.115 768.757 413.139C772.262 418.886 777.249 423.548 781.943 428.313Q779.009 435.003 776.592 441.896C770.775 441.64 763.25 440.431 757.628 441.972C756.09 443.364 755.864 445.42 755.599 447.434C755.11 451.147 754.337 465.022 756.557 467.922C761.777 470.497 771.058 469.154 776.891 468.91C778.079 473.406 779.086 478.13 781.615 482.095C777.948 486.201 770.003 493.206 768.392 498.014C768.551 498.708 768.686 499.361 768.952 500.024C774.364 503.383 778.453 509.987 783.343 514.136C784.364 515.002 785.607 515.634 786.988 515.379C791.618 514.525 798.895 504.08 802.028 500.279C806.524 503.087 811.469 504.714 816.422 506.503L816.338 527.059C824.984 529.358 835.994 529.527 844.44 526.363C844.862 519.432 844.388 512.325 844.046 505.397C848.884 504.215 853.278 502.687 857.76 500.504C862.7 505.879 867.766 510.945 873.213 515.804C879.34 511.811 888.08 503.758 891.9 497.49C887.776 491.837 882.292 486.931 877.303 482.047C879.179 477.934 880.817 473.878 881.875 469.474C888.021 469.561 896.064 470.604 901.969 469.079C902.982 468.248 903.059 467.93 903.398 466.647C904.915 460.906 905.333 448.732 902.382 443.562C900.037 441.693 886.304 442.686 882.356 442.698C880.89 437.608 878.807 433.003 876.388 428.299C880.554 424.715 887.879 418.726 889.62 413.477C889.952 412.476 889.849 412.375 889.374 411.487C886.976 407.005 876.656 397.196 871.815 395.599C867.336 396.981 860.673 405.436 857.515 409.075C853.304 407.258 849.18 405.618 844.778 404.317C844.38 399.242 845.955 388.881 843.826 384.664C843.285 383.591 841.532 383.101 840.441 382.839C834.477 381.407 821.225 380.813 815.834 383.984C813.317 387.881 815.151 398.727 815.471 403.536C810.855 405.239 806.347 407.166 801.826 409.101ZM269.23 630.043L269.154 622.016L314.384 621.963L314.43 605.343L248.48 605.306L248.654 671.122L315.649 671.387L315.589 654.508C300.196 654.442 284.688 654.847 269.314 654.337L269.356 645.851Q276.704 645.67 284.054 645.643L310.096 645.534C310.11 640.558 310.197 635.571 310.092 630.597C298.521 628.931 281.385 630.158 269.23 630.043ZM691.897 671.388L713.078 671.417C714.678 667.42 716.152 663.299 717.965 659.397C728.167 658.918 738.414 659.243 748.625 659.208C750.009 659.262 751.105 658.987 752.145 660.03C754.766 662.657 755.979 668.081 757.347 671.52L778.609 671.528Q763.345 638.5 748.743 605.175L722.828 605.219C719.669 608.369 695.842 662.403 691.897 671.388ZM385.09 671.065L406.778 671.081C408.08 667.381 409.317 663.641 410.931 660.062L442.125 660.075C443.155 660.28 443.229 660.07 443.876 661C445.777 663.733 446.876 667.95 448.046 671.088L470.073 671.119C461.024 648.968 449.415 627.824 440.985 605.446C432.322 605.412 423.61 605.579 414.954 605.336Q400.659 638.49 385.09 671.065ZM217.253 671.272Q226.929 671.071 236.607 671.198L236.83 605.404C227.923 605.394 218.73 605.82 209.863 605.204Q201.026 626.401 191.453 647.276C185.231 634.142 178.38 619.105 173.567 605.478L145.071 605.371L145.006 671.318Q154.681 671.332 164.355 671.45C164.392 657.028 165.175 642.076 164.099 627.707L167.539 635.794C172.547 647.651 178.253 659.389 182.585 671.506L199.081 671.444C205.251 656.787 211.248 641.888 216.966 627.048C217.766 641.702 217.235 656.587 217.253 671.272ZM491.934 715.636C483.648 717.209 476.868 720.634 472.006 727.822Q471.599 728.423 471.222 729.044Q470.846 729.665 470.5 730.304Q470.155 730.942 469.842 731.597Q469.529 732.253 469.249 732.922Q468.969 733.592 468.722 734.275Q468.475 734.958 468.263 735.653Q468.051 736.347 467.873 737.051Q467.696 737.755 467.554 738.467Q467.411 739.179 467.305 739.897Q467.198 740.616 467.127 741.338Q467.056 742.061 467.022 742.786Q466.987 743.511 466.988 744.238Q466.989 744.964 467.027 745.689Q467.064 746.414 467.137 747.136Q467.211 747.859 467.32 748.577Q467.429 749.294 467.574 750.006C469.108 757.458 473.604 764.315 479.984 768.493C486.235 772.585 493.116 773.524 500.394 773.045C508.647 771.029 515.504 767.024 520.017 759.631Q520.408 758.987 520.766 758.324Q521.124 757.662 521.448 756.982Q521.772 756.302 522.062 755.606Q522.351 754.911 522.606 754.202Q522.86 753.493 523.078 752.772Q523.296 752.051 523.477 751.32Q523.658 750.589 523.803 749.849Q523.947 749.11 524.054 748.365Q524.161 747.619 524.23 746.869Q524.299 746.119 524.33 745.366Q524.361 744.614 524.354 743.86Q524.348 743.107 524.303 742.355Q524.258 741.603 524.176 740.855Q524.093 740.106 523.973 739.362Q523.853 738.619 523.695 737.882Q523.537 737.146 523.343 736.418Q523.171 735.741 522.964 735.075Q522.758 734.408 522.518 733.752Q522.278 733.096 522.005 732.454Q521.732 731.811 521.427 731.183Q521.122 730.555 520.785 729.943Q520.449 729.332 520.082 728.738Q519.715 728.144 519.318 727.569Q518.921 726.995 518.496 726.441Q518.071 725.887 517.618 725.356Q517.165 724.824 516.686 724.317Q516.207 723.809 515.703 723.326Q515.198 722.843 514.67 722.386Q514.142 721.929 513.592 721.5Q513.041 721.07 512.47 720.669Q511.898 720.268 511.307 719.897Q510.716 719.525 510.107 719.184C504.487 716.055 498.301 715.028 491.934 715.636ZM596.096 671.494L614.56 671.515C614.801 655.905 614.604 640.307 614.673 624.698C621.443 639.683 626.955 655.934 632.595 671.384L651.016 671.404Q656.508 656.735 661.725 641.966C663.577 636.813 665.218 631.221 667.662 626.321C667.875 626.618 668.194 626.863 668.302 627.213C669.065 629.681 667.936 666.207 667.818 671.456L687.185 671.483L687.508 605.17L658.506 605.274C653.027 620.378 647.876 635.693 641.59 650.48C635.559 635.596 631.246 619.905 624.898 605.215L614.555 605.256L596.028 605.394C596.043 627.417 595.805 649.475 596.096 671.494ZM320.711 622.132Q333.112 622.24 345.513 622.122L345.49 671.163L366.003 671.097L366.047 646.75L366.046 622.139L390.529 622.132Q390.526 613.736 390.878 605.348Q355.908 605.463 320.939 605.181C320.883 610.817 320.968 616.505 320.711 622.132ZM700.876 414.733C701.382 413.602 701.513 413.007 701.411 411.771C701.158 411.547 700.954 411.252 700.653 411.099C699.241 410.38 617.47 411.116 609.554 411.123C609.072 412.586 608.839 412.807 609.325 414.24C610.028 414.668 610.586 414.884 611.414 414.954C623.445 415.965 636.552 415.096 648.706 415.062C666.006 415.015 683.613 415.593 700.876 414.733ZM653.403 465.503C653.749 464.845 654.51 463.976 654.26 463.222C653.824 461.907 611.575 422.521 608.647 421.219C607.968 420.917 607.192 420.898 606.465 420.86C606.211 422.185 606.007 422.435 606.824 423.601C610.443 428.775 621.311 437.566 626.307 442.163C633.935 449.179 642.85 458.4 651.002 464.499C651.76 465.066 652.48 465.321 653.403 465.503ZM543.79 671.261C544.336 665.546 543.983 659.628 543.964 653.884Q522.062 653.775 500.16 653.95Q500.45 629.708 500.22 605.465L479.189 605.39L479.294 671.275L543.79 671.261ZM920.707 531.184C920.972 529.702 921.31 529.095 920.635 527.718C917.849 526.005 870.445 527.152 862.465 527.186C862.218 528.51 861.928 529.452 862.577 530.717C866.411 532.117 911.298 530.993 920.707 531.184ZM547.189 629.641L547.261 644.527L584.332 644.514C584.344 639.556 584.415 634.587 584.363 629.63L547.189 629.641ZM608.143 516.976Q622.228 503.714 636.587 490.748C641.565 486.213 648.323 481.245 652.216 475.784C651.963 474.616 651.579 474.193 650.525 473.49C650.384 473.396 650.207 473.373 650.048 473.314C644.66 478.13 606.968 511.697 605.831 514.014C605.655 514.373 605.681 514.8 605.606 515.192C606.398 516.168 606.993 516.488 608.143 516.976ZM731.409 295.476Q726.316 291.371 721.18 287.319C716.185 291.188 711.129 295.95 707.576 301.202C709.717 305.204 712.622 308.655 715.588 312.069C714.145 315.141 712.647 318.196 711.407 321.358C707.919 321.869 700.261 321.571 697.895 323.939C696.228 328.886 696.325 337.466 698.343 342.251C700.456 344.334 707.948 344.229 711.014 344.649C712.424 348.042 713.728 351.56 715.433 354.813C712.551 358.424 710.145 361.614 708.485 365.989C711.707 370.798 716.699 375.641 721.569 378.776C725.762 376.582 728.941 373.373 732.235 370.032C735.418 371.805 738.405 372.941 741.996 373.706C742.287 377.115 741.971 385.708 744.495 388.062C746.918 390.321 756.771 389.079 760.125 388.984C761.675 388.746 763.044 388.724 764.176 387.516C766.36 383.17 765.054 377.759 765.373 373.033C768.219 372.399 771.098 371.845 773.823 370.789C776.625 373.454 780.871 378.579 785.129 378.033C789.537 377.469 796.253 369.319 799.188 365.921C796.758 361.842 794.099 358.029 791.201 354.27C792.594 351.01 794.004 347.788 795.052 344.398C798.028 344.246 805.792 344.702 807.957 342.756C809.812 341.088 809.251 329.536 809.018 327.012C808.872 325.433 808.658 324.137 807.999 322.693C804.497 320.675 798.934 321.16 794.927 321.019C793.992 317.797 792.916 314.791 791.353 311.811Q795.087 306.26 799.021 300.849C797.042 297.021 789.869 289.064 785.578 287.932C784.456 287.636 782.905 288.7 782.008 289.336C779.415 291.174 776.922 293.354 774.616 295.538C771.505 294.23 765.615 293.005 764.511 289.497C763.517 286.338 765.906 280.954 762.91 278.822C759.604 276.469 750.797 277.631 746.754 277.688C745.292 278.046 744.124 278.048 743.194 279.392C741.292 282.14 741.193 289.241 740.309 292.714C737.195 293.316 734.365 294.36 731.409 295.476ZM664.355 465.185C668.885 461.196 709.975 426.298 710.921 424.048C711.057 423.726 711.002 423.353 711.042 423.006C710.38 422.231 710.083 421.877 709.159 421.398C703.269 425.847 663.701 459.546 662.607 462.981C663.11 464.18 663.329 464.369 664.355 465.185ZM709.505 515.675C709.713 514.402 709.943 514.081 709.154 512.976C706.574 509.361 674.572 480.677 669.935 477.13C668.9 476.339 668.015 475.951 666.751 475.675C666.621 477.253 666.239 478.344 667.284 479.708C669.219 482.235 706.243 515.661 707.732 516.062L709.505 515.675ZM546.519 742.055C546.49 743.721 546.3 744.291 547.217 745.724C548.782 746.471 550.237 746.767 551.977 746.82C555.762 746.935 559.594 746.473 563.394 746.478L601.258 746.545Q672.321 746.746 743.382 746.198C743.586 744.844 743.844 743.801 743.259 742.499C740.757 741.232 564.714 741.993 546.519 742.055ZM442.011 747.235C442.976 746.209 443.193 745.65 443.448 744.271C443.205 743.645 443.236 743.251 442.572 742.945C440.712 742.085 256.713 742.272 240.19 742.584C239.542 743.88 239.14 744.515 239.326 746.009C240.034 746.985 240.195 747.139 241.478 747.366C245.845 748.136 251.709 747.421 256.281 747.424L295.99 747.425L442.011 747.235ZM23.5905 787.075C22.8736 788.488 22.6876 788.743 22.8141 790.3C24.5147 792.107 26.2436 792.156 28.6401 792.247C34.9555 792.487 41.4162 792.036 47.7429 791.938C55.78 791.813 63.8403 792.007 71.8807 792.012L176.303 791.998L488.563 791.637L830.167 791.551L946.992 791.708C965.631 791.723 984.4 792.296 1003.03 791.756C1004.01 791.162 1004.68 790.968 1004.81 789.689C1004.85 789.344 1004.71 788.819 1004.63 788.476C1001.96 786.484 995.697 787.244 992.368 787.283C926.889 788.037 861.341 786.911 795.851 786.952L304.617 787.05L109.773 787.149L52.0788 786.964C42.8155 786.924 32.7981 786.145 23.5905 787.075ZM861.32 667.899C858.375 665.856 855.36 663.847 852.557 661.611C859.619 654.254 862.16 647.175 861.999 637.103C861.864 628.593 859.624 620.442 853.415 614.284C844.828 605.767 832.584 604.053 821.025 604.343C818.713 604.401 816.283 604.362 813.994 604.69C804.582 605.887 795.295 608.11 789.049 615.891C782.695 623.806 781.715 634.998 782.917 644.729C783.876 652.481 786.605 659.524 793.002 664.444C803.258 672.332 820.231 673.121 832.489 671.261C836.037 670.722 840.352 669.029 843.592 670.813C846.695 672.881 851.164 677.184 854.917 676.73C857.927 674.73 859.444 670.91 861.32 667.899Z"/>
		<path fill="none" d="M827.854 422.692C834.824 422.105 842.477 424.22 848.321 428.015Q849 428.457 849.656 428.933Q850.312 429.409 850.944 429.917Q851.575 430.425 852.18 430.964Q852.786 431.503 853.363 432.071Q853.941 432.64 854.489 433.237Q855.037 433.833 855.555 434.457Q856.073 435.08 856.559 435.729Q857.045 436.377 857.498 437.049Q857.951 437.721 858.37 438.415Q858.788 439.109 859.172 439.823Q859.555 440.537 859.903 441.269Q860.25 442.001 860.56 442.75Q860.871 443.499 861.143 444.262Q861.416 445.025 861.649 445.801Q861.883 446.577 862.078 447.364Q862.273 448.151 862.428 448.946C864.115 457.461 862.113 466.121 857.255 473.272C851.415 481.869 843.502 485.631 833.554 487.499C824.726 487.719 816.741 485.978 809.627 480.506Q808.989 480.01 808.377 479.483Q807.764 478.956 807.179 478.399Q806.593 477.843 806.035 477.258Q805.478 476.673 804.95 476.061Q804.422 475.449 803.926 474.812Q803.429 474.175 802.964 473.514Q802.499 472.853 802.068 472.169Q801.636 471.486 801.239 470.783Q800.842 470.079 800.48 469.356Q800.119 468.634 799.793 467.894Q799.468 467.155 799.179 466.4Q798.89 465.645 798.639 464.877Q798.389 464.109 798.176 463.33Q797.963 462.55 797.79 461.761Q797.616 460.972 797.481 460.175Q797.347 459.378 797.252 458.576Q797.149 457.797 797.085 457.014Q797.021 456.231 796.995 455.446Q796.97 454.66 796.984 453.875Q796.998 453.089 797.051 452.305Q797.104 451.521 797.196 450.741Q797.288 449.961 797.418 449.186Q797.549 448.411 797.718 447.644Q797.887 446.876 798.094 446.118Q798.3 445.36 798.545 444.614Q798.789 443.867 799.07 443.133Q799.351 442.4 799.669 441.681Q799.986 440.962 800.339 440.26Q800.691 439.558 801.079 438.874Q801.466 438.19 801.886 437.527Q802.307 436.863 802.76 436.221Q803.214 435.58 803.698 434.961C809.68 427.438 818.521 423.786 827.854 422.692Z"/>
		<path fill="none" d="M749.437 310.593C754.244 310.134 758.857 310.245 763.331 312.309Q763.825 312.54 764.306 312.795Q764.787 313.051 765.255 313.331Q765.722 313.611 766.175 313.914Q766.628 314.217 767.065 314.543Q767.501 314.869 767.921 315.217Q768.34 315.564 768.742 315.933Q769.143 316.301 769.525 316.69Q769.907 317.078 770.269 317.486Q770.631 317.893 770.971 318.319Q771.312 318.744 771.63 319.186Q771.949 319.628 772.244 320.086Q772.54 320.544 772.812 321.016Q773.084 321.489 773.331 321.974Q773.579 322.459 773.801 322.957Q774.024 323.454 774.22 323.962Q774.417 324.471 774.588 324.988C776.525 330.669 776.324 336.931 773.638 342.334C770.31 349.026 764.616 352.389 757.765 354.549C752.161 355.329 747.15 354.754 742.157 351.832Q741.651 351.533 741.161 351.209Q740.671 350.885 740.197 350.536Q739.724 350.188 739.268 349.817Q738.813 349.445 738.377 349.051Q737.941 348.657 737.525 348.242Q737.109 347.827 736.714 347.391Q736.32 346.956 735.947 346.501Q735.575 346.046 735.226 345.573Q734.877 345.1 734.552 344.611Q734.227 344.121 733.927 343.616Q733.627 343.11 733.353 342.59Q733.079 342.071 732.831 341.538Q732.583 341.005 732.362 340.46Q732.141 339.916 731.948 339.361Q731.754 338.806 731.589 338.242Q731.424 337.678 731.287 337.106Q731.163 336.583 731.066 336.054Q730.969 335.525 730.898 334.991Q730.827 334.458 730.783 333.922Q730.74 333.386 730.723 332.848Q730.706 332.311 730.716 331.773Q730.726 331.235 730.763 330.699Q730.799 330.162 730.863 329.628Q730.927 329.094 731.018 328.564Q731.108 328.033 731.225 327.508Q731.342 326.983 731.485 326.465Q731.628 325.946 731.797 325.436Q731.966 324.925 732.16 324.423Q732.355 323.922 732.574 323.431Q732.793 322.939 733.037 322.46Q733.28 321.98 733.547 321.514Q733.815 321.047 734.105 320.594C737.674 314.973 743.121 312.071 749.437 310.593Z"/>
		<path fill="none" d="M817.621 619.635C821.243 619.452 824.96 619.267 828.548 619.912C832.828 620.681 836.775 622.618 839.177 626.366C843.274 632.759 841.672 641.995 839.978 648.93C836.053 646.619 832.749 643.482 828.867 641.215C827.509 640.422 825.954 639.839 824.392 640.456C821.14 641.74 819.92 646.811 818.78 649.745L818.76 649.898C820.132 652.295 826.236 655.282 828.747 657.082C822.548 656.922 813.979 657.274 808.554 653.749C805.482 651.753 803.797 648.473 803.051 644.964C801.817 639.157 802.076 631.235 805.484 626.227C808.446 621.873 812.711 620.525 817.621 619.635Z"/>
		<path fill="none" d="M735.208 620.235C737.749 622.208 744.021 640.044 745.803 644.271L734.875 644.349L725.038 644.314C728.295 636.24 731.814 628.253 735.208 620.235Z"/>
		<path fill="none" d="M427.207 622.353C430.472 625.839 434.64 638.901 436.646 644.018L428.763 644.044L418.385 644.035Q423.298 633.398 427.207 622.353Z"/>
		<path fill="none" d="M493.79 720.601C498.574 720.329 503.521 721.37 507.688 723.765Q508.197 724.056 508.69 724.372Q509.183 724.688 509.66 725.029Q510.137 725.369 510.596 725.734Q511.055 726.098 511.496 726.485Q511.936 726.872 512.356 727.28Q512.776 727.689 513.175 728.118Q513.574 728.547 513.951 728.996Q514.327 729.445 514.681 729.912Q515.035 730.379 515.365 730.863Q515.694 731.348 515.999 731.848Q516.304 732.349 516.583 732.864Q516.863 733.379 517.116 733.908Q517.369 734.436 517.595 734.977Q517.821 735.517 518.019 736.069Q518.218 736.62 518.388 737.181Q518.559 737.741 518.701 738.31Q518.849 738.895 518.968 739.487Q519.087 740.079 519.177 740.676Q519.268 741.272 519.328 741.873Q519.389 742.474 519.421 743.076Q519.452 743.679 519.454 744.283Q519.456 744.886 519.428 745.489Q519.401 746.092 519.344 746.693Q519.287 747.294 519.2 747.891Q519.114 748.489 518.998 749.081Q518.883 749.674 518.739 750.26Q518.594 750.846 518.422 751.424Q518.249 752.003 518.048 752.572Q517.847 753.141 517.619 753.7Q517.39 754.259 517.135 754.805Q516.879 755.352 516.598 755.886Q516.316 756.42 516.008 756.939C512.276 763.11 506.828 766.013 500.022 767.547C493.804 767.859 488.114 767.47 482.772 763.875C477.535 760.35 474.051 754.657 472.945 748.475C471.842 742.31 473.104 735.703 476.71 730.548C480.851 724.627 486.905 721.888 493.79 720.601Z"/>
		<path fill="#34234D" d="M660.755 340.775C661.063 340.849 661.374 340.908 661.678 340.998C663.769 341.616 712.758 390.235 714.193 392.989C714.584 393.738 714.157 394.416 713.952 395.187C713.12 395.177 712.299 395.2 711.537 394.798C708.994 393.458 661.058 345.231 660.415 343.642C659.911 342.398 660.302 341.973 660.755 340.775Z"/>
		<path fill="#34234D" d="M760.886 527.458C768.225 527.075 809.757 526.512 814.501 527.748C815.185 529.08 814.866 529.748 814.658 531.205L779.315 531.23C773.693 531.237 767.189 531.869 761.688 530.85C760.795 529.687 760.969 528.899 760.886 527.458Z"/>
	</g>
</svg>
