<?xml version="1.0" encoding="utf-8" ?>
<svg xmlns="http://www.w3.org/2000/svg" xmlns:xlink="http://www.w3.org/1999/xlink" width="500" height="500">
	<g>
		<path fill="#262626" transform="scale(0.488281 0.488281)" d="M466.094 332.659C463.822 318.949 456.725 306.654 463.378 292.805C467.507 284.209 475.328 278.229 484.212 275.122C498.541 270.111 515.621 272.684 529.036 279.192C534.794 277.444 540.676 276.485 546.517 278.602C552.037 280.603 556.138 284.925 558.489 290.235C562.82 300.015 560.539 313.025 556.645 322.558C555.651 326.18 554.464 329.643 553.116 333.147C556.501 334.693 558.495 335.66 560.272 339.114C561.815 342.683 561.987 346.559 560.678 350.233C560.667 350.262 560.648 350.287 560.633 350.314C559.367 354.386 557.164 358.021 553.23 359.997C550.616 361.311 548.789 361.333 545.959 360.943C544.734 369.015 543.067 378.87 539.853 386.4C538.916 391.552 539.065 396.786 538.94 402.004C538.974 405.649 539.077 409.31 538.905 412.951Q544.806 421.148 550.949 429.165L555.79 430.645C560.008 431.365 564.181 432.674 568.318 433.766C586.219 438.489 603.455 445.127 617.065 458.208C628.728 467.75 637.765 480.065 646.867 491.943L670.165 522.267Q679.292 533.79 688.232 545.458C690.946 549.014 694.088 552.622 696.369 556.46C698.193 558.037 699.721 560.217 701.24 562.096C708.102 570.587 712.328 579.184 713.177 590.232C713.992 600.823 711.084 613.266 705.086 622.106C703.893 623.865 699.948 628.04 699.682 629.85L782.936 629.952C783.051 619.47 783.991 608.898 784.646 598.434L785.479 584.631C785.493 579.073 785.778 573.298 786.411 567.777L786.541 563.247C786.379 555.827 786.899 547.569 787.921 540.22C787.915 533.926 788.333 527.378 789.026 521.119L788.803 520.478C790.053 509.822 789.601 498.979 790.94 488.343C790.628 480.427 791.566 471.69 792.389 463.803C792.426 461.454 792.279 458.912 793.067 456.68C797.15 455.254 826.531 456.072 832.783 456.41C833.743 457.243 833.535 458.042 833.67 459.261C833.669 465.468 834.516 471.638 834.549 477.835C835.063 484.455 835.62 491.163 835.601 497.805C836.421 505.554 836.215 513.354 836.811 521.108C837.104 527.691 837.243 534.319 837.705 540.889Q838.654 554.317 839.328 567.761C839.558 571.895 840.279 576.624 839.908 580.709C840.697 587.316 841.105 594.201 841.061 600.854C842.413 610.289 842.279 620.454 842.701 629.993L849.296 630.08C862.888 629.763 876.517 629.943 890.113 629.937C898.414 629.933 907.11 629.424 915.37 630.099C916.053 630.032 917.484 629.7 918.094 629.858C921.643 629.926 924.927 629.928 928.42 630.663L928.933 631.293C926.615 633.164 922.193 632.575 919.384 632.33C919.201 632.314 919.02 632.29 918.838 632.27L918.76 643.495C921.39 643.347 926.768 642.385 929.014 643.67L928.936 644.892C928.87 644.898 928.804 644.896 928.74 644.91C928.598 644.941 928.46 644.989 928.319 645.026C922.584 646.527 915.588 645.508 909.647 645.721C910.293 652.8 909.884 660.194 909.88 667.307L909.89 704.509C909.913 751.244 909.184 798.07 910.012 844.79Q927.456 844.914 944.898 844.618C951.346 844.53 958.351 843.893 964.759 844.563C966.013 844.694 967.336 844.978 968.275 845.889C969.107 846.695 969.587 847.83 969.406 848.995C969.182 850.428 968.473 851.253 967.507 852.221C966.086 852.82 964.982 852.896 963.446 852.914C931.773 853.294 900.003 852.664 868.32 852.589L714.25 852.651L243 852.629L116.752 852.711C107.191 852.733 55.7682 853.686 51.812 852.264C50.4839 851.787 50.126 851.21 49.4379 850.032C49.3381 848.636 49.3795 847.641 50.2432 846.461C51.2295 845.113 52.6461 844.455 54.2719 844.403C65.4863 844.046 79.4235 845.809 90.2691 844.581C97.6626 845.112 105.292 844.377 112.622 845.186L113.202 844.949C114.885 842.839 114.048 824.931 114.083 820.72C113.593 800.407 113.959 780.006 113.96 759.685C113.962 740.367 113.597 721.015 113.952 701.701C114.497 699.48 115.124 697.448 116.037 695.349Q116.133 688.351 115.971 681.354C114.904 677.604 115.968 674.119 114.041 670.356C113.626 664.275 113.979 657.958 113.975 651.841L113.827 616.529C114.767 614.853 114.88 612.997 115.921 611.32C116.327 602.463 116.031 593.51 115.994 584.642L122.627 582.91L122.913 580.336C114.64 582.651 106.174 585.551 97.77 587.27C96.0793 587.687 94.6898 587.952 92.9448 587.881C93.2992 582.19 92.7506 576.455 93.1347 570.741L92.4369 567.973C97.0478 567.839 113.346 562.346 118.759 560.674C120.327 560.19 121.459 560.085 122.24 558.598C122.884 546.364 122.853 533.968 123.906 521.775C123.679 517.513 124.073 513.049 124.181 508.77C125.241 508.801 125.585 508.684 126.542 508.312C136.69 507.974 146.855 508.152 157.007 508.181C161.853 508.194 167.228 508.613 172.016 507.913Q179.987 507.745 187.959 507.859L191.599 507.966C192.351 507.722 193.221 506.95 193.892 506.499L194.065 512.435C194.93 519.265 195.109 526.569 195.058 533.457C195.369 535.22 195.455 537.042 195.614 538.825Q207.107 535.225 218.715 532.019C224.481 530.421 231.46 529.125 236.83 526.493C236.802 522.931 236.957 519.361 237.056 515.8C236.887 511.744 237.162 507.655 237.323 503.599C237.413 498.592 237.246 493.422 237.949 488.46C237.867 484.992 238.093 481.55 238.296 478.089C238.4 474.166 238.433 470.234 238.931 466.336C238.816 463.959 239.041 461.473 239.109 459.087C239.013 454.339 239.411 449.483 239.579 444.731C239.752 438.211 239.35 430.985 240.48 424.591L241.235 424.897L241.016 426.208C241.778 425.579 242.225 424.582 242.53 423.648L242.382 429.592L242.72 430.869C245.389 432.247 250.182 431.208 253.251 431.604C268.137 432.005 283.054 431.487 297.944 431.675L298.156 434.396L299.062 433.952C299.224 432.746 298.941 431.948 298.608 430.802L299.117 430.062C299.151 430.282 299.174 430.504 299.218 430.723C299.451 431.865 299.927 432.834 300.421 433.878C300.599 437.239 300.854 440.615 300.921 443.979C300.986 446.905 301.252 449.977 301.088 452.891C301.844 460.345 301.739 467.884 302.23 475.363C302.904 485.942 303.088 496.548 303.666 507.132L309.989 505.318C311.552 504.759 313.248 504.432 314.86 504.026C319.301 502.702 323.724 501.351 328.244 500.318C330.684 499.117 332.864 498.725 335.039 496.912C336.729 494.579 338.551 492.339 340.333 490.076C342.166 486.885 344.863 483.823 347.085 480.873C357.879 466.543 370.511 453.432 387.833 447.284C397.861 440.855 429.814 435.65 442.686 433.283C448.471 432.22 455.535 431.767 460.687 428.868C461.111 428.396 461.525 427.915 461.953 427.447C466.934 421.998 470.475 415.451 475.542 410.11C475.576 406.651 475.619 403.223 475.922 399.776C475.717 397.869 475.861 395.931 475.925 394.017L472.041 362.763C472 362.65 471.984 362.524 471.919 362.424C471.147 361.231 469.356 361.226 468.06 360.936C467.983 360.932 467.904 360.941 467.829 360.925C464.015 360.108 461.081 356.979 459.137 353.773C458.759 353.25 458.455 352.607 458.19 352.022C456.145 347.494 456.449 342.497 458.171 337.958C458.831 336.585 459.848 335.604 460.88 334.51C462.536 333.67 464.323 333.197 466.094 332.659Z"/>
		<path fill="#434343" transform="scale(0.488281 0.488281)" d="M386.37 450.088C407.522 442.55 426.213 439.042 447.987 434.839C447.006 445.893 446.311 457.082 444.907 468.082C453.255 470.105 461.847 472.051 469.909 475.021C465.037 480.62 459.074 484.717 453.817 489.843Q479.567 526.088 504.624 562.816C512.762 574.777 520.882 586.581 529.294 598.352C532.213 602.436 534.863 606.749 537.927 610.721C540.054 604.065 542.039 597.3 544.429 590.734C548.744 578.88 553.886 567.284 558.393 555.492C561.457 547.479 584.029 485.924 583.573 483.016C578.028 478.199 569.962 475.33 563.673 471.397C570.222 469.404 576.926 468.061 583.614 466.63C580.258 457.74 574.453 446.948 572.479 437.942C592.244 441.649 609.06 453.213 623.013 467.229C626.512 470.744 629.652 474.599 633.105 478.152C646.956 495.752 660.27 513.778 674.075 531.421C679.24 538.022 684.23 545.222 689.827 551.417L690.137 551.883C694.483 558.308 699.998 563.959 704.229 570.44C710.241 579.651 711.825 592.674 709.825 603.329C706.293 622.153 691.904 633.018 679.66 646.423Q665.877 660.361 652.664 674.84C648.13 679.724 642.968 684.612 639.097 690.017L640.164 691.596C636.234 694.857 619.602 709.76 617.728 713.388C616.879 714.341 616.139 715.276 614.996 715.889C611.779 717.79 610.106 720.132 608.808 723.599L608.483 726.151Q609.108 736.152 609.062 746.173L607.795 744.151C607.694 745.738 607.694 747.231 607.031 748.706C607.021 757.624 607.421 766.53 607.433 775.439L527.529 775.476C526.108 773.423 524.766 771.344 522.992 769.575L520.126 775.311L426.45 775.449C423.325 775.448 406.486 776.136 404.465 775.405C404.131 775.284 403.902 774.97 403.62 774.753L403.294 772.916L402.717 773.944C402.671 773.287 402.839 772.639 402.327 772.19C401.463 781.07 403.032 790.304 401.926 799.077C401.561 796.597 401.656 793.943 401.576 791.433C401.428 778.084 401.634 764.737 401.61 751.387C401.596 743.425 400.98 735.061 401.708 727.144C390.466 716.945 378.013 707.216 365.825 698.165L362.305 695.181C359.819 693.127 357.467 690.881 355.081 688.711C353.5 687.56 352.053 686.119 350.584 684.823L344.531 679.839L341.081 676.686C339.16 675.337 337.458 673.714 335.714 672.146C331.296 668.783 327.185 664.922 323.002 661.27C320.765 659.021 318.285 656.943 315.933 654.81C313.863 653.255 311.967 651.413 310.037 649.686L307.147 647.352L304.016 644.425L291.289 633.612C289.351 632.047 287.581 630.218 285.775 628.502C282.051 624.083 279.347 619.844 276.857 614.628C272.388 602.905 271.58 590.415 275.757 578.474C276.505 575.388 278.254 572.47 279.963 569.82C285.147 561.781 291.55 554.453 297.471 546.947C302.035 541.161 306.334 534.988 311.186 529.454L312.719 529.504C317.213 526.488 323.515 516.837 326.338 512.04C329.36 509.235 333.663 503.246 335.69 499.569C337.888 497.519 339.76 494.564 341.615 492.171C345.227 488.053 348.359 483.092 351.662 478.692C362.216 464.631 371.025 458.04 386.37 450.088Z"/>
		<path fill="#fff" transform="scale(0.488281 0.488281)" d="M397.06 538.879C398.006 537.883 398.299 537.078 399.728 537.037C401.98 540.157 400.461 548.933 400.65 552.852Q400.532 567.749 400.673 582.646C400.699 587.627 401.09 592.994 400.581 597.938C399.845 604.14 400.312 610.651 400.269 616.903C392.619 616.887 369.819 615.001 364.222 617.493L359.704 612.303C356.738 608.467 353.344 604.861 350.169 601.19C349.713 600.595 349.175 599.97 348.809 599.317C348.065 597.985 348.076 597.875 348.5 596.494C353.415 592.365 361.844 581.014 366.296 575.72C376.491 563.596 387.689 551.612 397.06 538.879Z"/>
		<path fill="#fff" transform="scale(0.488281 0.488281)" d="M604.993 650C605.505 640.468 604.411 630.22 603.953 620.669Q602.777 596.346 601.906 572.01C601.617 564.817 600.509 557.089 601.156 549.951C602.516 551.409 603.841 553.007 605.317 554.342C607.302 556.972 609.484 559.347 611.736 561.748C613.141 563.42 614.527 565.374 616.217 566.756C619.593 570.746 628.426 582.066 632.068 584.586C633.936 586.795 635.741 589.297 638.043 591.062C639.052 592.39 640.041 593.744 641.108 595.026C636.221 603.259 626.823 617.506 623.739 625.803Q620.038 631.959 616.739 638.34C613.373 644.393 609.905 650.414 606.753 656.582L605.514 656.826C605.449 654.548 605.194 652.27 604.993 650Z"/>
		<path fill="#FEB4AF" transform="scale(0.488281 0.488281)" d="M398.164 662.736C399.32 663.61 400.131 664.445 401.06 665.559L401.39 667.464L401.496 706.749C401.524 713.44 401.089 720.507 401.708 727.144C390.466 716.945 378.013 707.216 365.825 698.165L366.357 696.922C366.487 696.882 366.622 696.855 366.748 696.804C374.511 693.703 393.108 669.814 396.889 662.647L398.164 662.736Z"/>
		<path fill="#FEB4AF" transform="scale(0.488281 0.488281)" d="M605.514 656.826L606.753 656.582L607.081 656.997C618.287 667.391 628.322 679.153 639.097 690.017L640.164 691.596C636.234 694.857 619.602 709.76 617.728 713.388C616.879 714.341 616.139 715.276 614.996 715.889C611.779 717.79 610.106 720.132 608.808 723.599C607.343 717.276 607.721 708.479 607.38 701.87C607.545 698.513 607.043 694.88 606.863 691.508L605.887 671.914C605.974 666.936 605.561 661.824 605.514 656.826Z"/>
		<path fill="#262626" transform="scale(0.488281 0.488281)" d="M603.437 660.26C602.479 652.849 603.947 645.285 603.442 637.836L599.034 561.81C598.286 549.696 597.823 537.629 597.336 525.506C597.087 519.297 596.382 512.937 596.855 506.734L597.952 506.087C600.454 508.901 600.672 538.401 600.352 543.834L600.309 544.459C600.647 546.622 602.964 548.267 604.185 550.041C606.982 552.938 609.587 556.021 612.226 559.063C614.333 561.478 616.532 563.861 618.525 566.372C624.453 572.251 630.052 578.728 635.56 585.01C637.808 587.582 640.431 590.171 642.374 592.966C643.309 593.856 643.462 594.077 643.858 595.303C642.463 599.158 639.288 603.043 637.202 606.608C632.856 614.037 628.844 621.668 624.389 629.031C622.191 633.011 620.083 637.079 617.763 640.987C616.074 644.796 611.34 655.247 607.541 656.868C607.395 656.93 607.235 656.954 607.081 656.997L606.753 656.582C609.905 650.414 613.373 644.393 616.739 638.34Q620.038 631.959 623.739 625.803C626.823 617.506 636.221 603.259 641.108 595.026C640.041 593.744 639.052 592.39 638.043 591.062C635.741 589.297 633.936 586.795 632.068 584.586C628.426 582.066 619.593 570.746 616.217 566.756C614.527 565.374 613.141 563.42 611.736 561.748C609.484 559.347 607.302 556.972 605.317 554.342C603.841 553.007 602.516 551.409 601.156 549.951C600.509 557.089 601.617 564.817 601.906 572.01Q602.777 596.346 603.953 620.669C604.411 630.22 605.505 640.468 604.993 650C605.194 652.27 605.449 654.548 605.514 656.826C605.561 661.824 605.974 666.936 605.887 671.914L606.863 691.508C607.043 694.88 607.545 698.513 607.38 701.87C607.721 708.479 607.343 717.276 608.808 723.599L608.483 726.151L606.509 726.474C605.814 718.071 605.129 709.566 605.11 701.132C604.732 695.942 604.432 690.818 604.453 685.61C602.973 677.721 603.415 668.309 603.437 660.26Z"/>
		<path fill="#ababab" transform="scale(0.488281 0.488281)" d="M400.581 597.938C401.26 609.208 400.808 620.729 400.931 632.029C400.728 631.948 400.526 631.861 400.32 631.786C397.738 630.84 378.674 630.968 376.135 632.066C371.819 627.733 368.022 622.298 364.222 617.493C369.819 615.001 392.619 616.887 400.269 616.903C400.312 610.651 399.845 604.14 400.581 597.938Z"/>
		<path fill="#fff" transform="scale(0.488281 0.488281)" d="M376.135 632.066C378.674 630.968 397.738 630.84 400.32 631.786C400.526 631.861 400.728 631.948 400.931 632.029L401.04 634.87L401.06 665.559C400.131 664.445 399.32 663.61 398.164 662.736C397.642 661.769 397.339 661.033 397.256 659.925C396.972 656.148 395.285 654.282 392.836 651.624L388.675 647.023L386.65 644.608Q382.707 639.596 378.406 634.888L376.135 632.066Z"/>
		<path fill="#262626" transform="scale(0.488281 0.488281)" d="M275.757 578.474C275.809 578.691 275.868 578.907 275.914 579.126C276.863 583.667 271.63 594.958 274.484 602.496C275.177 604.327 275.182 606.053 276.064 607.931L275.85 607.207C274.154 601.348 273.572 587.828 276.184 582.4C276.252 582.259 276.342 582.129 276.422 581.994C276.971 585.609 275.106 590.682 274.932 594.561C274.319 608.266 282.301 622.864 292.499 631.555C296.851 635.05 300.675 640.809 305.61 643.205C307.891 645.091 310.846 646.971 312.832 649.104L315.712 651.559Q324.71 659.243 333.551 667.108C336.786 670.009 340.964 672.88 343.807 676.094C346.788 678.596 349.944 681.03 352.667 683.808C354.843 685.311 356.911 687.165 358.811 689.006C361.496 691.414 364.535 693.755 366.357 696.922L365.825 698.165L362.305 695.181C359.819 693.127 357.467 690.881 355.081 688.711C353.5 687.56 352.053 686.119 350.584 684.823L344.531 679.839L341.081 676.686C339.16 675.337 337.458 673.714 335.714 672.146C331.296 668.783 327.185 664.922 323.002 661.27C320.765 659.021 318.285 656.943 315.933 654.81C313.863 653.255 311.967 651.413 310.037 649.686L307.147 647.352L304.016 644.425L291.289 633.612C289.351 632.047 287.581 630.218 285.775 628.502C282.051 624.083 279.347 619.844 276.857 614.628C272.388 602.905 271.58 590.415 275.757 578.474Z"/>
		<path fill="#262626" transform="scale(0.488281 0.488281)" d="M401.721 529.829C402.605 528.555 403.195 527.501 404.7 526.9L405.491 527.362C405.333 529.504 404.208 530.416 402.729 531.855C401.825 538.288 402.381 545.341 402.332 551.856L402.629 598.063C402.646 605.124 403.085 612.422 402.594 619.447C403.159 628.047 402.935 636.798 402.987 645.423C403.021 651.168 403.458 657.265 402.937 662.967C401.428 664.233 401.619 665.573 401.39 667.464L401.06 665.559L401.04 634.87L400.931 632.029C400.808 620.729 401.26 609.208 400.581 597.938C401.09 592.994 400.699 587.627 400.673 582.646Q400.532 567.749 400.65 552.852C400.461 548.933 401.98 540.157 399.728 537.037C398.299 537.078 398.006 537.883 397.06 538.879C396.435 538.072 396.678 538.554 396.437 537.385C397.727 534.583 399.821 532.24 401.721 529.829Z"/>
		<path fill="#262626" transform="scale(0.488281 0.488281)" d="M348.54 602.717C347.583 601.917 346.267 600.815 345.729 599.673C345.223 598.598 345.402 597.734 345.656 596.627C346.619 595.62 346.566 595.477 347.932 595.376L348.5 596.494C348.076 597.875 348.065 597.985 348.809 599.317C349.175 599.97 349.713 600.595 350.169 601.19C353.344 604.861 356.738 608.467 359.704 612.303L364.222 617.493C368.022 622.298 371.819 627.733 376.135 632.066L378.406 634.888Q382.707 639.596 386.65 644.608L388.675 647.023L392.836 651.624C395.285 654.282 396.972 656.148 397.256 659.925C397.339 661.033 397.642 661.769 398.164 662.736L396.889 662.647C395.531 658.433 393.429 655.857 390.555 652.615C389.223 651.572 387.978 649.597 386.878 648.265L385.088 646.226C382.45 642.706 379.436 639.484 376.879 635.893C370.126 628.432 363.782 620.632 357.375 612.876C354.691 609.354 351.38 606.145 348.54 602.717Z"/>
		<path fill="#262626" transform="scale(0.488281 0.488281)" d="M401.39 667.464C401.619 665.573 401.428 664.233 402.937 662.967L403.415 707.19C403.49 715.222 404.113 723.886 403.237 731.841C402.859 731.365 402.785 730.98 402.617 730.405L402.389 731.479C402.25 729.99 402.112 728.592 401.708 727.144C401.089 720.507 401.524 713.44 401.496 706.749L401.39 667.464Z"/>
		<path fill="#ababab" transform="scale(0.488281 0.488281)" d="M113.827 616.529C114.767 614.853 114.88 612.997 115.921 611.32L116.16 612.066L116.374 612.845C116.574 613.597 116.736 614.329 116.875 615.093C120.315 616.181 151.081 614.99 157.184 614.968L240.7 615.044L264.355 615.249C267.827 615.286 271.852 615.741 275.258 615.264C275.743 615.196 276.176 615.038 276.6 614.807C276.692 614.757 276.771 614.688 276.857 614.628C279.347 619.844 282.051 624.083 285.775 628.502C287.581 630.218 289.351 632.047 291.289 633.612L304.016 644.425L307.147 647.352L310.037 649.686C311.967 651.413 313.863 653.255 315.933 654.81C318.285 656.943 320.765 659.021 323.002 661.27C327.185 664.922 331.296 668.783 335.714 672.146C337.458 673.714 339.16 675.337 341.081 676.686L344.531 679.839L350.584 684.823C352.053 686.119 353.5 687.56 355.081 688.711C357.467 690.881 359.819 693.127 362.305 695.181L365.825 698.165C378.013 707.216 390.466 716.945 401.708 727.144C400.98 735.061 401.596 743.425 401.61 751.387C401.634 764.737 401.428 778.084 401.576 791.433C401.656 793.943 401.561 796.597 401.926 799.077C403.032 790.304 401.463 781.07 402.327 772.19C402.839 772.639 402.671 773.287 402.717 773.944L403.294 772.916L403.62 774.753C403.902 774.97 404.131 775.284 404.465 775.405C406.486 776.136 423.325 775.448 426.45 775.449L520.126 775.311L522.992 769.575C524.766 771.344 526.108 773.423 527.529 775.476L607.433 775.439C607.421 766.53 607.021 757.624 607.031 748.706C607.694 747.231 607.694 745.738 607.795 744.151L609.062 746.173C610.095 756.43 609.867 766.944 610.259 777.252Q611.286 811.036 612.986 844.793L907.122 844.728C907.139 833.853 906.317 822.239 907.427 811.449C908.734 821.764 907.128 832.596 907.863 842.998C908.133 842 908.058 842.501 908.095 841.496C907.527 840.714 907.683 839.722 907.634 838.768L908.061 838.752L908.118 713.14Q907.981 691.313 908.132 669.487C908.142 662.271 907.273 654.255 908.586 647.168C910.013 651.638 908.66 663.252 908.756 668.427Q909.352 731.034 908.942 793.643C908.935 799.984 908.235 833.234 909.256 836.291L909.298 701.948L909.306 664.886C909.306 658.739 908.696 651.756 909.647 645.721C910.293 652.8 909.884 660.194 909.88 667.307L909.89 704.509C909.913 751.244 909.184 798.07 910.012 844.79Q927.456 844.914 944.898 844.618C951.346 844.53 958.351 843.893 964.759 844.563C966.013 844.694 967.336 844.978 968.275 845.889C969.107 846.695 969.587 847.83 969.406 848.995C969.182 850.428 968.473 851.253 967.507 852.221C966.086 852.82 964.982 852.896 963.446 852.914C931.773 853.294 900.003 852.664 868.32 852.589L714.25 852.651L243 852.629L116.752 852.711C107.191 852.733 55.7682 853.686 51.812 852.264C50.4839 851.787 50.126 851.21 49.4379 850.032C49.3381 848.636 49.3795 847.641 50.2432 846.461C51.2295 845.113 52.6461 844.455 54.2719 844.403C65.4863 844.046 79.4235 845.809 90.2691 844.581C97.6626 845.112 105.292 844.377 112.622 845.186L113.202 844.949C114.885 842.839 114.048 824.931 114.083 820.72C113.593 800.407 113.959 780.006 113.96 759.685C113.962 740.367 113.597 721.015 113.952 701.701C114.497 699.48 115.124 697.448 116.037 695.349Q116.133 688.351 115.971 681.354C114.904 677.604 115.968 674.119 114.041 670.356C113.626 664.275 113.979 657.958 113.975 651.841L113.827 616.529Z"/>
		<defs>
			<linearGradient id="gradient_0" gradientUnits="userSpaceOnUse" x1="509.24936" y1="852.00757" x2="509.28262" y2="645.93555">
				<stop offset="0" stop-color="#352440"/>
				<stop offset="1" stop-color="#643F4A"/>
			</linearGradient>
		</defs>
		<path fill="url(#gradient_0)" transform="scale(0.488281 0.488281)" d="M907.427 811.449C908.734 821.764 907.128 832.596 907.863 842.998C908.133 842 908.058 842.501 908.095 841.496C907.527 840.714 907.683 839.722 907.634 838.768L908.061 838.752L908.118 713.14Q907.981 691.313 908.132 669.487C908.142 662.271 907.273 654.255 908.586 647.168C910.013 651.638 908.66 663.252 908.756 668.427Q909.352 731.034 908.942 793.643C908.935 799.984 908.235 833.234 909.256 836.291L909.298 701.948L909.306 664.886C909.306 658.739 908.696 651.756 909.647 645.721C910.293 652.8 909.884 660.194 909.88 667.307L909.89 704.509C909.913 751.244 909.184 798.07 910.012 844.79Q927.456 844.914 944.898 844.618C951.346 844.53 958.351 843.893 964.759 844.563C966.013 844.694 967.336 844.978 968.275 845.889C969.107 846.695 969.587 847.83 969.406 848.995C969.182 850.428 968.473 851.253 967.507 852.221C966.086 852.82 964.982 852.896 963.446 852.914C931.773 853.294 900.003 852.664 868.32 852.589L714.25 852.651L243 852.629L116.752 852.711C107.191 852.733 55.7682 853.686 51.812 852.264C50.4839 851.787 50.126 851.21 49.4379 850.032C49.3381 848.636 49.3795 847.641 50.2432 846.461C51.2295 845.113 52.6461 844.455 54.2719 844.403C65.4863 844.046 79.4235 845.809 90.2691 844.581C97.6626 845.112 105.292 844.377 112.622 845.186C116.395 847.535 175.737 844.298 186.346 845.686C186.576 826.668 185.407 807.277 186.614 788.318C187.435 807.131 186.79 826.236 186.798 845.078C210.741 845.014 234.837 844.387 258.76 845.078C259.865 845.421 260.479 845.379 261.611 845.169L333.389 845.054C334.157 845.13 334.78 845.213 335.547 845.092L335.49 791.11C357.517 790.858 379.575 791.784 401.576 791.433C401.656 793.943 401.561 796.597 401.926 799.077C403.032 790.304 401.463 781.07 402.327 772.19C402.839 772.639 402.671 773.287 402.717 773.944L403.294 772.916L403.62 774.753C403.902 774.97 404.131 775.284 404.465 775.405C406.486 776.136 423.325 775.448 426.45 775.449L520.126 775.311L522.992 769.575C524.766 771.344 526.108 773.423 527.529 775.476L607.433 775.439C607.421 766.53 607.021 757.624 607.031 748.706C607.694 747.231 607.694 745.738 607.795 744.151L609.062 746.173C610.095 756.43 609.867 766.944 610.259 777.252Q611.286 811.036 612.986 844.793L907.122 844.728C907.139 833.853 906.317 822.239 907.427 811.449Z"/>
		<path fill="#ababab" transform="scale(0.488281 0.488281)" d="M335.49 791.11C357.517 790.858 379.575 791.784 401.576 791.433C401.656 793.943 401.561 796.597 401.926 799.077L402.034 844.968L358.43 844.867C350.956 844.855 342.96 844.336 335.547 845.092L335.49 791.11Z"/>
		<path fill="#51a2ff" transform="scale(0.488281 0.488281)" d="M185.783 728.511C190.834 727.708 196.522 728.181 201.658 728.188L230.881 728.23L301.95 728.143C310.66 728.166 325.248 727.159 333.417 728.963C337.171 733.679 335.459 747.44 335.381 753.678L335.49 791.11L335.547 845.092C334.78 845.213 334.157 845.13 333.389 845.054L261.611 845.169C260.479 845.379 259.865 845.421 258.76 845.078C234.837 844.387 210.741 845.014 186.798 845.078C186.79 826.236 187.435 807.131 186.614 788.318C185.407 807.277 186.576 826.668 186.346 845.686C175.737 844.298 116.395 847.535 112.622 845.186L113.202 844.949C114.885 842.839 114.048 824.931 114.083 820.72C115.211 825.642 112.888 833.902 116.117 837.705L116.379 844.929L184.364 844.994C184.655 820.974 184.359 796.916 184.377 772.891C184.387 758.914 185.341 744.172 184.073 730.27L185.783 728.511Z"/>
		<path fill="#51a2ff" transform="scale(0.488281 0.488281)" d="M186.556 735.569C186.687 733.984 186.63 732.55 187.39 731.126C195.411 730.28 204.083 730.919 212.177 730.946L259.053 730.979C259.054 768.781 258.533 806.684 259.151 844.478L258.76 845.078C234.837 844.387 210.741 845.014 186.798 845.078C186.79 826.236 187.435 807.131 186.614 788.318C187.044 770.84 187.069 753.045 186.556 735.569Z"/>
		<path fill="#262626" transform="scale(0.488281 0.488281)" d="M185.783 728.511C190.834 727.708 196.522 728.181 201.658 728.188L230.881 728.23L301.95 728.143C310.66 728.166 325.248 727.159 333.417 728.963C337.171 733.679 335.459 747.44 335.381 753.678L335.49 791.11L335.547 845.092C334.78 845.213 334.157 845.13 333.389 845.054C333.349 824.201 332.569 803.06 333.409 782.248C332.953 776.909 333.192 771.388 333.172 766.024C333.129 754.383 333.278 742.706 332.861 731.073C324.733 730.347 316.175 730.827 308.009 730.823L261.511 730.863Q261.527 737.484 261.426 744.104L261.611 845.169C260.479 845.379 259.865 845.421 258.76 845.078L259.151 844.478C258.533 806.684 259.054 768.781 259.053 730.979L212.177 730.946C204.083 730.919 195.411 730.28 187.39 731.126C186.63 732.55 186.687 733.984 186.556 735.569C187.069 753.045 187.044 770.84 186.614 788.318C185.407 807.277 186.576 826.668 186.346 845.686C175.737 844.298 116.395 847.535 112.622 845.186L113.202 844.949C114.885 842.839 114.048 824.931 114.083 820.72C115.211 825.642 112.888 833.902 116.117 837.705L116.379 844.929L184.364 844.994C184.655 820.974 184.359 796.916 184.377 772.891C184.387 758.914 185.341 744.172 184.073 730.27L185.783 728.511Z"/>
		<path fill="#262626" transform="scale(0.488281 0.488281)" d="M333.684 775.465C333.62 763.136 332.767 750.211 334.036 737.953C335.778 741.315 334.891 749.572 334.886 753.558C334.862 760.77 335.682 777.159 333.998 783.591L334.275 782.778L333.908 782.399C333.985 780.102 334.252 777.709 333.684 775.465Z"/>
		<path fill="#fff" transform="scale(0.488281 0.488281)" d="M362.305 695.181L365.825 698.165C378.013 707.216 390.466 716.945 401.708 727.144C400.98 735.061 401.596 743.425 401.61 751.387C401.634 764.737 401.428 778.084 401.576 791.433C379.575 791.784 357.517 790.858 335.49 791.11L335.381 753.678C335.459 747.44 337.171 733.679 333.417 728.963C325.248 727.159 310.66 728.166 301.95 728.143L230.881 728.23L201.658 728.188C196.522 728.181 190.834 727.708 185.783 728.511L184.073 730.27C183.034 736.4 183.787 743.855 183.789 750.128L183.806 791.473C161.448 791.619 139.067 790.987 116.693 791.134L116.666 695.444C139.401 696.133 162.283 695.605 185.03 695.606L284.913 695.81L334.382 695.964C343.579 695.957 353.183 696.454 362.305 695.181Z"/>
		<path fill="#fff" transform="scale(0.488281 0.488281)" d="M116.705 662.482C131.01 662.188 145.363 662.794 159.676 662.823L268.822 662.652L302.3 662.478C307.938 662.455 313.922 662.818 319.524 662.263C320.79 662.137 321.868 661.836 323.002 661.27C327.185 664.922 331.296 668.783 335.714 672.146C337.458 673.714 339.16 675.337 341.081 676.686L344.531 679.839L343.846 680.642C336.801 682.978 302.613 681.98 293.485 681.985Q245.305 682.154 197.126 681.725Q171.624 681.388 146.124 681.812C136.344 681.901 126.41 681.626 116.658 682.379L116.705 662.482Z"/>
		<path fill="#fff" transform="scale(0.488281 0.488281)" d="M285.775 628.502C287.581 630.218 289.351 632.047 291.289 633.612L304.016 644.425L307.147 647.352C307.08 647.392 307.013 647.43 306.947 647.471C306.1 647.99 305.584 648.213 304.569 648.307C293.116 649.371 279.974 648.578 268.377 648.664C234.2 648.919 200.022 648.319 165.852 648.666C149.558 648.831 132.903 648.351 116.708 650.195L116.694 628.938L228.691 628.858C247.309 628.846 267.342 630.284 285.775 628.502Z"/>
		<path fill="#262626" transform="scale(0.488281 0.488281)" d="M116.037 695.349L116.113 786.129C116.16 803.229 117.012 820.649 116.117 837.705C112.888 833.902 115.211 825.642 114.083 820.72C113.593 800.407 113.959 780.006 113.96 759.685C113.962 740.367 113.597 721.015 113.952 701.701C114.497 699.48 115.124 697.448 116.037 695.349Z"/>
		<path fill="#262626" transform="scale(0.488281 0.488281)" d="M113.827 616.529C114.767 614.853 114.88 612.997 115.921 611.32L116.16 612.066C115.749 628.553 116.301 645.111 116.259 661.608C116.242 668.08 116.554 674.916 115.971 681.354C114.904 677.604 115.968 674.119 114.041 670.356C113.626 664.275 113.979 657.958 113.975 651.841L113.827 616.529Z"/>
		<path fill="#fff" transform="scale(0.488281 0.488281)" d="M685.739 645.581L833.529 645.754C858.062 645.732 882.83 644.959 907.342 645.797Q907.065 704.364 907.532 762.928Q907.552 778.651 907.376 794.372C907.328 799.962 906.935 805.883 907.427 811.449C906.317 822.239 907.139 833.853 907.122 844.728L612.986 844.793Q611.286 811.036 610.259 777.252C609.867 766.944 610.095 756.43 609.062 746.173Q609.108 736.152 608.483 726.151L608.808 723.599C610.106 720.132 611.779 717.79 614.996 715.889C616.139 715.276 616.879 714.341 617.728 713.388C619.602 709.76 636.234 694.857 640.164 691.596C646.926 685.426 653.032 678.209 659.33 671.552C666.457 664.019 674.179 656.609 680.619 648.495C682.318 646.784 683.231 645.726 685.739 645.581Z"/>
		<path fill="#51a2ff" transform="scale(0.488281 0.488281)" d="M639.158 715.499L650.533 715.621L650.496 749.124C639.677 749.11 628.501 748.496 617.723 749.302L616.927 748.512C615.588 738.867 616.863 725.645 617.101 715.621C623.482 716.601 632.595 715.848 639.158 715.499Z"/>
		<path fill="#262626" transform="scale(0.488281 0.488281)" d="M621.627 713.409C631.428 713.161 642.159 712.515 651.883 713.569C652.778 714.581 652.647 716.216 652.608 717.546C652.636 728.384 652.442 739.298 652.787 750.129C647.388 747.885 626.055 750.672 617.723 749.302C628.501 748.496 639.677 749.11 650.496 749.124L650.533 715.621L639.158 715.499C632.595 715.848 623.482 716.601 617.101 715.621C618.868 715.054 620.134 714.521 621.627 713.409Z"/>
		<path fill="#262626" transform="scale(0.488281 0.488281)" d="M617.728 713.388L621.627 713.409C620.134 714.521 618.868 715.054 617.101 715.621C616.863 725.645 615.588 738.867 616.927 748.512L617.723 749.302C626.055 750.672 647.388 747.885 652.787 750.129C652.076 750.773 651.763 750.96 650.786 751.115C645.096 752.016 638.395 751.217 632.617 751.205C628.084 751.196 623.366 751.683 618.861 751.262C617.464 751.132 616.398 750.998 615.197 750.208C613.57 743.845 614.791 723.452 614.996 715.889C616.139 715.276 616.879 714.341 617.728 713.388Z"/>
		<path fill="#262626" transform="scale(0.488281 0.488281)" d="M848.964 716.111C849.172 715.486 849.4 714.132 849.974 713.807C852.108 712.597 882.481 713.466 887.593 713.463C888.483 725.381 888.237 738.102 887.702 750.053L887.069 750.736L886.572 750.731C883.41 751.261 880.316 751.179 877.129 751.084C872.251 751.626 853.78 752.374 849.885 750.794C847.91 740.165 850.744 727.491 849.115 717.008C849.068 716.708 849.015 716.41 848.964 716.111Z"/>
		<path fill="#262626" transform="scale(0.488281 0.488281)" d="M869.558 749.567C872.993 749.548 884.169 748.482 886.454 750.584C886.5 750.627 886.532 750.682 886.572 750.731C883.41 751.261 880.316 751.179 877.129 751.084C870.325 750.171 863.073 751.021 856.155 750.502L856.084 750.202C860.553 749.477 865.045 749.572 869.558 749.567Z"/>
		<path fill="#51a2ff" transform="scale(0.488281 0.488281)" d="M883.766 715.609C884.638 716.075 884.917 715.946 885.204 716.953C886.372 721.055 885.519 743.223 885.514 749.066L869.675 749.138L851.807 749.073C851.507 738.054 851.651 727.004 851.637 715.98C862.152 715.829 873.378 716.89 883.766 715.609Z"/>
		<path fill="#262626" transform="scale(0.488281 0.488281)" d="M692.607 713.509C697.4 713.259 728.813 712.597 731.028 714.244L731.195 715.838C730.994 727.288 730.813 738.805 731.176 750.253C730.131 751.307 728.822 751.211 727.381 751.222C717.425 751.3 706.68 751.9 696.797 751.028C696.498 751.059 696.2 751.106 695.899 751.12C694.57 751.178 693.877 751.073 692.927 750.162C691.57 743.574 692.561 721.421 692.607 713.509Z"/>
		<path fill="#51a2ff" transform="scale(0.488281 0.488281)" d="M694.646 716.985C695.495 715.906 695.529 715.863 696.966 715.729C700.148 715.433 727.433 715.591 728.569 716.354L728.754 716.879C728.977 727.649 728.642 738.454 728.488 749.225L695.132 749.01C694.846 739.196 696.279 726.311 694.646 716.985Z"/>
		<path fill="#262626" transform="scale(0.488281 0.488281)" d="M692.607 713.509C697.4 713.259 728.813 712.597 731.028 714.244L731.195 715.838C729.803 715.996 729.668 715.851 728.754 716.879L728.569 716.354C727.433 715.591 700.148 715.433 696.966 715.729C695.529 715.863 695.495 715.906 694.646 716.985L693.292 716.034C692.846 727.316 694.055 738.966 692.927 750.162C691.57 743.574 692.561 721.421 692.607 713.509Z"/>
		<path fill="#262626" transform="scale(0.488281 0.488281)" d="M731.176 750.253C730.131 751.307 728.822 751.211 727.381 751.222C717.425 751.3 706.68 751.9 696.797 751.028L696.172 750.347L694.348 750.368C700.858 749.308 722.697 749.051 728.554 749.952C729.193 750.05 729.835 750.14 730.479 750.197L731.176 750.253Z"/>
		<path fill="#51a2ff" transform="scale(0.488281 0.488281)" d="M771.098 715.61C771.367 714.949 771.472 714.008 772.19 713.749C774.614 712.877 804.899 713.204 808.715 713.786C809.52 715.077 809.276 716.426 809.207 717.88L809.019 720.34Q809.16 732.004 808.997 743.667L809.024 745.39C809.138 747.111 809.687 749.69 808.542 751.079C805.313 751.745 775.262 751.814 772.307 750.684C770.322 746.55 771.488 722.407 771.098 715.61Z"/>
		<path fill="#262626" transform="scale(0.488281 0.488281)" d="M771.098 715.61C771.367 714.949 771.472 714.008 772.19 713.749C774.614 712.877 804.899 713.204 808.715 713.786C809.52 715.077 809.276 716.426 809.207 717.88L807.147 719.085C807.093 718.057 806.906 717.197 806.628 716.206C799.619 714.771 781.848 715.922 773.835 716.006L773.973 749.15C783.949 749.186 796.136 748.27 805.869 749.421L806.66 749.508C807.69 749.568 807.128 749.61 808.335 749.274C808.292 748.121 808.258 747.284 808.689 746.196C808.796 745.926 808.912 745.659 809.024 745.39C809.138 747.111 809.687 749.69 808.542 751.079C805.313 751.745 775.262 751.814 772.307 750.684C770.322 746.55 771.488 722.407 771.098 715.61Z"/>
		<path fill="#262626" transform="scale(0.488281 0.488281)" d="M809.024 745.39C809.138 747.111 809.687 749.69 808.542 751.079C797.457 749.979 785.801 752.134 774.844 750.645L774.528 750.031C777.158 748.693 800.037 749.797 805.221 749.467L805.869 749.421L806.66 749.508C807.69 749.568 807.128 749.61 808.335 749.274C808.292 748.121 808.258 747.284 808.689 746.196C808.796 745.926 808.912 745.659 809.024 745.39Z"/>
		<path fill="#262626" transform="scale(0.488281 0.488281)" d="M809.207 717.88L809.019 720.34Q809.16 732.004 808.997 743.667L809.024 745.39C808.912 745.659 808.796 745.926 808.689 746.196C808.258 747.284 808.292 748.121 808.335 749.274C807.128 749.61 807.69 749.568 806.66 749.508C807.674 739.442 806.509 729.184 807.147 719.085L809.207 717.88Z"/>
		<path fill="#262626" transform="scale(0.488281 0.488281)" d="M808.997 743.667C808.184 742.355 807.78 741.325 807.653 739.765C807.289 735.276 806.237 723.645 809.019 720.34Q809.16 732.004 808.997 743.667Z"/>
		<path fill="#fff" transform="scale(0.488281 0.488281)" d="M313.335 525.534C312.923 527.024 312.037 528.187 311.186 529.454C306.334 534.988 302.035 541.161 297.471 546.947C291.55 554.453 285.147 561.781 279.963 569.82C278.254 572.47 276.505 575.388 275.757 578.474C271.58 590.415 272.388 602.905 276.857 614.628C276.771 614.688 276.692 614.757 276.6 614.807C276.176 615.038 275.743 615.196 275.258 615.264C271.852 615.741 267.827 615.286 264.355 615.249L240.7 615.044L157.184 614.968C151.081 614.99 120.315 616.181 116.875 615.093C116.736 614.329 116.574 613.597 116.374 612.845L116.16 612.066L115.921 611.32C116.327 602.463 116.031 593.51 115.994 584.642L122.627 582.91C135.819 578.785 149.223 575.275 162.487 571.381C212.861 556.592 263.632 542.47 313.335 525.534Z"/>
		<path fill="#51a2ff" transform="scale(0.488281 0.488281)" d="M329.238 501.936L330.322 502.357C329.6 506.008 324.732 510.684 322.643 513.934C320.167 517.13 317.806 521.09 314.37 523.278C314.087 524.23 313.914 524.698 313.335 525.534C263.632 542.47 212.861 556.592 162.487 571.381C149.223 575.275 135.819 578.785 122.627 582.91L122.913 580.336C114.64 582.651 106.174 585.551 97.77 587.27C96.0793 587.687 94.6898 587.952 92.9448 587.881C93.2992 582.19 92.7506 576.455 93.1347 570.741L92.4369 567.973C97.0478 567.839 113.346 562.346 118.759 560.674C120.327 560.19 121.459 560.085 122.24 558.598C122.884 546.364 122.853 533.968 123.906 521.775C123.679 517.513 124.073 513.049 124.181 508.77C125.241 508.801 125.585 508.684 126.542 508.312C136.69 507.974 146.855 508.152 157.007 508.181C161.853 508.194 167.228 508.613 172.016 507.913Q179.987 507.745 187.959 507.859L191.599 507.966C192.351 507.722 193.221 506.95 193.892 506.499L194.065 512.435C193.895 515.103 194.485 518.381 192.403 520.336Q192.363 528.715 193.027 537.068C192.908 538.021 193.09 538.79 192.307 539.44C190.908 540.601 188.366 540.831 186.61 541.191L187.751 543.348C206.008 538.631 223.865 532.454 242.108 527.748C244.699 526.722 247.651 526.104 250.343 525.355L289.729 513.751C292.126 512.95 294.553 512.304 296.994 511.656L299.118 510.883L310.647 507.623L321.522 504.298C324.164 503.671 326.801 503.169 329.238 501.936Z"/>
		<path fill="#51a2ff" transform="scale(0.488281 0.488281)" d="M193.892 506.499L194.065 512.435C193.895 515.103 194.485 518.381 192.403 520.336Q192.363 528.715 193.027 537.068C192.908 538.021 193.09 538.79 192.307 539.44C190.908 540.601 188.366 540.831 186.61 541.191L187.751 543.348Q183.93 544.395 180.074 545.302L178.051 543.605C172.82 545.126 166.63 546.206 161.65 548.316Q155.491 549.767 149.438 551.609C149.435 552.727 149.313 552.85 149.908 553.861C144.351 555.608 138.524 556.928 133.067 558.917C131.47 559.334 129.893 559.728 128.352 560.323C121.097 562.291 113.967 564.707 106.742 566.783C102.526 567.994 96.9825 568.742 93.1347 570.741L92.4369 567.973C97.0478 567.839 113.346 562.346 118.759 560.674C120.327 560.19 121.459 560.085 122.24 558.598C122.884 546.364 122.853 533.968 123.906 521.775C123.679 517.513 124.073 513.049 124.181 508.77C125.241 508.801 125.585 508.684 126.542 508.312C136.69 507.974 146.855 508.152 157.007 508.181C161.853 508.194 167.228 508.613 172.016 507.913Q179.987 507.745 187.959 507.859L191.599 507.966C192.351 507.722 193.221 506.95 193.892 506.499Z"/>
		<path fill="#262626" transform="scale(0.488281 0.488281)" d="M123.906 521.775L124.244 525.278L124.533 525.32L124.73 517.1C124.906 520.272 124.563 524.319 125.513 527.299C125.9 537.716 124.47 548.074 124.635 558.463L125.238 558.814L132.038 556.832Q140.715 554.144 149.438 551.609C149.435 552.727 149.313 552.85 149.908 553.861C144.351 555.608 138.524 556.928 133.067 558.917C131.47 559.334 129.893 559.728 128.352 560.323C121.097 562.291 113.967 564.707 106.742 566.783C102.526 567.994 96.9825 568.742 93.1347 570.741L92.4369 567.973C97.0478 567.839 113.346 562.346 118.759 560.674C120.327 560.19 121.459 560.085 122.24 558.598C122.884 546.364 122.853 533.968 123.906 521.775Z"/>
		<path fill="#262626" transform="scale(0.488281 0.488281)" d="M193.892 506.499L194.065 512.435C193.895 515.103 194.485 518.381 192.403 520.336C191.932 516.97 191.995 513.45 191.894 510.05C170.715 509.643 149.494 510.421 128.318 509.8L126.886 510.215C124.891 515.082 126.081 522.017 125.513 527.299C124.563 524.319 124.906 520.272 124.73 517.1L124.533 525.32L124.244 525.278L123.906 521.775C123.679 517.513 124.073 513.049 124.181 508.77C125.241 508.801 125.585 508.684 126.542 508.312C136.69 507.974 146.855 508.152 157.007 508.181C161.853 508.194 167.228 508.613 172.016 507.913Q179.987 507.745 187.959 507.859L191.599 507.966C192.351 507.722 193.221 506.95 193.892 506.499Z"/>
		<path fill="#262626" transform="scale(0.488281 0.488281)" d="M172.016 507.913Q179.987 507.745 187.959 507.859L188.867 508.785C187.979 509.568 187.027 509.53 185.895 509.602C180.096 509.971 174.077 509.486 168.258 509.447Q148.255 509.289 128.251 509.422C127.574 509.156 127.115 508.751 126.542 508.312C136.69 507.974 146.855 508.152 157.007 508.181C161.853 508.194 167.228 508.613 172.016 507.913Z"/>
		<path fill="#262626" transform="scale(0.488281 0.488281)" d="M178.051 543.605C180.889 543.119 183.833 542.002 186.61 541.191L187.751 543.348Q183.93 544.395 180.074 545.302L178.051 543.605Z"/>
		<path fill="#262626" transform="scale(0.488281 0.488281)" d="M122.913 580.336C143.103 575.526 163.252 568.791 183.162 562.874L314.37 523.278C314.087 524.23 313.914 524.698 313.335 525.534C263.632 542.47 212.861 556.592 162.487 571.381C149.223 575.275 135.819 578.785 122.627 582.91L122.913 580.336Z"/>
		<path fill="#262626" transform="scale(0.488281 0.488281)" d="M161.65 548.316C166.63 546.206 172.82 545.126 178.051 543.605L180.074 545.302C174.622 546.928 168.823 548.206 163.498 550.163C162.343 550.08 161.207 550.016 160.072 549.772L161.65 548.316Z"/>
		<path fill="#262626" transform="scale(0.488281 0.488281)" d="M149.438 551.609Q155.491 549.767 161.65 548.316L160.072 549.772C161.207 550.016 162.343 550.08 163.498 550.163Q156.685 551.945 149.908 553.861C149.313 552.85 149.435 552.727 149.438 551.609Z"/>
		<path fill="#51a2ff" transform="scale(0.488281 0.488281)" d="M242.53 423.648L242.382 429.592L242.72 430.869C245.389 432.247 250.182 431.208 253.251 431.604C268.137 432.005 283.054 431.487 297.944 431.675L298.156 434.396L299.062 433.952C299.224 432.746 298.941 431.948 298.608 430.802L299.117 430.062C299.151 430.282 299.174 430.504 299.218 430.723C299.451 431.865 299.927 432.834 300.421 433.878C300.599 437.239 300.854 440.615 300.921 443.979C300.986 446.905 301.252 449.977 301.088 452.891C300.997 454.326 301.261 457.263 300.361 458.273L299.01 457.46Q299.397 464.663 299.66 471.872C300.061 479.806 300.267 487.806 300.952 495.717L292.124 495.693Q278.201 495.566 264.277 495.648C256.186 495.48 248.076 495.594 239.983 495.599C240.026 490.422 240.338 485.235 240.42 480.054C240.532 477.873 240.514 475.68 240.538 473.496L239.794 473.258C238.668 471.862 239.044 468.149 238.931 466.336C238.816 463.959 239.041 461.473 239.109 459.087C239.013 454.339 239.411 449.483 239.579 444.731C239.752 438.211 239.35 430.985 240.48 424.591L241.235 424.897L241.016 426.208C241.778 425.579 242.225 424.582 242.53 423.648Z"/>
		<path fill="#262626" transform="scale(0.488281 0.488281)" d="M242.53 423.648L242.382 429.592L242.72 430.869C245.389 432.247 250.182 431.208 253.251 431.604Q247.787 431.886 242.315 431.928L242.016 437.967C241.941 446.043 242.109 454.578 241.156 462.575C241.028 461.509 240.902 460.679 240.452 459.7L240.72 461.231C240.261 459.829 240.387 459.777 239.109 459.087C239.013 454.339 239.411 449.483 239.579 444.731C239.752 438.211 239.35 430.985 240.48 424.591L241.235 424.897L241.016 426.208C241.778 425.579 242.225 424.582 242.53 423.648Z"/>
		<path fill="#262626" transform="scale(0.488281 0.488281)" d="M298.156 434.396L299.062 433.952C299.224 432.746 298.941 431.948 298.608 430.802L299.117 430.062C299.151 430.282 299.174 430.504 299.218 430.723C299.451 431.865 299.927 432.834 300.421 433.878C300.599 437.239 300.854 440.615 300.921 443.979C300.986 446.905 301.252 449.977 301.088 452.891C300.997 454.326 301.261 457.263 300.361 458.273L299.01 457.46L298.907 451.236C298.068 445.876 298.252 439.832 298.156 434.396Z"/>
		<path fill="#262626" transform="scale(0.488281 0.488281)" d="M239.109 459.087C240.387 459.777 240.261 459.829 240.72 461.231L240.452 459.7C240.902 460.679 241.028 461.509 241.156 462.575C240.993 466.186 241.004 469.915 240.538 473.496L239.794 473.258C238.668 471.862 239.044 468.149 238.931 466.336C238.816 463.959 239.041 461.473 239.109 459.087Z"/>
		<path fill="#51a2ff" transform="scale(0.488281 0.488281)" d="M258.94 497.929L300.875 498.002L301.109 508.011L295.289 509.584L289.816 511.147L289.729 513.751L250.343 525.355C249.062 525.074 247.845 524.536 246.62 524.072C243.978 524.604 241.482 525.454 238.935 526.312C239.118 523.962 239.06 521.56 239.098 519.202C239.707 514.412 239.538 509.376 239.655 504.544C239.77 502.358 239.886 500.372 239.478 498.202C245.907 497.691 252.488 497.928 258.94 497.929Z"/>
		<path fill="#262626" transform="scale(0.488281 0.488281)" d="M246.62 524.072C260.765 519.162 275.528 515.697 289.816 511.147L289.729 513.751L250.343 525.355C249.062 525.074 247.845 524.536 246.62 524.072Z"/>
		<path fill="#262626" transform="scale(0.488281 0.488281)" d="M264.277 495.648Q278.201 495.566 292.124 495.693C292.258 495.771 292.383 495.867 292.526 495.928C294.514 496.776 297.894 496.062 300.134 496.281L299.963 496.943C294.341 498.684 266.915 497.244 258.793 497.532C252.78 497.265 246.869 497.647 240.856 496.951C248.253 494.574 256.704 497.231 264.277 495.648Z"/>
		<path fill="#FEB4AF" transform="scale(0.488281 0.488281)" d="M539.215 313.959C540.743 316.649 546.523 332.449 546.465 335.036C547.075 336.554 547.138 337.603 548.601 338.405C549.608 338.063 550.416 337.674 551.331 337.153C552.295 336.603 553.061 336.262 554.215 336.506C555.161 336.705 555.88 337.154 556.672 337.674C559.125 342.403 559.169 345.821 558.283 350.952C556.695 353.764 553.878 357.791 550.542 358.596C549.447 358.861 548.842 358.714 547.778 358.464C546.712 357.3 546.794 356.434 546.538 354.9C545.456 355.342 545.229 355.304 544.776 356.447C543.713 359.13 543.301 362.61 542.672 365.456C541.269 371.807 539.923 378.188 538.291 384.485C537.209 386.91 536.074 388.796 534.486 390.909C529.948 394.621 525.476 397.203 519.908 399.085C518.071 399.556 516.274 399.827 514.858 401.176L515.015 401.879C516.936 402.536 518.695 401.817 520.576 401.306C526.666 399.025 531.454 396.756 536.014 392.001L536.708 391.924C536.543 397.932 537.795 409.925 535.683 414.973C533.911 416.376 532.518 418.626 531.139 420.419C529.161 422.518 527.282 424.634 525.476 426.884C524.023 428.435 522.821 430.026 521.631 431.785C519.762 433.659 518.223 435.805 516.622 437.906L511.48 434.411C501.301 426.965 491.008 419.544 480.447 412.651C480.101 412.406 479.475 411.981 479.193 411.689C477.358 409.791 478.232 393.237 477.872 389.254L477.812 388.646L478.359 387.665C479.772 388.32 480.378 389.77 481.387 390.878C485.198 395.59 493.234 401.176 499.355 401.789C500.543 401.908 500.085 402.033 500.942 401.433C498.349 398.391 492.64 396.542 489.194 394.282C487.231 392.995 485.413 391.459 483.524 390.064C482.333 388.242 480.756 386.687 479.617 384.857C476.144 379.281 475.54 371.133 474.737 364.789C474.343 362.704 474.133 359.527 472.65 357.984L471.653 358.036L470.363 359.647C465.912 357.933 463.331 355.893 460.719 351.982C459.386 347.708 458.836 344.371 459.836 339.961C460.571 338.536 461.533 337.34 462.513 336.081C463.079 335.958 463.646 335.83 464.219 335.74C466.704 335.35 468.523 337.11 470.393 338.479L474.663 331.281C476.371 329.148 477.955 327.487 480.138 325.809C485.13 323.443 488.795 323.006 494.221 324.337C502.482 326.759 511.004 327.796 519.541 326.208C527.139 324.794 534.815 320.415 539.215 313.959Z"/>
		<path fill="#262626" transform="scale(0.488281 0.488281)" d="M510.473 347.566C510.343 344.63 510.174 342.601 511.376 339.87L512.032 339.941C512.586 341.9 512.588 343.468 512.488 345.493C512.507 349.789 512.345 354.168 512.612 358.451C514.216 360.094 515.468 361.723 516.699 363.66C516.862 364.543 516.864 365.098 516.805 365.977C516.16 366.776 515.752 367.191 514.786 367.614C513.22 368.301 510.673 368.093 509.187 367.283C508.145 366.716 507.359 365.756 507.168 364.571C506.732 361.862 508.532 359.8 510.191 357.922Q510.215 352.741 510.473 347.566Z"/>
		<path fill="#ababab" transform="scale(0.488281 0.488281)" d="M510.45 360.376C512.651 361.67 513.367 362.762 514.093 365.188C513.619 365.27 512.979 365.402 512.507 365.376C511.126 365.301 510.691 364.991 509.773 364.092C509.553 362.373 509.815 361.94 510.45 360.376Z"/>
		<path fill="#262626" transform="scale(0.488281 0.488281)" d="M491.383 337.583C494.402 337.4 496.382 337.579 498.883 339.489C499.951 340.304 500.263 340.932 500.471 342.216C499.79 343.291 499.116 343.518 498.002 344.037C494.54 344.395 492.2 344.696 488.858 343.373C487.896 342.253 487.895 342.371 488.001 340.906C489.017 339.406 489.886 338.594 491.383 337.583Z"/>
		<path fill="#262626" transform="scale(0.488281 0.488281)" d="M522.983 340.164C523.759 339.686 524.558 339.185 525.403 338.837C528.026 337.757 530.443 338.312 532.934 339.388C533.798 340.714 534.01 341.014 534.118 342.574C533.045 344.169 531.839 344.671 529.971 345.04C527.686 345.493 525.822 345.025 523.69 344.214C522.766 343.102 522.683 342.822 522.763 341.297C522.784 340.888 522.885 340.551 522.983 340.164Z"/>
		<path fill="#262626" transform="scale(0.488281 0.488281)" d="M519.68 380.286L520.535 380.265L520.745 380.811L519.998 381.929C515.594 384.402 507.12 383.15 502.116 382.733L501.306 382.051L501.427 381.124C504.97 379.817 514.21 380.923 518.774 380.396L519.68 380.286Z"/>
		<path fill="#786976" transform="scale(0.488281 0.488281)" d="M467.837 330.849C466.172 317.14 459.41 307.131 466.194 293.209C470.061 285.271 477.384 280.031 485.612 277.312C500.302 272.456 515.799 275.515 529.291 282.287C533.608 279.785 538.356 279.024 543.232 280.305C548.436 281.671 552.637 285.325 555.249 289.967C561.253 300.637 557.361 312.706 554.168 323.539C553.137 327.068 552.231 330.981 549.982 333.948C549.485 334.13 549.072 334.315 548.54 334.352C546.91 325.422 542.4 317.325 540.923 308.204C539.28 310.253 537.715 312.38 536.119 314.467C533.937 316.205 531.901 318.307 529.574 319.83C522.482 324.469 512.603 325.251 504.41 324.265C501.785 323.948 499.219 323.273 496.64 322.715C490.249 320.836 485.286 320.478 479.217 323.835C478.959 323.978 478.707 324.13 478.451 324.278C476.708 325.394 475.431 326.7 474.011 328.197C472.783 329.954 471.198 333.103 469.346 333.921C468.267 333.102 468.149 332.091 467.837 330.849Z"/>
		<path fill="#fff" transform="scale(0.488281 0.488281)" d="M476.661 412.579L479.033 414.132C489.172 421.578 499.293 429.095 509.866 435.92L513.398 438.608C510.282 443.956 505.855 449.281 503.286 454.807C501.614 457.178 499.862 459.528 498.286 461.962C496.504 459.429 494.571 457.025 492.638 454.607L491.012 452.416L489.014 449.801L485.107 444.84L481.674 440.711L476.092 433.771L473.463 430.435C472.401 428.953 471.757 427.822 469.974 427.235L469.102 427.553C469.134 429.34 470.236 430.375 471.386 431.687L474.724 435.958L478.639 440.572Q481.005 443.618 483.402 446.64L486.626 450.811L488.265 452.85L490.557 455.655C491.949 457.489 493.852 460.759 495.597 462.125C496.528 463.622 497.71 464.987 498.799 466.375L502.972 459.617C504.874 456.683 512.364 443.67 514.891 442.594C515.06 444.959 515.178 447.341 515.456 449.696C515.852 457.791 516.729 466.916 518.53 474.822C519.003 480.771 520.036 486.717 520.877 492.624C522.138 500.985 522.885 509.58 524.434 517.868C524.851 521.422 525.154 525.037 525.737 528.565L526.72 535.509L529.478 556.487Q529.974 562.1 530.717 567.686L531.171 571.228L533.564 591.201C531.129 589.548 520.027 558.895 518.017 553.877Q500.156 508.875 479.731 464.978C477.223 459.49 464.132 433.963 463.872 430.672C463.734 428.939 464.445 428.391 465.395 427.083C469.37 424.386 472.958 416.4 476.661 412.579Z"/>
		<path fill="#fff" transform="scale(0.488281 0.488281)" d="M551.326 432.168C552.897 432.475 554.493 432.74 556.04 433.149C554.939 445.993 554.295 458.866 553.135 471.707Q549.633 509.128 544.967 546.421Q542.83 565.266 539.861 583.998C539.035 589.287 538.437 594.708 537.217 599.922Q536.43 594.666 535.513 589.431C535.494 583.906 534.438 578.051 533.743 572.554C533.391 569.316 533.009 566.099 532.5 562.882C532.552 561.879 532.384 561.109 532.137 560.14C531.692 550.96 529.971 541.615 528.786 532.49L528.117 527.081Q527.785 524.082 527.253 521.111C526.289 510.849 524.8 500.485 523.108 490.319C522.585 484.515 521.614 478.679 520.848 472.897C520.115 464.676 518.843 456.526 517.633 448.365L516.283 440.889C516.771 440.397 517.171 439.663 517.571 439.088C524.86 441.363 537.996 455.082 546.126 459.921C547.622 452.94 549.391 445.779 550.116 438.675C550.685 436.537 550.981 434.351 551.326 432.168Z"/>
		<path fill="#fff" transform="scale(0.488281 0.488281)" d="M791.384 541.898C799.546 542.26 807.78 542.038 815.951 542.023C822.437 542.011 829.045 542.252 835.517 541.917C835.406 552.87 836.596 564.025 837.258 574.962C837.787 583.71 837.783 592.902 838.954 601.572C831.593 602.328 823.829 601.914 816.414 601.926C806.714 601.942 796.942 602.196 787.25 601.857L786.854 601.385C787.358 597.171 787.461 592.905 787.655 588.667Q788.132 583.251 788.371 577.819Q788.807 569.624 789.136 561.424C790.451 556.131 789.247 549.637 790.037 544.148C790.236 542.76 790.326 542.723 791.384 541.898Z"/>
		<path fill="#51a2ff" transform="scale(0.488281 0.488281)" d="M696.523 631.989Q737.105 632.49 777.729 632.49L803.97 632.554C808.608 632.563 813.569 632.878 818.171 632.439Q852.433 632.645 886.695 632.475C896.332 632.497 906.698 631.807 916.242 632.707L916.334 632.932Q916.166 638.124 916.206 643.318C907.614 644.175 898.423 643.554 889.781 643.542L839.641 643.492L686.462 643.457C689.567 639.44 693.11 635.745 696.523 631.989Z"/>
		<path fill="#fff" transform="scale(0.488281 0.488281)" d="M831.556 481.955C833.404 483.949 833.162 495.829 833.543 499.245C833.663 506.289 833.885 513.431 834.432 520.453Q834.742 529.972 835.172 539.487C821.16 540.002 803.742 538.785 790.35 540.091C790.588 536.287 790.871 532.48 790.922 528.668C791.215 525.789 791.36 522.907 791.512 520.018Q792.259 508.052 792.871 496.078C793.035 493.072 792.671 484.166 794.386 482.172C806.709 482.095 819.265 482.644 831.556 481.955Z"/>
		<path fill="#fff" transform="scale(0.488281 0.488281)" d="M789.203 604.186C795.535 604.174 835.539 603.092 839.255 604.828C839.032 613.123 839.728 621.735 840.602 629.986L833.258 630.059C825.057 629.525 816.401 629.9 808.181 630.08C800.651 629.741 793.01 630.005 785.468 630.01C785.639 625.223 785.385 608.415 787.117 604.998C787.495 604.251 788.448 604.346 789.203 604.186Z"/>
		<path fill="#fff" transform="scale(0.488281 0.488281)" d="M794.931 459.793C795.185 459.118 794.975 459.521 795.784 458.731C800.935 458.127 827.562 457.893 831.143 459.016C831.474 465.996 831.467 473.259 832.391 480.178C830.148 480.06 827.958 479.977 825.712 480.076C815.292 479.777 804.838 479.96 794.414 479.975C793.055 478.214 794.913 463.272 794.931 459.793Z"/>
		<path fill="#fff" transform="scale(0.488281 0.488281)" d="M537.918 415.445C542.094 419.795 545.494 425.94 548.976 430.927C547.549 439.186 546.31 447.541 544.426 455.708C536.544 449.666 528.551 443.536 521.302 436.739L522.328 434.284C524.189 433.024 525.738 430.282 527.092 428.467Q530.211 424.998 533.236 421.446C534.607 419.856 535.82 418.403 536.816 416.54L537.918 415.445Z"/>
		<path fill="#ababab" transform="scale(0.488281 0.488281)" d="M108.344 844.422C106.148 838.985 103.244 833.791 100.735 828.49C97.7451 822.171 95.0472 815.677 92.3638 809.222C76.5359 771.145 64.0212 730.652 58.2332 689.753C51.9979 645.693 50.1194 583.415 66.8499 541.427C70.5795 532.066 75.9268 522.988 82.0163 514.973Q86.6153 508.964 92.0423 503.691C96.1461 499.717 120.793 478.396 124.397 477.892L125.149 478.838C124.859 488.799 124.78 498.825 124.181 508.77C124.073 513.049 123.679 517.513 123.906 521.775C122.853 533.968 122.884 546.364 122.24 558.598C121.459 560.085 120.327 560.19 118.759 560.674C113.346 562.346 97.0478 567.839 92.4369 567.973L93.1347 570.741C92.7506 576.455 93.2992 582.19 92.9448 587.881C94.6898 587.952 96.0793 587.687 97.77 587.27C106.174 585.551 114.64 582.651 122.913 580.336L122.627 582.91L115.994 584.642C116.031 593.51 116.327 602.463 115.921 611.32C114.88 612.997 114.767 614.853 113.827 616.529L113.975 651.841C113.979 657.958 113.626 664.275 114.041 670.356C115.968 674.119 114.904 677.604 115.971 681.354Q116.133 688.351 116.037 695.349C115.124 697.448 114.497 699.48 113.952 701.701C113.597 721.015 113.962 740.367 113.96 759.685C113.959 780.006 113.593 800.407 114.083 820.72C114.048 824.931 114.885 842.839 113.202 844.949L112.622 845.186C105.292 844.377 97.6626 845.112 90.2691 844.581C96.094 843.783 102.466 844.347 108.344 844.422Z"/>
		<path fill="#262626" transform="scale(0.488281 0.488281)" d="M97.77 587.27C106.174 585.551 114.64 582.651 122.913 580.336L122.627 582.91L115.994 584.642C116.031 593.51 116.327 602.463 115.921 611.32C114.88 612.997 114.767 614.853 113.827 616.529C113.154 606.156 113.575 595.386 113.488 584.973C109.209 586.448 104.892 587.704 100.541 588.941C97.8829 589.808 95.1144 591.008 92.2927 590.944C91.1174 590.168 91.238 589.917 90.8538 588.536L92.9448 587.881C94.6898 587.952 96.0793 587.687 97.77 587.27Z"/>
		<path fill="#262626" transform="scale(0.488281 0.488281)" d="M114.041 670.356C115.968 674.119 114.904 677.604 115.971 681.354Q116.133 688.351 116.037 695.349C115.124 697.448 114.497 699.48 113.952 701.701C113.518 691.325 113.838 680.74 114.041 670.356Z"/>
		<path fill="#262626" transform="scale(0.488281 0.488281)" d="M90.8538 588.536C91.1591 582.71 90.3691 576.782 90.8247 570.963C90.9498 569.365 91.2592 569.043 92.4369 567.973L93.1347 570.741C92.7506 576.455 93.2992 582.19 92.9448 587.881L90.8538 588.536Z"/>
		<path fill="#262626" transform="scale(0.488281 0.488281)" d="M270.373 221.217C272.559 221.078 274.8 221.237 276.983 221.394C285.987 222.043 294.833 224.795 300.879 231.859C307.001 239.011 309.249 247.746 308.478 257.031C307.502 268.786 301.288 279.297 292.34 286.782C269.764 305.669 235.715 308.567 208.089 301.525C195.094 298.211 183.004 292.718 169.486 291.563C157.877 293.145 151.899 298.748 144.966 307.749C142.961 301.064 141.457 294.375 141.044 287.39C139.951 268.94 144.461 249.774 157.017 235.744C168.036 223.432 184.115 219.067 199.871 224.035C208.101 226.63 215.866 230.733 224.734 230.206C239.572 229.326 253.665 222.216 270.373 221.217Z"/>
		<path fill="#51a2ff" transform="scale(0.488281 0.488281)" d="M132.017 325.313C137.635 323.927 178.332 324.533 185.302 325.139C186.469 326.679 186.101 329.038 186.008 330.927L186.069 331.266C186.688 335.204 186.511 339.169 186.759 343.133C186.902 345.427 187.044 347.707 187.056 350.006L187.064 352.754C187.933 359.62 187.739 366.693 188.069 373.61L188.055 376.441C189.063 384.715 188.851 393.318 189.198 401.656C189.764 405.87 189.687 410.238 189.811 414.488Q190.368 425.804 190.732 437.128C191.212 447.94 192.419 459.474 191.949 470.251C192.353 478.095 193.165 486.139 193.056 493.981C193.65 498.148 193.546 502.319 193.892 506.499C193.221 506.95 192.351 507.722 191.599 507.966L187.959 507.859Q179.987 507.745 172.016 507.913C167.228 508.613 161.853 508.194 157.007 508.181C146.855 508.152 136.69 507.974 126.542 508.312C125.585 508.684 125.241 508.801 124.181 508.77C124.78 498.825 124.859 488.799 125.149 478.838C125.594 470.885 125.591 462.839 126.438 454.923C126.22 450.975 126.534 446.815 126.942 442.88C126.882 439.055 127.202 435.22 127.438 431.403C127.389 426.886 127.729 422.377 128.003 417.871C127.962 414.691 128.256 411.515 128.48 408.345C128.247 397.507 129.303 386.261 129.701 375.403C130.196 361.938 130.124 348.17 131.434 334.769C131.191 331.794 131.28 328.202 132.017 325.313Z"/>
		<path fill="#51a2ff" transform="scale(0.488281 0.488281)" d="M127.438 431.403C128.334 432.562 129.1 433.579 129.667 434.948L130.155 434.924C148.246 434.393 166.493 434.824 184.595 434.952L185.485 436.01C185.2 436.359 184.944 436.741 184.584 437.014C185.803 437.11 187.078 437.132 188.277 437.363C188.529 444.22 188.463 466.099 189.797 471.396L190.345 470.427L191.949 470.251C192.353 478.095 193.165 486.139 193.056 493.981C193.65 498.148 193.546 502.319 193.892 506.499C193.221 506.95 192.351 507.722 191.599 507.966L187.959 507.859Q179.987 507.745 172.016 507.913C167.228 508.613 161.853 508.194 157.007 508.181C146.855 508.152 136.69 507.974 126.542 508.312C125.585 508.684 125.241 508.801 124.181 508.77C124.78 498.825 124.859 488.799 125.149 478.838C125.594 470.885 125.591 462.839 126.438 454.923C126.22 450.975 126.534 446.815 126.942 442.88C126.882 439.055 127.202 435.22 127.438 431.403Z"/>
		<path fill="#262626" transform="scale(0.488281 0.488281)" d="M126.438 454.923C126.641 457.135 126.725 459.288 126.695 461.509L126.973 461.665C127.384 460.587 127.719 459.546 127.998 458.426C127.753 474.866 126.789 491.294 126.529 507.735Q141.468 507.592 156.408 507.657C161.551 507.672 166.902 507.426 172.016 507.913C167.228 508.613 161.853 508.194 157.007 508.181C146.855 508.152 136.69 507.974 126.542 508.312C125.585 508.684 125.241 508.801 124.181 508.77C124.78 498.825 124.859 488.799 125.149 478.838C125.594 470.885 125.591 462.839 126.438 454.923Z"/>
		<path fill="#262626" transform="scale(0.488281 0.488281)" d="M130.155 434.924C148.246 434.393 166.493 434.824 184.595 434.952L185.485 436.01C185.2 436.359 184.944 436.741 184.584 437.014L136.302 436.832C135.342 436.569 135.649 436.607 134.827 436.518C133.297 436.352 131.884 436.131 130.39 435.758L130.155 434.924Z"/>
		<path fill="#262626" transform="scale(0.488281 0.488281)" d="M189.797 471.396L190.345 470.427L191.949 470.251C192.353 478.095 193.165 486.139 193.056 493.981C192.98 495.346 192.901 496.685 192.689 498.038C191.621 498.118 191.759 497.945 190.992 497.286Q190.322 484.345 189.797 471.396Z"/>
		<path fill="#262626" transform="scale(0.488281 0.488281)" d="M127.438 431.403C128.334 432.562 129.1 433.579 129.667 434.948L130.155 434.924L130.39 435.758C131.884 436.131 133.297 436.352 134.827 436.518C135.649 436.607 135.342 436.569 136.302 436.832L129.058 436.887L128.501 449.065C128.398 452.187 128.36 455.321 127.998 458.426C127.719 459.546 127.384 460.587 126.973 461.665L126.695 461.509C126.725 459.288 126.641 457.135 126.438 454.923C126.22 450.975 126.534 446.815 126.942 442.88C126.882 439.055 127.202 435.22 127.438 431.403Z"/>
		<path fill="#262626" transform="scale(0.488281 0.488281)" d="M193.056 493.981C193.65 498.148 193.546 502.319 193.892 506.499C193.221 506.95 192.351 507.722 191.599 507.966Q191.241 502.629 190.992 497.286C191.759 497.945 191.621 498.118 192.689 498.038C192.901 496.685 192.98 495.346 193.056 493.981Z"/>
		<path fill="#51a2ff" transform="scale(0.488281 0.488281)" d="M132.017 325.313C137.635 323.927 178.332 324.533 185.302 325.139C186.469 326.679 186.101 329.038 186.008 330.927L186.069 331.266C186.688 335.204 186.511 339.169 186.759 343.133C186.902 345.427 187.044 347.707 187.056 350.006L187.064 352.754C187.933 359.62 187.739 366.693 188.069 373.61L185.849 375.101C185.155 370.054 185.293 364.529 185.07 359.418L186.31 359.403L186.856 358.829L186.775 356.139L185.039 356.897L180.179 356.879C174.685 356.82 169.183 356.693 163.691 356.911C153.714 355.924 142.999 356.602 132.921 356.552C132.944 349.668 133.43 342.78 133.488 335.887C133.024 337.281 132.574 338.62 131.909 339.937L131.434 334.769C131.191 331.794 131.28 328.202 132.017 325.313Z"/>
		<path fill="#262626" transform="scale(0.488281 0.488281)" d="M132.017 325.313C137.635 323.927 178.332 324.533 185.302 325.139C186.469 326.679 186.101 329.038 186.008 330.927C185.011 330.029 184.601 328.792 184.07 327.59L183.18 326.668C173.822 324.625 137.114 328.582 132.017 325.313Z"/>
		<path fill="#262626" transform="scale(0.488281 0.488281)" d="M186.069 331.266C186.688 335.204 186.511 339.169 186.759 343.133C186.902 345.427 187.044 347.707 187.056 350.006L187.064 352.754C187.933 359.62 187.739 366.693 188.069 373.61L185.849 375.101C185.155 370.054 185.293 364.529 185.07 359.418L186.31 359.403L186.856 358.829L186.775 356.139L185.039 356.897L184.805 351.763C184.6 349.046 184.574 346.295 184.48 343.571L184.2 336.603L184.8 337.07L185.562 336.579C185.873 334.803 185.98 333.066 186.069 331.266Z"/>
		<path fill="#262626" transform="scale(0.488281 0.488281)" d="M131.434 334.769C131.191 331.794 131.28 328.202 132.017 325.313C137.114 328.582 173.822 324.625 183.18 326.668C167.014 328.075 150.248 326.653 134.001 326.98L133.488 335.887C133.024 337.281 132.574 338.62 131.909 339.937L131.434 334.769Z"/>
		<path fill="#262626" transform="scale(0.488281 0.488281)" d="M184.07 327.59C184.601 328.792 185.011 330.029 186.008 330.927L186.069 331.266C185.98 333.066 185.873 334.803 185.562 336.579L184.8 337.07L184.2 336.603C184.031 333.6 184.062 330.597 184.07 327.59Z"/>
		<path fill="#262626" transform="scale(0.488281 0.488281)" d="M128.48 408.345C128.247 397.507 129.303 386.261 129.701 375.403C130.196 361.938 130.124 348.17 131.434 334.769L131.909 339.937C132.574 338.62 133.024 337.281 133.488 335.887C133.43 342.78 132.944 349.668 132.921 356.552C142.999 356.602 153.714 355.924 163.691 356.911C169.183 356.693 174.685 356.82 180.179 356.879C180.804 357.218 181.966 357.633 182.309 358.234C170.953 358.516 159.002 357.417 147.746 358.437L147.564 358.876L132.725 358.817Q132.162 379.067 131.098 399.297C130.815 405.221 131.087 411.806 130.082 417.6C129.931 423.309 129.189 429.268 129.667 434.948C129.1 433.579 128.334 432.562 127.438 431.403C127.389 426.886 127.729 422.377 128.003 417.871C127.962 414.691 128.256 411.515 128.48 408.345Z"/>
		<path fill="#262626" transform="scale(0.488281 0.488281)" d="M163.691 356.911C169.183 356.693 174.685 356.82 180.179 356.879C180.804 357.218 181.966 357.633 182.309 358.234C170.953 358.516 159.002 357.417 147.746 358.437C143.747 358.354 139.323 358.507 135.427 357.636C144.52 356.364 153.922 357.712 163.07 356.967L163.691 356.911Z"/>
		<path fill="#262626" transform="scale(0.488281 0.488281)" d="M188.055 376.441C189.063 384.715 188.851 393.318 189.198 401.656C189.764 405.87 189.687 410.238 189.811 414.488Q190.368 425.804 190.732 437.128C191.212 447.94 192.419 459.474 191.949 470.251L190.345 470.427L189.797 471.396C188.463 466.099 188.529 444.22 188.277 437.363C187.078 437.132 185.803 437.11 184.584 437.014C184.944 436.741 185.2 436.359 185.485 436.01L184.595 434.952C185.922 434.914 186.557 435.061 187.676 434.308C188.124 433.236 188.254 432.632 188.143 431.467C187.974 429.688 187.961 427.941 187.944 426.154C186.624 416.85 186.982 406.665 186.625 397.248Q186.471 392.709 186.47 388.167C188.588 384.926 187.699 380.207 188.055 376.441Z"/>
		<path fill="#262626" transform="scale(0.488281 0.488281)" d="M186.775 356.139L186.856 358.829L186.31 359.403L185.07 359.418C181.649 357.969 153.272 358.87 147.564 358.876L147.746 358.437C159.002 357.417 170.953 358.516 182.309 358.234C181.966 357.633 180.804 357.218 180.179 356.879L185.039 356.897L186.775 356.139Z"/>
		<path fill="#262626" transform="scale(0.488281 0.488281)" d="M185.849 375.101L188.069 373.61L188.055 376.441C187.699 380.207 188.588 384.926 186.47 388.167C185.971 383.864 186.003 379.432 185.849 375.101Z"/>
		<path fill="#51a2ff" transform="scale(0.488281 0.488281)" d="M243.919 329.478C243.858 327.965 243.874 326.721 244.224 325.244C246.597 323.121 263.856 324.201 267.791 324.242C277.02 324.215 286.752 323.693 295.909 324.713C296.776 330.251 297.283 336.863 296.938 342.45C297.242 346.799 297.563 351.128 297.553 355.491L297.563 358.378C298.485 366.241 299.158 376.475 298.557 384.347C299.1 388.75 299.017 393.152 299.352 397.563Q299.748 412.159 300.372 426.746C300.433 429.1 300.639 431.536 300.421 433.878C299.927 432.834 299.451 431.865 299.218 430.723C299.174 430.504 299.151 430.282 299.117 430.062L298.608 430.802C298.941 431.948 299.224 432.746 299.062 433.952L298.156 434.396L297.944 431.675C283.054 431.487 268.137 432.005 253.251 431.604C250.182 431.208 245.389 432.247 242.72 430.869L242.382 429.592L242.53 423.648C242.225 424.582 241.778 425.579 241.016 426.208L241.235 424.897L240.48 424.591C240.338 418.627 240.748 412.614 240.979 406.654C241.191 399.022 240.935 391.001 241.952 383.446C241.917 380.157 242.047 376.939 242.298 373.659Q242.961 351.563 243.919 329.478Z"/>
		<path fill="#51a2ff" transform="scale(0.488281 0.488281)" d="M243.919 329.478C243.858 327.965 243.874 326.721 244.224 325.244C246.597 323.121 263.856 324.201 267.791 324.242C277.02 324.215 286.752 323.693 295.909 324.713C296.776 330.251 297.283 336.863 296.938 342.45C297.242 346.799 297.563 351.128 297.553 355.491C297.06 355.378 296.333 355.453 295.82 355.453C295.425 356.219 295.429 356.756 294.537 357.008C293.211 357.382 291.838 357.245 290.476 357.194Q267.729 357.001 244.982 357.102L245.173 359.257C244.596 363.294 244.623 367.43 244.512 371.504L242.298 373.659Q242.961 351.563 243.919 329.478Z"/>
		<path fill="#262626" transform="scale(0.488281 0.488281)" d="M243.919 329.478C243.858 327.965 243.874 326.721 244.224 325.244C246.597 323.121 263.856 324.201 267.791 324.242C277.02 324.215 286.752 323.693 295.909 324.713C296.776 330.251 297.283 336.863 296.938 342.45C295.402 343.24 295.407 344.028 294.76 345.588C294.147 339.91 295.358 332.494 293.583 327.187L292.082 326.802C276.922 326.183 261.709 326.691 246.536 326.389L246.015 326.738L243.919 329.478Z"/>
		<path fill="#262626" transform="scale(0.488281 0.488281)" d="M246.015 326.738C246.097 336.766 245.928 347.115 244.982 357.102L245.173 359.257C244.596 363.294 244.623 367.43 244.512 371.504L242.298 373.659Q242.961 351.563 243.919 329.478L246.015 326.738Z"/>
		<path fill="#262626" transform="scale(0.488281 0.488281)" d="M294.76 345.588C295.407 344.028 295.402 343.24 296.938 342.45C297.242 346.799 297.563 351.128 297.553 355.491C297.06 355.378 296.333 355.453 295.82 355.453C294.966 352.289 294.964 348.855 294.76 345.588Z"/>
		<path fill="#262626" transform="scale(0.488281 0.488281)" d="M242.382 429.592L298.008 429.529L297.944 431.675C283.054 431.487 268.137 432.005 253.251 431.604C250.182 431.208 245.389 432.247 242.72 430.869L242.382 429.592Z"/>
		<path fill="#262626" transform="scale(0.488281 0.488281)" d="M244.982 357.102Q267.729 357.001 290.476 357.194L294.085 357.645L294.465 357.238L293.715 357.565L295.268 358.225L295.279 358.601C294.076 359.173 293.325 359.304 291.996 359.316C276.434 359.754 260.747 359.287 245.173 359.257L244.982 357.102Z"/>
		<path fill="#262626" transform="scale(0.488281 0.488281)" d="M295.82 355.453C296.333 355.453 297.06 355.378 297.553 355.491L297.563 358.378C298.485 366.241 299.158 376.475 298.557 384.347C299.1 388.75 299.017 393.152 299.352 397.563C298.298 397.195 297.954 397.462 296.897 397.719C296.588 394.136 296.415 390.637 296.467 387.041C295.495 381.066 295.017 368.786 295.71 362.846L295.342 360.171C294.255 359.176 293.438 359.404 291.996 359.316C293.325 359.304 294.076 359.173 295.279 358.601L295.268 358.225L293.715 357.565L294.465 357.238L294.085 357.645L290.476 357.194C291.838 357.245 293.211 357.382 294.537 357.008C295.429 356.756 295.425 356.219 295.82 355.453Z"/>
		<path fill="#262626" transform="scale(0.488281 0.488281)" d="M295.82 355.453C296.333 355.453 297.06 355.378 297.553 355.491L297.563 358.378L297.194 363.019L296.93 363.015C296.799 361.905 296.725 360.818 296.687 359.7C295.97 360.222 295.874 361.945 295.71 362.846L295.342 360.171C294.255 359.176 293.438 359.404 291.996 359.316C293.325 359.304 294.076 359.173 295.279 358.601L295.268 358.225L293.715 357.565L294.465 357.238L294.085 357.645L290.476 357.194C291.838 357.245 293.211 357.382 294.537 357.008C295.429 356.756 295.425 356.219 295.82 355.453Z"/>
		<path fill="#262626" transform="scale(0.488281 0.488281)" d="M296.897 397.719C297.954 397.462 298.298 397.195 299.352 397.563Q299.748 412.159 300.372 426.746C300.433 429.1 300.639 431.536 300.421 433.878C299.927 432.834 299.451 431.865 299.218 430.723C299.174 430.504 299.151 430.282 299.117 430.062L298.608 430.802C298.941 431.948 299.224 432.746 299.062 433.952L298.156 434.396L297.944 431.675L298.008 429.529C297.886 427.573 297.936 425.593 297.928 423.634C296.686 415.384 297.198 406.087 296.897 397.719Z"/>
		<path fill="#262626" transform="scale(0.488281 0.488281)" d="M244.512 371.504L243.88 391.506C243.758 397.67 244.127 404.622 243.077 410.671C242.979 409.135 242.831 407.635 242.617 406.111L241.935 405.714L240.979 406.654C241.191 399.022 240.935 391.001 241.952 383.446C241.917 380.157 242.047 376.939 242.298 373.659L244.512 371.504Z"/>
		<path fill="#262626" transform="scale(0.488281 0.488281)" d="M240.979 406.654L241.935 405.714L242.617 406.111C242.831 407.635 242.979 409.135 243.077 410.671Q242.956 417.166 242.53 423.648C242.225 424.582 241.778 425.579 241.016 426.208L241.235 424.897L240.48 424.591C240.338 418.627 240.748 412.614 240.979 406.654Z"/>
		<path fill="#262626" transform="scale(0.488281 0.488281)" d="M843.568 400.553C847.435 400.197 851.316 400.307 854.846 402.127C858.267 403.891 860.932 407.481 862.014 411.137C863.382 415.759 862.272 420.788 859.822 424.854C851.34 438.932 828.864 437.072 814.893 440.871C810.646 442.597 808.317 445.526 805.498 448.953C805.188 440.396 801.698 431.511 806.499 423.511C811.557 415.083 833.934 403.011 843.568 400.553Z"/>
		<path fill="#262626" transform="scale(0.488281 0.488281)" d="M371.606 269.195C378.615 269.091 418.984 268.072 422.266 270.226L422.371 271.577C407.226 271.935 391.979 271.709 376.823 271.658C375.237 271.653 372.397 271.948 371.287 270.831L371.606 269.195Z"/>
		<path fill="#262626" transform="scale(0.488281 0.488281)" d="M665.694 407.087C660.343 407.579 648.779 408.44 643.889 406.874L644.116 405.527C648.821 403.725 656.796 404.948 661.872 405.053C668.762 404.934 690.017 403.7 695.164 406.098L695.411 406.42C692.588 407.715 670.011 407.652 665.694 407.087Z"/>
		<path fill="#262626" transform="scale(0.488281 0.488281)" d="M665.694 407.087C660.343 407.579 648.779 408.44 643.889 406.874L644.116 405.527C648.821 403.725 656.796 404.948 661.872 405.053C658.526 406.025 654.293 406.053 650.774 406.699C655.588 406.721 660.966 406.32 665.694 407.087Z"/>
		<path fill="#262626" transform="scale(0.488281 0.488281)" d="M340.826 202.164C344.806 202.224 357.653 200.935 360.338 203.023L360.347 204.497C356.453 204.57 343.2 205.62 340.739 203.67L340.826 202.164Z"/>
		<path fill="#262626" transform="scale(0.488281 0.488281)" d="M696.93 459.658C700.706 458.911 708.304 458.541 712.011 459.592C712.873 459.836 712.945 460.389 713.381 461.108C709.645 462.147 702.655 462.371 698.839 461.476C697.571 461.178 697.556 460.726 696.93 459.658Z"/>
		<path fill="#262626" transform="scale(0.488281 0.488281)" d="M739.26 338.741C742.921 338.619 747.994 337.979 751.44 339.322L751.279 340.205L749.851 340.826C745.998 340.882 741.42 341.253 737.731 340.046L737.715 339.189L739.26 338.741Z"/>
		<path fill="#262626" transform="scale(0.488281 0.488281)" d="M727.839 338.679C730.223 338.569 733.199 338.114 735.222 339.532L734.858 340.464C733.337 340.586 731.736 340.793 730.212 340.76C728.973 340.734 728.221 340.748 727.332 339.825L727.839 338.679Z"/>
	</g>
	<g>
		<path fill="#fff" transform="scale(0.488281 0.488281)" d="M0 0L1024 0L1024 1024L0 1024L0 0ZM458.171 337.958C456.449 342.497 456.145 347.494 458.19 352.022C458.455 352.607 458.759 353.25 459.137 353.773C461.081 356.979 464.015 360.108 467.829 360.925C467.904 360.941 467.983 360.932 468.06 360.936C469.356 361.226 471.147 361.231 471.919 362.424C471.984 362.524 472 362.65 472.041 362.763L475.925 394.017C475.861 395.931 475.717 397.869 475.922 399.776C475.619 403.223 475.576 406.651 475.542 410.11C470.475 415.451 466.934 421.998 461.953 427.447C461.525 427.915 461.111 428.396 460.687 428.868C455.535 431.767 448.471 432.22 442.686 433.283C429.814 435.65 397.861 440.855 387.833 447.284C370.511 453.432 357.879 466.543 347.085 480.873C344.863 483.823 342.166 486.885 340.333 490.076C338.551 492.339 336.729 494.579 335.039 496.912C332.864 498.725 330.684 499.117 328.244 500.318C323.724 501.351 319.301 502.702 314.86 504.026C313.248 504.432 311.552 504.759 309.989 505.318L303.666 507.132C303.088 496.548 302.904 485.942 302.23 475.363C301.739 467.884 301.844 460.345 301.088 452.891C301.252 449.977 300.986 446.905 300.921 443.979C300.854 440.615 300.599 437.239 300.421 433.878C300.639 431.536 300.433 429.1 300.372 426.746Q299.748 412.159 299.352 397.563C299.017 393.152 299.1 388.75 298.557 384.347C299.158 376.475 298.485 366.241 297.563 358.378L297.553 355.491C297.563 351.128 297.242 346.799 296.938 342.45C297.283 336.863 296.776 330.251 295.909 324.713C286.752 323.693 277.02 324.215 267.791 324.242C263.856 324.201 246.597 323.121 244.224 325.244C243.874 326.721 243.858 327.965 243.919 329.478Q242.961 351.563 242.298 373.659C242.047 376.939 241.917 380.157 241.952 383.446C240.935 391.001 241.191 399.022 240.979 406.654C240.748 412.614 240.338 418.627 240.48 424.591C239.35 430.985 239.752 438.211 239.579 444.731C239.411 449.483 239.013 454.339 239.109 459.087C239.041 461.473 238.816 463.959 238.931 466.336C238.433 470.234 238.4 474.166 238.296 478.089C238.093 481.55 237.867 484.992 237.949 488.46C237.246 493.422 237.413 498.592 237.323 503.599C237.162 507.655 236.887 511.744 237.056 515.8C236.957 519.361 236.802 522.931 236.83 526.493C231.46 529.125 224.481 530.421 218.715 532.019Q207.107 535.225 195.614 538.825C195.455 537.042 195.369 535.22 195.058 533.457C195.109 526.569 194.93 519.265 194.065 512.435L193.892 506.499C193.546 502.319 193.65 498.148 193.056 493.981C193.165 486.139 192.353 478.095 191.949 470.251C192.419 459.474 191.212 447.94 190.732 437.128Q190.368 425.804 189.811 414.488C189.687 410.238 189.764 405.87 189.198 401.656C188.851 393.318 189.063 384.715 188.055 376.441L188.069 373.61C187.739 366.693 187.933 359.62 187.064 352.754L187.056 350.006C187.044 347.707 186.902 345.427 186.759 343.133C186.511 339.169 186.688 335.204 186.069 331.266L186.008 330.927C186.101 329.038 186.469 326.679 185.302 325.139C178.332 324.533 137.635 323.927 132.017 325.313C131.28 328.202 131.191 331.794 131.434 334.769C130.124 348.17 130.196 361.938 129.701 375.403C129.303 386.261 128.247 397.507 128.48 408.345C128.256 411.515 127.962 414.691 128.003 417.871C127.729 422.377 127.389 426.886 127.438 431.403C127.202 435.22 126.882 439.055 126.942 442.88C126.534 446.815 126.22 450.975 126.438 454.923C125.591 462.839 125.594 470.885 125.149 478.838L124.397 477.892C120.793 478.396 96.1461 499.717 92.0423 503.691Q86.6153 508.964 82.0163 514.973C75.9268 522.988 70.5795 532.066 66.8499 541.427C50.1194 583.415 51.9979 645.693 58.2332 689.753C64.0212 730.652 76.5359 771.145 92.3638 809.222C95.0472 815.677 97.7451 822.171 100.735 828.49C103.244 833.791 106.148 838.985 108.344 844.422C102.466 844.347 96.094 843.783 90.2691 844.581C79.4235 845.809 65.4863 844.046 54.2719 844.403C52.6461 844.455 51.2295 845.113 50.2432 846.461C49.3795 847.641 49.3381 848.636 49.4379 850.032C50.126 851.21 50.4839 851.787 51.812 852.264C55.7682 853.686 107.191 852.733 116.752 852.711L243 852.629L714.25 852.651L868.32 852.589C900.003 852.664 931.773 853.294 963.446 852.914C964.982 852.896 966.086 852.82 967.507 852.221C968.473 851.253 969.182 850.428 969.406 848.995C969.587 847.83 969.107 846.695 968.275 845.889C967.336 844.978 966.013 844.694 964.759 844.563C958.351 843.893 951.346 844.53 944.898 844.618Q927.456 844.914 910.012 844.79C909.184 798.07 909.913 751.244 909.89 704.509L909.88 667.307C909.884 660.194 910.293 652.8 909.647 645.721C915.588 645.508 922.584 646.527 928.319 645.026C928.46 644.989 928.598 644.941 928.74 644.91C928.804 644.896 928.87 644.898 928.936 644.892L929.014 643.67C926.768 642.385 921.39 643.347 918.76 643.495L918.838 632.27C919.02 632.29 919.201 632.314 919.384 632.33C922.193 632.575 926.615 633.164 928.933 631.293L928.42 630.663C924.927 629.928 921.643 629.926 918.094 629.858C917.484 629.7 916.053 630.032 915.37 630.099C907.11 629.424 898.414 629.933 890.113 629.937C876.517 629.943 862.888 629.763 849.296 630.08L842.701 629.993C842.279 620.454 842.413 610.289 841.061 600.854C841.105 594.201 840.697 587.316 839.908 580.709C840.279 576.624 839.558 571.895 839.328 567.761Q838.654 554.317 837.705 540.889C837.243 534.319 837.104 527.691 836.811 521.108C836.215 513.354 836.421 505.554 835.601 497.805C835.62 491.163 835.063 484.455 834.549 477.835C834.516 471.638 833.669 465.468 833.67 459.261C833.535 458.042 833.743 457.243 832.783 456.41C826.531 456.072 797.15 455.254 793.067 456.68C792.279 458.912 792.426 461.454 792.389 463.803C791.566 471.69 790.628 480.427 790.94 488.343C789.601 498.979 790.053 509.822 788.803 520.478L789.026 521.119C788.333 527.378 787.915 533.926 787.921 540.22C786.899 547.569 786.379 555.827 786.541 563.247L786.411 567.777C785.778 573.298 785.493 579.073 785.479 584.631L784.646 598.434C783.991 608.898 783.051 619.47 782.936 629.952L699.682 629.85C699.948 628.04 703.893 623.865 705.086 622.106C711.084 613.266 713.992 600.823 713.177 590.232C712.328 579.184 708.102 570.587 701.24 562.096C699.721 560.217 698.193 558.037 696.369 556.46C694.088 552.622 690.946 549.014 688.232 545.458Q679.292 533.79 670.165 522.267L646.867 491.943C637.765 480.065 628.728 467.75 617.065 458.208C603.455 445.127 586.219 438.489 568.318 433.766C564.181 432.674 560.008 431.365 555.79 430.645L550.949 429.165Q544.806 421.148 538.905 412.951C539.077 409.31 538.974 405.649 538.94 402.004C539.065 396.786 538.916 391.552 539.853 386.4C543.067 378.87 544.734 369.015 545.959 360.943C548.789 361.333 550.616 361.311 553.23 359.997C557.164 358.021 559.367 354.386 560.633 350.314C560.648 350.287 560.667 350.262 560.678 350.233C561.987 346.559 561.815 342.683 560.272 339.114C558.495 335.66 556.501 334.693 553.116 333.147C554.464 329.643 555.651 326.18 556.645 322.558C560.539 313.025 562.82 300.015 558.489 290.235C556.138 284.925 552.037 280.603 546.517 278.602C540.676 276.485 534.794 277.444 529.036 279.192C515.621 272.684 498.541 270.111 484.212 275.122C475.328 278.229 467.507 284.209 463.378 292.805C456.725 306.654 463.822 318.949 466.094 332.659C464.323 333.197 462.536 333.67 460.88 334.51C459.848 335.604 458.831 336.585 458.171 337.958ZM371.606 269.195L371.287 270.831C372.397 271.948 375.237 271.653 376.823 271.658C391.979 271.709 407.226 271.935 422.371 271.577L422.266 270.226C418.984 268.072 378.615 269.091 371.606 269.195ZM360.347 204.497L360.338 203.023C357.653 200.935 344.806 202.224 340.826 202.164L340.739 203.67C343.2 205.62 356.453 204.57 360.347 204.497ZM814.893 440.871C828.864 437.072 851.34 438.932 859.822 424.854C862.272 420.788 863.382 415.759 862.014 411.137C860.932 407.481 858.267 403.891 854.846 402.127C851.316 400.307 847.435 400.197 843.568 400.553C833.934 403.011 811.557 415.083 806.499 423.511C801.698 431.511 805.188 440.396 805.498 448.953C808.317 445.526 810.646 442.597 814.893 440.871ZM727.839 338.679L727.332 339.825C728.221 340.748 728.973 340.734 730.212 340.76C731.736 340.793 733.337 340.586 734.858 340.464L735.222 339.532C733.199 338.114 730.223 338.569 727.839 338.679ZM739.26 338.741L737.715 339.189L737.731 340.046C741.42 341.253 745.998 340.882 749.851 340.826L751.279 340.205L751.44 339.322C747.994 337.979 742.921 338.619 739.26 338.741ZM696.93 459.658C697.556 460.726 697.571 461.178 698.839 461.476C702.655 462.371 709.645 462.147 713.381 461.108C712.945 460.389 712.873 459.836 712.011 459.592C708.304 458.541 700.706 458.911 696.93 459.658ZM665.694 407.087C670.011 407.652 692.588 407.715 695.411 406.42L695.164 406.098C690.017 403.7 668.762 404.934 661.872 405.053C656.796 404.948 648.821 403.725 644.116 405.527L643.889 406.874C648.779 408.44 660.343 407.579 665.694 407.087ZM270.373 221.217C253.665 222.216 239.572 229.326 224.734 230.206C215.866 230.733 208.101 226.63 199.871 224.035C184.115 219.067 168.036 223.432 157.017 235.744C144.461 249.774 139.951 268.94 141.044 287.39C141.457 294.375 142.961 301.064 144.966 307.749C151.899 298.748 157.877 293.145 169.486 291.563C183.004 292.718 195.094 298.211 208.089 301.525C235.715 308.567 269.764 305.669 292.34 286.782C301.288 279.297 307.502 268.786 308.478 257.031C309.249 247.746 307.001 239.011 300.879 231.859C294.833 224.795 285.987 222.043 276.983 221.394C274.8 221.237 272.559 221.078 270.373 221.217Z"/>
	</g>
</svg>
