<?xml version="1.0" encoding="utf-8" ?>
<svg xmlns="http://www.w3.org/2000/svg" xmlns:xlink="http://www.w3.org/1999/xlink" width="1600" height="900">
	<g>
		<path fill="#203562" transform="scale(0.879121 0.878906)" d="M622.543 125.581C665.17 125.398 707.846 125.085 750.471 125.566C750.477 150.116 750.022 174.737 750.408 199.278L851.822 199.238C869.711 199.232 887.749 198.758 905.621 199.325C905.72 212.939 905.581 226.599 905.942 240.206L1000.91 240.169C1016.01 240.149 1031.92 241.197 1046.89 239.936C1088.75 241.658 1131.14 240.279 1173.05 240.212C1189 240.187 1206.52 238.769 1222.33 240.478C1222.97 241.806 1223.42 243.073 1223.5 244.552C1224.1 255.127 1224.75 325.963 1223.21 331.69C1222.97 332.569 1222.49 333.376 1222.03 334.152L906.312 334.247L906.228 363.312L781.903 363.522C781.841 383.643 780.258 410.367 781.984 429.79C771.896 440.84 749.008 459.522 742.12 470.612C742.681 475.248 742.649 479.777 742.585 484.433C736.797 484.391 728.513 483.4 723.132 485.306L719.842 484.557C703.196 484.472 672.968 482.701 657.495 484.878C656.793 486.561 656.523 487.819 656.417 489.635Q655.598 487.809 654.844 485.955L653.547 490.457C653.475 489.73 653.419 488.989 653.292 488.268C651.78 479.642 636.963 487.464 631.286 483.67C630.25 478.902 630.809 473.536 630.904 468.67C617.922 458.874 603.607 442.45 592.038 430.472C589.719 427.806 590.695 371.462 590.678 363.416L468.287 363.476L468.156 334.017L334.7 334.165L334.907 659.399L599.921 659.064C634.17 658.55 668.739 660.16 702.924 658.811C720.482 659.954 738.377 659.418 755.987 659.374L847.254 658.897C907.496 658.648 968.016 660.335 1028.21 658.871C1030.31 662.424 1030.48 691.976 1029.1 696.631C1028.8 697.613 1028.41 698.448 1027.94 699.355C1019.6 699.363 1010.71 698.742 1002.45 699.629C1001.01 704.81 1004.11 715.126 999.784 718.305L997.537 718.434C986.934 717.591 975.711 718.537 965.014 718.455L948.45 718.257L948.091 699.356L899.298 699.441C890.643 699.456 881.045 700.233 872.518 698.761L872.391 699.604C871.679 704.576 873.974 714.428 870.387 717.937C868.762 718.217 867.255 718.448 865.603 718.423C850.339 717.305 833.728 717.945 818.39 718.447C816.364 714.325 817.558 704.168 817.595 699.382L741.697 699.531C738.432 705.431 734.961 711.124 731.306 716.791C727.363 723.281 723.283 729.757 719.623 736.41Q684.55 737.051 649.472 736.96C645.21 730.434 640.893 723.938 636.708 717.363Q630.536 708.229 623.989 699.36Q598.219 699.186 572.449 699.299C563.625 699.308 554.072 700.015 545.339 698.797C543.771 704.337 544.222 710.468 544.191 716.188L527.736 716.272L527.862 946.83C538.495 946.897 561.706 948.491 570.915 946.214L571.992 940.543C569.679 934.059 571.265 918.657 571.333 911.258L762.318 911.5L762.456 928.021L762.444 946.752L832.712 946.734L853.185 946.75L965.405 946.736L985.614 946.751L1046.27 946.739C1046.5 946.278 1046.76 945.826 1046.97 945.357C1048.31 942.46 1049.19 757.393 1047.28 751.769C1049.38 750.29 1050 749.951 1052.63 749.802C1077.55 748.388 1103.37 749.803 1128.37 749.726L1311.19 749.715C1311.78 748.769 1312.28 747.741 1312.49 746.635C1313.59 740.96 1313.9 718.221 1311.28 713.88C1311.63 712.714 1311.48 711.491 1311.45 710.281Q1338.96 710.046 1366.47 710.142C1375.9 710.15 1385.57 709.707 1394.98 710.294L1394.1 711.734L1395.06 712.627L1392.32 713.82L1392.42 714.539C1393.66 723.92 1389.47 740.69 1393.87 748.664C1395.58 749.714 1397.18 749.568 1399.13 749.577L1540.55 749.423C1554.04 749.395 1588.73 747.671 1599.4 749.82C1601.71 755.992 1601.71 814.989 1599.66 821.373L1602.15 821.656C1603.76 820.363 1627.55 742.532 1630.43 734.484C1635.77 719.54 1642.87 705.51 1648.64 690.796C1657.42 678.901 1662.29 665.231 1673.02 654.393C1681.52 645.809 1691.49 641.546 1703.59 641.633C1708.13 641.666 1714.99 641.94 1718.38 645.355C1726.64 647.513 1733.58 654.079 1737.77 661.335C1745.32 674.41 1744.77 688.972 1740.87 703.062C1738.75 710.701 1728.61 740.38 1722.61 744.141C1722.67 748.168 1717.57 756.489 1714.87 759.412C1714.29 760.033 1713.78 760.342 1713.06 760.773C1713.68 766.579 1706.78 771.978 1705.27 777.443C1712.82 774.867 1721.06 766.965 1730.19 763.508C1733.11 762.742 1736.04 762.036 1738.87 760.966C1750.32 760.906 1759.92 762.758 1768.42 771.202C1774.73 777.467 1777.96 785.596 1777.83 794.466C1777.68 804.209 1772.88 815.948 1765.27 822.305C1764.72 822.758 1764.54 822.807 1763.98 823.069C1762.79 835.836 1674.46 933.071 1661.13 944.226C1660.12 945.067 1659.15 945.731 1657.99 946.321Q1690.09 946.009 1722.2 946.063C1730.18 946.081 1738.6 945.354 1746.52 945.909C1749.79 946.138 1755.59 946.405 1758.09 948.627C1754.67 950.304 1750.72 950.065 1746.99 950.152C1692.22 951.429 1637.15 950.253 1582.35 950.271L1271.34 950.401L461.91 950.739L216.451 950.433C197.256 950.471 70.6959 952.063 63.5289 949.503C63.0865 949.345 62.71 949.109 62.2979 948.882L62.5927 947.436C70.6514 943.322 99.0154 950.102 107.598 945.747C107.067 936.085 107.167 927.362 110.443 918.141L110.867 918.243C112.27 914.38 114.79 910.764 117.516 907.727C125.707 898.606 136.508 895.649 148.284 895.033L147.903 428.685L148.254 275.522C148.242 251.22 149.096 226.556 147.857 202.295C147.904 202.243 147.944 202.183 147.999 202.14C148.506 201.737 149.614 200.803 150.19 200.611C156.122 198.63 244.472 200.086 258.208 200.09L334.613 200.148L334.62 242.587L468.237 242.451Q468.187 220.972 468.356 199.495C483.152 198.367 498.524 199.205 513.386 199.224L597.119 199.266L622.456 199.272C622.382 174.946 621.081 149.825 622.543 125.581ZM348.576 897.479C352.198 898.549 356.738 900.322 359.364 903.133C365.435 907.602 370.288 913.437 373.938 920.034C374.677 913.34 374.144 906.011 374.147 899.261L374.079 855.332L373.789 716.057Q365.805 716.157 357.83 715.783C356.419 710.979 357.229 703.895 357.244 698.792L340.126 698.695C337.777 699.005 336.37 698.706 334.806 700.653C333.809 765.469 334.746 830.449 334.821 895.28C339.112 895.484 344.814 895.202 348.576 897.479ZM488.803 698.932C477.168 699.154 417.762 700.926 411.337 698.304C410.981 704.12 411.032 709.882 411.123 715.703L398.199 715.607L395.792 716.722C393.788 724.259 395.323 751.62 395.335 761.124L395.622 889.116C430.011 888.967 464.935 890.314 499.243 888.896C501.426 888.994 503.551 888.858 505.727 888.714C507.661 885.228 506.713 734.522 506.53 716.349L503.979 716.273L489.624 715.883C489.656 711.188 490.846 703.039 488.803 698.932ZM395.177 893.459C396.693 910.919 395.538 929.295 395.504 946.836C432.474 946.854 469.568 947.45 506.523 946.722C506.485 929.248 505.37 911.008 506.806 893.609C507.966 893 508.32 891.858 508.854 890.731L507.875 889.555C493.465 889.546 400.302 887.927 394.094 890.54L393.931 892.373L395.177 893.459Z"/>
		<path fill="#51BCBA" transform="scale(0.879121 0.878906)" d="M1311.45 710.281Q1338.96 710.046 1366.47 710.142C1375.9 710.15 1385.57 709.707 1394.98 710.294L1394.1 711.734L1395.06 712.627L1392.32 713.82L1392.42 714.539C1393.66 723.92 1389.47 740.69 1393.87 748.664C1395.58 749.714 1397.18 749.568 1399.13 749.577C1408 751.963 1419.69 750.622 1428.9 750.586C1432.04 754.742 1431.54 764.181 1430.95 769.334C1430.8 770.6 1430.42 771.798 1429.97 772.985L1429.8 773.446C1430.4 775.624 1431.41 777.598 1430.1 779.731C1429.71 780.368 1428.98 780.92 1428.41 781.392C1428.78 781.934 1429.11 782.478 1429.35 783.102C1431.2 788.024 1430.48 926.14 1429.78 941.59C1429.7 943.458 1429.36 944.89 1428.55 946.581L1050.38 946.648C1051.33 945.053 1051.75 943.561 1051.85 941.708C1053.62 908.626 1052.14 872.777 1052.16 839.429C1052.16 827.178 1053.83 791.396 1051.39 781.544L1050.92 782.416L1049.62 782.561C1046.53 773.748 1052.18 759.589 1047.28 751.769C1049.38 750.29 1050 749.951 1052.63 749.802C1077.55 748.388 1103.37 749.803 1128.37 749.726L1311.19 749.715C1311.78 748.769 1312.28 747.741 1312.49 746.635C1313.59 740.96 1313.9 718.221 1311.28 713.88C1311.63 712.714 1311.48 711.491 1311.45 710.281Z"/>
		<path fill="#232052" transform="scale(0.879121 0.878906)" d="M1311.45 710.281Q1338.96 710.046 1366.47 710.142C1375.9 710.15 1385.57 709.707 1394.98 710.294L1394.1 711.734L1395.06 712.627L1392.32 713.82L1392.42 714.539C1393.66 723.92 1389.47 740.69 1393.87 748.664C1395.58 749.714 1397.18 749.568 1399.13 749.577C1408 751.963 1419.69 750.622 1428.9 750.586C1432.04 754.742 1431.54 764.181 1430.95 769.334C1430.8 770.6 1430.42 771.798 1429.97 772.985L1429.8 773.446C1430.4 775.624 1431.41 777.598 1430.1 779.731C1429.71 780.368 1428.98 780.92 1428.41 781.392C1411.63 780.335 1394.16 781.319 1377.32 781.315L1272.05 781.3L1129.31 781.287C1103.39 781.288 1077.29 780.655 1051.39 781.544L1050.92 782.416L1049.62 782.561C1046.53 773.748 1052.18 759.589 1047.28 751.769C1049.38 750.29 1050 749.951 1052.63 749.802C1077.55 748.388 1103.37 749.803 1128.37 749.726L1311.19 749.715C1311.78 748.769 1312.28 747.741 1312.49 746.635C1313.59 740.96 1313.9 718.221 1311.28 713.88C1311.63 712.714 1311.48 711.491 1311.45 710.281Z"/>
		<path fill="#203562" transform="scale(0.879121 0.878906)" d="M1383.51 808.425L1385.55 808.783C1385.91 809.25 1386.39 809.644 1386.64 810.184C1387.24 811.527 1387.29 902.992 1386.55 910.346C1386.43 911.467 1385.6 911.773 1384.75 912.458C1383.76 912.159 1384.02 912.419 1383.48 911.601C1382.78 910.549 1382.07 814.647 1383.51 808.425Z"/>
		<path fill="#51BCBA" transform="scale(0.879121 0.878906)" d="M379.997 695.209C403.465 695.033 427.513 694.149 450.931 695.298C462.516 698.246 476.77 695.705 488.807 696.21C499.007 696.19 539.137 694.615 545.868 696.806L545.55 697.257L546.026 698.449L545.339 698.797C543.771 704.337 544.222 710.468 544.191 716.188L527.736 716.272L527.862 946.83C520.767 946.618 513.624 946.753 506.523 946.722C506.485 929.248 505.37 911.008 506.806 893.609C507.966 893 508.32 891.858 508.854 890.731L507.875 889.555C493.465 889.546 400.302 887.927 394.094 890.54L393.931 892.373L395.177 893.459C396.693 910.919 395.538 929.295 395.504 946.836L377.083 946.749C377.92 937.138 377.734 929.051 373.938 920.034C374.677 913.34 374.144 906.011 374.147 899.261L374.079 855.332L373.789 716.057Q365.805 716.157 357.83 715.783C356.419 710.979 357.229 703.895 357.244 698.792L340.126 698.695C349.191 694.393 369.789 695.866 380.253 695.914L379.997 695.209ZM411.337 698.304C410.981 704.12 411.032 709.882 411.123 715.703L398.199 715.607L395.792 716.722C393.788 724.259 395.323 751.62 395.335 761.124L395.622 889.116C430.011 888.967 464.935 890.314 499.243 888.896C501.426 888.994 503.551 888.858 505.727 888.714C507.661 885.228 506.713 734.522 506.53 716.349L503.979 716.273L489.624 715.883C489.656 711.188 490.846 703.039 488.803 698.932C477.168 699.154 417.762 700.926 411.337 698.304Z"/>
		<path fill="#232052" transform="scale(0.879121 0.878906)" d="M379.997 695.209C403.465 695.033 427.513 694.149 450.931 695.298C462.516 698.246 476.77 695.705 488.807 696.21C499.007 696.19 539.137 694.615 545.868 696.806L545.55 697.257L546.026 698.449L545.339 698.797C543.771 704.337 544.222 710.468 544.191 716.188L527.736 716.272L506.53 716.349L503.979 716.273L489.624 715.883C489.656 711.188 490.846 703.039 488.803 698.932C477.168 699.154 417.762 700.926 411.337 698.304C410.981 704.12 411.032 709.882 411.123 715.703L398.199 715.607C384.75 716.155 371.289 715.24 357.83 715.783C356.419 710.979 357.229 703.895 357.244 698.792L340.126 698.695C349.191 694.393 369.789 695.866 380.253 695.914L379.997 695.209Z"/>
		<path fill="#127DBC" transform="scale(0.879121 0.878906)" d="M335.061 663.25L1023.93 663.092C1026.98 668.092 1026.46 686.968 1025.08 692.71C1024.86 693.598 1024.41 694.475 1023.96 695.266C998.939 695.269 973.79 694.722 948.786 695.334L948.858 696.177C967.564 696.291 986.242 695.646 1004.9 696.649L1001.95 697.37C1002.21 697.389 1002.47 697.401 1002.73 697.427C1003.67 697.523 1004.34 697.729 1005.21 698.061C1004.26 698.557 1003.34 699.033 1002.45 699.629C1001.01 704.81 1004.11 715.126 999.784 718.305L997.537 718.434C986.934 717.591 975.711 718.537 965.014 718.455L948.45 718.257L948.091 699.356L899.298 699.441C890.643 699.456 881.045 700.233 872.518 698.761L872.391 699.604C871.679 704.576 873.974 714.428 870.387 717.937C868.762 718.217 867.255 718.448 865.603 718.423C850.339 717.305 833.728 717.945 818.39 718.447C816.364 714.325 817.558 704.168 817.595 699.382L741.697 699.531C738.432 705.431 734.961 711.124 731.306 716.791C727.363 723.281 723.283 729.757 719.623 736.41Q684.55 737.051 649.472 736.96C645.21 730.434 640.893 723.938 636.708 717.363Q630.536 708.229 623.989 699.36Q598.219 699.186 572.449 699.299C563.625 699.308 554.072 700.015 545.339 698.797L546.026 698.449L545.55 697.257L545.868 696.806C539.137 694.615 499.007 696.19 488.807 696.21C476.77 695.705 462.516 698.246 450.931 695.298C427.513 694.149 403.465 695.033 379.997 695.209Q357.537 694.931 335.075 695.113L335.061 663.25Z"/>
		<defs>
			<linearGradient id="gradient_0" gradientUnits="userSpaceOnUse" x1="760.75928" y1="783.67688" x2="661.87531" y2="624.22284">
				<stop offset="0" stop-color="#1A1841"/>
				<stop offset="1" stop-color="#282E68"/>
			</linearGradient>
		</defs>
		<path fill="url(#gradient_0)" transform="scale(0.879121 0.878906)" d="M450.931 695.298C515.695 694.447 580.597 695.138 645.367 695.448C679.436 695.612 713.556 694.978 747.615 695.494C751.29 697.951 833.918 696.219 845.194 696.149C852.791 696.101 863.238 694.785 870.488 696.451C871.993 696.797 872.161 697.388 872.518 698.761L872.391 699.604C871.679 704.576 873.974 714.428 870.387 717.937C868.762 718.217 867.255 718.448 865.603 718.423C850.339 717.305 833.728 717.945 818.39 718.447C816.364 714.325 817.558 704.168 817.595 699.382L741.697 699.531C738.432 705.431 734.961 711.124 731.306 716.791C727.363 723.281 723.283 729.757 719.623 736.41Q684.55 737.051 649.472 736.96C645.21 730.434 640.893 723.938 636.708 717.363Q630.536 708.229 623.989 699.36Q598.219 699.186 572.449 699.299C563.625 699.308 554.072 700.015 545.339 698.797L546.026 698.449L545.55 697.257L545.868 696.806C539.137 694.615 499.007 696.19 488.807 696.21C476.77 695.705 462.516 698.246 450.931 695.298Z"/>
		<path fill="#51BCBA" transform="scale(0.879121 0.878906)" d="M731.306 716.791C727.363 723.281 723.283 729.757 719.623 736.41Q684.55 737.051 649.472 736.96C645.21 730.434 640.893 723.938 636.708 717.363Q684.005 716.7 731.306 716.791Z"/>
		<path fill="#232052" transform="scale(0.879121 0.878906)" d="M747.615 695.494L887.379 695.21C907.806 695.219 928.374 694.774 948.786 695.334L948.858 696.177C967.564 696.291 986.242 695.646 1004.9 696.649L1001.95 697.37C1002.21 697.389 1002.47 697.401 1002.73 697.427C1003.67 697.523 1004.34 697.729 1005.21 698.061C1004.26 698.557 1003.34 699.033 1002.45 699.629C1001.01 704.81 1004.11 715.126 999.784 718.305L997.537 718.434C986.934 717.591 975.711 718.537 965.014 718.455L948.45 718.257L948.091 699.356L899.298 699.441C890.643 699.456 881.045 700.233 872.518 698.761C872.161 697.388 871.993 696.797 870.488 696.451C863.238 694.785 852.791 696.101 845.194 696.149C833.918 696.219 751.29 697.951 747.615 695.494Z"/>
		<path fill="#232052" transform="scale(0.879121 0.878906)" d="M700.454 428.491C715.317 428.507 730.455 427.895 745.285 428.583C757.36 429.706 770.104 427.79 781.984 429.79C771.896 440.84 749.008 459.522 742.12 470.612C742.681 475.248 742.649 479.777 742.585 484.433C736.797 484.391 728.513 483.4 723.132 485.306L719.842 484.557C703.196 484.472 672.968 482.701 657.495 484.878C656.793 486.561 656.523 487.819 656.417 489.635Q655.598 487.809 654.844 485.955L653.547 490.457C653.475 489.73 653.419 488.989 653.292 488.268C651.78 479.642 636.963 487.464 631.286 483.67C630.25 478.902 630.809 473.536 630.904 468.67C617.922 458.874 603.607 442.45 592.038 430.472C600.886 426.313 642.005 429.734 655.298 428.587L668.095 428.491L700.454 428.491Z"/>
		<path fill="#F37588" transform="scale(0.879121 0.878906)" d="M634.185 469.59C634.296 469.485 634.394 469.363 634.518 469.273C637.188 467.355 730.705 466.949 738.608 468.402Q738.74 474.444 738.77 480.488L672.852 480.216C660.064 480.208 647.067 480.697 634.302 479.992C634.632 476.526 634.36 473.058 634.185 469.59Z"/>
		<path fill="#FEFEFE" transform="scale(0.879121 0.878906)" d="M681.695 441.773Q682.685 441.644 683.68 441.553C686.75 441.279 689.329 441.648 691.708 443.814C693.284 445.25 694.144 447.101 694.203 449.233C694.309 453.124 692.44 455.312 689.899 457.891C686.032 458.057 682.502 458.14 679.484 455.247C678.064 453.886 677.333 452.26 677.323 450.286C677.304 446.578 679.327 444.296 681.695 441.773Z"/>
		<path fill="#127DBC" transform="scale(0.879121 0.878906)" d="M594.617 363.498L668.114 363.59L700.428 363.595L700.454 428.491L668.095 428.491L655.298 428.587C635.1 427.839 614.748 428.403 594.534 428.462L594.617 363.498Z"/>
		<path fill="#57C9FD" transform="scale(0.879121 0.878906)" d="M668.114 363.59L700.428 363.595L700.454 428.491L668.095 428.491C667.731 406.885 668.101 385.203 668.114 363.59Z"/>
		<path fill="#51BCBA" transform="scale(0.879121 0.878906)" d="M571.333 911.258L762.318 911.5L762.456 928.021L762.444 946.752C742.82 947.01 723.163 946.746 703.536 946.717L575.452 946.725L574.307 942.307L573.046 946.177C572.588 944.32 572.306 942.429 571.992 940.543C569.679 934.059 571.265 918.657 571.333 911.258Z"/>
		<path fill="#232052" transform="scale(0.879121 0.878906)" d="M571.333 911.258L762.318 911.5L762.456 928.021L760.128 928.932C757.024 925.406 757.919 919.75 757.962 915.314L703.153 915.459L575.07 915.509C575.045 923.838 576.123 934.279 574.307 942.307L573.046 946.177C572.588 944.32 572.306 942.429 571.992 940.543C569.679 934.059 571.265 918.657 571.333 911.258Z"/>
		<path fill="#127DBC" transform="scale(0.879121 0.878906)" d="M703.153 915.459L757.962 915.314C757.919 919.75 757.024 925.406 760.128 928.932C741.433 928.081 722.399 928.798 703.665 928.782L703.153 915.459Z"/>
		<path fill="#127DBC" transform="scale(0.879121 0.878906)" d="M700.428 363.595L777.648 363.614L777.681 428.396C767.004 428.401 755.913 427.842 745.285 428.583C730.455 427.895 715.317 428.507 700.454 428.491L700.428 363.595Z"/>
		<path fill="#51BCBA" transform="scale(0.879121 0.878906)" d="M152.445 204.428L330.582 204.294L330.709 633.803L331.847 634.263L330.332 633.899C330.512 636.274 331.063 640.833 329.506 642.701L152.325 642.638L152.445 204.428Z"/>
		<path fill="#203562" transform="scale(0.879121 0.878906)" d="M184.895 353.055C186.846 353.449 187.26 353.578 188.751 354.877C190.535 360.446 189.049 397.437 189.034 407.344L188.965 557.528C187.837 557.461 186.753 557.163 185.653 556.918C183.472 553.243 184.565 371.302 184.895 353.055Z"/>
		<path fill="#203562" transform="scale(0.879121 0.878906)" d="M184.965 292.548C186.059 292.783 187.027 293.241 188.056 293.674C191.219 300.206 189.162 326.285 189.071 334.928C187.845 334.935 187.013 334.693 185.864 334.279C182.901 328.257 184.833 300.932 184.965 292.548Z"/>
		<path fill="#127DBC" transform="scale(0.879121 0.878906)" d="M472.46 203.568L901.962 203.307L902.272 304.795C902.251 322.923 902.729 341.23 901.897 359.336L472.434 359.166Q471.7 281.366 472.46 203.568Z"/>
		<path fill="#57C9FD" transform="scale(0.879121 0.878906)" d="M680.926 239.3C691.411 239.029 700.329 240.413 709.197 246.575Q710.051 247.171 710.874 247.809Q711.697 248.447 712.488 249.125Q713.279 249.803 714.035 250.519Q714.791 251.236 715.511 251.988Q716.23 252.741 716.912 253.529Q717.593 254.317 718.235 255.137Q718.877 255.957 719.477 256.809Q720.077 257.66 720.634 258.54Q721.191 259.42 721.704 260.326Q722.218 261.233 722.685 262.164Q723.152 263.094 723.573 264.047Q723.994 265 724.367 265.972Q724.74 266.945 725.065 267.935Q725.389 268.925 725.664 269.929Q725.939 270.934 726.164 271.951Q726.389 272.968 726.563 273.995Q726.742 275.011 726.87 276.035Q726.997 277.059 727.075 278.088Q727.152 279.117 727.177 280.149Q727.203 281.18 727.178 282.212Q727.153 283.243 727.077 284.273Q727 285.302 726.873 286.326Q726.746 287.35 726.568 288.366Q726.39 289.383 726.162 290.389Q725.934 291.395 725.657 292.389Q725.379 293.383 725.052 294.362Q724.726 295.341 724.351 296.302Q723.977 297.263 723.555 298.205Q723.133 299.147 722.665 300.066Q722.197 300.986 721.684 301.881Q721.171 302.777 720.614 303.645Q720.057 304.514 719.458 305.354C712.395 315.269 702.885 320.4 691.084 322.464C681.369 323.431 671.511 321.444 663.309 316.044Q662.473 315.492 661.664 314.899Q660.856 314.306 660.079 313.673Q659.301 313.041 658.556 312.371Q657.81 311.701 657.099 310.994Q656.388 310.288 655.712 309.547Q655.037 308.807 654.399 308.033Q653.761 307.26 653.163 306.456Q652.564 305.652 652.006 304.819Q651.448 303.987 650.932 303.127Q650.416 302.268 649.943 301.384Q649.47 300.5 649.041 299.594Q648.613 298.688 648.23 297.761Q647.847 296.835 647.51 295.891Q647.174 294.946 646.884 293.987Q646.595 293.027 646.353 292.054Q646.112 291.081 645.919 290.097Q645.699 289.025 645.533 287.944Q645.367 286.863 645.255 285.775Q645.144 284.687 645.087 283.594Q645.03 282.502 645.028 281.408Q645.026 280.314 645.079 279.222Q645.131 278.129 645.239 277.041Q645.346 275.952 645.508 274.87Q645.67 273.788 645.886 272.716Q646.102 271.644 646.371 270.584Q646.641 269.523 646.963 268.478Q647.285 267.433 647.659 266.405Q648.034 265.377 648.459 264.369Q648.884 263.362 649.359 262.376Q649.835 261.391 650.359 260.431Q650.883 259.471 651.454 258.538Q652.026 257.606 652.643 256.703C659.502 246.707 669.2 241.441 680.926 239.3Z"/>
		<path fill="#51BCBA" transform="scale(0.879121 0.878906)" d="M152.252 647.095L330.74 647.218L330.709 895.179L152.283 895.116L152.252 647.095Z"/>
		<path fill="#203562" transform="scale(0.879121 0.878906)" d="M186.337 705.081L188.393 706.128C189.686 708.16 189.532 710.318 189.604 712.659C190.588 744.404 189.391 776.597 189.429 808.396C189.452 827.676 191.19 855.576 188.978 873.709L186.507 872.255C185.375 869.759 185.409 867.289 185.33 864.593C184.358 831.424 185.423 797.894 185.425 764.685C185.426 750.49 183.694 716.631 186.337 705.081Z"/>
		<path fill="#203562" transform="scale(0.879121 0.878906)" d="M290.334 706.847L293.055 707.895C293.725 709.003 294.025 709.683 294.038 711.002C294.302 737.785 293.54 764.709 293.51 791.52C293.48 818.597 294.183 845.789 293.401 872.842L290.735 871.797C289.552 869.404 289.691 866.645 289.625 864.02C288.823 832.449 289.815 800.574 289.757 768.965C289.723 750.365 287.936 724.488 290.334 706.847Z"/>
		<path fill="#51BCBA" transform="scale(0.879121 0.878906)" d="M1649.19 697.673C1654.47 693.66 1659.2 681.598 1662.62 675.621C1669.41 663.733 1678.93 650.704 1692.8 647.084C1701.51 644.813 1711.72 645.496 1719.58 650.031C1728.65 655.152 1735.58 662.977 1738.42 673.134C1743.93 692.885 1731.6 721.707 1721.55 738.479C1721.15 739.146 1720.72 739.695 1720.24 740.3C1718.99 745.798 1713.63 756.116 1709.58 759.92C1707.62 771.162 1677.86 807.437 1668.8 813.735C1668.56 813.901 1668.31 814.058 1668.07 814.219C1665.51 820.368 1647.69 839.315 1642.19 843.559C1637.17 850.979 1628.04 862.85 1619.97 867.106C1618.56 866.843 1617.49 866.58 1616.22 865.866C1606.15 860.439 1538.67 822.209 1533.49 822.862L1532.69 824.39C1534.87 828.606 1594.01 858.755 1602.96 863.53C1607.05 865.714 1617.03 869.558 1619.7 872.921C1620.72 872.585 1621.86 872.159 1622.74 871.538C1627.26 868.368 1643.19 851.483 1643.84 847.123C1644.76 846.685 1645.73 846.257 1646.54 845.624C1650.87 842.226 1670.09 821.098 1670.75 816.921C1670.88 816.863 1671.02 816.81 1671.15 816.747C1673.05 815.847 1705.9 782.329 1706.21 781.373C1708.41 780.78 1729.95 768.364 1733.48 766.162C1744.32 764.862 1754.06 764.878 1763.13 771.97Q1763.67 772.385 1764.19 772.827Q1764.71 773.268 1765.21 773.735Q1765.7 774.202 1766.18 774.693Q1766.65 775.185 1767.1 775.699Q1767.54 776.213 1767.97 776.749Q1768.39 777.284 1768.78 777.841Q1769.18 778.397 1769.54 778.972Q1769.91 779.547 1770.25 780.14Q1770.58 780.732 1770.89 781.341Q1771.2 781.95 1771.47 782.573Q1771.75 783.197 1771.99 783.833Q1772.24 784.469 1772.45 785.117Q1772.67 785.765 1772.85 786.422Q1773.03 787.08 1773.17 787.746Q1773.32 788.411 1773.44 789.084Q1773.55 789.756 1773.63 790.433C1774.82 800.996 1769.48 810.654 1763.08 818.631C1762.25 819.665 1761.32 820.578 1760.32 821.447C1756.53 836.792 1689.62 907.936 1674.64 924.098C1669.2 929.97 1660.02 942.095 1653.57 945.885C1653.27 946.063 1652.96 946.222 1652.64 946.376Q1641.04 946.51 1629.43 946.438C1626.47 946.726 1623.64 946.358 1620.7 946.024C1619.02 943.732 1595.71 928.992 1592.4 927.914L1591.88 926.451C1584.57 921.017 1539.23 884.198 1534.79 882.544C1534.76 882.351 1534.75 882.152 1534.69 881.967C1533.42 878.225 1520.46 867.366 1516.76 865.775C1516.24 861.737 1505.15 853.222 1501.83 849.997C1486.45 835.062 1471.72 819.1 1463.15 799.247C1463.96 796.54 1464.16 794.052 1464.43 791.252Q1464.55 790.115 1464.72 788.986Q1464.9 787.856 1465.13 786.738Q1465.37 785.62 1465.67 784.516Q1465.96 783.413 1466.32 782.327Q1466.68 781.24 1467.09 780.175Q1467.5 779.11 1467.97 778.068Q1468.44 777.026 1468.97 776.011Q1469.49 774.997 1470.07 774.012Q1470.65 773.027 1471.28 772.074Q1471.92 771.122 1472.6 770.205Q1473.28 769.288 1474.01 768.409Q1474.74 767.53 1475.52 766.691Q1476.29 765.853 1477.11 765.057Q1477.94 764.262 1478.8 763.512Q1479.66 762.762 1480.56 762.059Q1481.46 761.357 1482.4 760.704C1485.86 758.342 1489.97 756.803 1493.18 754.123C1493.29 754.032 1493.4 753.937 1493.51 753.844C1504.74 752.546 1515.2 753.614 1524.31 761.182C1524.49 761.333 1524.65 761.511 1524.82 761.676C1534.39 766.389 1580.12 800.208 1583.39 808.384C1583.45 808.514 1583.47 808.655 1583.5 808.791C1587.35 811.793 1593.81 817.78 1595.84 822.238C1598.01 824.13 1601.28 826.528 1602.07 829.416L1604.69 828.142C1610.28 818.653 1615.86 793.689 1619.46 781.835Q1626.6 758.533 1634.95 735.635C1637.64 728.303 1649.84 702.819 1649.19 697.673Z"/>
		<path fill="#203562" transform="scale(0.879121 0.878906)" d="M1699.8 833.74C1702.22 831.32 1703.43 829.55 1706.74 828.573L1708.05 829.38C1707.68 831.801 1706.97 833.225 1704.83 834.718C1704.42 835.002 1703.91 835.254 1703.48 835.485C1702.52 840.195 1678.83 867.975 1674.27 871.309C1673.9 871.581 1673.51 871.776 1673.11 871.999C1672.54 874.924 1669.33 878.449 1666.86 880.062C1666.34 880.404 1665.8 880.683 1665.22 880.919C1664.9 884.584 1656.72 893.52 1653.7 895.909C1653.11 896.375 1652.62 896.577 1651.93 896.857C1651.09 899.697 1650.91 899.68 1648.4 901.313C1648.05 903.469 1647.17 905.053 1645.51 906.469C1644.92 906.971 1644.47 906.71 1643.73 906.646L1642.86 904.394C1643.49 902.803 1644.18 901.25 1644.9 899.698C1646.92 898.035 1648.39 896.867 1649.32 894.305C1654.35 890.578 1661.57 882.028 1664.45 876.477C1666.62 874.457 1668.14 872.875 1669.46 870.167C1676.79 864.115 1695.02 842.12 1699.8 833.74Z"/>
		<path fill="#51BCBA" transform="scale(0.879121 0.878906)" d="M906.332 244.533L1217.69 244.481C1217.94 244.866 1218.06 245.034 1218.27 245.477C1219.49 247.952 1220.43 324.487 1218.96 328.453C1218.62 329.37 1216.67 329.825 1215.77 330.199L906.306 330.307L906.332 244.533Z"/>
		<path fill="#127DBC" transform="scale(0.879121 0.878906)" d="M1432.91 753.585Q1458.79 753.358 1484.67 753.567C1484.5 753.838 1484.33 754.113 1484.16 754.379C1482.13 757.433 1477.2 760.097 1474.33 762.517C1461.86 773.052 1460.09 787.769 1460.75 803.103C1460.78 803.861 1460.79 803.554 1460.69 804.302C1469.41 819.796 1478.97 833.078 1491.7 845.622C1495.63 849.496 1514.09 865.578 1515.57 869.398C1521.01 873.28 1528.05 879.217 1532.28 884.385C1542.96 892.443 1552.94 901.605 1563.5 909.883C1571.62 916.247 1582.29 922.458 1589.26 929.914C1592.02 931.55 1595.12 932.917 1596.5 935.979C1596.94 938.725 1596.46 940.656 1595.73 943.259L1596.26 945.868C1594.15 947.181 1451.44 946.497 1432.51 946.508C1432.9 945.86 1432.91 945.91 1433.21 945.073C1434.62 941.186 1434.19 778.49 1433.37 761.073C1433.28 759.318 1432.98 758.113 1432.11 756.577L1432.91 753.585Z"/>
		<path fill="#127DBC" transform="scale(0.879121 0.878906)" d="M114.628 919.02C117.661 912.625 123.55 907.13 129.682 903.753C133.787 901.493 138.459 899.899 143.141 899.506C154.169 898.582 165.668 899.233 176.75 899.18Q212.552 898.947 248.354 899.221C266.73 899.28 334.308 897.326 347.234 900.951C352.534 903.68 357.494 907.866 362.761 910.2C370.644 921.721 375.251 931.266 372.513 945.64C372.455 945.944 372.39 946.246 372.329 946.549L198.779 946.601C170.189 946.602 140.265 945.06 111.803 946.803C111.744 936.993 111.449 928.442 114.628 919.02Z"/>
		<path fill="#51BCBA" transform="scale(0.879121 0.878906)" d="M334.768 246.601L467.733 246.522L467.968 329.888L334.843 329.707L334.768 246.601Z"/>
		<path fill="#127DBC" transform="scale(0.879121 0.878906)" d="M700.264 129.677L745.977 129.612C746.057 152.749 746.748 176.019 746.241 199.143L700.205 199.121L665.91 199.138L626.495 199.228L626.663 129.673L666.034 129.69L700.264 129.677Z"/>
		<path fill="#127DBC" transform="scale(0.879121 0.878906)" d="M700.264 129.677L745.977 129.612C746.057 152.749 746.748 176.019 746.241 199.143L700.205 199.121Q700.454 164.399 700.264 129.677Z"/>
		<path fill="#57C9FD" transform="scale(0.879121 0.878906)" d="M666.034 129.69L700.264 129.677Q700.454 164.399 700.205 199.121L665.91 199.138C665.223 176.08 666.227 152.786 666.034 129.69Z"/>
		<path fill="#127DBC" transform="scale(0.879121 0.878906)" d="M1518.93 753.493Q1557.22 753.054 1595.52 753.213C1597.5 757.723 1598.04 809.639 1596.09 814.449C1595.79 815.18 1595.46 815.795 1595.03 816.448C1594.24 812.567 1589.84 808.313 1586.68 806.061C1586.21 805.725 1585.75 805.507 1585.22 805.269C1585.16 804.952 1585.07 804.416 1584.92 804.093C1581.67 796.949 1536.89 761.836 1527.82 758.994C1526.16 756.22 1521.9 754.523 1518.93 753.493Z"/>
		<path fill="#E9EBEA" transform="scale(0.879121 0.878906)" d="M1600.4 937.818C1603.62 939.385 1610.33 942.472 1611.95 945.634C1610.82 946.594 1609.25 946.858 1607.81 947.126C1605.74 947.509 1603.52 947.397 1601.9 945.896C1599.65 943.811 1600.39 940.601 1600.4 937.818Z"/>
		<path fill="#203562" transform="scale(0.879121 0.878906)" d="M775.295 619.537C791.245 613.501 808.81 607.32 826.071 607.002L827.969 608.282L828.001 609.624C824.056 612.258 814.992 612.189 810.013 613.284C797.778 615.974 786.634 619.453 775.039 624.193C766.641 627.201 756.414 631.966 749.036 636.938C745.159 639.551 741.995 642.962 737.813 645.149C736.882 645.636 736.419 645.171 735.465 644.857L735.164 643.086C741.096 634 765.48 624.06 775.295 619.537Z"/>
		<path fill="#203562" transform="scale(0.879121 0.878906)" d="M771.609 560.691C775.209 557.2 777.771 554.35 782.772 552.929C782.305 557.978 776.097 562.161 772.449 565.196C765.461 572.336 758.753 579.503 752.379 587.211C749.762 590.445 747.697 593.723 743.737 595.382L742.835 594.573C743.547 591.184 746.056 588.669 748.188 586.058C755.392 577.021 763.047 568.463 771.609 560.691Z"/>
		<path fill="#203562" transform="scale(0.879121 0.878906)" d="M686.749 504.272C688.054 504.996 688.832 505.157 689.332 506.72C690.262 509.628 690.299 623.743 689.778 635.69C689.702 637.427 689.322 638.704 688.481 640.242L688.259 640.093L688.263 639.135L687.249 639.563C685.376 636.147 685.015 514.064 686.749 504.272Z"/>
		<path fill="#203562" transform="scale(0.879121 0.878906)" d="M1253.69 441.799L1255.67 439.908C1263.11 437.983 1296.96 439.315 1306.75 439.287L1467.7 439.28L1540.34 439.282C1551.27 439.305 1563.77 438.235 1574.51 439.835L1577.8 440.473C1579.3 443.696 1577.95 447.64 1577.08 451.009C1573.48 464.933 1568.78 478.713 1564.74 492.527L1535.2 593.727L1517.11 657.401C1514.27 667.368 1512.03 678.382 1508.18 687.944C1507.73 689.057 1506.91 689.983 1506.07 690.819C1507.98 695.103 1508.21 707.718 1506.58 712.048C1506.36 712.633 1506.02 713.182 1505.67 713.699L1392.32 713.82L1395.06 712.627L1394.1 711.734L1394.98 710.294C1385.57 709.707 1375.9 710.15 1366.47 710.142Q1338.96 710.046 1311.45 710.281C1311.48 711.491 1311.63 712.714 1311.28 713.88C1298.14 713.108 1284.6 713.764 1271.43 713.769Q1229.07 713.948 1186.72 713.572C1189.64 709.188 1188.53 695.994 1187.78 690.671C1189.62 687.162 1191.06 682.91 1190.43 678.925C1190.64 678.664 1190.85 678.409 1191.05 678.143C1193.73 674.551 1200.54 649.396 1199.81 644.575C1203.44 639.408 1231.28 534.753 1230.47 529.632C1233.12 525.983 1254.24 446.918 1253.69 441.799Z"/>
		<path fill="#127DBC" transform="scale(0.879121 0.878906)" d="M1190.56 693.618C1294.3 691.761 1398.27 693.027 1502.03 693.25C1504.11 697.031 1504.26 703.806 1502.99 707.923C1502.74 708.741 1502.42 709.262 1501.95 709.975L1432.52 709.956C1420.15 709.958 1407.29 709.318 1394.98 710.294C1385.57 709.707 1375.9 710.15 1366.47 710.142Q1338.96 710.046 1311.45 710.281C1298.61 709.287 1285.37 709.949 1272.47 709.958C1245.22 709.977 1217.93 710.285 1190.68 709.86C1192.65 706.116 1192.63 699.712 1191.55 695.641C1191.34 694.862 1190.99 694.291 1190.56 693.618Z"/>
		<path fill="#FEFEFE" transform="scale(0.879121 0.878906)" d="M1260.47 443.332L1454.15 443.424C1491.79 443.463 1529.79 444.651 1567.39 443.409L1573.63 443.611L1574.17 444.513C1564.57 481.778 1552.6 518.573 1541.98 555.575C1529.79 597.994 1518.69 641.052 1505.45 683.126C1504.77 685.293 1504.24 687.343 1502.57 688.97C1476.23 690.4 1449.19 689.34 1422.78 689.372C1347.49 689.463 1271.9 687.431 1196.66 689.841C1194.89 689.631 1194.82 689.716 1193.6 688.445C1193.83 686.261 1193.91 684.499 1193.39 682.347C1193.35 682.168 1193.3 681.992 1193.26 681.814C1193.82 681.301 1194.33 680.762 1194.8 680.155C1197.32 676.881 1204.58 649.326 1203.96 644.796C1204.51 644.336 1204.59 644.322 1205.04 643.622C1206.64 641.118 1231.94 545.482 1233.99 535.801C1234.4 533.868 1234.61 532.614 1234 530.669C1240.01 525.197 1251.81 459.868 1257.55 446.213C1258.38 444.247 1258.51 444.149 1260.47 443.332Z"/>
		<path fill="#AAE7E3" transform="scale(0.879121 0.878906)" d="M1252.08 578.221C1263.53 576.622 1276.44 578.165 1288.08 578.269C1305.13 578.422 1322.41 577.595 1339.41 578.716C1339.36 578.864 1339.31 579.016 1339.24 579.161C1337.11 583.98 1290.36 614.572 1284.72 617.062C1289.71 620.076 1308.53 642.428 1309.89 647.89C1310.1 647.689 1310.31 647.496 1310.51 647.287C1314.41 643.104 1325.61 606.944 1325.59 601.08C1326.17 602.409 1327.26 604.392 1327.2 605.825C1326.89 612.519 1314.53 648.164 1310.4 652.351C1309.58 648.49 1306.2 645.375 1303.11 643.138C1303.07 642.912 1303.04 642.684 1302.98 642.46C1302.06 638.333 1286.51 620.276 1282.78 617.844C1280.38 622.172 1243.08 646.406 1236.76 648.78C1249.44 635.705 1246.64 612.521 1256.11 597.506L1256.9 597.776C1256.35 605.253 1247.11 637 1242.21 641.792C1242 641.994 1241.79 642.192 1241.58 642.391C1247.97 639.908 1277.88 621.093 1281.09 615.972C1280.27 609.369 1256.92 586.388 1252.08 578.221Z"/>
		<path fill="#FEFEFE" transform="scale(0.879121 0.878906)" d="M1256.67 580.886C1264.71 579.422 1274.63 580.334 1282.85 580.348L1334.12 580.5C1332.11 584.955 1318.8 592.164 1314.16 594.221C1311.5 598.231 1288.6 612.566 1283.29 615.039C1283.04 610.63 1261.06 585.611 1256.67 580.886Z"/>
		<path fill="#AAE7E3" transform="scale(0.879121 0.878906)" d="M1290.16 473.332C1304.27 471.736 1319.54 472.937 1333.77 472.895C1353.47 472.835 1374.28 471.461 1393.85 473.497C1380.71 477.229 1361.34 474.909 1347.23 474.963C1328.64 475.034 1310.07 475.418 1291.47 475.293C1291.78 476.061 1292.02 476.572 1291.98 477.418C1291.72 482.811 1287.67 495.457 1284.14 499.296C1289.06 502.069 1301.92 517.854 1303.93 522.861C1316.68 518.48 1347.68 488.809 1357.39 486.494L1357.77 487.565C1355.22 491.682 1319.94 516.615 1313.58 519.555C1311.76 522.23 1308.88 523.426 1306.04 524.7C1306.93 525.443 1307.83 526.213 1308.63 527.05C1317.88 536.72 1326.02 548.212 1334.42 558.674C1337.91 563.02 1342.32 567.006 1345.41 571.609C1346.4 573.068 1346.88 574.011 1346.82 575.774C1341.4 574.788 1312.87 532.599 1303.92 526.398C1303.77 526.291 1303.61 526.193 1303.45 526.09C1301.1 531.434 1269.66 552.379 1263.47 555.038C1263.58 554.869 1263.69 554.702 1263.8 554.531C1263.98 554.247 1264.15 553.955 1264.32 553.67C1268.12 547.598 1282.37 505.406 1281.26 499.893C1280.63 493.416 1266.85 484.252 1265.36 476.917Q1267.35 478.436 1269.14 480.18C1272.55 483.499 1282.34 492.606 1282.34 497.257C1286.19 492.859 1290.23 479.13 1290.16 473.332Z"/>
		<path fill="#FEFEFE" transform="scale(0.879121 0.878906)" d="M1283.16 503.549C1284.47 503.497 1285.28 503.857 1286.48 504.324C1291.41 509.806 1299.54 517.741 1302.04 524.497C1300.66 527.981 1284.25 538.094 1280.37 539.993C1277.6 543.742 1272.46 546.413 1268.22 548.205C1268.75 547.687 1269.01 547.479 1269.42 546.912C1272.68 542.431 1283.75 508.723 1283.16 503.549Z"/>
		<path fill="#203562" transform="scale(0.879121 0.878906)" d="M677.869 762.876C679.511 763.448 680.035 763.932 681.156 765.264C682.455 785.63 681.481 806.651 681.452 827.09C681.431 841.24 683.043 857.677 680.546 871.518C679.235 871.239 678.522 870.692 677.449 869.933C675.5 850.756 677.169 829.991 677.207 810.656C677.237 795.901 675.476 777.219 677.869 762.876Z"/>
		<path fill="#127DBC" transform="scale(0.879121 0.878906)" d="M702.057 876.354C703.562 876.258 705.087 876.187 706.59 876.362C709.562 876.71 712.169 878.11 713.921 880.578C715.316 882.543 715.743 884.661 715.329 887.026C714.631 891.006 712.328 892.823 709.258 895.012C705.588 895.145 701.721 894.918 698.829 892.381C697.068 890.834 696.064 888.709 696.101 886.352C696.171 881.869 699.007 879.15 702.057 876.354Z"/>
		<path fill="#127DBC" transform="scale(0.879121 0.878906)" d="M639.041 878.049L639.786 878.226C643.179 879.057 645.976 880.457 647.735 883.668C648.806 885.625 648.968 887.767 648.135 889.846C646.927 892.857 644.467 894.016 641.726 895.286C640.567 895.223 639.418 895.067 638.275 894.871C635.813 894.449 633.821 893.371 632.483 891.199C631.32 889.31 631.193 887.205 631.862 885.115C633.071 881.333 635.795 879.825 639.041 878.049Z"/>
		<path fill="#203562" transform="scale(0.879121 0.878906)" d="M657.662 740.809L659.387 741.742C662.019 746.144 660.749 780.001 659.962 786.568L657.722 785.341C654.994 779.547 655.985 747.467 657.662 740.809Z"/>
		<path fill="#127DBC" transform="scale(0.879121 0.878906)" d="M745.49 889.662C747.221 890.05 749.44 890.669 750.836 891.789C752.313 892.975 753.053 894.438 753.14 896.288C753.292 899.499 750.771 901.92 748.746 904.087C746.136 903.599 743.235 903.181 741.463 900.967C740.06 899.215 739.605 897.413 740.147 895.217C740.802 892.561 743.359 891.047 745.49 889.662Z"/>
		<path fill="#203562" transform="scale(0.879121 0.878906)" d="M700.227 739.673L702.6 740.412C705.868 744.514 703.88 759.466 703.62 765.036L701.482 764.455C697.946 760.36 699.965 745.481 700.227 739.673Z"/>
		<path fill="#203562" transform="scale(0.879121 0.878906)" d="M657.746 804.161C658.432 804.458 658.884 804.687 659.328 805.312C662.081 809.19 660.623 822.781 659.932 827.634C658.826 827.042 657.783 826.732 657.232 825.504C655.392 821.404 656.106 808.409 657.746 804.161Z"/>
		<path fill="#203562" transform="scale(0.879121 0.878906)" d="M657.578 844.781C658.625 845.218 659.219 845.982 659.984 846.792C661.019 852.626 660.852 858.867 659.779 864.692C658.471 864.088 657.998 863.596 657.132 862.501C656.178 856.599 656.48 850.644 657.578 844.781Z"/>
		<path fill="#203562" transform="scale(0.879121 0.878906)" d="M700.121 784.24C701.535 784.646 702.108 785.146 703.162 786.113C704.609 790.113 703.783 794.892 703.491 799.07L700.681 797.81C698.333 793.803 699.575 788.617 700.121 784.24Z"/>
		<path fill="#232052" transform="scale(0.879121 0.878906)" d="M701.17 816.528L703.336 818.194C704.554 822.616 704.368 826.81 702.612 831.069C700.563 829.136 700.004 828.579 699.538 825.813C699.025 822.77 699.399 819.099 701.17 816.528Z"/>
		<path fill="#51BCBA" transform="scale(0.879121 0.878906)" d="M818.39 718.447C833.728 717.945 850.339 717.305 865.603 718.423C861.37 718.597 857.136 718.812 852.899 718.767C852.886 775.466 853.903 832.387 852.922 889.063L853.15 893.095L853.185 946.75L832.712 946.734Q833.379 832.714 832.675 718.695C827.898 718.774 823.162 718.641 818.39 718.447Z"/>
		<path fill="#203562" transform="scale(0.879121 0.878906)" d="M602.448 625.049C589.315 619.47 577.064 614.984 562.867 612.87C556.795 611.966 549.255 612.565 543.56 610.586C542.809 610.325 542.733 609.576 542.411 608.886L543.436 607.626C555.943 604.229 588.355 614.687 600.671 619.787C608.192 623.602 634.814 636.378 637.428 643.499C637.672 644.163 637.708 644.661 637.731 645.364C635.472 645.826 631.302 642.289 629.228 640.919C620.578 635.205 611.807 629.556 602.448 625.049Z"/>
		<path fill="#203562" transform="scale(0.879121 0.878906)" d="M653.547 490.457L654.844 485.955Q655.598 487.809 656.417 489.635C657.389 500.084 658.087 588.292 656.207 590.939C655.209 590.977 654.625 591.048 653.675 590.693C652.044 581.613 652.02 498.483 653.547 490.457Z"/>
		<path fill="#203562" transform="scale(0.879121 0.878906)" d="M719.842 484.557L723.132 485.306C724.169 496.045 723.583 507.163 723.545 517.954C723.466 540.29 722.937 562.706 723.512 585.033L722.847 588.299L721.621 589.033L720.06 587.742C718.733 575.74 719.706 562.946 719.76 550.832L719.842 484.557Z"/>
		<path fill="#203562" transform="scale(0.879121 0.878906)" d="M621.888 590.896C617.906 586.014 593.721 563.032 593.158 560.415C593.022 559.783 593.214 559.123 593.241 558.478C595.016 558.096 595.044 558.191 596.582 559.184C607.517 566.238 620.259 583.068 629.099 593.117C630.689 595.312 632.345 597.348 632.974 600.041L632.084 600.866C627.962 598.375 625.002 594.5 621.888 590.896Z"/>
	</g>
	<g>
		<path fill="#FEFEFE" transform="scale(0.879121 0.878906)" d="M0 0L1818.44 0C1820.58 3.35778 1819.99 8.22266 1820 12.0828L1820 742.336L1820.01 943.951L1820 997.417C1819.99 1004.76 1820.98 1013.76 1819.75 1020.9C1819.56 1022.02 1819.05 1023.05 1818.44 1024L0 1024L0 0ZM622.456 199.272L597.119 199.266L513.386 199.224C498.524 199.205 483.152 198.367 468.356 199.495Q468.187 220.974 468.237 242.451L334.62 242.587L334.613 200.148L258.208 200.09C244.472 200.086 156.122 198.63 150.19 200.611C149.614 200.803 148.506 201.737 147.999 202.14C147.944 202.183 147.904 202.243 147.857 202.295C149.096 226.556 148.242 251.22 148.254 275.522L147.903 428.685L148.284 895.033C136.508 895.649 125.707 898.606 117.516 907.727C114.79 910.764 112.27 914.38 110.867 918.243L110.443 918.141C107.167 927.362 107.067 936.085 107.598 945.747C99.0154 950.102 70.6514 943.322 62.5927 947.436L62.2979 948.882C62.71 949.109 63.0865 949.345 63.5289 949.503C70.6959 952.063 197.256 950.471 216.451 950.433L461.91 950.739L1271.34 950.401L1582.35 950.271C1637.15 950.253 1692.22 951.429 1746.99 950.152C1750.72 950.065 1754.67 950.304 1758.09 948.627C1755.59 946.405 1749.79 946.138 1746.52 945.909C1738.6 945.354 1730.18 946.081 1722.2 946.063Q1690.09 946.009 1657.99 946.321C1659.15 945.731 1660.12 945.067 1661.13 944.226C1674.46 933.071 1762.79 835.836 1763.98 823.069C1764.54 822.807 1764.72 822.758 1765.27 822.305C1772.88 815.948 1777.68 804.209 1777.83 794.466C1777.96 785.596 1774.73 777.467 1768.42 771.202C1759.92 762.758 1750.32 760.906 1738.87 760.966C1744.43 744.024 1750.37 726.512 1754.41 709.148C1756.5 700.201 1758.1 691.023 1759.31 681.919C1765.63 634.666 1760.34 593.45 1712.89 571.731C1698.75 565.259 1683.21 561.609 1670.48 552.296C1658.03 543.186 1651.34 530.268 1648.64 515.306C1644.92 494.689 1646.67 473.85 1648.33 453.124C1656.08 356.237 1687.9 284.83 1630.83 193.194C1597.4 139.531 1536.1 103.244 1475.56 89.3446C1351.38 60.8324 1240.06 138.047 1136.65 194.791Q1112.18 208.38 1086.88 220.357C1073.67 226.582 1059.27 232.188 1046.89 239.936C1031.92 241.197 1016.01 240.149 1000.91 240.169L905.942 240.206C905.581 226.599 905.72 212.939 905.621 199.325C887.749 198.758 869.711 199.232 851.822 199.238L750.408 199.278C750.022 174.737 750.477 150.116 750.471 125.566C707.846 125.085 665.17 125.398 622.543 125.581C621.081 149.825 622.382 174.946 622.456 199.272ZM629.099 593.117C620.259 583.068 607.517 566.238 596.582 559.184C595.044 558.191 595.016 558.096 593.241 558.478C593.214 559.123 593.022 559.783 593.158 560.415C593.721 563.032 617.906 586.014 621.888 590.896C611.736 597.351 604.423 602.773 601.612 615.191Q601.091 617.479 600.671 619.787C588.355 614.687 555.943 604.229 543.436 607.626L542.411 608.886C542.733 609.576 542.809 610.325 543.56 610.586C549.255 612.565 556.795 611.966 562.867 612.87C577.064 614.984 589.315 619.47 602.448 625.049C600.58 629.526 600.988 636.059 602.431 640.585C603.645 641.903 604.626 642.197 606.33 642.674L606.472 645.102L604.787 646.227C602.873 646.88 601.126 646.991 600.179 648.958C599.079 651.245 599.835 656.461 599.921 659.064L334.907 659.399L334.7 334.165L468.156 334.017L468.287 363.476L590.678 363.416C590.695 371.462 589.719 427.806 592.038 430.472C603.607 442.45 617.922 458.874 630.904 468.67C630.809 473.536 630.25 478.902 631.286 483.67C636.963 487.464 651.78 479.642 653.292 488.268C653.419 488.989 653.475 489.73 653.547 490.457C652.02 498.483 652.044 581.613 653.675 590.693C648.75 588.803 636.781 588.981 631.852 591.021C630.693 591.501 629.826 592.073 629.099 593.117Z"/>
		<path fill="#E9EBEA" transform="scale(0.879121 0.878906)" d="M340.126 698.695L357.244 698.792C357.229 703.895 356.419 710.979 357.83 715.783Q365.805 716.157 373.789 716.057L374.079 855.332L374.147 899.261C374.144 906.011 374.677 913.34 373.938 920.034C370.288 913.437 365.435 907.602 359.364 903.133C356.738 900.322 352.198 898.549 348.576 897.479C344.814 895.202 339.112 895.484 334.821 895.28C334.746 830.449 333.809 765.469 334.806 700.653C336.37 698.706 337.777 699.005 340.126 698.695Z"/>
		<path fill="#E9EBEA" transform="scale(0.879121 0.878906)" d="M395.177 893.459L393.931 892.373L394.094 890.54C400.302 887.927 493.465 889.546 507.875 889.555L508.854 890.731C508.32 891.858 507.966 893 506.806 893.609C505.37 911.008 506.485 929.248 506.523 946.722C469.568 947.45 432.474 946.854 395.504 946.836C395.538 929.295 396.693 910.919 395.177 893.459Z"/>
		<path fill="#203562" transform="scale(0.879121 0.878906)" d="M395.177 893.459L393.931 892.373L394.094 890.54C400.302 887.927 493.465 889.546 507.875 889.555L508.854 890.731C508.32 891.858 507.966 893 506.806 893.609C469.765 892.262 432.251 893.259 395.177 893.459Z"/>
		<path fill="#E9EBEA" transform="scale(0.879121 0.878906)" d="M488.803 698.932C490.846 703.039 489.656 711.188 489.624 715.883L503.979 716.273L506.53 716.349C506.713 734.522 507.661 885.228 505.727 888.714C503.551 888.858 501.426 888.994 499.243 888.896C464.935 890.314 430.011 888.967 395.622 889.116L395.335 761.124C395.323 751.62 393.788 724.259 395.792 716.722L398.199 715.607L411.123 715.703C411.032 709.882 410.981 704.12 411.337 698.304C417.762 700.926 477.168 699.154 488.803 698.932Z"/>
		<path fill="#E9EBEA" transform="scale(0.879121 0.878906)" d="M1046.89 239.936C1059.27 232.188 1073.67 226.582 1086.88 220.357Q1112.18 208.38 1136.65 194.791C1240.06 138.047 1351.38 60.8324 1475.56 89.3446C1536.1 103.244 1597.4 139.531 1630.83 193.194C1687.9 284.83 1656.08 356.237 1648.33 453.124C1646.67 473.85 1644.92 494.689 1648.64 515.306C1651.34 530.268 1658.03 543.186 1670.48 552.296C1683.21 561.609 1698.75 565.259 1712.89 571.731C1760.34 593.45 1765.63 634.666 1759.31 681.919C1758.1 691.023 1756.5 700.201 1754.41 709.148C1750.37 726.512 1744.43 744.024 1738.87 760.966C1736.04 762.036 1733.11 762.742 1730.19 763.508C1721.06 766.965 1712.82 774.867 1705.27 777.443C1706.78 771.978 1713.68 766.579 1713.06 760.773C1713.78 760.342 1714.29 760.033 1714.87 759.412C1717.57 756.489 1722.67 748.168 1722.61 744.141C1728.61 740.38 1738.75 710.701 1740.87 703.062C1744.77 688.972 1745.32 674.41 1737.77 661.335C1733.58 654.079 1726.64 647.513 1718.38 645.355C1714.99 641.94 1708.13 641.666 1703.59 641.633C1691.49 641.546 1681.52 645.809 1673.02 654.393C1662.29 665.231 1657.42 678.901 1648.64 690.796C1642.87 705.51 1635.77 719.54 1630.43 734.484C1627.55 742.532 1603.76 820.363 1602.15 821.656L1599.66 821.373C1601.71 814.989 1601.71 755.992 1599.4 749.82C1588.73 747.671 1554.04 749.395 1540.55 749.423L1399.13 749.577C1397.18 749.568 1395.58 749.714 1393.87 748.664C1389.47 740.69 1393.66 723.92 1392.42 714.539L1392.32 713.82L1505.67 713.699C1506.02 713.182 1506.36 712.633 1506.58 712.048C1508.21 707.718 1507.98 695.103 1506.07 690.819C1506.91 689.983 1507.73 689.057 1508.18 687.944C1512.03 678.382 1514.27 667.368 1517.11 657.401L1535.2 593.727L1564.74 492.527C1568.78 478.713 1573.48 464.933 1577.08 451.009C1577.95 447.64 1579.3 443.696 1577.8 440.473L1574.51 439.835C1563.77 438.235 1551.27 439.305 1540.34 439.282L1467.7 439.28L1306.75 439.287C1296.96 439.315 1263.11 437.983 1255.67 439.908L1253.69 441.799C1254.24 446.918 1233.12 525.983 1230.47 529.632C1231.28 534.753 1203.44 639.408 1199.81 644.575C1200.54 649.396 1193.73 674.551 1191.05 678.143C1190.85 678.409 1190.64 678.664 1190.43 678.925C1191.06 682.91 1189.62 687.162 1187.78 690.671C1188.53 695.994 1189.64 709.188 1186.72 713.572Q1229.07 713.948 1271.43 713.769C1284.6 713.764 1298.14 713.108 1311.28 713.88C1313.9 718.221 1313.59 740.96 1312.49 746.635C1312.28 747.741 1311.78 748.769 1311.19 749.715L1128.37 749.726C1103.37 749.803 1077.55 748.388 1052.63 749.802C1050 749.951 1049.38 750.29 1047.28 751.769C1049.19 757.393 1048.31 942.46 1046.97 945.357C1046.76 945.826 1046.5 946.278 1046.27 946.739L985.614 946.751L965.405 946.736L853.185 946.75L853.15 893.095L852.922 889.063C853.903 832.387 852.886 775.466 852.899 718.767C857.136 718.812 861.37 718.597 865.603 718.423C867.255 718.448 868.762 718.217 870.387 717.937C873.974 714.428 871.679 704.576 872.391 699.604L872.518 698.761C881.045 700.233 890.643 699.456 899.298 699.441L948.091 699.356L948.45 718.257L965.014 718.455C975.711 718.537 986.934 717.591 997.537 718.434L999.784 718.305C1004.11 715.126 1001.01 704.81 1002.45 699.629C1010.71 698.742 1019.6 699.363 1027.94 699.355C1028.41 698.448 1028.8 697.613 1029.1 696.631C1030.48 691.976 1030.31 662.424 1028.21 658.871C968.016 660.335 907.496 658.648 847.254 658.897L755.987 659.374C738.377 659.418 720.482 659.954 702.924 658.811C668.739 660.16 634.17 658.55 599.921 659.064C599.835 656.461 599.079 651.245 600.179 648.958C601.126 646.991 602.873 646.88 604.787 646.227L606.472 645.102L606.33 642.674C604.626 642.197 603.645 641.903 602.431 640.585C600.988 636.059 600.58 629.526 602.448 625.049C611.807 629.556 620.578 635.205 629.228 640.919C631.302 642.289 635.472 645.826 637.731 645.364C637.708 644.661 637.672 644.163 637.428 643.499C634.814 636.378 608.192 623.602 600.671 619.787Q601.091 617.479 601.612 615.191C604.423 602.773 611.736 597.351 621.888 590.896C625.002 594.5 627.962 598.375 632.084 600.866L632.974 600.041C632.345 597.348 630.689 595.312 629.099 593.117C629.826 592.073 630.693 591.501 631.852 591.021C636.781 588.981 648.75 588.803 653.675 590.693C654.625 591.048 655.209 590.977 656.207 590.939C658.087 588.292 657.389 500.084 656.417 489.635C656.523 487.819 656.793 486.561 657.495 484.878C672.968 482.701 703.196 484.472 719.842 484.557L719.76 550.832C719.706 562.946 718.733 575.74 720.06 587.742L721.621 589.033L722.847 588.299L723.512 585.033C722.937 562.706 723.466 540.29 723.545 517.954C723.583 507.163 724.169 496.045 723.132 485.306C728.513 483.4 736.797 484.391 742.585 484.433C742.649 479.777 742.681 475.248 742.12 470.612C749.008 459.522 771.896 440.84 781.984 429.79C780.258 410.367 781.841 383.643 781.903 363.522L906.228 363.312L906.312 334.247L1222.03 334.152C1222.49 333.376 1222.97 332.569 1223.21 331.69C1224.75 325.963 1224.1 255.127 1223.5 244.552C1223.42 243.073 1222.97 241.806 1222.33 240.478C1206.52 238.769 1189 240.187 1173.05 240.212C1131.14 240.279 1088.75 241.658 1046.89 239.936ZM775.039 624.193C786.634 619.453 797.778 615.974 810.013 613.284C814.992 612.189 824.056 612.258 828.001 609.624L827.969 608.282L826.071 607.002C808.81 607.32 791.245 613.501 775.295 619.537C765.48 624.06 741.096 634 735.164 643.086L735.465 644.857C736.419 645.171 736.882 645.636 737.813 645.149C741.995 642.962 745.159 639.551 749.036 636.938C756.414 631.966 766.641 627.201 775.039 624.193ZM748.188 586.058C746.056 588.669 743.547 591.184 742.835 594.573L743.737 595.382C747.697 593.723 749.762 590.445 752.379 587.211C758.753 579.503 765.461 572.336 772.449 565.196C776.097 562.161 782.305 557.978 782.772 552.929C777.771 554.35 775.209 557.2 771.609 560.691C763.047 568.463 755.392 577.021 748.188 586.058ZM688.481 640.242C689.322 638.704 689.702 637.427 689.778 635.69C690.299 623.743 690.262 509.628 689.332 506.72C688.832 505.157 688.054 504.996 686.749 504.272C685.015 514.064 685.376 636.147 687.249 639.563L688.263 639.135L688.259 640.093L688.481 640.242Z"/>
		<path fill="#E9EBEA" transform="scale(0.879121 0.878906)" d="M872.518 698.761C881.045 700.233 890.643 699.456 899.298 699.441L948.091 699.356L948.45 718.257L965.014 718.455C965.781 736.163 965.284 754.05 965.277 771.777C965.262 810.89 964.834 850.07 965.411 889.176C946.978 889.019 928.229 888.193 909.825 889.103L852.922 889.063C853.903 832.387 852.886 775.466 852.899 718.767C857.136 718.812 861.37 718.597 865.603 718.423C867.255 718.448 868.762 718.217 870.387 717.937C873.974 714.428 871.679 704.576 872.391 699.604L872.518 698.761Z"/>
		<path fill="#FEFEFE" transform="scale(0.879121 0.878906)" d="M656.417 489.635C656.523 487.819 656.793 486.561 657.495 484.878C672.968 482.701 703.196 484.472 719.842 484.557L719.76 550.832C719.706 562.946 718.733 575.74 720.06 587.742L721.621 589.033L722.847 588.299L723.512 585.033C726.48 582.59 730.361 583.152 734.076 583.528C738.81 584.007 743.531 585.098 748.188 586.058C746.056 588.669 743.547 591.184 742.835 594.573L743.737 595.382C747.697 593.723 749.762 590.445 752.379 587.211C762.93 597.513 769.525 605.883 775.295 619.537C765.48 624.06 741.096 634 735.164 643.086L735.465 644.857C736.419 645.171 736.882 645.636 737.813 645.149C741.995 642.962 745.159 639.551 749.036 636.938C756.414 631.966 766.641 627.201 775.039 624.193C777.194 628.664 776.109 636.316 774.662 640.895C773.321 642.205 772.146 642.389 770.344 642.757L768.736 644.066C769.016 644.786 769.178 645.485 769.716 646.051C771.478 647.05 772.634 647.211 773.084 649.318C773.595 651.708 772.36 655.866 771.981 658.366L727.267 658.265C719.462 658.262 710.611 657.592 702.924 658.811C668.739 660.16 634.17 658.55 599.921 659.064C599.835 656.461 599.079 651.245 600.179 648.958C601.126 646.991 602.873 646.88 604.787 646.227L606.472 645.102L606.33 642.674C604.626 642.197 603.645 641.903 602.431 640.585C600.988 636.059 600.58 629.526 602.448 625.049C611.807 629.556 620.578 635.205 629.228 640.919C631.302 642.289 635.472 645.826 637.731 645.364C637.708 644.661 637.672 644.163 637.428 643.499C634.814 636.378 608.192 623.602 600.671 619.787Q601.091 617.479 601.612 615.191C604.423 602.773 611.736 597.351 621.888 590.896C625.002 594.5 627.962 598.375 632.084 600.866L632.974 600.041C632.345 597.348 630.689 595.312 629.099 593.117C629.826 592.073 630.693 591.501 631.852 591.021C636.781 588.981 648.75 588.803 653.675 590.693C654.625 591.048 655.209 590.977 656.207 590.939C658.087 588.292 657.389 500.084 656.417 489.635ZM688.481 640.242C689.322 638.704 689.702 637.427 689.778 635.69C690.299 623.743 690.262 509.628 689.332 506.72C688.832 505.157 688.054 504.996 686.749 504.272C685.015 514.064 685.376 636.147 687.249 639.563L688.263 639.135L688.259 640.093L688.481 640.242Z"/>
		<path fill="#E9EBEA" transform="scale(0.879121 0.878906)" d="M852.922 889.063L909.825 889.103C919.192 889.531 960.471 888.022 965.818 890.591L965.919 892.905C963.279 907.952 965.244 930.821 965.405 946.736L853.185 946.75L853.15 893.095L852.922 889.063Z"/>
		<path fill="#203562" transform="scale(0.879121 0.878906)" d="M852.922 889.063L909.825 889.103C919.192 889.531 960.471 888.022 965.818 890.591L965.919 892.905C953.56 894.254 940.079 893.229 927.628 893.213L853.15 893.095L852.922 889.063Z"/>
		<path fill="#51BCBA" transform="scale(0.879121 0.878906)" d="M965.014 718.455C975.711 718.537 986.934 717.591 997.537 718.434Q991.563 718.649 985.587 718.755C985.812 794.711 984.501 870.822 985.614 946.751L965.405 946.736C965.244 930.821 963.279 907.952 965.919 892.905L965.818 890.591C960.471 888.022 919.192 889.531 909.825 889.103C928.229 888.193 946.978 889.019 965.411 889.176C964.834 850.07 965.262 810.89 965.277 771.777C965.284 754.05 965.781 736.163 965.014 718.455Z"/>
		<path fill="#203562" transform="scale(0.879121 0.878906)" d="M770.344 642.757C777.531 642.643 789.916 640.973 796.39 643.676L796.861 644.809L796.15 643.546L795.967 645.644C790.353 648.064 775.954 647.158 769.716 646.051C769.178 645.485 769.016 644.786 768.736 644.066L770.344 642.757Z"/>
		<path fill="#FEFEFE" transform="scale(0.879121 0.878906)" d="M1420.81 163.999C1434.62 163.706 1452.42 164.625 1465.31 169.999C1467.73 177.303 1461.39 187.588 1463.46 195.847C1465.88 205.509 1476.09 207.457 1483.42 212.055C1483.56 212.141 1483.7 212.231 1483.84 212.319C1493.11 209.998 1502.07 202.161 1508.46 195.29C1514.02 199.3 1536.94 223.286 1538.72 229.077C1536.18 238.17 1520.06 240.787 1517.59 251.563C1516.31 257.139 1518.42 266.556 1521.87 271.062C1523.56 273.274 1526.01 275.026 1527.42 277.411C1527.59 277.694 1527.75 277.984 1527.91 278.27C1536.53 278.703 1545.26 278.29 1553.89 278.154C1554.53 279.134 1555.07 280.2 1555.27 281.363C1556.37 287.62 1556.42 320.171 1553.71 324.449C1544.68 326.187 1534.06 325.315 1524.82 325.512C1522.45 329.643 1516.42 331.788 1514.01 337.478C1505.51 357.532 1526.77 355.922 1531.41 368.811C1531.46 368.948 1531.49 369.089 1531.54 369.228C1531.48 369.56 1531.45 369.898 1531.37 370.225C1529.52 377.728 1508.04 395.847 1501.14 400.16C1500.92 399.005 1500.3 398.195 1499.57 397.294C1494.82 391.362 1485.22 383.479 1477.51 382.688C1467.37 381.648 1459.95 389.436 1452.8 395.286C1453.06 395.779 1453.33 396.324 1453.48 396.861C1455.07 402.681 1454.22 419.494 1451.57 424.688Q1419.67 425.444 1387.77 425.003C1394.34 416.351 1390.48 401.96 1394.89 392.676C1396.78 388.686 1401.13 386.694 1405.13 385.483C1411.33 383.609 1436.28 380.102 1441.24 382.825L1441.39 384.423C1437.62 387.571 1413.08 387.113 1405.94 388.866C1403.38 389.495 1400.64 390.416 1399.13 392.728C1395.77 397.862 1396.9 413.749 1392.38 421.188C1410.41 421.147 1429.55 422.762 1447.46 420.89C1450.74 417.82 1449.3 404.059 1450.43 399.059C1452 392.138 1456.27 385.501 1462.43 381.829C1468.13 378.435 1475.43 377.951 1481.77 379.601C1488.92 381.461 1497.74 388.514 1501.5 394.88C1502.31 394.485 1503.01 394.089 1503.73 393.544C1508.87 389.62 1525.41 375.294 1526.22 369.649C1524.37 364.911 1516.99 360.761 1513.23 357.249C1510 354.235 1508.27 350.895 1508.15 346.424C1507.98 340.178 1510.28 333.218 1514.64 328.677C1523.4 319.563 1538.4 321.107 1550.01 320.958C1550.33 320.33 1550.63 319.751 1550.86 319.085C1552.49 314.46 1552.37 286.81 1550.21 282.219Q1538.55 281.907 1526.89 281.726C1526.51 280.994 1526.74 281.279 1526.08 280.694C1519.08 274.531 1513.61 266.991 1512.69 257.385C1511.39 243.779 1525.54 238.51 1532.66 229.747C1532.78 229.596 1532.9 229.441 1533.02 229.288L1532.82 228.223C1526.83 220.669 1515.85 205.05 1507.68 200.549C1507.56 201.03 1507.57 201.118 1507.28 201.613C1504.41 206.569 1493.9 213.574 1488.52 214.767C1481.91 216.231 1473.85 212.285 1468.38 208.799C1451.92 198.321 1464.07 185.797 1460.85 173.36C1460.81 173.196 1460.75 173.035 1460.7 172.873C1448.85 169.27 1435.69 168.561 1423.38 168.008C1423.54 168.517 1423.6 168.642 1423.69 169.135C1424.66 174.905 1421.33 187.473 1417.84 192.11C1411.99 199.892 1400.07 200.004 1391.31 201.237C1388.09 198.191 1382.91 197.35 1379.64 193.706C1375.04 188.591 1372.93 180.006 1367.38 175.979C1359.92 181.926 1345.32 187.953 1336.23 191.569L1334.85 190.743L1334.76 188.745C1339.2 183.083 1361.83 176.902 1369.07 171.589C1369.33 171.397 1369.58 171.197 1369.84 171.002C1376.01 176.181 1376.64 186.041 1382.6 191.59C1384.9 193.727 1388.25 195.165 1390.88 196.926C1398.52 196.292 1409.01 195.677 1414.49 189.634C1419.86 183.714 1421.12 171.678 1420.81 163.999Z"/>
		<path fill="#FEFEFE" transform="scale(0.879121 0.878906)" d="M1310.45 192.443C1316.61 191.989 1322.54 191.535 1328.59 193.216C1338.32 195.92 1351.34 205.461 1356.14 214.418C1356.54 215.171 1356.03 215.862 1355.78 216.643C1344.16 213.075 1340.03 195.507 1317.63 195.48Q1316.8 195.475 1315.98 195.512Q1315.15 195.549 1314.33 195.627Q1313.51 195.706 1312.69 195.826Q1311.88 195.947 1311.07 196.108Q1310.26 196.27 1309.45 196.472Q1308.65 196.674 1307.86 196.917Q1307.07 197.16 1306.3 197.442Q1305.52 197.725 1304.76 198.046Q1304 198.368 1303.26 198.727Q1302.51 199.087 1301.79 199.484Q1301.06 199.88 1300.36 200.314Q1299.66 200.747 1298.98 201.215Q1298.3 201.683 1297.64 202.185Q1296.98 202.687 1296.36 203.222Q1295.73 203.756 1295.12 204.322Q1294.52 204.888 1293.95 205.484Q1293.33 206.122 1292.74 206.79Q1292.15 207.458 1291.59 208.155Q1291.04 208.851 1290.52 209.574Q1290 210.297 1289.52 211.045Q1289.03 211.793 1288.58 212.564Q1288.14 213.335 1287.73 214.127Q1287.32 214.919 1286.96 215.731Q1286.59 216.542 1286.26 217.371Q1285.93 218.199 1285.65 219.043Q1285.36 219.886 1285.12 220.743Q1284.87 221.6 1284.67 222.468Q1284.47 223.336 1284.31 224.213Q1284.16 225.089 1284.04 225.973Q1283.93 226.856 1283.86 227.744Q1283.79 228.632 1283.76 229.523Q1283.73 230.413 1283.75 231.304Q1283.82 233.384 1284.12 235.444Q1284.43 237.503 1284.97 239.514Q1285.5 241.525 1286.26 243.463Q1287.02 245.4 1288 247.239C1292.64 256.095 1308.75 274.512 1316.27 281.513C1320.32 285.276 1325.11 287.922 1330.79 287.608C1336.34 287.302 1341.31 284.359 1344.92 280.235C1349.66 274.833 1358.43 252.305 1358.08 245.488C1357.91 240.136 1350.71 236.814 1348.7 232.224C1348.02 230.682 1348.47 230.266 1349.14 228.878L1350.82 228.628C1353.95 231.875 1360.35 237.232 1361.21 241.701C1370.23 237.56 1377.52 228.845 1388.09 224.323Q1389.04 223.912 1390 223.524Q1390.97 223.137 1391.94 222.773Q1392.91 222.41 1393.89 222.07Q1394.87 221.731 1395.86 221.416Q1396.85 221.101 1397.84 220.81Q1398.84 220.52 1399.84 220.254Q1400.85 219.989 1401.85 219.748Q1402.86 219.507 1403.88 219.292Q1404.89 219.076 1405.91 218.885Q1406.93 218.695 1407.96 218.53Q1408.98 218.365 1410.01 218.225Q1411.04 218.085 1412.07 217.971Q1413.1 217.857 1414.13 217.768Q1415.17 217.68 1416.2 217.616Q1417.24 217.553 1418.27 217.516Q1419.31 217.479 1420.35 217.467Q1421.38 217.456 1422.42 217.47Q1423.46 217.484 1424.5 217.523Q1425.53 217.563 1426.57 217.629Q1427.6 217.694 1428.64 217.785Q1429.67 217.876 1430.7 217.993Q1431.73 218.109 1432.76 218.251Q1433.79 218.393 1434.81 218.561Q1435.83 218.728 1436.85 218.921Q1437.87 219.114 1438.89 219.332Q1439.9 219.55 1440.91 219.793Q1441.92 220.036 1442.92 220.304Q1443.92 220.572 1444.92 220.865Q1445.91 221.158 1446.9 221.475Q1447.89 221.792 1448.87 222.134Q1449.85 222.476 1450.82 222.841Q1451.79 223.207 1452.75 223.597C1460.01 226.549 1479.41 236.563 1482.41 243.7C1490.47 241.033 1504.47 224.398 1511.14 224.174C1512.67 225.308 1512.73 225.157 1513.02 227.014C1507.48 232.698 1492.5 243.539 1485.45 246.619C1486.72 247.77 1487.52 248.981 1488.36 250.46C1493.32 259.225 1504.91 291.189 1502.35 300.491L1501.24 300.963C1498.84 296.977 1498.12 290.74 1497 286.16C1495.72 281.003 1493.82 276.284 1492.14 271.265C1487.5 257.353 1484.15 247.742 1471.7 238.797C1450.63 223.656 1428.1 219.448 1402.83 223.555C1385.25 229.859 1378.1 234.153 1363 244.733C1361.99 253.272 1355.75 270.211 1351.46 277.716C1347.85 284.021 1341.85 289.355 1334.7 291.138C1316.67 295.631 1312.89 278.163 1300.66 271.296C1300.46 271.181 1300.25 271.073 1300.04 270.962C1300.16 271.575 1300.23 272.183 1300.27 272.807C1300.55 278.06 1296.49 294.619 1292.69 298.554Q1300.87 300.909 1309.02 303.372C1317.49 305.996 1326.07 309.745 1330.29 318.077C1332.31 322.073 1332.98 326.453 1331.46 330.737C1328.06 340.311 1316.17 347.199 1307.44 351.418C1307.59 351.542 1307.77 351.653 1307.91 351.79C1311.21 354.855 1327.15 382.411 1327.13 386.051C1336.81 382.47 1345.81 373.693 1356.63 373.378Q1357.16 373.358 1357.7 373.365Q1358.23 373.373 1358.77 373.408Q1359.3 373.443 1359.83 373.506Q1360.36 373.568 1360.89 373.658Q1361.42 373.748 1361.94 373.865Q1362.46 373.982 1362.98 374.125Q1363.49 374.269 1364 374.439Q1364.5 374.609 1365 374.805Q1365.5 375.001 1365.99 375.222Q1366.47 375.443 1366.95 375.69Q1367.42 375.936 1367.88 376.206Q1368.35 376.476 1368.79 376.77Q1369.24 377.064 1369.67 377.38Q1370.1 377.696 1370.52 378.035Q1370.93 378.373 1371.33 378.732Q1371.72 379.091 1372.1 379.47C1375.66 383.026 1378.01 388.279 1377.96 393.35C1377.9 399.52 1375.8 414.374 1371.36 418.634C1369.27 411.981 1375.3 398.711 1372.42 388.705C1371.3 384.78 1369.04 380.957 1365.29 379.053C1352.35 372.483 1337.63 386.405 1325.9 390.492C1324.77 381.191 1309.76 365.712 1305.88 355.844C1301.44 344.565 1323.64 341.009 1328.02 329.878C1329.21 326.842 1328.75 323.815 1327.38 320.938C1321.1 307.71 1302.35 306.512 1289.9 302.064C1290.77 299.979 1297.75 269.351 1297.64 268.065C1295.51 260.276 1285.08 252.255 1281.86 242.587C1278.69 233.073 1279.22 221.921 1283.88 212.967C1289.4 202.354 1299.29 195.894 1310.45 192.443Z"/>
		<path fill="#FEFEFE" transform="scale(0.879121 0.878906)" d="M877.795 617.879C907.951 616.426 938.57 617.889 968.778 617.898Q994.854 618.067 1020.93 617.885C1033.37 617.728 1046.01 617.035 1058.43 617.409C1061.01 617.486 1063.31 617.588 1065.55 619.029L1065.87 620.924L1063.93 623.218C1063.88 623.253 1063.83 623.299 1063.77 623.324C1058.59 625.6 919.701 623.804 901.566 623.799C896.027 623.798 890.547 624.658 885.012 624.487C883.099 624.428 881.363 624.047 879.546 623.461C877.546 621.429 877.888 620.616 877.795 617.879Z"/>
		<path fill="#FEFEFE" transform="scale(0.879121 0.878906)" d="M1050.03 390.655C1059.56 389.26 1070.16 390.056 1079.83 390.059L1137.13 390.229C1147.98 390.27 1160.69 388.638 1171.33 390.307C1173.84 390.701 1174.99 391.149 1176.48 393.213L1175.79 395.506C1173.72 396.79 1171.67 396.43 1169.27 396.481C1153.21 396.444 1055.82 398.773 1050.68 396.184C1049.28 393.849 1049.63 393.402 1050.03 390.655Z"/>
		<path fill="#FEFEFE" transform="scale(0.879121 0.878906)" d="M1111.5 555.995C1115.88 555.262 1119.55 555.018 1123.61 557.123Q1124.36 557.512 1125.08 557.974Q1125.79 558.436 1126.46 558.965Q1127.12 559.495 1127.73 560.087Q1128.34 560.679 1128.88 561.329Q1129.43 561.978 1129.91 562.678Q1130.39 563.378 1130.8 564.122Q1131.21 564.866 1131.55 565.647Q1131.88 566.428 1132.14 567.238C1133.31 571.049 1133.07 575.048 1131.07 578.539C1128.74 582.6 1125.19 584.235 1120.85 585.4C1119.36 586.041 1118.11 586.27 1116.48 586.222C1112.62 586.106 1108.86 583.988 1106.33 581.147C1103.41 577.874 1101.63 573.333 1102.04 568.92C1102.62 562.752 1107.14 559.69 1111.5 555.995Z"/>
		<path fill="#E9EBEA" transform="scale(0.879121 0.878906)" d="M1114.11 561.327C1116.69 561.056 1118.91 560.921 1121.31 562.14C1124.21 563.613 1126.55 566.103 1127.36 569.318Q1127.47 569.759 1127.54 570.209Q1127.61 570.659 1127.63 571.114Q1127.66 571.568 1127.63 572.023Q1127.61 572.478 1127.54 572.928Q1127.47 573.378 1127.36 573.819Q1127.25 574.259 1127.09 574.686Q1126.93 575.113 1126.73 575.522Q1126.53 575.931 1126.29 576.318C1124.26 579.543 1121.59 580.492 1118.1 581.241C1117.49 581.289 1117.43 581.322 1116.72 581.218C1113.65 580.765 1110.1 578.703 1108.39 576.063C1107.02 573.956 1106.67 571.145 1107.21 568.717C1108.07 564.864 1110.99 563.203 1114.11 561.327Z"/>
		<path fill="#FEFEFE" transform="scale(0.879121 0.878906)" d="M976.281 507.693C978.38 507.531 980.566 507.428 982.669 507.616C985.688 507.887 988.593 509.621 990.393 512.049Q990.665 512.416 990.899 512.809Q991.132 513.201 991.325 513.616Q991.518 514.03 991.668 514.461Q991.818 514.893 991.924 515.337Q992.03 515.782 992.091 516.235Q992.152 516.688 992.166 517.144Q992.181 517.601 992.15 518.057Q992.118 518.513 992.041 518.963C991.205 524.108 987.96 526.773 983.933 529.608C982.724 529.739 981.515 529.851 980.299 529.876C977.281 529.939 974.69 528.794 972.584 526.589C970.273 524.17 969.513 520.931 969.843 517.672C970.319 512.972 972.922 510.564 976.281 507.693Z"/>
		<path fill="#FEFEFE" transform="scale(0.879121 0.878906)" d="M994.016 409.285C996.476 410.361 997.031 410.551 998.55 412.721C998.393 415.462 998.285 417.613 999.262 420.254C1001.91 421.979 1005.62 420.931 1008.78 422.066C1009.97 423.984 1009.96 424 1009.59 426.228C1006.9 428.323 1003.79 426.983 1000.7 427.664C998.427 428.162 998.991 435.793 997.178 438.437L994.387 437.824C992.272 435.205 992.713 431.923 992.378 428.603C989.879 426.655 986.315 428.254 983.409 427.39C981.681 426.876 981.503 425.901 980.714 424.456L981.53 422.756C984.385 421.141 987.582 421.329 990.77 421.236C993.202 418.071 992.139 413.323 994.016 409.285Z"/>
		<path fill="#E9EBEA" transform="scale(0.879121 0.878906)" d="M991.725 421.311C992.79 421.399 993.936 421.45 994.974 421.706C997.263 422.27 997.479 423.054 998.503 425.001L994.748 425.666C992.638 424.675 992.564 423.359 991.725 421.311Z"/>
		<path fill="#E9EBEA" transform="scale(0.879121 0.878906)" d="M334.7 334.165L468.156 334.017L468.287 363.476L590.678 363.416C590.695 371.462 589.719 427.806 592.038 430.472C603.607 442.45 617.922 458.874 630.904 468.67C630.809 473.536 630.25 478.902 631.286 483.67C636.963 487.464 651.78 479.642 653.292 488.268C653.419 488.989 653.475 489.73 653.547 490.457C652.02 498.483 652.044 581.613 653.675 590.693C648.75 588.803 636.781 588.981 631.852 591.021C630.693 591.501 629.826 592.073 629.099 593.117C620.259 583.068 607.517 566.238 596.582 559.184C595.044 558.191 595.016 558.096 593.241 558.478C593.214 559.123 593.022 559.783 593.158 560.415C593.721 563.032 617.906 586.014 621.888 590.896C611.736 597.351 604.423 602.773 601.612 615.191Q601.091 617.479 600.671 619.787C588.355 614.687 555.943 604.229 543.436 607.626L542.411 608.886C542.733 609.576 542.809 610.325 543.56 610.586C549.255 612.565 556.795 611.966 562.867 612.87C577.064 614.984 589.315 619.47 602.448 625.049C600.58 629.526 600.988 636.059 602.431 640.585C603.645 641.903 604.626 642.197 606.33 642.674L606.472 645.102L604.787 646.227C602.873 646.88 601.126 646.991 600.179 648.958C599.079 651.245 599.835 656.461 599.921 659.064L334.907 659.399L334.7 334.165Z"/>
		<path fill="#203562" transform="scale(0.879121 0.878906)" d="M604.787 646.227C594.858 647.057 584.207 647.185 574.229 646.909C571.556 646.834 570.027 646.932 568.166 644.921L568.824 643.872C575.904 640.614 597.876 642.215 606.33 642.674L606.472 645.102L604.787 646.227Z"/>
		<path fill="#FEFEFE" transform="scale(0.879121 0.878906)" d="M459.793 414.231C461.547 414.626 463.38 415.022 465.055 415.681C468.172 416.909 471.025 420.027 472.246 423.103C473.501 426.265 473.239 429.749 471.851 432.816C469.636 437.712 465.734 439.563 460.912 441.3C458.956 441.084 457.011 440.668 455.183 439.92C451.801 438.536 448.789 435.484 447.585 432.025C446.443 428.742 446.883 425.181 448.455 422.125C450.848 417.477 455.086 415.781 459.793 414.231Z"/>
		<path fill="#E9EBEA" transform="scale(0.879121 0.878906)" d="M458.48 419.335C461.389 419.71 464.179 420.605 466.1 422.962C467.37 424.518 467.833 426.401 467.551 428.38C466.985 432.362 464.327 434.194 461.321 436.373C460.662 436.319 460.007 436.254 459.359 436.121C456.754 435.589 454.25 433.947 452.934 431.604C451.94 429.832 451.853 427.768 452.381 425.836C453.299 422.477 455.732 421.069 458.48 419.335Z"/>
		<path fill="#FEFEFE" transform="scale(0.879121 0.878906)" d="M550.556 523.799C551.978 524.068 553.303 524.59 554.659 525.083C556.554 527.994 556.192 530.829 556.377 534.236C558.555 536.463 561.745 534.695 564.584 535.69C566.249 536.273 566.235 537.213 566.778 538.69C565.439 544.826 560.633 541.196 556.663 543.96C556.387 547.216 555.997 550.4 555.462 553.623C553.62 553.712 552.417 553.618 550.723 552.838C548.513 551.821 550.009 546.182 549.138 543.857C546.293 541.645 542.733 543.143 539.435 541.716C538.621 539.828 538.475 539.701 538.953 537.589C541.983 535.792 546.079 536.059 549.521 535.914C549.725 531.866 550.16 527.832 550.556 523.799Z"/>
		<path fill="#FEFEFE" transform="scale(0.879121 0.878906)" d="M384.468 493.385C394.93 492.729 422.451 490.913 431.603 493.886C433.487 495.636 433.305 495.856 433.55 498.457C421.797 499.648 397.424 500.228 385.845 498.421C384.531 496.91 384.689 495.323 384.468 493.385Z"/>
		<path fill="#FEFEFE" transform="scale(0.879121 0.878906)" d="M452.996 593.936C461.024 593.876 493.192 591.751 498.448 595.86C498.254 598.183 498.023 598.191 496.329 599.842C488.755 599.627 454.979 601.662 451.007 598.221C451.002 595.683 451.195 595.772 452.996 593.936Z"/>
		<path fill="#E9EBEA" transform="scale(0.879121 0.878906)" d="M545.339 698.797C554.072 700.015 563.625 699.308 572.449 699.299Q598.219 699.186 623.989 699.36Q630.536 708.229 636.708 717.363C640.893 723.938 645.21 730.434 649.472 736.96Q684.55 737.051 719.623 736.41C723.283 729.757 727.363 723.281 731.306 716.791C734.961 711.124 738.432 705.431 741.697 699.531L817.595 699.382C817.558 704.168 816.364 714.325 818.39 718.447C823.162 718.641 827.898 718.774 832.675 718.695Q833.379 832.714 832.712 946.734L762.444 946.752L762.456 928.021L762.318 911.5L571.333 911.258C571.265 918.657 569.679 934.059 571.992 940.543L570.915 946.214C561.706 948.491 538.495 946.897 527.862 946.83L527.736 716.272L544.191 716.188C544.222 710.468 543.771 704.337 545.339 698.797ZM680.546 871.518C683.043 857.677 681.431 841.24 681.452 827.09C681.481 806.651 682.455 785.63 681.156 765.264C680.035 763.932 679.511 763.448 677.869 762.876C675.476 777.219 677.237 795.901 677.207 810.656C677.169 829.991 675.5 850.756 677.449 869.933C678.522 870.692 679.235 871.239 680.546 871.518ZM709.258 895.012C712.328 892.823 714.631 891.006 715.329 887.026C715.743 884.661 715.316 882.543 713.921 880.578C712.169 878.11 709.562 876.71 706.59 876.362C705.087 876.187 703.562 876.258 702.057 876.354C699.007 879.15 696.171 881.869 696.101 886.352C696.064 888.709 697.068 890.834 698.829 892.381C701.721 894.918 705.588 895.145 709.258 895.012ZM641.726 895.286C644.467 894.016 646.927 892.857 648.135 889.846C648.968 887.767 648.806 885.625 647.735 883.668C645.976 880.457 643.179 879.057 639.786 878.226L639.041 878.049C635.795 879.825 633.071 881.333 631.862 885.115C631.193 887.205 631.32 889.31 632.483 891.199C633.821 893.371 635.813 894.449 638.275 894.871C639.418 895.067 640.567 895.223 641.726 895.286ZM659.962 786.568C660.749 780.001 662.019 746.144 659.387 741.742L657.662 740.809C655.985 747.467 654.994 779.547 657.722 785.341L659.962 786.568ZM701.17 816.528C699.399 819.099 699.025 822.77 699.538 825.813C700.004 828.579 700.563 829.136 702.612 831.069C704.368 826.81 704.554 822.616 703.336 818.194L701.17 816.528ZM700.227 739.673C699.965 745.481 697.946 760.36 701.482 764.455L703.62 765.036C703.88 759.466 705.868 744.514 702.6 740.412L700.227 739.673ZM700.121 784.24C699.575 788.617 698.333 793.803 700.681 797.81L703.491 799.07C703.783 794.892 704.609 790.113 703.162 786.113C702.108 785.146 701.535 784.646 700.121 784.24ZM745.49 889.662C743.359 891.047 740.802 892.561 740.147 895.217C739.605 897.413 740.06 899.215 741.463 900.967C743.235 903.181 746.136 903.599 748.746 904.087C750.771 901.92 753.292 899.499 753.14 896.288C753.053 894.438 752.313 892.975 750.836 891.789C749.44 890.669 747.221 890.05 745.49 889.662ZM657.578 844.781C656.48 850.644 656.178 856.599 657.132 862.501C657.998 863.596 658.471 864.088 659.779 864.692C660.852 858.867 661.019 852.626 659.984 846.792C659.219 845.982 658.625 845.218 657.578 844.781ZM657.746 804.161C656.106 808.409 655.392 821.404 657.232 825.504C657.783 826.732 658.826 827.042 659.932 827.634C660.623 822.781 662.081 809.19 659.328 805.312C658.884 804.687 658.432 804.458 657.746 804.161Z"/>
		<path fill="#E9EBEA" transform="scale(0.879121 0.878906)" d="M147.172 326.84L147.131 242.343C147.124 229.492 145.711 214.892 147.857 202.295C149.096 226.556 148.242 251.22 148.254 275.522L147.903 428.685L148.284 895.033C136.508 895.649 125.707 898.606 117.516 907.727C114.79 910.764 112.27 914.38 110.867 918.243L110.443 918.141C106.937 906.178 100.058 894.425 95.6837 882.558C82.8225 847.668 73.5733 812.113 69.2953 775.114C54.1455 644.091 71.284 504.708 121.301 382.445C127.759 366.658 137.11 339.521 147.172 326.84Z"/>
		<path fill="#E9EBEA" transform="scale(0.879121 0.878906)" d="M258.208 200.09C264.257 193.231 272.748 187.88 280.372 182.944C314.01 161.168 352.613 145.774 392.474 140.643C466.596 131.101 538.512 153.947 597.119 199.266L513.386 199.224C498.524 199.205 483.152 198.367 468.356 199.495Q468.187 220.974 468.237 242.451L334.62 242.587L334.613 200.148L258.208 200.09Z"/>
	</g>
</svg>
