<?xml version="1.0" standalone="no"?>
<!DOCTYPE svg PUBLIC "-//W3C//DTD SVG 20010904//EN"
 "http://www.w3.org/TR/2001/REC-SVG-20010904/DTD/svg10.dtd">
<svg version="1.0" xmlns="http://www.w3.org/2000/svg"
 width="3360.000000pt" height="840.000000pt" viewBox="0 0 3360.000000 840.000000"
 preserveAspectRatio="xMidYMid meet">

<g transform="translate(0.000000,840.000000) scale(0.100000,-0.100000)"
fill="##262626" stroke="none">
<path d="M18480 8340 c0 -5 -16 -10 -35 -10 -45 0 -135 -20 -135 -30 0 -4 -18
-10 -40 -14 -22 -3 -40 -11 -40 -16 0 -6 -6 -10 -14 -10 -8 0 -21 -6 -28 -14
-8 -7 -24 -17 -36 -20 -12 -4 -22 -11 -22 -16 0 -4 -11 -11 -25 -14 -14 -4
-34 -15 -45 -26 -11 -11 -26 -20 -34 -20 -8 0 -16 -7 -20 -15 -3 -8 -11 -15
-18 -15 -7 -1 -24 -14 -38 -30 -13 -17 -28 -30 -33 -30 -5 0 -29 -20 -54 -45
-24 -25 -48 -45 -53 -45 -5 0 -45 -37 -89 -82 -45 -46 -84 -86 -88 -91 -5 -4
-32 -30 -60 -58 -29 -27 -53 -54 -53 -59 0 -6 -27 -37 -60 -69 -33 -33 -60
-63 -60 -67 0 -4 -20 -27 -45 -51 -25 -23 -45 -46 -45 -50 0 -5 -12 -19 -25
-32 -14 -13 -25 -28 -25 -33 0 -6 -18 -27 -39 -48 -21 -21 -42 -47 -45 -58 -4
-11 -13 -23 -21 -26 -8 -3 -15 -10 -15 -16 0 -6 -13 -23 -29 -38 -16 -15 -32
-37 -35 -49 -4 -11 -13 -24 -21 -27 -8 -3 -15 -11 -15 -17 0 -6 -11 -22 -25
-35 -14 -13 -25 -27 -25 -31 0 -5 -9 -16 -20 -26 -11 -9 -20 -24 -20 -32 0 -8
-5 -15 -10 -15 -6 0 -16 -12 -23 -27 -6 -15 -23 -40 -37 -55 -39 -43 -50 -57
-50 -65 0 -5 -9 -16 -20 -26 -11 -9 -20 -23 -20 -31 0 -8 -7 -16 -15 -20 -8
-3 -15 -12 -15 -21 0 -8 -5 -15 -11 -15 -5 0 -15 -13 -20 -29 -6 -16 -17 -32
-25 -35 -8 -3 -14 -12 -14 -21 0 -8 -4 -15 -10 -15 -5 0 -12 -11 -16 -24 -3
-14 -12 -27 -20 -30 -8 -3 -14 -12 -14 -20 0 -7 -7 -16 -15 -20 -8 -3 -15 -12
-15 -21 0 -8 -4 -15 -10 -15 -5 0 -10 -6 -10 -14 0 -8 -6 -21 -13 -28 -7 -7
-20 -28 -28 -45 -7 -18 -17 -33 -21 -33 -5 0 -8 -7 -8 -15 0 -9 -6 -18 -14
-21 -8 -3 -18 -19 -21 -35 -4 -16 -11 -29 -16 -29 -5 0 -11 -11 -15 -25 -3
-14 -10 -25 -15 -25 -5 0 -9 -7 -9 -15 0 -9 -6 -18 -14 -21 -8 -3 -18 -19 -21
-35 -4 -16 -10 -29 -15 -29 -5 0 -11 -14 -15 -31 -4 -17 -13 -33 -20 -36 -8
-2 -17 -18 -20 -34 -4 -16 -10 -29 -15 -29 -5 0 -11 -13 -15 -30 -4 -16 -10
-30 -15 -30 -5 0 -11 -13 -15 -30 -4 -16 -10 -30 -15 -30 -5 0 -11 -13 -15
-30 -4 -16 -11 -30 -16 -30 -5 0 -11 -11 -15 -25 -3 -14 -10 -25 -14 -25 -4 0
-13 -20 -20 -45 -7 -25 -16 -45 -21 -45 -4 0 -10 -13 -14 -30 -4 -16 -10 -30
-15 -30 -5 0 -11 -13 -15 -30 -4 -16 -10 -30 -15 -30 -5 0 -11 -13 -15 -30 -4
-16 -10 -30 -15 -30 -4 0 -11 -16 -14 -35 -4 -19 -11 -35 -16 -35 -4 0 -14
-22 -21 -50 -7 -27 -16 -50 -20 -50 -4 0 -10 -13 -14 -30 -4 -16 -11 -30 -15
-30 -5 0 -12 -16 -16 -35 -3 -19 -10 -35 -15 -35 -5 0 -12 -18 -15 -40 -4 -22
-10 -40 -15 -40 -4 0 -11 -16 -15 -35 -3 -19 -10 -35 -15 -35 -4 0 -11 -16
-15 -35 -3 -19 -10 -35 -15 -35 -5 0 -12 -18 -15 -41 -4 -22 -12 -46 -19 -53
-7 -7 -16 -31 -20 -54 -4 -23 -11 -42 -16 -42 -5 0 -12 -18 -15 -40 -4 -22
-10 -40 -14 -40 -5 0 -11 -18 -15 -40 -4 -22 -10 -40 -15 -40 -4 0 -11 -20
-14 -45 -4 -25 -11 -45 -16 -45 -5 0 -12 -20 -16 -45 -3 -25 -10 -45 -14 -45
-5 0 -14 -31 -20 -70 -6 -38 -15 -70 -20 -70 -4 0 -11 -25 -15 -55 -3 -30 -10
-55 -15 -55 -5 0 -12 -25 -15 -55 -4 -30 -11 -55 -15 -55 -5 0 -12 -29 -15
-65 -4 -36 -11 -65 -15 -65 -4 0 -11 -34 -15 -75 -4 -41 -11 -75 -16 -75 -5 0
-9 -19 -9 -43 0 -28 -6 -48 -17 -59 -29 -26 -63 -65 -63 -72 0 -3 -42 -48 -92
-101 -51 -52 -122 -127 -158 -166 -36 -39 -80 -85 -98 -102 -18 -18 -46 -44
-62 -59 -16 -16 -32 -28 -37 -28 -5 0 -20 -13 -33 -30 -14 -16 -31 -29 -38
-30 -7 0 -15 -7 -18 -15 -3 -8 -15 -17 -26 -21 -11 -3 -29 -15 -39 -25 -10
-10 -26 -19 -34 -19 -8 0 -15 -4 -15 -10 0 -5 -7 -10 -15 -10 -9 0 -18 -6 -21
-14 -3 -8 -20 -18 -37 -22 -18 -3 -35 -11 -38 -16 -4 -6 -27 -13 -53 -15 -25
-3 -46 -10 -46 -14 0 -5 -13 -9 -30 -9 -16 0 -30 4 -30 9 0 5 -11 12 -25 15
-14 4 -25 13 -25 20 0 8 -8 22 -17 32 -15 15 -18 37 -18 151 0 92 4 136 12
141 6 4 15 35 19 70 3 34 10 62 15 62 4 0 11 20 15 45 3 25 10 45 14 45 4 0
10 22 14 50 4 27 11 50 16 50 5 0 12 16 16 35 3 19 9 35 13 35 4 0 13 27 19
60 7 33 17 60 21 60 5 0 12 16 15 35 4 19 11 35 16 35 5 0 12 17 16 37 4 21
13 44 21 51 7 7 13 20 13 28 0 8 4 14 10 14 5 0 13 18 16 40 4 22 10 40 14 40
4 0 12 18 19 40 6 22 16 40 21 40 5 0 13 18 16 40 4 22 10 40 14 40 5 0 11 14
15 30 4 16 11 30 16 30 5 0 11 11 15 25 3 14 10 25 14 25 5 0 11 14 15 30 4
17 10 30 15 30 5 0 11 14 15 30 4 17 10 30 14 30 5 0 14 20 21 45 7 25 17 45
21 45 5 0 9 7 9 15 0 9 6 18 14 21 8 3 18 19 21 35 4 16 10 29 15 29 5 0 11
13 15 29 3 16 13 32 21 35 8 3 14 12 14 21 0 8 4 15 9 15 5 0 12 14 16 30 4
16 10 30 15 30 5 0 14 16 20 35 6 19 16 35 21 35 5 0 11 11 15 25 3 14 10 25
15 25 5 0 9 7 9 15 0 9 6 18 14 21 8 3 17 16 20 30 4 13 11 24 16 24 6 0 10 5
10 12 0 6 13 23 28 37 16 14 34 41 40 60 15 42 16 170 2 206 -14 36 -56 72
-93 81 -18 3 -35 11 -39 17 -10 16 -280 16 -285 0 -3 -7 -13 -13 -24 -13 -30
0 -89 -38 -89 -57 0 -5 -8 -16 -17 -24 -26 -23 -48 -52 -56 -72 -8 -20 -37
-23 -37 -3 0 8 -7 16 -15 20 -8 3 -15 10 -15 16 0 15 -64 80 -79 80 -6 0 -11
4 -11 9 0 4 -20 14 -45 21 -25 7 -45 16 -45 21 0 4 -21 11 -47 15 -27 4 -51
12 -55 18 -10 15 -396 14 -406 -1 -4 -5 -34 -13 -66 -16 -33 -3 -62 -10 -65
-14 -3 -5 -37 -15 -76 -23 -38 -7 -76 -19 -83 -27 -7 -7 -24 -13 -38 -13 -13
0 -24 -4 -24 -9 0 -5 -13 -12 -30 -16 -16 -4 -30 -11 -30 -15 0 -5 -16 -12
-35 -16 -19 -3 -35 -10 -35 -15 0 -5 -7 -9 -15 -9 -9 0 -18 -6 -21 -14 -3 -8
-19 -18 -35 -21 -16 -4 -29 -10 -29 -15 0 -5 -13 -11 -29 -15 -16 -3 -40 -15
-53 -25 -13 -11 -27 -23 -33 -28 -5 -4 -18 -11 -27 -15 -10 -3 -18 -11 -18
-16 0 -5 -11 -12 -25 -15 -14 -4 -25 -11 -25 -16 0 -6 -7 -10 -15 -10 -9 0
-18 -7 -21 -15 -4 -8 -12 -15 -18 -15 -7 0 -21 -8 -32 -18 -10 -10 -27 -21
-36 -25 -10 -3 -18 -11 -18 -16 0 -5 -10 -13 -22 -17 -12 -4 -33 -20 -47 -35
-14 -16 -30 -29 -36 -29 -5 -1 -21 -14 -35 -30 -13 -17 -30 -30 -36 -30 -14 0
-114 -98 -114 -111 0 -4 -9 -11 -21 -14 -27 -9 -215 -197 -224 -224 -3 -12
-10 -21 -14 -21 -13 0 -111 -100 -111 -114 0 -6 -13 -23 -30 -36 -16 -14 -29
-30 -30 -35 0 -6 -9 -18 -20 -28 -11 -9 -20 -23 -20 -31 0 -8 -7 -16 -15 -20
-8 -3 -15 -11 -15 -17 0 -6 -10 -21 -23 -33 -13 -12 -30 -36 -38 -54 -7 -18
-17 -32 -21 -32 -3 0 -9 -13 -13 -30 -4 -17 -11 -30 -16 -30 -5 0 -11 -11 -15
-25 -3 -14 -10 -25 -15 -25 -5 0 -9 -7 -9 -15 0 -9 -6 -18 -14 -21 -8 -3 -17
-21 -20 -40 -4 -19 -11 -34 -15 -34 -5 0 -14 -20 -21 -45 -7 -25 -16 -45 -21
-45 -4 0 -11 -16 -15 -35 -3 -19 -10 -35 -15 -35 -5 0 -12 -18 -15 -40 -4 -22
-10 -40 -15 -40 -5 0 -12 -18 -15 -40 -4 -22 -10 -40 -15 -40 -4 0 -11 -25
-14 -55 -4 -30 -11 -55 -15 -55 -4 0 -11 -20 -15 -46 -4 -32 -16 -55 -40 -80
-18 -18 -37 -34 -42 -34 -5 0 -20 -13 -33 -30 -14 -16 -30 -29 -37 -30 -6 0
-22 -9 -35 -20 -59 -51 -72 -60 -83 -60 -7 0 -15 -7 -19 -15 -3 -8 -12 -15
-21 -15 -8 0 -15 -4 -15 -10 0 -5 -11 -12 -24 -16 -14 -3 -27 -12 -30 -20 -3
-8 -12 -14 -20 -14 -7 0 -16 -6 -19 -14 -3 -7 -18 -16 -32 -20 -15 -4 -34 -14
-42 -21 -8 -8 -23 -15 -34 -15 -10 0 -19 -4 -19 -9 0 -5 -15 -13 -32 -16 -18
-4 -36 -13 -40 -19 -5 -7 -50 -11 -131 -11 -123 0 -123 0 -150 29 -15 16 -27
40 -27 52 0 13 -4 24 -10 24 -5 0 -10 20 -10 45 0 25 4 45 9 45 4 0 11 46 14
101 3 56 10 105 15 108 6 3 13 23 17 44 4 20 11 37 15 37 4 0 10 18 14 40 3
22 10 40 15 40 5 0 12 16 15 35 4 19 11 35 16 35 5 0 12 16 16 35 3 19 10 35
14 35 4 0 13 20 20 45 7 25 16 45 21 45 4 0 10 13 14 30 4 16 10 30 15 30 5 0
11 13 15 30 4 16 10 30 15 30 5 0 11 13 15 30 4 17 10 30 15 30 4 0 11 11 14
25 4 14 10 25 15 25 5 0 12 13 16 30 4 16 10 30 14 30 5 0 14 20 21 45 7 25
16 45 21 45 4 0 10 14 14 30 4 17 10 30 15 30 5 0 11 13 15 29 3 16 13 32 21
35 8 3 14 12 14 21 0 8 4 15 9 15 5 0 12 14 16 30 4 17 10 30 15 30 5 0 11 14
15 31 4 17 13 33 20 36 8 2 17 18 20 34 4 16 10 29 15 29 5 0 11 14 15 30 4
16 11 30 16 30 5 0 9 7 9 15 0 9 6 18 14 21 8 3 18 19 21 35 4 16 10 29 15 29
5 0 11 13 15 29 3 16 12 32 20 34 7 3 16 19 20 36 4 17 10 31 15 31 5 0 11 14
15 30 4 16 11 30 16 30 5 0 11 11 15 25 3 14 10 25 14 25 5 0 12 10 16 22 3
12 13 28 20 36 8 7 14 20 14 28 0 8 4 14 9 14 5 0 12 13 16 29 3 16 12 32 20
34 7 3 16 19 20 36 4 17 11 31 16 31 5 0 9 7 9 15 0 9 6 18 14 21 8 3 18 19
21 35 4 16 11 29 16 29 5 0 9 7 9 15 0 9 6 18 14 21 8 3 18 19 21 35 4 16 10
29 15 29 4 0 11 11 14 25 4 14 10 25 15 25 5 0 12 14 16 31 4 17 13 33 20 36
8 2 17 18 20 34 4 16 11 29 16 29 5 0 9 7 9 15 0 9 6 18 14 21 8 3 17 17 21
31 3 14 11 31 18 39 29 32 35 42 48 77 7 20 17 37 21 37 4 0 8 7 8 15 0 9 6
18 14 21 8 3 18 18 21 34 3 16 13 31 21 34 8 3 14 12 14 21 0 8 4 15 10 15 5
0 12 11 16 25 3 14 10 25 15 25 5 0 9 7 9 15 0 9 6 18 13 21 8 3 20 20 27 39
8 19 17 35 21 35 4 0 10 11 13 25 4 14 11 25 16 25 6 0 10 6 10 14 0 14 97 26
216 26 34 0 64 4 66 9 2 5 67 13 146 17 78 4 142 10 142 13 0 4 98 13 218 20
119 8 219 17 222 21 3 4 33 11 68 15 34 4 62 11 62 15 0 5 14 11 30 15 17 4
30 11 30 16 0 5 6 9 14 9 18 0 96 72 96 88 0 7 5 12 10 12 6 0 10 20 10 45 0
25 -4 45 -10 45 -5 0 -10 9 -10 19 0 11 -29 48 -65 84 -36 36 -65 68 -65 72 0
4 -25 33 -56 64 l-57 56 -311 -1 c-171 0 -305 1 -298 3 6 3 12 11 12 18 0 8 6
20 13 27 6 7 19 27 27 43 8 17 20 35 25 42 6 7 15 18 21 26 6 7 15 23 18 35 4
12 12 22 17 22 5 0 9 7 9 15 0 9 6 18 14 21 8 3 18 19 21 35 4 16 10 29 15 29
4 0 13 14 20 30 7 17 16 30 20 30 5 0 11 13 15 29 3 16 13 32 21 35 8 3 14 12
14 21 0 8 5 15 10 15 6 0 10 6 10 13 0 8 9 24 20 37 11 13 20 29 20 37 0 7 4
13 9 13 5 0 12 14 16 30 4 17 11 30 16 30 5 0 9 11 9 25 0 14 -4 25 -10 25 -5
0 -10 6 -10 13 0 26 -38 58 -77 64 -21 3 -41 11 -45 17 -10 15 -341 12 -346
-3 -2 -6 -11 -11 -20 -11 -9 0 -28 -12 -41 -25 -13 -14 -27 -25 -31 -25 -5 0
-12 -10 -15 -21 -4 -12 -27 -40 -51 -63 -24 -24 -44 -46 -44 -51 0 -4 -13 -20
-29 -36 -16 -15 -32 -37 -36 -48 -3 -12 -11 -21 -16 -21 -5 0 -9 -7 -9 -15 0
-9 -7 -18 -15 -21 -8 -3 -17 -15 -20 -25 -4 -11 -19 -33 -33 -49 -37 -40 -45
-50 -62 -85 -8 -16 -21 -36 -27 -43 -7 -7 -13 -17 -13 -22 0 -5 -12 -23 -27
-39 -44 -47 -53 -59 -53 -71 0 -6 -7 -13 -15 -16 -8 -4 -15 -12 -15 -19 0 -8
-6 -20 -12 -27 -7 -8 -18 -23 -24 -33 -8 -15 -24 -21 -58 -23 -25 -2 -46 -7
-46 -11 0 -5 -138 -11 -307 -15 -170 -5 -310 -11 -313 -16 -3 -4 -61 -10 -129
-12 -68 -3 -126 -10 -130 -15 -3 -6 -21 -14 -38 -18 -18 -3 -33 -11 -33 -16 0
-5 -7 -9 -15 -9 -9 0 -18 -6 -21 -14 -3 -8 -19 -18 -35 -21 -16 -4 -29 -10
-29 -14 0 -4 -16 -13 -36 -20 -19 -7 -49 -26 -67 -42 -18 -16 -44 -41 -59 -55
-16 -14 -28 -32 -28 -40 0 -8 -4 -14 -10 -14 -5 0 -10 -6 -10 -13 0 -8 -9 -24
-20 -37 -11 -13 -20 -27 -20 -32 0 -5 -13 -21 -29 -36 -16 -15 -33 -39 -36
-54 -4 -16 -11 -28 -16 -28 -5 0 -9 -18 -9 -40 0 -32 7 -47 34 -75 19 -19 48
-38 65 -41 17 -4 31 -10 31 -15 0 -4 27 -11 60 -15 33 -4 60 -11 60 -15 0 -5
56 -9 125 -9 69 0 125 4 125 9 0 4 64 11 142 15 79 4 145 11 148 15 3 5 52 11
110 15 58 4 106 11 108 17 5 12 32 12 32 -1 0 -5 -4 -10 -10 -10 -5 0 -10 -7
-10 -15 0 -9 -6 -18 -14 -21 -8 -3 -18 -19 -21 -35 -4 -16 -11 -29 -16 -29 -6
0 -15 -13 -20 -30 -6 -16 -15 -30 -19 -30 -5 0 -11 -13 -15 -29 -3 -16 -13
-32 -21 -35 -8 -3 -14 -12 -14 -20 0 -7 -7 -16 -15 -20 -8 -3 -15 -12 -15 -21
0 -8 -4 -15 -9 -15 -5 0 -12 -11 -15 -25 -4 -14 -10 -25 -15 -25 -5 0 -12 -13
-16 -29 -3 -16 -12 -32 -20 -34 -7 -3 -16 -19 -20 -35 -3 -17 -13 -33 -21 -36
-8 -3 -14 -12 -14 -21 0 -8 -4 -15 -9 -15 -5 0 -12 -11 -15 -25 -4 -14 -11
-25 -16 -25 -6 0 -10 -6 -10 -13 0 -8 -9 -24 -20 -37 -11 -13 -20 -29 -20 -35
0 -7 -6 -15 -14 -18 -8 -3 -17 -19 -21 -36 -4 -17 -11 -31 -16 -31 -5 0 -9 -6
-9 -13 0 -8 -9 -24 -20 -37 -11 -13 -20 -29 -20 -37 0 -7 -4 -13 -10 -13 -5 0
-12 -11 -16 -25 -3 -14 -10 -25 -14 -25 -5 0 -11 -13 -15 -29 -3 -16 -13 -32
-21 -35 -8 -3 -14 -12 -14 -21 0 -8 -4 -15 -9 -15 -5 0 -12 -14 -16 -31 -4
-17 -13 -33 -20 -36 -8 -2 -17 -18 -20 -34 -4 -16 -11 -29 -16 -29 -5 0 -9 -7
-9 -15 0 -9 -6 -18 -14 -21 -8 -3 -18 -19 -21 -35 -4 -16 -10 -29 -15 -29 -4
0 -11 -11 -14 -25 -4 -14 -10 -25 -15 -25 -5 0 -12 -13 -16 -30 -4 -16 -10
-30 -15 -30 -5 0 -14 -16 -21 -35 -7 -19 -16 -35 -20 -35 -4 0 -10 -14 -14
-30 -4 -16 -10 -30 -15 -30 -4 0 -11 -12 -14 -26 -4 -15 -12 -32 -19 -40 -30
-34 -37 -44 -43 -68 -3 -14 -10 -26 -14 -26 -5 0 -11 -14 -15 -30 -4 -16 -10
-30 -14 -30 -4 0 -14 -18 -21 -40 -7 -22 -17 -40 -21 -40 -4 0 -10 -13 -14
-30 -4 -16 -10 -30 -15 -30 -5 0 -11 -13 -15 -30 -4 -16 -10 -30 -15 -30 -5 0
-11 -14 -15 -30 -4 -17 -10 -30 -15 -30 -5 0 -11 -14 -15 -30 -4 -17 -10 -30
-15 -30 -4 0 -13 -22 -20 -50 -7 -27 -16 -50 -20 -50 -5 0 -11 -14 -15 -30 -4
-17 -10 -30 -15 -30 -4 0 -11 -16 -14 -35 -4 -19 -11 -35 -16 -35 -5 0 -12
-16 -16 -35 -3 -19 -10 -35 -14 -35 -5 0 -11 -13 -15 -30 -8 -36 -14 -37 -39
-9 -15 18 -25 21 -64 16 -26 -3 -48 -10 -50 -16 -2 -6 -9 -11 -16 -11 -6 0
-19 -9 -29 -20 -9 -11 -23 -20 -30 -20 -8 0 -20 -11 -27 -25 -7 -14 -19 -25
-26 -25 -7 0 -25 -11 -40 -25 -15 -14 -30 -25 -35 -25 -4 0 -29 -20 -56 -45
-72 -69 -76 -72 -100 -79 -11 -4 -24 -13 -27 -21 -3 -8 -11 -15 -17 -15 -6 0
-22 -11 -35 -25 -13 -14 -27 -25 -31 -25 -5 0 -20 -13 -34 -29 -14 -15 -35
-31 -47 -35 -12 -4 -22 -11 -22 -15 0 -4 -16 -13 -35 -21 -19 -7 -36 -19 -39
-27 -3 -7 -12 -13 -21 -13 -8 0 -15 -4 -15 -10 0 -5 -11 -12 -24 -16 -14 -3
-27 -12 -30 -20 -3 -8 -12 -14 -21 -14 -8 0 -15 -4 -15 -10 0 -5 -11 -12 -24
-16 -14 -3 -27 -12 -30 -20 -3 -8 -12 -14 -21 -14 -8 0 -15 -4 -15 -9 0 -5
-14 -12 -31 -16 -17 -4 -33 -13 -36 -20 -2 -8 -18 -17 -34 -20 -16 -4 -29 -11
-29 -15 0 -5 -16 -12 -35 -16 -19 -3 -35 -10 -35 -14 0 -4 -18 -10 -40 -14
-22 -3 -40 -10 -40 -16 0 -5 -21 -12 -47 -16 -27 -4 -51 -11 -54 -15 -3 -5
-40 -12 -82 -15 -42 -4 -77 -11 -77 -15 0 -5 -56 -9 -125 -9 -69 0 -125 4
-125 9 0 4 -30 11 -66 14 -37 3 -69 9 -73 15 -3 5 -23 12 -43 16 -21 4 -38 11
-38 16 0 6 -7 10 -15 10 -9 0 -18 7 -21 15 -4 8 -11 15 -18 15 -14 0 -56 44
-56 58 0 6 -5 12 -11 14 -6 2 -13 25 -16 51 -3 26 -10 47 -14 47 -5 0 -9 11
-9 25 0 14 5 25 10 25 6 0 10 9 10 20 0 11 7 23 15 26 8 4 15 12 15 19 0 13
82 105 94 105 4 0 21 13 38 30 16 16 36 30 44 30 8 0 17 7 20 15 4 8 11 15 18
15 6 0 19 9 29 20 9 11 23 20 31 20 8 0 16 7 20 15 3 8 12 15 21 15 8 0 15 4
15 10 0 5 11 12 24 16 14 3 27 12 30 19 2 7 18 16 34 20 17 3 33 13 36 21 3 8
12 14 21 14 8 0 15 4 15 9 0 5 11 12 25 15 14 4 25 11 25 16 0 6 7 10 15 10 9
0 18 6 21 14 3 8 19 18 35 21 16 4 29 11 29 16 0 5 7 9 15 9 9 0 18 6 21 14 3
8 25 19 50 26 24 7 44 16 44 21 0 4 14 10 30 14 17 4 30 11 30 15 0 5 16 12
35 16 19 3 35 10 35 15 0 5 11 9 24 9 14 0 31 7 39 15 8 7 26 17 41 21 14 3
26 10 26 15 0 5 11 9 25 9 14 0 28 6 31 14 3 8 16 17 30 20 13 4 55 36 92 72
l67 67 0 69 c0 42 -5 72 -12 76 -6 4 -14 19 -18 33 -4 15 -17 32 -31 39 -13 8
-24 19 -24 25 0 6 -13 26 -30 45 l-29 33 -128 -5 c-81 -3 -128 -9 -131 -16 -2
-6 -26 -14 -53 -18 -27 -4 -49 -10 -49 -15 0 -4 -20 -11 -45 -15 -25 -3 -45
-10 -45 -14 0 -10 -112 -30 -163 -30 -20 0 -37 -4 -37 -10 0 -5 -11 -10 -25
-10 -14 0 -25 4 -25 9 0 5 -10 11 -22 13 -19 2 -23 9 -22 35 1 18 9 40 18 48
9 9 16 21 16 27 0 15 118 128 134 128 6 1 22 14 36 30 13 17 28 30 33 30 4 0
18 11 31 25 13 14 29 25 35 25 6 0 14 6 17 14 3 8 19 19 35 25 16 5 29 15 29
20 0 6 6 11 13 11 7 0 20 9 30 20 9 11 23 20 31 20 8 0 16 7 20 15 3 8 12 15
21 15 8 0 15 4 15 9 0 5 10 13 22 17 12 3 28 12 35 18 33 29 43 36 68 42 15 4
29 12 32 20 2 7 18 16 34 19 16 4 29 10 29 15 0 5 14 11 30 15 17 4 30 10 30
15 0 5 14 11 30 15 17 4 30 10 30 15 0 4 16 11 35 14 19 4 35 11 35 16 0 6 9
10 20 10 19 0 20 -6 18 -91 -1 -57 2 -93 9 -97 6 -4 15 -20 18 -35 4 -15 13
-27 21 -27 8 0 14 -4 14 -10 0 -6 38 -10 95 -10 52 0 95 4 95 9 0 5 27 12 60
16 33 4 60 11 60 15 0 5 14 11 30 15 17 4 30 10 30 15 0 5 14 11 30 15 16 4
30 11 30 16 0 5 6 9 13 9 7 0 23 11 35 25 12 14 26 25 32 25 15 0 120 110 120
126 0 8 5 14 10 14 6 0 15 11 20 25 5 14 14 25 19 25 5 0 12 14 16 30 4 17 10
30 15 30 4 0 10 19 14 42 4 23 12 46 18 50 17 10 17 220 1 225 -7 3 -13 10
-13 17 0 21 -46 65 -74 72 -14 3 -26 10 -26 14 0 5 -26 14 -57 21 -32 7 -61
18 -65 23 -9 14 -398 13 -407 -1 -3 -6 -50 -16 -103 -23 -54 -7 -98 -16 -98
-20 0 -5 -27 -11 -60 -15 -33 -4 -60 -11 -60 -15 0 -5 -18 -11 -40 -15 -22 -4
-40 -10 -40 -15 0 -4 -20 -11 -45 -14 -25 -4 -45 -11 -45 -16 0 -5 -16 -12
-35 -16 -19 -3 -35 -10 -35 -15 0 -5 -18 -12 -40 -15 -22 -4 -40 -10 -40 -14
0 -4 -20 -13 -45 -20 -25 -7 -45 -16 -45 -21 0 -5 -11 -11 -25 -15 -14 -3 -25
-10 -25 -14 0 -5 -14 -11 -30 -15 -17 -4 -30 -10 -30 -15 0 -5 -14 -11 -30
-15 -17 -4 -30 -10 -30 -15 0 -5 -14 -11 -30 -15 -16 -4 -30 -10 -30 -15 0 -5
-13 -11 -29 -15 -16 -3 -32 -12 -34 -20 -3 -7 -19 -16 -35 -20 -17 -3 -33 -13
-36 -21 -3 -8 -11 -14 -17 -14 -6 0 -22 -11 -34 -24 -12 -13 -32 -27 -43 -31
-12 -3 -22 -11 -22 -16 0 -5 -5 -9 -12 -9 -6 0 -33 -22 -60 -50 -26 -28 -52
-50 -57 -50 -12 0 -71 -59 -71 -71 0 -5 -22 -31 -50 -57 -28 -27 -50 -52 -50
-57 0 -4 -11 -18 -24 -30 -13 -12 -27 -32 -31 -43 -3 -12 -10 -22 -15 -22 -4
0 -11 -11 -14 -25 -4 -14 -10 -25 -15 -25 -5 0 -14 -20 -21 -45 -7 -25 -16
-45 -20 -45 -4 0 -10 -19 -14 -42 -4 -23 -12 -46 -19 -50 -15 -9 -16 -366 0
-376 5 -4 13 -25 16 -46 4 -22 10 -42 15 -45 5 -3 13 -17 17 -31 9 -29 45 -66
75 -75 11 -3 20 -11 20 -16 0 -5 7 -9 15 -9 7 0 18 -6 22 -14 4 -7 15 -16 23
-19 10 -4 7 -6 -7 -6 -13 -1 -23 -5 -23 -10 0 -5 -14 -12 -30 -16 -17 -4 -30
-11 -30 -16 0 -5 -11 -9 -24 -9 -14 0 -31 -6 -39 -14 -7 -8 -33 -20 -55 -27
-23 -7 -42 -15 -42 -19 0 -5 -11 -11 -25 -14 -14 -4 -25 -11 -25 -16 0 -6 -7
-10 -15 -10 -9 0 -18 -7 -21 -15 -4 -8 -13 -15 -20 -15 -8 0 -17 -7 -20 -15
-4 -8 -12 -15 -19 -15 -7 0 -31 -18 -54 -40 -22 -22 -47 -40 -54 -40 -8 0 -20
-11 -27 -25 -7 -14 -17 -25 -22 -25 -4 0 -8 -6 -8 -13 0 -7 -9 -20 -20 -30
-11 -9 -20 -23 -20 -31 0 -8 -7 -16 -15 -20 -8 -3 -15 -12 -15 -21 0 -8 -4
-15 -9 -15 -5 0 -12 -14 -16 -30 -4 -17 -10 -30 -15 -30 -5 0 -12 -15 -15 -32
-4 -18 -11 -36 -16 -39 -12 -7 -28 -136 -29 -223 0 -77 18 -196 30 -196 4 0
10 -18 14 -40 3 -22 11 -40 16 -40 6 0 10 -7 10 -15 0 -9 7 -18 15 -21 8 -4
15 -13 15 -20 0 -8 7 -17 15 -20 8 -3 17 -15 20 -25 7 -21 70 -89 83 -89 4 0
15 -9 25 -20 9 -11 24 -20 32 -20 8 0 15 -5 15 -11 0 -5 13 -15 30 -20 16 -6
30 -15 30 -19 0 -4 11 -11 25 -14 14 -4 25 -11 25 -16 0 -5 18 -13 40 -16 22
-4 40 -10 40 -14 0 -4 16 -11 35 -14 19 -4 35 -11 35 -15 0 -5 28 -12 62 -15
35 -4 65 -11 68 -16 3 -5 51 -12 108 -16 56 -4 102 -11 102 -15 0 -5 72 -9
160 -9 88 0 160 4 160 9 0 4 48 11 107 15 59 4 110 11 113 16 3 5 29 12 58 16
28 3 52 10 52 14 0 4 25 11 55 15 30 3 55 10 55 15 0 4 18 11 40 15 22 4 40
11 40 16 0 5 18 12 40 15 22 4 40 10 40 14 0 5 23 13 50 20 28 7 50 16 50 20
0 5 14 11 30 15 16 4 30 10 30 15 0 5 14 11 30 15 17 4 30 10 30 15 0 5 10 12
22 16 12 3 28 13 36 20 7 8 20 14 28 14 8 0 14 4 14 9 0 5 13 12 29 16 16 3
32 12 34 20 3 7 19 16 35 20 17 3 33 13 36 21 3 8 12 14 21 14 8 0 15 4 15 10
0 5 11 12 24 16 14 3 27 12 30 20 3 8 12 14 20 14 7 0 16 7 20 15 3 8 12 15
21 15 8 0 15 4 15 8 0 5 12 15 28 23 15 7 36 23 48 35 11 12 30 25 41 28 11 3
26 18 33 31 7 14 19 25 27 25 7 0 21 9 30 20 31 36 43 25 43 -40 0 -33 4 -60
9 -60 5 0 12 -29 16 -65 3 -36 11 -65 15 -65 5 0 12 -16 16 -35 3 -19 9 -35
13 -35 4 0 13 -16 21 -35 8 -19 17 -35 21 -35 4 0 11 -10 14 -21 8 -23 92
-109 108 -109 4 0 15 -6 22 -12 34 -31 45 -38 69 -44 14 -3 26 -10 26 -15 0
-5 18 -12 40 -15 22 -4 40 -10 40 -15 0 -4 21 -11 48 -15 26 -4 50 -11 53 -15
3 -5 40 -12 82 -15 42 -4 77 -11 77 -15 0 -5 16 -9 35 -9 19 0 35 4 35 9 0 4
39 11 87 14 48 4 89 11 91 17 2 5 16 10 32 10 16 0 35 6 42 13 7 8 30 17 51
21 20 4 37 11 37 16 0 4 14 11 30 15 17 4 30 11 30 16 0 5 11 11 25 15 14 3
25 9 25 13 0 5 18 14 40 21 22 7 40 17 40 22 0 4 7 8 15 8 9 0 18 7 21 15 4 8
11 15 18 15 6 0 19 9 29 20 9 11 23 20 31 20 8 0 16 7 20 15 3 8 11 15 17 15
6 0 21 10 33 23 11 12 33 28 49 34 15 7 27 17 27 23 0 5 7 10 15 10 9 0 18 7
21 15 9 22 22 18 30 -7 3 -12 13 -28 20 -36 8 -7 14 -20 14 -28 0 -8 4 -14 9
-14 5 0 13 -9 16 -20 4 -12 22 -36 41 -55 19 -19 34 -41 34 -50 0 -8 7 -15 14
-15 8 0 27 -11 42 -25 15 -14 33 -25 40 -25 8 0 14 -4 14 -9 0 -5 11 -12 25
-15 14 -4 25 -11 25 -16 0 -5 17 -12 38 -16 20 -4 40 -11 43 -15 3 -5 40 -12
82 -15 42 -4 77 -11 77 -15 0 -5 29 -9 65 -9 36 0 65 4 65 9 0 4 27 11 60 15
33 4 60 11 60 16 0 4 18 11 40 15 22 4 40 11 40 16 0 5 18 12 40 15 22 4 40
10 40 14 0 5 13 11 29 15 16 3 32 12 34 20 3 7 19 16 36 20 17 4 31 11 31 16
0 5 7 9 15 9 9 0 18 6 21 14 3 8 17 17 31 21 13 3 30 10 36 16 47 39 61 49 69
49 5 0 19 10 31 23 12 12 34 29 50 36 15 8 27 18 27 23 0 4 7 8 15 8 8 0 19 9
25 20 6 11 15 20 21 20 6 0 24 14 41 30 16 17 34 30 39 30 6 0 37 27 69 60 32
33 62 60 66 60 3 0 31 25 61 55 30 30 58 55 62 55 4 0 14 12 22 28 8 15 44 58
81 95 38 37 68 72 68 76 0 5 11 19 25 32 13 13 25 28 25 32 0 5 7 16 16 24 14
14 15 12 8 -23 -4 -21 -11 -42 -15 -45 -5 -3 -12 -33 -15 -67 -4 -34 -11 -62
-15 -62 -5 0 -9 -72 -9 -160 0 -88 4 -160 9 -160 5 0 11 -22 15 -50 4 -27 11
-50 16 -50 4 0 11 -14 15 -30 4 -17 10 -30 15 -30 5 0 11 -13 15 -29 3 -16 13
-32 21 -35 8 -3 14 -12 14 -21 0 -8 4 -15 9 -15 5 0 12 -9 16 -20 9 -27 79
-97 107 -106 12 -3 28 -13 36 -20 7 -8 22 -14 32 -14 10 0 20 -5 22 -10 2 -6
21 -13 43 -17 22 -3 43 -11 47 -17 10 -15 336 -15 346 0 4 6 28 14 55 18 26 4
47 11 47 16 0 5 16 12 35 16 19 3 35 10 35 14 0 5 14 11 30 15 17 4 30 11 30
16 0 5 6 9 14 9 8 0 21 6 28 13 7 7 28 19 46 26 17 7 32 17 32 22 0 5 7 9 15
9 9 0 18 7 21 15 4 8 12 15 20 15 8 0 22 9 31 20 10 11 22 20 27 20 5 0 19 11
32 25 13 14 27 25 31 25 5 0 16 8 24 18 20 22 58 52 65 52 3 0 57 52 120 115
63 63 119 115 124 115 6 0 10 -16 10 -35 0 -19 4 -35 9 -35 5 0 11 -22 15 -50
4 -27 11 -50 16 -50 5 0 12 -17 16 -37 4 -21 12 -43 18 -50 27 -31 34 -41 41
-63 4 -13 17 -33 29 -44 12 -12 27 -33 35 -47 7 -15 25 -33 40 -40 14 -8 35
-23 47 -35 11 -12 31 -25 42 -29 12 -3 22 -11 22 -16 0 -5 6 -9 14 -9 8 0 21
-6 28 -13 7 -8 31 -17 53 -21 22 -4 42 -12 45 -17 3 -5 38 -11 78 -15 40 -4
72 -11 72 -15 0 -5 45 -9 100 -9 55 0 100 4 100 8 0 5 46 12 102 16 56 3 105
10 108 15 3 5 33 12 68 16 34 4 62 11 62 15 0 5 20 12 45 16 25 3 45 10 45 14
0 5 18 11 40 15 22 4 40 11 40 16 0 5 18 12 40 15 22 4 40 10 40 14 0 5 23 14
50 21 28 7 50 16 50 20 0 4 14 10 30 14 17 4 30 10 30 15 0 5 13 11 29 15 16
3 32 13 35 21 3 8 12 14 21 14 8 0 15 5 15 10 0 6 7 10 15 10 9 0 18 7 21 15
4 8 12 15 19 15 8 0 20 6 27 13 7 6 26 19 43 27 16 8 39 25 51 38 12 12 25 22
29 22 4 0 23 16 42 35 19 19 38 35 43 35 12 0 240 228 240 240 0 4 11 18 25
31 13 13 25 30 25 37 0 6 4 12 9 12 5 0 12 12 16 27 3 15 12 31 18 35 16 10
17 406 1 416 -6 4 -14 24 -18 44 -5 30 -12 38 -36 43 -35 8 -90 -2 -90 -16 0
-5 -7 -9 -15 -9 -9 0 -18 -7 -21 -15 -4 -8 -12 -15 -20 -15 -7 0 -28 -16 -47
-35 -19 -19 -37 -35 -41 -35 -5 0 -89 -81 -188 -180 -99 -99 -184 -180 -189
-180 -5 0 -26 -18 -48 -40 -21 -22 -43 -40 -48 -40 -5 0 -16 -8 -25 -17 -24
-27 -61 -53 -74 -53 -7 0 -14 -6 -17 -14 -3 -8 -19 -17 -36 -21 -17 -4 -31
-11 -31 -16 0 -5 -6 -9 -14 -9 -8 0 -21 -6 -28 -13 -7 -8 -27 -17 -43 -21 -16
-4 -32 -12 -36 -17 -3 -5 -23 -12 -45 -16 -21 -3 -42 -11 -46 -17 -10 -15
-276 -15 -286 0 -4 6 -22 15 -39 19 -18 3 -33 11 -33 16 0 5 -7 9 -15 9 -8 0
-23 9 -32 20 -10 11 -21 20 -25 20 -12 0 -58 46 -58 59 0 6 -4 11 -9 11 -5 0
-13 10 -17 23 -4 12 -12 25 -18 29 -16 11 -15 346 1 356 7 5 15 40 19 80 4 40
11 72 15 72 5 0 9 9 9 20 0 11 9 28 20 37 11 10 20 22 20 27 0 5 27 35 60 68
33 32 60 63 60 68 0 5 25 33 55 63 30 29 55 57 55 61 0 5 24 32 54 61 30 30
57 62 60 73 4 10 17 25 30 31 13 7 30 25 37 40 8 14 31 43 51 63 21 21 38 41
38 45 0 3 20 26 45 50 25 23 45 47 45 53 0 6 16 26 35 46 19 19 35 37 35 41 0
3 16 21 35 40 19 19 35 38 35 44 0 6 13 22 29 37 16 15 32 36 35 48 3 11 17
27 31 34 14 7 27 22 31 33 3 10 24 36 45 57 21 21 39 42 39 46 0 9 32 51 75
96 14 15 25 31 25 35 0 5 13 20 30 33 16 14 29 31 30 38 0 6 11 22 25 34 14
12 25 26 25 31 0 5 14 22 30 39 17 16 30 35 30 41 1 7 14 23 30 37 17 13 30
28 30 33 0 4 11 18 25 31 14 13 25 28 25 34 0 5 11 20 25 33 13 13 25 28 25
33 0 5 11 19 25 32 14 13 25 28 25 34 0 6 7 13 15 16 8 3 17 15 21 26 3 12 17
31 30 43 13 12 24 26 24 31 0 9 34 53 65 85 8 9 15 19 15 24 0 4 11 18 24 30
13 12 27 32 31 43 3 12 11 22 16 22 5 0 14 11 19 25 5 14 14 25 19 25 5 0 13
10 16 22 4 11 18 31 31 43 13 12 24 26 24 31 0 5 8 17 18 26 27 25 52 61 52
75 0 7 5 13 10 13 6 0 16 12 23 28 6 15 22 37 35 48 12 12 22 27 22 33 0 6 7
14 15 17 8 4 15 13 15 20 0 8 7 17 15 20 8 4 15 12 15 20 0 8 9 22 20 31 11
10 20 23 20 30 0 7 4 13 9 13 5 0 14 14 20 30 5 17 15 30 20 30 6 0 11 7 11
15 0 9 6 18 14 21 8 3 17 16 20 30 4 13 11 24 16 24 6 0 10 7 10 15 0 9 7 18
15 21 8 3 17 15 21 27 4 12 12 27 18 34 22 24 31 38 46 68 8 17 21 36 28 43 6
7 12 20 12 28 0 8 5 14 10 14 6 0 10 7 10 15 0 9 7 18 15 21 8 4 15 13 15 20
0 8 6 17 14 20 8 3 18 19 21 35 4 16 10 29 15 29 5 0 14 16 20 35 6 19 15 35
20 35 4 0 11 11 14 25 4 14 10 25 15 25 5 0 12 13 16 29 3 16 13 32 21 35 8 3
14 12 14 21 0 8 4 15 9 15 5 0 12 14 16 30 4 17 10 30 15 30 5 0 11 14 15 30
4 17 10 30 14 30 4 0 13 16 21 35 8 19 17 35 21 35 4 0 10 14 14 30 4 17 10
30 15 30 5 0 11 14 15 30 4 17 10 30 15 30 5 0 11 14 15 30 4 17 11 30 15 30
5 0 12 16 16 35 3 19 10 35 14 35 5 0 11 14 15 30 4 17 10 30 14 30 4 0 13 25
20 55 7 30 16 55 20 55 5 0 12 24 15 52 4 29 13 56 19 60 16 10 17 306 1 316
-6 4 -15 22 -19 40 -3 17 -10 32 -15 32 -5 0 -11 9 -15 19 -8 27 -78 98 -104
106 -12 3 -21 10 -21 15 0 5 -13 11 -30 15 -16 4 -30 10 -30 14 0 10 -92 31
-136 31 -19 0 -34 5 -34 10 0 6 -20 10 -45 10 -25 0 -45 -4 -45 -10z m-150
-600 c11 -7 14 -25 12 -72 -1 -34 -6 -65 -11 -68 -5 -3 -12 -22 -16 -43 -4
-20 -11 -37 -15 -37 -4 0 -10 -18 -14 -40 -3 -22 -11 -40 -16 -40 -5 0 -12
-11 -16 -25 -3 -14 -10 -25 -14 -25 -5 0 -11 -13 -15 -30 -4 -16 -10 -30 -14
-30 -5 0 -14 -20 -21 -44 -7 -25 -18 -47 -26 -50 -8 -3 -14 -12 -14 -21 0 -8
-4 -15 -9 -15 -5 0 -12 -13 -16 -30 -4 -16 -11 -30 -16 -30 -5 0 -11 -11 -15
-25 -3 -14 -10 -25 -15 -25 -5 0 -9 -7 -9 -15 0 -9 -6 -18 -14 -21 -8 -3 -18
-19 -21 -35 -4 -16 -11 -29 -16 -29 -6 0 -15 -13 -20 -30 -6 -16 -15 -30 -19
-30 -5 0 -11 -13 -15 -29 -3 -16 -13 -32 -21 -35 -8 -3 -14 -12 -14 -20 0 -7
-7 -16 -15 -20 -8 -3 -15 -12 -15 -21 0 -8 -4 -15 -10 -15 -5 0 -12 -11 -16
-24 -3 -14 -12 -27 -20 -30 -8 -3 -14 -12 -14 -21 0 -8 -5 -15 -11 -15 -5 0
-15 -13 -20 -30 -6 -16 -15 -30 -20 -30 -5 0 -9 -7 -9 -15 0 -9 -6 -18 -14
-21 -8 -3 -17 -16 -20 -30 -4 -13 -11 -24 -16 -24 -6 0 -10 -7 -10 -15 0 -9
-7 -18 -15 -21 -8 -4 -15 -12 -15 -20 0 -7 -6 -17 -13 -21 -7 -4 -20 -24 -27
-43 -8 -19 -24 -44 -35 -55 -12 -11 -24 -28 -28 -37 -3 -10 -11 -18 -17 -18
-5 0 -10 -6 -10 -13 0 -7 -9 -20 -20 -30 -11 -9 -20 -24 -20 -32 0 -8 -5 -15
-10 -15 -6 0 -14 -8 -17 -17 -4 -10 -15 -27 -25 -37 -10 -11 -18 -25 -18 -32
0 -6 -7 -14 -15 -18 -8 -3 -15 -12 -15 -21 0 -8 -4 -15 -9 -15 -5 0 -13 -10
-16 -22 -4 -11 -18 -31 -31 -43 -13 -12 -24 -28 -24 -34 0 -6 -7 -14 -15 -17
-8 -4 -15 -13 -15 -20 0 -8 -6 -17 -14 -20 -8 -3 -19 -19 -25 -35 -5 -16 -15
-29 -20 -29 -6 0 -11 -7 -11 -15 0 -8 -9 -23 -20 -32 -11 -10 -20 -23 -20 -29
0 -7 -7 -14 -15 -18 -8 -3 -15 -11 -15 -17 0 -6 -11 -22 -24 -34 -13 -12 -27
-32 -31 -43 -3 -12 -11 -22 -16 -22 -5 0 -14 -11 -19 -25 -10 -27 -24 -46 -52
-73 -10 -9 -18 -21 -18 -26 0 -5 -11 -19 -24 -31 -13 -12 -27 -32 -31 -43 -3
-12 -11 -22 -16 -22 -5 0 -14 -11 -19 -25 -5 -14 -14 -25 -20 -25 -5 0 -10 -7
-10 -15 0 -8 -9 -23 -20 -32 -11 -10 -20 -22 -20 -27 0 -5 -11 -19 -24 -31
-13 -12 -27 -31 -30 -43 -4 -11 -13 -23 -21 -26 -8 -3 -15 -12 -15 -21 0 -8
-5 -15 -10 -15 -6 0 -16 -12 -23 -27 -6 -16 -22 -38 -34 -49 -13 -12 -23 -25
-23 -30 0 -5 -13 -20 -30 -34 -16 -14 -30 -31 -30 -38 0 -7 -7 -15 -15 -18 -8
-3 -17 -15 -21 -26 -3 -12 -19 -34 -35 -49 -16 -16 -29 -33 -29 -39 0 -6 -7
-13 -15 -16 -8 -3 -17 -15 -21 -27 -4 -12 -20 -32 -35 -46 -16 -14 -29 -29
-29 -34 0 -5 -13 -22 -30 -39 -16 -16 -30 -33 -30 -38 0 -5 -16 -24 -35 -43
-19 -19 -35 -39 -35 -46 0 -6 -4 -11 -10 -11 -5 0 -10 9 -10 20 0 11 4 20 9
20 5 0 12 20 15 45 4 25 11 45 16 45 5 0 12 20 16 45 3 25 10 45 14 45 4 0 13
25 20 55 7 30 16 55 20 55 4 0 10 18 14 40 3 22 10 40 15 40 5 0 12 16 15 35
4 19 11 35 15 35 5 0 12 16 15 35 4 19 11 35 15 35 5 0 11 18 15 40 3 22 10
40 15 40 5 0 12 16 15 35 4 19 11 35 16 35 4 0 14 23 21 50 7 28 16 50 20 50
4 0 10 14 14 30 4 17 10 30 15 30 5 0 11 14 15 30 4 17 10 30 15 30 5 0 11 14
15 30 4 17 10 30 15 30 4 0 11 11 14 25 4 14 10 25 15 25 5 0 12 14 16 30 4
17 10 30 14 30 4 0 13 18 20 40 6 22 16 40 21 40 6 0 10 6 10 13 0 8 9 24 20
37 11 13 20 29 20 37 0 7 5 13 10 13 6 0 10 7 10 15 0 9 6 18 14 21 8 3 18 18
21 34 3 16 13 31 21 34 8 3 14 12 14 21 0 8 4 15 9 15 5 0 14 14 20 30 5 17
14 30 19 30 6 0 13 12 16 26 4 14 11 31 17 37 40 49 49 62 49 72 0 7 7 15 15
19 8 3 15 12 15 21 0 8 4 15 9 15 5 0 14 14 20 30 5 17 15 30 20 30 6 0 11 7
11 15 0 9 7 18 15 21 8 4 15 12 15 20 0 8 9 22 20 31 11 10 20 23 20 30 0 7 4
13 10 13 5 0 12 11 16 24 3 14 12 27 20 30 8 3 14 12 14 21 0 8 5 15 10 15 6
0 16 12 23 28 6 15 17 31 24 35 7 4 13 13 13 19 0 6 11 21 25 34 14 13 25 27
25 31 0 11 29 49 53 71 9 9 17 22 17 29 0 7 4 13 8 13 5 0 15 12 23 28 7 15
24 37 36 49 13 12 23 27 23 33 0 6 7 13 15 16 8 4 15 12 15 20 0 8 9 22 20 31
11 10 20 22 20 27 0 5 10 18 23 30 12 12 28 33 36 49 8 15 18 27 23 27 4 0 8
7 8 15 0 9 7 18 15 21 8 3 17 15 21 27 4 12 20 32 35 46 16 14 29 29 29 34 0
4 14 21 30 37 17 16 30 34 30 39 0 5 14 23 30 39 17 17 30 35 30 39 0 5 16 23
35 39 19 16 35 32 35 36 0 11 28 44 83 97 108 104 147 144 147 152 0 5 11 11
25 15 14 3 25 10 25 14 0 17 58 24 80 10z m-3860 -2740 c0 -5 -4 -10 -10 -10
-5 0 -10 -7 -10 -15 0 -9 -7 -18 -15 -21 -8 -3 -17 -15 -20 -25 -4 -11 -20
-34 -36 -52 -51 -56 -57 -65 -64 -86 -3 -12 -11 -21 -16 -21 -5 0 -9 -6 -9
-13 0 -7 -9 -20 -20 -30 -11 -9 -20 -23 -20 -30 0 -8 -11 -19 -24 -27 -14 -7
-27 -23 -30 -36 -4 -13 -11 -24 -17 -24 -5 0 -15 -13 -20 -30 -6 -16 -15 -30
-20 -30 -5 0 -9 -5 -9 -12 0 -6 -7 -18 -15 -27 -62 -67 -74 -82 -80 -100 -3
-10 -12 -22 -20 -25 -8 -3 -15 -12 -15 -21 0 -8 -4 -15 -8 -15 -5 0 -15 -12
-23 -27 -8 -16 -24 -37 -36 -49 -13 -12 -23 -27 -23 -33 0 -6 -7 -14 -15 -17
-8 -3 -17 -15 -20 -25 -4 -11 -19 -33 -33 -49 -47 -50 -72 -81 -72 -91 0 -5
-18 -26 -40 -48 -22 -21 -40 -42 -40 -45 0 -14 -220 -226 -234 -226 -9 0 -16
-4 -16 -9 0 -12 -129 -141 -141 -141 -5 0 -36 -27 -68 -60 -32 -33 -62 -60
-66 -60 -4 0 -25 -18 -47 -40 -22 -22 -44 -40 -49 -40 -5 0 -29 -20 -52 -45
-24 -25 -47 -45 -51 -45 -4 0 -20 -12 -36 -27 -15 -16 -40 -37 -56 -48 -15
-11 -33 -26 -40 -32 -7 -7 -16 -13 -21 -13 -5 0 -20 -13 -33 -30 -14 -16 -30
-29 -36 -30 -6 0 -22 -9 -35 -20 -13 -11 -28 -23 -34 -28 -5 -4 -18 -11 -27
-15 -10 -3 -18 -10 -18 -15 0 -5 -18 -15 -40 -22 -22 -7 -40 -17 -40 -21 0 -4
-20 -11 -45 -15 -40 -6 -48 -3 -71 20 -26 25 -26 29 -22 126 2 58 8 104 15
108 6 4 14 22 18 40 3 17 10 32 15 32 4 0 10 18 14 40 3 22 11 40 16 40 5 0
15 18 21 40 7 22 16 40 21 40 4 0 8 6 8 14 0 8 6 21 14 28 7 8 17 24 20 36 4
12 11 22 16 22 5 0 11 14 15 30 4 17 11 30 16 30 5 0 11 11 15 24 3 14 12 27
20 30 8 3 14 12 14 21 0 8 4 15 8 15 5 0 14 16 22 35 8 19 17 35 22 35 4 0 8
7 8 15 0 8 9 23 20 32 11 10 20 23 20 30 0 7 4 13 10 13 5 0 12 11 16 25 3 14
10 25 15 25 5 0 13 8 16 17 4 10 17 27 30 39 13 12 23 26 23 32 0 5 11 20 25
33 13 13 25 28 25 33 0 5 20 27 45 50 25 24 45 45 45 49 0 10 29 44 68 81 81
76 162 159 162 167 0 4 10 11 21 14 12 4 41 27 65 50 23 24 51 46 62 49 10 4
25 18 32 31 7 14 19 25 27 25 7 0 21 9 30 20 10 11 23 20 30 20 7 0 13 4 13 8
0 5 12 15 28 23 15 8 32 19 39 24 7 6 18 15 26 21 7 6 23 15 35 18 12 4 22 11
22 16 0 5 13 11 29 15 16 3 32 13 35 21 3 8 12 14 21 14 8 0 15 4 15 9 0 5 14
12 30 16 17 4 30 10 30 14 0 5 20 14 45 21 25 7 45 16 45 21 0 4 16 11 35 15
19 3 35 10 35 14 0 5 19 11 43 15 23 4 44 11 48 16 3 5 27 12 55 15 27 4 52
11 55 16 3 4 53 11 112 14 59 4 107 11 107 16 0 4 11 8 25 8 14 0 25 -4 25
-10z"/>
<path d="M8408 8254 c-10 -3 -18 -9 -18 -14 0 -5 -13 -11 -30 -15 -16 -4 -30
-11 -30 -16 0 -5 -6 -9 -13 -9 -8 0 -24 -9 -37 -20 -13 -11 -29 -20 -37 -20
-7 0 -16 -7 -19 -15 -3 -8 -15 -17 -25 -20 -18 -6 -33 -18 -100 -80 -9 -8 -19
-15 -23 -15 -4 0 -21 -13 -38 -30 -16 -16 -35 -30 -42 -30 -7 0 -26 -16 -42
-35 -16 -19 -33 -35 -38 -35 -4 0 -33 -25 -62 -55 -30 -30 -59 -55 -64 -55 -6
0 -34 -25 -64 -55 -29 -30 -56 -55 -60 -55 -4 0 -44 -36 -88 -80 -44 -44 -84
-80 -89 -80 -5 0 -64 -56 -133 -125 -68 -69 -127 -125 -131 -125 -8 0 -1165
-1156 -1165 -1165 0 -4 -76 -83 -170 -177 -93 -93 -170 -173 -170 -178 0 -5
-58 -67 -130 -138 -71 -71 -130 -133 -130 -136 0 -4 -43 -50 -95 -102 -52 -53
-95 -101 -95 -107 -1 -7 -15 -23 -32 -37 -17 -14 -38 -33 -47 -44 -9 -10 -35
-38 -58 -61 -24 -24 -43 -46 -43 -49 0 -3 -31 -37 -70 -76 -38 -39 -70 -76
-70 -83 -1 -6 -15 -23 -32 -37 -46 -38 -98 -92 -98 -103 0 -5 -27 -36 -60 -68
-33 -32 -60 -60 -60 -64 0 -5 -34 -44 -92 -105 -16 -16 -28 -32 -28 -35 0 -4
-22 -28 -50 -54 -27 -26 -50 -50 -50 -55 0 -4 -6 -13 -12 -21 -7 -7 -29 -32
-48 -54 -19 -23 -54 -61 -77 -85 -24 -25 -43 -48 -43 -53 0 -4 -15 -22 -34
-39 -19 -17 -37 -41 -41 -53 -6 -21 -25 -29 -25 -11 0 6 4 10 9 10 5 0 12 11
15 25 4 14 10 25 15 25 5 0 14 20 21 45 7 25 17 45 21 45 5 0 9 6 9 13 0 8 9
24 20 37 11 13 20 29 20 37 0 7 4 13 9 13 5 0 12 13 16 30 4 17 10 30 15 30 5
0 11 14 15 30 4 16 11 30 16 30 5 0 9 7 9 15 0 9 6 18 14 21 8 3 19 25 26 50
7 24 16 44 21 44 4 0 10 14 14 30 4 17 11 30 16 30 5 0 9 7 9 15 0 9 6 18 14
21 8 3 18 19 21 35 4 16 10 29 15 29 5 0 11 14 15 30 4 16 11 30 16 30 5 0 9
6 9 13 0 8 9 24 19 36 11 13 23 36 26 52 4 16 10 29 15 29 5 0 11 14 15 30 4
17 10 30 15 30 5 0 12 10 16 22 3 12 13 28 20 36 8 7 14 20 14 28 0 8 4 14 9
14 5 0 12 14 16 30 4 17 11 30 16 30 5 0 11 11 15 25 3 14 10 25 14 25 5 0 14
17 21 37 6 21 18 44 26 51 7 7 13 20 13 28 0 8 4 14 9 14 5 0 12 12 15 26 4
15 12 32 19 40 30 34 37 44 43 68 3 14 10 26 14 26 5 0 11 14 15 31 4 17 13
33 20 36 8 2 17 18 20 34 4 16 10 29 15 29 5 0 11 14 15 30 4 17 11 30 16 30
5 0 9 7 9 15 0 9 6 18 14 21 8 3 18 19 21 35 4 16 11 29 16 29 5 0 9 7 9 15 0
9 6 18 14 21 8 3 19 25 26 50 7 24 17 44 21 44 5 0 9 7 9 15 0 9 6 18 14 21 8
3 18 19 21 35 4 16 10 29 15 29 5 0 11 14 15 30 4 17 10 30 15 30 5 0 12 10
16 22 3 12 13 28 20 36 8 7 14 20 14 28 0 8 4 14 8 14 5 0 15 18 22 40 7 22
16 40 21 40 4 0 10 12 13 26 4 15 12 32 19 40 30 34 37 44 43 68 3 14 10 26
15 26 5 0 9 7 9 15 0 9 6 18 14 21 8 3 18 19 21 35 4 16 10 29 15 29 5 0 11
14 15 31 4 17 13 33 20 36 8 2 17 18 20 34 4 16 11 29 16 29 5 0 9 6 9 13 0 8
9 24 20 37 11 13 20 29 20 37 0 7 4 13 9 13 5 0 12 14 16 30 4 17 11 30 16 30
5 0 11 11 15 25 3 14 10 25 14 25 5 0 14 16 20 35 6 19 15 35 20 35 5 0 11 14
15 30 4 17 10 30 15 30 5 0 11 13 15 29 3 16 13 32 21 35 8 3 14 12 14 21 0 8
4 15 9 15 5 0 12 13 16 29 3 16 12 32 20 34 7 3 16 19 20 36 4 17 10 31 15 31
5 0 11 13 15 29 3 16 13 32 21 35 8 3 14 12 14 21 0 8 4 15 9 15 5 0 12 14 16
30 4 17 11 30 16 30 5 0 9 6 9 13 0 8 9 24 20 37 11 13 20 29 20 37 0 7 4 13
8 13 5 0 14 18 21 40 6 22 16 40 20 40 5 0 12 11 15 25 4 14 10 25 15 25 5 0
12 14 16 30 4 17 10 30 15 30 5 0 11 14 15 30 4 17 10 30 15 30 5 0 12 10 16
22 3 12 13 28 20 36 8 7 14 20 14 28 0 8 4 14 9 14 4 0 14 20 21 45 7 25 16
45 21 45 4 0 11 16 15 35 3 19 10 35 15 35 5 0 9 7 9 15 0 8 -4 15 -10 15 -5
0 -10 11 -10 24 0 14 -11 31 -26 42 -14 10 -32 24 -39 31 -7 7 -26 15 -41 19
-16 4 -32 11 -35 17 -4 5 -41 14 -83 20 -42 6 -76 15 -76 19 0 4 -49 8 -110 8
-67 0 -110 -4 -110 -10 0 -5 -9 -10 -21 -10 -25 0 -60 -18 -75 -38 -13 -17
-80 -9 -87 11 -5 16 -205 17 -215 1 -4 -6 -17 -14 -29 -18 -13 -4 -23 -11 -23
-16 0 -4 -11 -11 -25 -14 -14 -4 -25 -11 -25 -16 0 -6 -7 -10 -15 -10 -9 0
-18 -7 -21 -15 -4 -8 -12 -15 -20 -15 -8 0 -22 -9 -31 -20 -10 -11 -21 -20
-26 -20 -4 0 -21 -13 -37 -30 -16 -16 -34 -30 -39 -30 -5 0 -32 -22 -59 -50
-27 -27 -52 -50 -56 -50 -14 0 -557 -558 -564 -579 -2 -7 -35 -43 -73 -81 -38
-37 -69 -71 -69 -76 0 -4 -22 -29 -50 -56 -27 -26 -50 -52 -50 -57 0 -5 -20
-30 -45 -54 -25 -25 -45 -49 -45 -54 0 -5 -16 -23 -35 -40 -19 -17 -35 -36
-35 -41 0 -5 -21 -32 -47 -60 -93 -100 -113 -123 -113 -132 0 -5 -16 -24 -35
-43 -19 -19 -35 -37 -35 -41 0 -3 -18 -23 -40 -45 -22 -21 -40 -43 -40 -48 0
-6 -16 -26 -35 -46 -19 -20 -35 -40 -35 -44 0 -4 -16 -21 -35 -37 -19 -16 -35
-34 -35 -39 0 -4 -13 -22 -30 -39 -16 -16 -30 -35 -30 -42 0 -6 -13 -23 -30
-36 -16 -14 -29 -30 -30 -35 0 -6 -13 -22 -30 -35 -16 -14 -29 -30 -30 -37 0
-6 -16 -28 -35 -47 -19 -20 -35 -40 -35 -44 0 -4 -13 -19 -30 -32 -16 -14 -29
-30 -30 -37 0 -6 -13 -25 -30 -41 -16 -17 -30 -35 -30 -41 0 -6 -9 -15 -20
-21 -11 -6 -20 -17 -20 -25 0 -7 -13 -27 -30 -43 -16 -17 -30 -34 -30 -39 0
-5 -9 -16 -20 -26 -11 -9 -20 -23 -20 -30 0 -8 -11 -20 -25 -27 -14 -8 -28
-24 -31 -37 -4 -13 -10 -23 -15 -23 -5 0 -15 -12 -22 -27 -6 -16 -24 -39 -39
-53 -16 -13 -28 -28 -28 -33 0 -4 -11 -18 -25 -31 -14 -13 -25 -29 -25 -35 0
-6 -7 -14 -15 -17 -8 -3 -17 -15 -21 -26 -3 -11 -15 -29 -25 -39 -10 -10 -19
-25 -19 -32 0 -8 -11 -20 -25 -27 -14 -7 -25 -19 -25 -27 0 -7 -9 -21 -20 -30
-11 -10 -20 -21 -20 -26 0 -4 -11 -20 -25 -35 -43 -46 -75 -87 -75 -96 0 -5
-11 -19 -24 -31 -13 -12 -27 -31 -30 -43 -4 -11 -13 -23 -21 -26 -8 -3 -15
-12 -15 -20 0 -7 -7 -16 -15 -20 -8 -3 -15 -12 -15 -21 0 -8 -4 -15 -8 -15 -5
0 -15 -12 -23 -27 -7 -16 -23 -37 -35 -49 -12 -11 -25 -30 -28 -42 -4 -11 -13
-23 -21 -26 -8 -3 -15 -10 -15 -16 0 -6 -11 -21 -25 -34 -14 -13 -25 -28 -25
-34 0 -6 -6 -15 -13 -19 -7 -4 -18 -20 -24 -35 -7 -16 -17 -28 -23 -28 -5 0
-10 -6 -10 -13 0 -7 -9 -20 -20 -30 -11 -9 -20 -23 -20 -31 0 -8 -7 -16 -15
-20 -8 -3 -15 -11 -15 -17 0 -6 -11 -22 -25 -35 -14 -13 -25 -27 -25 -31 0 -9
-24 -44 -52 -73 -9 -10 -19 -27 -23 -39 -3 -12 -11 -21 -16 -21 -5 0 -9 -6 -9
-13 0 -7 -8 -20 -17 -29 -24 -22 -53 -60 -53 -71 0 -4 -10 -18 -23 -30 -12
-12 -29 -35 -37 -52 -8 -16 -24 -39 -35 -50 -12 -11 -24 -28 -28 -38 -3 -9
-11 -17 -16 -17 -5 0 -12 -11 -15 -25 -4 -14 -11 -25 -16 -25 -6 0 -10 -7 -10
-15 0 -9 -6 -18 -14 -21 -8 -3 -19 -19 -25 -35 -5 -16 -15 -29 -20 -29 -6 0
-11 -6 -11 -13 0 -7 -9 -20 -20 -30 -11 -9 -20 -23 -20 -31 0 -8 -7 -16 -15
-20 -8 -3 -15 -12 -15 -21 0 -8 -4 -15 -10 -15 -5 0 -12 -11 -16 -24 -3 -14
-12 -27 -20 -30 -8 -3 -14 -12 -14 -21 0 -8 -5 -15 -10 -15 -6 0 -16 -12 -23
-27 -6 -16 -17 -32 -24 -36 -7 -4 -13 -12 -13 -18 0 -5 -5 -15 -10 -22 -41
-48 -50 -62 -50 -72 0 -7 -7 -15 -15 -19 -8 -3 -15 -12 -15 -21 0 -8 -4 -15
-10 -15 -5 0 -12 -11 -16 -25 -3 -14 -10 -25 -15 -25 -5 0 -14 -11 -19 -25 -5
-14 -14 -25 -20 -25 -5 0 -10 -7 -10 -15 0 -8 -9 -23 -20 -32 -11 -10 -20 -23
-20 -30 0 -7 -4 -13 -10 -13 -5 0 -12 -11 -16 -24 -3 -14 -12 -27 -20 -30 -8
-3 -14 -12 -14 -20 0 -7 -7 -16 -15 -20 -8 -3 -15 -12 -15 -21 0 -8 -4 -15 -8
-15 -5 0 -15 -18 -22 -40 -7 -22 -17 -40 -22 -40 -5 0 -12 -8 -15 -17 -4 -10
-11 -22 -15 -28 -5 -5 -17 -21 -28 -34 -11 -13 -20 -30 -20 -36 0 -7 -7 -15
-15 -19 -8 -3 -15 -12 -15 -21 0 -8 -4 -15 -9 -15 -5 0 -14 -13 -20 -30 -5
-16 -14 -30 -20 -30 -5 0 -12 -13 -16 -29 -3 -16 -13 -32 -21 -35 -8 -3 -14
-12 -14 -21 0 -8 -4 -15 -10 -15 -5 0 -12 -11 -16 -25 -3 -14 -10 -25 -15 -25
-5 0 -9 -7 -9 -15 0 -9 -7 -18 -15 -21 -8 -4 -15 -12 -15 -20 0 -7 -6 -17 -14
-21 -7 -4 -19 -25 -25 -46 -7 -20 -16 -37 -21 -37 -4 0 -11 -12 -14 -26 -4
-15 -12 -32 -19 -40 -30 -34 -37 -44 -43 -68 -3 -14 -10 -26 -14 -26 -5 0 -11
-14 -15 -30 -4 -17 -11 -30 -16 -30 -5 0 -9 -6 -9 -14 0 -8 -7 -21 -15 -29
-19 -19 -34 -88 -35 -152 0 -57 16 -125 30 -125 6 0 10 -5 10 -12 0 -17 78
-87 105 -94 14 -3 25 -10 25 -14 0 -5 13 -11 30 -15 16 -4 30 -10 30 -15 0 -4
19 -11 43 -15 23 -4 44 -11 48 -16 3 -5 27 -12 55 -15 27 -4 52 -11 55 -16 4
-6 51 -11 105 -11 l100 -2 37 36 c20 20 37 41 37 48 0 6 4 11 9 11 4 0 14 20
21 45 7 25 16 45 21 45 4 0 10 13 14 30 4 16 10 30 15 30 5 0 11 13 15 29 3
16 13 32 21 35 8 3 14 12 14 21 0 8 4 15 9 15 5 0 12 13 16 30 4 16 10 30 15
30 5 0 11 14 15 30 4 17 10 30 14 30 4 0 13 16 20 35 7 19 16 35 21 35 5 0 11
13 15 30 4 16 10 30 15 30 5 0 11 13 15 29 3 16 13 32 21 35 8 3 14 12 14 21
0 8 4 15 9 15 5 0 12 13 16 29 3 16 13 32 21 35 8 3 14 12 14 21 0 8 4 15 9
15 5 0 12 13 16 29 3 16 15 39 26 52 10 12 19 28 19 36 0 7 4 13 10 13 5 0 12
11 16 25 3 14 10 25 15 25 5 0 9 7 9 15 0 9 6 18 14 21 8 3 18 18 21 34 3 16
12 31 20 33 7 3 16 19 20 36 4 17 11 31 16 31 5 0 11 11 15 25 3 14 10 25 15
25 5 0 9 7 9 15 0 9 7 18 15 21 8 4 15 13 15 20 0 8 6 17 14 20 8 3 18 19 21
35 4 16 11 29 16 29 5 0 11 11 15 24 3 14 12 27 19 30 7 2 16 18 20 34 3 17
13 33 21 36 8 3 14 12 14 21 0 8 4 15 10 15 5 0 12 11 16 24 3 14 12 27 20 30
8 3 14 10 14 16 0 6 6 18 13 25 29 33 37 45 37 54 0 5 6 16 13 23 6 7 19 27
27 43 8 17 21 36 28 43 6 7 12 19 12 27 0 7 7 15 15 19 8 3 15 12 15 20 0 7 7
16 15 20 8 3 15 12 15 21 0 8 4 15 10 15 5 0 12 11 16 24 3 14 12 27 20 30 8
3 14 12 14 21 0 8 5 15 11 15 5 0 15 13 20 30 6 17 15 30 20 30 5 0 9 6 9 13
0 7 9 20 20 30 11 9 20 23 20 31 0 8 7 16 15 20 8 3 15 12 15 20 0 7 7 16 15
20 8 3 15 12 15 21 0 8 4 15 9 15 5 0 14 14 20 30 5 17 15 30 20 30 6 0 13 11
17 24 3 14 12 27 20 30 8 3 14 12 14 20 0 7 7 16 15 20 8 3 15 12 15 21 0 8 4
15 9 15 5 0 13 10 16 22 4 11 17 31 29 42 12 12 28 34 36 51 8 16 24 39 36 50
11 11 23 28 27 38 3 9 11 17 17 17 5 0 10 7 10 15 0 8 9 23 20 32 11 10 20 23
20 29 0 7 7 14 15 18 8 3 15 12 15 21 0 8 4 15 8 15 5 0 15 12 23 28 7 15 24
37 36 49 13 12 23 26 23 30 0 11 29 49 53 71 9 9 17 21 17 26 0 5 10 18 23 30
12 11 28 33 34 49 7 15 17 27 23 27 5 0 10 7 10 15 0 9 7 18 15 21 8 3 17 15
21 26 3 12 17 31 30 43 13 12 24 26 24 31 0 5 9 17 20 27 11 9 20 23 20 29 0
7 9 19 20 26 11 7 20 17 20 23 0 7 11 22 24 34 13 12 27 31 30 43 4 11 13 23
21 26 8 3 15 11 15 17 0 6 11 22 25 35 14 13 25 27 25 32 0 6 11 20 25 33 13
13 25 28 25 33 0 5 11 19 25 32 14 13 25 28 25 34 0 6 7 13 15 16 8 3 17 15
21 27 3 11 19 32 34 46 15 14 31 36 34 48 4 11 13 24 21 27 8 3 15 11 15 18 1
7 14 24 30 38 17 13 30 28 30 33 0 5 13 22 30 39 17 16 30 34 30 39 0 5 13 23
30 39 16 16 30 33 30 38 0 4 13 19 30 32 16 14 29 30 30 37 0 6 14 25 30 41
17 17 30 35 30 41 0 6 9 15 19 21 11 5 23 20 27 32 4 12 20 33 35 47 16 14 29
29 29 34 0 5 18 26 40 47 22 21 40 42 40 48 0 5 18 28 40 50 22 22 40 43 40
47 0 4 18 24 40 45 22 21 40 42 40 47 0 5 8 16 18 24 23 22 52 58 52 66 0 4
20 25 45 49 25 23 45 45 45 49 0 4 15 23 33 40 38 39 67 73 67 81 0 3 27 31
60 63 33 32 60 62 60 67 0 5 8 17 18 25 9 9 24 25 33 35 25 29 59 55 59 45 0
-5 -6 -16 -14 -23 -7 -8 -17 -24 -20 -36 -4 -12 -11 -22 -15 -22 -5 0 -14 -20
-21 -44 -7 -25 -18 -47 -26 -50 -8 -3 -14 -12 -14 -21 0 -8 -4 -15 -9 -15 -5
0 -12 -13 -16 -29 -3 -16 -13 -32 -21 -35 -8 -3 -14 -12 -14 -21 0 -8 -4 -15
-9 -15 -5 0 -12 -12 -15 -26 -4 -15 -12 -32 -19 -40 -29 -32 -35 -42 -47 -79
-7 -22 -19 -46 -27 -53 -7 -7 -13 -20 -13 -28 0 -8 -4 -14 -10 -14 -5 0 -10
-6 -10 -14 0 -8 -6 -21 -14 -28 -7 -8 -17 -24 -20 -36 -4 -12 -11 -22 -16 -22
-5 0 -11 -13 -15 -30 -4 -16 -10 -30 -15 -30 -5 0 -11 -13 -15 -30 -4 -16 -10
-30 -15 -30 -5 0 -14 -16 -21 -35 -7 -19 -16 -35 -20 -35 -4 0 -10 -13 -14
-30 -4 -16 -11 -30 -16 -30 -5 0 -9 -6 -9 -13 0 -8 -9 -24 -20 -37 -11 -13
-20 -29 -20 -37 0 -7 -4 -13 -9 -13 -5 0 -12 -13 -16 -30 -4 -16 -10 -30 -15
-30 -5 0 -11 -13 -15 -30 -4 -16 -10 -30 -15 -30 -5 0 -14 -16 -20 -35 -6 -19
-15 -35 -20 -35 -5 0 -11 -13 -15 -30 -4 -16 -10 -30 -15 -30 -5 0 -11 -13
-15 -30 -4 -16 -11 -30 -16 -30 -5 0 -11 -11 -15 -25 -3 -14 -10 -25 -14 -25
-5 0 -11 -13 -15 -30 -4 -16 -10 -30 -15 -30 -5 0 -14 -17 -21 -37 -6 -21 -18
-44 -26 -51 -7 -7 -13 -20 -13 -28 0 -8 -4 -14 -9 -14 -5 0 -12 -13 -16 -30
-4 -17 -10 -30 -15 -30 -5 0 -11 -13 -15 -30 -4 -16 -10 -30 -15 -30 -5 0 -11
-13 -15 -29 -3 -16 -13 -32 -21 -35 -8 -3 -14 -12 -14 -21 0 -8 -4 -15 -9 -15
-4 0 -14 -20 -21 -45 -7 -25 -16 -45 -21 -45 -4 0 -10 -13 -14 -30 -4 -16 -10
-30 -15 -30 -5 0 -11 -13 -15 -30 -4 -16 -10 -30 -15 -30 -5 0 -11 -13 -15
-30 -4 -16 -11 -30 -16 -30 -5 0 -11 -11 -15 -25 -3 -14 -10 -25 -14 -25 -5 0
-11 -13 -15 -30 -4 -16 -10 -30 -14 -30 -4 0 -13 -17 -20 -37 -8 -21 -20 -43
-27 -51 -8 -7 -14 -20 -14 -28 0 -8 -4 -14 -9 -14 -5 0 -12 -13 -16 -30 -4
-16 -10 -30 -15 -30 -5 0 -11 -14 -15 -30 -4 -16 -10 -30 -15 -30 -5 0 -11
-14 -15 -30 -4 -16 -10 -30 -15 -30 -5 0 -11 -14 -15 -30 -4 -16 -10 -30 -14
-30 -4 0 -13 -18 -20 -40 -6 -22 -16 -40 -21 -40 -4 0 -11 -13 -15 -30 -4 -17
-10 -30 -15 -30 -5 0 -11 -14 -15 -30 -4 -17 -10 -30 -15 -30 -5 0 -11 -13
-15 -30 -4 -17 -10 -30 -15 -30 -5 0 -11 -13 -15 -30 -4 -17 -10 -30 -14 -30
-5 0 -14 -20 -21 -45 -7 -25 -16 -45 -20 -45 -4 0 -11 -11 -14 -25 -4 -14 -10
-25 -15 -25 -5 0 -12 -14 -16 -30 -4 -17 -10 -30 -15 -30 -5 0 -11 -14 -15
-30 -4 -17 -10 -30 -15 -30 -5 0 -11 -14 -15 -30 -4 -17 -10 -30 -15 -30 -5 0
-11 -14 -15 -30 -4 -17 -10 -30 -14 -30 -4 0 -13 -22 -20 -50 -7 -27 -17 -50
-21 -50 -5 0 -11 -14 -15 -30 -4 -17 -10 -30 -15 -30 -5 0 -11 -14 -15 -30 -4
-17 -11 -30 -15 -30 -5 0 -12 -16 -16 -35 -3 -19 -10 -35 -14 -35 -5 0 -11
-13 -15 -30 -4 -16 -11 -30 -15 -30 -5 0 -12 -16 -16 -35 -3 -19 -10 -35 -14
-35 -4 0 -13 -22 -20 -50 -7 -27 -16 -50 -20 -50 -4 0 -11 -20 -14 -45 -4 -25
-11 -45 -17 -45 -5 0 -9 -13 -9 -30 0 -16 4 -30 9 -30 5 0 11 -22 15 -50 4
-27 10 -50 15 -50 4 0 14 -12 22 -27 18 -36 42 -59 67 -67 11 -4 23 -13 26
-21 3 -8 12 -15 21 -15 8 0 15 -4 15 -9 0 -5 10 -13 22 -17 12 -3 28 -13 36
-20 7 -8 24 -14 37 -14 13 0 25 -6 28 -12 5 -18 239 -18 245 0 2 6 10 12 17
12 8 0 19 9 25 20 6 11 15 20 21 20 6 0 30 19 54 43 24 23 62 58 85 77 51 43
1070 1058 1070 1066 0 7 53 64 123 132 27 26 63 62 80 80 43 44 138 140 179
179 44 42 98 101 98 108 0 2 86 90 190 195 105 104 190 193 190 196 0 4 28 35
63 70 34 34 76 78 94 96 17 18 53 54 80 80 60 58 113 116 113 123 0 3 71 76
159 163 87 86 161 167 165 180 4 12 11 22 16 22 4 0 46 38 92 85 45 47 88 90
93 95 6 6 34 33 63 61 28 27 52 54 52 60 0 5 65 74 145 153 80 79 145 147 145
151 0 4 70 77 155 162 85 85 155 159 155 163 0 5 72 81 160 168 88 88 160 163
160 167 0 9 105 115 114 115 4 0 0 -7 -8 -16 -9 -8 -16 -21 -16 -29 0 -7 -7
-15 -15 -19 -8 -3 -15 -12 -15 -21 0 -8 -5 -15 -10 -15 -6 0 -16 -12 -23 -27
-6 -16 -17 -32 -24 -36 -7 -4 -13 -13 -13 -19 0 -6 -10 -20 -23 -32 -13 -12
-26 -29 -30 -39 -3 -9 -11 -17 -17 -17 -5 0 -10 -7 -10 -15 0 -8 -9 -23 -20
-32 -11 -10 -20 -23 -20 -30 0 -7 -4 -13 -9 -13 -5 0 -13 -10 -17 -22 -3 -13
-13 -30 -21 -38 -33 -36 -53 -64 -53 -75 0 -7 -7 -15 -15 -19 -8 -3 -15 -11
-15 -17 0 -6 -11 -22 -24 -34 -13 -12 -27 -32 -31 -44 -4 -12 -19 -35 -35 -51
-16 -16 -31 -38 -35 -49 -3 -12 -11 -21 -16 -21 -5 0 -9 -7 -9 -15 0 -9 -7
-18 -15 -21 -8 -4 -15 -12 -15 -20 0 -8 -9 -22 -20 -31 -11 -10 -20 -23 -20
-30 0 -7 -5 -13 -11 -13 -5 0 -15 -13 -20 -30 -6 -16 -15 -30 -20 -30 -5 0 -9
-7 -9 -15 0 -9 -7 -18 -15 -21 -8 -4 -15 -11 -15 -18 0 -6 -9 -19 -20 -29 -11
-9 -20 -23 -20 -31 0 -8 -7 -16 -15 -20 -8 -3 -15 -12 -15 -21 0 -8 -4 -15
-10 -15 -5 0 -12 -11 -16 -25 -3 -14 -10 -25 -15 -25 -5 0 -14 -11 -19 -25 -5
-14 -14 -25 -20 -25 -5 0 -12 -11 -16 -24 -3 -14 -12 -27 -20 -30 -8 -3 -14
-12 -14 -21 0 -8 -4 -15 -10 -15 -5 0 -12 -11 -16 -24 -3 -14 -12 -27 -20 -30
-8 -3 -14 -12 -14 -20 0 -7 -7 -16 -15 -20 -8 -3 -15 -12 -15 -21 0 -8 -4 -15
-9 -15 -5 0 -14 -13 -20 -30 -5 -16 -15 -30 -20 -30 -6 0 -13 -11 -17 -24 -3
-14 -12 -27 -20 -30 -8 -3 -14 -12 -14 -20 0 -7 -7 -16 -15 -20 -8 -3 -15 -12
-15 -21 0 -8 -4 -15 -10 -15 -5 0 -12 -11 -16 -24 -3 -14 -12 -27 -20 -30 -8
-3 -14 -12 -14 -19 0 -12 -9 -26 -50 -74 -5 -7 -10 -17 -10 -23 0 -6 -6 -13
-14 -16 -8 -3 -17 -16 -20 -30 -4 -13 -11 -24 -16 -24 -6 0 -10 -7 -10 -15 0
-9 -7 -18 -15 -21 -8 -4 -15 -12 -15 -20 0 -7 -6 -17 -13 -21 -7 -4 -19 -24
-27 -43 -8 -19 -20 -39 -27 -43 -7 -4 -13 -15 -13 -22 0 -8 -4 -15 -10 -15 -5
0 -10 -6 -10 -13 0 -8 -9 -25 -20 -38 -11 -13 -23 -28 -28 -34 -4 -5 -11 -18
-15 -27 -3 -10 -11 -18 -17 -18 -5 0 -10 -6 -10 -14 0 -8 -6 -21 -12 -28 -7
-7 -20 -26 -28 -43 -8 -16 -21 -34 -27 -38 -7 -4 -13 -15 -13 -22 0 -8 -4 -15
-9 -15 -5 0 -12 -11 -15 -25 -4 -14 -11 -25 -16 -25 -6 0 -10 -7 -10 -15 0 -9
-7 -18 -15 -21 -8 -4 -15 -12 -15 -19 0 -10 -9 -23 -49 -72 -6 -6 -13 -23 -17
-38 -4 -15 -13 -29 -20 -32 -8 -3 -14 -11 -14 -18 0 -10 -9 -23 -49 -72 -6 -6
-13 -23 -16 -36 -4 -14 -13 -28 -21 -31 -8 -3 -14 -12 -14 -21 0 -8 -4 -15 -9
-15 -5 0 -15 -16 -21 -35 -6 -19 -16 -35 -21 -35 -5 0 -11 -11 -15 -25 -3 -14
-10 -25 -15 -25 -5 0 -9 -7 -9 -15 0 -9 -6 -18 -14 -21 -8 -3 -17 -17 -21 -31
-3 -14 -11 -31 -18 -39 -28 -31 -35 -42 -41 -62 -4 -12 -11 -22 -16 -22 -5 0
-11 -14 -15 -31 -4 -17 -13 -33 -20 -36 -8 -2 -17 -18 -20 -34 -4 -16 -10 -29
-15 -29 -5 0 -11 -13 -15 -29 -3 -16 -13 -32 -21 -35 -8 -3 -14 -12 -14 -21 0
-8 -4 -15 -9 -15 -5 0 -12 -14 -16 -30 -4 -17 -10 -30 -15 -30 -5 0 -11 -14
-15 -30 -4 -17 -10 -30 -14 -30 -5 0 -14 -20 -21 -45 -7 -25 -16 -45 -20 -45
-4 0 -11 -11 -14 -25 -4 -14 -11 -25 -16 -25 -5 0 -13 -18 -16 -40 -4 -22 -10
-40 -14 -40 -5 0 -12 -15 -15 -32 -4 -18 -12 -36 -17 -39 -5 -3 -11 -23 -15
-45 -3 -21 -11 -42 -17 -46 -15 -10 -15 -246 0 -256 7 -4 15 -22 19 -40 3 -17
10 -32 15 -32 4 0 11 -11 14 -25 4 -14 11 -25 16 -25 6 0 10 -7 10 -15 0 -9 7
-18 15 -21 8 -3 17 -15 20 -25 8 -25 49 -66 74 -74 10 -3 22 -12 25 -20 3 -8
12 -15 21 -15 8 0 15 -4 15 -9 0 -5 12 -12 27 -16 15 -3 30 -11 34 -16 3 -5
23 -12 45 -16 21 -3 42 -10 45 -15 9 -14 278 -16 287 -2 4 6 25 14 46 17 22 4
42 10 45 15 3 5 21 13 39 17 17 3 32 10 32 15 0 5 14 11 30 15 17 4 30 10 30
15 0 5 13 11 29 15 16 3 32 12 34 19 3 8 18 16 32 20 15 4 33 12 41 19 31 28
42 35 62 41 12 4 22 12 22 17 0 5 7 9 15 9 9 0 18 7 21 15 4 8 12 15 20 15 8
0 22 9 31 20 10 11 23 20 30 20 7 0 13 5 13 11 0 5 13 15 29 20 16 6 32 17 35
25 3 8 11 14 17 14 6 0 22 11 35 25 13 14 27 25 31 25 5 0 20 13 33 30 14 16
30 29 37 30 7 0 24 11 39 25 15 14 32 25 38 25 6 1 22 14 36 30 13 17 28 30
32 30 5 0 28 20 51 45 24 25 49 45 55 45 12 0 82 69 82 81 0 4 9 11 21 14 21
7 309 290 309 304 0 4 16 24 35 44 19 20 35 40 35 44 0 5 8 16 18 25 27 25 52
61 52 75 0 7 4 13 9 13 5 0 12 12 16 27 3 15 11 31 16 34 14 8 13 150 -1 159
-5 3 -13 48 -16 98 -4 51 -10 92 -14 92 -4 0 -11 43 -15 95 -4 52 -10 95 -15
95 -4 0 -11 16 -14 35 -4 19 -11 35 -16 35 -6 0 -10 7 -10 15 0 25 -30 17 -66
-19 -19 -19 -34 -37 -34 -42 0 -4 -20 -27 -45 -51 -25 -23 -45 -45 -45 -49 0
-8 -29 -40 -125 -135 -99 -97 -81 -79 -174 -174 -43 -44 -87 -87 -97 -97 -11
-9 -34 -32 -52 -52 -18 -20 -37 -36 -42 -36 -6 0 -30 -20 -53 -45 -24 -25 -47
-45 -52 -45 -4 0 -23 -16 -42 -35 -19 -19 -38 -35 -44 -35 -5 0 -20 -11 -33
-25 -13 -14 -28 -25 -34 -25 -6 0 -16 -8 -21 -19 -6 -10 -22 -22 -36 -25 -14
-4 -25 -11 -25 -16 0 -6 -7 -10 -15 -10 -9 0 -18 -6 -21 -14 -3 -8 -17 -17
-31 -21 -14 -3 -31 -11 -39 -18 -37 -33 -47 -39 -79 -44 -19 -3 -35 -9 -35
-14 0 -4 -13 -10 -30 -14 -16 -4 -30 -11 -30 -16 0 -5 -11 -9 -25 -9 -14 0
-25 3 -25 6 0 18 24 84 31 84 4 0 10 13 14 30 4 16 10 30 15 30 5 0 11 13 15
30 4 16 11 30 16 30 5 0 9 7 9 15 0 9 6 18 14 21 8 3 18 19 21 35 4 16 11 29
16 29 5 0 9 7 9 15 0 7 6 18 14 22 7 4 19 26 26 48 7 22 19 46 27 53 7 7 13
20 13 28 0 8 5 14 10 14 6 0 10 7 10 15 0 9 6 18 14 21 8 3 18 18 21 34 3 16
13 31 21 34 8 3 14 12 14 21 0 8 5 15 10 15 6 0 10 6 10 14 0 8 6 21 13 28 7
7 20 28 28 46 7 17 17 32 21 32 5 0 8 7 8 15 0 9 6 18 14 21 8 3 17 16 20 30
4 13 11 24 16 24 6 0 10 7 10 15 0 9 6 18 14 21 8 3 18 19 21 35 4 16 11 29
16 29 6 0 15 14 20 30 6 17 15 30 20 30 5 0 9 7 9 15 0 9 7 18 15 21 8 4 15
13 15 20 0 8 6 17 14 20 8 3 18 19 21 35 4 16 11 29 16 29 5 0 11 11 15 24 3
14 12 27 20 30 8 3 14 12 14 21 0 8 4 15 9 15 5 0 14 14 21 30 7 17 16 30 21
30 5 0 9 7 9 15 0 9 6 18 14 21 8 3 17 16 20 30 4 13 11 24 16 24 6 0 10 7 10
15 0 9 7 18 15 21 8 4 15 13 15 20 0 8 7 17 15 20 8 4 15 12 15 19 0 8 6 20
13 27 6 7 19 27 27 43 8 17 21 36 28 43 6 7 12 19 12 27 0 7 7 15 15 19 8 3
15 12 15 20 0 7 7 16 15 20 8 3 15 12 15 21 0 8 4 15 10 15 5 0 12 11 16 24 3
14 12 27 20 30 8 3 14 12 14 21 0 8 4 15 9 15 5 0 14 13 21 29 6 16 18 32 26
35 8 3 14 12 14 21 0 8 4 15 10 15 5 0 12 11 16 24 3 14 12 27 20 30 8 3 14
12 14 20 0 7 7 16 15 20 8 3 15 12 15 21 0 8 4 15 9 15 5 0 14 14 20 30 5 17
15 30 20 30 6 0 13 11 17 24 3 14 12 27 20 30 8 3 14 12 14 20 0 7 7 16 15 20
8 3 15 12 15 21 0 8 4 15 9 15 5 0 13 10 16 22 4 11 17 31 29 42 12 12 28 35
36 51 8 17 21 34 27 38 7 4 13 13 13 19 0 6 11 21 24 33 13 12 27 32 31 43 3
12 11 22 16 22 5 0 9 7 9 15 0 9 7 18 15 21 8 4 15 13 15 20 0 8 6 17 14 20 8
3 19 19 25 35 5 16 14 29 19 29 6 0 13 11 16 25 4 14 11 25 16 25 6 0 10 7 10
15 0 8 9 19 20 25 11 6 20 17 20 25 0 8 4 15 9 15 5 0 13 10 16 22 4 11 17 31
29 42 12 12 28 34 36 51 8 16 25 39 38 51 12 12 22 27 22 33 0 6 7 14 15 17 8
4 15 12 15 20 0 8 9 22 20 31 11 10 20 21 20 26 0 4 5 13 10 20 47 56 60 74
60 85 0 6 4 12 9 12 5 0 13 10 16 22 4 11 18 31 31 43 13 12 24 27 24 33 0 6
9 16 20 22 11 6 20 17 20 25 0 8 4 15 9 15 5 0 14 14 20 30 5 17 14 30 20 30
5 0 13 9 16 21 4 11 19 33 33 49 39 42 47 53 55 73 3 9 11 17 16 17 5 0 13 9
16 21 4 12 14 29 23 39 28 29 52 64 52 73 0 4 11 18 25 31 14 13 25 27 25 32
0 5 9 17 20 27 11 9 20 23 20 30 0 8 10 19 23 26 13 7 29 29 36 48 8 20 24 46
37 58 13 12 24 26 24 30 0 5 7 15 15 24 62 67 74 82 80 100 3 12 11 21 16 21
6 0 15 13 20 29 6 16 17 32 25 35 8 3 14 10 14 16 0 6 10 21 23 33 13 12 26
30 30 40 3 9 11 17 16 17 5 0 12 11 15 25 4 14 11 25 16 25 6 0 15 11 20 25 5
14 14 25 19 25 5 0 13 10 16 22 4 11 18 31 31 43 13 12 24 26 24 31 0 5 9 17
20 27 11 9 20 23 20 30 0 8 11 20 25 27 14 7 25 19 25 27 0 7 9 22 19 32 10
10 22 28 26 40 3 12 11 21 16 21 5 0 13 8 16 18 4 9 12 22 17 29 32 36 36 44
36 68 0 14 -4 25 -10 25 -5 0 -10 10 -10 23 0 22 -30 57 -50 57 -5 0 -13 7
-18 16 -8 14 -38 19 -173 26 -90 6 -167 14 -170 19 -3 5 -33 12 -67 15 -34 4
-62 10 -62 15 0 4 -21 11 -47 15 -27 4 -51 11 -54 16 -7 11 -233 20 -261 12z
m-3488 -1504 c0 -5 -4 -10 -10 -10 -5 0 -10 5 -10 10 0 6 5 10 10 10 6 0 10
-4 10 -10z"/>
<path d="M26773 8254 c-13 -3 -23 -9 -23 -14 0 -4 -11 -11 -25 -14 -14 -4 -25
-10 -25 -15 0 -5 -13 -12 -30 -16 -16 -4 -30 -11 -30 -16 0 -5 -11 -14 -25
-19 -14 -5 -25 -14 -25 -20 0 -5 -7 -10 -15 -10 -8 0 -23 -9 -32 -20 -10 -11
-22 -20 -27 -20 -5 0 -19 -11 -32 -25 -13 -14 -27 -25 -31 -25 -5 0 -20 -13
-33 -30 -14 -16 -31 -29 -38 -30 -7 0 -28 -15 -47 -34 -19 -19 -43 -37 -55
-41 -11 -3 -20 -10 -20 -14 0 -11 -69 -81 -80 -81 -5 0 -33 -21 -60 -47 -28
-27 -80 -75 -115 -108 -105 -98 -113 -105 -118 -105 -3 0 -56 -49 -117 -110
-60 -60 -113 -110 -116 -110 -4 0 -78 -68 -118 -109 -5 -4 -47 -47 -93 -93
-47 -47 -90 -90 -95 -95 -6 -6 -49 -49 -97 -97 -47 -47 -90 -91 -96 -96 -5 -6
-41 -40 -78 -78 -37 -37 -82 -82 -100 -100 -18 -18 -61 -62 -97 -98 -36 -35
-69 -68 -75 -74 -11 -11 -170 -170 -185 -185 -6 -5 -46 -46 -89 -90 -43 -44
-87 -88 -97 -97 -34 -30 -94 -96 -94 -103 0 -3 -70 -76 -155 -160 -85 -85
-155 -159 -155 -164 0 -6 -23 -32 -51 -58 -28 -26 -65 -63 -82 -81 -18 -18
-51 -53 -74 -77 -24 -24 -43 -46 -43 -49 0 -3 -43 -49 -95 -101 -52 -53 -95
-98 -95 -102 0 -3 -21 -27 -47 -53 -27 -26 -64 -66 -83 -89 -19 -23 -65 -73
-102 -111 -38 -38 -68 -76 -68 -85 0 -8 -4 -15 -8 -15 -13 0 -132 -118 -132
-131 0 -6 -25 -35 -55 -64 -30 -29 -55 -56 -55 -59 0 -4 -19 -27 -42 -50 -24
-24 -52 -55 -63 -71 -11 -15 -41 -49 -67 -75 -27 -26 -48 -51 -48 -55 0 -4
-20 -27 -45 -52 -25 -24 -45 -48 -45 -53 0 -5 -16 -24 -35 -43 -19 -19 -35
-37 -35 -41 0 -12 -71 -78 -77 -72 -3 3 2 12 11 21 9 9 16 23 16 31 0 8 4 14
9 14 5 0 12 14 16 30 4 17 10 30 15 30 5 0 11 14 15 30 4 16 10 30 15 30 5 0
11 13 15 29 3 16 13 32 21 35 8 3 14 12 14 21 0 8 4 15 9 15 4 0 14 20 21 45
7 25 16 45 21 45 4 0 10 14 14 30 4 16 11 30 16 30 5 0 9 7 9 15 0 9 6 18 14
21 8 3 18 19 21 35 4 16 10 29 15 29 5 0 11 14 15 30 4 17 11 30 16 30 5 0 9
7 9 15 0 9 6 18 14 21 8 3 19 25 26 50 7 24 16 44 21 44 4 0 10 13 14 29 3 16
13 32 21 35 8 3 14 12 14 21 0 8 4 15 9 15 5 0 12 14 16 30 4 17 10 30 15 30
5 0 11 13 15 29 3 16 13 32 21 35 8 3 14 12 14 21 0 8 4 15 9 15 4 0 14 20 21
45 7 25 17 45 21 45 5 0 9 7 9 15 0 9 6 18 14 21 8 3 18 19 21 35 4 16 10 29
15 29 5 0 11 14 15 30 4 17 11 30 16 30 5 0 11 11 15 25 3 14 10 25 14 25 5 0
14 17 21 37 6 21 18 44 26 51 7 7 13 20 13 28 0 8 4 14 9 14 5 0 12 12 15 26
4 15 12 32 19 40 30 34 37 44 43 68 3 14 10 26 14 26 5 0 11 13 15 29 3 16 12
32 20 34 7 3 16 19 20 36 4 17 10 31 15 31 5 0 11 13 15 29 3 16 13 32 21 35
8 3 14 12 14 21 0 8 4 15 9 15 5 0 12 14 16 30 4 17 11 30 16 30 5 0 9 7 9 15
0 9 6 18 14 21 8 3 18 19 21 35 4 16 10 29 15 29 5 0 11 14 15 31 4 17 13 33
20 36 8 2 17 18 20 34 4 16 10 29 15 29 5 0 11 14 15 30 4 17 11 30 16 30 5 0
11 11 15 25 3 14 10 25 14 25 5 0 12 10 16 22 3 12 13 28 20 36 8 7 14 20 14
28 0 8 4 14 9 14 4 0 14 20 21 44 7 25 18 47 26 50 8 3 14 12 14 21 0 8 4 15
9 15 5 0 12 13 16 29 3 16 13 32 21 35 8 3 14 12 14 21 0 8 4 15 9 15 5 0 12
14 16 30 4 17 11 30 16 30 5 0 9 7 9 15 0 9 6 18 14 21 8 3 19 25 26 50 7 24
17 44 21 44 5 0 9 7 9 15 0 9 6 18 14 21 8 3 18 19 21 35 4 16 10 29 15 29 4
0 11 11 14 25 4 14 10 25 15 25 5 0 12 14 16 30 4 17 10 30 15 30 5 0 14 16
21 35 7 19 16 35 20 35 4 0 10 14 14 30 4 17 11 30 16 30 5 0 9 7 9 15 0 9 6
18 14 21 8 3 18 19 21 35 4 16 10 29 15 29 5 0 11 13 15 29 3 16 13 32 21 35
8 3 14 12 14 21 0 8 4 15 9 15 4 0 14 20 21 44 7 25 18 47 26 50 8 3 14 12 14
21 0 8 4 15 9 15 5 0 12 14 16 30 4 17 11 30 16 30 5 0 9 7 9 15 0 9 6 18 14
21 8 3 18 19 21 35 4 16 10 29 15 29 5 0 11 14 15 30 4 17 10 30 14 30 5 0 14
20 21 45 7 25 17 45 21 45 5 0 9 7 9 15 0 9 7 18 15 21 8 4 18 24 21 45 4 21
10 39 14 39 4 0 11 11 14 25 4 14 11 25 16 25 6 0 10 7 10 15 0 8 -4 15 -9 15
-5 0 -12 12 -15 26 -8 32 -24 49 -56 59 -13 4 -30 14 -38 21 -7 8 -20 14 -28
14 -8 0 -14 4 -14 8 0 9 -101 32 -138 32 -12 0 -22 5 -22 10 0 6 -47 10 -120
10 -66 0 -120 -4 -120 -9 0 -5 -12 -12 -27 -16 -16 -4 -36 -16 -47 -27 -14
-15 -26 -18 -49 -14 -17 4 -34 12 -39 19 -10 16 -206 17 -216 0 -4 -6 -20 -15
-35 -18 -15 -4 -27 -11 -27 -16 0 -5 -7 -9 -15 -9 -9 0 -18 -7 -21 -15 -4 -8
-13 -15 -20 -15 -8 0 -17 -7 -20 -15 -4 -8 -12 -15 -20 -15 -8 0 -22 -9 -31
-20 -10 -11 -21 -20 -26 -20 -5 0 -14 -6 -21 -12 -7 -7 -25 -22 -40 -33 -16
-11 -48 -39 -71 -62 -24 -24 -46 -43 -50 -43 -9 0 -465 -457 -465 -466 0 -4
-34 -40 -75 -81 -41 -40 -75 -77 -75 -82 0 -5 -25 -34 -55 -64 -30 -30 -55
-58 -55 -62 0 -3 -22 -28 -50 -55 -27 -27 -50 -54 -50 -60 0 -5 -20 -30 -45
-53 -25 -24 -45 -46 -45 -50 0 -4 -20 -27 -45 -51 -25 -25 -45 -50 -45 -55 0
-6 -16 -25 -35 -44 -19 -19 -35 -37 -35 -41 0 -3 -18 -23 -40 -45 -22 -21 -40
-43 -40 -48 0 -9 -44 -61 -120 -140 -22 -23 -40 -45 -40 -50 0 -4 -12 -19 -25
-32 -14 -13 -25 -27 -25 -32 0 -5 -18 -26 -40 -48 -22 -21 -40 -43 -40 -48 0
-5 -13 -20 -30 -33 -16 -14 -29 -31 -30 -38 0 -6 -11 -22 -25 -34 -14 -12 -25
-26 -25 -31 0 -5 -13 -22 -30 -39 -16 -16 -30 -33 -30 -38 0 -5 -19 -29 -42
-54 -61 -64 -88 -98 -88 -108 0 -5 -11 -19 -25 -32 -14 -13 -25 -27 -25 -32 0
-5 -13 -20 -30 -34 -16 -14 -30 -29 -30 -35 0 -5 -12 -21 -25 -34 -14 -13 -25
-28 -25 -33 0 -6 -11 -21 -25 -34 -14 -13 -25 -27 -25 -31 0 -5 -13 -20 -29
-34 -15 -14 -31 -34 -35 -46 -4 -12 -13 -24 -21 -27 -8 -3 -15 -10 -15 -16 0
-6 -6 -17 -12 -24 -7 -7 -22 -25 -33 -41 -11 -15 -28 -35 -37 -44 -10 -8 -18
-20 -18 -25 0 -5 -11 -19 -24 -31 -13 -12 -27 -31 -30 -43 -4 -11 -13 -23 -21
-26 -8 -3 -15 -12 -15 -21 0 -8 -5 -15 -10 -15 -6 0 -16 -12 -23 -27 -6 -16
-22 -38 -34 -49 -13 -12 -23 -25 -23 -29 0 -5 -7 -15 -15 -24 -62 -67 -74 -82
-80 -100 -3 -12 -11 -21 -16 -21 -6 0 -15 -13 -20 -29 -6 -16 -17 -32 -25 -35
-8 -3 -14 -10 -14 -16 0 -6 -11 -21 -25 -34 -14 -13 -25 -29 -25 -35 0 -6 -7
-14 -15 -17 -8 -3 -17 -15 -21 -26 -3 -11 -15 -29 -25 -39 -10 -10 -19 -25
-19 -32 0 -8 -11 -19 -24 -27 -14 -7 -27 -23 -30 -36 -4 -13 -11 -24 -16 -24
-6 0 -10 -7 -10 -15 0 -9 -7 -18 -15 -21 -8 -3 -17 -15 -20 -25 -4 -11 -19
-33 -35 -49 -16 -16 -31 -39 -35 -51 -4 -12 -17 -32 -29 -43 -13 -12 -25 -29
-29 -38 -3 -10 -11 -18 -17 -18 -5 0 -10 -7 -10 -15 0 -8 -9 -23 -20 -32 -11
-10 -20 -21 -20 -26 0 -4 -10 -18 -23 -30 -12 -12 -29 -35 -37 -52 -8 -16 -24
-39 -35 -50 -12 -11 -24 -28 -28 -38 -3 -9 -11 -17 -17 -17 -5 0 -10 -7 -10
-15 0 -8 -9 -23 -20 -32 -11 -10 -20 -23 -20 -30 0 -7 -4 -13 -10 -13 -5 0
-12 -11 -16 -25 -3 -14 -10 -25 -15 -25 -5 0 -14 -11 -19 -25 -5 -14 -14 -25
-20 -25 -5 0 -12 -11 -16 -24 -3 -14 -12 -27 -20 -30 -8 -3 -14 -11 -14 -17 0
-6 -11 -22 -25 -35 -14 -13 -25 -28 -25 -33 0 -6 -6 -14 -13 -18 -7 -4 -19
-24 -27 -43 -8 -19 -20 -39 -27 -43 -7 -4 -13 -13 -13 -19 0 -6 -10 -20 -23
-32 -13 -12 -26 -29 -30 -39 -3 -9 -11 -17 -16 -17 -5 0 -12 -11 -15 -25 -4
-14 -11 -25 -16 -25 -6 0 -10 -7 -10 -15 0 -7 -6 -18 -13 -22 -7 -4 -18 -20
-24 -35 -7 -16 -17 -28 -23 -28 -5 0 -10 -7 -10 -15 0 -9 -6 -18 -14 -21 -8
-3 -17 -16 -20 -30 -4 -13 -11 -24 -16 -24 -6 0 -10 -7 -10 -15 0 -9 -7 -18
-15 -21 -8 -4 -15 -12 -15 -19 0 -6 -9 -23 -20 -36 -31 -38 -34 -42 -50 -74
-8 -16 -21 -36 -27 -43 -7 -7 -13 -19 -13 -27 0 -7 -7 -15 -15 -19 -8 -3 -15
-12 -15 -20 0 -7 -7 -16 -15 -20 -8 -3 -15 -12 -15 -21 0 -8 -4 -15 -10 -15
-5 0 -12 -11 -16 -24 -3 -14 -12 -27 -20 -30 -8 -3 -14 -12 -14 -21 0 -8 -4
-15 -9 -15 -5 0 -14 -13 -20 -30 -5 -16 -15 -30 -20 -30 -6 0 -11 -7 -11 -15
0 -9 -6 -18 -14 -21 -8 -3 -17 -16 -20 -30 -4 -13 -10 -24 -15 -24 -5 0 -12
-13 -16 -29 -3 -16 -13 -32 -21 -35 -8 -3 -14 -12 -14 -21 0 -8 -5 -15 -11
-15 -5 0 -15 -13 -20 -30 -6 -16 -15 -30 -19 -30 -5 0 -11 -13 -15 -29 -3 -16
-13 -32 -21 -35 -8 -3 -14 -12 -14 -20 0 -7 -7 -16 -15 -20 -8 -3 -15 -12 -15
-21 0 -8 -4 -15 -9 -15 -5 0 -12 -11 -15 -25 -4 -14 -10 -25 -15 -25 -5 0 -12
-14 -16 -30 -4 -17 -10 -30 -14 -30 -4 0 -13 -16 -21 -35 -8 -19 -17 -35 -21
-35 -4 0 -10 -14 -14 -30 -4 -17 -11 -30 -16 -30 -5 0 -9 -7 -9 -15 0 -9 -6
-18 -14 -21 -8 -3 -18 -19 -21 -35 -4 -16 -10 -29 -15 -29 -4 0 -11 -16 -14
-35 -4 -19 -11 -35 -16 -35 -6 0 -10 -34 -10 -75 0 -41 4 -75 9 -75 5 0 11
-14 15 -31 7 -36 93 -125 131 -135 14 -3 25 -10 25 -14 0 -4 12 -11 27 -15 15
-3 30 -11 34 -16 3 -5 23 -12 45 -16 21 -3 41 -10 45 -14 3 -5 27 -12 55 -15
27 -4 52 -11 55 -17 4 -5 52 -10 106 -11 l100 -1 36 37 c20 21 39 49 43 63 3
14 10 25 14 25 5 0 11 14 15 30 4 17 10 30 15 30 5 0 11 13 15 30 4 16 10 30
15 30 5 0 11 13 15 30 4 16 11 30 16 30 5 0 11 11 15 25 3 14 9 25 14 25 4 0
12 18 19 40 6 22 16 40 21 40 4 0 11 14 15 30 4 17 11 30 16 30 5 0 11 11 15
25 3 14 10 25 14 25 4 0 11 11 14 25 4 14 10 25 15 25 5 0 12 14 16 30 4 17
11 30 16 30 5 0 9 7 9 15 0 9 6 18 14 21 8 3 19 25 26 49 7 24 18 46 26 49 8
3 14 12 14 21 0 8 4 15 9 15 5 0 12 13 16 29 3 16 13 32 21 35 8 3 14 12 14
21 0 8 4 15 9 15 5 0 12 11 15 25 4 14 10 25 15 25 5 0 12 14 16 31 4 17 13
33 20 36 8 2 17 17 20 33 3 16 13 31 21 34 8 3 14 12 14 21 0 8 4 15 9 15 5 0
12 11 15 25 4 14 11 25 16 25 6 0 10 6 10 13 0 8 9 24 20 37 11 13 20 29 20
35 0 7 6 15 14 18 8 3 17 19 21 36 4 17 11 31 16 31 5 0 11 11 15 24 3 14 12
27 20 30 8 3 14 12 14 20 0 7 7 16 15 20 8 3 15 12 15 21 0 8 4 15 9 15 5 0
12 11 15 25 4 14 11 25 16 25 6 0 10 7 10 15 0 7 6 18 13 22 6 4 19 22 27 38
8 17 21 36 28 43 6 7 12 19 12 27 0 7 7 15 15 19 8 3 15 12 15 21 0 8 4 15 10
15 5 0 12 11 16 24 3 14 12 27 20 30 8 3 14 12 14 20 0 7 7 16 15 20 8 3 15
12 15 21 0 8 4 15 9 15 5 0 14 14 20 30 5 17 15 30 20 30 6 0 11 7 11 15 0 9
6 18 14 21 8 3 17 16 20 30 4 13 11 24 16 24 6 0 10 7 10 15 0 9 7 18 15 21 8
4 15 12 15 19 0 8 6 20 13 27 6 7 19 26 27 43 8 16 24 39 36 50 11 11 23 28
27 38 3 9 11 17 16 17 5 0 12 11 15 25 4 14 11 25 16 25 6 0 10 7 10 15 0 9 7
18 15 21 8 4 15 13 15 20 0 8 6 17 14 20 8 3 19 19 25 35 5 16 15 29 20 29 6
0 11 7 11 15 0 8 9 23 20 32 11 10 20 23 20 29 0 7 7 14 15 18 8 3 15 11 15
17 0 6 11 22 24 34 13 12 27 32 31 43 3 12 11 22 16 22 5 0 9 6 9 14 0 8 8 21
19 28 10 7 21 23 25 36 4 12 12 22 17 22 5 0 9 7 9 15 0 9 7 18 15 21 8 3 17
15 20 25 4 11 19 33 33 49 36 39 45 50 61 83 8 15 18 27 23 27 4 0 8 6 8 13 0
7 9 20 20 30 11 9 20 23 20 30 0 8 11 20 25 27 14 7 25 19 25 27 0 7 9 21 20
30 11 10 20 23 20 30 0 7 4 13 8 13 5 0 15 12 23 28 7 15 24 37 36 49 13 12
23 27 23 33 0 6 7 13 15 16 8 3 17 15 21 26 3 12 17 31 30 43 13 12 24 26 24
31 0 9 32 50 75 96 14 15 25 31 25 35 0 5 9 16 20 26 11 9 20 23 20 30 0 8 11
20 25 27 14 7 25 19 25 26 0 7 11 25 25 40 14 15 25 31 25 36 0 5 11 19 25 32
14 13 25 27 25 32 0 5 14 20 30 34 17 14 30 29 30 35 0 5 12 21 25 34 14 13
25 27 25 33 0 5 11 21 25 36 72 78 95 106 95 114 0 5 13 21 29 36 16 15 32 36
35 48 3 11 18 27 31 34 14 7 25 19 25 26 0 7 14 26 30 42 17 17 30 34 30 39 0
4 16 23 35 40 19 18 35 37 35 42 0 6 16 25 35 44 19 19 35 38 35 42 0 4 20 27
45 51 25 23 45 47 45 53 0 5 16 25 35 44 19 19 35 38 35 42 0 4 20 27 45 51
25 23 45 45 45 48 0 8 28 42 68 81 17 17 32 35 32 39 0 5 27 34 60 65 33 32
60 63 60 69 0 6 23 33 50 60 28 27 50 52 50 56 0 12 42 48 48 40 4 -3 1 -9 -5
-11 -7 -3 -13 -10 -13 -17 0 -7 -9 -23 -20 -36 -11 -13 -20 -29 -20 -37 0 -7
-4 -13 -10 -13 -5 0 -10 -7 -10 -15 0 -9 -6 -18 -14 -21 -8 -3 -18 -19 -21
-35 -4 -16 -10 -29 -14 -29 -4 0 -13 -16 -21 -35 -8 -19 -17 -35 -21 -35 -4 0
-10 -13 -14 -30 -4 -16 -10 -30 -15 -30 -4 0 -11 -11 -14 -25 -4 -14 -11 -25
-16 -25 -6 0 -10 -6 -10 -14 0 -8 -6 -21 -14 -28 -7 -8 -17 -24 -20 -36 -4
-12 -11 -22 -16 -22 -5 0 -11 -13 -15 -30 -4 -16 -10 -30 -15 -30 -5 0 -11
-14 -15 -31 -4 -17 -13 -33 -20 -36 -8 -2 -17 -18 -20 -34 -4 -16 -10 -29 -15
-29 -5 0 -11 -13 -15 -30 -4 -16 -11 -30 -16 -30 -5 0 -9 -7 -9 -15 0 -9 -6
-18 -14 -21 -8 -3 -18 -19 -21 -35 -4 -16 -10 -29 -15 -29 -5 0 -11 -13 -15
-30 -4 -16 -10 -30 -14 -30 -4 0 -13 -16 -21 -35 -8 -19 -17 -35 -21 -35 -4 0
-10 -13 -14 -30 -4 -16 -10 -30 -15 -30 -5 0 -11 -13 -15 -30 -4 -16 -11 -30
-16 -30 -5 0 -9 -7 -9 -15 0 -9 -6 -18 -14 -21 -8 -3 -18 -19 -21 -35 -4 -16
-10 -29 -15 -29 -5 0 -11 -13 -15 -30 -4 -16 -10 -30 -14 -30 -5 0 -14 -20
-21 -44 -7 -25 -18 -47 -26 -50 -8 -3 -14 -12 -14 -21 0 -8 -4 -15 -9 -15 -5
0 -12 -13 -16 -30 -4 -16 -10 -30 -15 -30 -5 0 -11 -13 -15 -30 -4 -16 -11
-30 -16 -30 -5 0 -9 -6 -9 -14 0 -8 -6 -21 -13 -28 -8 -7 -20 -30 -26 -51 -7
-20 -16 -37 -21 -37 -5 0 -11 -14 -15 -30 -4 -16 -11 -30 -16 -30 -5 0 -11
-11 -15 -25 -3 -14 -10 -25 -14 -25 -5 0 -11 -14 -15 -30 -4 -16 -10 -30 -15
-30 -5 0 -11 -13 -15 -30 -4 -16 -10 -30 -15 -30 -5 0 -11 -13 -15 -30 -4 -16
-10 -30 -15 -30 -5 0 -11 -14 -15 -31 -4 -17 -13 -33 -20 -36 -8 -2 -17 -18
-20 -34 -4 -16 -10 -29 -15 -29 -5 0 -11 -13 -15 -30 -4 -16 -10 -30 -15 -30
-5 0 -11 -14 -15 -30 -4 -16 -10 -30 -15 -30 -5 0 -11 -14 -15 -30 -4 -16 -10
-30 -15 -30 -4 0 -11 -11 -14 -25 -4 -14 -10 -25 -15 -25 -5 0 -14 -20 -21
-45 -7 -25 -16 -45 -21 -45 -4 0 -10 -14 -14 -30 -4 -16 -10 -30 -15 -30 -5 0
-11 -14 -15 -30 -4 -16 -10 -30 -15 -30 -5 0 -11 -14 -15 -30 -4 -16 -10 -30
-15 -30 -5 0 -11 -13 -15 -30 -4 -16 -11 -30 -16 -30 -5 0 -11 -11 -15 -25 -3
-14 -10 -25 -14 -25 -4 0 -13 -20 -20 -45 -7 -25 -16 -45 -21 -45 -4 0 -10
-13 -14 -30 -4 -17 -10 -30 -15 -30 -5 0 -11 -13 -15 -30 -4 -17 -10 -30 -15
-30 -5 0 -11 -13 -15 -30 -4 -16 -10 -30 -15 -30 -5 0 -11 -13 -15 -30 -4 -16
-11 -30 -15 -30 -5 0 -15 -18 -21 -40 -7 -22 -16 -40 -20 -40 -4 0 -10 -14
-14 -30 -4 -17 -10 -30 -15 -30 -5 0 -11 -14 -15 -30 -4 -17 -10 -30 -15 -30
-5 0 -11 -14 -15 -30 -4 -17 -10 -30 -15 -30 -5 0 -11 -14 -15 -30 -4 -17 -11
-30 -16 -30 -5 0 -9 -6 -9 -14 0 -8 -6 -21 -13 -28 -7 -7 -18 -35 -25 -63 -7
-27 -17 -52 -21 -55 -5 -3 -12 -16 -16 -30 -4 -13 -14 -30 -21 -38 -8 -7 -14
-24 -14 -38 0 -13 -4 -24 -9 -24 -5 0 -12 -14 -16 -30 -4 -17 -10 -30 -15 -30
-4 0 -11 -16 -14 -35 -4 -19 -11 -35 -15 -35 -5 0 -12 -15 -15 -34 -4 -19 -12
-36 -18 -38 -15 -5 -17 -176 -2 -186 6 -4 14 -17 18 -29 4 -13 12 -23 17 -23
5 0 9 -5 9 -11 0 -12 77 -89 89 -89 4 0 18 -9 31 -20 13 -11 29 -20 37 -20 7
0 13 -4 13 -10 0 -5 17 -12 38 -16 20 -4 40 -12 44 -18 11 -16 220 -14 226 2
2 7 12 12 22 12 10 0 32 14 48 30 17 17 34 30 38 30 4 0 49 43 101 95 51 52
98 95 103 95 11 0 860 849 860 860 0 5 24 32 53 59 28 28 55 54 59 58 5 5 96
96 203 205 107 108 195 199 195 203 0 4 88 94 195 201 107 107 195 199 195
204 0 6 21 30 46 53 25 23 60 57 77 75 51 53 143 145 163 164 30 26 64 65 64
73 0 4 77 83 170 175 94 93 170 173 170 179 0 6 23 32 51 58 27 26 71 70 97
96 118 121 145 147 153 147 4 0 11 10 14 21 4 12 71 86 149 165 77 79 170 176
206 215 36 39 80 85 98 102 122 118 142 138 142 147 0 6 72 82 160 170 88 87
160 162 160 166 0 7 32 44 78 87 19 18 48 47 66 65 18 17 36 32 40 32 4 0 0
-7 -8 -16 -9 -8 -16 -21 -16 -28 0 -7 -11 -18 -24 -26 -14 -7 -27 -23 -30 -36
-4 -13 -11 -24 -16 -24 -6 0 -10 -7 -10 -15 0 -9 -6 -18 -14 -21 -8 -3 -19
-19 -25 -35 -5 -16 -15 -29 -20 -29 -6 0 -11 -6 -11 -13 0 -7 -9 -20 -20 -30
-11 -9 -20 -23 -20 -31 0 -8 -7 -16 -15 -20 -8 -3 -15 -11 -15 -17 0 -6 -11
-22 -25 -35 -14 -13 -25 -27 -25 -31 0 -9 -24 -44 -52 -73 -9 -10 -19 -27 -23
-39 -3 -12 -11 -21 -16 -21 -5 0 -9 -6 -9 -13 0 -7 -9 -20 -20 -30 -11 -9 -20
-23 -20 -31 0 -8 -7 -16 -15 -20 -8 -3 -15 -12 -15 -21 0 -8 -5 -15 -11 -15
-5 0 -15 -13 -20 -29 -6 -16 -17 -32 -25 -35 -8 -3 -14 -12 -14 -21 0 -8 -4
-15 -10 -15 -5 0 -12 -11 -16 -24 -3 -14 -12 -27 -20 -30 -8 -3 -14 -10 -14
-16 0 -6 -11 -21 -25 -34 -14 -13 -25 -28 -25 -34 0 -6 -6 -15 -13 -19 -7 -4
-19 -23 -26 -40 -8 -18 -17 -33 -22 -33 -4 0 -11 -10 -14 -22 -4 -11 -18 -31
-31 -43 -13 -12 -24 -28 -24 -34 0 -6 -7 -14 -15 -17 -8 -4 -15 -12 -15 -19 0
-6 -9 -23 -20 -36 -31 -38 -34 -42 -50 -74 -8 -16 -25 -40 -37 -52 -13 -12
-23 -26 -23 -31 0 -8 -11 -23 -50 -69 -5 -7 -10 -17 -10 -23 0 -6 -7 -13 -15
-16 -8 -4 -15 -12 -15 -19 0 -8 -6 -20 -12 -27 -7 -7 -20 -26 -28 -43 -8 -16
-21 -34 -27 -38 -7 -4 -13 -15 -13 -22 0 -8 -4 -15 -10 -15 -5 0 -12 -11 -16
-24 -3 -14 -12 -27 -20 -30 -8 -3 -14 -10 -14 -16 0 -6 -5 -16 -10 -23 -41
-48 -50 -62 -50 -74 0 -7 -6 -16 -14 -19 -8 -3 -17 -16 -20 -30 -4 -13 -11
-24 -16 -24 -6 0 -10 -7 -10 -15 0 -9 -7 -18 -15 -21 -8 -4 -15 -13 -15 -20 0
-8 -6 -17 -14 -20 -8 -3 -17 -16 -20 -30 -4 -13 -11 -24 -16 -24 -6 0 -10 -7
-10 -15 0 -7 -6 -18 -13 -22 -7 -4 -19 -24 -27 -43 -8 -19 -20 -39 -27 -43 -7
-4 -13 -14 -13 -21 0 -8 -7 -16 -15 -20 -8 -3 -15 -12 -15 -21 0 -8 -4 -15
-10 -15 -5 0 -12 -11 -16 -24 -3 -14 -12 -27 -20 -30 -8 -3 -14 -12 -14 -21 0
-8 -4 -15 -10 -15 -5 0 -10 -7 -10 -15 0 -7 -6 -18 -13 -22 -7 -4 -19 -24 -27
-43 -8 -19 -20 -39 -27 -43 -7 -4 -13 -15 -13 -22 0 -8 -4 -15 -9 -15 -5 0
-13 -10 -17 -22 -3 -12 -12 -28 -18 -35 -24 -27 -32 -39 -39 -55 -3 -10 -11
-18 -17 -18 -5 0 -10 -6 -10 -14 0 -8 -6 -21 -13 -28 -7 -7 -19 -28 -26 -45
-7 -18 -17 -33 -22 -33 -5 0 -9 -7 -9 -15 0 -9 -6 -18 -14 -21 -8 -3 -18 -19
-21 -35 -4 -16 -11 -29 -16 -29 -5 0 -11 -11 -15 -24 -3 -14 -12 -27 -20 -30
-8 -3 -14 -12 -14 -21 0 -8 -4 -15 -8 -15 -5 0 -14 -16 -22 -35 -8 -19 -17
-35 -21 -35 -4 0 -10 -11 -13 -25 -4 -14 -11 -25 -16 -25 -6 0 -10 -7 -10 -15
0 -9 -6 -18 -14 -21 -8 -3 -18 -19 -21 -35 -4 -16 -11 -29 -16 -29 -5 0 -9 -7
-9 -15 0 -9 -6 -18 -14 -21 -8 -3 -18 -19 -21 -35 -4 -16 -10 -29 -14 -29 -4
0 -13 -16 -21 -35 -8 -19 -17 -35 -21 -35 -4 0 -10 -13 -14 -30 -4 -16 -10
-30 -15 -30 -5 0 -11 -13 -15 -29 -3 -16 -13 -32 -21 -35 -8 -3 -14 -12 -14
-21 0 -8 -4 -15 -9 -15 -5 0 -12 -14 -16 -30 -4 -17 -10 -30 -15 -30 -5 0 -11
-14 -15 -30 -4 -17 -10 -30 -14 -30 -4 0 -13 -22 -20 -50 -7 -27 -16 -50 -21
-50 -4 0 -10 -18 -14 -40 -3 -22 -10 -40 -15 -40 -5 0 -12 -17 -16 -37 -4 -21
-12 -41 -18 -45 -16 -10 -17 -266 -1 -276 6 -4 15 -22 19 -40 3 -17 10 -32 15
-32 5 0 11 -14 15 -30 4 -17 10 -30 14 -30 4 0 14 -12 22 -27 15 -31 86 -103
101 -103 5 0 19 -11 31 -24 12 -13 32 -26 45 -30 12 -4 22 -11 22 -16 0 -4 24
-11 53 -15 28 -4 55 -12 58 -17 10 -15 278 -16 287 -1 4 7 27 15 50 19 23 4
42 10 42 14 0 4 16 11 35 14 19 4 35 11 35 16 0 4 14 11 30 15 17 4 30 11 30
16 0 5 7 9 15 9 9 0 18 6 21 14 3 8 25 19 49 26 24 7 46 18 49 26 3 8 12 14
21 14 8 0 15 4 15 10 0 5 11 12 24 16 14 3 27 12 30 20 3 8 10 14 16 14 6 0
16 5 23 10 48 41 62 50 74 50 7 0 13 5 13 10 0 6 12 16 28 23 15 6 31 17 35
24 4 7 12 13 18 13 5 0 20 11 33 25 13 14 27 25 31 25 4 0 23 16 42 35 19 19
40 35 46 35 7 0 24 13 37 30 14 16 30 29 35 30 6 0 22 13 35 30 14 16 30 29
36 30 12 0 43 27 160 138 37 34 70 62 75 62 11 0 229 220 229 231 0 5 20 29
45 52 25 24 45 47 45 51 0 4 12 21 28 36 45 49 53 59 64 93 6 17 16 35 22 39
14 9 13 237 -1 247 -6 3 -16 72 -23 154 -7 81 -16 147 -20 147 -4 0 -10 18
-13 39 -4 33 -35 81 -52 81 -3 0 -14 -8 -26 -17 -49 -42 -69 -63 -69 -73 0 -7
-25 -36 -55 -65 -30 -30 -55 -57 -55 -60 0 -7 -52 -64 -113 -123 -27 -26 -69
-69 -95 -95 -127 -129 -208 -207 -216 -207 -3 0 -30 -25 -60 -55 -29 -30 -58
-55 -63 -55 -8 0 -47 -33 -125 -105 -15 -14 -32 -25 -38 -25 -6 0 -13 -6 -16
-14 -3 -8 -16 -17 -30 -20 -13 -4 -37 -20 -54 -36 -17 -16 -42 -33 -55 -36
-14 -3 -25 -10 -25 -15 0 -5 -6 -9 -14 -9 -8 0 -21 -6 -28 -14 -8 -7 -29 -17
-46 -21 -18 -3 -32 -11 -32 -15 0 -5 -16 -12 -35 -16 -19 -3 -35 -10 -35 -15
0 -5 -11 -9 -25 -9 -16 0 -25 6 -25 15 0 8 4 15 9 15 5 0 12 13 16 30 4 16 10
30 15 30 5 0 11 13 15 30 4 16 10 30 15 30 5 0 11 13 15 30 4 16 10 30 15 30
5 0 11 13 15 30 4 16 10 30 14 30 4 0 13 16 21 35 8 19 17 35 21 35 4 0 10 13
14 29 3 16 13 32 21 35 8 3 14 12 14 21 0 8 4 15 9 15 5 0 12 11 15 25 4 14
11 25 16 25 6 0 10 6 10 13 0 8 9 24 20 37 11 13 20 29 20 37 0 7 4 13 8 13 5
0 14 16 22 35 8 19 17 35 21 35 4 0 11 10 15 22 3 12 12 28 18 35 24 27 32 39
39 56 3 9 11 17 16 17 5 0 12 13 16 30 4 16 10 30 15 30 4 0 13 14 19 30 5 17
15 30 20 30 6 0 11 7 11 15 0 9 6 18 14 21 8 3 18 19 21 35 4 16 11 29 16 29
5 0 11 11 15 24 3 14 12 27 20 30 8 3 14 12 14 20 0 7 7 16 15 20 8 3 15 12
15 21 0 8 4 15 9 15 5 0 14 14 20 30 5 17 14 30 20 30 5 0 12 13 16 29 3 16
13 32 21 35 8 3 14 12 14 21 0 8 4 15 10 15 5 0 12 11 16 24 3 14 12 27 20 30
8 3 14 12 14 21 0 8 4 15 10 15 5 0 12 11 16 25 3 14 10 25 15 25 5 0 14 11
19 25 5 14 14 25 19 25 5 0 12 11 15 25 4 14 11 25 16 25 6 0 10 7 10 15 0 9
7 18 15 21 8 4 15 12 15 19 0 10 9 24 50 72 5 7 10 17 10 23 0 6 6 13 14 16 8
3 19 19 25 35 5 16 15 29 20 29 6 0 11 6 11 13 0 12 9 26 50 74 5 7 10 17 10
23 0 6 6 13 14 16 8 3 17 16 20 30 4 13 11 24 16 24 6 0 10 6 10 14 0 8 8 21
19 28 10 7 21 23 25 36 4 12 12 22 17 22 5 0 9 7 9 15 0 9 6 18 14 21 8 3 17
16 20 30 4 13 11 24 16 24 6 0 10 7 10 15 0 9 7 18 15 21 8 4 15 13 15 20 0 8
6 17 14 20 8 3 19 19 25 35 5 16 14 29 19 29 6 0 13 11 16 25 4 14 11 25 16
25 6 0 10 7 10 15 0 8 9 19 20 25 11 6 20 17 20 25 0 8 4 15 10 15 5 0 12 11
16 24 3 14 12 27 20 30 8 3 14 10 14 16 0 6 9 20 20 32 11 12 20 27 20 34 0 6
7 14 15 18 8 3 15 12 15 21 0 8 4 15 9 15 5 0 13 10 16 22 4 11 18 31 31 43
13 12 24 28 24 34 0 6 7 14 15 17 8 4 15 13 15 20 0 8 6 17 14 20 8 3 19 19
25 35 5 16 15 29 20 29 6 0 11 7 11 15 0 8 9 23 20 32 11 10 20 23 20 29 0 7
7 14 15 18 8 3 15 11 15 17 0 6 11 22 24 34 13 12 27 32 31 43 3 12 11 22 16
22 5 0 9 6 9 13 0 10 13 28 60 84 5 7 10 16 10 20 0 5 9 16 20 26 11 9 20 23
20 31 0 8 7 16 15 20 8 3 15 12 15 21 0 8 4 15 8 15 5 0 15 12 23 27 8 16 23
37 35 48 11 11 23 28 27 38 3 9 11 17 17 17 5 0 10 7 10 15 0 8 9 23 20 32 11
10 20 23 20 29 0 7 7 14 15 18 8 3 15 12 15 21 0 8 4 15 8 15 5 0 15 12 23 28
7 15 24 37 36 49 13 12 23 26 23 30 0 5 9 16 20 26 11 9 20 24 20 32 0 8 5 15
10 15 6 0 14 8 17 18 4 9 16 26 27 37 12 11 27 32 33 48 7 15 17 27 23 27 5 0
10 6 10 13 0 7 9 20 20 30 11 9 20 24 20 32 0 8 5 15 10 15 6 0 14 8 17 18 4
9 16 26 28 37 12 11 24 28 28 38 3 9 11 17 16 17 5 0 14 14 20 30 5 17 14 30
20 30 5 0 13 10 16 22 4 11 18 31 31 43 13 12 24 27 24 33 0 6 9 16 20 22 11
6 20 17 20 25 0 8 4 15 8 15 5 0 15 12 23 28 7 15 24 37 36 49 13 12 23 26 23
30 0 5 9 16 20 26 11 9 20 23 20 31 0 8 7 16 15 20 8 3 15 11 15 17 0 6 10 21
23 33 12 11 28 33 34 49 7 15 17 27 23 27 5 0 10 7 10 15 0 9 7 18 15 21 8 3
17 15 21 26 3 12 17 31 30 43 13 12 24 26 24 31 0 5 9 17 20 27 11 9 20 26 20
37 0 11 5 20 10 20 6 0 10 7 10 15 0 8 -4 15 -9 15 -5 0 -11 14 -15 31 -6 31
-27 59 -45 59 -5 0 -14 7 -19 16 -7 13 -40 18 -173 26 -90 6 -166 14 -169 18
-3 5 -33 12 -68 16 -34 3 -62 10 -62 14 0 4 -22 10 -49 14 -27 4 -51 11 -53
17 -4 11 -225 22 -265 13z"/>
<path d="M32713 5653 c-13 -2 -23 -8 -23 -13 0 -5 -20 -12 -45 -16 -25 -3 -45
-10 -45 -14 0 -4 -26 -13 -57 -20 -32 -8 -64 -20 -71 -27 -7 -7 -20 -13 -28
-13 -8 0 -14 -4 -14 -10 0 -5 -11 -12 -25 -16 -15 -4 -28 -16 -31 -29 -3 -13
-12 -26 -20 -29 -8 -3 -14 -12 -14 -21 0 -8 -4 -15 -9 -15 -5 0 -12 -13 -16
-29 -6 -30 -35 -52 -35 -27 0 7 -9 23 -20 36 -11 13 -20 27 -20 32 0 14 -51
58 -66 58 -8 0 -14 4 -14 9 0 5 -12 12 -26 15 -15 4 -33 14 -41 21 -8 8 -25
15 -38 15 -13 0 -25 6 -27 13 -6 16 -395 18 -406 1 -4 -6 -31 -15 -59 -19 -29
-4 -53 -11 -53 -15 0 -5 -25 -12 -55 -15 -30 -4 -55 -11 -55 -16 0 -4 -16 -11
-35 -15 -19 -3 -35 -10 -35 -14 0 -4 -16 -11 -35 -14 -19 -4 -35 -11 -35 -16
0 -6 -11 -10 -24 -10 -14 0 -31 -7 -40 -15 -8 -8 -37 -20 -65 -26 -28 -6 -51
-14 -51 -19 0 -5 -13 -11 -30 -15 -16 -4 -30 -11 -30 -16 0 -5 -11 -11 -25
-15 -14 -3 -25 -10 -25 -14 0 -5 -13 -11 -30 -15 -16 -4 -30 -10 -30 -15 0 -4
-11 -11 -25 -14 -14 -4 -25 -11 -25 -16 0 -6 -6 -10 -14 -10 -8 0 -21 -6 -28
-13 -7 -7 -29 -19 -48 -27 -19 -8 -39 -20 -43 -27 -4 -7 -15 -13 -22 -13 -8 0
-15 -4 -15 -10 0 -5 -6 -10 -13 -10 -14 0 -50 -25 -75 -52 -9 -10 -22 -18 -29
-18 -7 0 -13 -4 -13 -9 0 -5 -13 -14 -30 -20 -16 -5 -30 -15 -30 -20 0 -6 -11
-13 -24 -17 -13 -3 -29 -16 -36 -30 -8 -13 -19 -24 -26 -24 -7 0 -26 -13 -42
-30 -17 -16 -34 -30 -39 -30 -4 0 -23 -16 -40 -35 -18 -19 -37 -35 -42 -35 -5
0 -36 -27 -69 -60 -33 -33 -63 -60 -67 -60 -9 0 -375 -367 -375 -376 0 -4 -20
-27 -45 -51 -25 -24 -45 -48 -45 -53 0 -5 -16 -24 -35 -43 -19 -19 -35 -39
-35 -46 0 -6 -5 -11 -10 -11 -6 0 -16 -12 -23 -27 -6 -16 -17 -32 -24 -36 -7
-4 -13 -13 -13 -19 0 -6 -11 -21 -25 -34 -13 -12 -27 -34 -30 -47 -4 -14 -13
-28 -21 -31 -8 -3 -14 -12 -14 -21 0 -8 -4 -15 -10 -15 -5 0 -12 -11 -16 -24
-3 -14 -12 -27 -19 -30 -7 -2 -16 -18 -20 -35 -4 -17 -10 -31 -15 -31 -5 0
-11 -13 -15 -30 -4 -16 -10 -30 -15 -30 -5 0 -11 -13 -15 -30 -4 -16 -10 -30
-15 -30 -5 0 -11 -13 -15 -30 -4 -16 -11 -30 -16 -30 -5 0 -9 -6 -9 -14 0 -8
-6 -21 -13 -28 -8 -7 -17 -30 -21 -51 -4 -20 -11 -37 -15 -37 -5 0 -15 -29
-22 -65 -7 -36 -16 -65 -20 -65 -5 0 -11 -22 -15 -50 -4 -27 -10 -50 -15 -50
-5 0 -9 -5 -9 -11 0 -13 -73 -89 -85 -89 -4 0 -18 -11 -31 -25 -13 -14 -27
-25 -31 -25 -5 0 -16 -9 -26 -20 -9 -11 -24 -20 -32 -20 -8 0 -15 -5 -15 -10
0 -6 -12 -16 -27 -23 -16 -6 -33 -16 -40 -22 -7 -5 -18 -15 -26 -21 -7 -6 -24
-15 -38 -19 -13 -4 -27 -12 -30 -17 -3 -5 -29 -11 -57 -15 -29 -3 -52 -10 -52
-14 0 -5 -13 -9 -30 -9 -16 0 -30 4 -30 10 0 5 -11 12 -24 16 -15 3 -27 16
-31 32 -4 15 -12 30 -18 34 -16 9 -16 246 -1 256 6 4 15 37 18 75 4 37 11 67
16 67 4 0 11 23 15 50 4 28 11 50 15 50 5 0 11 18 15 40 4 22 10 40 15 40 4 0
11 20 14 45 4 25 11 45 15 45 4 0 13 27 20 60 8 33 17 60 22 60 4 0 11 16 15
35 3 19 10 35 14 35 5 0 11 14 15 30 4 17 10 30 15 30 4 0 11 16 14 35 4 19
11 35 16 35 4 0 11 14 15 30 4 17 10 30 15 30 4 0 10 18 14 40 3 22 11 40 16
40 5 0 15 18 21 40 7 22 16 40 20 40 4 0 10 14 14 30 4 17 11 30 15 30 5 0 12
16 16 35 3 19 10 35 14 35 5 0 11 14 15 30 4 17 10 30 15 30 5 0 11 14 15 30
4 17 10 30 14 30 4 0 13 16 21 35 8 19 17 35 21 35 4 0 10 14 14 30 4 17 10
30 15 30 5 0 11 14 15 30 4 17 11 30 16 30 5 0 9 7 9 15 0 9 6 18 14 21 8 3
18 19 21 35 4 16 10 29 15 29 4 0 11 11 14 25 4 14 10 25 15 25 5 0 12 14 16
31 4 17 13 33 20 36 8 2 17 17 20 33 3 16 13 31 21 34 8 3 14 12 14 21 0 8 4
15 10 15 5 0 12 11 16 25 3 14 10 25 15 25 5 0 13 8 16 17 4 10 17 27 28 38
26 24 45 76 45 121 0 19 5 34 10 34 6 0 10 7 10 15 0 8 -4 15 -10 15 -5 0 -10
10 -10 21 0 38 -23 99 -37 99 -7 0 -13 4 -13 10 0 5 -19 15 -42 22 -24 6 -46
16 -50 22 -10 15 -280 14 -285 -1 -3 -7 -15 -13 -27 -13 -13 0 -38 -15 -57
-34 -62 -63 -95 -101 -102 -119 -8 -21 -37 -23 -37 -2 0 8 -4 15 -10 15 -5 0
-10 5 -10 11 0 15 -74 89 -89 89 -6 0 -11 4 -11 9 0 4 -20 14 -45 21 -25 7
-45 16 -45 21 0 4 -21 11 -47 15 -27 4 -51 12 -55 18 -10 15 -397 14 -406 -1
-4 -6 -35 -14 -69 -18 -35 -4 -63 -10 -63 -14 0 -4 -32 -13 -72 -20 -39 -7
-78 -19 -86 -27 -7 -8 -24 -14 -38 -14 -13 0 -24 -4 -24 -9 0 -5 -13 -12 -30
-16 -16 -4 -30 -10 -30 -15 0 -5 -13 -11 -30 -15 -16 -4 -30 -11 -30 -16 0 -5
-9 -9 -20 -9 -11 0 -23 -6 -26 -14 -3 -8 -19 -18 -35 -21 -16 -4 -29 -10 -29
-14 0 -4 -17 -13 -37 -20 -21 -8 -43 -19 -50 -25 -28 -24 -39 -32 -55 -39 -10
-3 -18 -11 -18 -16 0 -5 -11 -12 -25 -15 -14 -4 -25 -11 -25 -16 0 -6 -7 -10
-15 -10 -9 0 -18 -7 -21 -15 -4 -8 -12 -15 -18 -15 -7 0 -21 -8 -32 -18 -10
-10 -27 -21 -36 -25 -10 -3 -18 -11 -18 -16 0 -5 -10 -13 -22 -17 -12 -4 -33
-20 -47 -35 -14 -16 -29 -29 -33 -29 -4 0 -23 -16 -42 -35 -20 -19 -40 -35
-46 -35 -10 0 -66 -55 -110 -109 -14 -16 -31 -30 -37 -31 -17 0 -173 -156
-173 -173 -1 -6 -15 -23 -32 -37 -45 -37 -98 -92 -98 -102 0 -5 -13 -23 -30
-40 -16 -16 -30 -35 -30 -42 0 -7 -11 -19 -25 -26 -14 -8 -28 -24 -31 -36 -3
-12 -12 -25 -20 -28 -8 -3 -14 -12 -14 -21 0 -8 -4 -15 -9 -15 -5 0 -14 -13
-20 -30 -5 -16 -15 -30 -20 -30 -6 0 -11 -7 -11 -15 0 -9 -6 -18 -14 -21 -8
-3 -18 -19 -21 -35 -4 -16 -11 -29 -16 -29 -5 0 -11 -11 -15 -25 -3 -14 -10
-25 -14 -25 -4 0 -11 -11 -14 -25 -4 -14 -10 -25 -15 -25 -5 0 -12 -13 -16
-30 -4 -16 -10 -30 -14 -30 -5 0 -14 -20 -21 -45 -7 -25 -16 -45 -21 -45 -4 0
-11 -16 -15 -35 -3 -19 -10 -35 -15 -35 -5 0 -12 -18 -15 -40 -4 -22 -10 -40
-14 -40 -5 0 -11 -18 -15 -40 -4 -22 -10 -40 -15 -40 -4 0 -11 -25 -15 -55 -3
-30 -10 -55 -15 -55 -5 0 -12 -35 -15 -77 -4 -43 -12 -81 -18 -85 -15 -9 -16
-406 -1 -416 6 -4 14 -28 18 -54 4 -27 11 -48 15 -48 5 0 11 -18 15 -40 3 -22
11 -40 16 -40 5 0 12 -11 16 -25 3 -14 10 -25 14 -25 5 0 12 -9 15 -20 9 -28
136 -156 164 -165 11 -3 21 -10 21 -15 0 -4 12 -11 26 -14 15 -4 33 -14 41
-21 8 -8 25 -15 38 -15 13 0 25 -4 27 -10 2 -5 38 -13 81 -16 42 -4 77 -11 77
-15 0 -5 29 -9 65 -9 36 0 65 4 65 9 0 5 29 12 65 16 36 3 65 11 65 15 0 5 16
12 35 16 19 3 35 10 35 15 0 5 18 12 40 15 22 4 40 10 40 14 0 5 14 11 30 15
17 4 30 10 30 14 0 4 16 13 35 21 19 8 35 17 35 21 0 4 13 10 29 14 16 3 32
13 35 21 3 8 12 14 21 14 8 0 15 4 15 10 0 5 11 12 24 16 14 3 27 12 30 20 3
8 12 14 21 14 8 0 15 5 15 10 0 6 8 14 17 17 17 7 41 25 68 51 8 6 18 12 24
12 6 0 15 9 21 20 6 11 16 20 22 20 6 0 21 11 34 25 13 14 28 25 33 25 6 0 35
25 66 55 30 30 57 55 61 55 3 0 32 26 64 58 32 31 66 64 76 74 30 26 64 65 64
73 0 4 25 32 55 61 30 30 55 58 55 62 0 4 8 15 18 23 22 21 48 52 56 70 3 8 4
-4 1 -25 -2 -22 -8 -42 -13 -45 -14 -10 -32 -169 -32 -289 0 -114 17 -252 30
-252 4 0 11 -16 14 -35 4 -19 11 -35 16 -35 4 0 11 -13 15 -29 3 -16 13 -32
21 -35 8 -3 14 -11 14 -17 0 -6 10 -21 23 -33 12 -12 28 -34 36 -49 8 -15 25
-30 37 -33 12 -3 25 -12 28 -20 3 -8 12 -14 21 -14 8 0 15 -4 15 -9 0 -5 14
-12 30 -16 17 -4 30 -10 30 -15 0 -4 19 -11 43 -15 23 -4 45 -12 49 -19 10
-15 336 -15 346 0 4 6 28 14 55 18 26 4 47 11 47 16 0 5 16 12 35 16 19 3 35
10 35 14 0 5 14 11 30 15 17 4 30 11 30 16 0 5 6 9 14 9 8 0 21 6 28 13 7 7
28 19 46 26 17 7 32 17 32 22 0 5 7 9 15 9 9 0 18 6 21 14 3 8 16 17 30 20 13
4 24 11 24 16 0 6 6 10 13 10 7 0 21 10 32 22 l19 22 9 -29 c6 -17 16 -34 23
-38 8 -4 14 -12 14 -18 0 -17 131 -139 156 -145 13 -3 24 -10 24 -14 0 -5 15
-12 33 -15 17 -4 35 -13 39 -19 11 -16 396 -15 406 1 4 7 27 15 50 19 23 4 42
10 42 14 0 4 16 11 35 14 19 4 35 11 35 16 0 4 14 11 30 15 17 4 30 10 30 15
0 5 14 11 30 15 17 4 30 10 30 14 0 5 20 14 44 21 25 7 47 18 50 26 3 8 12 14
20 14 7 0 16 7 20 15 3 8 12 15 21 15 8 0 15 4 15 10 0 5 11 12 24 16 14 3 27
12 30 20 3 8 10 14 16 14 6 0 16 5 23 10 53 45 73 60 81 60 5 0 19 11 31 24
12 13 31 27 43 30 11 4 23 13 26 21 3 8 11 15 18 15 7 1 24 14 38 30 13 17 30
30 36 30 7 0 33 20 57 45 25 25 48 45 51 45 4 0 62 56 131 125 69 69 125 121
125 115 0 -5 -6 -13 -14 -17 -7 -4 -19 -26 -26 -48 -7 -22 -18 -45 -24 -52
-27 -31 -34 -41 -40 -61 -4 -12 -11 -22 -16 -22 -5 0 -11 -13 -15 -29 -3 -16
-13 -32 -21 -35 -8 -3 -14 -12 -14 -21 0 -8 -4 -15 -10 -15 -5 0 -10 -7 -10
-15 0 -9 -6 -18 -14 -21 -8 -3 -19 -25 -26 -50 -7 -24 -16 -44 -21 -44 -4 0
-11 -10 -15 -22 -3 -12 -12 -28 -18 -35 -29 -33 -36 -43 -42 -67 -3 -14 -10
-26 -15 -26 -5 0 -9 -7 -9 -15 0 -9 -6 -18 -14 -21 -8 -3 -18 -19 -21 -35 -4
-16 -10 -29 -14 -29 -4 0 -13 -16 -21 -35 -8 -19 -17 -35 -21 -35 -4 0 -10
-14 -14 -30 -4 -17 -11 -30 -16 -30 -5 0 -11 -11 -15 -25 -3 -14 -10 -25 -14
-25 -5 0 -12 -10 -16 -22 -3 -12 -13 -28 -20 -36 -8 -7 -14 -20 -14 -28 0 -8
-4 -14 -9 -14 -5 0 -12 -13 -16 -30 -4 -17 -10 -30 -14 -30 -4 0 -13 -16 -21
-35 -8 -19 -17 -35 -21 -35 -4 0 -10 -14 -14 -30 -4 -17 -11 -30 -16 -30 -5 0
-9 -7 -9 -15 0 -9 -6 -18 -14 -21 -8 -3 -18 -19 -21 -35 -4 -16 -10 -29 -15
-29 -5 0 -11 -14 -15 -30 -4 -17 -10 -30 -14 -30 -4 0 -13 -16 -21 -35 -8 -19
-17 -35 -21 -35 -4 0 -10 -14 -14 -30 -4 -17 -10 -30 -15 -30 -5 0 -11 -14
-15 -30 -4 -17 -10 -30 -15 -30 -5 0 -11 -14 -15 -30 -4 -17 -11 -30 -16 -30
-5 0 -9 -7 -9 -15 0 -9 -6 -18 -14 -21 -8 -3 -18 -19 -21 -35 -4 -16 -10 -29
-14 -29 -5 0 -14 -20 -21 -45 -7 -25 -16 -45 -20 -45 -4 0 -11 -11 -14 -25 -4
-14 -10 -25 -15 -25 -5 0 -12 -13 -16 -30 -4 -16 -10 -30 -15 -30 -4 0 -10
-18 -14 -40 -3 -22 -10 -40 -15 -40 -5 0 -12 -11 -15 -25 -4 -14 -10 -25 -15
-25 -5 0 -12 -14 -16 -30 -4 -17 -10 -30 -15 -30 -4 0 -14 -22 -21 -50 -7 -27
-16 -50 -21 -50 -4 0 -11 -18 -14 -40 -4 -22 -10 -40 -14 -40 -5 0 -11 -14
-15 -30 -4 -17 -10 -30 -15 -30 -4 0 -11 -18 -15 -40 -4 -22 -11 -40 -16 -40
-5 0 -12 -18 -15 -40 -4 -22 -10 -40 -14 -40 -4 0 -10 -22 -14 -49 -4 -27 -12
-51 -18 -53 -18 -6 -18 -280 0 -285 6 -3 12 -11 12 -19 0 -8 7 -17 15 -20 8
-4 15 -12 15 -19 0 -15 106 -125 120 -125 5 0 13 -7 18 -16 6 -10 34 -20 80
-27 40 -6 72 -15 72 -19 0 -4 14 -8 30 -8 17 0 30 4 30 8 0 5 23 14 50 21 28
7 50 17 50 22 0 5 11 11 24 15 14 3 27 12 30 20 3 8 11 14 18 14 7 1 24 14 38
30 13 17 28 30 33 30 5 0 22 14 39 30 16 17 33 30 38 30 5 0 24 16 43 35 19
19 37 35 41 35 4 0 30 23 58 50 28 28 54 50 59 50 8 0 85 73 325 308 74 72
140 132 145 132 5 0 29 21 52 46 23 25 50 54 61 63 10 9 38 35 61 59 24 23 46
42 49 42 4 0 31 25 61 55 31 30 60 55 65 55 12 0 50 37 50 49 0 4 11 20 25 35
14 15 25 32 25 37 0 6 7 18 16 27 12 11 15 29 12 67 -4 49 -20 78 -62 114 -10
9 -47 44 -81 79 -34 34 -67 62 -73 62 -6 0 -12 6 -14 13 -6 17 -220 17 -225 0
-3 -7 -11 -13 -19 -13 -8 0 -22 -9 -31 -20 -10 -11 -22 -20 -27 -20 -5 0 -27
-20 -50 -45 -24 -25 -47 -45 -53 -45 -14 0 -123 -107 -123 -120 0 -15 -181
-192 -188 -185 -4 3 -1 9 5 13 6 4 15 20 18 35 4 15 11 27 15 27 4 0 11 11 14
25 4 14 10 25 15 25 5 0 12 13 16 30 4 16 11 30 16 30 5 0 11 11 15 25 3 14
10 25 14 25 5 0 11 13 15 30 4 16 11 30 15 30 5 0 15 18 21 40 7 22 16 40 20
40 4 0 10 13 14 30 4 16 10 30 15 30 5 0 12 10 16 22 3 12 13 28 20 36 8 7 14
20 14 28 0 8 4 14 9 14 5 0 12 13 16 30 4 16 11 30 16 30 5 0 9 6 9 13 0 8 9
24 19 36 11 13 23 36 26 52 4 16 10 29 15 29 5 0 11 13 15 30 4 16 10 30 15
30 5 0 12 10 16 22 3 12 13 28 20 36 8 7 14 20 14 28 0 8 4 14 9 14 5 0 12 14
16 30 4 17 11 30 16 30 5 0 11 11 15 25 3 14 9 25 13 25 4 0 13 17 20 37 8 21
20 43 27 51 8 7 14 20 14 28 0 8 4 14 9 14 5 0 12 13 16 30 4 16 11 30 16 30
5 0 9 7 9 15 0 9 6 18 14 21 8 3 18 19 21 35 4 16 10 29 15 29 5 0 11 14 15
31 4 17 13 33 20 36 8 2 17 18 20 34 4 16 11 29 16 29 5 0 9 7 9 15 0 9 6 18
14 21 8 3 18 19 21 35 4 16 10 29 15 29 5 0 11 13 15 29 3 16 13 32 21 35 8 3
14 12 14 21 0 8 4 15 8 15 5 0 14 18 21 40 6 22 16 40 21 40 4 0 11 13 15 30
4 17 10 30 15 30 5 0 12 10 16 22 3 12 13 28 20 36 8 7 14 20 14 28 0 8 4 14
9 14 5 0 12 13 16 29 3 16 13 32 21 35 8 3 14 12 14 21 0 8 4 15 9 15 5 0 12
14 16 31 4 17 13 33 20 36 8 2 17 18 20 34 4 16 11 29 16 29 5 0 9 6 9 13 0 8
9 24 20 37 11 13 20 29 20 37 0 7 4 13 9 13 5 0 12 11 15 25 4 14 10 25 15 25
5 0 12 14 16 30 4 17 10 30 15 30 5 0 14 16 21 35 7 19 16 35 20 35 4 0 10 13
14 29 3 16 13 32 21 35 8 3 14 12 14 21 0 8 4 15 9 15 5 0 12 13 16 29 3 16
13 32 21 35 8 3 14 12 14 21 0 8 4 15 8 15 5 0 14 18 21 40 6 22 16 40 21 40
6 0 10 6 10 14 0 8 6 21 14 28 7 8 17 24 20 36 4 12 11 22 16 22 5 0 11 13 15
29 3 16 13 32 21 35 8 3 14 12 14 21 0 8 4 15 9 15 5 0 12 13 16 29 3 16 12
32 20 34 7 3 16 19 20 36 4 17 10 31 15 31 5 0 12 10 16 22 3 12 12 28 18 35
29 33 36 43 42 67 3 14 10 26 15 26 5 0 9 7 9 15 0 9 6 18 14 21 8 3 18 18 21
34 3 16 12 31 20 33 7 3 16 19 20 36 4 17 11 31 16 31 5 0 11 11 15 25 3 14
10 25 14 25 5 0 11 13 15 29 3 16 13 32 21 35 8 3 14 12 14 21 0 8 4 15 9 15
5 0 12 13 16 29 3 16 13 32 21 35 8 3 14 12 14 21 0 8 4 15 9 15 4 0 14 20 21
44 7 25 18 47 26 50 8 3 14 12 14 21 0 8 4 15 9 15 5 0 12 14 16 30 4 17 11
30 16 30 5 0 9 6 9 13 0 8 9 24 20 37 11 13 20 29 20 37 0 7 4 13 8 13 5 0 14
19 21 42 7 22 18 47 24 54 30 34 37 44 43 68 3 14 10 26 15 26 5 0 12 18 15
40 4 22 10 40 15 40 4 0 11 16 15 35 3 19 10 35 15 35 5 0 9 29 9 65 0 36 -4
65 -9 65 -5 0 -12 12 -15 26 -4 14 -19 37 -33 50 -23 21 -34 24 -102 23 -42
-1 -86 -4 -98 -6z m-693 -582 c0 -5 14 -12 30 -16 27 -6 44 -35 20 -35 -5 0
-10 -7 -10 -15 0 -9 -6 -18 -14 -21 -8 -3 -17 -16 -20 -30 -4 -13 -11 -24 -16
-24 -6 0 -10 -6 -10 -13 0 -7 -8 -20 -17 -29 -26 -23 -53 -61 -53 -73 0 -6 -9
-18 -20 -28 -11 -9 -20 -24 -20 -32 0 -8 -5 -15 -10 -15 -6 0 -14 -8 -17 -17
-4 -10 -17 -28 -30 -40 -13 -12 -23 -27 -23 -33 0 -6 -7 -13 -15 -16 -8 -3
-17 -15 -21 -26 -3 -12 -19 -33 -34 -48 -15 -15 -31 -36 -34 -48 -4 -11 -13
-23 -21 -26 -8 -3 -15 -11 -15 -18 -1 -7 -14 -24 -30 -38 -17 -13 -30 -28 -30
-33 0 -4 -16 -24 -35 -44 -19 -20 -35 -40 -35 -44 0 -5 -25 -33 -55 -63 -30
-29 -55 -57 -55 -60 0 -10 -276 -286 -285 -286 -4 0 -38 -31 -76 -70 -38 -38
-73 -70 -78 -70 -5 0 -27 -18 -49 -40 -22 -22 -43 -40 -47 -40 -5 0 -27 -20
-51 -45 -23 -25 -45 -45 -49 -45 -3 0 -12 -6 -20 -12 -27 -27 -56 -48 -63 -48
-4 0 -15 -9 -25 -20 -9 -11 -23 -20 -30 -20 -8 0 -20 -11 -27 -25 -7 -13 -22
-28 -33 -31 -11 -3 -32 -19 -47 -34 -15 -15 -37 -31 -49 -35 -11 -3 -21 -11
-21 -16 0 -5 -8 -13 -17 -16 -10 -4 -27 -16 -38 -28 -11 -12 -28 -24 -37 -28
-10 -3 -18 -11 -18 -16 0 -5 -11 -12 -25 -15 -14 -4 -25 -11 -25 -16 0 -6 -11
-15 -25 -20 -14 -5 -25 -14 -25 -19 0 -5 -13 -12 -30 -16 -16 -4 -30 -11 -30
-16 0 -5 -11 -11 -24 -15 -14 -3 -27 -12 -30 -20 -3 -8 -12 -14 -21 -14 -8 0
-15 -4 -15 -9 0 -5 -13 -12 -30 -16 -16 -4 -30 -10 -30 -15 0 -5 -15 -12 -32
-15 -18 -4 -36 -13 -40 -19 -4 -6 -44 -13 -92 -14 l-85 -4 -7 37 c-8 44 3 177
15 185 5 3 12 20 16 38 3 17 11 32 16 32 5 0 12 18 15 40 4 22 10 40 15 40 4
0 13 16 19 35 6 19 15 35 20 35 5 0 11 14 15 30 4 17 11 30 16 30 5 0 9 7 9
15 0 9 7 18 15 21 8 4 15 13 15 20 0 8 6 17 14 20 8 3 17 16 20 30 4 13 11 24
16 24 6 0 10 7 10 15 0 7 6 18 13 22 7 4 19 23 26 41 8 17 17 32 22 32 4 0 11
10 14 22 4 11 18 31 31 43 13 12 24 28 24 34 0 6 6 14 14 17 8 3 17 16 20 28
3 12 17 28 31 36 14 7 25 19 25 27 0 7 9 22 20 33 11 11 20 24 20 29 0 5 14
23 30 39 17 17 30 34 30 39 0 4 16 21 35 37 19 16 35 35 35 42 0 7 23 35 51
61 27 26 71 70 97 96 120 122 145 147 154 147 5 0 21 11 36 25 82 76 106 95
118 95 8 0 14 5 14 10 0 6 8 14 18 17 9 4 26 15 36 25 11 10 25 18 32 18 6 0
14 7 18 15 3 8 12 15 21 15 8 0 15 4 15 10 0 5 11 12 24 16 14 3 27 12 30 20
3 8 12 14 21 14 8 0 15 4 15 10 0 5 11 12 24 16 14 3 27 12 30 20 3 8 12 14
21 14 8 0 15 4 15 8 0 5 16 14 35 22 19 8 35 17 35 22 0 4 6 8 13 8 8 0 24 9
37 20 13 11 29 20 37 20 7 0 13 4 13 9 0 5 14 12 30 16 17 4 30 11 30 15 0 5
17 12 37 16 21 4 44 13 51 21 7 7 24 13 38 13 13 0 24 4 24 9 0 5 32 15 70 22
39 7 70 16 70 21 0 4 61 8 135 8 76 0 135 -4 135 -9z m-3460 -71 c0 -5 -4 -10
-10 -10 -5 0 -10 -6 -10 -13 0 -7 -9 -20 -20 -30 -11 -9 -20 -23 -20 -31 0 -8
-7 -16 -15 -20 -8 -3 -15 -12 -15 -21 0 -8 -5 -15 -10 -15 -6 0 -16 -12 -23
-27 -6 -16 -22 -38 -34 -49 -13 -12 -23 -25 -23 -30 0 -5 -9 -17 -20 -27 -11
-9 -20 -24 -20 -32 0 -8 -5 -15 -10 -15 -6 0 -14 -8 -17 -17 -4 -10 -16 -27
-28 -38 -11 -11 -27 -32 -34 -47 -8 -16 -18 -28 -23 -28 -4 0 -8 -5 -8 -12 0
-6 -7 -18 -15 -27 -62 -67 -74 -82 -80 -100 -3 -12 -11 -21 -16 -21 -5 0 -9
-6 -9 -13 0 -7 -9 -20 -20 -30 -11 -9 -20 -23 -20 -32 0 -8 -9 -19 -20 -25
-11 -6 -20 -16 -20 -22 0 -6 -11 -21 -25 -34 -14 -13 -25 -27 -25 -32 0 -5
-16 -27 -35 -48 -19 -21 -41 -47 -50 -56 -8 -10 -15 -22 -15 -28 0 -5 -16 -24
-35 -43 -19 -19 -35 -37 -35 -41 0 -9 -257 -266 -266 -266 -4 0 -40 -34 -81
-75 -40 -41 -78 -75 -83 -75 -6 0 -34 -25 -64 -55 -29 -30 -56 -55 -61 -55 -4
0 -27 -20 -52 -45 -24 -25 -48 -45 -53 -45 -5 0 -24 -16 -43 -35 -19 -19 -37
-35 -42 -35 -4 0 -25 -18 -46 -40 -22 -22 -43 -40 -48 -40 -5 0 -19 -11 -32
-25 -13 -13 -28 -25 -33 -25 -5 0 -19 -11 -31 -24 -12 -13 -31 -27 -43 -30
-11 -4 -23 -13 -26 -21 -3 -8 -12 -15 -20 -15 -7 0 -16 -7 -20 -15 -3 -8 -12
-15 -21 -15 -8 0 -15 -4 -15 -8 0 -4 -17 -14 -37 -21 -21 -8 -41 -18 -44 -23
-3 -5 -25 -12 -49 -15 -37 -5 -45 -3 -67 23 -24 28 -25 34 -21 127 2 56 8 101
15 105 6 4 14 22 18 40 3 17 10 32 15 32 5 0 11 14 15 30 4 17 10 30 14 30 4
0 12 20 19 45 7 25 16 45 21 45 5 0 12 14 16 30 4 17 11 30 16 30 5 0 9 6 9
14 0 8 6 21 14 28 7 8 17 24 20 36 4 12 11 22 16 22 5 0 11 13 15 29 3 16 13
32 21 35 8 3 14 12 14 21 0 8 3 15 8 15 4 0 14 15 21 33 8 17 21 38 28 45 7 7
13 19 13 27 0 7 7 15 15 19 8 3 15 12 15 21 0 8 4 15 10 15 5 0 12 11 16 25 3
14 10 25 15 25 5 0 13 8 16 17 4 10 19 29 34 43 15 14 30 35 34 48 3 12 11 22
16 22 5 0 13 8 16 18 4 9 31 40 60 68 29 28 53 55 53 59 0 8 34 47 64 73 47
42 146 145 146 153 0 4 9 11 21 14 11 4 36 22 56 41 19 19 39 34 44 34 12 0
69 61 69 72 0 5 7 8 15 8 8 0 23 9 32 20 10 11 23 20 30 20 7 0 13 4 13 9 0 5
10 13 23 17 12 3 30 14 39 23 31 29 44 38 66 45 12 4 22 11 22 16 0 5 13 11
29 15 16 3 32 13 35 21 3 8 12 14 21 14 8 0 15 4 15 9 0 5 14 12 30 16 17 4
30 10 30 14 0 5 20 14 45 21 25 7 45 16 45 20 0 4 16 11 35 14 19 4 35 11 35
16 0 4 19 11 43 15 23 4 44 11 48 16 3 5 27 12 55 15 27 4 52 11 55 16 3 4 53
11 112 14 59 4 107 11 107 16 0 4 11 8 25 8 14 0 25 -4 25 -10z"/>
<path d="M18933 4823 c-62 -2 -113 -8 -113 -12 0 -5 -90 -12 -200 -16 -110 -4
-200 -11 -200 -15 0 -4 -66 -10 -147 -14 -81 -3 -149 -10 -152 -15 -4 -4 -22
-11 -43 -15 -20 -4 -39 -13 -42 -21 -3 -8 -12 -15 -21 -15 -8 0 -15 -5 -15
-10 0 -6 -12 -16 -27 -23 -38 -17 -147 -129 -163 -166 -7 -17 -16 -31 -20 -31
-4 0 -11 -20 -14 -45 -4 -25 -11 -45 -16 -45 -5 0 -12 -11 -16 -25 -3 -14 -10
-25 -15 -25 -5 0 -9 -6 -9 -14 0 -8 -7 -21 -15 -30 -23 -22 -23 -146 -1 -158
9 -5 16 -14 16 -19 0 -15 23 -35 50 -44 13 -4 31 -14 39 -23 13 -13 47 -14
245 -9 126 4 232 11 235 16 3 5 48 12 99 16 50 4 92 11 92 15 0 4 39 10 87 14
48 4 90 11 93 16 3 5 72 14 153 21 81 7 147 16 147 20 0 3 61 10 135 14 74 4
135 10 135 15 0 4 51 10 112 14 62 4 115 11 118 15 3 4 32 11 64 14 33 3 62
10 65 15 3 5 17 13 29 17 13 4 47 30 75 57 l52 51 0 100 c0 71 -4 102 -12 104
-7 3 -13 10 -13 17 0 6 -9 19 -20 29 -11 9 -20 24 -20 32 0 8 -4 15 -10 15 -5
0 -15 18 -21 40 -7 22 -16 40 -20 40 -4 0 -11 9 -14 21 -4 12 -17 31 -28 42
-21 21 -30 22 -282 23 -143 0 -311 -1 -372 -3z"/>
</g>
</svg>
