<?xml version="1.0" encoding="utf-8" ?>
<svg xmlns="http://www.w3.org/2000/svg" xmlns:xlink="http://www.w3.org/1999/xlink" width="1600" height="900">
	<g>
		<path fill="#262626" transform="matrix(0.879121 0 0 0.878906 0.00012207 0)" d="M1493.47 509.776C1499.22 509.681 1520.05 522.074 1525.02 526.284C1525.07 526.582 1525.18 527.072 1525.17 527.404C1524.98 531.855 1518.24 545.089 1514.93 547.996C1521.53 550.503 1528.53 556.436 1534.51 560.362L1577.29 588.35C1584.58 593.087 1591.86 598.003 1599.38 602.379C1604.78 605.524 1610.53 608.12 1615.79 611.513C1618.66 613.368 1621.74 615.498 1623.87 618.201C1626 627.017 1619.45 632.768 1618.99 641.137C1617.89 661.181 1622.02 694.855 1618.58 712.736Q1623.54 713.203 1628.45 713.988C1628.87 714.836 1629.26 715.726 1629.46 716.655C1630.98 723.719 1630.47 790.126 1629.59 799.628C1629.45 801.096 1628.99 802.232 1628.2 803.477C1609.01 803.602 1579.28 805.428 1561.07 803.333C1559.37 801.622 1559.52 797.201 1558.35 794.741C1558.27 794.567 1558.18 794.396 1558.09 794.223C1558.45 793.627 1558.75 793.013 1558.98 792.353C1560.84 786.981 1560.46 717.669 1558.41 713.193C1569.55 712.866 1580.76 713.07 1591.9 713.027C1592.18 712.621 1592.28 712.489 1592.52 712.009C1594.59 707.838 1594.33 638.337 1592.45 632.056C1592.37 631.803 1592.32 631.536 1592.2 631.299C1589 624.949 1514.8 575.221 1504.78 570.806C1504.84 571.027 1504.9 571.245 1504.95 571.468C1505.53 574.147 1504.1 577.84 1502.59 580.059C1499.7 584.278 1480.69 601.416 1475.94 602.297C1466.48 598.129 1469.91 572.871 1464.16 564.087C1464.05 563.916 1463.92 563.754 1463.8 563.587C1468.6 560.113 1491.63 516.526 1493.47 509.776Z"/>
		<path fill="#fff" transform="matrix(0.879121 0 0 0.878906 0.00012207 0)" d="M1563.13 716.889C1583.46 715.967 1604.34 717.024 1624.73 717.145C1624.8 717.281 1624.86 717.418 1624.93 717.553C1625.32 718.282 1625.72 719.041 1625.91 719.852C1626.85 724.001 1627.14 751.265 1625.94 754.587C1625.69 755.304 1624.9 756.222 1624.48 756.89C1616.88 759.155 1572.73 757.483 1561.77 757.464C1565.16 752.033 1563.28 724.503 1563.13 716.889Z"/>
		<path fill="#fff" transform="matrix(0.879121 0 0 0.878906 0.00012207 0)" d="M1564.84 761.333C1584.77 760.792 1604.78 760.994 1624.71 761.075C1624.78 761.214 1624.85 761.355 1624.92 761.493C1627.24 765.916 1626.75 792.545 1625.2 798.315L1622.93 799.602C1603.12 801.509 1581.95 800.065 1562 800.052C1565.22 794.673 1562.74 774.161 1563.08 766.953C1563.2 764.427 1562.91 763.116 1564.84 761.333Z"/>
		<path fill="#fff" transform="matrix(0.879121 0 0 0.878906 0.00012207 0)" d="M1494.49 515.108C1495.05 515.016 1495.22 514.972 1495.85 514.961C1501.06 514.864 1516.37 524.288 1520.12 527.82C1520.16 528.651 1520.2 529.248 1520.01 530.067C1518.51 536.418 1501.53 575.587 1497.8 580.134C1494.87 583.694 1489.35 587.614 1485.35 589.892C1482.57 593.949 1478.13 596.823 1473.82 599.022C1474.11 598.08 1474.33 597.22 1474.44 596.234C1474.98 591.267 1471.2 568.056 1467.86 564.179C1468.08 563.991 1468.3 563.81 1468.52 563.615C1471.76 560.656 1494.31 519.644 1494.49 515.108Z"/>
		<path fill="#fff" transform="matrix(0.879121 0 0 0.878906 0.00012207 0)" d="M1513.95 552.443C1514.97 552.529 1515.94 552.7 1516.87 553.165C1528.09 558.787 1547.14 573.115 1558.57 580.58C1569.87 587.964 1591.24 599.661 1600.49 608.093C1600.15 611.991 1595.14 618.333 1592.2 620.892C1592.21 622.493 1592.2 622.45 1591.16 623.673C1587.12 623.044 1520.67 574.547 1507.09 567.568C1510.68 564.064 1512.6 557.211 1513.95 552.443Z"/>
		<path fill="#fff" transform="matrix(0.879121 0 0 0.878906 0.00012207 0)" d="M1596.72 635.999C1604.82 636.706 1603.94 640.645 1615.19 639.445C1616.31 647.862 1617.14 707.602 1614.14 712.446C1609.48 714.233 1601.02 713.129 1595.86 713.059C1598.08 709.623 1597.65 643.934 1596.72 635.999Z"/>
		<path fill="#fff" transform="matrix(0.879121 0 0 0.878906 0.00012207 0)" d="M1604.56 610.221C1607.83 610.224 1611.39 612.01 1614.11 613.779C1617.27 615.832 1619.5 618.943 1620.13 622.707C1620.62 625.603 1619.99 628.396 1618.26 630.768C1615.72 634.255 1612.78 635.888 1608.57 636.529C1602.76 634.41 1597.91 630.888 1592.85 627.399C1597.34 622.912 1601.44 615.783 1604.56 610.221Z"/>
		<path fill="#262626" transform="matrix(0.879121 0 0 0.878906 0.00012207 0)" d="M1673.61 713.333L1702.93 713.532C1703.32 714.137 1703.63 714.727 1703.9 715.401C1705.66 719.862 1705.28 795.224 1703.18 799.547C1710.31 799.549 1725.5 798.01 1731.62 800.317L1732.24 801.998C1728.85 804.93 1697.81 803.495 1690.92 803.488L1633.23 803.556C1633.8 802.476 1634.43 801.395 1634.7 800.187C1636.21 793.399 1635.54 726.897 1634.72 717.796C1634.57 716.183 1634.13 714.974 1633.3 713.581L1673.61 713.333Z"/>
		<path fill="#fff" transform="matrix(0.879121 0 0 0.878906 0.00012207 0)" d="M1638.08 717.777C1655.71 715.47 1681.06 717.163 1699.44 717.2C1699.5 717.333 1699.57 717.468 1699.64 717.6C1700.01 718.313 1700.4 719.062 1700.58 719.853C1701.64 724.552 1702.14 750.678 1700.52 754.58C1700.21 755.32 1699.41 756.206 1698.95 756.89C1692.43 758.947 1647.47 757.427 1637.4 757.405C1640.14 752.573 1639.47 724.215 1638.08 717.777Z"/>
		<path fill="#fff" transform="matrix(0.879121 0 0 0.878906 0.00012207 0)" d="M1638.44 761.333C1658.69 760.344 1679.22 760.948 1699.5 760.874C1700.33 762.332 1700.7 763.536 1700.8 765.194C1701.11 770.599 1702.31 793.291 1700.44 797.596C1700.19 798.15 1699.12 799.065 1698.68 799.556C1678.37 800.529 1657.75 799.801 1637.41 799.747C1640.68 793.055 1638.87 769.62 1638.44 761.333Z"/>
		<path fill="#262626" transform="matrix(0.879121 0 0 0.878906 0.00012207 0)" d="M1276.06 515.999C1283.07 515.843 1290.18 515.46 1297.18 515.926C1297.21 516.521 1297.22 517.11 1297.17 517.705C1296.81 521.563 1293.92 525.893 1290.99 528.347C1283.93 534.266 1274.11 534.98 1265.34 534.344Q1263.29 533.753 1261.26 533.079C1255.8 531.249 1248.68 527.248 1246.27 521.694C1245.48 519.87 1245.78 519.484 1246.48 517.772C1252.62 513.909 1268.55 516.197 1276.06 515.999Z"/>
		<path fill="#fff" transform="matrix(0.879121 0 0 0.878906 0.00012207 0)" d="M1249.12 520.442C1262.23 518.199 1278.46 519.891 1291.93 519.919C1291.92 520.507 1291.95 520.543 1291.75 521.198C1291 523.583 1289.13 524.772 1287.11 525.984C1286.94 526.27 1286.74 526.657 1286.51 526.913C1283.64 530.043 1276.9 531.294 1272.87 531.332C1263.11 531.422 1255.81 527.012 1249.12 520.442Z"/>
		<path fill="#262626" transform="matrix(0.879121 0 0 0.878906 0.00012207 0)" d="M841.997 549.709C843.161 549.99 844.333 550.2 845.277 551.007C848.176 553.486 850.652 557.165 853.241 560.012C861.264 568.836 869.919 576.232 880.653 581.561C910.773 596.514 948.854 592.588 974.87 571.113C978.323 568.263 986.65 557.987 989.447 557.054L991.468 559.352C981.868 572.291 967.866 582.28 952.867 587.987Q951.802 588.389 950.728 588.765Q949.654 589.141 948.571 589.49Q947.488 589.84 946.397 590.163Q945.306 590.486 944.207 590.783Q943.108 591.079 942.003 591.349Q940.897 591.618 939.785 591.861Q938.673 592.103 937.556 592.319Q936.438 592.534 935.316 592.722Q934.193 592.91 933.067 593.071Q931.94 593.231 930.81 593.364Q929.68 593.497 928.547 593.603Q927.414 593.708 926.278 593.786Q925.143 593.864 924.006 593.914Q922.869 593.965 921.731 593.987Q920.594 594.01 919.456 594.004Q918.318 593.999 917.18 593.966Q916.043 593.933 914.906 593.872Q913.77 593.811 912.635 593.723Q911.501 593.635 910.369 593.518Q909.236 593.402 908.108 593.259Q906.979 593.115 905.854 592.944Q904.729 592.773 903.608 592.574Q902.487 592.376 901.372 592.15Q900.257 591.924 899.147 591.672Q898.037 591.419 896.934 591.139Q895.831 590.859 894.735 590.552Q893.639 590.246 892.551 589.913Q891.463 589.579 890.383 589.22Q889.304 588.86 888.233 588.474Q887.162 588.088 886.102 587.676Q885.041 587.264 883.99 586.827Q882.94 586.389 881.9 585.926C866.962 579.206 848.006 565.496 841.997 549.709Z"/>
		<path fill="#262626" transform="matrix(0.879121 0 0 0.878906 0.00012207 0)" d="M165.918 865.313Q213.751 865.648 261.584 865.378C276.805 865.323 292.368 864.567 307.557 865.276C309.506 865.366 310.753 865.197 312.099 866.69L311.652 869.222C296.727 869.329 169.113 870.224 165.046 868.425L164.685 866.678L165.918 865.313Z"/>
		<path fill="#262626" transform="matrix(0.879121 0 0 0.878906 0.00012207 0)" d="M1534.46 865.333C1567.56 864.64 1600.74 865.231 1633.85 865.273C1644.83 865.287 1664.37 863.606 1674.38 865.553C1676.17 865.9 1676.23 865.83 1677.22 867.347L1675.55 869.068Q1627.16 868.529 1578.76 868.709C1565.67 868.753 1552.1 869.723 1539.08 869.259C1537.06 869.187 1536.51 869.123 1534.81 867.95L1534.46 865.333Z"/>
		<path fill="#262626" transform="matrix(0.879121 0 0 0.878906 0.00012207 0)" d="M864.941 341.626C873.022 340.846 883.913 340.281 891.13 344.546C892.908 345.597 893.708 346.058 894.232 348.112C893.84 348.522 893.826 348.59 893.393 348.874C890.312 350.89 885.875 349.325 882.582 348.609C878.994 348.289 875.262 347.919 871.666 348.123C866.419 348.421 857.421 351.251 852.538 349.896C852.065 349.764 851.123 348.887 850.678 348.57C850.744 347.687 850.596 346.849 851.151 346.132C854.1 342.321 860.44 342.289 864.941 341.626Z"/>
		<path fill="#262626" transform="matrix(0.879121 0 0 0.878906 0.00012207 0)" d="M959.182 341.599C966.689 341.007 975.161 340.68 982.091 344.05C984.32 345.134 985.694 346.237 986.525 348.587L985.171 349.909C981.809 351.188 978.349 349.706 975.049 348.777C967.726 348.219 952.42 351.093 946.875 348.229L946.653 346.716C950.253 342.307 953.939 342.262 959.182 341.599Z"/>
		<path fill="#262626" transform="matrix(0.879121 0 0 0.878906 0.00012207 0)" d="M744.442 701.481L746.694 702.372C750.707 707.985 751.394 729.149 751.878 736.74L749.536 735.944C745.975 730.295 744.958 708.872 744.442 701.481Z"/>
		<path fill="#262626" transform="matrix(0.879121 0 0 0.878906 0.00012207 0)" d="M486.041 390.381C486.509 362.037 496.531 334.863 517.2 314.953C524.533 307.89 532.63 302.462 541.652 297.797C545.023 296.054 552.18 293.761 554.751 291.363C557.696 288.616 557.391 285.027 562.137 283.312C569.308 280.722 580.602 281.166 588.263 281.345C594.065 281.48 606.115 281.622 610.406 285.59C611.543 286.642 612.434 288.039 613.226 289.355C615.854 293.72 626.302 296.526 630.984 299.219C664.099 318.272 681.671 352.135 680.495 389.889C684.545 395.252 688.497 400.708 693.021 405.685L680.342 406.286C684.818 424.151 683.655 433.717 674.087 449.698C678.196 454.411 679.96 457.601 679.47 463.987C678.671 474.402 673.773 488.324 666.926 496.16L665.53 496.628C666.047 485.074 680.925 467.296 674.435 454.811C672.509 453.331 671.327 452.372 668.709 452.571C665.565 452.81 663.581 454.859 661.901 457.339Q661.543 457.867 661.205 458.409C658.293 486.94 657.669 519.612 635.694 540.755C635.519 554.383 634.782 579.709 644.938 590.103C650.982 596.289 683.837 606.125 694.34 610.507C702.003 604.114 709.829 598.391 718.375 593.226C730.41 585.951 786.287 557.364 798.046 558.177L798.618 559.192C793.531 565.001 777.778 568.802 770.412 571.652C751.47 578.98 732.405 588.532 715.279 599.494C695.585 612.099 679.622 629.063 669.332 650.17C644.937 700.211 629.357 866.973 633.131 925.366C634.503 946.585 640.248 969.201 656.983 983.675C676.696 1000.72 704.351 1003.23 729.266 1001.21C806.541 994.932 888.282 958.27 956.041 922.496C956.689 896.147 953.319 868.791 934.344 848.803Q929.591 843.822 924.131 839.627C879.258 846.196 833.298 850.072 790.096 864.691C774.9 869.833 759.399 875.901 745.16 883.332C740.802 885.607 720.165 898.62 718.163 898.575C717.936 898.57 717.709 898.545 717.482 898.53L716.487 897.006C721.83 890.046 739.349 882.126 747.355 877.546C730.968 875.366 716.918 875.457 702.415 866.532C700.718 865.488 698.073 864.305 696.929 862.678C695.764 861.022 695.217 858.862 693.884 857.332C690.84 853.836 686.428 853.622 686.317 847.997C687.255 845.036 688.741 843.066 691.507 841.63C694.096 840.286 696.692 839.103 699.23 837.643C696.598 835.205 694.337 834.075 692.681 830.69C692.706 828.503 692.696 827.522 694.326 825.82C703.819 815.902 741.685 813.063 755.166 813.746Q756.723 813.825 758.28 813.919C757.169 800.449 751.325 760.767 754.029 750.163L754.976 749.497C759.68 770.221 760.435 793.311 761.728 814.514C768.45 815.706 774.851 817.314 781.385 819.289C784.246 812.215 783.051 745.417 783.551 732.306C785.765 674.248 790.394 606.53 810.38 551.619C820.433 548.375 830.124 544.746 839.781 540.454C824.581 594.405 819.844 652.634 817.849 708.43C817.244 725.336 818.597 742.401 817.449 759.254C831.784 758.6 906.255 756.982 915.886 759.968C919.916 761.225 925.402 761.662 929.529 760.838C929.643 760.73 929.747 760.612 929.869 760.513C934.126 757.068 1009.81 758.644 1020.24 759.439C1017.6 745.785 1018.97 719.235 1018.4 704.171Q1017.25 672.665 1013.84 641.322Q1010.44 609.979 1004.8 578.96C1002.7 567.992 1000.81 556.53 997.152 545.972L995.683 543.693C1003.2 542.951 1012.67 546.304 1020.01 548.069C1053.49 556.112 1092.23 565.579 1120.66 585.488C1127.6 590.348 1148.01 607.123 1149.41 615.154C1158.16 612.698 1167.1 607.227 1175.77 603.985C1186.08 600.129 1197.72 597.796 1207.66 593.295C1211.98 586.502 1213.85 539.919 1212.6 530.267C1212.53 527.059 1207.37 519.413 1205.94 516.051C1202.72 508.528 1201.19 499.774 1197.68 492.622C1192.39 490.566 1187.86 488.284 1183.72 484.324C1178.05 478.913 1175.12 471.288 1175.1 463.479C1175.09 460.04 1176.35 456.847 1178.88 454.475C1181.62 451.91 1185.63 450.784 1189.32 450.929C1191.7 451.022 1194.7 451.831 1196.23 453.802C1197.55 455.517 1197.65 456.541 1197.4 458.597C1194.45 458.638 1192.75 456.341 1190.03 455.338C1187.73 454.489 1184.82 454.47 1182.63 455.643C1180.51 456.779 1179.51 458.766 1178.98 461.031C1177.71 466.47 1180.05 473.495 1183.05 478C1187.76 485.079 1192.75 486.973 1200.64 488.541C1202.67 493.567 1203.5 499.448 1205.22 504.683C1210.61 521.138 1220.32 537.254 1233.77 548.352C1245.67 558.164 1261.01 564.43 1276.6 562.768C1294.2 560.892 1310.2 549.86 1321.01 536.228C1327.87 527.582 1344.04 498.893 1342.84 488.564C1347.08 487.354 1351.1 486.335 1354.47 483.343C1359.07 479.255 1363.05 471.808 1363.09 465.554C1363.11 462.692 1362.13 459.928 1360.04 457.919C1357.39 455.38 1353.39 454.275 1349.79 454.368C1331.89 454.832 1341.25 473.941 1332.23 482.407C1327.03 487.282 1314.93 486.708 1308.2 486.23C1290.25 484.953 1292.04 477.325 1282.06 466.328C1280.23 464.313 1278.52 463.465 1275.79 463.346C1272.09 467.955 1275.55 490.409 1273.73 498.249L1272.65 498.924C1269.05 494.625 1271.09 481.561 1271.12 475.876C1271.14 471.772 1271.74 467.182 1268.69 464.105C1259.12 466.122 1258.92 481.995 1247.43 485.418C1239.03 487.92 1224.36 487.689 1216.64 483.315C1203.14 475.665 1210.39 465.476 1207.01 455.005C1206.92 454.719 1206.81 454.437 1206.71 454.153C1205.03 450.805 1202.19 449.038 1199.06 447.268C1193.27 446.053 1192.06 447.537 1186.85 449.046C1184.8 449.641 1182.65 448.822 1180.91 447.691C1167.52 439.018 1178.16 414.458 1176.58 407.341C1176.55 407.185 1176.5 407.032 1176.46 406.877C1172.49 406.983 1166.66 407.617 1163.51 404.772C1164.09 399.992 1170.65 396.379 1171.63 391.407C1171.69 391.093 1171.73 390.775 1171.79 390.459C1174.11 386.31 1174.44 378.607 1175.29 373.724C1179.2 351.012 1187.8 331.132 1205.1 315.314Q1207.37 313.224 1209.77 311.294Q1212.18 309.365 1214.71 307.605Q1217.25 305.845 1219.89 304.264Q1222.54 302.682 1225.29 301.286C1229.78 299.038 1238.4 297.284 1241.29 293.654C1241.32 291.457 1241.08 289.482 1242.44 287.631C1254.75 283.932 1284.52 282.414 1296.42 287.388C1299.76 288.784 1297.36 292.935 1298.89 294.632C1300.61 296.544 1310.21 299.258 1313.1 300.53C1332.77 309.188 1349.56 329.021 1358.38 348.224C1362.31 356.765 1370.03 380.156 1366.74 388.985C1369.67 391.572 1375.7 397.534 1376.23 401.417C1376.48 403.262 1375.93 403.702 1374.91 405.119C1372.05 406.907 1367.87 406.373 1364.59 406.346C1365.87 416.846 1368.87 434.91 1361.81 443.798C1359.13 447.173 1355.46 449.272 1351.14 449.618C1348.45 449.833 1345.66 449.714 1342.97 449.655C1344.98 444.901 1343.54 435.637 1341.68 430.965C1340.7 428.488 1338.93 426.279 1336.44 425.213C1329.52 422.254 1319.85 426.993 1312.51 426.693C1308.06 426.511 1303.27 424.006 1298.95 422.776C1283.09 430.265 1253.28 429.225 1237.04 423.509C1236.77 423.414 1236.51 423.314 1236.24 423.217C1227.15 419.649 1225.06 413.419 1218.27 407.3L1208.2 407.212C1208.12 407.365 1208.04 407.52 1207.95 407.671C1205.45 411.908 1200.52 414.247 1198.12 418.392C1194.03 425.428 1197.63 435.067 1196 442.732C1204.22 444.721 1208.13 452.39 1214.16 450.435C1215.22 445.844 1213.71 442.511 1218.58 439.421C1224.95 435.375 1237.95 436.543 1244.91 438.448C1251.94 440.375 1260.08 444.038 1264.97 449.505C1265.32 449.898 1265.7 450.27 1266.06 450.652C1266.95 451.581 1267.17 451.507 1268.47 451.756C1271.67 451.75 1277.05 452.405 1279.8 450.88L1280.04 450.465C1284.63 442.626 1294.73 439.033 1303.22 436.785C1310.07 434.972 1318.33 434.2 1324.69 437.993C1327.82 439.857 1331.67 443.152 1332.62 446.798C1333.04 448.383 1332.77 449.861 1332.37 451.414C1335.66 451.697 1335.25 452.676 1337.7 453.55C1342.6 455.304 1355.37 445.254 1364.31 456.694C1366.81 459.889 1367.34 463.656 1366.72 467.564C1365.52 475.19 1360.38 483.92 1353.94 488.285C1351.47 489.957 1348.71 490.678 1345.85 491.386C1346.53 505.024 1332.4 519.463 1329.97 532.703C1327.37 546.863 1334.37 586.56 1331.58 593.785C1349.53 598.85 1422.07 628.748 1430.01 641.795C1431.94 638.167 1432.26 634.24 1430.97 630.309C1430.77 629.679 1430.48 629.201 1430.13 628.645Q1442.51 628.482 1454.9 628.453C1454.99 628.297 1455.09 628.144 1455.18 627.984C1458.16 622.345 1453.14 610.465 1460.34 607.773C1467.15 605.222 1483.82 605.068 1490.36 608.383C1492.6 609.518 1494.7 611.559 1495.38 614.035C1496.32 617.46 1495.48 625.501 1493.67 628.451C1503.92 628.47 1514.27 628.178 1524.51 628.6C1526.31 632.644 1526.61 698.892 1524.91 702.976C1524.58 703.754 1524.66 703.593 1524.3 704.184C1508.95 704.162 1493.46 703.725 1478.12 704.35C1480.25 706.602 1482.82 709.58 1482.99 712.819C1506.68 712.858 1530.72 712.127 1554.37 713.145C1555.11 714.323 1555.54 715.379 1555.66 716.771C1557.19 734.911 1555.75 754.253 1555.66 772.496C1555.63 780.861 1557.16 792.846 1555.32 800.854C1555.07 801.965 1554.61 802.838 1554 803.794L1500.94 803.683C1505.12 810.554 1504.73 825.15 1505.42 833.438C1509.48 882.272 1511.21 928.009 1499.51 976.28C1497.61 984.127 1489.78 1017.88 1485.09 1021.18L1481.65 1021.29C1461.93 1022.36 1441.45 1021.64 1421.68 1021.24L1419.04 1021.22C1403.62 1022.61 1386.89 1021.36 1371.34 1021.36L1272.45 1021.33L1269.73 1021.23C1212.91 1023.3 1155.83 1020.14 1098.96 1022.05L1098.22 1022.38L1094.94 1024L364.546 1024C363.641 1021.95 362.426 1020.82 360.759 1019.36L358.7 1018.76C357.678 1017.4 357.017 1016.06 356.393 1014.48C352.473 1004.61 349.921 993.774 347.294 983.487C325.145 896.744 337.476 798.193 372.684 716.572L264.741 716.589L264.869 802C273.677 801.971 314.17 800.448 319.497 802.121C320.969 802.583 321.072 802.956 321.626 804.317C319.714 805.788 317.559 805.913 315.163 805.978C304.932 806.258 294.501 805.712 284.233 805.744L178.885 805.595L120.186 805.71C108.977 805.735 97.3309 806.436 86.1932 805.182L85.1898 803.471L85.9078 802.664C93.7192 800.252 106.19 801.962 114.536 801.995Q113.978 762.365 114.267 722.735C130.867 722.694 255.618 724.625 259.733 721.94C260.831 720.328 261.198 720.127 261.109 718.115C260.635 717.719 260.226 717.227 259.686 716.926C256.918 715.381 176.76 716.406 166.826 716.345C166.792 710.697 165.452 687.342 168.247 683.87C182.158 683.285 180.044 676.521 190.906 671.097C190.824 658.736 190.799 646.352 189.003 634.099L188.891 633.559C186.572 622.772 177.474 615.034 180.43 603.509C182.975 600.232 186.784 597.954 190.471 596.158C200.788 591.135 212.244 587.611 222.916 583.304L296.569 553.337C299.745 548.241 302.715 543.938 308.865 542.525C313.097 541.553 318.742 541.344 322.592 543.628C326.02 545.662 327.272 549.571 327.985 553.248C328.58 556.315 328.478 559.994 329.741 562.856C333.158 570.592 339.713 575.032 341.064 584.1C342.415 593.178 337.262 598.107 338.107 608.817L361.696 608.928L361.698 631.053C378.307 631.046 394.973 630.737 411.576 631.065C411.606 639.882 411.516 648.715 411.675 657.529C429.361 639.319 448.547 623.405 471.501 612.225C481.335 607.435 517.904 594.354 522.095 588.942C530.926 577.541 530.514 556.652 530.653 542.838C513.811 524.539 510.015 506.514 506.679 482.564C505.356 473.066 503.866 463.282 503.944 453.684C500.807 452.076 497.537 450.564 494.506 448.769C489.688 455.732 487.771 461.361 489.416 469.876C492.512 485.901 502.875 489.555 506.23 498.414C502.903 498.25 499.364 494.973 497.155 492.561C490.02 484.768 484.806 473.462 485.414 462.75C485.762 456.624 488.135 451.69 491.591 446.728C485.694 438.951 481.005 432.11 482.322 421.817C482.973 416.735 484.815 411.659 486.487 406.827C481.876 406.832 477.244 406.933 472.636 406.821C477.428 401.529 481.817 396.136 486.041 390.381Z"/>
		<path fill="#51a2ff" transform="matrix(0.879121 0 0 0.878906 0.00012207 0)" d="M1205.66 597.637C1209.04 601.031 1211.02 608.531 1212.9 613.098C1232.81 661.615 1245.8 712.093 1261.13 762.174C1263.27 769.19 1267.34 787.804 1270.58 792.864C1271.81 794.779 1272.46 795.045 1274.62 795.397C1284.06 777.918 1288.88 755.549 1294.47 736.545L1318.34 654.752C1323.12 638.011 1329.85 621.386 1333.71 604.456C1334.19 602.373 1334.39 600.768 1333.87 598.663C1340.2 600.301 1349.66 602.705 1354.87 606.617C1355.2 607.259 1355.47 607.906 1355.69 608.595C1357.48 614.213 1355.08 675.466 1352.74 679.565C1345.8 676.209 1332.84 675.419 1325.13 675.498C1322.36 675.526 1319.5 675.53 1317.5 677.569C1317.85 690.499 1341.75 713.995 1343.73 724.589C1343.76 724.738 1343.78 724.889 1343.8 725.039C1342.96 732.344 1279.76 793.934 1279.13 802.918C1279.51 802.838 1280.04 802.756 1280.42 802.592C1284.82 800.684 1347.03 729.523 1348.26 726.04C1348.31 725.365 1348.34 725.433 1348.22 724.634C1347.84 722.069 1323 681.66 1319.78 679.126C1332.19 679.064 1344.1 681.143 1356.1 684.091C1356.75 683.248 1357.32 682.341 1357.56 681.294C1359.27 673.746 1361.54 613.955 1358.21 608.167C1376.07 612.496 1399.79 625.605 1415.61 635.5C1456.41 661.036 1477.93 699.898 1488.55 745.926C1500.26 796.627 1508.5 872.024 1504.42 923.62Q1503.67 932.255 1502.49 940.843Q1501.32 949.431 1499.72 957.95Q1498.13 966.47 1496.12 974.901Q1494.1 983.331 1491.68 991.653C1489.02 1000.89 1486.68 1013.23 1481.65 1021.29C1461.93 1022.36 1441.45 1021.64 1421.68 1021.24L1419.04 1021.22C1403.62 1022.61 1386.89 1021.36 1371.34 1021.36L1272.45 1021.33L1269.73 1021.23C1212.91 1023.3 1155.83 1020.14 1098.96 1022.05C1100.43 1015.64 1100.9 1003.55 1098.5 997.47C1112.1 998.016 1125.7 998.514 1139.21 996.445C1159.14 993.393 1176.15 984.525 1188.19 968.057C1221.54 922.46 1214.52 830.3 1206.23 775.976C1199.1 729.2 1187.89 681.647 1165.8 639.504C1162.31 632.837 1157.55 623.094 1151.44 618.596C1157.15 616.734 1163 613.304 1168.62 610.982C1175.62 608.092 1183.65 606.027 1190.24 602.394C1190.56 602.917 1190.85 603.438 1191.05 604.026C1192.52 608.24 1192.54 670.506 1192.03 678.628C1191.92 680.275 1191.5 681.554 1190.71 683.009C1201.34 682.092 1212.18 679.892 1222.8 678.568C1222.81 678.706 1222.83 678.843 1222.84 678.981C1223.11 684.417 1202.18 721.366 1197.46 726.314C1203.12 729.783 1208.49 738.038 1212.9 743.202C1223.25 755.305 1257.41 796.406 1268.58 803.533L1269.01 803.019C1268.09 799.73 1266.36 796.812 1264.16 794.205C1253.25 781.255 1240.83 769.024 1229.49 756.359C1223.9 750.113 1207.65 728.898 1202.14 725.223C1208.55 719.538 1225.16 686.385 1228.16 677.424L1226.99 675.894C1218.46 672.836 1203.24 677.339 1194.15 678.577C1194.63 677.739 1195.06 676.938 1195.31 675.997C1196.8 670.311 1195.89 613.769 1195.25 604.938C1195.15 603.596 1194.7 602.476 1194.06 601.302C1198.05 600.324 1201.92 599.417 1205.66 597.637Z"/>
		<path fill="#262626" transform="matrix(0.879121 0 0 0.878906 0.00012207 0)" d="M1419.04 1021.22C1419.09 1021.01 1419.15 1020.79 1419.2 1020.58C1421.88 1008.84 1420.01 985.545 1419.82 972.523C1419.06 920.052 1418.12 867.647 1414.39 815.283C1413.79 806.834 1408.74 771.853 1411.16 767.074C1413.2 768.426 1413.8 771.791 1414.27 774.153C1419.03 798.094 1428.35 1012.42 1421.97 1020.92C1421.89 1021.03 1421.78 1021.13 1421.68 1021.24L1419.04 1021.22Z"/>
		<path fill="#262626" transform="matrix(0.879121 0 0 0.878906 0.00012207 0)" d="M1269.73 1021.23C1269.78 1021.04 1269.84 1020.85 1269.88 1020.66C1272.19 1011.17 1270.55 990.023 1270.54 979.674L1270.53 872.343C1270.52 855.653 1269.51 838.736 1270.36 822.083C1270.5 819.414 1270.31 815.415 1272.12 813.367C1273.69 814.712 1274.32 815.683 1274.46 817.829C1275.01 826.63 1274.29 835.781 1274.26 844.626L1274.28 899.369C1274.32 938.457 1275.86 978.198 1274.23 1017.22C1274.17 1018.63 1273.87 1019.76 1272.94 1020.85C1272.79 1021.02 1272.61 1021.17 1272.45 1021.33L1269.73 1021.23Z"/>
		<path fill="#51a2ff" transform="matrix(0.879121 0 0 0.878906 0.00012207 0)" d="M360.759 1019.36C360.829 1019.11 360.909 1018.87 360.969 1018.62C361.759 1015.35 357.579 1005.36 356.467 1001.88Q352.412 989.502 349.373 976.835Q346.335 964.169 344.333 951.298C328.178 847.074 355.946 694.798 446.983 631.219C463.471 619.705 484.002 607.773 503.572 602.611C487.033 638.258 476.304 695.243 471.637 734.611C507.324 763.415 545.697 788.989 581.014 818.317L581.079 945.03C581.079 966.104 580.112 987.611 581.222 1008.61C581.34 1010.86 581.205 1014.52 582.809 1016.24C584.429 1013.67 584.537 1009.96 584.697 1006.95C585.838 985.499 584.708 963.367 584.702 941.84L584.624 818.93Q611.691 798.314 638.079 776.836C632.849 821.601 622.738 905.649 632.549 947.905C635.082 958.814 640.004 969.52 646.991 978.299C660.151 994.834 680.399 1002.47 700.873 1004.62C714.607 1006.05 729.166 1005.47 742.783 1003.27C742.661 1008.77 742.129 1014.46 743.78 1019.78L744.878 1020.6C747.671 1015.81 746.58 1008.2 746.387 1002.81C796.09 998.154 846.934 976.374 892.652 957.58C936.146 985.213 1042.53 994.444 1094.86 997.383C1097.66 1002.61 1093.57 1020.62 1098.22 1022.38L1094.94 1024L364.546 1024C363.641 1021.95 362.426 1020.82 360.759 1019.36Z"/>
		<path fill="#262626" transform="matrix(0.879121 0 0 0.878906 0.00012207 0)" d="M434.283 762.826C434.955 763.182 435.49 763.477 435.962 764.093C437.089 765.565 436.787 766.051 436.66 767.829C435.318 786.677 433.222 805.477 431.923 824.345Q428.567 875.436 427.055 926.615Q426.122 955.962 425.837 985.323C425.693 996.306 426.126 1007.55 425.003 1018.47C423.714 1018.09 423.218 1017.78 422.322 1016.78C420.355 1008.2 422.057 996.231 422.141 987.242Q422.857 899.346 429.098 811.668C430.31 796.106 430.097 777.826 434.283 762.826Z"/>
		<path fill="#fff" transform="matrix(0.879121 0 0 0.878906 0.00012207 0)" d="M1028.77 554.348C1042.69 557.12 1056.25 561.295 1069.7 565.784C1107.25 578.32 1131.16 592.538 1153.49 625.905C1199.06 693.982 1220.05 839.461 1203.94 919.749C1199.29 942.931 1189.7 967.665 1169.22 981.297C1160.3 987.23 1150.26 990.816 1139.74 992.558C1127.25 994.626 1114.37 994.1 1101.76 993.845Q1085.18 993.46 1068.64 992.346Q1052.09 991.233 1035.61 989.393Q1019.13 987.552 1002.75 984.989Q986.364 982.425 970.109 979.144C945.594 974.127 918.283 968.186 896.308 956.135C919.436 945.061 942.447 933.99 964.933 921.642C997.731 903.63 1029.48 883.016 1065.45 871.776C1074.92 868.818 1084.78 866.706 1094.71 866.301C1101.1 866.041 1108.58 867.06 1114.73 865.374C1114.01 864.157 1113.52 864.217 1112.2 863.878C1067.67 852.432 998.44 900.128 959.748 920.351C959.908 893.2 955.614 865.226 935.687 844.995Q932.882 842.173 929.91 839.527C966.385 834.713 1003.2 830.229 1039.88 835.738C1053.43 837.774 1068.28 841.263 1080.72 847.054C1085.51 849.285 1094.37 855.046 1099.31 853.854C1096.96 849.1 1085.58 845.185 1080.67 842.848C1082.22 797.509 1086.24 752.604 1095.14 708.051C1095.62 705.656 1096.64 702.279 1094.93 700.359C1090.56 703.653 1085.2 745.354 1084.08 753.343Q1079.82 784.084 1078.27 815.081C1077.99 820.96 1078.99 837.185 1076.45 841.738C1070.38 838.986 1063.82 837.144 1057.37 835.488C1060.27 828.147 1058.53 814.299 1058.48 806.369Q1058.41 781.847 1057.29 757.35Q1056.17 732.853 1054.01 708.425Q1051.85 683.998 1048.65 659.685Q1045.45 635.372 1041.22 611.218C1039.6 602.33 1027.19 558.196 1028.77 554.348Z"/>
		<path fill="#51a2ff" transform="matrix(0.879121 0 0 0.878906 0.00012207 0)" d="M810.38 551.619C820.433 548.375 830.124 544.746 839.781 540.454C824.581 594.405 819.844 652.634 817.849 708.43C817.244 725.336 818.597 742.401 817.449 759.254C831.784 758.6 906.255 756.982 915.886 759.968C919.916 761.225 925.402 761.662 929.529 760.838C929.643 760.73 929.747 760.612 929.869 760.513C934.126 757.068 1009.81 758.644 1020.24 759.439C1017.6 745.785 1018.97 719.235 1018.4 704.171Q1017.25 672.665 1013.84 641.322Q1010.44 609.979 1004.8 578.96C1002.7 567.992 1000.81 556.53 997.152 545.972C1005.58 548.554 1021.81 550.899 1028.77 554.348C1027.19 558.196 1039.6 602.33 1041.22 611.218Q1045.45 635.372 1048.65 659.685Q1051.85 683.998 1054.01 708.425Q1056.17 732.853 1057.29 757.35Q1058.41 781.847 1058.48 806.369C1058.53 814.299 1060.27 828.147 1057.37 835.488C996.485 821.837 902.723 838.008 839.888 848.48C822.047 835.879 801.675 827.095 781.385 819.289C784.246 812.215 783.051 745.417 783.551 732.306C785.765 674.248 790.394 606.53 810.38 551.619Z"/>
		<path fill="#262626" transform="matrix(0.879121 0 0 0.878906 0.00012207 0)" d="M817.449 759.254C831.784 758.6 906.255 756.982 915.886 759.968C915.264 760.901 914.548 761.747 913.457 762.131C910.063 763.327 831.209 762.923 823.053 762.632C821.211 762.567 819.855 762.426 818.145 761.638L817.449 759.254Z"/>
		<path fill="#262626" transform="matrix(0.879121 0 0 0.878906 0.00012207 0)" d="M929.529 760.838C929.643 760.73 929.747 760.612 929.869 760.513C934.126 757.068 1009.81 758.644 1020.24 759.439L1020 761.792C1019.51 762.075 1019.06 762.467 1018.52 762.641C1016.51 763.283 934.726 762.855 932.083 762.134C931.275 761.914 930.549 761.484 929.85 761.037C929.744 760.969 929.636 760.904 929.529 760.838Z"/>
		<path fill="#fff" transform="matrix(0.879121 0 0 0.878906 0.00012207 0)" d="M534.4 545.306C552.258 558.179 571.747 563.915 593.694 560.317C607.85 557.997 620.27 552.701 631.799 544.234C632.116 559.294 632.417 583.392 643.808 594.692C646.304 597.168 649.977 598.456 653.158 599.802C642.452 656.346 626.308 710.188 603.544 763.068C597.987 775.978 590.576 788.016 585.031 800.843L581.458 800.931C559.132 754.216 540.871 712.271 526.925 662.183C521.216 641.68 518.351 620.262 512.442 599.966C520.635 596.399 525.534 592.927 529.034 584.275C533.805 572.483 533.91 557.874 534.4 545.306Z"/>
		<path fill="#262626" transform="matrix(0.879121 0 0 0.878906 0.00012207 0)" d="M643.21 606.863L645.093 607.925C645.158 608.675 645.42 609.203 644.94 609.823C635.824 621.586 609.251 630.43 595.089 632.172C568.016 635.502 541.903 628.26 520.434 611.495C519.909 610.895 519.562 610.014 519.188 609.305L519.95 608.312C525.246 608.997 543.175 621.263 550.498 624.274C557.026 626.958 565.071 628.122 572.078 628.984C599.133 632.312 622.204 623.368 643.21 606.863Z"/>
		<path fill="#51a2ff" transform="matrix(0.879121 0 0 0.878906 0.00012207 0)" d="M585.031 800.843C585.84 800.972 587.461 801.494 588.131 801.065C591.614 798.837 596.382 786.929 598.438 782.824C620.294 739.197 636.468 690.536 647.992 643.17C651.667 628.068 654.407 612.762 657.695 597.574C661.67 611.811 661.555 630.57 668.722 643.41C650.009 678.242 645.05 731.967 638.865 771.106C622.019 787.061 601.926 801.012 583.422 814.996C547.873 787.59 510.746 761.532 476.07 733.104C477.044 698.594 493.98 629.871 508.928 599.308C512.546 615.747 515.374 632.285 519.458 648.64Q523.684 665.098 528.672 681.34Q533.66 697.583 539.4 713.575Q545.14 729.567 551.62 745.275Q558.099 760.982 565.303 776.37C568.391 782.968 572.967 796.611 578.72 801.042C579.364 801.537 580.66 801.061 581.458 800.931L585.031 800.843Z"/>
		<path fill="#fff" transform="matrix(0.879121 0 0 0.878906 0.00012207 0)" d="M507.393 453.533C508.78 453.882 510.173 453.987 511.023 455.324C511.647 456.304 511.873 459.872 512.161 461.168C513.494 467.173 516.202 473.091 520.015 477.92C525.947 485.433 534.06 490.474 543.639 491.574C570.814 494.693 570.626 469.858 581.42 461.893C587.71 457.25 598.003 487.382 618.671 490.531C627.193 491.83 634.848 488.946 641.589 483.8C647.088 479.601 654.63 471.733 655.393 464.532C655.414 464.334 655.423 464.134 655.437 463.934L656.276 463.238C657.472 472.859 654.698 483.988 653.257 493.542C650.629 508.49 647.651 522.34 637.251 534.1C624.44 548.587 604.87 556.379 585.827 557.505C566.608 558.641 547.195 552.599 532.828 539.548C512.82 521.371 508.559 479.59 507.393 453.533Z"/>
		<path fill="#262626" transform="matrix(0.879121 0 0 0.878906 0.00012207 0)" d="M605.134 515.436L606.403 516.579L606.444 518.249C604.435 520.975 601.164 522.358 598.055 523.466C587.045 527.391 577.738 526.285 567.417 521.361C566.534 519.775 566.218 519.473 566.351 517.608C569.452 517.07 574.674 520.859 577.959 521.727C587.807 524.329 596.804 520.269 605.134 515.436Z"/>
		<path fill="#51a2ff" transform="matrix(0.879121 0 0 0.878906 0.00012207 0)" d="M573.44 285.663C585.216 283.871 598.393 285.214 609.66 288.916C609.831 307.105 607.371 342.496 611.295 358.524Q611.617 359.88 612.031 361.21Q612.444 362.541 612.948 363.84Q613.452 365.139 614.044 366.401Q614.635 367.662 615.312 368.881Q615.988 370.099 616.746 371.268Q617.505 372.437 618.341 373.551Q619.178 374.665 620.088 375.72Q620.999 376.774 621.98 377.764C636.756 392.427 657.765 390.365 676.856 390.223C679.402 394.388 682.531 398.305 685.398 402.258L595.632 402.633L481.277 402.64C484.312 398.731 487.027 394.544 489.827 390.464C508.013 390.697 528.809 393.838 543.81 381.158C567.32 361.283 557.119 316.05 559.559 287.997C564.127 286.859 568.782 286.296 573.44 285.663Z"/>
		<path fill="#fff" transform="matrix(0.879121 0 0 0.878906 0.00012207 0)" d="M1243.13 290.893C1256.89 288.675 1280.07 285.364 1293.34 290.897C1293.44 291.057 1293.53 291.212 1293.62 291.376C1295.84 295.63 1295 303.221 1294.95 307.99C1294.68 334.553 1289.39 376.452 1320.87 387.597C1333.58 392.095 1349.44 390.334 1362.75 390.209C1366.65 392.752 1370.77 396.818 1371.67 401.588C1371.74 401.929 1371.78 402.275 1371.82 402.621C1368.58 403.017 1365.36 403.363 1362.1 403.546C1350.07 402.065 1335.91 403.508 1323.69 403.543L1240.04 403.758C1215.67 403.341 1191.29 403.955 1166.93 403.405C1170.23 400.964 1174.59 395.59 1175.66 391.563C1194.25 389.927 1220.55 393.99 1233.87 378.307C1246.44 363.513 1244.7 338.967 1244.73 320.858C1244.74 312.105 1245.14 302.984 1244.26 294.266C1244.13 292.959 1243.82 292.002 1243.13 290.893Z"/>
		<path fill="#fff" transform="matrix(0.879121 0 0 0.878906 0.00012207 0)" d="M1215.96 537.325C1216.58 537.442 1217.95 537.516 1218.45 537.798C1220.57 539.006 1223.9 543.647 1225.84 545.532C1236.85 556.205 1249.83 564.672 1265.41 566.594C1283.35 568.808 1298.72 561 1312.44 550.308C1316.3 547.304 1323.27 541.704 1323.89 536.65C1326.78 541.278 1326.02 549.651 1326.25 555.105C1326.71 566.447 1326.77 578.57 1328.36 589.778C1328.81 592.937 1331.12 595.984 1331.37 598.874C1331.6 601.415 1329.66 604.755 1328.21 606.664C1328.27 606.862 1328.36 607.055 1328.4 607.26C1328.91 609.704 1327.93 612.461 1326.58 614.466C1320.06 620.798 1310.88 625.528 1302.36 628.52C1281.45 635.863 1254.16 635.03 1233.92 625.768C1228.14 623.124 1223.21 618.854 1217.43 616.164L1216.8 615.876C1216.85 615.683 1216.93 615.495 1216.95 615.298C1217.34 611.953 1212.74 601.805 1210.65 599.174C1214.37 591.265 1217.8 546.027 1215.96 537.325Z"/>
		<path fill="#fff" transform="matrix(0.879121 0 0 0.878906 0.00012207 0)" d="M1321.99 622.665L1323.17 622.95L1323.6 624.302C1313.59 659.977 1303.02 695.618 1292.35 731.105C1287.09 748.573 1282.73 767.329 1275.71 784.101C1274.73 786.436 1273.73 788.092 1271.76 789.699C1272.02 788.853 1272.25 788.115 1272.24 787.216C1272.14 782.237 1260.46 744.276 1257.28 740.892C1257.49 739.936 1257.59 739.208 1257.47 738.235C1256.41 729.511 1251.87 718.947 1249.32 710.323C1244.62 694.439 1228.48 630.862 1218.73 622.681C1224.64 624.519 1230.2 627.76 1235.85 630.286C1244.79 634.283 1254.81 635.974 1264.53 636.724C1282.81 638.136 1307.58 635.032 1321.99 622.665Z"/>
		<path fill="#fff" transform="matrix(0.879121 0 0 0.878906 0.00012207 0)" d="M262.646 634.7L333.301 634.637L333.465 712.922L262.799 712.894Q262.35 673.798 262.646 634.7Z"/>
		<path fill="#fff" transform="matrix(0.879121 0 0 0.878906 0.00012207 0)" d="M308.278 574.509C309.297 574.463 314.474 574.229 315.12 574.892C318.179 578.031 319.733 589.079 323.816 593.317C325.983 595.567 330.625 596.821 333.429 598.568C334.706 601.301 334.182 605.788 334.195 608.837L312.045 608.894C311.707 616.262 311.839 623.706 311.765 631.084L259.136 631.207C257.86 658.186 259.17 685.761 259.392 712.795L237.166 712.805L236.115 712.618C235.423 710.071 240.051 704.461 241.325 701.965C244.659 695.433 245.352 688.44 245.624 681.253C242.999 677.498 240.378 674.406 236.955 671.357C231.721 671.132 226.444 671.16 221.204 671.068C224.604 661.27 229.33 651.711 233.386 642.157Q242.644 620.061 251.52 597.809Q279.712 585.703 308.278 574.509Z"/>
		<path fill="#fff" transform="matrix(0.879121 0 0 0.878906 0.00012207 0)" d="M743.683 817.285C777.091 816.493 807.598 832.963 835.639 849.511C805.406 855.278 782.732 863.143 754.56 874.77C745.979 873.472 714.502 872.091 709.858 866.733C710.814 858.047 757.646 863.133 763.599 858.302L762.965 857.11C753.6 854.178 719.245 858.677 709.353 861.416C707.41 862.27 705.247 862.49 703.17 861.941C700.907 861.343 700.273 860.563 699.183 858.696C702.353 851.093 733.559 846.892 741.991 846.045C747.317 845.511 756.622 846.73 760.935 844.176L760.994 842.611C753.427 839.024 727.501 843.938 719.068 846.365C713.024 848.104 701.732 853.537 695.819 852.978C694.981 852.899 693.568 852.112 692.733 851.791L692.634 849.834L692.016 851.243C690.742 849.537 690.857 849.364 690.866 847.338C695.996 838.573 724.142 833.356 734.138 832.2C739.779 831.548 753.828 832.037 758.027 829.578L757.786 827.845C748.873 821.581 707.957 837.382 699.928 832.643C698.144 831.589 698.149 831.18 697.637 829.301C697.967 828.652 698.021 828.451 698.437 827.923C703.911 820.966 734.523 817.902 743.683 817.285Z"/>
		<path fill="#fff" transform="matrix(0.879121 0 0 0.878906 0.00012207 0)" d="M337.636 634.621L407.878 634.645C407.85 643.291 407.69 651.948 408.905 660.527C400.776 670.508 393.562 681.06 386.472 691.787C382.178 698.689 378.343 705.732 374.61 712.952L337.337 712.871C336.76 686.862 337.004 660.632 337.636 634.621Z"/>
		<path fill="#fff" transform="matrix(0.879121 0 0 0.878906 0.00012207 0)" d="M1435.17 632.444C1445.95 631.523 1457.14 631.997 1467.96 631.985Q1494.3 631.825 1520.63 632.215C1521.73 633.948 1521.98 635.406 1522.07 637.449C1522.42 645.385 1523.64 696.656 1520.57 700.001C1513.59 702.17 1485.48 700.555 1476.86 700.461C1476.94 699.826 1477.04 699.272 1476.82 698.648C1471.14 682.18 1449.11 653.574 1433.86 645.212C1435.93 641.82 1435.21 636.345 1435.17 632.444Z"/>
		<path fill="#fff" transform="matrix(0.879121 0 0 0.878906 0.00012207 0)" d="M226.758 726.689Q243.882 726.064 261.002 726.79Q261.369 756.836 261.027 786.883L226.833 787.082L191.266 786.905L191.308 726.724L226.758 726.689Z"/>
		<path fill="#fff" transform="matrix(0.879121 0 0 0.878906 0.00012207 0)" d="M119.035 726.68C141.792 725.831 164.725 726.521 187.498 726.666C187.535 734.746 188.996 783.109 186.438 786.876Q152.208 787.066 117.978 786.763C117.815 777.773 115.596 732.11 119.035 726.68Z"/>
		<path fill="#51a2ff" transform="matrix(0.879121 0 0 0.878906 0.00012207 0)" d="M553.039 296.791L554.286 296.819C556.818 300.93 555.376 328.634 555.415 335.437C555.501 350.152 554.786 365.22 543.59 376.276C530.114 389.583 509.427 386.742 492.14 386.515L490.831 386.376L489.769 384.971C489.048 374.949 492.786 363.164 496.35 353.89C507.493 324.896 525.15 309.239 553.039 296.791Z"/>
		<path fill="#51a2ff" transform="matrix(0.879121 0 0 0.878906 0.00012207 0)" d="M613.765 295.273C626.062 300.241 637.528 306.538 647.218 315.699C667.154 334.548 676.29 358.843 677.114 385.877L666.98 386.111C652.12 386.393 636.527 386.67 625.126 375.431C620.216 370.591 616.931 364.345 615.24 357.69C611.52 343.043 613.753 311.457 613.765 295.273Z"/>
		<path fill="#fff" transform="matrix(0.879121 0 0 0.878906 0.00012207 0)" d="M1297.43 299.106C1302.44 298.427 1311.49 303.423 1315.82 305.955C1338.41 319.141 1355.34 342.464 1361.67 367.798C1362.83 372.477 1365.04 381.68 1362.52 385.855C1362.47 385.882 1362.42 385.919 1362.37 385.935C1353.83 388.468 1324.69 386.337 1316.73 382.12C1294.01 370.09 1298.76 334.966 1298.58 313.442C1298.54 309.012 1299.03 303.822 1297.62 299.63C1297.56 299.453 1297.49 299.281 1297.43 299.106Z"/>
		<path fill="#fff" transform="matrix(0.879121 0 0 0.878906 0.00012207 0)" d="M1237.04 299.997L1240.31 300.094L1241.04 301.365C1241.27 322.735 1245.59 357.502 1231.23 375.198C1218.62 390.755 1196.71 385.863 1179.05 387.546L1177.46 387.421L1176.8 385.87C1178.26 373.793 1179.89 362.286 1184.62 350.965C1194.88 326.406 1212.69 310.046 1237.04 299.997Z"/>
		<path fill="#fff" transform="matrix(0.879121 0 0 0.878906 0.00012207 0)" d="M1210.57 454.666C1232.36 453.576 1253.92 455.375 1275.67 455.264C1294.87 455.167 1314.12 452.947 1333.31 454.737C1334.08 455.851 1334.44 457.306 1334.53 458.645C1334.93 464.601 1334.58 474.397 1330.09 478.967C1325.26 483.877 1316.84 482.81 1310.57 482.735C1291.47 482.669 1295.07 472.606 1283.56 463.087C1279.93 460.079 1274.46 459.15 1269.87 459.653C1259.65 460.772 1259.15 470.65 1253.69 477.177C1250.88 480.537 1247.16 482.299 1242.81 482.646C1235.04 483.264 1222.17 484.466 1216.02 478.681C1210.08 473.089 1210.53 462.215 1210.57 454.666Z"/>
		<path fill="#262626" transform="matrix(0.879121 0 0 0.878906 0.00012207 0)" d="M1305.1 459.107C1307.28 458.62 1308.58 458.293 1310.71 459.109C1312.46 460.841 1312.75 461.076 1313.24 463.465C1312 466.235 1311.86 466.321 1309.17 467.746C1308.9 467.752 1308.62 467.78 1308.34 467.763C1306.18 467.635 1305.52 467.198 1304.07 465.765C1303.53 462.985 1304.02 461.616 1305.1 459.107Z"/>
		<path fill="#fff" transform="matrix(0.879121 0 0 0.878906 0.00012207 0)" d="M1483.75 716.888C1502.78 715.036 1531.04 716.631 1551 716.669C1551.44 717.404 1551.76 717.915 1551.93 718.767C1552.99 724.127 1553.28 752.083 1550.93 756.003L1550.33 756.929C1545.96 758.88 1501.73 757.544 1493.15 757.572C1493.34 757.085 1493.36 757.066 1493.52 756.492C1495.2 750.306 1487.03 722.889 1483.75 716.888Z"/>
		<path fill="#fff" transform="matrix(0.879121 0 0 0.878906 0.00012207 0)" d="M510.344 406.388L527.532 406.312Q527.618 409.068 527.791 411.82C528.038 415.417 528.508 419.305 531.563 421.694C546.397 433.293 632.083 426.311 653.981 423.885C654.246 430.629 655.527 437.322 656.576 443.98C643.872 442.352 645.578 439.474 635.084 435.684C627.918 433.097 619.335 433.399 611.784 433.108C608.084 435.302 611.038 438.547 609.616 441.811C591.167 448.162 572.631 444.092 553.902 442.13C544.674 441.162 535.396 440.792 526.13 440.371C532.377 439.28 538.754 437.962 545.099 437.675C548.891 437.503 552.892 438.375 556.619 437.92C558.189 437.728 559.508 437.257 560.796 436.322C561.92 435.506 561.769 435.344 561.936 433.986C556.454 429.257 534.041 433.608 527.288 436.162C523.776 437.491 520.783 440.267 517.24 441.392C514.656 442.213 510.442 441.717 507.703 441.628C508.991 429.931 508.962 418.112 510.344 406.388Z"/>
		<path fill="#fff" transform="matrix(0.879121 0 0 0.878906 0.00012207 0)" d="M518.759 444.535C534.374 443.789 557.182 443.067 571.68 449.471C576.445 448.695 589.276 446.629 593.061 449.335C593.113 452.762 593.404 456.255 592.355 459.562C589.905 461.169 584.666 457.496 580.992 458.311C578.17 458.938 576.125 462.764 574.705 465.012Q573.27 467.846 571.717 470.617C567.406 478.183 561.104 484.682 552.462 486.959C545.415 488.816 538.184 487.404 531.996 483.678C524.331 479.062 517.759 471.138 515.783 462.292C514.383 456.028 515.29 449.922 518.759 444.535Z"/>
		<path fill="#262626" transform="matrix(0.879121 0 0 0.878906 0.00012207 0)" d="M545.194 459.042C547.723 459.522 548.247 459.567 550.108 461.295C550.782 463.832 550.141 465.547 549.359 467.934C547.152 467.337 545.754 466.865 544.136 465.21C543.431 462.77 544.245 461.239 545.194 459.042Z"/>
		<path fill="#fff" transform="matrix(0.879121 0 0 0.878906 0.00012207 0)" d="M1495.62 761.333C1513.58 759.943 1532.33 761.004 1550.38 761.074C1550.45 761.213 1550.52 761.354 1550.59 761.492C1550.99 762.232 1551.41 763.008 1551.61 763.832C1553 769.657 1553.33 794.937 1550.31 799.556C1544.41 801.539 1509.14 800.094 1501.18 799.518C1501.3 787.226 1497.71 773.525 1495.62 761.333Z"/>
		<path fill="#fff" transform="matrix(0.879121 0 0 0.878906 0.00012207 0)" d="M191.813 674.739C205.674 674.319 219.638 674.63 233.51 674.596C234.838 675.404 236.19 676.219 237.417 677.176C239.872 679.091 241.146 681.643 241.536 684.701C242.836 694.889 235.728 704.963 229.866 712.686C216.947 712.977 203.985 712.775 191.061 712.769C188.65 708.256 185.85 704.132 183.3 699.732C181.054 695.857 179.594 690.471 180.92 686.056C182.572 680.554 186.935 677.259 191.813 674.739Z"/>
		<path fill="#262626" transform="matrix(0.879121 0 0 0.878906 0.00012207 0)" d="M209.852 686.137C210.065 686.147 210.277 686.153 210.489 686.166C213.687 686.359 216.376 687.209 218.443 689.804C219.677 691.354 220.145 693.232 219.889 695.188C219.4 698.931 217.1 700.608 214.29 702.681Q213.351 702.678 212.412 702.634C209.44 702.491 207.132 701.644 205.183 699.257C203.891 697.674 203.518 695.799 203.815 693.8C204.385 689.965 206.892 688.148 209.852 686.137Z"/>
		<path fill="#fff" transform="matrix(0.879121 0 0 0.878906 0.00012207 0)" d="M604.341 446.391C614.889 445.726 625.961 445.595 636.527 445.876C641.251 446.002 647.692 446.195 651.039 450.081C652.855 452.188 653.263 454.789 653.076 457.486C652.392 467.34 645.612 475.397 638.497 481.557Q635.791 483.284 632.845 484.559Q632.254 484.826 631.649 485.062Q631.045 485.298 630.429 485.503Q629.813 485.707 629.188 485.88Q628.563 486.053 627.929 486.193Q627.296 486.334 626.656 486.441Q626.016 486.549 625.372 486.623Q624.727 486.698 624.08 486.739Q623.432 486.781 622.783 486.789Q622.135 486.797 621.486 486.771Q620.838 486.746 620.192 486.687Q619.546 486.629 618.904 486.537Q618.261 486.445 617.625 486.32Q616.988 486.196 616.358 486.039Q615.729 485.881 615.108 485.692Q614.488 485.502 613.878 485.281Q613.268 485.06 612.67 484.808C605.076 481.685 598.87 475.129 595.88 467.507C594.128 463.037 593.533 458.213 595.548 453.726C597.48 449.424 600.162 448.039 604.341 446.391Z"/>
		<path fill="#262626" transform="matrix(0.879121 0 0 0.878906 0.00012207 0)" d="M617.25 460.028C619.519 460.242 621.072 460.426 622.954 461.774C623.902 464.126 623.684 465.131 623.382 467.581C621.118 467.708 619.709 467.552 617.64 466.601C616.543 464.103 616.953 462.681 617.25 460.028Z"/>
		<path fill="#fff" transform="matrix(0.879121 0 0 0.878906 0.00012207 0)" d="M295.851 557.411C299.605 565.102 296.481 565.486 304.775 571.903C273.725 584.189 243.221 597.972 212.054 609.897Q211.98 609.315 211.879 608.737C210.689 602.081 207.645 599.439 202.23 595.717C211.376 591.307 221.315 587.889 230.745 584.089C252.486 575.329 274.393 566.842 295.851 557.411Z"/>
		<path fill="#fff" transform="matrix(0.879121 0 0 0.878906 0.00012207 0)" d="M315.519 612.51L358.099 612.528L357.912 630.886L315.446 630.865L315.519 612.51Z"/>
		<path fill="#fff" transform="matrix(0.879121 0 0 0.878906 0.00012207 0)" d="M191.311 790.945L261.073 790.984L261.024 801.856L191.245 801.818L191.311 790.945Z"/>
		<path fill="#fff" transform="matrix(0.879121 0 0 0.878906 0.00012207 0)" d="M118.207 791.039L187.247 790.992L187.31 801.757C164.366 802.511 141.165 801.834 118.197 801.823L118.207 791.039Z"/>
		<path fill="#fff" transform="matrix(0.879121 0 0 0.878906 0.00012207 0)" d="M204.092 623.317C204.258 623.493 204.446 623.65 204.59 623.844C210.201 631.417 209.923 662.106 207.765 671.009L195.709 671.066C195.389 670.654 194.928 670.321 194.749 669.831C193.237 665.692 193.886 649 193.476 643.36C193.022 637.117 192.004 631.158 190.604 625.063C195.689 625.709 199.302 625.08 204.092 623.317Z"/>
		<path fill="#fff" transform="matrix(0.879121 0 0 0.878906 0.00012207 0)" d="M1459.77 611.11C1469.19 609.365 1480.33 610.49 1489.91 610.859C1490.56 611.97 1491.05 613.101 1491.29 614.37C1492.16 619.177 1492.2 624.192 1489.45 628.261C1479.1 629.023 1468.48 628.51 1458.1 628.467C1460.75 624.028 1459.83 616.204 1459.77 611.11Z"/>
		<path fill="#fff" transform="matrix(0.879121 0 0 0.878906 0.00012207 0)" d="M231.19 606.18L232.434 606.401C232.778 608.585 216.263 650.762 213.886 654.288L213.227 653.3C212.207 641.959 210.714 631.236 207.504 620.279C208.927 618.161 210.202 615.881 211.533 613.701L231.19 606.18Z"/>
		<path fill="#fff" transform="matrix(0.879121 0 0 0.878906 0.00012207 0)" d="M309.243 545.782C311.473 545.612 313.985 545.27 316.181 545.764C319.422 546.493 322.502 548.642 324.232 551.497C325.892 554.236 326.246 557.383 325.435 560.461C324.165 565.286 321.099 567.371 317.018 569.684C315.082 569.856 312.946 569.96 311.009 569.716C307.607 569.288 304.227 567.422 302.207 564.643C300.28 561.993 299.8 558.844 300.534 555.674C301.685 550.711 305.223 548.296 309.243 545.782Z"/>
		<path fill="#51a2ff" transform="matrix(0.879121 0 0 0.878906 0.00012207 0)" d="M663.229 602.33C672.706 605.778 682.075 609.595 691.476 613.247C687.415 617.429 683.682 621.924 679.884 626.344C676.641 630.683 673.68 635.327 670.622 639.803C666.999 627.773 665.195 614.733 663.229 602.33Z"/>
		<path fill="#fff" transform="matrix(0.879121 0 0 0.878906 0.00012207 0)" d="M245.125 600.045L245.649 600.523C245.987 603.919 221.622 662.871 218.276 668.667C216.793 671.236 215.682 671.121 213.028 671.813C212.849 671.574 212.626 671.361 212.491 671.094C212.468 671.048 211.935 669.406 211.941 669.288C212.052 667.072 233.994 613.329 236.667 607.42C238.908 602.466 240.131 601.922 245.125 600.045Z"/>
		<path fill="#fff" transform="matrix(0.879121 0 0 0.878906 0.00012207 0)" d="M193.346 598.248C194.991 598.202 196.672 598.165 198.292 598.497C201.535 599.163 204.653 601.06 206.374 603.947C207.97 606.622 208.119 609.903 207.212 612.834C205.682 617.775 202.341 619.686 198.031 621.994C195.86 621.989 193.748 621.95 191.669 621.255C188.448 620.179 185.527 617.897 184.131 614.743C182.921 612.009 183.029 608.77 184.114 606.009C185.854 601.582 189.308 600.049 193.346 598.248Z"/>
		<path fill="#fff" transform="matrix(0.879121 0 0 0.878906 0.00012207 0)" d="M170.546 686.784C172.633 686.732 174.264 686.829 176.255 687.482C176.961 691.19 176.742 695.33 177.779 698.899C179.04 703.236 184.823 707.901 186.882 712.723L170.189 712.657L170.546 686.784Z"/>
		<path fill="#fff" transform="matrix(0.879121 0 0 0.878906 0.00012207 0)" d="M612.308 439.376C617.071 438.305 623.554 438.593 628.394 438.99C631.844 439.273 636.561 439.445 638.963 442.246C631.989 442.543 622.77 443.851 615.933 442.362C613.629 441.86 613.593 441.277 612.308 439.376Z"/>
		<path fill="#fff" transform="matrix(0.879121 0 0 0.878906 0.00012207 0)" d="M507.37 445.06C509.69 445.199 511.569 444.768 513.246 446.465L512.436 451.227L509.173 450.36C507.313 448.515 507.596 447.508 507.37 445.06Z"/>
		<path fill="#262626" transform="matrix(0.879121 0 0 0.878906 0.00012207 0)" d="M806.858 295.616C807.257 261.798 816.751 233.315 841.327 209.311C850.465 200.386 860.5 193.482 871.955 187.865C875.26 186.244 881.253 184.568 883.953 182.377C887.548 179.461 885.1 176.74 891.718 174.287C901.216 170.765 912.957 170.527 922.978 170.684C931.659 170.821 946.199 171.431 952.381 178.219C953.568 179.523 954.318 181.089 954.931 182.723L955.787 182.962C989.267 198.822 1012.44 216.323 1025.42 252.585C1028.34 260.736 1035.41 287.987 1031.95 295.237C1031.88 295.371 1031.79 295.489 1031.71 295.616C1034.61 298.727 1039.97 303.968 1040.95 308.074C1040.46 310.47 1040.43 310.527 1038.52 312.06C1036.19 312.235 1033.88 312.408 1031.56 312.702C1033.74 322.559 1033.39 330.917 1027.89 339.691C1025.57 343.391 1022.18 347.31 1017.73 348.348C1013.88 349.246 1009.91 347.794 1006.77 345.625C996.298 338.402 987.473 323.396 980.917 312.613C934.466 311.296 887.815 312.305 841.339 312.327C839.813 316.169 838.105 320.11 837.134 324.131C834.578 334.715 834.612 344.042 826.461 352.186C827.164 355.817 827.582 362.611 829.916 365.382C833.452 362.15 835.533 358.598 839.673 355.871C858.753 353.875 879.393 353.445 898.45 355.579C904.422 356.247 910.612 359.447 916.538 359.434C925.877 359.413 935.452 356.942 944.739 355.826C957.613 354.278 992.842 351.451 1002.94 359.443C1006.01 361.879 1006.46 364.733 1008.62 367.702C1013.71 367.104 1016.28 360.545 1021.61 364.665C1024.99 367.274 1026 372.014 1026.19 376.034C1026.92 391.026 1022.23 413.379 1011.77 424.422C1008.41 427.971 1004.25 429.594 999.718 431.104C992.869 463.182 989.902 483.842 991.715 517.15C992.161 525.35 996.357 536.285 995.683 543.693C994.2 543.28 993.611 543.406 992.803 542.004C985.15 528.712 987.864 487.314 988.316 470.703C971.911 491.452 954.495 506.21 927.257 509.39C907.235 511.728 886.696 505.157 871.028 492.626C862.596 485.882 856.161 477.623 850.462 468.525C850.562 482.866 851.745 533.611 845.37 542.777L844.042 542.762C842.386 536.521 845.169 526.257 846.001 519.895C847.718 506.754 848.495 473.111 846.3 460.526C844.554 450.511 840.841 440.927 838.992 430.847C826.458 425.338 819.659 417.057 814.672 404.327C811.283 395.677 806.163 380.107 809.806 371.266C810.725 369.035 812.361 367.175 814.642 366.294C818.704 364.726 822.819 366.97 826.404 368.762L823.54 353.203C816.645 350.587 812.669 347.524 809.545 340.652C805.644 332.071 805.894 321.326 807.129 312.128L794.343 312.092C798.439 306.568 802.906 301.225 806.858 295.616Z"/>
		<path fill="#fff" transform="matrix(0.879121 0 0 0.878906 0.00012207 0)" d="M917.59 364.861C924.912 369.864 934.744 394.393 941.817 403.04C948.011 410.613 956.255 414.314 965.887 415.225C979.215 416.485 989.062 413.488 999.277 404.964C997.544 430.954 993.438 461.364 975.137 481.101C959.526 497.938 939.392 505.513 916.784 506.371C900.655 505.263 885.061 499.656 872.496 489.352C846.356 467.914 841.079 431.812 837.852 400.086C841.313 404.698 844.65 408.679 849.769 411.498C858.206 416.145 870.067 416.171 879.127 413.508C898.838 407.715 908.518 381.624 917.59 364.861Z"/>
		<path fill="#262626" transform="matrix(0.879121 0 0 0.878906 0.00012207 0)" d="M892.118 438.677C912.661 438.455 933.285 438.04 953.823 438.552C950.689 446.932 946.781 453.03 939.925 458.83C935.599 461.656 930.912 463.781 925.839 464.836Q924.975 465.015 924.103 465.15Q923.231 465.286 922.354 465.378Q921.477 465.471 920.596 465.519Q919.715 465.568 918.833 465.573Q917.95 465.578 917.069 465.539Q916.188 465.501 915.309 465.418Q914.431 465.336 913.557 465.21Q912.684 465.085 911.818 464.916Q910.952 464.747 910.096 464.536Q909.239 464.324 908.394 464.07Q907.549 463.817 906.718 463.521Q905.886 463.226 905.071 462.89Q904.255 462.554 903.457 462.178Q902.659 461.802 901.88 461.387Q901.102 460.972 900.345 460.518Q899.588 460.065 898.854 459.575C893.918 456.24 888.135 450.259 887.224 444.084C886.907 441.931 887.057 440.849 888.267 439.086L892.118 438.677Z"/>
		<path fill="#fff" transform="matrix(0.879121 0 0 0.878906 0.00012207 0)" d="M894.3 442.186L948.435 441.971C945.578 448.002 942.726 452.106 937.533 456.342C929.177 461.167 920.135 463.322 910.616 460.86C903.563 459.036 896.019 454.424 892.374 447.936C891.396 446.194 890.8 444.893 891.353 442.949L894.3 442.186Z"/>
		<path fill="#262626" transform="matrix(0.879121 0 0 0.878906 0.00012207 0)" d="M918.936 395.962C920.176 396.59 920.652 397.112 921.436 398.253C921.198 398.705 920.954 399.155 920.74 399.619C918.3 404.907 918.89 406.939 920.727 412.097C920.597 412.112 920.468 412.136 920.337 412.142C917.674 412.249 917.486 411.905 915.55 410.159C914.945 408.81 914.454 407.499 914.455 406.001C914.457 401.609 915.858 398.944 918.936 395.962Z"/>
		<path fill="#51a2ff" transform="matrix(0.879121 0 0 0.878906 0.00012207 0)" d="M910.626 174.56C915.009 173.957 919.994 174.14 924.419 174.287C930.686 174.496 945.16 174.887 949.147 180.106C957.772 191.398 939.882 257.081 963.158 281.538C978.572 297.733 1006.97 294.9 1027.49 295.462C1028 295.792 1028.45 296.094 1028.88 296.523C1031.42 299.015 1036.09 305.117 1036.14 308.635C1001.4 308.522 966.686 309.425 931.957 308.764C888.45 308.175 844.87 308.706 801.349 308.467C804.977 303.289 809.898 298.654 814.232 294.035C828.321 292.818 842.785 293.932 856.746 291.326C888.663 285.368 888.781 250.916 888.661 225.333L888.479 191.919C888.47 189.227 887.964 181.976 889.601 180.015C893.2 175.703 905.387 175.226 910.626 174.56Z"/>
		<path fill="#51a2ff" transform="matrix(0.879121 0 0 0.878906 0.00012207 0)" d="M954.612 186.364C959.849 188.9 965.115 191.42 970.265 194.13Q971.451 194.752 972.621 195.402Q973.791 196.053 974.944 196.732Q976.098 197.412 977.234 198.12Q978.37 198.827 979.489 199.563Q980.608 200.298 981.708 201.061Q982.808 201.824 983.889 202.614Q984.97 203.404 986.031 204.22Q987.092 205.036 988.133 205.878Q989.173 206.72 990.193 207.588Q991.213 208.456 992.211 209.348Q993.208 210.241 994.184 211.158Q995.159 212.074 996.112 213.015Q997.065 213.956 997.994 214.92Q998.923 215.884 999.828 216.87Q1000.73 217.857 1001.61 218.865Q1002.49 219.874 1003.35 220.904Q1004.2 221.934 1005.03 222.985Q1005.86 224.036 1006.67 225.107Q1007.47 226.178 1008.25 227.268Q1009.02 228.358 1009.77 229.468Q1010.52 230.577 1011.25 231.705Q1011.97 232.832 1012.66 233.977Q1013.36 235.122 1014.02 236.284Q1014.69 237.446 1015.32 238.623Q1015.96 239.801 1016.57 240.994Q1017.18 242.188 1017.75 243.395Q1018.33 244.603 1018.88 245.825Q1019.43 247.047 1019.94 248.281Q1020.46 249.516 1020.95 250.764Q1021.44 252.011 1021.89 253.27Q1022.35 254.529 1022.77 255.798Q1023.2 257.068 1023.59 258.348C1025.83 265.611 1031.23 284.278 1027.58 291.243C1025.61 291.876 1022.78 291.636 1020.7 291.625C1002.74 291.526 979.686 292.923 966.245 279.014C952.094 264.37 954.299 239.414 954.392 220.62L954.612 186.364Z"/>
		<path fill="#51a2ff" transform="matrix(0.879121 0 0 0.878906 0.00012207 0)" d="M883.519 186.607L884.346 186.944C884.656 187.728 884.902 188.335 885 189.181C885.834 196.348 885.071 204.666 885.058 211.95C885.024 230.962 888.149 261.694 874.986 277.01C861.206 293.044 831.597 288.859 812.422 290.522L811.092 290.289C810.973 290.055 810.842 289.827 810.733 289.588C808.215 284.082 814.214 260.218 816.502 254.234C829.171 221.104 851.66 200.949 883.519 186.607Z"/>
		<path fill="#fff" transform="matrix(0.879121 0 0 0.878906 0.00012207 0)" d="M950.875 358.585C961.641 357.46 989.694 355.877 998.229 360.696C1001.93 362.786 1004.39 366.381 1005.47 370.443C1007.58 378.442 1004.76 389.603 1000.51 396.505C995.21 405.125 988.115 409.167 978.531 411.534C972.522 411.841 966.067 412.35 960.235 410.679C941.179 405.217 930.804 378.58 921.961 362.686C931.417 360.513 941.233 359.518 950.875 358.585Z"/>
		<path fill="#262626" transform="matrix(0.879121 0 0 0.878906 0.00012207 0)" d="M963.952 367.768C966.944 367.815 969.811 368.154 972.065 370.337C973.489 371.716 974.144 373.462 974.051 375.437C973.862 379.446 971.448 381.724 968.674 384.204C965.532 383.808 962.586 382.963 960.555 380.37C959.265 378.724 958.744 376.824 959.027 374.75C959.479 371.436 961.528 369.729 963.952 367.768Z"/>
		<path fill="#fff" transform="matrix(0.879121 0 0 0.878906 0.00012207 0)" d="M964.629 371.057C966.795 371.453 968.081 371.755 969.66 373.343C970.646 375.883 969.855 377.708 969.058 380.148C966.415 379.47 965.425 379.361 963.477 377.33C962.956 374.819 963.667 373.304 964.629 371.057Z"/>
		<path fill="#fff" transform="matrix(0.879121 0 0 0.878906 0.00012207 0)" d="M862.181 357.719C879.311 357.004 897.41 357.923 913.944 362.708C906.031 378.238 898.336 398.848 883.139 408.447C879.972 409.775 876.46 410.715 873.067 411.218C864.517 412.488 855.925 411.594 848.849 406.256C840.269 399.783 834.876 387.17 833.643 376.734C833.072 371.895 833.589 366.466 836.907 362.629C841.919 356.832 854.969 357.976 862.181 357.719Z"/>
		<path fill="#262626" transform="matrix(0.879121 0 0 0.878906 0.00012207 0)" d="M870.664 367.8C870.806 367.805 870.948 367.809 871.09 367.816C874.16 367.984 877.254 368.716 879.261 371.225C880.462 372.726 881.055 374.543 880.763 376.458C880.238 379.895 878.007 381.544 875.411 383.446C875.013 383.436 874.614 383.426 874.217 383.398C871.379 383.196 868.749 382.209 866.944 379.906C865.778 378.418 865.193 376.512 865.475 374.631C865.979 371.266 868.11 369.642 870.664 367.8Z"/>
		<path fill="#fff" transform="matrix(0.879121 0 0 0.878906 0.00012207 0)" d="M870.564 370.906C873.047 371.408 874.676 371.677 876.436 373.687C877.178 376.201 876.611 377.675 875.703 380.016C873.31 379.667 871.716 379.589 869.935 377.774C868.999 375.23 869.788 373.35 870.564 370.906Z"/>
		<path fill="#fff" transform="matrix(0.879121 0 0 0.878906 0.00012207 0)" d="M814.537 368.486C819.862 369.164 824.879 371.83 829.564 374.313C832.431 390.994 835.44 407.758 837.753 424.523L836.608 425.955C827.805 420.593 822.374 413.671 818.317 404.184C813.819 393.667 810.074 379.394 814.537 368.486Z"/>
		<path fill="#fff" transform="matrix(0.879121 0 0 0.878906 0.00012207 0)" d="M1016.11 366.858C1017.3 367.001 1019.66 367.654 1020.43 368.595C1023.51 372.344 1023.09 378.138 1022.58 382.669C1021.06 396.189 1017.33 415.424 1006.28 424.302C1004.66 425.051 1003.25 425.419 1001.49 425.721C998.287 421.777 1007.25 390.68 1008.32 384.041C1008.87 380.6 1008.83 376.94 1008.88 373.456C1010.98 370.948 1013.6 368.945 1016.11 366.858Z"/>
	</g>
	<g>
		<path fill="#fff" transform="matrix(0.879121 0 0 0.878906 0.00012207 0)" d="M0 0L1818.44 0C1820.58 3.35778 1819.99 8.22266 1820 12.0828L1820 742.336L1820.01 943.951L1820 997.417C1819.99 1004.76 1820.98 1013.76 1819.75 1020.9C1819.56 1022.02 1819.05 1023.05 1818.44 1024L1094.94 1024L1098.22 1022.38L1098.96 1022.05C1155.83 1020.14 1212.91 1023.3 1269.73 1021.23L1272.45 1021.33L1371.34 1021.36C1386.89 1021.36 1403.62 1022.61 1419.04 1021.22L1421.68 1021.24C1441.45 1021.64 1461.93 1022.36 1481.65 1021.29L1485.09 1021.18C1489.78 1017.88 1497.61 984.127 1499.51 976.28C1511.21 928.009 1509.48 882.272 1505.42 833.438C1504.73 825.15 1505.12 810.554 1500.94 803.683L1554 803.794C1554.61 802.838 1555.07 801.965 1555.32 800.854C1557.16 792.846 1555.63 780.861 1555.66 772.496C1555.75 754.253 1557.19 734.911 1555.66 716.771C1555.54 715.379 1555.11 714.323 1554.37 713.145C1530.72 712.127 1506.68 712.858 1482.99 712.819C1482.82 709.58 1480.25 706.602 1478.12 704.35C1493.46 703.725 1508.95 704.162 1524.3 704.184C1524.66 703.593 1524.58 703.754 1524.91 702.976C1526.61 698.892 1526.31 632.644 1524.51 628.6C1514.27 628.178 1503.92 628.47 1493.67 628.451C1495.48 625.501 1496.32 617.46 1495.38 614.035C1494.7 611.559 1492.6 609.518 1490.36 608.383C1483.82 605.068 1467.15 605.222 1460.34 607.773C1453.14 610.465 1458.16 622.345 1455.18 627.984C1455.09 628.144 1454.99 628.297 1454.9 628.453Q1442.51 628.482 1430.13 628.645C1430.48 629.201 1430.77 629.679 1430.97 630.309C1432.26 634.24 1431.94 638.167 1430.01 641.795C1422.07 628.748 1349.53 598.85 1331.58 593.785C1334.37 586.56 1327.37 546.863 1329.97 532.703C1332.4 519.463 1346.53 505.024 1345.85 491.386C1348.71 490.678 1351.47 489.957 1353.94 488.285C1360.38 483.92 1365.52 475.19 1366.72 467.564C1367.34 463.656 1366.81 459.889 1364.31 456.694C1355.37 445.254 1342.6 455.304 1337.7 453.55C1335.25 452.676 1335.66 451.697 1332.37 451.414C1332.77 449.861 1333.04 448.383 1332.62 446.798C1331.67 443.152 1327.82 439.857 1324.69 437.993C1318.33 434.2 1310.07 434.972 1303.22 436.785C1294.73 439.033 1284.63 442.626 1280.04 450.465L1279.8 450.88C1277.05 452.405 1271.67 451.75 1268.47 451.756C1267.17 451.507 1266.95 451.581 1266.06 450.652C1265.7 450.27 1265.32 449.898 1264.97 449.505C1260.08 444.038 1251.94 440.375 1244.91 438.448C1237.95 436.543 1224.95 435.375 1218.58 439.421C1213.71 442.511 1215.22 445.844 1214.16 450.435C1208.13 452.39 1204.22 444.721 1196 442.732C1197.63 435.067 1194.03 425.428 1198.12 418.392C1200.52 414.247 1205.45 411.908 1207.95 407.671C1208.04 407.52 1208.12 407.365 1208.2 407.212L1218.27 407.3C1225.06 413.419 1227.15 419.649 1236.24 423.217C1236.51 423.314 1236.77 423.414 1237.04 423.509C1253.28 429.225 1283.09 430.265 1298.95 422.776C1303.27 424.006 1308.06 426.511 1312.51 426.693C1319.85 426.993 1329.52 422.254 1336.44 425.213C1338.93 426.279 1340.7 428.488 1341.68 430.965C1343.54 435.637 1344.98 444.901 1342.97 449.655C1345.66 449.714 1348.45 449.833 1351.14 449.618C1355.46 449.272 1359.13 447.173 1361.81 443.798C1368.87 434.91 1365.87 416.846 1364.59 406.346C1367.87 406.373 1372.05 406.907 1374.91 405.119C1375.93 403.702 1376.48 403.262 1376.23 401.417C1375.7 397.534 1369.67 391.572 1366.74 388.985C1370.03 380.156 1362.31 356.765 1358.38 348.224C1349.56 329.021 1332.77 309.188 1313.1 300.53C1310.21 299.258 1300.61 296.544 1298.89 294.632C1297.36 292.935 1299.76 288.784 1296.42 287.388C1284.52 282.414 1254.75 283.932 1242.44 287.631C1241.08 289.482 1241.32 291.457 1241.29 293.654C1238.4 297.284 1229.78 299.038 1225.29 301.286Q1222.54 302.682 1219.89 304.264Q1217.25 305.845 1214.71 307.605Q1212.18 309.365 1209.77 311.294Q1207.37 313.224 1205.1 315.314C1187.8 331.132 1179.2 351.012 1175.29 373.724C1174.44 378.607 1174.11 386.31 1171.79 390.459C1171.73 390.775 1171.69 391.093 1171.63 391.407C1170.65 396.379 1164.09 399.992 1163.51 404.772C1166.66 407.617 1172.49 406.983 1176.46 406.877C1176.5 407.032 1176.55 407.185 1176.58 407.341C1178.16 414.458 1167.52 439.018 1180.91 447.691C1182.65 448.822 1184.8 449.641 1186.85 449.046C1192.06 447.537 1193.27 446.053 1199.06 447.268C1202.19 449.038 1205.03 450.805 1206.71 454.153C1206.81 454.437 1206.92 454.719 1207.01 455.005C1210.39 465.476 1203.14 475.665 1216.64 483.315C1224.36 487.689 1239.03 487.92 1247.43 485.418C1258.92 481.995 1259.12 466.122 1268.69 464.105C1271.74 467.182 1271.14 471.772 1271.12 475.876C1271.09 481.561 1269.05 494.625 1272.65 498.924L1273.73 498.249C1275.55 490.409 1272.09 467.955 1275.79 463.346C1278.52 463.465 1280.23 464.313 1282.06 466.328C1292.04 477.325 1290.25 484.953 1308.2 486.23C1314.93 486.708 1327.03 487.282 1332.23 482.407C1341.25 473.941 1331.89 454.832 1349.79 454.368C1353.39 454.275 1357.39 455.38 1360.04 457.919C1362.13 459.928 1363.11 462.692 1363.09 465.554C1363.05 471.808 1359.07 479.255 1354.47 483.343C1351.1 486.335 1347.08 487.354 1342.84 488.564C1344.04 498.893 1327.87 527.582 1321.01 536.228C1310.2 549.86 1294.2 560.892 1276.6 562.768C1261.01 564.43 1245.67 558.164 1233.77 548.352C1220.32 537.254 1210.61 521.138 1205.22 504.683C1203.5 499.448 1202.67 493.567 1200.64 488.541C1192.75 486.973 1187.76 485.079 1183.05 478C1180.05 473.495 1177.71 466.47 1178.98 461.031C1179.51 458.766 1180.51 456.779 1182.63 455.643C1184.82 454.47 1187.73 454.489 1190.03 455.338C1192.75 456.341 1194.45 458.638 1197.4 458.597C1197.65 456.541 1197.55 455.517 1196.23 453.802C1194.7 451.831 1191.7 451.022 1189.32 450.929C1185.63 450.784 1181.62 451.91 1178.88 454.475C1176.35 456.847 1175.09 460.04 1175.1 463.479C1175.12 471.288 1178.05 478.913 1183.72 484.324C1187.86 488.284 1192.39 490.566 1197.68 492.622C1201.19 499.774 1202.72 508.528 1205.94 516.051C1207.37 519.413 1212.53 527.059 1212.6 530.267C1213.85 539.919 1211.98 586.502 1207.66 593.295C1197.72 597.796 1186.08 600.129 1175.77 603.985C1167.1 607.227 1158.16 612.698 1149.41 615.154C1148.01 607.123 1127.6 590.348 1120.66 585.488C1092.23 565.579 1053.49 556.112 1020.01 548.069C1012.67 546.304 1003.2 542.951 995.683 543.693C996.357 536.285 992.161 525.35 991.715 517.15C989.902 483.842 992.869 463.182 999.718 431.104C1004.25 429.594 1008.41 427.971 1011.77 424.422C1022.23 413.379 1026.92 391.026 1026.19 376.034C1026 372.014 1024.99 367.274 1021.61 364.665C1016.28 360.545 1013.71 367.104 1008.62 367.702C1006.46 364.733 1006.01 361.879 1002.94 359.443C992.842 351.451 957.613 354.278 944.739 355.826C935.452 356.942 925.877 359.413 916.538 359.434C910.612 359.447 904.422 356.247 898.45 355.579C879.393 353.445 858.753 353.875 839.673 355.871C835.533 358.598 833.452 362.15 829.916 365.382C827.582 362.611 827.164 355.817 826.461 352.186C834.612 344.042 834.578 334.715 837.134 324.131C838.105 320.11 839.813 316.169 841.339 312.327C887.815 312.305 934.466 311.296 980.917 312.613C987.473 323.396 996.298 338.402 1006.77 345.625C1009.91 347.794 1013.88 349.246 1017.73 348.348C1022.18 347.31 1025.57 343.391 1027.89 339.691C1033.39 330.917 1033.74 322.559 1031.56 312.702C1033.88 312.408 1036.19 312.235 1038.52 312.06C1040.43 310.527 1040.46 310.47 1040.95 308.074C1039.97 303.968 1034.61 298.727 1031.71 295.616C1031.79 295.489 1031.88 295.371 1031.95 295.237C1035.41 287.987 1028.34 260.736 1025.42 252.585C1012.44 216.323 989.267 198.822 955.787 182.962L954.931 182.723C954.318 181.089 953.568 179.523 952.381 178.219C946.199 171.431 931.659 170.821 922.978 170.684C912.957 170.527 901.216 170.765 891.718 174.287C885.1 176.74 887.548 179.461 883.953 182.377C881.253 184.568 875.26 186.244 871.955 187.865C860.5 193.482 850.465 200.386 841.327 209.311C816.751 233.315 807.257 261.798 806.858 295.616C802.906 301.225 798.439 306.568 794.343 312.092L807.129 312.128C805.894 321.326 805.644 332.071 809.545 340.652C812.669 347.524 816.645 350.587 823.54 353.203L826.404 368.762C822.819 366.97 818.704 364.726 814.642 366.294C812.361 367.175 810.725 369.035 809.806 371.266C806.163 380.107 811.283 395.677 814.672 404.327C819.659 417.057 826.458 425.338 838.992 430.847C840.841 440.927 844.554 450.511 846.3 460.526C848.495 473.111 847.718 506.754 846.001 519.895C845.169 526.257 842.386 536.521 844.042 542.762L845.37 542.777C851.745 533.611 850.562 482.866 850.462 468.525C856.161 477.623 862.596 485.882 871.028 492.626C886.696 505.157 907.235 511.728 927.257 509.39C954.495 506.21 971.911 491.452 988.316 470.703C987.864 487.314 985.15 528.712 992.803 542.004C993.611 543.406 994.2 543.28 995.683 543.693L997.152 545.972C1000.81 556.53 1002.7 567.992 1004.8 578.96Q1010.44 609.979 1013.84 641.322Q1017.25 672.665 1018.4 704.171C1018.97 719.235 1017.6 745.785 1020.24 759.439C1009.81 758.644 934.126 757.068 929.869 760.513C929.747 760.612 929.643 760.73 929.529 760.838C925.402 761.662 919.916 761.225 915.886 759.968C906.255 756.982 831.784 758.6 817.449 759.254C818.597 742.401 817.244 725.336 817.849 708.43C819.844 652.634 824.581 594.405 839.781 540.454C830.124 544.746 820.433 548.375 810.38 551.619C790.394 606.53 785.765 674.248 783.551 732.306C783.051 745.417 784.246 812.215 781.385 819.289C774.851 817.314 768.45 815.706 761.728 814.514C760.435 793.311 759.68 770.221 754.976 749.497L754.029 750.163C751.325 760.767 757.169 800.449 758.28 813.919Q756.724 813.825 755.166 813.746C741.685 813.063 703.819 815.902 694.326 825.82C692.696 827.522 692.706 828.503 692.681 830.69C694.337 834.075 696.598 835.205 699.23 837.643C696.692 839.103 694.096 840.286 691.507 841.63C688.741 843.066 687.255 845.036 686.317 847.997C686.428 853.622 690.84 853.836 693.884 857.332C695.217 858.862 695.764 861.022 696.929 862.678C698.073 864.305 700.718 865.488 702.415 866.532C716.918 875.457 730.968 875.366 747.355 877.546C739.349 882.126 721.83 890.046 716.487 897.006L717.482 898.53C717.709 898.545 717.936 898.57 718.163 898.575C720.165 898.62 740.802 885.607 745.16 883.332C759.399 875.901 774.9 869.833 790.096 864.691C833.298 850.072 879.258 846.196 924.131 839.627Q929.591 843.822 934.344 848.803C953.319 868.791 956.689 896.147 956.041 922.496C888.282 958.27 806.541 994.932 729.266 1001.21C704.351 1003.23 676.696 1000.72 656.983 983.675C640.248 969.201 634.503 946.585 633.131 925.366C629.357 866.973 644.937 700.211 669.332 650.17C679.622 629.063 695.585 612.099 715.279 599.494C732.405 588.532 751.47 578.98 770.412 571.652C777.778 568.802 793.531 565.001 798.618 559.192L798.046 558.177C786.287 557.364 730.41 585.951 718.375 593.226C709.829 598.391 702.003 604.114 694.34 610.507C683.837 606.125 650.982 596.289 644.938 590.103C634.782 579.709 635.519 554.383 635.694 540.755C657.669 519.612 658.293 486.94 661.205 458.409Q661.543 457.867 661.901 457.339C663.581 454.859 665.565 452.81 668.709 452.571C671.327 452.372 672.509 453.331 674.435 454.811C680.925 467.296 666.047 485.074 665.53 496.628L666.926 496.16C673.773 488.324 678.671 474.402 679.47 463.987C679.96 457.601 678.196 454.411 674.087 449.698C683.655 433.717 684.818 424.151 680.342 406.286L693.021 405.685C688.497 400.708 684.545 395.252 680.495 389.889C681.671 352.135 664.099 318.272 630.984 299.219C626.302 296.526 615.854 293.72 613.226 289.355C612.434 288.039 611.543 286.642 610.406 285.59C606.115 281.622 594.065 281.48 588.263 281.345C580.602 281.166 569.308 280.722 562.137 283.312C557.391 285.027 557.696 288.616 554.751 291.363C552.18 293.761 545.023 296.054 541.652 297.797C532.63 302.462 524.533 307.89 517.2 314.953C496.531 334.863 486.509 362.037 486.041 390.381C481.817 396.136 477.428 401.529 472.636 406.821C477.244 406.933 481.876 406.832 486.487 406.827C484.815 411.659 482.973 416.735 482.322 421.817C481.005 432.11 485.694 438.951 491.591 446.728C488.135 451.69 485.762 456.624 485.414 462.75C484.806 473.462 490.02 484.768 497.155 492.561C499.364 494.973 502.903 498.25 506.23 498.414C502.875 489.555 492.512 485.901 489.416 469.876C487.771 461.361 489.688 455.732 494.506 448.769C497.537 450.564 500.807 452.076 503.944 453.684C503.866 463.282 505.356 473.066 506.679 482.564C510.015 506.514 513.811 524.539 530.653 542.838C530.514 556.652 530.926 577.541 522.095 588.942C517.904 594.354 481.335 607.435 471.501 612.225C448.547 623.405 429.361 639.319 411.675 657.529C411.516 648.715 411.606 639.882 411.576 631.065C394.973 630.737 378.307 631.046 361.698 631.053L361.696 608.928L338.107 608.817C337.262 598.107 342.415 593.178 341.064 584.1C339.713 575.032 333.158 570.592 329.741 562.856C328.478 559.994 328.58 556.315 327.985 553.248C327.272 549.571 326.02 545.662 322.592 543.628C318.742 541.344 313.097 541.553 308.865 542.525C302.715 543.938 299.745 548.241 296.569 553.337L222.916 583.304C212.244 587.611 200.788 591.135 190.471 596.158C186.784 597.954 182.975 600.232 180.43 603.509C177.474 615.034 186.572 622.772 188.891 633.559L189.003 634.099C190.799 646.352 190.824 658.736 190.906 671.097C180.044 676.521 182.158 683.285 168.247 683.87C165.452 687.342 166.792 710.697 166.826 716.345C176.76 716.406 256.918 715.381 259.686 716.926C260.226 717.227 260.635 717.719 261.109 718.115C261.198 720.127 260.831 720.328 259.733 721.94C255.618 724.625 130.867 722.694 114.267 722.735Q113.978 762.367 114.536 801.995C106.19 801.962 93.7192 800.252 85.9078 802.664L85.1898 803.471L86.1932 805.182C97.3309 806.436 108.977 805.735 120.186 805.71L178.885 805.595L284.233 805.744C294.501 805.712 304.932 806.258 315.163 805.978C317.559 805.913 319.714 805.788 321.626 804.317C321.072 802.956 320.969 802.583 319.497 802.121C314.17 800.448 273.677 801.971 264.869 802L264.741 716.589L372.684 716.572C337.476 798.193 325.145 896.744 347.294 983.487C349.921 993.774 352.473 1004.61 356.393 1014.48C357.017 1016.06 357.678 1017.4 358.7 1018.76L360.759 1019.36C362.426 1020.82 363.641 1021.95 364.546 1024L0 1024L0 0ZM991.468 559.352L989.447 557.054C986.65 557.987 978.323 568.263 974.87 571.113C948.854 592.588 910.773 596.514 880.653 581.561C869.919 576.232 861.264 568.836 853.241 560.012C850.652 557.165 848.176 553.486 845.277 551.007C844.333 550.2 843.161 549.99 841.997 549.709C848.006 565.496 866.962 579.206 881.9 585.926Q882.94 586.389 883.99 586.827Q885.041 587.264 886.102 587.676Q887.162 588.088 888.233 588.474Q889.304 588.86 890.383 589.22Q891.463 589.579 892.551 589.913Q893.639 590.246 894.735 590.552Q895.831 590.859 896.934 591.139Q898.037 591.419 899.147 591.672Q900.257 591.924 901.372 592.15Q902.487 592.376 903.608 592.574Q904.729 592.773 905.854 592.944Q906.979 593.115 908.108 593.259Q909.236 593.402 910.369 593.518Q911.501 593.635 912.635 593.723Q913.77 593.811 914.906 593.872Q916.043 593.933 917.18 593.966Q918.318 593.999 919.456 594.004Q920.594 594.01 921.731 593.987Q922.869 593.965 924.006 593.914Q925.143 593.864 926.278 593.786Q927.414 593.708 928.547 593.603Q929.68 593.497 930.81 593.364Q931.94 593.231 933.067 593.071Q934.193 592.91 935.316 592.722Q936.438 592.534 937.556 592.319Q938.673 592.103 939.785 591.861Q940.897 591.618 942.003 591.349Q943.108 591.079 944.207 590.783Q945.306 590.486 946.397 590.163Q947.488 589.84 948.571 589.49Q949.654 589.141 950.728 588.765Q951.802 588.389 952.867 587.987C967.866 582.28 981.868 572.291 991.468 559.352ZM1628.45 713.988Q1623.54 713.203 1618.58 712.736C1622.02 694.855 1617.89 661.181 1618.99 641.137C1619.45 632.768 1626 627.017 1623.87 618.201C1621.74 615.498 1618.66 613.368 1615.79 611.513C1610.53 608.12 1604.78 605.524 1599.38 602.379C1591.86 598.003 1584.58 593.087 1577.29 588.35L1534.51 560.362C1528.53 556.436 1521.53 550.503 1514.93 547.996C1518.24 545.089 1524.98 531.855 1525.17 527.404C1525.18 527.072 1525.07 526.582 1525.02 526.284C1520.05 522.074 1499.22 509.681 1493.47 509.776C1491.63 516.526 1468.6 560.113 1463.8 563.587C1463.92 563.754 1464.05 563.916 1464.16 564.087C1469.91 572.871 1466.48 598.129 1475.94 602.297C1480.69 601.416 1499.7 584.278 1502.59 580.059C1504.1 577.84 1505.53 574.147 1504.95 571.468C1504.9 571.245 1504.84 571.027 1504.78 570.806C1514.8 575.221 1589 624.949 1592.2 631.299C1592.32 631.536 1592.37 631.803 1592.45 632.056C1594.33 638.337 1594.59 707.838 1592.52 712.009C1592.28 712.489 1592.18 712.621 1591.9 713.027C1580.76 713.07 1569.55 712.866 1558.41 713.193C1560.46 717.669 1560.84 786.981 1558.98 792.353C1558.75 793.013 1558.45 793.627 1558.09 794.223C1558.18 794.396 1558.27 794.567 1558.35 794.741C1559.52 797.201 1559.37 801.622 1561.07 803.333C1579.28 805.428 1609.01 803.602 1628.2 803.477C1628.99 802.232 1629.45 801.096 1629.59 799.628C1630.47 790.126 1630.98 723.719 1629.46 716.655C1629.26 715.726 1628.87 714.836 1628.45 713.988ZM1675.55 869.068L1677.22 867.347C1676.23 865.83 1676.17 865.9 1674.38 865.553C1664.37 863.606 1644.83 865.287 1633.85 865.273C1600.74 865.231 1567.56 864.64 1534.46 865.333L1534.81 867.95C1536.51 869.123 1537.06 869.187 1539.08 869.259C1552.1 869.723 1565.67 868.753 1578.76 868.709Q1627.16 868.529 1675.55 869.068ZM1673.61 713.333L1633.3 713.581C1634.13 714.974 1634.57 716.183 1634.72 717.796C1635.54 726.897 1636.21 793.399 1634.7 800.187C1634.43 801.395 1633.8 802.476 1633.23 803.556L1690.92 803.488C1697.81 803.495 1728.85 804.93 1732.24 801.998L1731.62 800.317C1725.5 798.01 1710.31 799.549 1703.18 799.547C1705.28 795.224 1705.66 719.862 1703.9 715.401C1703.63 714.727 1703.32 714.137 1702.93 713.532L1673.61 713.333ZM751.878 736.74C751.394 729.149 750.707 707.985 746.694 702.372L744.442 701.481C744.958 708.872 745.975 730.295 749.536 735.944L751.878 736.74ZM311.652 869.222L312.099 866.69C310.753 865.197 309.506 865.366 307.557 865.276C292.368 864.567 276.805 865.323 261.584 865.378Q213.751 865.648 165.918 865.313L164.685 866.678L165.046 868.425C169.113 870.224 296.727 869.329 311.652 869.222ZM975.049 348.777C978.349 349.706 981.809 351.188 985.171 349.909L986.525 348.587C985.694 346.237 984.32 345.134 982.091 344.05C975.161 340.68 966.689 341.007 959.182 341.599C953.939 342.262 950.253 342.307 946.653 346.716L946.875 348.229C952.42 351.093 967.726 348.219 975.049 348.777ZM1276.06 515.999C1268.55 516.197 1252.62 513.909 1246.48 517.772C1245.78 519.484 1245.48 519.87 1246.27 521.694C1248.68 527.248 1255.8 531.249 1261.26 533.079Q1263.29 533.753 1265.34 534.344C1274.11 534.98 1283.93 534.266 1290.99 528.347C1293.92 525.893 1296.81 521.563 1297.17 517.705C1297.22 517.11 1297.21 516.521 1297.18 515.926C1290.18 515.46 1283.07 515.843 1276.06 515.999ZM864.941 341.626C860.44 342.289 854.1 342.321 851.151 346.132C850.596 346.849 850.744 347.687 850.678 348.57C851.123 348.887 852.065 349.764 852.538 349.896C857.421 351.251 866.419 348.421 871.666 348.123C875.262 347.919 878.994 348.289 882.582 348.609C885.875 349.325 890.312 350.89 893.393 348.874C893.826 348.59 893.84 348.522 894.232 348.112C893.708 346.058 892.908 345.597 891.13 344.546C883.913 340.281 873.022 340.846 864.941 341.626Z"/>
	</g>
</svg>
