<?xml version="1.0" encoding="utf-8" ?>
<svg xmlns="http://www.w3.org/2000/svg" xmlns:xlink="http://www.w3.org/1999/xlink" width="1600" height="900">
	<g>
		<path fill="#3B2B43" transform="scale(0.879121 0.878906)" d="M136.092 517.749C128.869 505.967 124.292 494.223 115.762 482.558C106.665 470.117 95.1826 459.598 86.1887 447.04C67.9724 421.606 63.5084 388.419 68.5571 358.028C80.9165 283.632 164.567 203.922 223.745 161.868C319.458 93.852 432.687 58.791 548.521 94.375C596.094 108.99 640.651 131.812 687.99 147.15C742.497 164.81 790.27 171.349 846.188 180.769C846.146 176.143 846.259 171.681 846.721 167.073C847.076 163.888 848.553 160.664 850.855 158.411C859.854 149.607 894.713 152.797 907.561 152.79C907.527 143.802 907.316 134.769 907.872 125.795C905.076 125.892 903.053 125.915 900.423 124.727L900.006 123.52C902.26 121.638 905.135 122.164 907.872 122.314C907.804 114.309 908.202 106.296 908.253 98.2897C908.272 95.4437 908.7 90.8043 906.707 88.7828C904.591 88.6636 902.712 88.4544 900.673 87.8623L900.232 86.2481L901.185 84.9303C909.264 83.7763 959.97 83.3854 967.099 85.0275L967.813 86.2798L967.354 87.6514Q964.125 88.2887 960.914 89.0154C958.696 92.2628 959.789 116.062 959.778 121.578C962.983 121.774 964.575 121.546 967.285 123.346C967.066 124.038 967.134 124.486 966.465 124.848C964.18 126.085 961.993 125.879 959.489 125.811C959.746 131.913 959.808 137.943 959.64 144.048L959.779 152.881C971.172 152.909 994.492 151.18 1004.54 152.92C1008.41 153.589 1011.98 155.081 1014.78 157.882C1020.52 163.605 1020.39 170.907 1020.27 178.408L1020.19 182.379C1020.12 200.995 1019.6 219.732 1020.25 238.333L1140.31 238.269C1161.16 238.224 1182.23 237.521 1203.05 238.156C1213.07 225.148 1188.81 173.906 1233.83 168.122C1251.43 165.861 1271.17 168.03 1288.98 168.014C1306.62 167.999 1333.98 165.979 1350.53 168.07C1356.24 168.793 1362.25 170.419 1366.89 173.992C1373.4 179.012 1378.76 186.462 1379.82 194.777C1380.81 202.562 1380.24 210.942 1380.24 218.795L1380.25 261.26C1380.25 299.436 1381.43 337.912 1380.44 376.038C1380.39 377.899 1380.22 379.713 1379.21 381.308C1394.1 381.242 1415.44 379.581 1429.61 381.497L1565.18 381.465C1586.47 381.466 1613.13 379.845 1633.81 382.041C1638.65 382.556 1644.78 383.383 1648.4 386.906C1657.87 396.137 1654.95 413.448 1654.91 425.484L1654.78 599.167L1654.76 645.916C1654.75 654.203 1655.58 663.571 1654.09 671.699C1653.53 674.801 1651.13 678.395 1648.92 680.611C1643.33 686.202 1635.9 686.037 1628.57 686.477C1630.28 694.889 1631.25 722.178 1628.24 729.514C1642.82 729.524 1675.28 727.326 1687.63 730.388C1692.04 731.481 1696.22 733.694 1699.43 736.935C1704.11 741.664 1706.32 748.202 1706.25 754.792C1706.18 760.937 1703.63 766.349 1699.22 770.616C1695.6 774.112 1690.98 776.401 1686.07 777.443C1678.68 779.016 1670.5 778.374 1662.96 778.327C1644.4 778.213 1624.69 776.764 1606.26 778.647C1607.34 780.531 1607.54 782.003 1607.61 784.148C1608.94 825.945 1607.62 868.146 1607.65 909.987C1607.66 921.615 1609.19 960.929 1607.19 968.372C1607.03 968.994 1606.91 969.215 1606.64 969.846C1621.59 971.482 1637.75 970.171 1652.83 970.149C1673.51 970.12 1694.27 970.88 1714.93 970.395C1716.62 970.628 1717.77 971.025 1719.28 971.801C1720.32 973.822 1720.39 973.814 1719.8 975.991C1717.21 977.823 1713.83 977.926 1710.76 977.993C1695.07 978.332 1679.21 977.791 1663.5 977.791L1553.05 977.79L1228.72 977.891L131.322 977.966C125.101 977.982 102.854 979.974 98.7068 975.984C98.0896 973.577 98.4355 972.871 99.1496 970.445C84.9682 964.503 71.2123 947.635 62.76 935.314C13.857 864.024 36.7882 778.516 77.2429 709.608C99.2821 672.069 128.812 635.628 136.899 591.979Q135.433 588.313 134.027 584.624Q133.639 583.623 133.276 582.612Q132.913 581.601 132.575 580.582Q132.238 579.562 131.926 578.534Q131.614 577.507 131.328 576.472Q131.041 575.436 130.781 574.394Q130.521 573.352 130.287 572.304Q130.053 571.256 129.846 570.202Q129.638 569.148 129.457 568.09Q129.276 567.031 129.121 565.968Q128.967 564.906 128.839 563.839Q128.711 562.773 128.61 561.704Q128.508 560.635 128.434 559.563Q128.36 558.492 128.312 557.419Q128.265 556.346 128.244 555.272Q128.223 554.198 128.23 553.124Q128.236 552.05 128.269 550.977Q128.302 549.903 128.362 548.831Q128.422 547.759 128.509 546.688Q128.596 545.618 128.709 544.55Q128.823 543.482 128.963 542.417Q129.104 541.352 129.271 540.291Q129.438 539.23 129.631 538.174Q129.825 537.117 130.045 536.066Q130.264 535.015 130.511 533.969Q130.757 532.924 131.029 531.885Q131.301 530.846 131.599 529.815Q131.897 528.783 132.221 527.759Q132.545 526.735 132.895 525.719Q133.244 524.704 133.619 523.697Q133.994 522.691 134.394 521.694Q134.793 520.697 135.218 519.711Q135.643 518.724 136.092 517.749Z"/>
		<path fill="#ECB6A3" transform="scale(0.879121 0.878906)" d="M907.872 122.314C907.804 114.309 908.202 106.296 908.253 98.2897C908.272 95.4437 908.7 90.8043 906.707 88.7828C904.591 88.6636 902.712 88.4544 900.673 87.8623L900.232 86.2481L901.185 84.9303C909.264 83.7763 959.97 83.3854 967.099 85.0275L967.813 86.2798L967.354 87.6514Q964.125 88.2887 960.914 89.0154C958.696 92.2628 959.789 116.062 959.778 121.578C962.983 121.774 964.575 121.546 967.285 123.346C967.066 124.038 967.134 124.486 966.465 124.848C964.18 126.085 961.993 125.879 959.489 125.811C959.746 131.913 959.808 137.943 959.64 144.048L959.779 152.881C971.172 152.909 994.492 151.18 1004.54 152.92C1008.41 153.589 1011.98 155.081 1014.78 157.882C1020.52 163.605 1020.39 170.907 1020.27 178.408L1020.19 182.379C1020.12 200.995 1019.6 219.732 1020.25 238.333L1140.31 238.269C1161.16 238.224 1182.23 237.521 1203.05 238.156C1213.07 225.148 1188.81 173.906 1233.83 168.122C1251.43 165.861 1271.17 168.03 1288.98 168.014C1306.62 167.999 1333.98 165.979 1350.53 168.07C1356.24 168.793 1362.25 170.419 1366.89 173.992C1373.4 179.012 1378.76 186.462 1379.82 194.777C1380.81 202.562 1380.24 210.942 1380.24 218.795L1380.25 261.26C1380.25 299.436 1381.43 337.912 1380.44 376.038C1380.39 377.899 1380.22 379.713 1379.21 381.308C1394.1 381.242 1415.44 379.581 1429.61 381.497C1429.4 381.524 1429.2 381.554 1428.99 381.579C1411.49 383.722 1391.94 381.982 1374.25 381.724Q1335.71 381.436 1297.17 381.642C1285.55 381.667 1271.26 380.195 1259.97 382.629C1255.16 383.665 1250.3 386.391 1247.19 390.237C1244.23 393.897 1243.49 398.218 1243.21 402.809C1242.08 421.249 1243.17 440.253 1243.23 458.761L1243.13 559.554L1243.17 634.819C1243.18 647.11 1242 660.385 1243.62 672.533C1244.1 676.209 1245.65 679.778 1248.61 682.151C1253.06 685.725 1259.59 686.22 1265.07 686.396C1266.8 692.818 1267.73 724.309 1264.75 729.501C1244.72 729.415 1102.96 731.944 1094.55 728.901C1095.78 722.286 1095.8 662.531 1093.54 657.911L874.38 657.659L809.417 657.768C797.09 657.796 784.471 657.257 772.2 658.297L772.188 729.217C749.802 729.144 727.169 729.752 704.813 728.923C704.888 721.54 705.078 714.115 704.865 706.736C704.635 698.737 702.975 690.773 696.844 685.137C687.839 676.859 674.621 678.497 663.358 678.82L663.441 674.142C661.672 665.714 662.972 654.417 662.966 645.705L662.953 579.641L663.014 327.076L662.994 238.298L754.201 238.395C784.899 237.127 815.989 238.138 846.729 238.159C846.613 214.479 847.382 190.742 846.721 167.073C847.076 163.888 848.553 160.664 850.855 158.411C859.854 149.607 894.713 152.797 907.561 152.79C907.527 143.802 907.316 134.769 907.872 125.795C905.076 125.892 903.053 125.915 900.423 124.727L900.006 123.52C902.26 121.638 905.135 122.164 907.872 122.314Z"/>
		<path fill="#AF383E" transform="scale(0.879121 0.878906)" d="M1203.05 238.156C1213.07 225.148 1188.81 173.906 1233.83 168.122C1251.43 165.861 1271.17 168.03 1288.98 168.014C1306.62 167.999 1333.98 165.979 1350.53 168.07C1356.24 168.793 1362.25 170.419 1366.89 173.992C1373.4 179.012 1378.76 186.462 1379.82 194.777C1380.81 202.562 1380.24 210.942 1380.24 218.795L1380.25 261.26C1380.25 299.436 1381.43 337.912 1380.44 376.038C1380.39 377.899 1380.22 379.713 1379.21 381.308C1394.1 381.242 1415.44 379.581 1429.61 381.497C1429.4 381.524 1429.2 381.554 1428.99 381.579C1411.49 383.722 1391.94 381.982 1374.25 381.724Q1335.71 381.436 1297.17 381.642C1285.55 381.667 1271.26 380.195 1259.97 382.629C1255.16 383.665 1250.3 386.391 1247.19 390.237C1244.23 393.897 1243.49 398.218 1243.21 402.809C1242.08 421.249 1243.17 440.253 1243.23 458.761L1243.13 559.554L1243.17 634.819C1243.18 647.11 1242 660.385 1243.62 672.533C1244.1 676.209 1245.65 679.778 1248.61 682.151C1253.06 685.725 1259.59 686.22 1265.07 686.396C1266.8 692.818 1267.73 724.309 1264.75 729.501C1244.72 729.415 1102.96 731.944 1094.55 728.901C1107.07 730.156 1120.38 729.31 1132.99 729.28L1203.74 729.079C1204.25 728.349 1204.67 727.574 1204.9 726.709C1206.75 719.655 1205.29 702.941 1205.26 694.858L1205.14 622.621C1205.02 527.031 1206.75 431.198 1205.07 335.635C1205.02 332.567 1205.19 329.801 1203.49 327.096C1166.43 327.14 1129.1 328.176 1092.08 326.937L1044.01 326.944C1037.43 325.268 1027.23 326.508 1020.28 326.521L1020.25 238.333L1140.31 238.269C1161.16 238.224 1182.23 237.521 1203.05 238.156Z"/>
		<path fill="#3B2B43" transform="scale(0.879121 0.878906)" d="M1020.25 238.333L1140.31 238.269C1161.16 238.224 1182.23 237.521 1203.05 238.156C1203.56 238.826 1204.47 239.733 1204.8 240.469C1205.88 242.849 1205.74 317.232 1204.82 323.58C1204.65 324.694 1204.3 325.418 1203.69 326.346L1130.83 326.378C1118.19 326.392 1104.61 325.502 1092.08 326.937L1044.01 326.944C1037.43 325.268 1027.23 326.508 1020.28 326.521L1020.25 238.333Z"/>
		<path fill="#3B2B43" transform="scale(0.879121 0.878906)" d="M1289.45 265.332C1294.73 264.351 1299.66 264.424 1304.35 267.328Q1304.76 267.579 1305.15 267.85Q1305.54 268.122 1305.92 268.412Q1306.3 268.703 1306.66 269.012Q1307.02 269.321 1307.37 269.648Q1307.72 269.975 1308.05 270.319Q1308.38 270.663 1308.69 271.023Q1309 271.384 1309.3 271.759Q1309.59 272.135 1309.87 272.524Q1310.14 272.914 1310.4 273.317Q1310.65 273.72 1310.89 274.136Q1311.12 274.551 1311.33 274.978Q1311.55 275.404 1311.74 275.841Q1311.93 276.278 1312.1 276.724Q1312.27 277.17 1312.42 277.624Q1312.56 278.077 1312.69 278.538Q1312.81 278.999 1312.91 279.465C1313.95 284.242 1313.14 289.506 1310.35 293.569C1307.27 298.076 1302.93 300.63 1297.66 301.669C1295.58 302.731 1291.17 301.908 1288.93 301.343C1284.8 300.302 1281.62 297.654 1279.49 294.002Q1279.24 293.576 1279.01 293.138Q1278.78 292.699 1278.57 292.25Q1278.36 291.801 1278.17 291.342Q1277.99 290.883 1277.83 290.415Q1277.66 289.947 1277.52 289.472Q1277.38 288.996 1277.27 288.514Q1277.15 288.033 1277.06 287.546Q1276.97 287.059 1276.91 286.568Q1276.84 286.077 1276.8 285.584Q1276.76 285.09 1276.74 284.595Q1276.72 284.1 1276.73 283.605Q1276.74 283.11 1276.77 282.616Q1276.8 282.122 1276.86 281.63Q1276.92 281.138 1277 280.649Q1277.08 280.161 1277.18 279.677Q1277.29 279.193 1277.42 278.715C1279.31 271.819 1283.49 268.77 1289.45 265.332Z"/>
		<path fill="#AF383E" transform="scale(0.879121 0.878906)" d="M907.872 122.314C907.804 114.309 908.202 106.296 908.253 98.2897C908.272 95.4437 908.7 90.8043 906.707 88.7828C904.591 88.6636 902.712 88.4544 900.673 87.8623L900.232 86.2481L901.185 84.9303C909.264 83.7763 959.97 83.3854 967.099 85.0275L967.813 86.2798L967.354 87.6514Q964.125 88.2887 960.914 89.0154C958.696 92.2628 959.789 116.062 959.778 121.578C962.983 121.774 964.575 121.546 967.285 123.346C967.066 124.038 967.134 124.486 966.465 124.848C964.18 126.085 961.993 125.879 959.489 125.811C959.746 131.913 959.808 137.943 959.64 144.048L959.779 152.881C971.172 152.909 994.492 151.18 1004.54 152.92C1008.41 153.589 1011.98 155.081 1014.78 157.882C1020.52 163.605 1020.39 170.907 1020.27 178.408L1020.19 182.379C1020.12 200.995 1019.6 219.732 1020.25 238.333L1020.28 326.521C1027.23 326.508 1037.43 325.268 1044.01 326.944C1036.17 327.403 1028.3 327.213 1020.45 327.155Q1020.86 347.98 1020.89 368.809C1018.06 373.746 1015.82 376.622 1011.01 379.631Q997.795 379.969 984.578 379.713C984.629 394.625 986.322 421.474 984.04 434.959C983.094 416.607 983.808 397.951 983.858 379.564C950.698 379.303 917.368 378.613 884.22 379.39L873.416 379.708C866.117 379.885 856.845 380.606 851.208 375.006C844.382 368.224 847.078 337.597 846.89 327.03L846.825 238.777C816.142 238.847 784.817 240.136 754.201 238.395C784.899 237.127 815.989 238.138 846.729 238.159C846.613 214.479 847.382 190.742 846.721 167.073C847.076 163.888 848.553 160.664 850.855 158.411C859.854 149.607 894.713 152.797 907.561 152.79C907.527 143.802 907.316 134.769 907.872 125.795C905.076 125.892 903.053 125.915 900.423 124.727L900.006 123.52C902.26 121.638 905.135 122.164 907.872 122.314Z"/>
		<path fill="#3B2B43" transform="scale(0.879121 0.878906)" d="M907.872 122.314C907.804 114.309 908.202 106.296 908.253 98.2897C908.272 95.4437 908.7 90.8043 906.707 88.7828C904.591 88.6636 902.712 88.4544 900.673 87.8623L900.232 86.2481L901.185 84.9303C909.264 83.7763 959.97 83.3854 967.099 85.0275L967.813 86.2798L967.354 87.6514Q964.125 88.2887 960.914 89.0154C958.696 92.2628 959.789 116.062 959.778 121.578C962.983 121.774 964.575 121.546 967.285 123.346C967.066 124.038 967.134 124.486 966.465 124.848C964.18 126.085 961.993 125.879 959.489 125.811C959.746 131.913 959.808 137.943 959.64 144.048L959.779 152.881L908.222 152.949C908.271 143.953 908.71 134.753 907.872 125.795C905.076 125.892 903.053 125.915 900.423 124.727L900.006 123.52C902.26 121.638 905.135 122.164 907.872 122.314Z"/>
		<path fill="#3B2B43" transform="scale(0.879121 0.878906)" d="M869.893 334.409C873.237 333.931 876.952 333.538 880.265 334.358C885.203 335.579 889.856 338.862 892.459 343.251C894.902 347.369 895.474 352.113 894.162 356.701C892.335 363.092 887.982 366.402 882.446 369.581C878.545 370.086 874.554 370.401 870.743 369.192Q869.83 368.9 868.949 368.52Q868.069 368.14 867.229 367.676Q866.39 367.211 865.601 366.667Q864.811 366.123 864.079 365.503Q863.346 364.884 862.678 364.197Q862.009 363.509 861.411 362.759Q860.814 362.009 860.292 361.204Q859.77 360.399 859.33 359.547Q859.125 359.151 858.942 358.744Q858.758 358.338 858.595 357.923Q858.432 357.508 858.29 357.085Q858.148 356.662 858.028 356.233Q857.909 355.803 857.811 355.368Q857.713 354.933 857.638 354.493Q857.562 354.054 857.509 353.611Q857.456 353.168 857.426 352.723Q857.396 352.278 857.389 351.833Q857.381 351.387 857.396 350.941Q857.412 350.495 857.45 350.051Q857.488 349.607 857.548 349.165Q857.609 348.723 857.692 348.285Q857.775 347.847 857.881 347.413Q857.986 346.98 858.114 346.553Q858.241 346.125 858.39 345.705C860.507 339.855 864.445 336.951 869.893 334.409Z"/>
		<path fill="#ECB6A3" transform="scale(0.879121 0.878906)" d="M871.697 340.442C873.77 340.212 875.998 339.894 878.063 340.287C881.201 340.884 884.282 343.059 886.011 345.716C887.661 348.249 888.114 351.316 887.407 354.243C886.299 358.829 883.164 360.901 879.365 363.144C877.991 363.334 876.637 363.458 875.25 363.31C871.467 362.904 867.952 361.109 865.759 357.94C864.028 355.44 863.495 352.228 864.138 349.274C865.128 344.729 868.043 342.742 871.697 340.442Z"/>
		<path fill="#3B2B43" transform="scale(0.879121 0.878906)" d="M987.406 334.338C990.647 334.144 994.18 333.731 997.333 334.677C1002.05 336.091 1006.36 339.155 1008.71 343.542C1010.82 347.491 1011.09 351.995 1009.76 356.238C1007.75 362.667 1003.49 365.617 997.78 368.648C994.718 368.989 991.067 369.275 988.066 368.522C983.604 367.401 979.299 364.493 976.938 360.502C974.622 356.588 974.145 351.867 975.373 347.52C977.227 340.957 981.641 337.471 987.406 334.338Z"/>
		<path fill="#ECB6A3" transform="scale(0.879121 0.878906)" d="M990.087 340.397C991.268 340.389 992.477 340.439 993.649 340.58C997.112 340.996 1000.34 343.078 1002.32 345.947C1003.95 348.326 1004.39 351.407 1003.69 354.192C1002.57 358.685 999.274 360.753 995.506 362.851C993.926 362.88 992.336 362.835 990.773 362.58Q990.16 362.483 989.561 362.322Q988.962 362.161 988.384 361.938Q987.805 361.714 987.253 361.43Q986.702 361.146 986.183 360.805Q985.665 360.464 985.186 360.07Q984.707 359.676 984.272 359.234Q983.837 358.791 983.452 358.305Q983.067 357.818 982.735 357.294C981.341 355.089 981.048 352.301 981.68 349.793C982.882 345.021 986.09 342.773 990.087 340.397Z"/>
		<path fill="#3B2B43" transform="scale(0.879121 0.878906)" d="M662.994 238.298L754.201 238.395C784.817 240.136 816.142 238.847 846.825 238.777L846.89 327.03L663.014 327.076L662.994 238.298Z"/>
		<path fill="#AF383E" transform="scale(0.879121 0.878906)" d="M772.2 658.297C762.921 658.855 753.662 660.045 746.177 653.19C743.539 650.774 741.633 647.497 741.519 643.854C741.406 640.256 743.232 636.987 745.743 634.535C749.855 630.519 755.343 628.83 760.958 628.348C774.315 627.201 788.669 628.475 802.145 628.477L893.333 628.452L1040.5 628.374C1063.8 628.357 1087.31 627.498 1110.59 628.208C1116.06 628.375 1119.64 629.245 1123.47 633.421C1126.16 636.367 1128.32 640.5 1128.05 644.591C1127.82 648.226 1125.96 651.147 1123.21 653.398C1115.09 660.044 1103.78 658.653 1094.01 658.432C1094.81 659.755 1095.32 661.038 1095.45 662.58C1096.09 670.082 1096.5 721.731 1095.26 726.664Q1094.98 727.807 1094.55 728.901C1095.78 722.286 1095.8 662.531 1093.54 657.911L874.38 657.659L809.417 657.768C797.09 657.796 784.471 657.257 772.2 658.297Z"/>
		<path fill="#3B2B43" transform="scale(0.879121 0.878906)" d="M884.22 379.39C917.368 378.613 950.698 379.303 983.858 379.564C983.808 397.951 983.094 416.607 984.04 434.959C983.089 438.856 981.39 442.87 978.459 445.693C971.783 452.121 959.033 450.571 950.458 450.547L950.453 533.515Q959.111 542.125 967.394 551.098C962.165 557.942 934.746 598.856 931.858 600.822C931.446 601.102 929.99 601.246 929.437 601.372L929.683 601.853L930.686 601.812L929.379 601.351C929.328 601.109 929.265 600.868 929.224 600.623C927.976 593.097 954.61 558.633 960.552 551.353C955.135 546.383 950.022 541.207 945.504 535.402Q945.214 492.974 945.45 450.546L923.017 450.536L922.571 536.127C918.819 541.442 912.979 548.141 907.341 551.389C905.752 552.305 904.76 553.035 902.934 552.526C903.633 546.011 912.799 538.824 917.238 534.497L917.351 450.465L904.561 450.574C899.211 450.569 894.111 449.852 890.214 445.818C887.157 442.653 885.474 438.391 884.661 434.123C882.293 421.694 884.146 393.503 884.22 379.39Z"/>
		<path fill="#ECB6A3" transform="scale(0.879121 0.878906)" d="M136.092 517.749C128.869 505.967 124.292 494.223 115.762 482.558C106.665 470.117 95.1826 459.598 86.1887 447.04C67.9724 421.606 63.5084 388.419 68.5571 358.028C80.9165 283.632 164.567 203.922 223.745 161.868C319.458 93.852 432.687 58.791 548.521 94.375C596.094 108.99 640.651 131.812 687.99 147.15C742.497 164.81 790.27 171.349 846.188 180.769C846.146 176.143 846.259 171.681 846.721 167.073C847.382 190.742 846.613 214.479 846.729 238.159C815.989 238.138 784.899 237.127 754.201 238.395L662.994 238.298L663.014 327.076L662.953 579.641L662.966 645.705C662.972 654.417 661.672 665.714 663.441 674.142C649.356 671.155 623.251 673.046 607.553 673.046L489.136 673.048C487.537 684.467 489.708 697.683 489.386 709.389C475.725 708.665 377.345 711.143 372.911 708.268L370.589 708.876C366.172 709.752 360.708 708.641 356.524 710.302C355.117 710.86 353.889 712.111 353.388 713.537C351.663 718.457 354.454 723.92 356.333 728.36L353.881 728.041L354.987 728.55C335.329 729.684 315.153 728.795 295.437 728.828C295.496 723.559 296.229 717.305 292.052 713.318C286.763 708.268 273.409 710.395 266.683 710.584Q266.804 695.363 266.506 680.145C267.739 646.802 266.639 613.07 266.584 579.686L300.876 579.949C307.407 590.81 313.628 602.11 321.126 612.334C323.451 608.327 325.456 604.064 327.586 599.946C336.76 579.488 343.3 556.859 338.629 534.376C335.435 519.001 326.957 506.59 313.868 497.965C307.989 493.9 301.728 491.469 294.653 490.382C279.026 487.982 260.837 489.683 244.905 489.675C224.951 489.665 189.321 487.743 171.227 490.917C156.594 493.484 145.455 504.155 137.316 515.873C136.888 516.49 136.49 517.112 136.092 517.749Z"/>
		<path fill="#AF383E" transform="scale(0.879121 0.878906)" d="M489.249 511.84L489.228 291.813L489.288 228.326C489.286 216.634 488.466 204.374 489.813 192.783C490.557 186.388 492.207 181.268 496.695 176.508C502.9 169.927 510.062 167.841 518.866 167.678C544.988 167.193 571.202 167.624 597.332 167.658C609.885 167.675 625.642 165.967 637.857 168.411C643.837 169.608 649.747 172.436 654.099 176.747C667.151 189.674 663.036 220.817 662.994 238.298L663.014 327.076L662.953 579.641L662.966 645.705C662.972 654.417 661.672 665.714 663.441 674.142C649.356 671.155 623.251 673.046 607.553 673.046L489.136 673.048C487.537 684.467 489.708 697.683 489.386 709.389C475.725 708.665 377.345 711.143 372.911 708.268L370.589 708.876C371.492 683.624 370.772 658.123 370.727 632.845C365.413 633.079 360.335 633.606 355.899 630.078C353.548 628.208 351.792 625.692 351.617 622.611C351.459 619.837 352.625 617.315 354.492 615.315C358.915 610.576 364.69 610.933 370.605 610.77L370.51 532.803C365.563 532.97 359.488 533.475 355.376 530.232C352.92 528.295 350.433 524.436 350.341 521.284C350.285 519.352 351.231 517.783 352.613 516.497C355.748 513.579 360.649 512.473 364.777 512.003C378.698 510.416 394.098 511.799 408.173 511.87L489.249 511.84Z"/>
		<path fill="#ECB6A3" transform="scale(0.879121 0.878906)" d="M373.413 632.936L489.494 632.847C489.492 646.217 489.802 659.696 489.136 673.048C487.537 684.467 489.708 697.683 489.386 709.389C475.725 708.665 377.345 711.143 372.911 708.268C374.343 699.975 373.5 690.3 373.482 681.881L373.413 632.936Z"/>
		<path fill="white" transform="scale(0.879121 0.878906)" d="M466.972 640.707C468.788 640.756 470.513 640.972 472.308 641.245C475.345 645.664 473.37 692.735 473.057 701.034L468.34 700.344C464.843 696.374 466.611 649.318 466.972 640.707Z"/>
		<path fill="#ECB6A3" transform="scale(0.879121 0.878906)" d="M373.328 532.828L489.227 532.765L489.308 611.247Q431.32 610.736 373.329 610.819Q373.12 571.823 373.328 532.828Z"/>
		<path fill="white" transform="scale(0.879121 0.878906)" d="M467.063 540.679C467.228 540.702 467.392 540.722 467.556 540.749C470.604 541.264 471.39 541.381 473.193 543.811C474.562 554.562 474.906 596.437 472.984 605.305C471.669 605.184 468.815 604.682 467.987 603.671C464.859 599.851 466.348 548.851 467.063 540.679Z"/>
		<path fill="#ECB6A3" transform="scale(0.879121 0.878906)" d="M358.86 614.493Q359.866 614.4 360.875 614.358C369.801 613.943 501.17 613.3 504.046 614.552C504.89 614.919 506.346 616.202 506.998 616.897C508.123 618.096 508.54 619.743 508.497 621.349C508.394 625.213 506.326 627.277 503.677 629.695C503.091 629.743 502.511 629.786 501.923 629.806C471.824 630.826 441.421 629.863 411.294 629.821C395.098 629.799 377.762 631.381 361.729 629.927C359.648 629.738 357.467 628.289 356.084 626.779C354.84 625.422 354.213 623.499 354.351 621.672C354.614 618.191 356.362 616.559 358.86 614.493Z"/>
		<path fill="#ECB6A3" transform="scale(0.879121 0.878906)" d="M358.798 514.823L359.57 514.791C387.785 513.689 416.512 514.769 444.783 514.738C463.207 514.718 484.938 513.208 502.814 514.857C505.111 515.069 506.548 515.721 508.238 517.294C509.126 518.913 509.537 520.142 509.35 522.02C508.979 525.752 507.538 527.531 504.72 529.711L409.591 529.742C394.027 529.756 377.116 531.071 361.719 529.323C359.452 529.066 357.122 528.425 355.538 526.654C354.293 525.261 353.819 523.956 353.905 522.125C354.064 518.768 356.467 516.852 358.798 514.823Z"/>
		<path fill="#3B2B43" transform="scale(0.879121 0.878906)" d="M570.698 265.957C574.01 265.654 577.58 265.691 580.717 266.902Q581.155 267.067 581.583 267.255Q582.012 267.442 582.431 267.65Q582.849 267.859 583.257 268.088Q583.665 268.317 584.061 268.567Q584.457 268.816 584.839 269.085Q585.222 269.354 585.591 269.642Q585.96 269.929 586.314 270.235Q586.668 270.541 587.006 270.865Q587.344 271.188 587.666 271.528Q587.987 271.868 588.291 272.223Q588.595 272.579 588.881 272.949Q589.167 273.319 589.434 273.704Q589.701 274.088 589.948 274.485Q590.195 274.882 590.422 275.291Q590.649 275.7 590.856 276.12Q591.062 276.54 591.247 276.97Q591.607 277.819 591.882 278.699Q592.157 279.579 592.344 280.482Q592.531 281.385 592.628 282.302Q592.725 283.219 592.731 284.141Q592.738 285.063 592.653 285.981Q592.568 286.899 592.394 287.805Q592.219 288.71 591.956 289.594Q591.693 290.477 591.344 291.331C588.853 297.477 584.523 300.073 578.654 302.572C574.769 302.98 570.992 302.88 567.342 301.319Q566.902 301.134 566.472 300.927Q566.042 300.72 565.623 300.492Q565.205 300.263 564.798 300.014Q564.391 299.764 563.998 299.494Q563.604 299.224 563.225 298.935Q562.846 298.645 562.482 298.337Q562.117 298.028 561.77 297.702Q561.422 297.375 561.091 297.032Q560.76 296.688 560.447 296.328Q560.134 295.968 559.839 295.592Q559.545 295.216 559.27 294.826Q558.995 294.436 558.74 294.033Q558.486 293.629 558.252 293.213Q558.018 292.797 557.805 292.37Q557.593 291.943 557.402 291.505Q557.212 291.068 557.044 290.621Q556.729 289.764 556.5 288.879Q556.271 287.995 556.13 287.092Q555.99 286.189 555.94 285.277Q555.889 284.365 555.93 283.452Q555.97 282.539 556.1 281.635Q556.231 280.731 556.45 279.844Q556.669 278.957 556.975 278.096Q557.281 277.235 557.671 276.409C560.45 270.499 564.804 268.127 570.698 265.957Z"/>
		<path fill="#3B2B43" transform="scale(0.879121 0.878906)" d="M572.796 541.382C576.143 541.213 579.437 541.675 582.5 543.075C586.844 545.059 590.192 548.411 591.838 552.925C593.622 557.817 593.19 563.287 590.943 567.952C588.039 573.981 583.61 576.653 577.512 578.85C573.874 578.886 570.615 578.704 567.287 577.086C562.613 574.813 558.886 570.791 557.299 565.809Q557.028 564.956 556.843 564.08Q556.658 563.205 556.562 562.315Q556.466 561.425 556.458 560.53Q556.451 559.635 556.533 558.744Q556.616 557.853 556.786 556.974Q556.957 556.096 557.214 555.239Q557.471 554.381 557.813 553.554Q558.155 552.727 558.577 551.938C561.672 546.111 566.712 543.298 572.796 541.382Z"/>
		<path fill="#3B2B43" transform="scale(0.879121 0.878906)" d="M569.852 402.764C573.087 402.367 576.685 402.135 579.843 403.082C584.47 404.469 588.596 407.58 590.861 411.882Q591.282 412.675 591.622 413.507Q591.962 414.338 592.216 415.2Q592.471 416.061 592.638 416.944Q592.806 417.826 592.883 418.721Q592.962 419.616 592.95 420.514Q592.938 421.412 592.836 422.305Q592.734 423.197 592.543 424.075Q592.353 424.953 592.075 425.807C589.865 432.736 585.359 435.863 579.118 438.995C575.885 439.291 572.565 439.49 569.43 438.47C564.527 436.876 560.266 433.454 557.968 428.808Q557.574 428.019 557.26 427.196Q556.945 426.372 556.715 425.521Q556.484 424.67 556.339 423.8Q556.195 422.93 556.137 422.05Q556.079 421.17 556.109 420.289Q556.14 419.408 556.257 418.534Q556.375 417.66 556.579 416.802Q556.783 415.944 557.071 415.111C559.333 408.572 563.895 405.653 569.852 402.764Z"/>
		<path fill="#AF383E" transform="scale(0.879121 0.878906)" d="M912.009 778.618C998.729 777.523 1085.5 778.346 1172.23 778.328L1244.72 778.228C1254.88 778.212 1267.38 776.809 1277.22 778.577C1304.55 777.675 1332.08 778.284 1359.43 778.3L1502.98 778.404L1573.05 778.369C1583.6 778.353 1595.88 777.159 1606.26 778.647C1607.34 780.531 1607.54 782.003 1607.61 784.148C1608.94 825.945 1607.62 868.146 1607.65 909.987C1607.66 921.615 1609.19 960.929 1607.19 968.372C1607.03 968.994 1606.91 969.215 1606.64 969.846C1621.59 971.482 1637.75 970.171 1652.83 970.149C1673.51 970.12 1694.27 970.88 1714.93 970.395C1716.62 970.628 1717.77 971.025 1719.28 971.801C1720.32 973.822 1720.39 973.814 1719.8 975.991C1717.21 977.823 1713.83 977.926 1710.76 977.993C1695.07 978.332 1679.21 977.791 1663.5 977.791L1553.05 977.79L1228.72 977.891L131.322 977.966C125.101 977.982 102.854 979.974 98.7068 975.984C98.0896 973.577 98.4355 972.871 99.1496 970.445L172.383 970.496C182.17 969.735 192.086 969.992 201.9 969.963L201.715 778.256L531.418 778.318L906.373 778.452L912.009 778.618Z"/>
		<path fill="#ECB6A3" transform="scale(0.879121 0.878906)" d="M760.321 891.472C794.487 892.978 1110.58 889.441 1115.71 892.682L1115.9 893.571C1116.43 895.919 1116.76 897.525 1118.73 899.107C1123.01 901.152 1136.8 900.859 1141.51 899.479C1142.33 899.238 1143.06 898.721 1143.71 898.177C1144.44 896.209 1144.64 894.46 1144.77 892.371C1148.51 890.181 1262.76 891.661 1277.28 891.525C1278.09 892.8 1278.57 893.981 1278.7 895.485C1280 909.897 1278.97 925.276 1278.96 939.768C1278.96 948.209 1280.15 958.837 1278.66 967.094C1278.46 968.185 1277.97 969.191 1277.38 970.124Q1235.45 969.714 1193.52 969.747C1177.42 969.727 1161.15 969.237 1145.08 969.959L619.59 969.955C609.08 969.177 598.199 969.683 587.647 969.714L531.416 969.912C531.395 943.958 530.439 917.614 531.665 891.709L623.741 891.708C639.864 891.743 656.569 892.589 672.636 891.527C672.16 894.249 671.444 896.691 672.593 899.321C677.603 901.584 692.336 899.912 698.084 899.47C700.201 896.967 698.023 894.195 700.298 892.017C720.188 890.532 740.368 892.145 760.321 891.472Z"/>
		<path fill="#ECB6A3" transform="scale(0.879121 0.878906)" d="M531.418 778.318L906.373 778.452C906.352 802.312 905.221 826.8 906.601 850.586C896.49 850.551 886.827 856.066 879.796 863.046C875.468 867.342 871.692 872.821 870.337 878.836C869.614 881.197 869.278 884.415 867.276 885.868C846.424 886.692 825.402 886.048 804.532 886.023L699.089 886.2L699.078 875.844L672.527 875.813C672.574 878.765 673.168 882.998 671.473 885.478C668.697 886.705 665.801 886.401 662.826 886.352C639.814 885.005 616.015 886.201 592.925 886.17C574.154 886.144 553.658 884.461 535.113 886.707L532.754 886.087C532.385 885.655 531.886 885.306 531.647 884.791C530.249 881.778 531.404 789.977 531.418 778.318Z"/>
		<path fill="#ECB6A3" transform="scale(0.879121 0.878906)" d="M912.009 778.618C998.729 777.523 1085.5 778.346 1172.23 778.328L1244.72 778.228C1254.88 778.212 1267.38 776.809 1277.22 778.577C1278.11 779.813 1278.69 781.024 1278.85 782.544C1280.59 798.961 1279.04 823.209 1279 840.407C1278.97 852.993 1280.37 870.051 1278.72 882.008C1278.54 883.3 1278.04 884.637 1277.37 885.746C1262.03 885.633 1148.21 887.215 1144.29 884.253C1144.45 882.157 1144.51 880.295 1144.14 878.22C1140.3 875.179 1127.71 875.449 1122.77 876.049C1120.88 876.278 1119.46 876.829 1117.92 877.935C1116.3 880.156 1116.45 882.307 1116.4 884.924C1112.2 887.593 968.457 885.921 950.452 886.013C949.111 875.342 944.351 865.966 935.846 859.224C928.898 853.716 920.464 850.788 911.692 850.086C911.662 826.691 912.46 802.963 911.511 779.608L912.009 778.618Z"/>
		<path fill="#3B2B43" transform="scale(0.879121 0.878906)" d="M1145.08 969.959C1173.86 971.429 1203.13 970.527 1231.96 970.579L1431.28 969.871L1549.39 970.011C1565.96 970.077 1590.92 971.812 1606.64 969.846C1621.59 971.482 1637.75 970.171 1652.83 970.149C1673.51 970.12 1694.27 970.88 1714.93 970.395C1716.62 970.628 1717.77 971.025 1719.28 971.801C1720.32 973.822 1720.39 973.814 1719.8 975.991C1717.21 977.823 1713.83 977.926 1710.76 977.993C1695.07 978.332 1679.21 977.791 1663.5 977.791L1553.05 977.79L1228.72 977.891L131.322 977.966C125.101 977.982 102.854 979.974 98.7068 975.984C98.0896 973.577 98.4355 972.871 99.1496 970.445L172.383 970.496C191.125 971.987 210.877 970.171 229.721 970.137L364.106 969.92L512.637 970.139C548.019 970.441 584.293 972.091 619.59 969.955L1145.08 969.959Z"/>
		<path fill="#ECB6A3" transform="scale(0.879121 0.878906)" d="M904.512 856.264C912.854 855.547 921.055 856.461 928.395 860.747C938.232 866.491 942.835 875.461 945.731 886.028L916.618 886.017L873.354 886.007C874.819 880.908 876.435 876.346 879.418 871.909C885.599 862.715 893.884 858.43 904.512 856.264Z"/>
		<path fill="#ECB6A3" transform="scale(0.879121 0.878906)" d="M170.722 579.918L204.363 579.647L204.526 589.041Q204.169 649.93 204.464 710.82C198.444 710.657 186.026 708.818 181.207 713.062C178.34 715.587 177.837 719.448 177.794 723.039Q177.773 725.924 177.858 728.808C164.567 728.744 136.253 726.856 124.555 729.631C121.058 730.461 117.704 732.512 115.156 735.011C110.241 739.831 107.607 746.954 107.641 753.786C107.674 760.397 110.192 766.966 114.942 771.625Q115.518 772.187 116.132 772.705Q116.747 773.224 117.398 773.697Q118.048 774.17 118.731 774.594Q119.414 775.019 120.126 775.393Q120.838 775.767 121.575 776.089Q122.313 776.411 123.071 776.679Q123.829 776.946 124.605 777.158Q125.381 777.37 126.17 777.526C134.973 779.301 145.207 778.216 154.171 778.067C169.855 777.806 186.062 777.353 201.715 778.256L201.9 969.963C192.086 969.992 182.17 969.735 172.383 970.496L99.1496 970.445C84.9682 964.503 71.2123 947.635 62.76 935.314C13.857 864.024 36.7882 778.516 77.2429 709.608C99.2821 672.069 128.812 635.628 136.899 591.979C139.261 596.553 141.585 601.046 144.484 605.314C144.653 605.877 144.699 606.093 144.988 606.682C145.989 608.718 146.584 609.811 148.768 610.557C155.253 608.204 166.666 586.52 170.722 579.918Z"/>
		<path fill="#AF383E" transform="scale(0.879121 0.878906)" d="M489.386 709.389C489.708 697.683 487.537 684.467 489.136 673.048L607.553 673.046C623.251 673.046 649.356 671.155 663.441 674.142L663.358 678.82C674.621 678.497 687.839 676.859 696.844 685.137C702.975 690.773 704.635 698.737 704.865 706.736C705.078 714.115 704.888 721.54 704.813 728.923C688.122 727.971 670.882 728.843 654.141 728.85L554.001 728.927C536.043 728.961 516.979 730.363 499.192 728.317C500.618 727.874 502.074 727.419 503.371 726.665C505.525 725.414 507.573 723.305 508 720.763C508.612 717.116 506.775 714.374 504.865 711.514L504.55 710.823C499.845 709.138 494.339 709.505 489.386 709.389Z"/>
		<path fill="#3B2B43" transform="scale(0.879121 0.878906)" d="M489.136 673.048L607.553 673.046C623.251 673.046 649.356 671.155 663.441 674.142L663.358 678.82C653.045 679.882 641.821 679.063 631.406 679.062L569.189 679.085C559.153 679.088 496.787 680.474 491.015 678.94C490.562 678.82 490.224 678.438 489.828 678.187L489.136 673.048Z"/>
		<path fill="#ECB6A3" transform="scale(0.879121 0.878906)" d="M360.347 728.171C359.808 727.701 359.312 727.239 358.817 726.722C356.329 724.127 354.462 721.604 354.662 717.783C354.755 716.011 355.595 714.389 356.992 713.251Q357.515 712.817 358.099 712.468Q358.683 712.119 359.313 711.864Q359.943 711.609 360.605 711.454Q361.267 711.299 361.945 711.248C382.719 709.566 408.509 711.095 429.781 711.09C454.017 711.083 480.961 709.413 504.865 711.514C506.775 714.374 508.612 717.116 508 720.763C507.573 723.305 505.525 725.414 503.371 726.665C502.074 727.419 500.618 727.874 499.192 728.317C484.572 726.644 468.369 727.974 453.555 727.998L360.347 728.171Z"/>
		<path fill="#ECB6A3" transform="scale(0.879121 0.878906)" d="M1248.44 534.346C1248.51 534.144 1248.58 533.944 1248.64 533.74C1250.83 526.21 1249.53 515.318 1249.48 507.362Q1249.14 470.863 1249.25 434.364C1249.26 423.938 1248.12 412.157 1249.73 401.922C1250.35 397.978 1251.74 393.092 1255.35 390.908C1259.03 388.683 1264.18 388.153 1268.38 387.974C1284.07 387.305 1300.08 388.154 1315.79 388.207L1400.37 388.083L1563.48 388.063C1578.71 388.09 1630.17 386.15 1642.29 389.931C1644.05 390.477 1646.08 393.278 1646.86 394.895C1647.78 396.817 1648.11 399.033 1648.22 401.141C1648.95 415.275 1649.25 529.431 1647.59 533.307C1647.47 533.571 1647.34 533.825 1647.22 534.085C1648.1 535.955 1648.34 537.918 1648.41 539.972C1649.31 564.775 1648.14 589.849 1648.11 614.677C1648.1 625.75 1650.11 662.896 1647.61 671.453Q1647.43 672.038 1647.2 672.603Q1646.97 673.167 1646.67 673.704Q1646.38 674.242 1646.04 674.747Q1645.69 675.251 1645.3 675.718Q1644.91 676.185 1644.47 676.609Q1644.03 677.033 1643.54 677.409Q1643.06 677.786 1642.55 678.111Q1642.03 678.436 1641.48 678.707C1638.42 680.209 1633.77 680.118 1630.38 680.224C1585.26 681.632 1539.66 680.062 1494.48 680.033L1325.72 680.148C1313.27 680.156 1262.07 681.812 1255.04 679.247C1247.87 676.636 1250.99 668.843 1248.32 663.551C1248.24 663.395 1248.15 663.245 1248.07 663.092Q1323.34 662.458 1398.62 662.827L1459.42 662.967C1469.36 662.977 1479.75 663.593 1489.64 662.926C1491.87 662.775 1492.24 662.525 1493.87 661.105L1493.98 659.231C1491.82 657.753 1488.83 657.871 1486.23 657.757C1461.54 656.671 1436.18 657.855 1411.42 657.827L1247.92 657.878C1248.2 657.409 1248.32 657.243 1248.57 656.696C1250.5 652.374 1250.53 539.532 1248.44 534.346Z"/>
		<path fill="#AF383E" transform="scale(0.879121 0.878906)" d="M1248.44 534.346C1261.15 537.046 1283.59 535.212 1297.3 535.158L1391.08 535.123L1564.59 534.847L1617.73 534.898C1627.25 534.913 1637.1 535.515 1646.55 534.575L1647.22 534.085C1648.1 535.955 1648.34 537.918 1648.41 539.972C1649.31 564.775 1648.14 589.849 1648.11 614.677C1648.1 625.75 1650.11 662.896 1647.61 671.453Q1647.43 672.038 1647.2 672.603Q1646.97 673.167 1646.67 673.704Q1646.38 674.242 1646.04 674.747Q1645.69 675.251 1645.3 675.718Q1644.91 676.185 1644.47 676.609Q1644.03 677.033 1643.54 677.409Q1643.06 677.786 1642.55 678.111Q1642.03 678.436 1641.48 678.707C1638.42 680.209 1633.77 680.118 1630.38 680.224C1585.26 681.632 1539.66 680.062 1494.48 680.033L1325.72 680.148C1313.27 680.156 1262.07 681.812 1255.04 679.247C1247.87 676.636 1250.99 668.843 1248.32 663.551C1248.24 663.395 1248.15 663.245 1248.07 663.092Q1323.34 662.458 1398.62 662.827L1459.42 662.967C1469.36 662.977 1479.75 663.593 1489.64 662.926C1491.87 662.775 1492.24 662.525 1493.87 661.105L1493.98 659.231C1491.82 657.753 1488.83 657.871 1486.23 657.757C1461.54 656.671 1436.18 657.855 1411.42 657.827L1247.92 657.878C1248.2 657.409 1248.32 657.243 1248.57 656.696C1250.5 652.374 1250.53 539.532 1248.44 534.346Z"/>
		<path fill="#3B2B43" transform="scale(0.879121 0.878906)" d="M1534.27 556C1549.52 555.378 1564.94 555.779 1580.2 555.736C1592.04 555.703 1604.67 554.842 1616.39 556.456C1617.86 557.041 1619.18 557.845 1620.49 558.722C1623.09 560.463 1624.52 562.391 1625.12 565.515C1626.05 567.412 1626.13 569.221 1626.21 571.294C1626.84 586.498 1626.33 601.944 1626.32 617.182C1626.32 627.748 1627.33 639.71 1625.71 650.134C1625.4 652.14 1624.72 653.693 1623.29 655.181C1619.61 659.008 1615.11 659.512 1610.05 659.559C1596.01 659.7 1538.57 662.585 1528.59 657.286C1524.96 655.357 1522.58 651.864 1521.48 647.975C1519.36 640.452 1520.02 581.977 1520.84 571.427C1521.06 568.583 1521.47 566.018 1522.91 563.52C1525.51 559.033 1529.47 557.31 1534.27 556Z"/>
		<path fill="white" transform="scale(0.879121 0.878906)" d="M1531.95 562.221C1541.56 560.46 1611.06 560.567 1617.32 563.72C1618.29 564.211 1619.44 564.862 1619.81 565.933C1620.78 568.704 1620.97 571.575 1621.05 574.49C1621.34 585.337 1620.37 596.28 1620.4 607.152C1620.43 618.521 1621.42 630.047 1620.98 641.384C1620.88 644.037 1620.87 648.059 1619.53 650.436C1618.14 652.9 1616.46 653.205 1614.02 654.06C1613.37 654.14 1612.72 654.192 1612.07 654.196L1562.45 654.24C1553.7 654.279 1543.42 655.316 1534.87 653.881C1532.57 653.496 1530.79 652.445 1529.2 650.72C1527.35 648.705 1526.95 646.283 1526.69 643.669C1525.54 632.277 1526.74 619.842 1526.84 608.322C1526.92 598.094 1526.16 587.853 1526.35 577.635C1526.48 570.912 1527.01 567.044 1531.95 562.221Z"/>
		<path fill="#3B2B43" transform="scale(0.879121 0.878906)" d="M1567.22 581.777C1573.05 581.077 1578.96 581.158 1584.55 583.208C1590.52 585.399 1595.16 590.224 1597.66 596.016C1600.7 603.087 1600.69 612.072 1597.69 619.159C1596.52 621.922 1595.17 623.458 1592.42 624.606L1588.73 622.669C1586.15 613.849 1560.37 599.013 1556.11 589.133C1557.97 584.983 1563.26 583.419 1567.22 581.777Z"/>
		<path fill="#3B2B43" transform="scale(0.879121 0.878906)" d="M1550.72 592.442C1551.34 592.37 1551.52 592.331 1552.08 592.321C1555.63 592.256 1585.61 621.883 1590.45 626.724L1589.82 628.316C1587.27 630.196 1585.2 631.509 1582.16 632.454C1581.94 632.59 1581.73 632.742 1581.5 632.862C1576.93 635.263 1570.45 635.03 1565.65 633.57C1558.29 631.333 1551.6 625.803 1548.01 619.009C1542.36 608.32 1547.69 602.96 1550.61 592.846C1550.65 592.712 1550.68 592.577 1550.72 592.442Z"/>
		<path fill="#3B2B43" transform="scale(0.879121 0.878906)" d="M1428.96 563.997C1431.24 563.398 1432.77 563.045 1435.07 563.713C1439.34 568.409 1436.11 575.837 1437.39 581.71C1440.14 583.818 1443.61 582.4 1446.96 583.613L1447.14 585.11C1444.27 586.85 1439.6 586.29 1436.26 586.299C1436.6 587.415 1436.92 588.582 1437.07 589.74C1437.94 596.355 1438.84 637.43 1437.23 641.86C1437 642.501 1435.87 643.6 1435.41 644.184C1435.3 644.302 1435.22 644.438 1435.09 644.54C1433.78 645.656 1433.04 645.692 1431.39 645.515C1425.24 640.745 1429.16 596.801 1427.44 586.264C1424.76 586.256 1422.47 586.139 1419.88 585.402C1418.96 585.139 1419.09 584.933 1418.65 584.137C1421.34 582.45 1424.52 582.707 1427.58 582.634C1428.98 576.807 1428.69 570.005 1428.96 563.997Z"/>
		<path fill="#3B2B43" transform="scale(0.879121 0.878906)" d="M1388.8 563.997C1389.98 563.783 1391.38 563.454 1392.58 563.497C1394.18 563.553 1395.42 564.34 1396.36 565.573C1399.25 569.357 1397.2 578.242 1396.57 582.709C1399.71 582.587 1403.32 582.057 1406.27 583.27L1406.53 584.984C1404.39 586.711 1402.65 585.43 1400.15 585.926C1393.38 587.267 1401.54 635.66 1395.31 644.003C1394.8 644.739 1395.05 644.535 1394.33 645.004C1393.47 645.554 1392.66 646.39 1391.62 645.928C1385.89 643.404 1389.49 595.056 1387.3 586.458C1384.17 586.453 1381.64 586.43 1378.7 585.233L1378.94 584.179C1381.85 583.072 1384.19 582.888 1387.26 582.825C1388.94 577.242 1388.25 569.888 1388.8 563.997Z"/>
		<path fill="white" transform="scale(0.879121 0.878906)" d="M1337.07 562.221C1340.56 561.755 1343.72 561.789 1346.86 563.602C1349.74 565.258 1352.09 568.222 1352.92 571.47C1353.71 574.568 1353.38 577.624 1351.7 580.37C1349.58 583.848 1346.84 585.349 1342.99 586.313C1341.9 586.47 1340.78 586.615 1339.68 586.545C1336.41 586.335 1332.97 584.64 1331.02 581.982C1328.86 579.025 1328.46 575.045 1329.22 571.526C1330.26 566.733 1333.17 564.667 1337.07 562.221Z"/>
		<path fill="white" transform="scale(0.879121 0.878906)" d="M1288.52 562.221C1291.82 561.763 1294.5 561.719 1297.57 563.267C1300.7 564.848 1303.18 568.022 1304.09 571.394C1304.95 574.587 1304.5 577.968 1302.67 580.748C1300.45 584.103 1297.79 585.12 1294.11 585.994C1293.43 586.301 1292.85 586.48 1292.09 586.446C1288.78 586.295 1285.94 585.808 1283.72 583.107C1281.25 580.101 1280.41 575.354 1281.1 571.547C1281.93 566.904 1284.94 564.767 1288.52 562.221Z"/>
		<path fill="white" transform="scale(0.879121 0.878906)" d="M1288.78 605.777C1291.74 605.463 1294.49 605.577 1297.17 606.998C1300.33 608.672 1302.88 611.668 1303.82 615.138C1304.64 618.147 1304.26 621.243 1302.55 623.869C1300.44 627.096 1297.6 628.252 1294.04 629.128C1292.78 629.332 1291.58 629.421 1290.31 629.209C1286.97 628.652 1283.82 627.064 1281.88 624.199C1279.97 621.372 1279.71 617.51 1280.59 614.258C1281.77 609.865 1285.11 607.859 1288.78 605.777Z"/>
		<path fill="white" transform="scale(0.879121 0.878906)" d="M1337.66 605.777C1340.62 605.446 1343.78 605.758 1346.42 607.243C1349.28 608.853 1351.57 611.808 1352.3 615.042C1353.03 618.271 1352.53 621.499 1350.62 624.238C1348.37 627.476 1345.7 628.464 1342.06 629.222C1341.04 629.346 1340.21 629.345 1339.2 629.176C1335.83 628.614 1332.74 627.13 1330.76 624.238C1328.81 621.407 1328.57 617.607 1329.48 614.354C1330.73 609.884 1333.91 607.916 1337.66 605.777Z"/>
		<path fill="white" transform="scale(0.879121 0.878906)" d="M1269.11 405.775C1279.05 404.013 1291.15 405.274 1301.27 405.317Q1333.25 405.627 1365.23 405.268C1365.76 406.229 1366.21 407.132 1366.44 408.215C1368.13 416.166 1366.62 433.624 1366.62 442.638C1366.63 464.407 1367.91 486.75 1366.68 508.449C1366.57 510.38 1366.25 511.68 1365.2 513.335C1362.23 514.709 1278.41 513.895 1268.96 513.946C1269.06 513.789 1269.16 513.637 1269.26 513.476C1270.07 512.06 1270.42 510.767 1270.54 509.155C1271.43 496.438 1271.4 413.797 1269.11 405.775Z"/>
		<path fill="white" transform="scale(0.879121 0.878906)" d="M1371.43 404.888C1377.81 404.41 1384.4 404.696 1390.8 404.677C1391.88 406.282 1392.09 407.752 1392.21 409.629C1392.75 418.199 1393.59 506.777 1392.03 511.118C1391.83 511.661 1390.54 512.803 1390.1 513.297C1383.69 513.973 1376.91 513.635 1370.45 513.69C1373.74 508.306 1372.89 413.944 1371.43 404.888Z"/>
		<path fill="white" transform="scale(0.879121 0.878906)" d="M1407.09 405.776C1412.84 404.883 1418.95 405.327 1424.75 405.371C1425.84 407.237 1426.02 408.674 1426.08 410.809C1426.74 432.022 1426.24 453.417 1426.25 474.647C1426.25 485.829 1427.45 498.624 1426 509.634C1425.85 510.79 1425.33 511.616 1424.55 512.446C1419.2 513.729 1412.32 512.939 1406.76 512.879C1406.85 512.689 1406.94 512.503 1407.02 512.309C1409.02 507.173 1408.87 410.34 1407.09 405.776Z"/>
		<path fill="#ECB6A3" transform="scale(0.879121 0.878906)" d="M1305.86 686.023C1329.92 686.039 1354.68 684.824 1378.65 686.303C1448.7 684.837 1519.06 685.939 1589.14 686.265C1591.31 690.038 1591.55 721.653 1590.19 726.558C1589.91 727.586 1589.46 728.233 1588.68 728.974C1585.28 731.522 1331.77 729.171 1305.74 729.222C1306.33 728.289 1306.82 727.282 1307.02 726.192C1308.08 720.428 1308.31 689.961 1305.86 686.023Z"/>
		<path fill="#AF383E" transform="scale(0.879121 0.878906)" d="M1305.86 686.023C1329.92 686.039 1354.68 684.824 1378.65 686.303C1380.75 690.737 1380.97 721.458 1379.33 726.531C1379.05 727.397 1378.65 728.223 1378.18 729.003C1448.27 729.169 1518.62 730.509 1588.68 728.974C1585.28 731.522 1331.77 729.171 1305.74 729.222C1306.33 728.289 1306.82 727.282 1307.02 726.192C1308.08 720.428 1308.31 689.961 1305.86 686.023Z"/>
		<path fill="#ECB6A3" transform="scale(0.879121 0.878906)" d="M208.968 494.231L262.248 494.171L262.238 710.711C254.407 710.697 245.893 711.373 238.15 710.472C238.159 699.821 239.894 640.734 237.683 634.536C237.181 633.127 236.913 633.243 235.554 632.654L234.051 633.828C231.891 639.677 233.632 699.12 233.689 710.429Q221.33 710.784 208.968 710.525L208.968 494.231Z"/>
		<path fill="white" transform="scale(0.879121 0.878906)" d="M847.223 663.659C866.332 663.144 885.588 663.666 904.715 663.679L1018.87 663.761C1019.14 676.19 1022.46 697.569 1015.05 708.101C1012.89 709.496 1010.51 710.514 1007.97 710.937C998.827 712.459 988.292 711.535 979.015 711.573Q949.033 711.917 919.051 711.548C901.448 711.395 883.376 712.482 865.842 711.364C862.52 711.153 854.783 710.772 852.233 708.537C843.808 701.152 847.176 674.549 847.223 663.659Z"/>
		<path fill="#ECB6A3" transform="scale(0.879121 0.878906)" d="M138.147 583.444C134.883 573.062 133.185 563.314 133.162 552.44C133.127 535.849 137.33 520.148 149.486 508.183C165.353 492.568 184.087 494.076 204.471 494.241L204.453 575.584C193.778 575.56 181.051 573.837 170.611 575.763C167.595 576.319 167.075 577.948 165.571 580.31C159.984 588.529 154.756 597.312 148.784 605.236C145.519 598.542 142.451 589.39 138.147 583.444Z"/>
		<path fill="#ECB6A3" transform="scale(0.879121 0.878906)" d="M265.94 494.148C284.132 493.93 298.172 493.113 314.445 502.976C328.451 516.542 335.43 527.403 335.878 547.851C336.237 564.192 331.44 580.859 325.081 595.76L320.581 604.35C315.119 594.52 309.693 584.435 302.593 575.67L266.622 575.703L266.72 522.493C266.734 513.378 267.591 503.101 265.94 494.148Z"/>
		<path fill="#ECB6A3" transform="scale(0.879121 0.878906)" d="M1020.19 182.379C1077.33 173.517 1129.57 144.178 1183.57 124.885C1284.74 88.7421 1413.75 96.9736 1502.12 161.454C1530.96 182.498 1552.92 212.086 1558.38 247.894C1560.18 259.676 1560.48 271.696 1562.48 283.436Q1562.69 284.71 1562.93 285.978Q1563.17 287.247 1563.44 288.509Q1563.71 289.772 1564.01 291.027Q1564.31 292.283 1564.64 293.531Q1564.97 294.779 1565.33 296.019Q1565.7 297.258 1566.08 298.489Q1566.47 299.72 1566.89 300.941Q1567.31 302.163 1567.76 303.374Q1568.21 304.584 1568.68 305.784Q1569.16 306.984 1569.67 308.172Q1570.17 309.361 1570.7 310.536Q1571.24 311.712 1571.8 312.875Q1572.36 314.038 1572.95 315.187Q1573.54 316.336 1574.15 317.471Q1574.77 318.605 1575.41 319.725Q1576.05 320.845 1576.72 321.949Q1577.39 323.053 1578.09 324.141Q1578.78 325.228 1579.5 326.299Q1580.22 327.37 1580.97 328.424Q1581.71 329.477 1582.49 330.512Q1583.26 331.548 1584.05 332.565Q1584.85 333.581 1585.67 334.579Q1586.49 335.576 1587.33 336.554Q1588.17 337.531 1589.04 338.488Q1589.91 339.446 1590.8 340.382Q1591.68 341.318 1592.59 342.233Q1593.51 343.148 1594.44 344.041Q1595.37 344.934 1596.32 345.804Q1597.28 346.674 1598.25 347.522Q1599.22 348.369 1600.22 349.193Q1601.21 350.017 1602.23 350.817Q1603.24 351.617 1604.27 352.393C1625.78 368.356 1651.19 375.718 1674.16 388.794C1740.64 426.624 1771.64 501.362 1782.52 574.002C1787.08 604.486 1786.71 635.992 1784.03 666.655C1776.79 749.404 1743.8 887.285 1693.98 954.808C1690.37 959.708 1685.85 966.19 1680.78 969.605C1686.62 969.587 1711.13 968.035 1714.93 970.395C1694.27 970.88 1673.51 970.12 1652.83 970.149C1637.75 970.171 1621.59 971.482 1606.64 969.846C1606.91 969.215 1607.03 968.994 1607.19 968.372C1609.19 960.929 1607.66 921.615 1607.65 909.987C1607.62 868.146 1608.94 825.945 1607.61 784.148C1607.54 782.003 1607.34 780.531 1606.26 778.647C1624.69 776.764 1644.4 778.213 1662.96 778.327C1670.5 778.374 1678.68 779.016 1686.07 777.443C1690.98 776.401 1695.6 774.112 1699.22 770.616C1703.63 766.349 1706.18 760.937 1706.25 754.792C1706.32 748.202 1704.11 741.664 1699.43 736.935C1696.22 733.694 1692.04 731.481 1687.63 730.388C1675.28 727.326 1642.82 729.524 1628.24 729.514C1631.25 722.178 1630.28 694.889 1628.57 686.477C1635.9 686.037 1643.33 686.202 1648.92 680.611C1651.13 678.395 1653.53 674.801 1654.09 671.699C1655.58 663.571 1654.75 654.203 1654.76 645.916L1654.78 599.167L1654.91 425.484C1654.95 413.448 1657.87 396.137 1648.4 386.906C1644.78 383.383 1638.65 382.556 1633.81 382.041C1613.13 379.845 1586.47 381.466 1565.18 381.465L1429.61 381.497C1415.44 379.581 1394.1 381.242 1379.21 381.308C1380.22 379.713 1380.39 377.899 1380.44 376.038C1381.43 337.912 1380.25 299.436 1380.25 261.26L1380.24 218.795C1380.24 210.942 1380.81 202.562 1379.82 194.777C1378.76 186.462 1373.4 179.012 1366.89 173.992C1362.25 170.419 1356.24 168.793 1350.53 168.07C1333.98 165.979 1306.62 167.999 1288.98 168.014C1271.17 168.03 1251.43 165.861 1233.83 168.122C1188.81 173.906 1213.07 225.148 1203.05 238.156C1182.23 237.521 1161.16 238.224 1140.31 238.269L1020.25 238.333C1019.6 219.732 1020.12 200.995 1020.19 182.379Z"/>
		<path fill="#3B2B43" transform="scale(0.879121 0.878906)" d="M1787.47 970.222C1789.23 970.155 1791.7 970.048 1793.31 970.856C1795.34 971.874 1795.64 972.868 1796.09 974.871L1795.15 976.257C1787.55 980.064 1772.36 977.983 1763.79 977.861C1761.71 977.908 1760.55 977.788 1758.68 976.851C1757.37 974.863 1757.32 974.93 1757.77 972.602C1762.35 968.21 1780.86 970.209 1787.47 970.222Z"/>
		<path fill="#3B2B43" transform="scale(0.879121 0.878906)" d="M28.274 970.107C35.3879 970.024 50.7954 967.972 57.0897 970.901C58.9985 971.789 58.9812 972.219 59.6922 974.082C58.9706 976.455 58.9777 976.546 56.9101 977.894C50.7637 977.804 29.9035 980.215 25.4353 976.278C24.4745 975.432 24.6504 974.658 24.5008 973.462C25.6707 971.209 25.9435 971.19 28.274 970.107Z"/>
	</g>
	<g>
		<path fill="white" transform="scale(0.879121 0.878906)" d="M0 0L1818.44 0C1820.58 3.35778 1819.99 8.22266 1820 12.0828L1820 742.336L1820.01 943.951L1820 997.417C1819.99 1004.76 1820.98 1013.76 1819.75 1020.9C1819.56 1022.02 1819.05 1023.05 1818.44 1024L0 1024L0 0ZM99.1496 970.445C98.4355 972.871 98.0896 973.577 98.7068 975.984C102.854 979.974 125.101 977.982 131.322 977.966L1228.72 977.891L1553.05 977.79L1663.5 977.791C1679.21 977.791 1695.07 978.332 1710.76 977.993C1713.83 977.926 1717.21 977.823 1719.8 975.991C1720.39 973.814 1720.32 973.822 1719.28 971.801C1717.77 971.025 1716.62 970.628 1714.93 970.395C1711.13 968.035 1686.62 969.587 1680.78 969.605C1685.85 966.19 1690.37 959.708 1693.98 954.808C1743.8 887.285 1776.79 749.404 1784.03 666.655C1786.71 635.992 1787.08 604.486 1782.52 574.002C1771.64 501.362 1740.64 426.624 1674.16 388.794C1651.19 375.718 1625.78 368.356 1604.27 352.393Q1603.24 351.617 1602.23 350.817Q1601.21 350.017 1600.22 349.193Q1599.22 348.369 1598.25 347.522Q1597.28 346.674 1596.32 345.804Q1595.37 344.934 1594.44 344.041Q1593.51 343.148 1592.59 342.233Q1591.68 341.318 1590.8 340.382Q1589.91 339.446 1589.04 338.488Q1588.17 337.531 1587.33 336.554Q1586.49 335.576 1585.67 334.579Q1584.85 333.581 1584.05 332.565Q1583.26 331.548 1582.49 330.512Q1581.71 329.477 1580.97 328.424Q1580.22 327.37 1579.5 326.299Q1578.78 325.228 1578.09 324.141Q1577.39 323.053 1576.72 321.949Q1576.05 320.845 1575.41 319.725Q1574.77 318.605 1574.15 317.471Q1573.54 316.336 1572.95 315.187Q1572.36 314.038 1571.8 312.875Q1571.24 311.712 1570.7 310.536Q1570.17 309.361 1569.67 308.172Q1569.16 306.984 1568.68 305.784Q1568.21 304.584 1567.76 303.374Q1567.31 302.163 1566.89 300.941Q1566.47 299.72 1566.08 298.489Q1565.69 297.258 1565.33 296.019Q1564.97 294.779 1564.64 293.531Q1564.31 292.283 1564.01 291.027Q1563.71 289.772 1563.44 288.509Q1563.17 287.247 1562.93 285.978Q1562.69 284.71 1562.48 283.436C1560.48 271.696 1560.18 259.676 1558.38 247.894C1552.92 212.086 1530.96 182.498 1502.12 161.454C1413.75 96.9736 1284.74 88.7421 1183.57 124.885C1129.57 144.178 1077.33 173.517 1020.19 182.379L1020.27 178.408C1020.39 170.907 1020.52 163.605 1014.78 157.882C1011.98 155.081 1008.41 153.589 1004.54 152.92C994.492 151.18 971.172 152.909 959.779 152.881L959.64 144.048C959.808 137.943 959.746 131.913 959.489 125.811C961.993 125.879 964.18 126.085 966.465 124.848C967.134 124.486 967.066 124.038 967.285 123.346C964.575 121.546 962.983 121.774 959.778 121.578C959.789 116.062 958.696 92.2628 960.914 89.0154Q964.125 88.2887 967.354 87.6514L967.813 86.2798L967.099 85.0275C959.97 83.3854 909.264 83.7763 901.185 84.9303L900.232 86.2481L900.673 87.8623C902.712 88.4544 904.591 88.6636 906.707 88.7828C908.7 90.8043 908.272 95.4437 908.253 98.2897C908.202 106.296 907.804 114.309 907.872 122.314C905.135 122.164 902.26 121.638 900.006 123.52L900.423 124.727C903.053 125.915 905.076 125.892 907.872 125.795C907.316 134.769 907.527 143.802 907.561 152.79C894.713 152.797 859.854 149.607 850.855 158.411C848.553 160.664 847.076 163.888 846.721 167.073C846.259 171.681 846.146 176.143 846.188 180.769C790.27 171.349 742.497 164.81 687.99 147.15C640.651 131.812 596.094 108.99 548.521 94.375C432.687 58.791 319.458 93.852 223.745 161.868C164.567 203.922 80.9165 283.632 68.5571 358.028C63.5084 388.419 67.9724 421.606 86.1887 447.04C95.1826 459.598 106.665 470.117 115.762 482.558C124.292 494.223 128.869 505.967 136.092 517.749Q135.643 518.724 135.218 519.711Q134.793 520.697 134.394 521.694Q133.994 522.691 133.619 523.697Q133.244 524.704 132.895 525.719Q132.545 526.735 132.221 527.759Q131.897 528.783 131.599 529.815Q131.301 530.846 131.029 531.885Q130.757 532.924 130.511 533.97Q130.264 535.015 130.045 536.066Q129.825 537.117 129.631 538.174Q129.438 539.23 129.271 540.291Q129.104 541.352 128.963 542.417Q128.823 543.482 128.709 544.55Q128.596 545.618 128.509 546.688Q128.422 547.759 128.362 548.831Q128.302 549.903 128.269 550.977Q128.236 552.05 128.23 553.124Q128.223 554.198 128.244 555.272Q128.265 556.346 128.312 557.419Q128.36 558.492 128.434 559.563Q128.508 560.635 128.61 561.704Q128.711 562.773 128.839 563.839Q128.967 564.906 129.121 565.968Q129.276 567.031 129.457 568.09Q129.638 569.148 129.846 570.202Q130.053 571.256 130.287 572.304Q130.521 573.352 130.781 574.394Q131.041 575.436 131.328 576.472Q131.614 577.507 131.926 578.534Q132.238 579.562 132.575 580.582Q132.913 581.601 133.276 582.612Q133.639 583.623 134.027 584.624Q135.433 588.313 136.899 591.979C128.812 635.628 99.2821 672.069 77.2429 709.608C36.7882 778.516 13.857 864.024 62.76 935.314C71.2123 947.635 84.9682 964.503 99.1496 970.445ZM28.274 970.107C25.9435 971.19 25.6707 971.209 24.5008 973.462C24.6504 974.658 24.4745 975.432 25.4353 976.278C29.9035 980.215 50.7637 977.804 56.9101 977.894C58.9777 976.546 58.9706 976.455 59.6922 974.082C58.9812 972.219 58.9985 971.789 57.0897 970.901C50.7954 967.972 35.3879 970.024 28.274 970.107ZM1787.47 970.222C1780.86 970.209 1762.35 968.21 1757.77 972.602C1757.32 974.93 1757.37 974.863 1758.68 976.851C1760.55 977.788 1761.71 977.908 1763.79 977.861C1772.36 977.983 1787.55 980.064 1795.15 976.257L1796.09 974.871C1795.64 972.868 1795.34 971.874 1793.31 970.856C1791.7 970.048 1789.23 970.155 1787.47 970.222Z"/>
		<path fill="#ECB6A3" transform="scale(0.879121 0.878906)" d="M1496.24 106.213C1496.98 106.22 1497.71 106.274 1498.44 106.395C1507.17 107.839 1528.81 123.662 1535.94 129.194Q1537.59 130.452 1539.21 131.749Q1540.83 133.046 1542.42 134.381Q1544.01 135.716 1545.56 137.09Q1547.12 138.463 1548.64 139.873Q1550.17 141.283 1551.65 142.73Q1553.14 144.176 1554.59 145.658Q1556.05 147.14 1557.47 148.656Q1558.88 150.172 1560.26 151.722Q1561.64 153.272 1562.99 154.854Q1564.33 156.437 1565.63 158.051Q1566.94 159.665 1568.2 161.31Q1569.47 162.956 1570.69 164.631Q1571.92 166.306 1573.1 168.01Q1574.29 169.714 1575.43 171.446Q1576.57 173.178 1577.68 174.937Q1578.78 176.696 1579.84 178.481Q1580.9 180.266 1581.91 182.075Q1582.93 183.885 1583.9 185.719Q1584.87 187.553 1585.8 189.409Q1586.73 191.266 1587.61 193.144Q1588.49 195.022 1589.33 196.921Q1590.17 198.82 1590.96 200.739Q1591.75 202.657 1592.5 204.594Q1593.24 206.531 1593.94 208.486Q1594.64 210.44 1595.29 212.411Q1595.94 214.381 1596.55 216.367Q1597.15 218.353 1597.71 220.352Q1598.27 222.352 1598.77 224.364Q1599.28 226.377 1599.74 228.401Q1600.2 230.425 1600.61 232.459Q1601.02 234.494 1601.39 236.537Q1601.75 238.581 1602.06 240.633C1604.82 258.673 1605.9 277.244 1614.4 293.778C1621.08 306.784 1629.18 314.063 1641.93 321.056C1644.85 322.654 1648.38 323.98 1650.39 326.696L1649.11 328.447C1598.99 309.302 1605.67 267.697 1595.66 225.814Q1594.69 221.771 1593.51 217.783Q1592.33 213.795 1590.96 209.872Q1589.58 205.949 1588 202.101Q1586.43 198.252 1584.66 194.489Q1582.89 190.725 1580.94 187.056Q1578.98 183.387 1576.84 179.822Q1574.7 176.257 1572.39 172.804Q1570.07 169.352 1567.58 166.022C1554.4 148.26 1538.2 133.888 1519.85 121.602C1513.91 117.627 1499.02 112.279 1496.24 106.213Z"/>
		<path fill="#ECB6A3" transform="scale(0.879121 0.878906)" d="M1272.04 59.109C1277.03 58.7433 1285.54 57.3966 1289.57 60.7299C1283.49 63.2291 1260.99 63.4365 1252.81 64.6106Q1238.81 66.5963 1224.98 69.5573Q1211.16 72.5183 1197.57 76.4399C1147.43 91.3444 1101.28 118.965 1052.41 132.167C1049.01 133.576 1044.49 135.737 1040.83 135.179L1040.89 133.871C1041.34 133.38 1042.14 132.229 1042.68 131.93C1046.5 129.794 1053.54 128.76 1057.84 127.385C1065.73 124.866 1073.47 121.856 1081.2 118.893C1104.91 109.793 1127.75 98.5432 1151.26 88.933Q1158.48 85.9688 1165.8 83.2727Q1173.13 80.5766 1180.55 78.1524Q1187.97 75.7282 1195.47 73.5792Q1202.97 71.4301 1210.55 69.5591Q1218.13 67.6882 1225.77 66.0978Q1233.41 64.5074 1241.1 63.1998Q1248.8 61.8922 1256.53 60.8692Q1264.27 59.8461 1272.04 59.109Z"/>
	</g>
</svg>
