<?xml version="1.0" encoding="utf-8" ?>
<svg xmlns="http://www.w3.org/2000/svg" xmlns:xlink="http://www.w3.org/1999/xlink" width="1600" height="900">
	<g>
		<path fill="#47273E" transform="scale(0.879121 0.878906)" d="M1575.5 140.382C1581.24 140.528 1612.52 139.389 1615.22 141.614L1615.43 142.964C1617.24 148.035 1617.84 183.813 1615.69 188.575C1615.37 189.269 1615.44 189.133 1615.09 189.656C1607.67 190.245 1600.17 190.05 1592.73 190.024C1593.52 191.377 1594 192.633 1594.13 194.2C1595.8 215.238 1594.35 243.387 1594.34 265.084C1594.34 274.677 1595.87 297.544 1593.97 305.921C1593.77 306.807 1593.41 307.642 1592.99 308.446C1590.44 310.278 1435.8 309.24 1420.68 309.16C1420.54 293.126 1422.9 196.65 1419.45 189.953Q1397.9 189.735 1376.36 189.966C1376.81 190.699 1377.24 191.503 1377.44 192.339C1378.02 194.74 1378.51 394.801 1377.18 398.837C1376.91 399.66 1376.87 399.664 1376.48 400.29L1419.26 400.353C1421.67 396.238 1421.83 333.169 1420.31 326.338C1428.81 324.646 1586.2 324.22 1592.46 325.693L1592.98 326.251C1594.97 330.291 1595.51 393.914 1593.79 398.691C1593.58 399.261 1593.26 399.797 1592.92 400.3C1622.16 400.266 1651.83 399.111 1681.01 400.247C1681.82 401.6 1682.3 402.855 1682.42 404.425C1683.23 414.725 1683.55 509.003 1682.39 513.383C1682.16 514.266 1681.73 515.063 1681.23 515.818C1692.56 515.746 1705.65 514.381 1716.81 516.097C1717.42 517.586 1717.85 519 1717.93 520.617C1718.86 539.749 1718.84 716.154 1717.46 719.919C1726.83 726.327 1743.31 715.294 1745.81 729.313C1746.74 734.573 1747.55 758.583 1744.6 762.247C1743 764.246 1740.52 765.199 1738.06 765.499C1734.97 767.076 1729.6 766.308 1726.13 766.267C1726.85 767.843 1727.2 769.21 1727.24 770.933C1727.7 787.646 1727.41 964.504 1725.9 968.73C1725.53 969.766 1724.95 970.731 1724.36 971.65C1725.18 973.771 1725.39 974.205 1724.99 976.415C1723.43 977.605 1722.8 977.881 1720.85 978.152C1707.35 980.022 1691.85 978.499 1678.09 978.501L1584.25 978.492L1258.92 978.458L121.158 977.963C113.461 977.996 94.0629 980.196 88.5294 976.025C87.5256 974.21 87.5664 974.351 88.108 972.344C92.3814 968.329 97.6449 969.241 103.052 969.371L102.97 901.842Q101.214 901.32 99.5071 900.656C95.1608 898.955 91.2134 896.331 89.4008 891.836C85.5085 882.185 85.8692 846.918 89.8766 837.428C91.737 833.022 94.9742 830.933 99.2143 829.121C107.011 826.664 157.85 828.285 170.807 828.249L170.85 805.604L170.814 799.175L171.1 586.941C154.489 586.552 129.299 591.472 116.417 579.108C111.898 574.771 108.542 569.419 107.401 563.201C104.691 548.423 106.885 521.615 106.889 505.66Q107.454 431.233 106.878 356.806L106.868 311.708C106.819 302.574 105.777 291.927 107.54 282.966C108.509 278.044 110.707 273.039 114.259 269.429C121.325 262.246 132.474 263.178 141.721 263.077C148.36 263.225 166.747 264.824 171.575 262.023C172.088 259.285 172.652 256.551 173.509 253.898C178.116 239.651 187.322 229.434 200.593 222.719C206.454 219.753 215.039 218.784 221.586 218.354C247.823 216.629 275.03 218.111 301.351 218.105C332.339 218.097 363.904 216.785 394.809 218.273C399.63 218.505 404.98 218.869 409.553 220.408C424.967 225.598 434.22 237.484 441.271 251.382L627.599 251.572L684.089 251.461C694.026 251.441 704.382 250.761 714.247 251.764C716.979 252.041 718.617 252.855 720.541 254.859C722.222 256.609 722.553 258.923 722.846 261.293C724.212 272.344 723.331 284.389 723.33 295.542L723.264 361.842L853.302 361.806L853.563 280.92Q875.955 280.37 898.352 280.633L898.349 249.061C890.598 248.949 882.56 250.169 874.857 249.227C872.127 248.894 871.506 247.955 869.843 245.95C870.922 234.729 870.209 222.673 870.275 211.351C870.062 209.181 870.016 208.889 871.051 206.993C877.377 203.47 912.235 205.519 922.055 205.438C933.413 205.599 990.34 203.988 996.068 206.164C998.373 210.917 999.125 241.25 997.38 246.181C997.284 246.451 997.174 246.715 997.072 246.982C995.232 248.921 993.995 248.846 991.356 248.94C983.09 249.238 974.702 248.893 966.423 248.841C966.449 259.107 967.131 269.905 966.321 280.111C973.644 280.021 1007.3 278.177 1011.25 281.414C1014.83 292.32 1012.9 341.676 1012.9 356.62Q1015.49 355.47 1018.17 354.575C1029.68 350.672 1042.27 350.962 1053.21 356.57C1063.27 361.727 1071.9 371.903 1075.14 382.776C1076.59 387.656 1077.76 395.982 1075.29 400.663L1374.12 400.349C1374.47 399.779 1374.77 399.271 1374.99 398.639C1377.08 392.723 1375.73 291.363 1375.73 278.315L1375.67 190.819C1375.65 175.911 1376.2 160.725 1375.49 145.846C1375.4 143.877 1375.1 142.464 1374.17 140.709L1506.08 140.554C1529.16 140.576 1552.45 141.331 1575.5 140.382ZM944.599 568.575C944.605 594.527 945.002 620.554 944.448 646.497L944.573 659.25L1000.12 659.501C985.084 667.277 957.266 684.045 941.872 687.408Q940.494 687.719 939.099 687.939Q937.703 688.159 936.296 688.286Q934.889 688.412 933.477 688.446Q932.064 688.48 930.653 688.421Q929.242 688.361 927.837 688.208Q926.433 688.056 925.041 687.811Q923.65 687.566 922.278 687.229Q920.906 686.893 919.559 686.467C904.069 681.659 879.731 666.766 864.553 658.769C873.318 658.846 915.839 660.62 920.914 658.027L921.612 655.855C920.357 646.448 921.09 635.933 921.092 626.431L921.221 568.745Q910.668 568.759 900.118 568.489L900.124 548.362L886.264 548.462L886.19 495.937C875.753 495.924 863.912 496.974 853.63 495.436C852.785 483.674 853.524 471.314 853.506 459.488L777.524 459.511L777.495 477.714L777.527 760.993C783.7 760.838 793.861 759.471 798.607 764.428C805.714 771.852 802.685 816.523 802.611 828.388L824.211 828.265C836.264 825.759 870.371 827.646 884.932 827.626L1038.98 827.464C1039.54 826.823 1040.09 826.162 1040.51 825.426C1043.42 820.417 1043.09 807.68 1041.63 802.068C1042.24 784.119 1041.71 765.953 1041.71 747.981L1041.75 642.975C1041.79 576.044 1043.23 508.868 1042.16 441.971C1042.12 439.489 1042.21 437.576 1040.98 435.342C1030.79 436.785 1022.21 435.3 1012.66 431.86L1012.91 496.183L981.089 495.902C981.045 513.345 980.714 530.838 981.059 548.274L968.72 548.334L968.658 568.332L944.599 568.575ZM525.391 678.879L525.341 768.795C525.373 788.576 524.996 808.439 525.787 828.203L548.321 828.276C548.341 817.734 545.852 771.48 551.567 765.303C553.888 762.794 556.881 761.586 560.211 761.222C568.464 760.318 577.113 760.782 585.413 760.788L630.163 760.856L775.865 760.961L775.864 473.371C767.735 472.121 758.667 472.774 750.431 472.803L706.052 472.918L526.224 472.985C526.239 493.721 527.757 675.952 525.391 678.879ZM104.868 969.571L128.884 969.619L128.922 901.325L104.92 901.321L104.868 969.571ZM171.527 365.57L171.406 264.914C156.656 264.904 141.864 264.665 127.12 265.001C117.874 268.063 113.591 271.907 109.169 280.503L108.586 474.832L108.444 528.122C108.397 539.555 107.596 551.806 109.342 563.101C110.112 568.082 113.144 573.403 116.648 576.972C123.934 584.395 134.103 585.433 143.955 585.401C152.973 585.372 161.996 585.184 171.013 585.031Q171.281 570.024 171.196 555.015C170.323 516.969 171.002 478.731 171.415 440.674C159.471 442.018 148.169 440.549 138.55 432.7Q137.842 432.115 137.164 431.496Q136.485 430.876 135.839 430.224Q135.192 429.572 134.579 428.888Q133.965 428.204 133.386 427.491Q132.807 426.778 132.265 426.037Q131.722 425.296 131.216 424.529Q130.711 423.762 130.244 422.971Q129.778 422.18 129.351 421.366Q128.924 420.553 128.538 419.719Q128.152 418.886 127.808 418.034Q127.464 417.182 127.162 416.315Q126.861 415.447 126.602 414.565Q126.344 413.684 126.13 412.79Q125.916 411.897 125.747 410.994Q125.577 410.091 125.453 409.181Q125.328 408.271 125.249 407.356Q125.158 406.397 125.115 405.434Q125.071 404.471 125.076 403.508Q125.081 402.544 125.134 401.582Q125.187 400.62 125.288 399.662Q125.389 398.704 125.537 397.752Q125.686 396.799 125.882 395.856Q126.078 394.913 126.32 393.98Q126.563 393.048 126.852 392.128Q127.141 391.209 127.475 390.306Q127.81 389.402 128.189 388.516Q128.568 387.63 128.991 386.764Q129.414 385.899 129.879 385.055Q130.345 384.211 130.852 383.392Q131.359 382.573 131.906 381.78Q132.453 380.987 133.039 380.222Q133.625 379.457 134.249 378.723Q134.852 378.021 135.487 377.349Q136.123 376.678 136.791 376.038Q137.459 375.398 138.157 374.791Q138.855 374.184 139.581 373.612Q140.308 373.039 141.061 372.503Q141.815 371.967 142.594 371.467Q143.372 370.968 144.174 370.508Q144.976 370.047 145.8 369.626Q146.623 369.204 147.466 368.824Q148.309 368.443 149.169 368.104Q150.03 367.764 150.905 367.467Q151.781 367.17 152.67 366.916Q153.56 366.661 154.46 366.45Q155.361 366.24 156.27 366.073Q157.18 365.906 158.097 365.783Q159.013 365.661 159.935 365.583C163.75 365.275 167.703 365.379 171.527 365.57ZM941.604 655.304C935.39 655.221 928.988 654.806 922.81 655.533C922.956 659.834 922.512 664.162 925.244 667.783C926.616 669.604 928.615 671.04 930.94 671.236C933.445 671.446 935.709 670.126 937.485 668.479C941.378 664.868 941.38 660.242 941.604 655.304ZM1101.86 969.899C1108.42 969.979 1118.21 971.275 1124.34 969.375C1124.76 968.692 1125.5 967.791 1125.76 967.061C1126.91 963.851 1126.76 908.554 1125.71 903.969C1125.48 902.939 1125 901.988 1124.44 901.1C1117.09 901.018 1109.44 900.496 1102.18 901.768C1103.38 904.813 1104.11 964.281 1102.52 968.648C1102.35 969.132 1102.13 969.446 1101.86 969.899ZM443.938 361.71L703.737 361.721L703.823 270.543L443.966 270.512Q443.625 316.112 443.938 361.71ZM443.708 459.518L443.674 697.189L443.792 775.671C443.782 791.521 443.229 807.601 443.991 823.42C444.08 825.263 444.254 826.44 445.148 828.081L447.117 828.527C472.269 827.012 498.249 828.243 523.499 828.122L523.667 472.333L523.603 459.504L443.708 459.518Z"/>
		<path fill="#8B4B50" transform="scale(0.879121 0.878906)" d="M1575.5 140.382C1581.24 140.528 1612.52 139.389 1615.22 141.614L1615.43 142.964C1617.24 148.035 1617.84 183.813 1615.69 188.575C1615.37 189.269 1615.44 189.133 1615.09 189.656C1607.67 190.245 1600.17 190.05 1592.73 190.024C1593.52 191.377 1594 192.633 1594.13 194.2C1595.8 215.238 1594.35 243.387 1594.34 265.084C1594.34 274.677 1595.87 297.544 1593.97 305.921C1593.77 306.807 1593.41 307.642 1592.99 308.446C1590.44 310.278 1435.8 309.24 1420.68 309.16C1420.54 293.126 1422.9 196.65 1419.45 189.953Q1397.9 189.735 1376.36 189.966C1376.81 190.699 1377.24 191.503 1377.44 192.339C1378.02 194.74 1378.51 394.801 1377.18 398.837C1376.91 399.66 1376.87 399.664 1376.48 400.29L1419.26 400.353C1421.67 396.238 1421.83 333.169 1420.31 326.338C1428.81 324.646 1586.2 324.22 1592.46 325.693L1592.98 326.251C1594.97 330.291 1595.51 393.914 1593.79 398.691C1593.58 399.261 1593.26 399.797 1592.92 400.3C1622.16 400.266 1651.83 399.111 1681.01 400.247C1681.82 401.6 1682.3 402.855 1682.42 404.425C1683.23 414.725 1683.55 509.003 1682.39 513.383C1682.16 514.266 1681.73 515.063 1681.23 515.818C1692.56 515.746 1705.65 514.381 1716.81 516.097C1717.42 517.586 1717.85 519 1717.93 520.617C1718.86 539.749 1718.84 716.154 1717.46 719.919C1726.83 726.327 1743.31 715.294 1745.81 729.313C1746.74 734.573 1747.55 758.583 1744.6 762.247C1743 764.246 1740.52 765.199 1738.06 765.499C1726.86 765.159 1715.54 765.502 1704.33 765.521C1681.55 763.993 1657.9 765.309 1635.03 765.317C1577.9 765.338 1520.57 766.478 1463.47 765.104C1459.6 763.039 1447.7 764.404 1443.21 765.082C1415.74 766.502 1387.66 765.34 1360.13 765.343L1194.25 765.603C1194.86 767.035 1195.28 768.401 1195.36 769.96C1196.15 786.487 1196.98 924.237 1194.82 929.75C1191.39 924.683 1193.5 819.703 1193.55 805.653C1193.59 796.735 1195.56 772.808 1192.14 765.78L1042.53 766.15C1045.5 772.007 1045.07 791.588 1044.06 798.267C1043.69 800.718 1043.55 800.655 1041.63 802.068C1042.24 784.119 1041.71 765.953 1041.71 747.981L1041.75 642.975C1041.79 576.044 1043.23 508.868 1042.16 441.971C1042.12 439.489 1042.21 437.576 1040.98 435.342C1030.79 436.785 1022.21 435.3 1012.66 431.86L1012.91 496.183L981.089 495.902C974.03 493.838 963.582 495.47 955.987 494.97C973.473 492.802 992.74 494.045 1010.44 494.009L1010.38 429.097Q1010.96 429.331 1011.55 429.548C1024.59 434.372 1039 435.779 1051.92 429.634C1061.29 425.179 1068.31 416.651 1071.73 406.934C1075.28 396.893 1074.49 386.144 1069.75 376.63C1064.96 367.018 1056.94 359.271 1046.65 355.879C1034.22 351.781 1022.42 354.267 1011.04 359.92C1011.77 333.991 1010.84 307.801 1010.65 281.851L966.843 281.777L966.321 280.111C973.644 280.021 1007.3 278.177 1011.25 281.414C1014.83 292.32 1012.9 341.676 1012.9 356.62Q1015.49 355.47 1018.17 354.575C1029.68 350.672 1042.27 350.962 1053.21 356.57C1063.27 361.727 1071.9 371.903 1075.14 382.776C1076.59 387.656 1077.76 395.982 1075.29 400.663L1374.12 400.349C1374.47 399.779 1374.77 399.271 1374.99 398.639C1377.08 392.723 1375.73 291.363 1375.73 278.315L1375.67 190.819C1375.65 175.911 1376.2 160.725 1375.49 145.846C1375.4 143.877 1375.1 142.464 1374.17 140.709L1506.08 140.554C1529.16 140.576 1552.45 141.331 1575.5 140.382Z"/>
		<path fill="#ACC0E1" transform="scale(0.879121 0.878906)" d="M1074.4 402.806L1418.91 402.816C1419.39 403.701 1419.8 404.611 1420.05 405.594C1421.59 411.713 1421.74 452.165 1418.95 456.756C1422.13 462.775 1420.37 500.653 1420.38 509.324L1420.61 666.994C1420.62 677.691 1422.15 711.495 1420.16 718.986C1419.96 719.734 1419.62 720.27 1419.21 720.91L1357.04 720.935C1360.03 716.002 1359.35 662.561 1358.44 654.24C1358.39 654.369 1358.33 654.497 1358.29 654.628C1357.17 657.834 1358.71 661.994 1356.84 664.563L1354.93 663.247C1357.07 667.399 1357.25 715.857 1355.67 720.037C1355.43 720.661 1355.11 721.205 1354.73 721.748C1339.52 721.762 1324.03 721.156 1308.85 721.963C1303.81 722.539 1298.66 721.997 1293.67 722.734L1138.21 723.619L1136.38 721.918C1126.88 720.736 1116.04 721.693 1106.42 721.705L1042.49 721.823C1042.91 721.152 1043.22 720.516 1043.5 719.77C1044.77 716.369 1045.16 488.09 1044.21 464.764C1044.13 462.993 1043.77 461.601 1043.01 459.987L1212.68 459.715L1258.48 459.834C1266.22 459.864 1274.99 460.713 1282.6 459.483L1283.03 458.063C1275.73 455.696 1243.42 457.693 1233.75 457.662L1042.75 457.588C1043.08 457.093 1043.41 456.563 1043.62 456.003C1045.31 451.452 1044.85 439.03 1043.09 434.462Q1044.05 434.267 1045.01 434.028Q1045.96 433.788 1046.9 433.503Q1047.84 433.219 1048.77 432.89Q1049.69 432.561 1050.6 432.189Q1051.51 431.817 1052.4 431.403Q1053.29 430.988 1054.16 430.532Q1055.04 430.076 1055.88 429.579Q1056.73 429.083 1057.55 428.547Q1058.38 428.01 1059.18 427.436Q1059.97 426.862 1060.74 426.25Q1061.51 425.639 1062.25 424.992Q1062.99 424.345 1063.7 423.663Q1064.41 422.982 1065.08 422.268Q1065.76 421.554 1066.4 420.809Q1067.04 420.064 1067.65 419.29Q1068.25 418.515 1068.82 417.713C1071.51 413.967 1075.15 407.559 1074.4 402.806Z"/>
		<path fill="#47273E" transform="scale(0.879121 0.878906)" d="M1157.04 491.459L1326.95 490.725C1350.14 490.757 1375.53 488.91 1398.42 491.198C1398.96 492.112 1399.48 493.191 1399.69 494.238C1401.39 502.39 1400.13 538.772 1400.11 549.006L1399.91 614.691C1399.95 626.423 1400.49 638.303 1400.16 650.019C1400.12 651.602 1399.73 652.7 1398.89 654.055C1385.54 654.855 1371.83 654.245 1358.44 654.24C1358.39 654.369 1358.33 654.497 1358.29 654.628C1357.17 657.834 1358.71 661.994 1356.84 664.563L1354.93 663.247C1357.07 667.399 1357.25 715.857 1355.67 720.037C1355.43 720.661 1355.11 721.205 1354.73 721.748C1339.52 721.762 1324.03 721.156 1308.85 721.963C1303.81 722.539 1298.66 721.997 1293.67 722.734L1138.21 723.619L1136.38 721.918C1154.28 721.391 1172.32 721.865 1190.23 721.891C1190.68 721.199 1191.09 720.459 1191.32 719.658C1193.05 713.357 1192.26 667.641 1191.51 659.042C1191.38 657.537 1190.9 656.338 1190.12 655.051L1157.2 655.066C1157.6 654.412 1157.91 653.787 1158.18 653.062C1159.82 648.682 1159.09 511.123 1158.39 496.6C1158.3 494.677 1157.9 493.185 1157.04 491.459Z"/>
		<path fill="#83A5DC" transform="scale(0.879121 0.878906)" d="M1238.12 663.165L1318.57 662.836C1330.13 662.788 1343.64 661.248 1354.93 663.247C1357.07 667.399 1357.25 715.857 1355.67 720.037C1355.43 720.661 1355.11 721.205 1354.73 721.748C1339.52 721.762 1324.03 721.156 1308.85 721.963Q1273.36 721.689 1237.88 721.935C1238.31 721.247 1238.64 720.583 1238.93 719.821C1240.77 715.007 1240.24 667.388 1238.12 663.165Z"/>
		<path fill="#FFFEFE" transform="scale(0.879121 0.878906)" d="M1214.97 492.889C1249.76 491.641 1284.87 492.555 1319.7 492.579C1345.02 492.597 1371.21 491.253 1396.43 493.282C1396.76 493.784 1397.06 494.286 1397.31 494.832C1398.19 496.77 1398.95 647.221 1397.6 650.088C1397.09 651.176 1395.55 651.438 1394.46 651.885C1334.3 652.743 1273.99 652.474 1213.83 652.121C1216.12 647.065 1214.93 510.246 1214.97 492.889Z"/>
		<path fill="#FEF9F4" transform="scale(0.879121 0.878906)" d="M1233.11 594.221C1244.23 593.3 1255.6 593.679 1266.76 593.614C1267.24 594.602 1267.74 595.631 1267.92 596.727C1268.87 602.523 1269.08 627.008 1266.38 630.67C1259.43 633.815 1240.15 631.908 1231.95 631.799C1235.07 626.811 1233.86 601.22 1233.11 594.221Z"/>
		<path fill="#FEF9F4" transform="scale(0.879121 0.878906)" d="M1369.45 594.222C1372.14 594.091 1374.64 594.138 1377.32 594.397C1378.68 600.641 1378.81 625.306 1376.23 630.483C1367.41 630.948 1358.5 630.844 1349.67 630.994C1348.43 631.064 1346.97 631.233 1345.75 631.054C1339.01 630.074 1345.15 601.26 1341.1 594.437L1369.45 594.222Z"/>
		<path fill="#FEF9F4" transform="scale(0.879121 0.878906)" d="M1342.1 511.555C1353.47 510.832 1365.48 511.813 1376.9 512.038C1377.44 513.005 1377.9 514.021 1378.04 515.128C1378.78 521.299 1379.59 542.95 1376.57 547.113C1370.26 549.382 1349.09 547.825 1341.18 547.71C1344.12 542.784 1343.18 518.138 1342.1 511.555Z"/>
		<path fill="#FEF9F4" transform="scale(0.879121 0.878906)" d="M1239.11 511.555Q1252.98 511.324 1266.86 511.358C1269.11 516.75 1268.77 543.02 1266.75 548.127L1259.91 548.399L1231.97 548.416C1237.78 538.992 1228.38 520.921 1234.99 512.11L1239.11 511.555Z"/>
		<path fill="#FEF9F4" transform="scale(0.879121 0.878906)" d="M1287.78 594.222C1298.97 593.407 1310.57 594.122 1321.8 594.249C1322.04 594.688 1322.06 594.696 1322.28 595.222C1323.78 598.794 1322.98 625.636 1321.25 629.782L1320.97 630.325C1316.76 632.498 1293.25 630.922 1287.06 630.873C1291.03 621.797 1288.35 604.039 1287.78 594.222Z"/>
		<path fill="#FEF9F4" transform="scale(0.879121 0.878906)" d="M1295.45 511.555C1304.2 511.401 1312.98 511.529 1321.74 511.528C1324.45 516.286 1323.04 540.247 1322.36 546.67C1320.14 548.161 1316.73 547.663 1314.12 547.661Q1300.45 547.928 1286.77 547.715C1286.83 547.6 1286.9 547.489 1286.96 547.371C1287.06 547.177 1287.14 546.977 1287.23 546.781C1291.64 537.584 1285.91 523.929 1288.66 513.704C1290.89 511.336 1292.27 511.813 1295.45 511.555Z"/>
		<path fill="#F79D67" transform="scale(0.879121 0.878906)" d="M1293.67 722.734C1310.36 724.205 1327.77 723.241 1344.56 723.263L1438.53 723.169Q1558.82 722.414 1679.11 723.432C1686.13 723.461 1737.85 722.006 1740.79 725.364C1744.74 729.866 1744.01 748.563 1743.38 754.818C1743.1 757.539 1742.57 759.718 1741.14 762.085C1738.75 763.872 1734.67 763.645 1731.74 763.748C1708.29 764.568 1684.54 763.541 1661.05 763.509L1517.68 763.673C1508.64 763.699 1469.53 761.989 1463.47 765.104C1459.6 763.039 1447.7 764.404 1443.21 765.082L1442.95 764.361C1437.8 762.251 1164.28 763.536 1137.02 763.526C1140.37 757.955 1138.77 731.241 1138.21 723.619L1293.67 722.734Z"/>
		<path fill="#ACC0E1" transform="scale(0.879121 0.878906)" d="M1421.21 189.997C1477.7 189.246 1534.33 189.683 1590.83 189.999C1594.69 195.955 1592.31 271.188 1592.25 284.082C1592.22 290.582 1590.74 302.572 1592.99 308.446C1590.44 310.278 1435.8 309.24 1420.68 309.16L1422.24 307.457C1424.37 291.144 1422.68 271.721 1422.69 255.111C1422.7 235.121 1424.16 214.079 1422.6 194.192C1422.47 192.621 1422 191.359 1421.21 189.997Z"/>
		<path fill="#FFFEFE" transform="scale(0.879121 0.878906)" d="M1531.77 226.221C1535.36 225.845 1539.19 226.233 1542.15 228.488Q1542.43 228.698 1542.68 228.935Q1542.94 229.172 1543.17 229.434Q1543.39 229.696 1543.59 229.981Q1543.79 230.265 1543.96 230.569Q1544.13 230.872 1544.27 231.192Q1544.41 231.511 1544.51 231.843Q1544.62 232.175 1544.69 232.516Q1544.76 232.857 1544.79 233.203C1545.2 237.815 1541.96 242.733 1539.24 246.164C1532.17 255.11 1522.77 262.85 1514.74 270.952C1506.95 278.799 1498.95 288.813 1490.25 295.388C1488.98 296.341 1487.57 296.707 1486.02 296.898C1485.45 296.937 1484.93 296.959 1484.36 296.902C1481.63 296.628 1477.66 295.589 1475.91 293.271C1474.79 291.791 1474.48 289.88 1474.7 288.076C1475.15 284.44 1477.19 280.867 1479.4 278.014C1484.01 272.053 1490.3 266.882 1495.59 261.461C1506.94 249.819 1518.54 235.734 1531.77 226.221Z"/>
		<path fill="#ACC0E1" transform="scale(0.879121 0.878906)" d="M1420.31 326.338C1428.81 324.646 1586.2 324.22 1592.46 325.693L1592.98 326.251C1588.63 334.772 1596.55 390.39 1590.93 400.27Q1506.13 401.192 1421.32 400.592C1423.89 395.995 1423.21 335.763 1422.19 327.607L1420.31 326.338Z"/>
		<path fill="#ACC0E1" transform="scale(0.879121 0.878906)" d="M1422.34 403.11C1431.73 402.17 1441.67 402.744 1451.12 402.752L1502.76 402.754L1679.03 402.653C1679.42 403.294 1679.77 403.864 1679.98 404.596C1681.3 409.34 1680.91 501.945 1680.1 512.032C1679.99 513.462 1679.56 514.524 1678.8 515.736C1660.61 516.272 1642.26 515.772 1624.06 515.767L1514.54 515.56C1515.02 516.364 1515.37 517.09 1515.58 518.009C1517.44 526.497 1515.81 555.189 1515.81 565.379C1515.81 586.723 1517.4 614.448 1515.74 634.713C1515.62 636.215 1515.14 637.392 1514.34 638.667C1514.84 639.457 1515.27 640.284 1515.52 641.189C1517.13 647.001 1516.55 707.655 1515.73 716.969C1515.6 718.413 1515.17 719.528 1514.41 720.764L1421.23 720.87C1421.59 720.339 1421.93 719.786 1422.15 719.179C1423.41 715.713 1423.5 486.383 1422.68 464.87C1422.61 462.931 1422.23 461.389 1421.46 459.612C1434.19 459.601 1495.9 461.229 1504.24 458.856L1503.86 457.928C1496.99 455.408 1434.25 457.027 1421.4 457.02C1424.5 452.006 1423.33 410.926 1422.34 403.11Z"/>
		<path fill="#83A5DC" transform="scale(0.879121 0.878906)" d="M1545.05 518.666C1564.59 516.862 1585.25 518.14 1604.91 518.144L1714.7 518.337C1715.1 518.989 1715.42 519.618 1715.59 520.37C1717.39 528.193 1715.98 565.916 1716 576.903L1716.1 667.571C1716.12 683.9 1716.64 700.392 1715.99 716.699C1715.9 718.881 1715.65 720.349 1714.47 722.223C1706.77 724.402 1672.88 722.208 1662.04 722.086L1544.98 721.009C1545.16 720.718 1545.34 720.437 1545.5 720.138C1546.69 717.855 1547.09 525.577 1545.05 518.666Z"/>
		<path fill="#ACC0E1" transform="scale(0.879121 0.878906)" d="M1561.95 665.333C1580.75 663.554 1600.96 665.233 1619.93 665.41C1646.04 665.652 1672.39 664.924 1698.46 665.925C1701.63 670.652 1700.56 700.616 1699.77 707.491C1699.46 710.201 1698.87 710.956 1696.86 712.579C1684.23 714.466 1667.39 712.878 1654.42 712.861L1559.05 712.736C1564.86 703.155 1555.89 673.532 1561.95 665.333Z"/>
		<path fill="#FFFEFE" transform="scale(0.879121 0.878906)" d="M1583.87 689.333C1598.53 689.403 1676.36 687.359 1682.22 690.707C1678.69 693.422 1671.23 692.742 1666.93 692.631C1651.49 692.679 1579.34 694.667 1570.91 691.582L1571.24 690.64C1575.2 688.857 1579.63 689.28 1583.87 689.333Z"/>
		<path fill="#FFFEFE" transform="scale(0.879121 0.878906)" d="M1570.79 668.889C1595.81 668.314 1620.91 668.614 1645.94 668.541C1660.75 668.498 1676.36 667.357 1691.05 668.887L1691.76 669.959C1689.16 671.712 1687.24 671.627 1684.26 671.547L1606.05 671.532C1594.51 671.539 1581.87 672.808 1570.48 671.414L1569.72 670.244L1570.79 668.889Z"/>
		<path fill="#47273E" transform="scale(0.879121 0.878906)" d="M1608.95 553.333C1613.99 552.651 1645.36 551.479 1648.48 553.154C1651.61 558.855 1652.47 580.18 1650.49 586.315C1649.77 588.53 1648.9 588.49 1646.87 589.467C1638.42 589.469 1613.37 591.306 1607.39 587.261C1607.14 586.533 1606.91 585.767 1606.82 585.002C1606.12 579.314 1605.95 557.298 1608.95 553.333Z"/>
		<path fill="#F79D67" transform="scale(0.879121 0.878906)" d="M1607.62 555.385C1620.33 555.233 1634.68 553.808 1647.24 555.307C1650.89 560.696 1649.99 577.4 1648.95 583.978C1648.78 585.088 1648.27 586.039 1647.74 587.008C1647.66 587.149 1647.59 587.293 1647.51 587.436C1639.34 587.62 1615.95 589.785 1609.88 585.869C1608.62 584.192 1608.18 583.079 1607.96 580.994L1633.04 580.932C1633.47 580.264 1633.87 579.548 1634.09 578.778C1635.47 573.951 1635.3 561.303 1632.78 557.067C1626.67 556.705 1619.05 555.182 1613.63 558.605C1611.78 559.774 1611.32 563.306 1610.89 565.317C1612.15 569.488 1612.85 573.178 1611.36 577.389L1610.16 577.854C1606.23 570.961 1610.87 562.194 1607.62 555.385Z"/>
		<path fill="#F79D67" transform="scale(0.879121 0.878906)" d="M1614.45 566.315C1615.17 564.138 1615.24 562.325 1617.43 561.211C1621.16 559.312 1627.33 560.68 1631.5 560.31C1633.18 565.03 1634.07 573.138 1631.73 577.759C1631.47 578.261 1631.34 578.456 1631.07 578.904C1625.89 579.118 1618.16 580.344 1613.51 577.828C1618.61 576.337 1624.28 576.094 1629.56 575.657C1628.99 574.126 1628.38 572.56 1627.35 571.27C1624.02 567.102 1619.39 566.896 1614.45 566.315Z"/>
		<path fill="#FEF9F4" transform="scale(0.879121 0.878906)" d="M1566.94 612.889L1595.42 612.857C1597.31 616.209 1596.87 620.524 1596.91 624.265C1596.97 629.844 1598.43 643.097 1594.61 647.011C1584.94 647.761 1574.83 647.152 1565.11 647.149C1569.77 637.838 1563.56 623.003 1566.94 612.889Z"/>
		<path fill="#FEF9F4" transform="scale(0.879121 0.878906)" d="M1616.31 612.888C1625.86 612.473 1635.48 612.803 1645.04 612.913C1645.5 613.668 1645.95 614.498 1646.17 615.36C1647.65 621.192 1647.77 641.935 1644.68 646.667C1637.5 648.761 1623.16 647.133 1615.29 647.079C1618.39 641.889 1616.48 619.717 1616.31 612.888Z"/>
		<path fill="#FEF9F4" transform="scale(0.879121 0.878906)" d="M1665.4 612.889C1674.62 612.329 1683.97 612.665 1693.21 612.689C1693.28 612.825 1693.34 612.963 1693.42 613.098C1696.44 618.789 1694.93 631.79 1694.77 638.342C1694.68 642.051 1695.07 644.416 1692.3 647.055C1682.77 647.324 1673.16 647.059 1663.63 647.045C1666.94 641.302 1664.52 620.842 1665.4 612.889Z"/>
		<path fill="#FEF9F4" transform="scale(0.879121 0.878906)" d="M1565.85 555.111Q1580.73 554.756 1595.61 555.143C1596.15 556.112 1596.63 557.149 1596.77 558.256C1597.29 562.281 1597.98 581.564 1596.52 584.773C1596.19 585.499 1595.17 586.458 1594.65 587.111C1585.1 588.208 1574.71 587.384 1565.06 587.381C1567.85 582.54 1566.39 561.316 1565.85 555.111Z"/>
		<path fill="#FEF9F4" transform="scale(0.879121 0.878906)" d="M1663.48 555.999C1672.48 554.025 1683.9 555.343 1693.16 555.431C1693.96 556.6 1694.3 557.678 1694.43 559.081C1694.89 564.46 1696.26 582.431 1693.1 586.29C1690.38 588.322 1667.98 587.145 1663.21 587.12C1663.48 586.679 1663.5 586.663 1663.76 586.132C1665.85 581.72 1665.02 560.679 1663.48 555.999Z"/>
		<path fill="#FEF9F4" transform="scale(0.879121 0.878906)" d="M1421.2 142.878L1526.22 142.979C1545.77 142.98 1565.76 141.855 1585.25 143.097C1592.34 142.881 1607.97 140.703 1613.85 144.04C1614.04 145.653 1613.9 145.91 1613.21 147.404C1613.72 148.309 1614.08 149.199 1614.32 150.212C1615.77 156.212 1615.31 183.203 1612.37 187.795L1421.46 187.638C1421.89 186.938 1422.27 186.202 1422.48 185.404C1423.92 179.984 1423.59 146.988 1421.2 142.878Z"/>
		<path fill="#FFFEFE" transform="scale(0.879121 0.878906)" d="M1585.25 143.097C1592.34 142.881 1607.97 140.703 1613.85 144.04C1614.04 145.653 1613.9 145.91 1613.21 147.404C1614.16 152.904 1614.84 166.11 1611.85 170.832C1609.34 161.453 1591.1 151.944 1585.25 143.097Z"/>
		<path fill="#83A5DC" transform="scale(0.879121 0.878906)" d="M1517.63 518.666C1525.58 517.542 1534.18 518.157 1542.22 518.172C1542.85 519.199 1543.32 520.06 1543.51 521.27C1544.72 528.614 1543.99 537.358 1544.07 544.842Q1544.35 570.745 1544.35 596.649L1544.4 673.365C1544.42 687.475 1545.08 701.945 1544.3 716.025C1544.19 717.886 1543.98 718.942 1542.83 720.446C1535.36 722.319 1524.7 720.922 1516.89 720.853C1517.88 719.218 1517.93 717.768 1517.99 715.915C1519.14 678.456 1517.82 640.575 1517.78 603.074C1517.75 575.23 1519.37 546.41 1517.63 518.666Z"/>
		<path fill="#FEB997" transform="scale(0.879121 0.878906)" d="M1047.24 723.999L1135.07 723.827C1137.81 728.274 1137.18 757.164 1136.08 763.097L1131.06 763.673L1042.44 763.626C1047.92 754.813 1040.02 733.715 1044.91 724.575L1047.24 723.999Z"/>
		<path fill="#FEF9F4" transform="scale(0.879121 0.878906)" d="M1377.15 143.554C1390.19 141.394 1405.84 142.937 1419.16 142.987C1419.23 143.12 1419.29 143.254 1419.36 143.386C1419.75 144.101 1420.15 144.845 1420.33 145.642C1421.18 149.267 1421.68 181.656 1420.57 184.815C1420.32 185.533 1419.56 186.442 1419.14 187.112C1410.76 189.229 1386.23 187.657 1376.4 187.626C1379.32 182.804 1378.38 149.901 1377.15 143.554Z"/>
		<path fill="#ACC0E1" transform="scale(0.879121 0.878906)" d="M1443.21 765.082C1447.7 764.404 1459.6 763.039 1463.47 765.104C1520.57 766.478 1577.9 765.338 1635.03 765.317C1657.9 765.309 1681.55 763.993 1704.33 765.521C1704.74 766.11 1705.56 766.994 1705.8 767.633C1706.89 770.558 1706.73 938.07 1705.54 944.72C1705.37 945.711 1704.97 946.762 1704.11 947.347C1702.13 948.699 1700.23 948.836 1697.93 948.897C1662.41 949.829 1626.69 949.05 1591.15 949.038Q1485.83 949.582 1380.52 948.872Q1321.02 949.171 1261.53 948.504C1244.08 948.345 1225.49 949.907 1208.28 947.152L1208.01 946.816C1205.86 944.16 1203.28 941.941 1201.22 939.196C1199.12 936.39 1197.25 932.108 1194.82 929.75C1196.98 924.237 1196.15 786.487 1195.36 769.96C1195.28 768.401 1194.86 767.035 1194.25 765.603L1360.13 765.343C1387.66 765.34 1415.74 766.502 1443.21 765.082Z"/>
		<path fill="#FEB997" transform="scale(0.879121 0.878906)" d="M966.843 281.777L1010.65 281.851C1010.84 307.801 1011.77 333.991 1011.04 359.92C1022.42 354.267 1034.22 351.781 1046.65 355.879C1056.94 359.271 1064.96 367.018 1069.75 376.63C1074.49 386.144 1075.28 396.893 1071.73 406.934C1068.31 416.651 1061.29 425.179 1051.92 429.634C1039 435.779 1024.59 434.372 1011.55 429.548Q1010.96 429.331 1010.38 429.097L1010.44 494.009C992.74 494.045 973.473 492.802 955.987 494.97C940.655 494.475 925.138 495.053 909.786 495.031C891.537 495.004 873.284 494.433 855.028 494.342C853.992 485.24 854.736 475.326 854.792 466.153L854.846 416.913L855.002 334.197C855.022 316.837 854.501 299.26 855.518 281.937C868.186 281.212 881.235 281.867 893.942 281.871L966.843 281.777Z"/>
		<path fill="#FEF9F4" transform="scale(0.879121 0.878906)" d="M881.036 318.39C890.974 317.864 901.296 317.984 911.233 318.478C917.714 325.131 923.495 332.524 929.685 339.453C935.441 345.895 941.676 351.917 947.09 358.661C952.176 364.996 956.545 371.906 961.743 378.151C975.002 394.083 989.32 409.121 1002.5 425.139C1002.51 432.801 1003.45 441.521 1002.1 449.016C1001.45 452.62 1000.34 454.277 997.359 456.306C976.208 457.335 954.614 456.407 933.4 456.437C916.924 456.461 899.506 457.672 883.12 456.253C881.404 456.105 880.525 455.958 879.191 454.813C877.977 452.854 877.8 451.184 877.745 448.957C877.108 423.23 877.838 397.333 877.801 371.583C877.779 356.196 876.312 339.282 878.045 324.05C878.372 321.175 879.076 320.464 881.036 318.39Z"/>
		<path fill="#47273E" transform="scale(0.879121 0.878906)" d="M1025.01 365.616C1032.64 364.956 1039.22 364.804 1046.31 368.297Q1046.95 368.607 1047.57 368.949Q1048.19 369.291 1048.8 369.662Q1049.4 370.034 1049.99 370.435Q1050.57 370.836 1051.14 371.266Q1051.7 371.695 1052.24 372.152Q1052.79 372.609 1053.31 373.092Q1053.83 373.575 1054.32 374.083Q1054.82 374.591 1055.29 375.123Q1055.76 375.655 1056.2 376.209Q1056.64 376.763 1057.06 377.339Q1057.47 377.915 1057.86 378.51Q1058.24 379.105 1058.6 379.719Q1058.96 380.332 1059.28 380.963Q1059.61 381.593 1059.9 382.239Q1060.2 382.885 1060.46 383.544Q1060.72 384.203 1060.95 384.875C1063.37 392.04 1063 400.275 1059.47 407.017C1056.4 412.892 1050.57 417.967 1044.27 419.999C1043 420.862 1041.76 421.405 1040.28 421.794C1029.51 424.633 1020.34 421.062 1011.13 415.664L1011.29 373.103C1015.54 369.963 1020.25 367.857 1025.01 365.616Z"/>
		<path fill="#FEB997" transform="scale(0.879121 0.878906)" d="M1704.33 765.521C1715.54 765.502 1726.86 765.159 1738.06 765.499C1734.97 767.076 1729.6 766.308 1726.13 766.267C1726.85 767.843 1727.2 769.21 1727.24 770.933C1727.7 787.646 1727.41 964.504 1725.9 968.73C1725.53 969.766 1724.95 970.731 1724.36 971.65L1724.01 970.806C1722.1 969.646 1719.97 969.892 1717.81 969.862C1652.61 968.932 1587.26 970.086 1522.04 970.053L1126.59 969.832C1129.34 964.256 1128.46 910.577 1127.85 901.098Q1129.95 900.765 1132 900.237C1135.69 899.29 1138.87 897.511 1140.71 894.006C1143.64 888.41 1144.02 844.5 1141.7 838.007C1139.99 833.205 1136.03 830.751 1131.66 828.679C1120.36 827.603 1108.68 828.154 1097.32 828.16L1037.24 828.328C966.344 828.571 895.084 829.838 824.211 828.265C836.264 825.759 870.371 827.646 884.932 827.626L1038.98 827.464C1039.54 826.823 1040.09 826.162 1040.51 825.426C1043.42 820.417 1043.09 807.68 1041.63 802.068C1043.55 800.655 1043.69 800.718 1044.06 798.267C1045.07 791.588 1045.5 772.007 1042.53 766.15L1192.14 765.78C1195.56 772.808 1193.59 796.735 1193.55 805.653C1193.5 819.703 1191.39 924.683 1194.82 929.75C1197.25 932.108 1199.12 936.39 1201.22 939.196C1203.28 941.941 1205.86 944.16 1208.01 946.816L1208.28 947.152C1225.49 949.907 1244.08 948.345 1261.53 948.504Q1321.02 949.171 1380.52 948.872Q1485.83 949.581 1591.15 949.038C1626.69 949.05 1662.41 949.829 1697.93 948.897C1700.23 948.836 1702.13 948.699 1704.11 947.347C1704.97 946.762 1705.37 945.711 1705.54 944.72C1706.73 938.07 1706.89 770.558 1705.8 767.633C1705.56 766.994 1704.74 766.11 1704.33 765.521Z"/>
		<path fill="#83A5DC" transform="scale(0.879121 0.878906)" d="M922.055 205.438C933.413 205.599 990.34 203.988 996.068 206.164C998.373 210.917 999.125 241.25 997.38 246.181C997.284 246.451 997.174 246.715 997.072 246.982L996.486 244.715L995.03 246.837C989.667 249.47 887.349 248.152 871.68 248.186C871.329 239.788 873.596 217.765 870.275 211.351C870.062 209.181 870.016 208.889 871.051 206.993C877.377 203.47 912.235 205.519 922.055 205.438Z"/>
		<path fill="#FEB997" transform="scale(0.879121 0.878906)" d="M173.327 261.459C176.399 247.617 182.933 236.071 195.135 228.264Q196.37 227.483 197.647 226.774Q198.924 226.064 200.239 225.428Q201.554 224.791 202.903 224.23Q204.252 223.669 205.631 223.186Q207.009 222.702 208.413 222.297Q209.817 221.892 211.241 221.566Q212.665 221.241 214.106 220.997Q215.546 220.753 216.998 220.591C238.832 218.038 262.223 220.145 284.243 220.084L362.924 219.705C376.32 219.77 391.947 218.626 405.008 221.712C418.008 224.783 428.352 232.52 435.251 243.927C438.763 249.735 441.38 256.282 441.952 263.086C443.158 277.449 442.228 292.223 442.095 306.641L441.828 376.668L441.809 485.093C441.813 501.214 443.867 530.476 440.103 545.2Q439.782 546.456 439.399 547.694Q439.016 548.932 438.572 550.149Q438.127 551.366 437.623 552.559Q437.118 553.753 436.554 554.919Q435.99 556.086 435.368 557.223Q434.747 558.36 434.069 559.464Q433.391 560.569 432.659 561.638Q431.927 562.707 431.143 563.738Q430.358 564.769 429.523 565.76Q428.687 566.751 427.804 567.698Q426.92 568.646 425.99 569.548Q425.06 570.45 424.086 571.304Q423.112 572.159 422.096 572.963Q421.08 573.768 420.026 574.521Q418.971 575.273 417.88 575.972Q416.79 576.672 415.665 577.315Q413.164 578.772 410.536 579.986Q407.909 581.2 405.179 582.161Q402.448 583.123 399.64 583.822Q396.831 584.521 393.969 584.952C381.167 586.945 367.197 585.877 354.24 585.81L291.323 585.723C270.825 585.416 236.464 588.164 217.797 584.406C200.09 580.841 188.242 569.918 178.663 555.345C176.436 550.586 173.884 545.423 173.374 540.124C172.246 528.397 172.943 516.037 172.966 504.232L173.092 437.451L173.136 328.655C173.109 306.327 172.394 283.762 173.327 261.459Z"/>
		<path fill="#FEB997" transform="scale(0.879121 0.878906)" d="M447.785 830.034L886.67 830.127L1057.09 830.091C1081.37 830.194 1106.14 829.109 1130.37 830.348C1134.04 832.116 1137.79 834.127 1139.32 838.185C1142.05 845.462 1141.75 886.286 1138.82 893.443C1135.18 897.569 1129.21 898.565 1123.96 898.85C1096.03 900.365 1067.26 898.9 1039.23 899.1L801.889 899.034L108.839 899.409C104.027 899.395 98.1909 899.189 94.5573 895.515C87.257 888.133 88.8276 856.269 89.5172 846.08C89.7883 842.075 90.3151 837.693 93.5575 834.895C95.2036 833.474 97.1365 832.341 98.9514 831.15C107.933 828.177 185.14 830.07 199.303 830.067L447.785 830.034Z"/>
		<path fill="#47273E" transform="scale(0.879121 0.878906)" d="M371.526 851.694C373.928 851.491 376.626 851.379 379.001 851.905C382.689 852.723 386.238 855.54 388.108 858.782Q388.418 859.32 388.674 859.886Q388.93 860.452 389.128 861.04Q389.327 861.629 389.467 862.234Q389.607 862.839 389.687 863.455Q389.767 864.071 389.786 864.691Q389.805 865.312 389.763 865.932Q389.721 866.552 389.618 867.164Q389.515 867.776 389.353 868.376C387.943 873.494 384.657 876.131 380.243 878.691C377.868 879.004 375.577 879.193 373.2 878.78C369.507 878.138 365.914 875.978 363.846 872.821C361.802 869.703 361.363 865.949 362.227 862.37C363.499 857.102 367.124 854.397 371.526 851.694Z"/>
		<path fill="#47273E" transform="scale(0.879121 0.878906)" d="M266.743 851.629C268.916 851.482 271.015 851.494 273.143 852.017C276.804 852.916 280.372 855.414 282.282 858.688C284.145 861.881 284.464 865.71 283.362 869.219C281.76 874.321 278.054 876.727 273.604 879.156C271.314 879.216 268.992 879.306 266.763 878.686C262.709 877.558 258.96 874.661 257.137 870.831C255.661 867.731 255.563 864.172 256.699 860.95C258.452 855.982 262.25 853.8 266.743 851.629Z"/>
		<path fill="#47273E" transform="scale(0.879121 0.878906)" d="M160.854 851.662C163.512 851.466 166.185 851.31 168.792 852.003C172.4 852.961 175.871 855.825 177.635 859.087Q177.936 859.645 178.18 860.229Q178.423 860.814 178.608 861.42Q178.793 862.026 178.917 862.647Q179.041 863.269 179.103 863.899Q179.165 864.53 179.164 865.163Q179.163 865.797 179.1 866.427Q179.036 867.057 178.911 867.679Q178.785 868.3 178.599 868.905C177.059 874.025 173.741 876.404 169.246 878.894C166.964 879.202 164.657 879.255 162.387 878.823C158.764 878.134 155.205 875.783 153.274 872.631C151.392 869.558 151.005 865.737 151.862 862.276C153.159 857.046 156.417 854.339 160.854 851.662Z"/>
		<path fill="#47273E" transform="scale(0.879121 0.878906)" d="M476.399 852.595C479.13 852.272 482.073 851.992 484.789 852.588C488.458 853.394 492.159 856.177 493.988 859.445Q494.284 859.979 494.526 860.54Q494.768 861.101 494.952 861.684Q495.137 862.266 495.263 862.864Q495.389 863.462 495.456 864.069Q495.522 864.677 495.527 865.287Q495.533 865.898 495.478 866.507Q495.423 867.115 495.307 867.715Q495.192 868.315 495.018 868.901C493.559 873.966 490.226 876.439 485.847 878.972C483.758 879.199 481.712 879.299 479.62 879.024C475.754 878.517 471.533 875.944 469.315 872.746Q468.963 872.229 468.664 871.68Q468.366 871.13 468.124 870.554Q467.881 869.978 467.698 869.38Q467.515 868.782 467.393 868.169Q467.27 867.555 467.21 866.933Q467.15 866.311 467.152 865.685Q467.154 865.06 467.219 864.438Q467.284 863.816 467.411 863.204C468.524 857.911 472.02 855.294 476.399 852.595Z"/>
		<path fill="#47273E" transform="scale(0.879121 0.878906)" d="M592.766 852.516C595.222 852.268 597.752 851.996 600.199 852.462C604 853.186 607.622 855.692 609.64 858.989C611.45 861.946 611.836 865.366 611 868.71C609.725 873.808 606.015 876.454 601.789 879.094C599.302 879.558 597.179 879.838 594.65 879.294C590.916 878.491 587.409 876.134 585.439 872.854C583.514 869.649 583.095 865.791 584 862.194C585.258 857.189 588.513 854.95 592.766 852.516Z"/>
		<path fill="#47273E" transform="scale(0.879121 0.878906)" d="M1055.18 852.872C1059.2 852.279 1062.92 852.442 1066.42 854.638C1069.66 856.668 1072.14 860.02 1072.99 863.764C1073.76 867.204 1073.17 870.833 1071.16 873.753C1068.67 877.348 1065.41 878.715 1061.28 879.556C1059.74 879.998 1058.01 879.833 1056.45 879.502C1052.96 878.765 1050.25 877.447 1048.3 874.317C1046.09 870.782 1045.64 865.745 1046.71 861.761C1047.99 856.963 1051.14 855.151 1055.18 852.872Z"/>
		<path fill="#47273E" transform="scale(0.879121 0.878906)" d="M732.273 852.559C734.698 852.239 737.429 851.991 739.864 852.396C743.174 852.947 746.443 855.298 748.376 858.011Q748.757 858.548 749.082 859.122Q749.406 859.695 749.669 860.299Q749.933 860.903 750.133 861.531Q750.334 862.158 750.468 862.803Q750.603 863.448 750.671 864.104Q750.739 864.759 750.739 865.418Q750.739 866.077 750.672 866.732Q750.604 867.388 750.47 868.033C749.392 873.337 746.458 876.128 742.154 879.083C739.755 879.415 737.398 879.632 734.992 879.162C731.184 878.417 727.418 875.818 725.36 872.534Q725.006 871.963 724.711 871.36Q724.417 870.756 724.185 870.125Q723.953 869.495 723.787 868.844Q723.62 868.193 723.521 867.529Q723.421 866.865 723.389 866.194Q723.358 865.523 723.394 864.852Q723.431 864.182 723.535 863.518Q723.64 862.854 723.811 862.205C725.052 857.345 728.208 855.035 732.273 852.559Z"/>
		<path fill="#47273E" transform="scale(0.879121 0.878906)" d="M841.603 852.573C844 852.366 846.759 852.215 849.131 852.748C852.516 853.509 855.772 856.05 857.649 858.921C859.585 861.884 860.159 865.365 859.37 868.822C858.197 873.968 854.801 876.497 850.52 879.09C848.226 879.408 845.631 879.553 843.336 879.132C839.967 878.514 836.548 876.1 834.654 873.277C832.548 870.137 832.035 866.28 832.952 862.649C834.21 857.677 837.402 855.135 841.603 852.573Z"/>
		<path fill="#47273E" transform="scale(0.879121 0.878906)" d="M948.261 852.537C950.548 852.313 952.932 852.094 955.212 852.472C958.944 853.091 962.625 855.76 964.561 858.981Q964.884 859.531 965.15 860.11Q965.417 860.689 965.624 861.291Q965.832 861.894 965.978 862.515Q966.124 863.135 966.208 863.767Q966.292 864.399 966.312 865.036Q966.332 865.673 966.289 866.309Q966.245 866.945 966.139 867.574Q966.032 868.202 965.863 868.817C964.442 873.996 961.161 876.355 956.721 878.897C954.567 879.166 952.165 879.283 950.013 878.892C946.439 878.241 942.929 875.89 940.997 872.82C939.089 869.787 938.699 866.091 939.569 862.654C940.833 857.661 944.05 855.12 948.261 852.537Z"/>
		<path fill="#ACC0E1" transform="scale(0.879121 0.878906)" d="M131.445 901.376L677.169 901.109L934.569 900.994C989.591 900.936 1044.77 900.003 1099.77 901.065C1100.44 902.112 1100.99 903.241 1101.23 904.471C1102.37 910.424 1102.58 943.324 1099.92 947.4C1102.07 951.862 1102.26 962.98 1100.8 967.624C1100.56 968.391 1100.16 969.092 1099.71 969.753L250.553 969.694L131.292 969.464C131.088 946.773 131.353 924.068 131.445 901.376Z"/>
		<path fill="#FEB997" transform="scale(0.879121 0.878906)" d="M172.594 547.155L177.555 556.666C186.478 571.12 197.752 581.809 214.803 585.697C230.347 589.242 248.63 587.437 264.577 587.384L264.588 671.39C264.542 684.926 263.04 700.425 264.833 713.783C265.204 716.547 266.086 719.117 268.187 721.068Q268.552 721.403 268.951 721.697Q269.349 721.991 269.777 722.242Q270.205 722.492 270.657 722.695Q271.109 722.898 271.58 723.052Q272.051 723.206 272.535 723.309Q273.02 723.412 273.513 723.463Q274.006 723.514 274.501 723.512Q274.997 723.51 275.489 723.455C278.223 723.153 281.145 721.629 282.744 719.357C284.186 717.309 284.578 714.031 284.764 711.578C285.727 698.891 284.775 685.38 284.802 672.6L284.924 587.032C300.444 588.663 316.924 587.552 332.559 587.502L332.607 674.591C332.595 686.016 330.998 699.5 332.566 710.702C333.104 714.547 334.442 718.49 337.292 721.249C339.143 723.041 341.616 724.206 344.228 723.973C346.913 723.734 349.245 722.18 350.784 720.002C352.642 717.373 353.223 714.018 353.494 710.877C354.489 699.317 353.397 686.876 353.448 675.228L353.513 587.332C378.594 587.478 406.765 590.887 426.338 571.66C433.36 564.763 437.625 556.759 441.878 548.036L441.843 828.436L172.983 828.385L172.668 807.119Q172.287 720.34 172.977 633.562C173.023 604.805 173.61 575.892 172.594 547.155Z"/>
		<path fill="#FEB997" transform="scale(0.879121 0.878906)" d="M462.548 363.456L835.019 363.415L853.447 363.316L853.277 457.765C843.616 457.755 833.819 458.1 824.176 457.66C811.572 458.707 798.185 457.877 785.513 457.874L709.646 457.844C639.172 457.815 568.595 458.719 498.134 457.654C479.962 458.373 461.604 457.797 443.412 457.742L443.463 363.489L462.548 363.456Z"/>
		<path fill="#F79D67" transform="scale(0.879121 0.878906)" d="M443.463 363.489L462.548 363.456C462.502 394.585 462.088 425.768 462.729 456.889C473.745 456.853 487.409 455.35 498.134 457.654C479.962 458.373 461.604 457.797 443.412 457.742L443.463 363.489Z"/>
		<path fill="#F79D67" transform="scale(0.879121 0.878906)" d="M835.019 363.415L853.447 363.316L853.277 457.765C843.616 457.755 833.819 458.1 824.176 457.66C827.399 456.778 830.702 456.774 834.002 455.758C835.166 443.824 834.523 431.394 834.556 419.382L835.019 363.415Z"/>
		<path fill="#ACC0E1" transform="scale(0.879121 0.878906)" d="M550.721 770.335C551.788 768.331 552.7 766.365 554.347 764.765L555.477 765.24L556.105 764.071C567.361 761.831 579.627 762.666 591.066 762.656L641.584 762.652L732.736 762.718C749.019 762.734 765.482 762.3 781.744 762.918C785.631 763.066 793.859 762.882 796.819 765.23C800.829 768.409 800.976 777.277 801.035 781.864C801.187 793.845 800.67 805.838 800.755 817.818L800.822 828.524L550.49 828.446C549.811 811.133 548.418 787.38 550.721 770.335Z"/>
		<path fill="#83A5DC" transform="scale(0.879121 0.878906)" d="M550.49 828.446C549.811 811.133 548.418 787.38 550.721 770.335C551.735 785.99 551.095 801.972 551.066 817.668L800.755 817.818L800.822 828.524L550.49 828.446Z"/>
		<path fill="#FED79C" transform="scale(0.879121 0.878906)" d="M525.239 459.542L775.937 459.497C775.848 463.92 775.855 468.206 776.318 472.617L775.864 473.371C767.735 472.121 758.667 472.774 750.431 472.803L706.052 472.918L526.224 472.985C526.239 493.721 527.757 675.952 525.391 678.879C523.588 662.569 525.458 634.048 525.454 616.615L525.073 478.327L525.239 459.542Z"/>
		<path fill="#ACC0E1" transform="scale(0.879121 0.878906)" d="M888.278 509.457Q933.802 509.271 979.322 509.926L979.25 546.677L888.421 546.704L888.278 509.457Z"/>
		<path fill="#83A5DC" transform="scale(0.879121 0.878906)" d="M901.705 548.343C923.525 548.63 945.367 548.411 967.19 548.389L967.151 567.391C945.393 567.629 923.577 567.163 901.804 567.292C901.691 560.98 901.733 554.657 901.705 548.343Z"/>
		<path fill="#47273E" transform="scale(0.879121 0.878906)" d="M1750.64 970.222C1750.83 970.203 1751.03 970.181 1751.22 970.165C1757.37 969.693 1778.22 968.117 1782.1 972.094C1783.06 973.074 1782.75 973.751 1782.75 975.032C1781.09 977.172 1780.05 977.304 1777.56 978.152C1770.57 979.104 1762.37 979.369 1755.35 978.645C1752.25 978.325 1750.62 977.838 1748.65 975.418C1748.82 972.887 1749.21 972.363 1750.64 970.222Z"/>
		<path fill="#47273E" transform="scale(0.879121 0.878906)" d="M40.0383 969.753C45.2127 969.757 50.5635 969.328 55.704 969.554C58.196 969.663 60.4735 970.119 62.1995 972.059C62.7145 974.714 62.4267 975.19 61.4011 977.737C56.6467 977.822 51.9037 978.06 47.1539 978.17C44.2119 978.238 41.5546 978.009 39.3248 975.898C38.6239 973.172 39.1314 972.325 40.0383 969.753Z"/>
	</g>
	<g>
		<path fill="#FFFEFE" transform="scale(0.879121 0.878906)" d="M0 0L1818.44 0C1820.58 3.35778 1819.99 8.22266 1820 12.0828L1820 742.336L1820.01 943.951L1820 997.417C1819.99 1004.76 1820.98 1013.76 1819.75 1020.9C1819.56 1022.02 1819.05 1023.05 1818.44 1024L0 1024L0 0ZM1075.29 400.663C1077.76 395.982 1076.59 387.656 1075.14 382.776C1071.9 371.903 1063.27 361.727 1053.21 356.57C1042.27 350.962 1029.68 350.672 1018.17 354.575Q1015.49 355.47 1012.9 356.62C1012.9 341.676 1014.83 292.32 1011.25 281.414C1007.3 278.177 973.644 280.021 966.321 280.111C967.131 269.905 966.449 259.107 966.423 248.841C974.702 248.893 983.09 249.238 991.356 248.94C993.995 248.846 995.232 248.921 997.072 246.982C997.174 246.715 997.284 246.451 997.38 246.181C999.125 241.25 998.373 210.917 996.068 206.164C990.34 203.988 933.413 205.599 922.055 205.438C912.235 205.519 877.377 203.47 871.051 206.993C870.016 208.889 870.062 209.181 870.275 211.351C870.209 222.673 870.922 234.729 869.843 245.95C871.506 247.955 872.127 248.894 874.857 249.227C882.56 250.169 890.598 248.949 898.349 249.061L898.352 280.633Q875.955 280.37 853.563 280.92L853.302 361.806L723.264 361.842L723.33 295.542C723.331 284.389 724.212 272.344 722.846 261.293C722.553 258.923 722.222 256.609 720.541 254.859C718.617 252.855 716.979 252.041 714.247 251.764C704.382 250.761 694.026 251.441 684.089 251.461L627.599 251.572L441.271 251.382C434.22 237.484 424.967 225.598 409.553 220.408C404.98 218.869 399.63 218.505 394.809 218.273C363.904 216.785 332.339 218.097 301.351 218.105C275.03 218.111 247.823 216.629 221.586 218.354C215.039 218.784 206.454 219.753 200.593 222.719C187.322 229.434 178.116 239.651 173.509 253.898C172.652 256.551 172.088 259.285 171.575 262.023C166.747 264.824 148.36 263.225 141.721 263.077C132.474 263.178 121.325 262.246 114.259 269.429C110.707 273.039 108.509 278.044 107.54 282.966C105.777 291.927 106.819 302.574 106.868 311.708L106.878 356.806Q107.454 431.233 106.889 505.66C106.885 521.615 104.691 548.423 107.401 563.201C108.542 569.419 111.898 574.771 116.417 579.108C129.299 591.472 154.489 586.552 171.1 586.941L170.814 799.175L170.85 805.604L170.807 828.249C157.85 828.285 107.011 826.664 99.2143 829.121C94.9742 830.933 91.737 833.022 89.8766 837.428C85.8692 846.918 85.5085 882.185 89.4008 891.836C91.2134 896.331 95.1608 898.955 99.5071 900.656Q101.214 901.32 102.97 901.842L103.052 969.371C97.6449 969.241 92.3814 968.329 88.108 972.344C87.5664 974.351 87.5256 974.21 88.5294 976.025C94.0629 980.196 113.461 977.996 121.158 977.963L1258.92 978.458L1584.25 978.492L1678.09 978.501C1691.85 978.499 1707.35 980.022 1720.85 978.152C1722.8 977.881 1723.43 977.605 1724.99 976.415C1725.39 974.205 1725.18 973.771 1724.36 971.65C1724.95 970.731 1725.53 969.766 1725.9 968.73C1727.41 964.504 1727.7 787.646 1727.24 770.933C1727.2 769.21 1726.85 767.843 1726.13 766.267C1729.6 766.308 1734.97 767.076 1738.06 765.499C1740.52 765.199 1743 764.246 1744.6 762.247C1747.55 758.583 1746.74 734.573 1745.81 729.313C1743.31 715.294 1726.83 726.327 1717.46 719.919C1718.84 716.154 1718.86 539.749 1717.93 520.617C1717.85 519 1717.42 517.586 1716.81 516.097C1705.65 514.381 1692.56 515.746 1681.23 515.818C1681.73 515.063 1682.16 514.266 1682.39 513.383C1683.55 509.003 1683.23 414.725 1682.42 404.425C1682.3 402.855 1681.82 401.6 1681.01 400.247C1651.83 399.111 1622.16 400.266 1592.92 400.3C1593.26 399.797 1593.58 399.261 1593.79 398.691C1595.51 393.914 1594.97 330.291 1592.98 326.251L1592.46 325.693C1586.2 324.22 1428.81 324.646 1420.31 326.338C1421.83 333.169 1421.67 396.238 1419.26 400.353L1376.48 400.29C1376.87 399.664 1376.91 399.66 1377.18 398.837C1378.51 394.801 1378.02 194.74 1377.44 192.339C1377.24 191.503 1376.81 190.699 1376.36 189.966Q1397.9 189.735 1419.45 189.953C1422.9 196.65 1420.54 293.126 1420.68 309.16C1435.8 309.24 1590.44 310.278 1592.99 308.446C1593.41 307.642 1593.77 306.807 1593.97 305.921C1595.87 297.544 1594.34 274.677 1594.34 265.084C1594.35 243.387 1595.8 215.238 1594.13 194.2C1594 192.633 1593.52 191.377 1592.73 190.024C1600.17 190.05 1607.67 190.245 1615.09 189.656C1615.44 189.133 1615.37 189.269 1615.69 188.575C1617.84 183.813 1617.24 148.035 1615.43 142.964L1615.22 141.614C1612.52 139.389 1581.24 140.528 1575.5 140.382C1552.45 141.331 1529.16 140.576 1506.08 140.554L1374.17 140.709C1375.1 142.464 1375.4 143.877 1375.49 145.846C1376.2 160.725 1375.65 175.911 1375.67 190.819L1375.73 278.315C1375.73 291.363 1377.08 392.723 1374.99 398.639C1374.77 399.271 1374.47 399.779 1374.12 400.349L1075.29 400.663ZM1777.56 978.152C1780.05 977.304 1781.09 977.172 1782.75 975.032C1782.75 973.751 1783.06 973.074 1782.1 972.094C1778.22 968.117 1757.37 969.693 1751.22 970.165C1751.03 970.181 1750.83 970.203 1750.64 970.222C1749.21 972.363 1748.82 972.887 1748.65 975.418C1750.62 977.838 1752.25 978.325 1755.35 978.645C1762.37 979.369 1770.57 979.104 1777.56 978.152ZM61.4011 977.737C62.4267 975.19 62.7145 974.714 62.1995 972.059C60.4735 970.119 58.196 969.663 55.704 969.554C50.5635 969.328 45.2127 969.757 40.0383 969.753C39.1314 972.325 38.6239 973.172 39.3248 975.898C41.5546 978.009 44.2119 978.238 47.1539 978.17C51.9037 978.06 56.6467 977.822 61.4011 977.737Z"/>
		<path fill="#FEF9F4" transform="scale(0.879121 0.878906)" d="M1012.66 431.86C1022.21 435.3 1030.79 436.785 1040.98 435.342C1042.21 437.576 1042.12 439.489 1042.16 441.971C1043.23 508.868 1041.79 576.044 1041.75 642.975L1041.71 747.981C1041.71 765.953 1042.24 784.119 1041.63 802.068C1043.09 807.68 1043.42 820.417 1040.51 825.426C1040.09 826.162 1039.54 826.823 1038.98 827.464L884.932 827.626C870.371 827.646 836.264 825.759 824.211 828.265L802.611 828.388C802.685 816.523 805.714 771.852 798.607 764.428C793.861 759.471 783.7 760.838 777.527 760.993L777.495 477.714L777.524 459.511L853.506 459.488C853.524 471.314 852.785 483.674 853.63 495.436C863.912 496.974 875.753 495.924 886.19 495.937L886.264 548.462L900.124 548.362L900.118 568.489Q910.668 568.759 921.221 568.745L921.092 626.431C921.09 635.933 920.357 646.448 921.612 655.855L920.914 658.027C915.839 660.62 873.318 658.846 864.553 658.769C879.731 666.766 904.069 681.659 919.559 686.467Q920.906 686.893 922.278 687.229Q923.65 687.566 925.041 687.811Q926.433 688.056 927.837 688.208Q929.242 688.361 930.653 688.421Q932.064 688.48 933.477 688.446Q934.889 688.412 936.296 688.286Q937.703 688.159 939.099 687.939Q940.494 687.719 941.872 687.408C957.266 684.045 985.084 667.277 1000.12 659.501L944.573 659.25L944.448 646.497C945.002 620.554 944.605 594.527 944.599 568.575L968.658 568.332L968.72 548.334L981.059 548.274C980.714 530.838 981.045 513.345 981.089 495.902L1012.91 496.183L1012.66 431.86Z"/>
		<path fill="#FEF9F4" transform="scale(0.879121 0.878906)" d="M526.224 472.985L706.052 472.918L750.431 472.803C758.667 472.774 767.735 472.121 775.864 473.371L775.865 760.961L630.163 760.856L585.413 760.788C577.113 760.782 568.464 760.318 560.211 761.222C556.881 761.586 553.888 762.794 551.567 765.303C545.852 771.48 548.341 817.734 548.321 828.276L525.787 828.203C524.996 808.439 525.373 788.576 525.341 768.795L525.391 678.879C527.757 675.952 526.239 493.721 526.224 472.985Z"/>
		<path fill="#FEF9F4" transform="scale(0.879121 0.878906)" d="M443.708 459.518L523.603 459.504L523.667 472.333L523.499 828.122C498.249 828.243 472.269 827.012 447.117 828.527L445.148 828.081C444.254 826.44 444.08 825.263 443.991 823.42C443.229 807.601 443.782 791.521 443.792 775.671L443.674 697.189L443.708 459.518Z"/>
		<path fill="#FEF9F4" transform="scale(0.879121 0.878906)" d="M443.966 270.512L703.823 270.543L703.737 361.721L443.938 361.71Q443.625 316.109 443.966 270.512Z"/>
		<path fill="#ACC0E1" transform="scale(0.879121 0.878906)" d="M127.12 265.001C141.864 264.665 156.656 264.904 171.406 264.914L171.527 365.57C167.703 365.379 163.75 365.275 159.935 365.583Q159.013 365.661 158.097 365.783Q157.18 365.906 156.27 366.073Q155.361 366.24 154.46 366.45Q153.56 366.661 152.67 366.916Q151.781 367.17 150.905 367.467Q150.03 367.764 149.169 368.104Q148.309 368.443 147.466 368.824Q146.623 369.204 145.8 369.626Q144.976 370.047 144.174 370.508Q143.372 370.968 142.594 371.467Q141.815 371.967 141.061 372.503Q140.308 373.039 139.581 373.612Q138.855 374.184 138.157 374.791Q137.459 375.398 136.791 376.038Q136.123 376.678 135.487 377.349Q134.852 378.021 134.249 378.723Q133.625 379.457 133.039 380.222Q132.453 380.987 131.906 381.78Q131.359 382.573 130.852 383.392Q130.345 384.211 129.879 385.055Q129.414 385.899 128.991 386.764Q128.568 387.63 128.189 388.516Q127.81 389.402 127.475 390.306Q127.141 391.209 126.852 392.128Q126.563 393.048 126.32 393.98Q126.078 394.913 125.882 395.856Q125.686 396.799 125.537 397.752Q125.389 398.704 125.288 399.662Q125.187 400.62 125.134 401.582Q125.081 402.544 125.076 403.508Q125.071 404.472 125.115 405.434Q125.158 406.397 125.249 407.356Q125.328 408.271 125.453 409.181Q125.577 410.092 125.747 410.994Q125.916 411.897 126.13 412.791Q126.344 413.684 126.602 414.565Q126.861 415.447 127.162 416.315Q127.464 417.182 127.808 418.034Q128.152 418.886 128.538 419.719Q128.924 420.553 129.351 421.366Q129.778 422.18 130.244 422.971Q130.711 423.762 131.216 424.529Q131.722 425.296 132.265 426.037Q132.807 426.778 133.386 427.491Q133.965 428.204 134.579 428.888Q135.192 429.572 135.839 430.224Q136.485 430.876 137.164 431.496Q137.842 432.115 138.55 432.7C148.169 440.549 159.471 442.018 171.415 440.674C171.002 478.731 170.323 516.969 171.196 555.015Q171.281 570.024 171.013 585.031C161.996 585.184 152.973 585.372 143.955 585.401C134.103 585.433 123.934 584.395 116.648 576.972C113.144 573.403 110.112 568.082 109.342 563.101C107.596 551.806 108.397 539.555 108.444 528.122L108.586 474.832L109.169 280.503C113.591 271.907 117.874 268.063 127.12 265.001Z"/>
		<path fill="#FEF9F4" transform="scale(0.879121 0.878906)" d="M104.92 901.321L128.922 901.325L128.884 969.619L104.868 969.571L104.92 901.321Z"/>
		<path fill="#FEF9F4" transform="scale(0.879121 0.878906)" d="M1102.18 901.768C1109.44 900.496 1117.09 901.018 1124.44 901.1C1125 901.988 1125.48 902.939 1125.71 903.969C1126.76 908.554 1126.91 963.851 1125.76 967.061C1125.5 967.791 1124.76 968.692 1124.34 969.375C1118.21 971.275 1108.42 969.979 1101.86 969.899C1102.13 969.446 1102.35 969.132 1102.52 968.648C1104.11 964.281 1103.38 904.813 1102.18 901.768Z"/>
		<path fill="#FFFEFE" transform="scale(0.879121 0.878906)" d="M922.81 655.533C928.988 654.806 935.39 655.221 941.604 655.304C941.38 660.242 941.378 664.868 937.485 668.479C935.709 670.126 933.445 671.446 930.94 671.236C928.615 671.04 926.616 669.604 925.244 667.783C922.512 664.162 922.956 659.834 922.81 655.533Z"/>
		<path fill="#FEF9F4" transform="scale(0.879121 0.878906)" d="M922.055 205.438C926.48 201.878 933.357 199.318 938.392 196.535C949.28 190.514 960.218 184.056 970.326 176.8C993.307 160.304 1014.98 142.011 1037.49 124.897C1082.58 90.6124 1131.15 63.4756 1185.97 48.3238C1297.83 17.4077 1417.81 42.1474 1517.22 98.5878C1525.18 103.111 1573.72 133.954 1575.5 140.382C1552.45 141.331 1529.16 140.576 1506.08 140.554L1374.17 140.709C1375.1 142.464 1375.4 143.877 1375.49 145.846C1376.2 160.725 1375.65 175.911 1375.67 190.819L1375.73 278.315C1375.73 291.363 1377.08 392.723 1374.99 398.639C1374.77 399.271 1374.47 399.779 1374.12 400.349L1075.29 400.663C1077.76 395.982 1076.59 387.656 1075.14 382.776C1071.9 371.903 1063.27 361.727 1053.21 356.57C1042.27 350.962 1029.68 350.672 1018.17 354.575Q1015.49 355.47 1012.9 356.62C1012.9 341.676 1014.83 292.32 1011.25 281.414C1007.3 278.177 973.644 280.021 966.321 280.111C967.131 269.905 966.449 259.107 966.423 248.841C974.702 248.893 983.09 249.238 991.356 248.94C993.995 248.846 995.232 248.921 997.072 246.982C997.174 246.715 997.284 246.451 997.38 246.181C999.125 241.25 998.373 210.917 996.068 206.164C990.34 203.988 933.413 205.599 922.055 205.438Z"/>
		<path fill="#FEF9F4" transform="scale(0.879121 0.878906)" d="M154.531 262.176C160.765 252.376 168.787 243.092 175.735 233.75C230.648 159.924 306.023 85.674 396.007 58.4016C506.467 24.9234 604.847 74.9288 683.246 150.444C715.305 181.324 744.276 217.78 784.232 239.089C810.708 253.208 841.367 254.604 869.843 245.95C871.506 247.955 872.127 248.894 874.857 249.227C882.56 250.169 890.598 248.949 898.349 249.061L898.352 280.633Q875.955 280.37 853.563 280.92L853.302 361.806L723.264 361.842L723.33 295.542C723.331 284.389 724.212 272.344 722.846 261.293C722.553 258.923 722.222 256.609 720.541 254.859C718.617 252.855 716.979 252.041 714.247 251.764C704.382 250.761 694.026 251.441 684.089 251.461L627.599 251.572L441.271 251.382C434.22 237.484 424.967 225.598 409.553 220.408C404.98 218.869 399.63 218.505 394.809 218.273C363.904 216.785 332.339 218.097 301.351 218.105C275.03 218.111 247.823 216.629 221.586 218.354C215.039 218.784 206.454 219.753 200.593 222.719C187.322 229.434 178.116 239.651 173.509 253.898C172.652 256.551 172.088 259.285 171.575 262.023C166.747 264.824 148.36 263.225 141.721 263.077C145.845 262.352 150.341 262.418 154.531 262.176Z"/>
		<path fill="#FEF9F4" transform="scale(0.879121 0.878906)" d="M1615.43 142.964C1619.68 148.047 1618.03 166.381 1617.48 173.224C1617.39 174.35 1616.99 175.276 1616.42 176.226C1624.95 181.582 1637.39 198.645 1644.2 206.78C1698.48 271.612 1732.03 339.444 1750.91 421.936Q1751.77 425.637 1752.57 429.352Q1753.37 433.067 1754.11 436.796Q1754.84 440.525 1755.51 444.266Q1756.17 448.008 1756.78 451.76Q1757.38 455.512 1757.91 459.275Q1758.45 463.037 1758.92 466.809Q1759.39 470.58 1759.79 474.359Q1760.19 478.138 1760.53 481.923Q1760.86 485.709 1761.13 489.5Q1761.4 493.291 1761.6 497.086Q1761.8 500.881 1761.94 504.679Q1762.07 508.477 1762.14 512.276Q1762.21 516.076 1762.21 519.876Q1762.21 523.677 1762.14 527.477Q1762.07 531.276 1761.94 535.074Q1761.81 538.872 1761.61 542.667Q1761.41 546.463 1761.14 550.253Q1760.87 554.044 1760.54 557.83Q1760.21 561.616 1759.8 565.395Q1759.4 569.174 1758.94 572.945Q1758.47 576.717 1757.94 580.48Q1757.4 584.242 1756.8 587.995Q1756.2 591.748 1755.53 595.489Q1754.87 599.23 1754.14 602.96Q1753.4 606.689 1752.61 610.404Q1751.81 614.12 1750.95 617.821Q1750.08 621.522 1749.15 625.207Q1748.23 628.892 1747.23 632.561Q1746.24 636.229 1745.18 639.879Q1744.12 643.529 1743 647.16Q1741.88 650.791 1740.7 654.401Q1739.51 658.012 1738.26 661.601C1733.61 674.79 1729.16 689.404 1721.77 701.352C1720.82 702.899 1719.75 704.337 1718.58 705.726C1719.56 709.089 1719.68 716.095 1717.88 719.247C1717.75 719.476 1717.6 719.695 1717.46 719.919C1718.84 716.154 1718.86 539.749 1717.93 520.617C1717.85 519 1717.42 517.586 1716.81 516.097C1705.65 514.381 1692.56 515.746 1681.23 515.818C1681.73 515.063 1682.16 514.266 1682.39 513.383C1683.55 509.003 1683.23 414.725 1682.42 404.425C1682.3 402.855 1681.82 401.6 1681.01 400.247C1651.83 399.111 1622.16 400.266 1592.92 400.3C1593.26 399.797 1593.58 399.261 1593.79 398.691C1595.51 393.914 1594.97 330.291 1592.98 326.251L1592.46 325.693C1586.2 324.22 1428.81 324.646 1420.31 326.338C1421.83 333.169 1421.67 396.238 1419.26 400.353L1376.48 400.29C1376.87 399.664 1376.91 399.66 1377.18 398.837C1378.51 394.801 1378.02 194.74 1377.44 192.339C1377.24 191.503 1376.81 190.699 1376.36 189.966Q1397.9 189.735 1419.45 189.953C1422.9 196.65 1420.54 293.126 1420.68 309.16C1435.8 309.24 1590.44 310.278 1592.99 308.446C1593.41 307.642 1593.77 306.807 1593.97 305.921C1595.87 297.544 1594.34 274.677 1594.34 265.084C1594.35 243.387 1595.8 215.238 1594.13 194.2C1594 192.633 1593.52 191.377 1592.73 190.024C1600.17 190.05 1607.67 190.245 1615.09 189.656C1615.44 189.133 1615.37 189.269 1615.69 188.575C1617.84 183.813 1617.24 148.035 1615.43 142.964Z"/>
		<path fill="#FEF9F4" transform="scale(0.879121 0.878906)" d="M106.878 356.806Q107.454 431.233 106.889 505.66C106.885 521.615 104.691 548.423 107.401 563.201C108.542 569.419 111.898 574.771 116.417 579.108C129.299 591.472 154.489 586.552 171.1 586.941L170.814 799.175C113.233 756.575 79.2161 704.501 65.6578 633.974C50.5053 555.154 61.9472 467.509 90.9409 393.024C95.4396 381.466 99.962 367.023 106.878 356.806Z"/>
	</g>
</svg>
