<?xml version="1.0" encoding="utf-8" ?>
<svg xmlns="http://www.w3.org/2000/svg" xmlns:xlink="http://www.w3.org/1999/xlink" width="1600" height="900">
	<g>
		<path fill="#5EB8FA" transform="scale(0.879121 0.878906)" d="M1276.21 651.41C1277.23 649.868 1277.65 648.478 1277.78 646.658C1278.44 636.927 1277.92 626.893 1277.91 617.129L1277.88 561.65L1277.77 388.111C1277.75 367.891 1276.29 346.477 1278.11 326.414C1278.52 321.822 1278.86 317.851 1282.63 314.846C1284.7 313.201 1287.27 312.694 1289.84 312.511C1309.81 311.091 1330.89 312.43 1350.97 312.409C1366.77 312.392 1386.72 310.759 1402.02 312.741C1416.31 312.213 1450.14 311.03 1462.94 312.78C1466.71 313.294 1470.09 314.101 1473.07 316.559C1475.18 320.829 1475.38 326.179 1475.51 330.884C1476.17 356.215 1475.61 381.7 1475.61 407.046L1475.53 567.211L1475.4 652.365C1475.34 664.172 1476.79 678.247 1474.65 689.791C1473.09 692.43 1471.12 693.473 1468.24 694.177C1459.97 696.195 1450.22 694.783 1441.68 695.488L1441.85 694.776L1443.18 696.1C1443.38 696.071 1443.58 696.039 1443.78 696.013C1448.98 695.325 1470.15 694.466 1474.16 695.973C1491.95 696.077 1510.75 694.876 1528.4 696.408C1530.61 701.733 1530.7 758.358 1528.53 763.998C1527.17 767.525 1523.77 769.493 1520.43 770.833C1519.79 771.092 1519.19 771.263 1518.52 771.434C1522.95 772.913 1526.47 774.781 1528.55 779.204C1529.85 781.96 1529.8 785.432 1529.9 788.438C1530.32 801.329 1531.43 921.294 1529 928.112C1527.9 931.201 1525.83 933.181 1523.18 934.978C1545.51 935.514 1568.14 935.786 1590.46 935.057C1619.67 936.678 1649.74 935.279 1679.04 935.266C1685.9 935.264 1698.76 933.899 1704.81 935.503C1705.32 935.638 1706.28 936.485 1706.76 936.808C1707.54 938.972 1707.52 939.001 1706.7 941.154C1705.38 942.089 1704.34 942.479 1702.76 942.691C1694.39 943.814 1685.08 942.813 1676.59 942.878L1606.45 943.053L1376.34 942.987L623.504 942.668L269.466 942.93L162.604 942.761C148.782 942.732 134.238 943.937 120.54 943.175C117.861 943.026 114.919 942.423 112.801 940.694C111.623 939.733 111.805 939.433 111.635 937.932C111.87 937.697 112.092 937.447 112.341 937.227C113.857 935.888 116.277 935.575 118.221 935.403C130.415 934.322 143.432 935.234 155.691 935.256L229.662 935.414C250.259 935.676 271.028 935.105 291.597 935.932C290.712 934.96 289.808 933.912 289.091 932.812C288.451 931.829 288.258 931.077 288.208 929.918C287.152 905.586 288.313 880.758 288.303 856.38C288.297 843.132 286.6 789.118 288.884 781.2C290.126 776.897 294.875 774.372 298.396 772.159C296.413 771.309 293.973 770.151 292.403 768.663C289.362 765.78 289.3 762.895 289.097 758.931C288.588 749.028 286.997 701.787 292.155 696.071C301.629 692.16 329.672 694.292 341.178 694.322C342.678 695.543 344.059 696.411 345.983 696.791C354.135 698.404 363.525 697.664 371.807 697.665L413.681 697.594C415.733 696.19 417.902 694.974 420.048 693.721C435.76 696.726 453.256 694.285 469.24 695.132C473.923 695.179 478.906 694.873 483.542 695.469C498.86 699.164 508.971 692.639 523.139 690.75C528.175 690.079 533.757 691.185 538.906 690.968C539.158 690.625 539.412 690.282 539.687 689.957C539.809 689.812 539.936 689.67 540.059 689.525C540.354 689.18 540.519 688.952 540.86 688.644C544.429 685.415 552.192 686.578 556.693 686.74C551.519 686.13 546.067 686.426 540.852 686.394L541.183 653.657C549.738 652.303 558.733 648.437 566.992 645.779C583.186 640.566 598.937 637.35 615.952 636.41L616.676 634.522C625.273 632.29 650.953 633.874 660.867 633.875L772.028 634.042C815.615 633.729 1216.15 632.633 1218.95 634.534C1229.16 635.562 1266.27 647.016 1276.21 651.41Z"/>
		<path fill="#34234D" transform="scale(0.879121 0.878906)" d="M1276.21 651.41C1277.23 649.868 1277.65 648.478 1277.78 646.658C1278.44 636.927 1277.92 626.893 1277.91 617.129L1277.88 561.65L1277.77 388.111C1277.75 367.891 1276.29 346.477 1278.11 326.414C1278.52 321.822 1278.86 317.851 1282.63 314.846C1284.7 313.201 1287.27 312.694 1289.84 312.511C1309.81 311.091 1330.89 312.43 1350.97 312.409C1366.77 312.392 1386.72 310.759 1402.02 312.741C1416.31 312.213 1450.14 311.03 1462.94 312.78C1466.71 313.294 1470.09 314.101 1473.07 316.559C1475.18 320.829 1475.38 326.179 1475.51 330.884C1476.17 356.215 1475.61 381.7 1475.61 407.046L1475.53 567.211L1475.4 652.365C1475.34 664.172 1476.79 678.247 1474.65 689.791C1473.09 692.43 1471.12 693.473 1468.24 694.177C1459.97 696.195 1450.22 694.783 1441.68 695.488L1441.85 694.776L1443.18 696.1C1443.38 696.071 1443.58 696.039 1443.78 696.013C1448.98 695.325 1470.15 694.466 1474.16 695.973C1473.99 697.077 1473.79 696.973 1472.97 697.656C1463.67 698.108 1454.26 697.491 1444.93 697.596C1431.02 697.752 1416.28 698.945 1402.48 697.476C1399.81 697.192 1397.44 696.161 1395.04 695.005C1393.18 693.294 1391.02 693.031 1388.63 692.495C1385.23 688.713 1347.74 676.311 1340.81 674.524C1336.26 670.592 1287.62 655.854 1279.7 655.201C1281.44 661.135 1281.82 686.469 1279.49 691.464C1279.98 693.103 1280.02 694.742 1281.68 695.565C1287.18 698.284 1295.9 694.035 1300.66 696.975L1300.68 697.387L1298.99 696.839L1299.48 696.932L1299.28 697.815C1232.47 699.16 469.605 698.428 467.908 697.419L469.24 695.132C473.923 695.179 478.906 694.873 483.542 695.469C498.86 699.164 508.971 692.639 523.139 690.75C528.175 690.079 533.757 691.185 538.906 690.968C539.158 690.625 539.412 690.282 539.687 689.957C539.809 689.812 539.936 689.67 540.059 689.525C540.354 689.18 540.519 688.952 540.86 688.644C544.429 685.415 552.192 686.578 556.693 686.74C551.519 686.13 546.067 686.426 540.852 686.394L541.183 653.657C549.738 652.303 558.733 648.437 566.992 645.779C583.186 640.566 598.937 637.35 615.952 636.41L616.676 634.522C625.273 632.29 650.953 633.874 660.867 633.875L772.028 634.042C815.615 633.729 1216.15 632.633 1218.95 634.534C1229.16 635.562 1266.27 647.016 1276.21 651.41Z"/>
		<path fill="#fff" transform="scale(0.879121 0.878906)" d="M772.028 634.042C815.615 633.729 1216.15 632.633 1218.95 634.534Q1212.8 634.89 1206.65 635.152C1208.78 635.266 1213.81 635.038 1215.34 636.32C1223.26 636.921 1274.52 651.253 1278.1 654.964C1279.21 661.301 1280.42 681.834 1277.2 687.12C1269.29 686.379 1259.05 684.931 1251.8 688.903L1252.25 689.766C1260.63 692.129 1269.38 691.745 1278 691.684C1278.55 693.566 1278.91 693.894 1278.12 695.751C1261.1 697.816 1238.75 696.111 1221.13 696.104L1102 696.146L699.464 696.051C680.622 696.065 545.504 697.749 540.525 694.415C546.451 691.062 556.038 694.043 561.2 689.327C559.919 687.456 558.742 687.417 556.693 686.74C551.519 686.13 546.067 686.426 540.852 686.394L541.183 653.657C549.738 652.303 558.733 648.437 566.992 645.779C583.186 640.566 598.937 637.35 615.952 636.41L616.676 634.522C625.273 632.29 650.953 633.874 660.867 633.875L772.028 634.042Z"/>
		<path fill="#905073" transform="scale(0.879121 0.878906)" d="M772.028 634.042C815.615 633.729 1216.15 632.633 1218.95 634.534Q1212.8 634.89 1206.65 635.152C1208.78 635.266 1213.81 635.038 1215.34 636.32C1194.74 638 1172.11 636.395 1151.24 636.334Q1087.63 636.503 1024.02 635.962C931.116 635.466 838.061 637.919 745.173 636.276C702.115 636.886 659.018 636.213 615.952 636.41L616.676 634.522C625.273 632.29 650.953 633.874 660.867 633.875L772.028 634.042Z"/>
		<path fill="#34234D" transform="scale(0.879121 0.878906)" d="M876.011 659.175C905.882 656.816 974.279 657.402 1001.78 665.808C1003.81 666.43 1004.76 666.693 1005.81 668.605C1005.41 669.199 1005.3 669.445 1004.81 669.911C996.888 677.43 951.459 678.066 939.105 678.511C907.831 681.083 872.233 679.348 840.985 676.204C834.413 675.542 813.176 674.589 808.846 669.285L809.5 667.97C824.843 660.499 858.222 660.051 876.011 659.175Z"/>
		<path fill="#34234D" transform="scale(0.879121 0.878906)" d="M1236.35 672.444C1243.58 672.078 1260.33 670.848 1266.12 675.397L1265.4 676.821C1262.33 678.939 1258.61 678.581 1255.03 678.644C1247.45 679.116 1236.55 679.218 1229.47 676.233L1228.99 674.928C1231.1 673.019 1233.64 672.887 1236.35 672.444Z"/>
		<path fill="#34234D" transform="scale(0.879121 0.878906)" d="M556.359 673.992C564.832 673.271 576.551 672.256 584.774 674.818C586.183 675.257 586.16 675.177 586.835 676.443C585.032 678.593 583.3 678.45 580.638 679.027C571.643 679.396 561.54 680.175 552.701 678.358C551.034 678.016 550.394 678.063 549.433 676.577C551.204 674.533 553.821 674.448 556.359 673.992Z"/>
		<path fill="#34234D" transform="scale(0.879121 0.878906)" d="M758.258 641.252C766.231 641.106 774.387 640.562 781.994 643.413L782.571 644.796C780.166 646.492 777.093 646.704 774.256 647.161C765.939 647.359 754.402 648.423 746.568 645.377L746.216 643.81C748.97 641.128 754.58 641.493 758.258 641.252Z"/>
		<path fill="#34234D" transform="scale(0.879121 0.878906)" d="M600.141 657.268C607.782 657.152 616.504 656.498 623.795 659.14L623.777 660.27C620.406 662.109 616.933 662.519 613.181 663.087C605.266 663.396 593.748 664.21 586.482 660.738L586.886 659.69C591.359 657.724 595.353 657.497 600.141 657.268Z"/>
		<path fill="#34234D" transform="scale(0.879121 0.878906)" d="M708.859 683.929C715.544 683.465 725.866 683.11 731.818 686.363L731.8 687.617C728.984 688.978 725.773 689.232 722.713 689.698C716.017 689.879 700.908 691.474 695.725 687.092L696.444 685.808C700.238 684.173 704.778 684.232 708.859 683.929Z"/>
		<path fill="#34234D" transform="scale(0.879121 0.878906)" d="M899.37 686.582C907.766 685.907 919.183 685.135 927.157 688.254L927.713 689.682C925.725 691.688 924.188 691.641 921.468 692.237C913.096 692.556 901.731 693.29 893.942 689.82L893.583 688.697C895.484 686.958 896.936 687.015 899.37 686.582Z"/>
		<path fill="#34234D" transform="scale(0.879121 0.878906)" d="M1090.53 683.997C1099.25 682.702 1115.89 681.919 1123.82 685.85L1123.98 686.95C1122.05 687.939 1120.25 688.358 1118.14 688.76C1109.88 689.476 1095.98 690.933 1088.54 687.014L1088.5 685.461L1090.53 683.997Z"/>
		<path fill="#34234D" transform="scale(0.879121 0.878906)" d="M626.756 642.109C635.709 641.27 647.8 640.52 656.477 643.29L657.125 644.594C655.19 646.516 653.416 646.445 650.808 646.975C644.102 647.288 637.351 647.496 630.654 646.963C627.704 646.728 623.146 646.645 621.193 644.341C623.017 642.488 624.323 642.572 626.756 642.109Z"/>
		<path fill="#34234D" transform="scale(0.879121 0.878906)" d="M1043.12 641.322C1051.42 640.657 1061.71 640.095 1069.58 643.23L1069.45 644.295C1066.1 645.977 1063.22 646.384 1059.51 646.695C1052.95 647.701 1041.3 647.767 1035.22 644.974L1035 643.651C1037.51 641.839 1040.13 641.686 1043.12 641.322Z"/>
		<path fill="#34234D" transform="scale(0.879121 0.878906)" d="M897.168 642.17C905.178 641.443 913.512 641.346 921.526 642.038C923.808 642.235 926.606 642.404 928.114 644.205C926.841 646.336 926.262 646.086 923.942 646.718C923.155 646.794 922.378 646.86 921.588 646.901C915.498 647.221 897.513 648.682 892.922 644.563L893.719 643.027L897.168 642.17Z"/>
		<path fill="#34234D" transform="scale(0.879121 0.878906)" d="M1197.07 657.333C1201.32 656.757 1205.78 656.727 1210.07 656.714C1214.28 656.701 1225.17 656.398 1228.12 659.326L1227.64 660.806L1224 661.779C1223.62 661.94 1223.45 662.03 1223 662.103C1216.56 663.14 1200.2 663.701 1194.81 660.21L1194.79 658.615L1197.07 657.333Z"/>
		<path fill="#34234D" transform="scale(0.879121 0.878906)" d="M1160.87 641.331C1170.18 640.045 1182.72 639.473 1191.76 642.263L1192.4 643.469C1190.56 645.092 1189.69 644.977 1187.32 645.335C1180.95 646.922 1164.45 647.574 1158.79 644.45L1158.71 642.823L1160.87 641.331Z"/>
		<path fill="#fff" transform="scale(0.879121 0.878906)" d="M1354.44 432.815Q1362.32 432.891 1370.2 433.051Q1393.87 432.778 1417.55 432.956C1418.53 434.596 1418.84 435.892 1418.94 437.784C1419.6 449.306 1419.11 461.117 1419.12 472.663L1419.17 540.061C1419.18 550.305 1420.6 590.21 1418.67 597.901C1418.47 598.683 1418.14 599.306 1417.72 599.987L1405.81 600.157C1394.21 599.16 1381.79 600.07 1370.08 599.896C1359.33 600.344 1348.38 599.951 1337.61 599.972C1337.94 599.394 1338.24 598.799 1338.47 598.169C1339.84 594.405 1339.86 454.018 1339.16 438.006C1339.07 436.133 1338.75 434.719 1337.93 433.023Q1346.19 433.066 1354.44 432.815Z"/>
		<path fill="#E5E5E6" transform="scale(0.879121 0.878906)" d="M1354.44 432.815Q1362.32 432.891 1370.2 433.051C1372 441.689 1370.74 597.609 1370.08 599.896C1359.33 600.344 1348.38 599.951 1337.61 599.972C1337.94 599.394 1338.24 598.799 1338.47 598.169C1339.84 594.405 1339.86 454.018 1339.16 438.006C1339.07 436.133 1338.75 434.719 1337.93 433.023Q1346.19 433.066 1354.44 432.815Z"/>
		<path fill="#fff" transform="scale(0.879121 0.878906)" d="M1400.2 314.404L1417.63 314.594C1418.41 315.848 1418.89 317.029 1419.02 318.504C1419.69 326.327 1419.18 334.546 1419.17 342.416L1419.11 387.695C1419.09 397.94 1420.49 418.232 1418.77 427.285C1418.54 428.515 1418.06 429.3 1417.09 430.106C1411.48 433.407 1368.05 430.078 1357.64 431.006C1351.63 429.933 1344.11 430.708 1337.93 430.67C1338.24 430.115 1338.52 429.552 1338.71 428.941C1340.27 423.964 1339.78 330.045 1338.86 319.143C1338.72 317.476 1338.29 316.128 1337.52 314.639L1370.08 314.73Q1385.14 314.415 1400.2 314.404Z"/>
		<path fill="#E5E5E6" transform="scale(0.879121 0.878906)" d="M1337.52 314.639L1370.08 314.73C1372.31 325.439 1370.65 351.828 1370.68 364.111C1370.73 384.411 1372.2 405.616 1370.7 425.805C1370.59 427.394 1370.21 428.662 1369.41 430.05C1385.05 430.043 1401.56 428.888 1417.09 430.106C1411.48 433.407 1368.05 430.078 1357.64 431.006C1351.63 429.933 1344.11 430.708 1337.93 430.67C1338.24 430.115 1338.52 429.552 1338.71 428.941C1340.27 423.964 1339.78 330.045 1338.86 319.143C1338.72 317.476 1338.29 316.128 1337.52 314.639Z"/>
		<path fill="#fff" transform="scale(0.879121 0.878906)" d="M1408.15 601.675C1410.74 601.781 1415.05 601.388 1417.16 602.726C1417.62 603.355 1418.45 604.223 1418.74 604.911C1419.79 607.393 1419.71 683.368 1418.97 689.047C1418.82 690.252 1418.38 691.502 1417.75 692.532L1394.96 692.418C1389.32 687.859 1377.18 685.039 1370.13 682.563C1360.2 677.75 1348.51 674.267 1337.97 670.862C1338.3 670.127 1338.59 669.371 1338.75 668.58C1340.18 661.709 1340.08 606.621 1337.56 602.513Q1372.86 602.549 1408.15 601.675Z"/>
		<path fill="#E5E5E6" transform="scale(0.879121 0.878906)" d="M1408.15 601.675C1410.74 601.781 1415.05 601.388 1417.16 602.726L1369.28 602.839C1371.75 606.968 1372.18 674.979 1370.54 681.284C1370.34 682.055 1370.36 681.949 1370.13 682.563C1360.2 677.75 1348.51 674.267 1337.97 670.862C1338.3 670.127 1338.59 669.371 1338.75 668.58C1340.18 661.709 1340.08 606.621 1337.56 602.513Q1372.86 602.549 1408.15 601.675Z"/>
		<path fill="#5EB8FA" transform="scale(0.879121 0.878906)" d="M1456.96 433.055Q1464.42 432.842 1471.88 432.774C1472.95 434.533 1473.25 435.89 1473.36 437.924C1474.12 452.911 1474.36 593.504 1472.91 598.169C1472.66 598.97 1472.24 599.712 1471.81 600.424C1466.88 600.35 1461.76 600.56 1456.87 599.942C1449.78 600.533 1442.25 600.037 1435.11 600.049C1435.54 599.207 1436.06 598.315 1436.3 597.393C1438.25 590.085 1436.77 557.131 1436.77 546.443L1436.79 475.661C1436.78 463.283 1437.28 450.716 1436.64 438.369C1436.53 436.29 1436.2 434.751 1435.23 432.887Q1446.1 432.734 1456.96 433.055Z"/>
		<path fill="#fff" transform="scale(0.879121 0.878906)" d="M1456.96 433.055Q1464.42 432.842 1471.88 432.774C1472.95 434.533 1473.25 435.89 1473.36 437.924C1474.12 452.911 1474.36 593.504 1472.91 598.169C1472.66 598.97 1472.24 599.712 1471.81 600.424C1466.88 600.35 1461.76 600.56 1456.87 599.942C1457.41 599.018 1457.89 597.942 1458.1 596.883C1459.86 588.028 1458.41 559.274 1458.41 548.171C1458.41 512.54 1459.85 473.062 1458.25 437.905C1458.17 435.988 1457.93 434.728 1456.96 433.055Z"/>
		<path fill="#5EB8FA" transform="scale(0.879121 0.878906)" d="M1277.93 432.754Q1284.97 432.671 1292 432.994L1308.73 432.855C1309.64 434.534 1310.06 435.994 1310.16 437.89C1310.89 451.083 1310.41 464.589 1310.47 477.817L1310.63 553.71C1310.61 562.209 1311.86 590.456 1310.01 597.356C1309.77 598.269 1309.29 599.12 1308.79 599.911L1292.01 599.803C1287.43 600.216 1282.64 599.978 1278.03 600.023C1278.11 599.873 1278.18 599.723 1278.26 599.575C1278.67 598.781 1279.11 597.952 1279.31 597.069C1281.19 588.559 1279.66 558.779 1279.66 547.465L1279.61 474.841C1279.6 462.576 1280.12 450.093 1279.46 437.861C1279.35 435.847 1279.01 434.484 1277.93 432.754Z"/>
		<path fill="#fff" transform="scale(0.879121 0.878906)" d="M1277.93 432.754Q1284.97 432.671 1292 432.994C1293.46 435.267 1293.36 436.903 1293.48 439.581C1294.89 473.117 1293.4 507.337 1293.44 540.943L1293.49 580.33C1293.5 585.856 1294.12 592.349 1293.29 597.776C1293.18 598.492 1293.1 598.627 1292.87 599.22L1292.13 598.466L1292.01 599.803C1287.43 600.216 1282.64 599.978 1278.03 600.023C1278.11 599.873 1278.18 599.723 1278.26 599.575C1278.67 598.781 1279.11 597.952 1279.31 597.069C1281.19 588.559 1279.66 558.779 1279.66 547.465L1279.61 474.841C1279.6 462.576 1280.12 450.093 1279.46 437.861C1279.35 435.847 1279.01 434.484 1277.93 432.754Z"/>
		<path fill="#5EB8FA" transform="scale(0.879121 0.878906)" d="M1434.86 314.356C1442.12 314.328 1449.67 313.909 1456.87 314.722C1461.39 314.478 1466.66 313.69 1470.22 317.154C1471.81 318.702 1472.57 320.094 1472.88 322.275C1474.66 334.421 1473.44 348.313 1473.46 360.637C1473.49 381.961 1474.11 403.483 1473.44 424.787C1473.37 427.007 1473.24 428.834 1472.12 430.828C1467.44 430.841 1462.74 430.949 1458.06 430.852L1435.32 430.801C1435.74 429.944 1436.03 429.1 1436.24 428.162C1438.21 419.102 1436.75 398.471 1436.76 388.034C1436.78 365.442 1438.07 341.898 1436.52 319.434C1436.38 317.472 1435.91 316.009 1434.86 314.356Z"/>
		<path fill="#fff" transform="scale(0.879121 0.878906)" d="M1456.87 314.722C1461.39 314.478 1466.66 313.69 1470.22 317.154C1471.81 318.702 1472.57 320.094 1472.88 322.275C1474.66 334.421 1473.44 348.313 1473.46 360.637C1473.49 381.961 1474.11 403.483 1473.44 424.787C1473.37 427.007 1473.24 428.834 1472.12 430.828C1467.44 430.841 1462.74 430.949 1458.06 430.852C1458 415.497 1460.58 320.822 1456.87 314.722Z"/>
		<path fill="#5EB8FA" transform="scale(0.879121 0.878906)" d="M1291.75 314.622C1297.56 314.085 1303.32 314.222 1309.15 314.337C1309.92 315.58 1310.37 316.705 1310.49 318.169C1312.12 338.663 1310.56 365.292 1310.48 386.356C1310.44 396.387 1311.86 418.515 1309.96 427.238C1309.78 428.065 1309.39 428.819 1309.01 429.567C1308.9 429.771 1308.81 429.982 1308.7 430.186C1308.64 430.309 1308.57 430.426 1308.5 430.546C1303.28 430.502 1297.89 430.735 1292.7 430.21C1289 431.809 1282.26 430.895 1278.14 430.886C1282.57 422.359 1277.9 343.16 1279.52 325.949C1279.87 322.275 1280.87 318.702 1283.94 316.348C1286.48 314.4 1288.71 314.249 1291.75 314.622Z"/>
		<path fill="#fff" transform="scale(0.879121 0.878906)" d="M1278.14 430.886C1282.57 422.359 1277.9 343.16 1279.52 325.949C1279.87 322.275 1280.87 318.702 1283.94 316.348C1286.48 314.4 1288.71 314.249 1291.75 314.622C1293.82 319.316 1294.79 424.65 1292.97 429.561C1292.89 429.78 1292.79 429.993 1292.7 430.21C1289 431.809 1282.26 430.895 1278.14 430.886Z"/>
		<path fill="#5EB8FA" transform="scale(0.879121 0.878906)" d="M1435.35 602.004Q1452.11 601.867 1468.86 602.025L1472.26 602.309C1472.6 602.734 1473.04 603.095 1473.27 603.584C1474.04 605.182 1473.62 680.352 1472.86 686.873C1472.67 688.569 1472.47 689.966 1471.04 690.976C1467.5 693.473 1461.16 692.461 1456.98 692.261C1450.03 693.235 1442.29 692.57 1435.25 692.546C1435.55 692.065 1435.65 691.93 1435.9 691.364C1438.03 686.696 1437.36 606.979 1435.35 602.004Z"/>
		<path fill="#fff" transform="scale(0.879121 0.878906)" d="M1468.86 602.025L1472.26 602.309C1472.6 602.734 1473.04 603.095 1473.27 603.584C1474.04 605.182 1473.62 680.352 1472.86 686.873C1472.67 688.569 1472.47 689.966 1471.04 690.976C1467.5 693.473 1461.16 692.461 1456.98 692.261C1457.29 691.706 1457.55 691.221 1457.74 690.608C1459.58 684.587 1458.88 616.46 1458.1 606.66C1457.97 605.034 1457.49 603.717 1456.68 602.3C1460.76 602.339 1464.79 602.272 1468.86 602.025Z"/>
		<path fill="#5EB8FA" transform="scale(0.879121 0.878906)" d="M1277.99 602.038C1282.62 601.976 1287.26 602.081 1291.89 602.114L1309.1 602.265C1311.3 606.066 1311.5 654.088 1310.14 659.241C1309.91 660.139 1309.52 660.965 1309.05 661.763C1304.55 658.833 1297.21 657.496 1291.98 655.929C1287.41 654.328 1282.9 653.065 1278.21 651.94C1278.51 651.294 1278.75 650.671 1278.95 649.984C1280.62 644.337 1280.51 606.671 1277.99 602.038Z"/>
		<path fill="#fff" transform="scale(0.879121 0.878906)" d="M1277.99 602.038C1282.62 601.976 1287.26 602.081 1291.89 602.114C1292.23 602.578 1293.18 603.597 1293.32 604.089C1295.05 610.411 1294.01 645.627 1293.37 653.695L1291.98 655.929C1287.41 654.328 1282.9 653.065 1278.21 651.94C1278.51 651.294 1278.75 650.671 1278.95 649.984C1280.62 644.337 1280.51 606.671 1277.99 602.038Z"/>
		<path fill="#FE5168" transform="scale(0.879121 0.878906)" d="M1279.7 655.201C1287.62 655.854 1336.26 670.592 1340.81 674.524C1347.74 676.311 1385.23 688.713 1388.63 692.495C1391.02 693.031 1393.18 693.294 1395.04 695.005C1397.44 696.161 1399.81 697.192 1402.48 697.476C1416.28 698.945 1431.02 697.752 1444.93 697.596C1454.26 697.491 1463.67 698.108 1472.97 697.656C1473.79 696.973 1473.99 697.077 1474.16 695.973C1491.95 696.077 1510.75 694.876 1528.4 696.408C1530.61 701.733 1530.7 758.358 1528.53 763.998C1527.17 767.525 1523.77 769.493 1520.43 770.833C1519.79 771.092 1519.19 771.263 1518.52 771.434C1488.68 772.785 1458.39 771.624 1428.48 771.787C1368.25 770.644 1307.81 771.746 1247.56 771.763L906.205 771.679L548.669 771.698C491.513 771.771 434.186 770.851 377.048 772.041Q337.722 771.788 298.396 772.159C296.413 771.309 293.973 770.151 292.403 768.663C289.362 765.78 289.3 762.895 289.097 758.931C288.588 749.028 286.997 701.787 292.155 696.071C301.629 692.16 329.672 694.292 341.178 694.322C342.678 695.543 344.059 696.411 345.983 696.791C354.135 698.404 363.525 697.664 371.807 697.665L413.681 697.594C415.733 696.19 417.902 694.974 420.048 693.721C435.76 696.726 453.256 694.285 469.24 695.132L467.908 697.419C469.605 698.428 1232.47 699.16 1299.28 697.815L1299.48 696.932L1298.99 696.839L1300.68 697.387L1300.66 696.975C1295.9 694.035 1287.18 698.284 1281.68 695.565C1280.02 694.742 1279.98 693.103 1279.49 691.464C1281.82 686.469 1281.44 661.135 1279.7 655.201Z"/>
		<path fill="#fff" transform="scale(0.879121 0.878906)" d="M1340.81 674.524C1347.74 676.311 1385.23 688.713 1388.63 692.495C1385.31 695.056 1363.62 695.557 1358.51 695.002C1352.7 694.371 1346.24 692.388 1342.54 687.536C1339.43 683.454 1340.27 679.249 1340.81 674.524Z"/>
		<path fill="#00B4F3" transform="scale(0.879121 0.878906)" d="M298.396 772.159Q337.722 771.788 377.048 772.041L389.184 772.081Q388.765 854.061 389.283 936.032Q340.44 936.312 291.597 935.932C290.712 934.96 289.808 933.912 289.091 932.812C288.451 931.829 288.258 931.077 288.208 929.918C287.152 905.586 288.313 880.758 288.303 856.38C288.297 843.132 286.6 789.118 288.884 781.2C290.126 776.897 294.875 774.372 298.396 772.159Z"/>
		<path fill="#34234D" transform="scale(0.879121 0.878906)" d="M351.084 841.022C354.309 840.983 357.501 841.193 360.552 842.306C365.083 843.958 369.051 847.319 371.003 851.785Q371.176 852.183 371.329 852.59Q371.482 852.997 371.614 853.411Q371.745 853.825 371.856 854.246Q371.966 854.666 372.055 855.091Q372.144 855.517 372.211 855.946Q372.279 856.375 372.324 856.807Q372.369 857.24 372.392 857.674Q372.415 858.108 372.416 858.542Q372.417 858.977 372.395 859.411Q372.374 859.845 372.331 860.277Q372.287 860.71 372.222 861.139Q372.156 861.569 372.069 861.995Q371.982 862.42 371.873 862.841Q371.764 863.262 371.634 863.676Q371.504 864.091 371.353 864.498Q371.202 864.906 371.03 865.305C368.426 871.392 363.79 874.046 357.885 876.384C354.726 876.439 351.404 876.149 348.436 875.021C343.855 873.28 340.041 869.814 338.111 865.285Q337.941 864.886 337.792 864.479Q337.643 864.073 337.515 863.659Q337.387 863.245 337.28 862.824Q337.174 862.404 337.089 861.979Q337.005 861.554 336.942 861.126Q336.88 860.697 336.84 860.265Q336.799 859.834 336.781 859.401Q336.763 858.968 336.768 858.534Q336.772 858.101 336.799 857.669Q336.826 857.236 336.875 856.806Q336.924 856.375 336.995 855.948Q337.067 855.52 337.16 855.097Q337.253 854.674 337.368 854.256Q337.483 853.838 337.62 853.427Q337.756 853.016 337.913 852.612Q338.071 852.208 338.249 851.813C340.809 845.996 345.37 843.201 351.084 841.022Z"/>
		<path fill="#00B4F3" transform="scale(0.879121 0.878906)" d="M1518.52 771.434C1522.95 772.913 1526.47 774.781 1528.55 779.204C1529.85 781.96 1529.8 785.432 1529.9 788.438C1530.32 801.329 1531.43 921.294 1529 928.112C1527.9 931.201 1525.83 933.181 1523.18 934.978C1518.91 937.478 1440.39 936.505 1428.38 935.881C1428.84 935.161 1429.24 934.524 1429.48 933.693C1431.5 926.634 1429.97 890.148 1429.97 880.213C1429.97 845.914 1431.36 811.019 1429.8 776.786C1429.72 774.891 1429.39 773.486 1428.48 771.787C1458.39 771.624 1488.68 772.785 1518.52 771.434Z"/>
		<path fill="#34234D" transform="scale(0.879121 0.878906)" d="M1463.9 841.332C1469.41 840.508 1473.8 840.947 1478.5 844.236Q1479.22 844.735 1479.89 845.303Q1480.55 845.871 1481.16 846.503Q1481.77 847.134 1482.31 847.823Q1482.85 848.511 1483.32 849.25Q1483.79 849.99 1484.19 850.772Q1484.59 851.554 1484.9 852.371Q1485.22 853.189 1485.45 854.034Q1485.68 854.878 1485.83 855.742Q1485.96 856.503 1486.01 857.273Q1486.06 858.042 1486.04 858.814Q1486.01 859.585 1485.92 860.35Q1485.82 861.115 1485.65 861.867Q1485.47 862.619 1485.23 863.35Q1484.98 864.082 1484.67 864.786Q1484.35 865.49 1483.97 866.16Q1483.59 866.83 1483.14 867.459C1480.12 871.669 1475.9 873.716 1470.93 874.624C1468.68 874.849 1466.49 874.677 1464.29 874.157C1460.02 873.147 1456.19 870.857 1453.9 867.044C1451.44 862.952 1451.41 857.86 1452.69 853.392C1454.51 847.07 1458.38 844.418 1463.9 841.332Z"/>
		<path fill="#FE5168" transform="scale(0.879121 0.878906)" d="M1523.18 934.978C1545.51 935.514 1568.14 935.786 1590.46 935.057C1619.67 936.678 1649.74 935.279 1679.04 935.266C1685.9 935.264 1698.76 933.899 1704.81 935.503C1705.32 935.638 1706.28 936.485 1706.76 936.808C1707.54 938.972 1707.52 939.001 1706.7 941.154C1705.38 942.089 1704.34 942.479 1702.76 942.691C1694.39 943.814 1685.08 942.813 1676.59 942.878L1606.45 943.053L1376.34 942.987L623.504 942.668L269.466 942.93L162.604 942.761C148.782 942.732 134.238 943.937 120.54 943.175C117.861 943.026 114.919 942.423 112.801 940.694C111.623 939.733 111.805 939.433 111.635 937.932C111.87 937.697 112.092 937.447 112.341 937.227C113.857 935.888 116.277 935.575 118.221 935.403C130.415 934.322 143.432 935.234 155.691 935.256L229.662 935.414C250.259 935.676 271.028 935.105 291.597 935.932Q340.44 936.312 389.283 936.032L1111.9 935.947L1330.09 935.977L1396.15 936.077C1406.63 936.093 1418.03 937.058 1428.38 935.881C1440.39 936.505 1518.91 937.478 1523.18 934.978Z"/>
		<path fill="#34234D" transform="scale(0.879121 0.878906)" d="M487.299 841.87C490.784 841.478 494.542 841.327 497.874 842.562C502.271 844.191 506.169 847.473 508.143 851.771Q508.5 852.544 508.778 853.35Q509.056 854.155 509.252 854.984Q509.447 855.813 509.559 856.658Q509.67 857.503 509.697 858.354Q509.723 859.206 509.664 860.056Q509.605 860.906 509.461 861.745Q509.317 862.585 509.089 863.406Q508.862 864.227 508.553 865.021C506.361 870.678 502.366 873.572 497.022 876.002C494.071 876.451 491.035 876.684 488.133 875.864C483.216 874.476 479.146 871.558 476.744 866.998C474.463 862.668 474.222 857.657 475.815 853.06C477.862 847.156 481.957 844.574 487.299 841.87Z"/>
		<path fill="#34234D" transform="scale(0.879121 0.878906)" d="M1322.42 841.332C1327.4 840.848 1331.53 840.835 1335.89 843.61Q1336.28 843.857 1336.65 844.124Q1337.02 844.391 1337.38 844.677Q1337.74 844.962 1338.08 845.266Q1338.43 845.57 1338.76 845.891Q1339.08 846.212 1339.39 846.55Q1339.7 846.887 1340 847.24Q1340.29 847.593 1340.56 847.961Q1340.84 848.329 1341.09 848.71Q1341.35 849.091 1341.58 849.485Q1341.82 849.879 1342.03 850.285Q1342.25 850.691 1342.44 851.107Q1342.63 851.523 1342.81 851.948Q1342.98 852.374 1343.13 852.807Q1343.28 853.241 1343.4 853.682Q1343.53 854.123 1343.63 854.57Q1343.74 855.016 1343.82 855.468Q1343.97 856.267 1344.05 857.078Q1344.12 857.889 1344.11 858.703Q1344.1 859.517 1344.01 860.326Q1343.92 861.135 1343.75 861.93Q1343.58 862.726 1343.33 863.501Q1343.07 864.275 1342.75 865.02Q1342.42 865.766 1342.02 866.474Q1341.62 867.183 1341.15 867.848C1338.02 872.199 1333.77 873.901 1328.65 874.728C1325.88 875.658 1321.86 874.792 1319.2 873.799C1315.49 872.416 1312.63 869.321 1311.04 865.751Q1310.85 865.321 1310.68 864.882Q1310.5 864.442 1310.36 863.995Q1310.21 863.547 1310.08 863.093Q1309.96 862.638 1309.86 862.178Q1309.75 861.717 1309.68 861.252Q1309.6 860.787 1309.54 860.319Q1309.49 859.85 1309.46 859.379Q1309.43 858.909 1309.43 858.437Q1309.42 857.966 1309.44 857.495Q1309.46 857.024 1309.5 856.554Q1309.55 856.084 1309.61 855.618Q1309.68 855.151 1309.77 854.688Q1309.86 854.226 1309.98 853.769Q1310.1 853.312 1310.23 852.861Q1310.37 852.41 1310.53 851.967Q1310.7 851.524 1310.88 851.09C1313.15 845.644 1317.22 843.482 1322.42 841.332Z"/>
		<path fill="#34234D" transform="scale(0.879121 0.878906)" d="M904.876 841.898C908.113 841.651 911.262 841.417 914.383 842.485C918.925 844.04 922.837 847.472 924.814 851.866Q925.158 852.616 925.424 853.397Q925.69 854.178 925.875 854.982Q926.061 855.785 926.163 856.604Q926.266 857.422 926.285 858.247Q926.304 859.072 926.239 859.894Q926.174 860.717 926.026 861.528Q925.878 862.34 925.648 863.132Q925.418 863.924 925.109 864.689C922.925 870.19 918.747 872.685 913.528 874.881C910.388 875.016 907.141 875.102 904.121 874.087Q903.31 873.82 902.529 873.473Q901.748 873.126 901.005 872.704Q900.263 872.281 899.566 871.787Q898.87 871.292 898.226 870.731Q897.581 870.17 896.996 869.547Q896.411 868.925 895.891 868.247Q895.371 867.569 894.92 866.843Q894.47 866.117 894.094 865.35Q893.742 864.606 893.467 863.829Q893.193 863.052 892.999 862.252Q892.806 861.451 892.695 860.635Q892.585 859.819 892.558 858.996Q892.532 858.173 892.59 857.351Q892.647 856.529 892.789 855.718Q892.931 854.907 893.154 854.114Q893.378 853.322 893.682 852.556C895.859 846.967 899.602 844.314 904.876 841.898Z"/>
		<path fill="#5EB8FA" transform="scale(0.879121 0.878906)" d="M806.221 139.789L960.945 139.695C975.078 139.703 1009.04 137.924 1020.86 140.37L1022.24 140.343C1024.48 140.256 1026.99 139.702 1028.97 140.77C1030.81 159.114 1029.55 178.888 1029.6 197.392C1029.67 219.768 1030.99 243.141 1029.23 265.392C1029.07 267.321 1028.75 268.63 1027.64 270.232C1036.25 270.549 1045.36 271.177 1053.93 270.252C1066.17 271.012 1078.66 270.748 1090.92 270.443C1091.68 271.872 1092.07 273.111 1092.19 274.72C1092.95 285.148 1093.28 374.812 1091.75 379.055C1091.55 379.619 1091.24 380.135 1090.92 380.632C1078.55 380.527 1048.99 378.51 1038.62 381.305C1041.69 384.281 1041.83 385.885 1041.91 390.072C1041.98 393.885 1042.29 397.966 1039.24 400.832C1033.18 406.533 1015.26 403.344 1007.1 403.484C1007.27 419.747 1006.5 436.181 1007.14 452.404C996.559 452.394 985.771 452.802 975.209 452.334C969.319 457.217 962.915 461.978 957.789 467.663L958.34 468.345Q963.001 468.507 967.665 468.561C967.708 478.264 968.91 489.517 967.217 499.018C964.453 499.514 961.769 499.807 958.969 499.989L957.263 499.452Q936.68 499.68 916.097 499.447C897.943 500.455 879.328 499.635 861.122 499.654L846.94 499.573L846.926 469.082C850.83 468.517 854.887 468.587 858.831 468.478C853.394 463.364 848.222 458.043 843.078 452.635C832.35 452.044 821.328 452.456 810.568 452.394L810.466 403.683C802.774 403.541 786.21 406.289 780.347 400.604C775.221 395.635 776.487 387.569 776.641 381.111C766.059 379.566 727.335 383.328 721.914 379.954L721.356 375.781C721.973 358.376 721.6 340.859 721.596 323.441C721.593 306.85 721.988 290.138 721.27 273.565L721.828 271.249C725.579 268.866 781.584 270.245 789.775 270.272C789.653 242.189 790.186 214.093 789.784 186.013C790.204 170.587 789.907 155.094 789.888 139.66L806.221 139.789Z"/>
		<path fill="#34234D" transform="scale(0.879121 0.878906)" d="M806.221 139.789L960.945 139.695C975.078 139.703 1009.04 137.924 1020.86 140.37L1022.24 140.343C1024.48 140.256 1026.99 139.702 1028.97 140.77C1030.81 159.114 1029.55 178.888 1029.6 197.392C1029.67 219.768 1030.99 243.141 1029.23 265.392C1029.07 267.321 1028.75 268.63 1027.64 270.232L1020.26 270.526C1011.15 270.587 1001.44 271.795 992.426 270.494L991.835 270.498C988.04 270.545 981.656 271.716 978.526 269.428C976.613 266.82 977.196 263.085 977.266 260.001L976.871 270.311L919.381 270.268Q886.432 270.182 853.483 270.457L827.696 270.397L815.758 270.349L798.127 270.327L789.775 270.272C789.653 242.189 790.186 214.093 789.784 186.013C790.204 170.587 789.907 155.094 789.888 139.66L806.221 139.789Z"/>
		<path fill="#FE5168" transform="scale(0.879121 0.878906)" d="M853.283 141.25L919.363 141.328C918.536 162.557 919.367 183.952 919.441 205.198C919.515 226.852 918.837 248.636 919.381 270.268Q886.432 270.182 853.483 270.457C853.004 255.064 853.556 239.493 853.588 224.084Q853.674 182.666 853.283 141.25Z"/>
		<path fill="#fff" transform="scale(0.879121 0.878906)" d="M977.417 141.09L977.266 260.001L976.871 270.311L919.381 270.268C918.837 248.636 919.515 226.852 919.441 205.198C919.367 183.952 918.536 162.557 919.363 141.328C938.306 141.383 958.624 142.96 977.417 141.09Z"/>
		<path fill="#FB969B" transform="scale(0.879121 0.878906)" d="M1022.24 140.343C1024.48 140.256 1026.99 139.702 1028.97 140.77C1030.81 159.114 1029.55 178.888 1029.6 197.392C1029.67 219.768 1030.99 243.141 1029.23 265.392C1029.07 267.321 1028.75 268.63 1027.64 270.232L1020.26 270.526C1011.15 270.587 1001.44 271.795 992.426 270.494L1002.98 270.427C1002.52 252.86 1003.17 235.229 1003.23 217.654Q1003.13 179.491 1003.48 141.33C1008.81 141.312 1014.21 141.469 1019.53 141.2L1022.24 140.343Z"/>
		<path fill="#FE5168" transform="scale(0.879121 0.878906)" d="M1022.24 140.343C1024.48 140.256 1026.99 139.702 1028.97 140.77C1030.81 159.114 1029.55 178.888 1029.6 197.392C1029.67 219.768 1030.99 243.141 1029.23 265.392C1029.07 267.321 1028.75 268.63 1027.64 270.232L1020.26 270.526C1020.5 255.818 1021.78 145.66 1019.53 141.2L1022.24 140.343Z"/>
		<path fill="#FB969B" transform="scale(0.879121 0.878906)" d="M789.888 139.66L806.221 139.789C802.083 139.96 796.368 139.477 792.53 140.922L798.004 141.257L815.62 141.319C816.344 184.219 816.524 227.454 815.758 270.349L798.127 270.327L789.775 270.272C789.653 242.189 790.186 214.093 789.784 186.013C790.204 170.587 789.907 155.094 789.888 139.66Z"/>
		<path fill="#FE5168" transform="scale(0.879121 0.878906)" d="M789.888 139.66L806.221 139.789C802.083 139.96 796.368 139.477 792.53 140.922L798.004 141.257C797.06 157.011 797.669 173.06 797.735 188.845L798.127 270.327L789.775 270.272C789.653 242.189 790.186 214.093 789.784 186.013C790.204 170.587 789.907 155.094 789.888 139.66Z"/>
		<path fill="#FE5168" transform="scale(0.879121 0.878906)" d="M815.62 141.319L827.524 141.263L827.696 270.397L815.758 270.349C816.524 227.454 816.344 184.219 815.62 141.319Z"/>
		<path fill="#FE5168" transform="scale(0.879121 0.878906)" d="M991.717 141.314L1003.48 141.33Q1003.13 179.491 1003.23 217.654C1003.17 235.229 1002.52 252.86 1002.98 270.427L992.426 270.494L991.835 270.498L991.717 141.314Z"/>
		<path fill="#34234D" transform="scale(0.879121 0.878906)" d="M776.641 381.111C801.265 381.936 826.058 381.38 850.7 381.374L975.589 381.265C984.161 381.231 1033.68 379.458 1038.62 381.305C1041.69 384.281 1041.83 385.885 1041.91 390.072C1041.98 393.885 1042.29 397.966 1039.24 400.832C1033.18 406.533 1015.26 403.344 1007.1 403.484C1007.27 419.747 1006.5 436.181 1007.14 452.404C996.559 452.394 985.771 452.802 975.209 452.334C969.319 457.217 962.915 461.978 957.789 467.663L958.34 468.345Q963.001 468.507 967.665 468.561C967.708 478.264 968.91 489.517 967.217 499.018C964.453 499.514 961.769 499.807 958.969 499.989L957.263 499.452Q936.68 499.68 916.097 499.447C897.943 500.455 879.328 499.635 861.122 499.654L846.94 499.573L846.926 469.082C850.83 468.517 854.887 468.587 858.831 468.478C853.394 463.364 848.222 458.043 843.078 452.635C832.35 452.044 821.328 452.456 810.568 452.394L810.466 403.683C802.774 403.541 786.21 406.289 780.347 400.604C775.221 395.635 776.487 387.569 776.641 381.111Z"/>
		<path fill="#fff" transform="scale(0.879121 0.878906)" d="M912.728 469.394C921.852 469.372 931.075 469.058 940.187 469.438L950.003 469.582C949.96 477.102 947.581 491.298 951.403 497.715C953.366 498.67 954.96 498.543 957.107 498.469L957.263 499.452Q936.68 499.68 916.097 499.447L915.873 498.772L913.119 498.177C911.364 489.522 912.685 478.305 912.728 469.394Z"/>
		<path fill="#AF2F46" transform="scale(0.879121 0.878906)" d="M940.187 469.438L950.003 469.582C949.96 477.102 947.581 491.298 951.403 497.715C953.366 498.67 954.96 498.543 957.107 498.469L957.263 499.452Q936.68 499.68 916.097 499.447L915.873 498.772C923.957 498.42 932.129 498.58 940.225 498.505L940.187 469.438Z"/>
		<path fill="#FE5168" transform="scale(0.879121 0.878906)" d="M882.487 469.158C892.184 470.419 902.929 469.488 912.728 469.394C912.685 478.305 911.364 489.522 913.119 498.177C903.71 500.027 892.087 498.748 882.421 498.753L882.487 469.158Z"/>
		<path fill="#E5E5E6" transform="scale(0.879121 0.878906)" d="M957.622 469.393L959.31 469.26C960.347 471.018 960.246 472.441 960.227 474.442C960.256 481.958 960.68 489.727 960.053 497.208L958.969 499.989L957.263 499.452L957.107 498.469C954.96 498.543 953.366 498.67 951.403 497.715C947.581 491.298 949.96 477.102 950.003 469.582C952.586 469.675 955.057 469.81 957.622 469.393Z"/>
		<path fill="#AF2F46" transform="scale(0.879121 0.878906)" d="M957.622 469.393L959.31 469.26C960.347 471.018 960.246 472.441 960.227 474.442C960.256 481.958 960.68 489.727 960.053 497.208L958.969 499.989L957.263 499.452L957.107 498.469C955.923 489.795 955.78 477.918 957.622 469.393Z"/>
		<path fill="#fff" transform="scale(0.879121 0.878906)" d="M960.227 474.442C960.522 472.003 960.204 471.461 962.137 469.821L964.044 469.8C967.379 473.155 967.37 479.761 967.379 484.387C967.387 488.094 967.478 494.811 964.985 497.74C962.721 498.068 962.197 498.008 960.053 497.208C960.68 489.727 960.256 481.958 960.227 474.442Z"/>
		<path fill="#FE5168" transform="scale(0.879121 0.878906)" d="M914.783 403.809Q940.434 404.081 966.081 403.577C966.108 418.887 967.046 434.799 965.898 450.035L965.079 450.087C956.442 451.773 945.71 450.635 936.867 450.633L861.867 450.013C858.979 443.825 860.852 413.125 860.834 403.909L914.783 403.809Z"/>
		<path fill="#fff" transform="scale(0.879121 0.878906)" d="M914.783 403.809Q940.434 404.081 966.081 403.577C966.108 418.887 967.046 434.799 965.898 450.035L965.079 450.087C948.29 449.827 931.453 450.148 914.659 450.205Q914.499 427.006 914.783 403.809Z"/>
		<path fill="#FE5168" transform="scale(0.879121 0.878906)" d="M821.165 403.762L837.143 403.737L837.189 450.797L821.224 450.721C819.24 450.795 817.141 450.965 815.169 450.742C814.341 450.649 812.361 450.546 811.924 449.787C810.132 446.67 810.578 409.368 811.599 404.715C814.446 403.135 817.993 403.684 821.165 403.762Z"/>
		<path fill="#FB969B" transform="scale(0.879121 0.878906)" d="M821.224 450.721C819.24 450.795 817.141 450.965 815.169 450.742C814.341 450.649 812.361 450.546 811.924 449.787C810.132 446.67 810.578 409.368 811.599 404.715C814.446 403.135 817.993 403.684 821.165 403.762C821.903 419.341 821.376 435.121 821.224 450.721Z"/>
		<path fill="#AF2F46" transform="scale(0.879121 0.878906)" d="M988.945 403.608L997.294 403.605C999.622 403.584 1003.77 402.982 1005.64 404.399C1006.36 410.831 1006.97 446.859 1004.57 450.363C1002.1 450.742 999.955 450.835 997.471 450.694C994.704 450.495 991.801 450.705 989.022 450.754C986.649 450.788 984.615 450.74 982.292 450.122C980.957 442.75 980.821 412.229 982.197 404.555C984.076 403.332 986.711 403.697 988.945 403.608Z"/>
		<path fill="#fff" transform="scale(0.879121 0.878906)" d="M997.294 403.605C999.622 403.584 1003.77 402.982 1005.64 404.399C1006.36 410.831 1006.97 446.859 1004.57 450.363C1002.1 450.742 999.955 450.835 997.471 450.694L997.294 403.605Z"/>
		<path fill="#fff" transform="scale(0.879121 0.878906)" d="M989.022 450.754C986.649 450.788 984.615 450.74 982.292 450.122C980.957 442.75 980.821 412.229 982.197 404.555C984.076 403.332 986.711 403.697 988.945 403.608L989.022 450.754Z"/>
		<path fill="#FE5168" transform="scale(0.879121 0.878906)" d="M856.641 469.99L867.837 470.03C867.876 477.427 869.956 491.47 866.373 497.878C864.773 499.091 863.039 498.932 861.11 498.998L856.695 498.313C854.138 498.32 851.33 498.624 848.931 497.65C848.816 493.597 847.898 472.239 849.435 470.134L856.641 469.99Z"/>
		<path fill="#E5E5E6" transform="scale(0.879121 0.878906)" d="M856.695 498.313C854.138 498.32 851.33 498.624 848.931 497.65C848.816 493.597 847.898 472.239 849.435 470.134L856.641 469.99L856.695 498.313Z"/>
		<path fill="#34234D" transform="scale(0.879121 0.878906)" d="M789.351 303.225C793.351 302.791 797.701 302.683 801.526 304.087C806.994 306.094 811.507 310.114 813.793 315.502Q813.984 315.963 814.152 316.432Q814.32 316.902 814.465 317.379Q814.609 317.857 814.73 318.341Q814.851 318.825 814.947 319.314Q815.043 319.804 815.115 320.297Q815.187 320.791 815.234 321.287Q815.281 321.784 815.304 322.282Q815.326 322.78 815.324 323.279Q815.321 323.778 815.294 324.276Q815.266 324.774 815.214 325.27Q815.162 325.766 815.086 326.259Q815.009 326.752 814.908 327.241Q814.807 327.729 814.681 328.212Q814.556 328.695 814.407 329.17Q814.257 329.646 814.085 330.114Q813.912 330.582 813.716 331.041C810.884 337.744 805.988 341.081 799.494 343.801C794.821 344.378 790.505 344.429 786.038 342.706C780.995 340.761 776.69 336.892 774.596 331.869Q774.398 331.399 774.223 330.92Q774.048 330.441 773.898 329.954Q773.747 329.467 773.621 328.972Q773.495 328.478 773.394 327.978Q773.292 327.479 773.216 326.974Q773.14 326.47 773.089 325.963Q773.038 325.455 773.013 324.946Q772.987 324.437 772.987 323.927Q772.987 323.417 773.013 322.907Q773.038 322.398 773.089 321.891Q773.14 321.383 773.216 320.879Q773.292 320.375 773.393 319.875Q773.494 319.375 773.62 318.881Q773.746 318.387 773.897 317.899Q774.047 317.412 774.222 316.933Q774.397 316.454 774.595 315.984C777.543 309.007 782.593 305.94 789.351 303.225Z"/>
		<path fill="#34234D" transform="scale(0.879121 0.878906)" d="M1022.43 303.241C1027.53 303.054 1032.19 303.704 1036.44 306.747Q1036.87 307.05 1037.28 307.374Q1037.7 307.699 1038.09 308.044Q1038.49 308.389 1038.87 308.753Q1039.24 309.118 1039.6 309.502Q1039.96 309.885 1040.3 310.286Q1040.64 310.688 1040.96 311.105Q1041.28 311.523 1041.57 311.957Q1041.87 312.391 1042.14 312.839Q1042.42 313.287 1042.67 313.748Q1042.92 314.21 1043.15 314.683Q1043.37 315.157 1043.58 315.642Q1043.78 316.126 1043.96 316.621Q1044.14 317.115 1044.29 317.617Q1044.44 318.12 1044.57 318.63Q1044.69 319.14 1044.79 319.655Q1044.9 320.171 1044.97 320.691C1045.79 326.12 1044.61 331.754 1041.3 336.19C1037.49 341.313 1032.51 343.246 1026.39 344.204C1022.66 344.753 1018.48 343.75 1015.11 342.146C1010.39 339.908 1007.07 335.998 1005.45 331.054Q1005.28 330.544 1005.14 330.025Q1004.99 329.507 1004.88 328.982Q1004.76 328.457 1004.67 327.927Q1004.58 327.397 1004.52 326.863Q1004.46 326.329 1004.42 325.792Q1004.39 325.256 1004.38 324.718Q1004.37 324.18 1004.39 323.643Q1004.41 323.106 1004.46 322.57Q1004.5 322.034 1004.58 321.501Q1004.65 320.969 1004.75 320.441Q1004.85 319.912 1004.98 319.39Q1005.11 318.868 1005.26 318.353Q1005.41 317.837 1005.59 317.331Q1005.77 316.824 1005.98 316.327Q1006.18 315.83 1006.41 315.344Q1006.65 314.858 1006.9 314.385C1010.41 307.848 1015.57 305.302 1022.43 303.241Z"/>
		<path fill="#34234D" transform="scale(0.879121 0.878906)" d="M460.961 312.093C473.463 312.014 531.732 309.074 539.102 315.697C543.816 331.614 541.479 381.603 541.589 400.469L541.409 651.979C565.73 643.959 590.687 634.359 616.676 634.522L615.952 636.41C598.937 637.35 583.186 640.566 566.992 645.779C558.733 648.437 549.738 652.303 541.183 653.657L540.852 686.394C546.067 686.426 551.519 686.13 556.693 686.74C552.192 686.578 544.429 685.415 540.86 688.644C540.519 688.952 540.354 689.18 540.059 689.525C539.936 689.67 539.809 689.812 539.687 689.957C539.412 690.282 539.158 690.625 538.906 690.968C533.757 691.185 528.175 690.079 523.139 690.75C508.971 692.639 498.86 699.164 483.542 695.469C478.906 694.873 473.923 695.179 469.24 695.132C453.256 694.285 435.76 696.726 420.048 693.721C417.902 694.974 415.733 696.19 413.681 697.594L371.807 697.665C363.525 697.664 354.135 698.404 345.983 696.791C344.059 696.411 342.678 695.543 341.178 694.322L341.164 437.125L341.104 361.34C341.089 348.814 340.23 335.669 341.359 323.218C341.669 319.803 342.483 317.574 344.97 315.132C347.119 313.024 351.165 312.656 354.061 312.361C365.861 311.16 378.47 312.031 390.351 312.022L460.961 312.093Z"/>
		<path fill="#FE5168" transform="scale(0.879121 0.878906)" d="M483.579 671.815C502.596 665.225 521.94 659.547 541.183 653.657L540.852 686.394C546.067 686.426 551.519 686.13 556.693 686.74C552.192 686.578 544.429 685.415 540.86 688.644C540.519 688.952 540.354 689.18 540.059 689.525C539.936 689.67 539.809 689.812 539.687 689.957C539.412 690.282 539.158 690.625 538.906 690.968C533.757 691.185 528.175 690.079 523.139 690.75C508.971 692.639 498.86 699.164 483.542 695.469L483.579 671.815Z"/>
		<path fill="#fff" transform="scale(0.879121 0.878906)" d="M483.579 671.815L483.542 695.469C478.906 694.873 473.923 695.179 469.24 695.132C453.256 694.285 435.76 696.726 420.048 693.721C436.254 687.514 453.067 682.414 469.514 676.842L483.579 671.815Z"/>
		<path fill="#fff" transform="scale(0.879121 0.878906)" d="M473.692 432.895C477.211 433.069 481.072 432.959 484.522 433.603L484.517 601.042C474.838 601.068 464.919 600.682 455.264 601.152L437.661 600.967L403.389 600.893L403.29 433.525C426.722 433.324 450.278 433.679 473.692 432.895Z"/>
		<path fill="#E5E5E6" transform="scale(0.879121 0.878906)" d="M473.692 432.895C477.211 433.069 481.072 432.959 484.522 433.603C469.075 435.106 452.832 434.085 437.281 434.09L437.365 542.526C437.367 561.823 436.4 581.729 437.661 600.967L403.389 600.893L403.29 433.525C426.722 433.324 450.278 433.679 473.692 432.895Z"/>
		<path fill="#fff" transform="scale(0.879121 0.878906)" d="M460.431 313.775C468.096 313.751 477.195 312.81 484.662 314.402Q484.903 372.789 484.516 431.175C474.416 431.173 463.528 430.432 453.503 431.295L437.266 431.13L403.385 431.109L403.248 314.087L460.431 313.775Z"/>
		<path fill="#E5E5E6" transform="scale(0.879121 0.878906)" d="M460.431 313.775C468.096 313.751 477.195 312.81 484.662 314.402C469.123 315.912 452.957 314.371 437.314 314.86C437.274 353.602 436.81 392.393 437.266 431.13L403.385 431.109L403.248 314.087L460.431 313.775Z"/>
		<path fill="#fff" transform="scale(0.879121 0.878906)" d="M467.648 602.73L467.471 603.55C473.162 603.277 478.802 603.272 484.496 603.357L484.526 669.07C479.013 671.084 473.512 673.24 467.907 674.985C458.244 678.36 448.594 681.947 438.863 685.113C421.103 691.072 422.063 691.194 403.36 690.725L403.377 603.192C424.742 603.122 446.311 603.684 467.648 602.73Z"/>
		<path fill="#E5E5E6" transform="scale(0.879121 0.878906)" d="M467.648 602.73L467.471 603.55C457.654 604.197 447.731 603.896 437.895 603.862C437.712 614.717 435.539 680.306 438.863 685.113C421.103 691.072 422.063 691.194 403.36 690.725L403.377 603.192C424.742 603.122 446.311 603.684 467.648 602.73Z"/>
		<path fill="#5EB8FA" transform="scale(0.879121 0.878906)" d="M524.219 433.207L539.671 433.029L539.528 601.028L523.985 600.993L502.022 600.999L501.859 433.464C509.324 433.515 516.76 433.517 524.219 433.207Z"/>
		<path fill="#fff" transform="scale(0.879121 0.878906)" d="M524.219 433.207L539.671 433.029L539.528 601.028L523.985 600.993C524.214 545.086 523.495 489.101 524.219 433.207Z"/>
		<path fill="#5EB8FA" transform="scale(0.879121 0.878906)" d="M357.959 433.034L375.734 433.008L375.752 601.062L358.088 601.044L342.919 601.053L342.906 433.081L357.959 433.034Z"/>
		<path fill="#fff" transform="scale(0.879121 0.878906)" d="M342.906 433.081L357.959 433.034C358.754 489.006 358.116 545.063 358.088 601.044L342.919 601.053L342.906 433.081Z"/>
		<path fill="#5EB8FA" transform="scale(0.879121 0.878906)" d="M501.978 313.778L524.43 313.768C528.778 313.877 533.435 313.82 536.689 317.217C538.436 319.04 538.958 321.175 539.272 323.6C540.847 335.788 539.726 349.356 539.72 361.703C539.71 384.822 539.919 407.967 539.657 431.084L523.95 431.112L501.909 431.212L501.978 313.778Z"/>
		<path fill="#fff" transform="scale(0.879121 0.878906)" d="M524.43 313.768C528.778 313.877 533.435 313.82 536.689 317.217C538.436 319.04 538.958 321.175 539.272 323.6C540.847 335.788 539.726 349.356 539.72 361.703C539.71 384.822 539.919 407.967 539.657 431.084L523.95 431.112Q523.847 372.439 524.43 313.768Z"/>
		<path fill="#5EB8FA" transform="scale(0.879121 0.878906)" d="M358.066 313.801L375.887 313.802L375.666 431.206L358.104 431.177L342.842 431.2L342.739 358.322C342.723 347.059 341.718 334.756 343.117 323.635C343.455 320.948 344.148 318.372 346.189 316.441C349.304 313.491 354.086 313.894 358.066 313.801Z"/>
		<path fill="#fff" transform="scale(0.879121 0.878906)" d="M342.842 431.2L342.739 358.322C342.723 347.059 341.718 334.756 343.117 323.635C343.455 320.948 344.148 318.372 346.189 316.441C349.304 313.491 354.086 313.894 358.066 313.801C358.817 352.891 358.186 392.076 358.104 431.177L342.842 431.2Z"/>
		<path fill="#5EB8FA" transform="scale(0.879121 0.878906)" d="M342.829 603.265L358.079 603.305L375.692 603.307L375.711 690.755L358.076 690.888L343.014 691.66L342.829 603.265Z"/>
		<path fill="#fff" transform="scale(0.879121 0.878906)" d="M342.829 603.265L358.079 603.305L358.076 690.888L343.014 691.66L342.829 603.265Z"/>
		<path fill="#5EB8FA" transform="scale(0.879121 0.878906)" d="M524.029 603.218C529.194 602.749 534.255 602.718 539.432 602.775L539.456 652.454C534.364 654.09 529.282 655.824 524.108 657.181C516.688 658.969 509.38 661.461 502.085 663.709L502.09 603.453C509.416 603.53 516.709 603.588 524.029 603.218Z"/>
		<path fill="#fff" transform="scale(0.879121 0.878906)" d="M524.029 603.218C529.194 602.749 534.255 602.718 539.432 602.775L539.456 652.454C534.364 654.09 529.282 655.824 524.108 657.181C523.831 639.207 524.05 621.196 524.029 603.218Z"/>
		<path fill="#5EB8FA" transform="scale(0.879121 0.878906)" d="M1102.09 270.387C1111.31 270.274 1126.08 268.158 1134.42 272.511C1136.41 275.069 1136.61 279.079 1136.87 282.221C1138.25 298.606 1137.01 315.912 1136.89 332.38C1136.79 345.4 1137.9 359.259 1136.29 372.144C1135.91 375.157 1135.72 377.951 1133.42 380.006C1124.14 382.977 1111.8 380.817 1102.12 380.874C1104.88 374.313 1104.69 339.354 1102.65 332.312L1101.76 329.834C1102.85 326.234 1102.71 321.909 1102.94 318.144L1102.2 314.788C1104.56 309.879 1104.6 277.124 1102.72 271.906Q1102.45 271.129 1102.09 270.387Z"/>
		<path fill="#34234D" transform="scale(0.879121 0.878906)" d="M1102.94 318.144C1106.94 315.05 1110.7 312.537 1116.01 313.186C1119.24 313.581 1122.2 315.119 1124.16 317.762C1126.23 320.548 1126.98 324.214 1126.37 327.612C1125.87 330.433 1124.22 333.254 1121.85 334.916C1119.11 336.85 1114.88 337.576 1111.61 336.882C1108.01 336.119 1105.8 333.861 1102.65 332.312L1101.76 329.834C1102.85 326.234 1102.71 321.909 1102.94 318.144Z"/>
		<path fill="#5EB8FA" transform="scale(0.879121 0.878906)" d="M681.641 281.259C682.925 279.261 684.243 277.079 685.938 275.405C692.771 268.654 703.748 270.238 712.533 270.3C712.544 285.682 712.78 301.099 712.556 316.478C714.634 320.656 717.078 324.937 715.341 329.717C714.736 331.383 713.608 333.238 712.589 334.675L712.529 380.567C705.641 380.616 698.652 380.411 691.777 380.74Q687.674 377.28 683.618 373.765C683.336 373.091 683.094 372.418 682.829 371.74C679.199 362.445 681.444 296.629 681.641 281.259Z"/>
		<path fill="#34234D" transform="scale(0.879121 0.878906)" d="M712.589 334.675C711.058 335.599 709.43 336.63 707.715 337.165C704.518 338.163 700.547 338.398 697.59 336.644C695.121 335.18 693.561 332.55 692.853 329.821Q692.653 329.054 692.533 328.271Q692.412 327.488 692.373 326.697Q692.333 325.906 692.375 325.115Q692.417 324.323 692.539 323.541Q692.662 322.758 692.864 321.992Q693.066 321.226 693.345 320.485Q693.625 319.743 693.979 319.035Q694.332 318.326 694.757 317.657C696.334 315.167 698.784 313.397 701.724 312.934C705.929 312.271 709.31 314.073 712.556 316.478C714.634 320.656 717.078 324.937 715.341 329.717C714.736 331.383 713.608 333.238 712.589 334.675Z"/>
		<path fill="#34234D" transform="scale(0.879121 0.878906)" d="M1156.03 428.881C1156.72 428.743 1157.44 428.569 1158.14 428.553C1160.42 428.5 1160.91 428.763 1162.52 430.21C1162.63 431.083 1162.67 431.958 1162.45 432.822C1161.52 436.472 1115.51 495.54 1109.57 502.376C1107.3 504.995 1104.9 507.652 1101.74 509.197C1093.29 507.605 1089.68 497.447 1082.61 493.359C1082.43 493.258 1082.25 493.166 1082.07 493.07C1080.72 496.749 1023.28 559.458 1015.85 567.414C1013.74 567.93 1013.45 567.684 1011.5 566.95C1010.75 565.635 1010.05 564.948 1010.46 563.333C1011.38 559.751 1074.57 489.763 1080.41 486.177C1083.38 485.852 1085.54 486.663 1088.07 488.076C1091.77 490.146 1098.98 497.309 1100.1 501.411C1103.54 499.194 1154.65 432.977 1156.03 428.881Z"/>
		<path fill="#34234D" transform="scale(0.879121 0.878906)" d="M656.568 430.095C658.643 430.517 660.347 431.428 661.888 432.884C668.139 438.784 673.232 446.702 678.597 453.444L716.228 501.256C720.034 497.36 723.896 492.965 728.128 489.554C731.124 487.139 734.534 485.28 738.482 485.759C746.564 490.293 801.263 555.653 805.744 563.515C805.545 566.227 804.483 566.86 802.714 568.814C792.127 560.784 782.639 546.729 774.176 536.417Q755.788 514.133 737.096 492.103C730.52 496.166 725.452 502.491 719.205 506.997C717.491 508.234 716.446 509.181 714.307 508.854C708.581 503.042 657.002 439.985 655.378 434.996C654.782 433.162 655.848 431.739 656.568 430.095Z"/>
		<path fill="#34234D" transform="scale(0.879121 0.878906)" d="M1425.83 168.442C1428.03 168.304 1429.35 168.262 1431.24 169.502C1431.6 170.895 1432.02 171.685 1431.37 173.111C1428.99 178.26 1361.03 245.144 1356.35 247.076C1354.77 246.966 1354.53 246.746 1353.22 245.826C1352.86 243.492 1353.05 242.622 1354.46 240.575C1358.44 234.802 1364.71 229.595 1369.69 224.672L1407.07 187.785C1413.16 181.775 1420.89 175.398 1425.83 168.442Z"/>
		<path fill="#34234D" transform="scale(0.879121 0.878906)" d="M388.855 168.512C394.032 168.639 397.606 173.233 401.061 176.662C415.099 190.6 428.787 204.921 442.707 218.981C449.489 225.831 459.18 233.561 464.307 241.495C465.754 243.735 465.524 245.018 465.533 247.553L461.206 247.268C456.941 244.877 393.432 180.711 389.196 174.765C387.757 172.744 388.504 170.746 388.855 168.512Z"/>
		<path fill="#34234D" transform="scale(0.879121 0.878906)" d="M274.139 518.621C275.301 518.592 276.26 519.086 277.336 519.49C278.474 521.606 278.66 521.579 278.004 523.857C276.329 525.38 274.372 525.953 272.215 526.437C264.287 528.217 255.677 528.664 247.597 529.869L190.377 538.546C188.756 538.672 188.075 538.399 186.647 537.744C185.688 535.579 185.555 535.347 186.029 533.048C186.589 532.554 187.329 531.69 187.96 531.344C191.937 529.161 264.697 519.655 274.139 518.621Z"/>
		<path fill="#34234D" transform="scale(0.879121 0.878906)" d="M204.558 424.439C206.437 424.589 207.854 425.005 209.483 425.971C217.562 430.762 225.174 437.219 232.848 442.68C246.327 452.271 266.924 464.56 277.916 475.968C278.257 478.646 277.518 479.935 276.553 482.397C270.69 480.707 207.881 435.841 203.585 430.348C203.183 427.768 203.661 426.818 204.558 424.439Z"/>
		<path fill="#34234D" transform="scale(0.879121 0.878906)" d="M605.799 496.32C613.542 498.064 679.875 531.587 686.694 537.287C687.163 540.006 686.455 540.821 685.281 543.224C678.603 541.342 609.554 507.002 604.311 502.337C603.623 499.503 604.472 498.798 605.799 496.32Z"/>
		<path fill="#34234D" transform="scale(0.879121 0.878906)" d="M1212.16 497.33C1212.71 497.29 1212.86 497.261 1213.49 497.321C1215.66 497.528 1216.11 497.728 1217.42 499.445L1216.97 501.454C1212.64 506.327 1143.41 539.814 1134.96 542.201C1134.67 542.062 1134.36 541.957 1134.08 541.785C1132.33 540.686 1131.86 539.7 1131.57 537.767C1134.27 533.066 1200.72 502.9 1212.16 497.33Z"/>
		<path fill="#34234D" transform="scale(0.879121 0.878906)" d="M1620.43 424.443C1622.57 424.245 1623.67 424.525 1625.56 425.55C1626.17 427.452 1625.97 427.603 1625.34 429.405C1616.49 436.812 1556.92 477.86 1549.77 480.446C1548.48 480.747 1547.5 480.193 1546.33 479.709L1546.04 477.996C1548.99 470.106 1608.93 434.085 1620.43 424.443Z"/>
		<path fill="#34234D" transform="scale(0.879121 0.878906)" d="M1545.38 517.776C1546.66 517.586 1547.81 517.585 1549.09 517.684C1564.12 518.847 1579.54 522.399 1594.46 524.763C1605.91 526.578 1618.2 527.462 1629.43 530.093C1631.65 530.613 1632.46 530.997 1633.92 532.699C1633.76 534.961 1633.71 534.909 1632.04 536.455C1631.89 536.534 1631.74 536.63 1631.58 536.691C1629.38 537.549 1551.8 526.099 1545.56 523.178C1544.33 520.895 1544.82 520.208 1545.38 517.776Z"/>
	</g>
	<g>
		<path fill="#fff" transform="scale(0.879121 0.878906)" d="M0 0L1818.44 0C1820.58 3.35778 1819.99 8.22266 1820 12.0828L1820 742.336L1820.01 943.951L1820 997.417C1819.99 1004.76 1820.98 1013.76 1819.75 1020.9C1819.56 1022.02 1819.05 1023.05 1818.44 1024L0 1024L0 0ZM1218.95 634.534C1216.15 632.633 815.615 633.729 772.028 634.042L660.867 633.875C650.953 633.874 625.273 632.29 616.676 634.522C590.687 634.359 565.73 643.959 541.409 651.979L541.589 400.469C541.479 381.603 543.816 331.614 539.102 315.697C531.732 309.074 473.463 312.014 460.961 312.093L390.351 312.022C378.47 312.031 365.861 311.16 354.061 312.361C351.165 312.656 347.119 313.024 344.97 315.132C342.483 317.574 341.669 319.803 341.359 323.218C340.23 335.669 341.089 348.814 341.104 361.34L341.164 437.125L341.178 694.322C329.672 694.292 301.629 692.16 292.155 696.071C286.997 701.787 288.588 749.028 289.097 758.931C289.3 762.895 289.362 765.78 292.403 768.663C293.973 770.151 296.413 771.309 298.396 772.159C294.875 774.372 290.126 776.897 288.884 781.2C286.6 789.118 288.297 843.132 288.303 856.38C288.313 880.758 287.152 905.586 288.208 929.918C288.258 931.077 288.451 931.829 289.091 932.812C289.808 933.912 290.712 934.96 291.597 935.932C271.028 935.105 250.259 935.676 229.662 935.414L155.691 935.256C143.432 935.234 130.415 934.322 118.221 935.403C116.277 935.575 113.857 935.888 112.341 937.227C112.092 937.447 111.87 937.697 111.635 937.932C111.805 939.433 111.623 939.733 112.801 940.694C114.919 942.423 117.861 943.026 120.54 943.175C134.238 943.937 148.782 942.732 162.604 942.761L269.466 942.93L623.504 942.668L1376.34 942.987L1606.45 943.053L1676.59 942.878C1685.08 942.813 1694.39 943.814 1702.76 942.691C1704.34 942.479 1705.38 942.089 1706.7 941.154C1707.52 939.001 1707.54 938.972 1706.76 936.808C1706.28 936.485 1705.32 935.638 1704.81 935.503C1698.76 933.899 1685.9 935.264 1679.04 935.266C1649.74 935.279 1619.67 936.678 1590.46 935.057C1568.14 935.786 1545.51 935.514 1523.18 934.978C1525.83 933.181 1527.9 931.201 1529 928.112C1531.43 921.294 1530.32 801.329 1529.9 788.438C1529.8 785.432 1529.85 781.96 1528.55 779.204C1526.47 774.781 1522.95 772.913 1518.52 771.434C1519.19 771.263 1519.79 771.092 1520.43 770.833C1523.77 769.493 1527.17 767.525 1528.53 763.998C1530.7 758.358 1530.61 701.733 1528.4 696.408C1510.75 694.876 1491.95 696.077 1474.16 695.973C1470.15 694.466 1448.98 695.325 1443.78 696.013C1443.58 696.039 1443.38 696.071 1443.18 696.1L1441.85 694.776L1441.68 695.488C1450.22 694.783 1459.97 696.195 1468.24 694.177C1471.12 693.473 1473.09 692.43 1474.65 689.791C1476.79 678.247 1475.34 664.172 1475.4 652.365L1475.53 567.211L1475.61 407.046C1475.61 381.7 1476.17 356.215 1475.51 330.884C1475.38 326.179 1475.18 320.829 1473.07 316.559C1470.09 314.101 1466.71 313.294 1462.94 312.78C1450.14 311.03 1416.31 312.213 1402.02 312.741C1386.72 310.759 1366.77 312.392 1350.97 312.409C1330.89 312.43 1309.81 311.091 1289.84 312.511C1287.27 312.694 1284.7 313.201 1282.63 314.846C1278.86 317.851 1278.52 321.822 1278.11 326.414C1276.29 346.477 1277.75 367.891 1277.77 388.111L1277.88 561.65L1277.91 617.129C1277.92 626.893 1278.44 636.927 1277.78 646.658C1277.65 648.478 1277.23 649.868 1276.21 651.41C1266.27 647.016 1229.16 635.562 1218.95 634.534ZM789.888 139.66C789.907 155.094 790.204 170.587 789.784 186.013C790.186 214.093 789.653 242.189 789.775 270.272C781.584 270.245 725.579 268.866 721.828 271.249L721.27 273.565C721.988 290.138 721.593 306.85 721.596 323.441C721.6 340.859 721.973 358.376 721.356 375.781L721.914 379.954C727.335 383.328 766.059 379.566 776.641 381.111C776.487 387.569 775.221 395.635 780.347 400.604C786.21 406.289 802.774 403.541 810.466 403.683L810.568 452.394C821.328 452.456 832.35 452.044 843.078 452.635C848.222 458.043 853.394 463.364 858.831 468.478C854.887 468.587 850.83 468.517 846.926 469.082L846.94 499.573L861.122 499.654C879.328 499.635 897.943 500.455 916.097 499.447Q936.68 499.68 957.263 499.452L958.969 499.989C961.769 499.807 964.453 499.514 967.217 499.018C968.91 489.517 967.708 478.264 967.665 468.561Q963.001 468.507 958.34 468.345L957.789 467.663C962.915 461.978 969.319 457.217 975.209 452.334C985.771 452.802 996.559 452.394 1007.14 452.404C1006.5 436.181 1007.27 419.747 1007.1 403.484C1015.26 403.344 1033.18 406.533 1039.24 400.832C1042.29 397.966 1041.98 393.885 1041.91 390.072C1041.83 385.885 1041.69 384.281 1038.62 381.305C1048.99 378.51 1078.55 380.527 1090.92 380.632C1091.24 380.135 1091.55 379.619 1091.75 379.055C1093.28 374.812 1092.95 285.148 1092.19 274.72C1092.07 273.111 1091.68 271.872 1090.92 270.443C1078.66 270.748 1066.17 271.012 1053.93 270.252C1045.36 271.177 1036.25 270.549 1027.64 270.232C1028.75 268.63 1029.07 267.321 1029.23 265.392C1030.99 243.141 1029.67 219.768 1029.6 197.392C1029.55 178.888 1030.81 159.114 1028.97 140.77C1026.99 139.702 1024.48 140.256 1022.24 140.343L1020.86 140.37C1009.04 137.924 975.078 139.703 960.945 139.695L806.221 139.789L789.888 139.66ZM681.641 281.259C681.444 296.629 679.199 362.445 682.829 371.74C683.094 372.418 683.336 373.091 683.618 373.765Q687.674 377.28 691.777 380.74C698.652 380.411 705.641 380.616 712.529 380.567L712.589 334.675C713.608 333.238 714.736 331.383 715.341 329.717C717.078 324.937 714.634 320.656 712.556 316.478C712.78 301.099 712.544 285.682 712.533 270.3C703.748 270.238 692.771 268.654 685.938 275.405C684.243 277.079 682.925 279.261 681.641 281.259ZM716.228 501.256L678.597 453.444C673.232 446.702 668.139 438.784 661.888 432.884C660.347 431.428 658.643 430.517 656.568 430.095C655.848 431.739 654.782 433.162 655.378 434.996C657.002 439.985 708.581 503.042 714.307 508.854C716.446 509.181 717.491 508.234 719.205 506.997C725.452 502.491 730.52 496.166 737.096 492.103Q755.788 514.133 774.176 536.417C782.639 546.729 792.127 560.784 802.714 568.814C804.483 566.86 805.545 566.227 805.744 563.515C801.263 555.653 746.564 490.293 738.482 485.759C734.534 485.28 731.124 487.139 728.128 489.554C723.896 492.965 720.034 497.36 716.228 501.256ZM1100.1 501.411C1098.98 497.309 1091.77 490.146 1088.07 488.076C1085.54 486.663 1083.38 485.852 1080.41 486.177C1074.57 489.763 1011.38 559.751 1010.46 563.333C1010.05 564.948 1010.75 565.635 1011.5 566.95C1013.45 567.684 1013.74 567.93 1015.85 567.414C1023.28 559.458 1080.72 496.749 1082.07 493.07C1082.25 493.166 1082.43 493.258 1082.61 493.359C1089.68 497.447 1093.29 507.605 1101.74 509.197C1104.9 507.652 1107.3 504.995 1109.57 502.376C1115.51 495.54 1161.52 436.472 1162.45 432.822C1162.67 431.958 1162.63 431.083 1162.52 430.21C1160.91 428.763 1160.42 428.5 1158.14 428.553C1157.44 428.569 1156.72 428.743 1156.03 428.881C1154.65 432.977 1103.54 499.194 1100.1 501.411ZM1425.83 168.442C1420.89 175.398 1413.16 181.775 1407.07 187.785L1369.69 224.672C1364.71 229.595 1358.44 234.802 1354.46 240.575C1353.05 242.622 1352.86 243.492 1353.22 245.826C1354.53 246.746 1354.77 246.966 1356.35 247.076C1361.03 245.144 1428.99 178.26 1431.37 173.111C1432.02 171.685 1431.6 170.895 1431.24 169.502C1429.35 168.262 1428.03 168.304 1425.83 168.442ZM465.533 247.553C465.524 245.018 465.754 243.735 464.307 241.495C459.18 233.561 449.489 225.831 442.707 218.981C428.787 204.921 415.099 190.6 401.061 176.662C397.606 173.233 394.032 168.639 388.855 168.512C388.504 170.746 387.757 172.744 389.196 174.765C393.432 180.711 456.941 244.877 461.206 247.268L465.533 247.553ZM1545.38 517.776C1544.82 520.208 1544.33 520.895 1545.56 523.178C1551.8 526.099 1629.38 537.549 1631.58 536.691C1631.74 536.63 1631.89 536.534 1632.04 536.455C1633.71 534.909 1633.76 534.961 1633.92 532.699C1632.46 530.997 1631.65 530.613 1629.43 530.093C1618.2 527.462 1605.91 526.578 1594.46 524.763C1579.54 522.399 1564.12 518.847 1549.09 517.684C1547.81 517.585 1546.66 517.586 1545.38 517.776ZM1620.43 424.443C1608.93 434.085 1548.99 470.106 1546.04 477.996L1546.33 479.709C1547.5 480.193 1548.48 480.747 1549.77 480.446C1556.92 477.86 1616.49 436.812 1625.34 429.405C1625.97 427.603 1626.17 427.452 1625.56 425.55C1623.67 424.525 1622.57 424.245 1620.43 424.443ZM274.139 518.621C264.697 519.655 191.937 529.161 187.96 531.344C187.329 531.69 186.589 532.554 186.029 533.048C185.555 535.347 185.688 535.579 186.647 537.744C188.075 538.399 188.756 538.672 190.377 538.546L247.597 529.869C255.677 528.664 264.287 528.217 272.215 526.437C274.372 525.953 276.329 525.38 278.004 523.857C278.66 521.579 278.474 521.606 277.336 519.49C276.26 519.086 275.301 518.592 274.139 518.621ZM1102.65 332.312C1104.69 339.354 1104.88 374.313 1102.12 380.874C1111.8 380.817 1124.14 382.977 1133.42 380.006C1135.72 377.951 1135.91 375.157 1136.29 372.144C1137.9 359.259 1136.79 345.4 1136.89 332.38C1137.01 315.912 1138.25 298.606 1136.87 282.221C1136.61 279.079 1136.41 275.069 1134.42 272.511C1126.08 268.158 1111.31 270.274 1102.09 270.387Q1102.45 271.129 1102.72 271.906C1104.6 277.124 1104.56 309.879 1102.2 314.788L1102.94 318.144C1102.71 321.909 1102.85 326.234 1101.76 329.834L1102.65 332.312ZM1212.16 497.33C1200.72 502.9 1134.27 533.066 1131.57 537.767C1131.86 539.7 1132.33 540.686 1134.08 541.785C1134.36 541.957 1134.67 542.062 1134.96 542.201C1143.41 539.814 1212.64 506.327 1216.97 501.454L1217.42 499.445C1216.11 497.728 1215.66 497.528 1213.49 497.321C1212.86 497.261 1212.71 497.29 1212.16 497.33ZM685.281 543.224C686.455 540.821 687.163 540.006 686.694 537.287C679.875 531.587 613.542 498.064 605.799 496.32C604.472 498.798 603.623 499.503 604.311 502.337C609.554 507.002 678.603 541.342 685.281 543.224ZM204.558 424.439C203.661 426.818 203.183 427.768 203.585 430.348C207.881 435.841 270.69 480.707 276.553 482.397C277.518 479.935 278.257 478.646 277.916 475.968C266.924 464.56 246.327 452.271 232.848 442.68C225.174 437.219 217.562 430.762 209.483 425.971C207.854 425.005 206.437 424.589 204.558 424.439Z"/>
		<path fill="#E5E5E6" transform="scale(0.879121 0.878906)" d="M1549.71 174.284C1549.98 176.869 1550.01 177.08 1548.31 179.157C1544.56 183.741 1539.63 187.306 1535.84 191.969C1517.75 214.254 1507.55 241.661 1509.99 270.571C1512 294.331 1524.73 318.895 1542.98 334.2C1561.88 350.056 1587.94 359.966 1612.81 357.797C1620.67 357.111 1650.43 347.276 1652.11 347.555L1652.37 349.361L1651.8 350.269C1634.17 359.224 1611.89 361.788 1592.4 359.93C1568.03 357.609 1545.37 344.362 1529.93 325.6C1512.71 304.668 1504.23 278.426 1506.88 251.377C1509.94 220.098 1525.73 194.033 1549.71 174.284Z"/>
	</g>
</svg>
