<?xml version="1.0" encoding="utf-8" ?>
<svg xmlns="http://www.w3.org/2000/svg" xmlns:xlink="http://www.w3.org/1999/xlink" width="1600" height="900">
	<g>
		<path fill="#34234D" transform="scale(0.879121 0.878906)" d="M834.679 112.835L984.851 113.273Q985.36 163.546 984.817 213.819C984.8 227.893 984.289 242.262 985.023 256.301L1003.5 256.11C998.23 253.23 991.289 256.681 987.005 254.45C985.073 247.266 986.369 237.174 986.43 229.639C999.917 234.985 1013.96 238.46 1027.99 241.997C1068.02 252.086 1107.46 258.157 1148.63 261.197C1148.72 261.043 1148.83 260.896 1148.91 260.736C1149.5 259.554 1149.9 258.205 1150 256.881C1150.64 247.542 1151.13 171.351 1149.5 165.854C1149.86 165.209 1150.16 164.557 1150.41 163.862C1151.94 159.597 1151.57 133.557 1149.51 129.189C1163.4 129.155 1249.67 127.441 1255.42 129.697C1255.95 130.397 1256.89 131.332 1257.25 132.103C1258.98 135.87 1257.39 225.246 1257.37 236.608C1257.36 245.128 1255.91 257.281 1258.31 265.319C1258.45 262.494 1258.72 259.34 1257.3 256.774L1258.29 256.68C1267.23 255.765 1276.36 253.083 1285.12 251.047Q1310.96 245.236 1336.35 237.698C1350.4 233.527 1364.33 228.706 1378.52 225.019Q1382.65 223.972 1386.8 223.044Q1390.96 222.115 1395.14 221.307Q1399.32 220.499 1403.52 219.81Q1407.73 219.122 1411.95 218.555Q1416.17 217.988 1420.4 217.543Q1424.64 217.097 1428.88 216.773Q1433.13 216.45 1437.38 216.248Q1441.64 216.046 1445.89 215.967Q1450.15 215.888 1454.41 215.93Q1458.67 215.973 1462.92 216.138Q1467.18 216.304 1471.43 216.591Q1475.68 216.878 1479.92 217.288Q1484.15 217.697 1488.38 218.228Q1492.6 218.759 1496.81 219.41Q1501.02 220.062 1505.21 220.835Q1509.4 221.608 1513.56 222.5Q1517.72 223.393 1521.86 224.404Q1526 225.416 1530.1 226.546Q1534.21 227.676 1538.28 228.924Q1542.35 230.172 1546.39 231.536Q1550.42 232.9 1554.41 234.379Q1558.41 235.858 1562.36 237.452Q1566.31 239.045 1570.21 240.752Q1574.11 242.458 1577.96 244.275Q1581.81 246.093 1585.61 248.02Q1589.41 249.948 1593.15 251.983Q1596.89 254.019 1600.57 256.161Q1604.25 258.304 1607.87 260.551Q1611.48 262.798 1615.04 265.148Q1618.59 267.498 1622.07 269.949Q1625.55 272.401 1628.96 274.951Q1632.37 277.501 1635.71 280.148C1699.05 330.776 1739.27 395.885 1748.13 476.977C1752.03 512.64 1748.73 551.385 1741.3 586.537C1734.39 619.192 1724.94 652.175 1722.39 685.546C1720.62 708.771 1725.8 730.821 1728.41 753.692Q1729.19 760.871 1729.45 768.087Q1729.71 775.304 1729.45 782.52Q1729.2 789.737 1728.42 796.916Q1727.65 804.096 1726.36 811.201C1720.81 840.603 1709.08 866.849 1690.3 890.175C1680.01 902.953 1668.97 914.718 1655.73 924.442C1649.53 928.998 1642.63 932.909 1636.68 937.77C1637.58 938.597 1637.81 939.148 1638.16 940.31C1637.74 940.593 1637.41 940.862 1636.94 941.051C1631.88 943.12 179 941.845 177.488 941.195C176.289 940.679 176.484 940.322 176.052 939.171C179.945 934.146 195.055 940.67 200.378 936.429C199.677 919.769 200.324 902.835 200.346 886.145L232.052 886.233C232.068 879.327 231.865 872.346 232.671 865.48C234.332 865.389 236.558 865.488 238.042 864.68C239.114 864.096 238.796 863.75 238.902 862.649C240.169 849.602 239.142 835.595 239.15 822.445L239.005 739.985C238.967 729.175 237.222 712.345 239.818 702.176C237.825 697.036 182.181 644.915 173.073 634.734C162.456 625.337 137.517 602.343 130.877 590.953C126.796 583.951 125.158 575.611 127.297 567.697C129.39 559.953 135.335 553.314 142.223 549.391C149.694 545.137 156.503 545.406 164.518 547.709L169.555 542.88C181.11 530.553 193.717 518.946 205.774 507.091C210.227 502.713 215.545 498.32 219.42 493.505C221.048 491.483 220.681 490.684 220.47 488.197C220.179 484.139 220.742 480.192 222.412 476.462Q222.651 475.928 222.917 475.406Q223.183 474.884 223.474 474.377Q223.765 473.869 224.081 473.376Q224.397 472.883 224.738 472.407Q225.078 471.931 225.441 471.472Q225.805 471.013 226.191 470.573Q226.577 470.133 226.984 469.712Q227.391 469.292 227.819 468.892Q228.247 468.493 228.694 468.115Q229.141 467.737 229.606 467.382Q230.072 467.027 230.554 466.696Q231.037 466.364 231.535 466.057Q232.033 465.75 232.546 465.468Q233.059 465.186 233.586 464.93Q234.112 464.674 234.65 464.445Q235.189 464.215 235.738 464.013C242.83 461.419 249.306 462.485 255.983 465.59C264.076 470.257 266.579 476.628 268.975 485.371C267.94 489.253 266.992 493.186 265.755 497.008L267.694 498.958C270.874 502.017 274.705 505.081 277.52 508.437C311.064 540.011 343.299 573.018 376.769 604.64C385.349 612.999 394.593 621.187 402.615 630.058C404.436 627.983 406.511 625.044 408.75 623.502C413.368 618.87 419.468 617.243 425.739 616.389Q426.878 616.251 428.008 616.051L428.826 615.903C436.379 614.58 446.384 583.699 453.363 576.974C454.771 575.618 456.624 574.575 458.638 574.719C461.437 574.92 463.169 576.562 464.858 578.615C466.244 580.503 467.077 581.472 466.843 583.983C466.268 590.153 454.588 610.996 451.195 618.134C457.637 625.59 462.141 633.595 462.094 643.768C469.898 648.545 489.85 658.016 492.028 667.248C492.499 669.248 492.127 671.118 491.015 672.837C489.888 674.578 487.725 676.661 485.574 676.949C483.738 677.195 481.413 676.398 479.651 675.95Q467.938 668.254 456.485 660.175C454.606 663.145 452.204 665.749 449.922 668.411C446.345 671.848 441.901 673.769 437.373 675.619C441.723 681.756 452.243 693.541 452.005 701.386C451.947 703.318 451.058 704.846 449.621 706.037C447.243 708.01 444.602 709.075 441.468 708.765C437.739 708.396 433.288 700.208 431.384 697.212C427.211 690.645 422.999 682.219 417.34 676.865C413.258 673.004 407.951 670.113 404.459 665.686C398.424 658.034 397.762 648.372 398.758 639.087C399.446 637.412 399.834 635.74 400.237 633.978C397.7 628.803 377.093 610.76 371.796 605.594C361.978 598.675 351.241 585.778 342.36 577.099L273.669 510.514C270.911 508.301 268.539 505.558 266.114 502.986L263.849 501.381C262.399 501.996 261.887 502.456 260.933 503.64C255.567 508.408 251.4 510.619 244.078 510.153Q241.627 510.013 239.214 509.557C231.719 517.051 213.379 537.506 206.033 542.4C200.523 548.392 194.567 553.957 188.691 559.585C212.88 588.861 242.483 614.48 269.399 641.287C276.869 648.727 285.042 656.043 291.88 664.056C302.606 670.102 310.193 677.076 313.58 689.404Q314.576 693.161 315.386 696.962C325.922 694.078 350.221 695.99 361.804 696.085L361.887 937.836L375.427 937.846L375.672 832.912C375.691 816.088 374.445 798.449 375.643 781.713C375.822 779.206 375.865 777.001 377.401 774.973C377.583 775.117 377.776 775.249 377.949 775.405C378.992 776.345 379.437 778.037 379.542 779.389C380.712 794.49 379.412 812.876 379.421 828.423L379.492 938.14L390.712 938.119L390.893 853.277C390.899 842.538 389.273 829.67 390.948 819.238C391.289 817.119 391.687 814.43 393.42 813.137C396.153 820.925 394.572 921.382 394.577 938.159L534.958 937.869C534.794 877.456 534.114 816.875 535.2 756.478L562.303 756.581L562.193 509.04L538.29 508.973C529.989 509.205 521.239 510.067 513.243 507.441C506.295 505.16 500.657 500.364 497.502 493.741C495.742 490.045 494.823 486.084 494.41 482.023C493.603 474.085 493.033 424.491 495.267 418.192L497.156 417.764C503.978 424.765 490.185 482.003 506.014 498.536C515.279 508.213 529.418 505.119 541.483 505.226L542.111 504.833C536.453 498.676 533.614 493.846 533.255 485.356C532.22 460.87 533.276 435.819 533.265 411.274C533.259 396.5 531.423 367.588 534.253 354.493C535.594 348.29 539.447 343.365 543.637 338.786C535.293 338.843 526.965 338.922 518.627 338.537C517.158 338.858 515.788 339.401 514.396 339.965C486.359 351.329 504.996 383.41 497.09 402.162L495.934 402.214C492.31 394.639 493.775 372.861 494.135 363.924C494.473 355.514 497.268 347.057 503.679 341.321C515.599 330.658 545.774 333.637 561.095 334.67C561.385 334.175 562.004 333.394 562.149 332.87C563.698 327.245 562.457 292.195 562.469 284.289L562.502 128.892L669.209 128.881L669.146 334.213C692.332 334.172 715.619 333.722 738.792 334.316C748.646 333.951 758.601 334.228 768.466 334.215C768.434 320.222 768.08 306.132 768.509 292.148C768.829 281.715 771.991 271.447 779.864 264.221C793.629 251.588 817.212 254.785 834.56 255.677L834.679 112.835Z"/>
		<path fill="#E5E5E5" transform="scale(0.879121 0.878906)" d="M1255.42 129.697C1255.95 130.397 1256.89 131.332 1257.25 132.103C1258.98 135.87 1257.39 225.246 1257.37 236.608C1257.36 245.128 1255.91 257.281 1258.31 265.319C1258.45 262.494 1258.72 259.34 1257.3 256.774L1258.29 256.68C1267.23 255.765 1276.36 253.083 1285.12 251.047Q1310.96 245.236 1336.35 237.698C1350.4 233.527 1364.33 228.706 1378.52 225.019Q1382.65 223.972 1386.8 223.044Q1390.96 222.115 1395.14 221.307Q1399.32 220.499 1403.52 219.81Q1407.73 219.122 1411.95 218.555Q1416.17 217.988 1420.4 217.543Q1424.64 217.097 1428.88 216.773Q1433.13 216.45 1437.38 216.248Q1441.64 216.046 1445.89 215.967Q1450.15 215.888 1454.41 215.93Q1458.67 215.973 1462.92 216.138Q1467.18 216.304 1471.43 216.591Q1475.68 216.878 1479.92 217.288Q1484.15 217.697 1488.38 218.228Q1492.6 218.759 1496.81 219.41Q1501.02 220.062 1505.21 220.835Q1509.4 221.608 1513.56 222.5Q1517.72 223.393 1521.86 224.404Q1526 225.416 1530.1 226.546Q1534.21 227.676 1538.28 228.924Q1542.35 230.172 1546.39 231.536Q1550.42 232.9 1554.41 234.379Q1558.41 235.858 1562.36 237.452Q1566.31 239.045 1570.21 240.752Q1574.11 242.458 1577.96 244.275Q1581.81 246.093 1585.61 248.02Q1589.41 249.948 1593.15 251.983Q1596.89 254.019 1600.57 256.161Q1604.25 258.304 1607.87 260.551Q1611.48 262.798 1615.04 265.148Q1618.59 267.498 1622.07 269.949Q1625.55 272.401 1628.96 274.951Q1632.37 277.501 1635.71 280.148C1699.05 330.776 1739.27 395.885 1748.13 476.977C1752.03 512.64 1748.73 551.385 1741.3 586.537C1734.39 619.192 1724.94 652.175 1722.39 685.546C1720.62 708.771 1725.8 730.821 1728.41 753.692Q1729.19 760.871 1729.45 768.087Q1729.71 775.304 1729.45 782.52Q1729.2 789.737 1728.42 796.916Q1727.65 804.096 1726.36 811.201C1720.81 840.603 1709.08 866.849 1690.3 890.175C1680.01 902.953 1668.97 914.718 1655.73 924.442C1649.53 928.998 1642.63 932.909 1636.68 937.77L1618.13 937.873C1614.51 925.825 1622.12 895.377 1615.91 886.013C1605.79 885.454 1595.49 885.848 1585.35 885.851C1585.5 885.614 1585.65 885.381 1585.79 885.139C1588.1 881.027 1587.42 872.311 1586.04 867.865C1584.06 866.218 1582.94 866.539 1580.51 866.459C1580.8 865.901 1581.03 865.419 1581.19 864.805C1583.05 857.426 1581.38 828.916 1581.36 819.228L1581.26 744.541C1581.23 731.739 1581.71 718.697 1581.08 705.925C1580.99 704.07 1580.6 702.784 1579.62 701.192C1588.35 694.94 1682.78 600.804 1686.63 594.791C1690.92 588.094 1691.96 578.416 1690.12 570.784C1683.11 541.755 1658.45 551.794 1649.77 546.188C1649.61 546.083 1649.46 545.964 1649.3 545.851C1649.27 545.692 1649.25 545.526 1649.2 545.372C1647.95 541.938 1602.06 493.433 1596.74 490.506C1597.09 489.673 1597.34 488.86 1597.48 487.965C1598.32 482.718 1596.11 476.388 1592.96 472.252C1588.54 466.445 1583.21 463.466 1576.05 462.555C1569.58 461.69 1563.96 463.678 1558.79 467.539C1556.02 469.609 1553.65 472.275 1551.31 474.813C1550.14 482.367 1549.65 487.822 1551.37 495.431C1551.54 496.177 1551.47 495.967 1551.47 496.935C1550.8 500.254 1548.74 501.933 1545.95 503.812C1545.79 503.915 1545.64 504.014 1545.48 504.116C1538.44 513.421 1526.35 522.723 1517.76 531.055L1480.74 566.953C1475.3 572.189 1469.6 578.895 1463.36 583.069C1460.26 587.545 1454.69 592.54 1450.17 595.597C1445.38 602.688 1419.98 626.522 1412.85 631.148C1412.11 628.77 1410.5 626.883 1408.32 625.651C1407.8 625.353 1407.24 625.119 1406.68 624.895C1406.4 623.739 1405.89 623.358 1404.95 622.624C1400.38 619.05 1392.79 619.361 1387.37 619.803C1382.41 618.91 1372.8 583.522 1363.35 577.799C1361.75 576.831 1359.59 577.161 1357.86 577.613C1356.06 578.087 1353.79 579.071 1352.86 580.783C1348.72 588.435 1357.52 598.403 1359.4 605.753C1359.45 605.927 1359.49 606.102 1359.53 606.277C1361.39 609.108 1364.47 613.854 1363.83 617.317C1363.71 617.599 1363.6 617.883 1363.48 618.163C1361.59 622.594 1357.36 625.949 1355.56 630.538C1353.49 635.824 1354.99 641.6 1353.61 646.943C1353.39 647.182 1353.17 647.427 1352.94 647.661C1346.39 654.33 1326.9 657.209 1326.3 668.043C1326.17 670.427 1327.39 672.57 1329.11 674.139C1331.05 675.906 1333.87 676.974 1336.5 676.747C1338.54 676.572 1341.08 675.438 1342.54 673.949C1342.89 673.591 1342.92 673.412 1343.09 673.001C1348.16 671.513 1357.4 666.769 1360.9 662.884C1366.52 666.445 1371.21 670.898 1377.25 673.828L1379.7 675.101C1378.2 683.145 1361.17 695.079 1366.22 703.025C1367.5 705.039 1370.31 707.102 1372.73 707.307C1376.11 707.591 1379.57 705.194 1381.9 702.958C1385.79 699.206 1398.4 684.332 1398.71 679.111C1399.32 678.866 1399.55 678.813 1400.14 678.353C1403.26 675.895 1412.9 666.42 1413.48 662.993C1413.7 662.848 1413.93 662.709 1414.14 662.556C1417.19 660.401 1418.58 655.636 1419.11 652.106C1420.02 646.135 1419 639.747 1415.4 634.825C1421.39 630.384 1451.29 603.143 1453.09 598.28C1453.67 598.051 1454.17 597.852 1454.69 597.5C1457.68 595.47 1465.31 589.173 1466.12 585.684C1466.67 585.468 1466.6 585.511 1467.22 585.168C1468.95 584.219 1544.15 512.432 1547.9 507.827C1548.42 507.193 1548.57 506.541 1548.8 505.776C1551.19 504.902 1552.52 503.578 1554.27 501.826C1561.41 506.999 1566.27 511.831 1575.76 510.101C1576.47 509.972 1577 509.704 1577.59 509.304C1582.65 510.625 1594.97 524.051 1597.81 528.855C1605.72 535.657 1625.52 553.693 1630.16 562.121C1629 564.458 1626.65 566.069 1624.3 567.107Q1593.14 597.077 1562.45 627.537C1553.01 637.035 1531.15 660.868 1521.25 667.429C1521.16 667.546 1521.07 667.664 1520.98 667.779C1517.27 672.449 1512.08 675.644 1508.8 680.767C1505.82 685.415 1505.42 691.851 1502.04 696.083L1491.57 696.206C1480.31 695.796 1469 696.1 1457.74 696.172C1457.81 696.312 1457.87 696.453 1457.94 696.592C1458.34 697.355 1458.74 698.156 1458.92 699.001C1460.12 704.585 1459.25 712.128 1459.25 717.926L1459.25 762.509L1458.99 882.656C1458.89 898.871 1459.31 915.183 1458.8 931.385C1458.72 933.831 1458.46 935.568 1457.13 937.682L1441.45 937.687C1442.69 935.486 1442.78 933.492 1442.86 931.025C1443.91 898.213 1442.57 864.924 1442.46 832.064C1442.42 820.297 1444.05 795.133 1442 785.339C1441.59 783.396 1441.33 781.104 1439.65 779.975C1436.78 789.366 1438.63 814.625 1438.65 825.524L1438.77 907.032C1438.78 915.875 1440.31 928.719 1437.82 937.075C1437.76 937.291 1437.69 937.506 1437.62 937.722C1435.46 937.702 1432.93 937.899 1430.82 937.53C1427.93 937.024 1428.65 928.228 1428.64 925.65C1428.59 914.569 1430.14 820.508 1428.02 817.621L1426.34 817.625C1423.06 823.529 1424.56 895.921 1424.57 909.348C1424.58 917.291 1426.42 929.861 1423.48 937.179C1423.4 937.376 1423.31 937.566 1423.22 937.76L1283.17 937.868C1283.74 937.009 1284.21 936.078 1284.42 935.062C1286.26 925.966 1284.85 890.734 1284.87 879.21L1285 802.355C1285.01 788.959 1285.55 775.342 1284.9 761.979C1284.81 760.139 1284.45 758.918 1283.46 757.354L1256.04 757.266C1256.47 756.538 1256.87 755.875 1257.1 755.053C1258.9 748.691 1257.53 694.644 1257.53 684.137L1257.52 571.877C1257.52 552.924 1258.07 533.786 1257.42 514.857C1257.34 512.634 1257.08 511.081 1255.95 509.133C1264.55 509.187 1298.37 511.04 1304.35 507.711C1308.37 507.379 1311.74 506.021 1315.08 503.794C1320.49 500.189 1324.64 494.491 1325.82 488.056C1328.78 471.915 1326.96 438.103 1326.97 420.448C1326.97 401.32 1328.67 377.666 1326.37 359.078C1325.8 354.536 1324.2 350.483 1321.57 346.729C1317.59 341.055 1311.71 336.982 1304.84 335.873C1299.36 332.67 1263.31 334.377 1255.23 334.394C1255.56 333.875 1255.85 333.36 1256.07 332.778C1257.95 327.755 1257 153.348 1256.57 135.458C1256.52 133.315 1256.28 131.693 1255.42 129.697Z"/>
		<path fill="#FEFEFE" transform="scale(0.879121 0.878906)" d="M1664.12 627.998C1666.56 627.634 1668.78 627.003 1671.08 628.139C1671.1 628.314 1657.43 674.223 1656 680.608C1648.63 713.509 1647.75 748.566 1649.31 782.154C1649.67 790.079 1654.28 831.533 1653.4 835.147C1653.22 835.874 1652.25 837.09 1651.84 837.782L1650.73 836.987C1650.52 836.156 1650.33 835.314 1650.2 834.466C1648.89 825.34 1648.85 815.704 1648.09 806.484C1643.95 756.054 1644.62 708.268 1658.28 659.135C1660.69 650.461 1662.19 640.647 1667.82 633.419C1667.92 633.284 1668.03 633.152 1668.14 633.018C1667.6 631.017 1665.19 630.709 1664.12 627.998Z"/>
		<path fill="#FEFEFE" transform="scale(0.879121 0.878906)" d="M1380.24 260.887C1381.88 260.842 1382.29 260.607 1383.63 261.63L1383.4 263.09C1371.17 272.434 1277.97 292.961 1259.16 295.557L1258.37 295.509L1257.66 294.192L1258.25 292.495C1261.55 290.662 1293.5 285.031 1300.13 283.646C1324.06 278.651 1358.42 271.024 1380.24 260.887Z"/>
		<path fill="#81788F" transform="scale(0.879121 0.878906)" d="M533.877 337.673C556.19 338.769 578.504 338.214 600.835 338.101L695.782 337.859L997.973 337.934L1181.86 337.971L1230.59 338.011C1238.54 338.042 1247.38 338.836 1255.23 337.842C1271.83 338.525 1304.99 333.627 1316.46 346.378C1319.92 350.223 1321.9 354.992 1322.68 360.072C1324.88 374.424 1323.11 394.699 1323.13 409.751C1323.16 432.741 1324.72 459.226 1323.02 481.785C1322.5 488.788 1320.17 495.24 1314.68 499.891C1304.21 508.753 1286.62 505.052 1274 505.867C1252.8 505.026 1231.36 505.7 1210.14 505.697L1089.72 505.702L724.176 505.453L604.902 505.641C584.095 505.614 562.844 506.423 542.111 504.833C536.453 498.676 533.614 493.846 533.255 485.356C532.22 460.87 533.276 435.819 533.265 411.274C533.259 396.5 531.423 367.588 534.253 354.493C535.594 348.29 539.447 343.365 543.637 338.786C535.293 338.843 526.965 338.922 518.627 338.537C523.709 337.897 528.764 337.789 533.877 337.673Z"/>
		<path fill="#34234D" transform="scale(0.879121 0.878906)" d="M675.197 361.073C676.757 361.499 677.478 361.855 678.706 362.905C680.791 377.93 679.216 404.858 679.237 420.99C679.254 434.518 681.039 466.194 678.558 478.074C677.08 477.672 676.182 477.117 674.979 476.23C673.125 462.647 674.764 443.115 674.751 429.028L674.686 386.094C674.678 377.853 674.118 369.25 675.197 361.073Z"/>
		<path fill="#34234D" transform="scale(0.879121 0.878906)" d="M1138.65 362.184C1140.87 362.12 1141.62 361.689 1143.34 363.194C1144.3 370.46 1144.5 472.172 1143.39 474.57C1143.05 475.321 1142.13 476.233 1141.61 476.916C1141 476.949 1140.39 476.465 1139.86 476.191C1138 470.167 1139.33 460.501 1139.34 454.056L1139.34 394.322C1139.33 383.945 1140.25 372.424 1138.65 362.184Z"/>
		<path fill="#34234D" transform="scale(0.879121 0.878906)" d="M1005.61 361.078L1008.74 362.258C1010.22 364.921 1010.17 468.083 1008.72 477.16C1007.62 476.852 1006.6 476.406 1005.54 475.971C1003.85 469.819 1004.43 371.342 1005.61 361.078Z"/>
		<path fill="#34234D" transform="scale(0.879121 0.878906)" d="M542.235 361.535C543.301 362.164 543.785 362.229 544.371 363.379C545.598 365.786 545.839 474.178 544.429 478.205L541.506 476.725C541.384 476.388 541.148 475.791 541.064 475.406C539.27 467.196 540.704 436.522 540.726 425.592C540.765 405.96 539.446 385.39 540.882 365.868C541.004 364.209 541.413 362.987 542.235 361.535Z"/>
		<path fill="#34234D" transform="scale(0.879121 0.878906)" d="M811.926 360.23C812.86 360.578 813.822 360.895 814.501 361.661C816.766 364.215 815.486 464.982 814.996 477.261L811.917 476.245C810.588 473.589 809.82 369.751 811.926 360.23Z"/>
		<path fill="#34234D" transform="scale(0.879121 0.878906)" d="M1273.22 361.314C1274.69 361.293 1275.29 361.373 1276.61 362.133C1277.06 362.971 1277.36 363.793 1277.5 364.742C1278.11 369.053 1277.97 468.885 1277.01 471.92C1276.81 472.555 1275.77 473.655 1275.35 474.245L1274.02 473.66C1271.95 467.372 1273.59 376.944 1273.22 361.314Z"/>
		<path fill="#00B5F3" transform="scale(0.879121 0.878906)" d="M1641.21 556.436C1650.47 552.363 1659.68 548.99 1669.73 552.78C1676.38 555.288 1682.15 560.895 1684.99 567.386C1687.81 573.831 1688.3 582.089 1685.73 588.7C1684.34 592.279 1681.15 595.534 1678.56 598.337C1659.62 618.834 1638.56 637.964 1618.73 657.625C1609.49 666.784 1584.91 693.75 1575.27 699.478C1576.74 694.884 1574.41 687.969 1572.33 683.804C1568.03 675.193 1559.54 668.131 1550.41 665.185C1540.73 662.061 1530.68 664.687 1521.25 667.429C1531.15 660.868 1553.01 637.035 1562.45 627.537Q1593.14 597.077 1624.3 567.107L1626.36 569.461L1628.04 569.556C1632.23 566.572 1638.92 560.94 1641.21 556.436Z"/>
		<path fill="#34234D" transform="scale(0.879121 0.878906)" d="M1652.77 563.702C1657.92 562.467 1662.04 562.292 1666.69 565.173C1670.76 567.697 1674.39 571.336 1675.38 576.171C1675.93 578.82 1675.2 582.377 1673.69 584.656C1673.16 585.456 1672.42 586.143 1671.6 586.643C1670.84 589.251 1669.61 590.851 1667.17 592.194C1662.9 594.54 1657.63 594.585 1653.06 593.21Q1652.49 593.035 1651.93 592.837C1649.09 591.083 1646.63 589.099 1644.9 586.188C1642.84 582.741 1642.06 578.715 1643.09 574.8C1644.55 569.254 1648 566.453 1652.77 563.702Z"/>
		<path fill="#00B5F3" transform="scale(0.879121 0.878906)" d="M1656.19 566.368C1661.58 566.605 1665.46 567.527 1669.2 571.73C1670.81 573.541 1671.82 575.775 1671.69 578.24C1671.55 580.854 1670.55 582.811 1668.72 584.612C1667.91 586.821 1666.6 588.188 1664.44 589.17C1661.12 590.678 1657.27 590.449 1653.73 590.106C1653.35 589.408 1653.58 589.698 1652.95 589.132C1651.54 587.852 1650.33 586.596 1649.27 585.014C1647.71 582.71 1646.05 578.7 1646.75 575.915C1647.91 571.238 1652.27 568.517 1656.19 566.368Z"/>
		<path fill="#E5E5E5" transform="scale(0.879121 0.878906)" d="M1148.63 261.197C1148.72 261.043 1148.83 260.896 1148.91 260.736C1149.5 259.554 1149.9 258.205 1150 256.881C1150.64 247.542 1151.13 171.351 1149.5 165.854C1150.31 167.545 1150.66 168.985 1150.75 170.849C1152.38 203.159 1150.84 236.45 1150.79 268.847C1150.76 287.729 1152.45 315.436 1150.34 333.348C1148.41 334.452 1147.17 334.484 1144.97 334.438C1112.47 333.643 1079.85 334.247 1047.34 334.258C1047.69 333.68 1047.91 333.381 1048.14 332.773C1049.86 328.1 1049.29 295.198 1047.28 291.409L1047.5 288.026C1047.72 287.187 1047.85 286.573 1047.88 285.713C1048.02 282.427 1046.87 279.794 1044.68 277.393C1044.71 277.107 1044.76 276.822 1044.78 276.535C1044.98 273.657 1041.12 268.593 1039.16 266.562C1029.83 256.899 1016.01 256.18 1003.5 256.11C998.23 253.23 991.289 256.681 987.005 254.45C985.073 247.266 986.369 237.174 986.43 229.639C999.917 234.985 1013.96 238.46 1027.99 241.997C1068.02 252.086 1107.46 258.157 1148.63 261.197Z"/>
		<path fill="#FEFEFE" transform="scale(0.879121 0.878906)" d="M1047.5 288.026C1061.87 287.973 1076.94 291.791 1091.27 293.416C1102.44 294.684 1141.53 296.704 1149.68 299.478C1124.5 300.504 1099.05 297.5 1074.06 294.624C1065.23 293.607 1056.14 291.784 1047.28 291.409L1047.5 288.026Z"/>
		<path fill="#00B5F3" transform="scale(0.879121 0.878906)" d="M175.785 632.299C164.653 620.886 141.163 601.664 133.968 589.122C130.406 582.913 128.966 575.503 130.964 568.53C132.924 561.693 138.365 555.652 144.527 552.244C150.848 548.747 156.692 548.914 163.481 550.817C173.51 557.709 181.709 567.716 190.209 576.39L223.423 609.63C227.586 613.789 231.731 618.97 236.305 622.578C237.683 623.665 238.134 623.924 239.819 623.642C239.801 619.455 232.517 613.332 229.573 610.412C214.323 595.284 198.888 580.306 184.286 564.545L188.691 559.585C212.88 588.861 242.483 614.48 269.399 641.287C276.869 648.727 285.042 656.043 291.88 664.056L287.927 662.982C279.416 661.212 268.307 660.242 260.732 665.547C260.541 665.68 260.357 665.823 260.169 665.961C258.02 667.04 255.874 668.147 253.96 669.617C244.724 676.713 241.852 685.831 240.379 696.873C219.423 674.847 197.346 653.736 175.785 632.299Z"/>
		<path fill="#34234D" transform="scale(0.879121 0.878906)" d="M154.75 593.641C150.269 592.296 146.312 589.939 143.999 585.743C141.973 582.069 141.608 577.573 142.847 573.582C144 569.866 146.561 566.56 150.033 564.755C154.152 562.613 158.337 562.491 162.677 563.913C167.029 565.739 170.662 568.505 172.435 573.036C173.86 576.682 173.587 580.97 171.976 584.508C170.194 588.421 166.79 591.677 162.705 593.09C160.236 593.944 157.309 593.914 154.75 593.641Z"/>
		<path fill="#00B5F3" transform="scale(0.879121 0.878906)" d="M160.701 566.398C164.915 569.398 168.344 572.015 169.283 577.41C169.789 580.317 169.205 583.06 167.372 585.399C164.606 588.928 160.519 589.989 156.34 590.806C156.217 590.753 156.093 590.702 155.971 590.647L155.364 590.369C153.279 589.436 151.065 588.556 149.451 586.878C146.938 584.267 145.613 581.034 145.716 577.396C145.794 574.674 147.073 572.05 149.022 570.167C152.394 566.908 156.195 566.314 160.701 566.398Z"/>
		<path fill="#00B5F3" transform="scale(0.879121 0.878906)" d="M1567.32 866.635C1571.65 859.42 1566.95 749.598 1568.53 728.272C1569.13 720.235 1573.45 706.465 1579.62 701.192C1580.6 702.784 1580.99 704.07 1581.08 705.925C1581.71 718.697 1581.23 731.739 1581.26 744.541L1581.36 819.228C1581.38 828.916 1583.05 857.426 1581.19 864.805C1581.03 865.419 1580.8 865.901 1580.51 866.459C1576.22 866.896 1571.64 866.605 1567.32 866.635Z"/>
		<path fill="#00B5F3" transform="scale(0.879121 0.878906)" d="M232.671 865.48C234.332 865.389 236.558 865.488 238.042 864.68C239.114 864.096 238.796 863.75 238.902 862.649C240.169 849.602 239.142 835.595 239.15 822.445L239.005 739.985C238.967 729.175 237.222 712.345 239.818 702.176L240.265 703.693C241.985 711.464 245.123 717.38 250.511 723.251L250.646 865.599L232.671 865.48Z"/>
		<path fill="#E5E5E5" transform="scale(0.879121 0.878906)" d="M669.728 508.908L749.724 508.687L749.721 550.856L779.942 550.803C790.53 568.891 802.248 586.504 813.647 604.092C815.186 606.239 816.021 608.52 818.881 608.838C832.803 610.384 848.515 608.955 862.575 608.903L955.808 608.838C970.934 608.846 986.884 607.848 1001.94 609.003C1006.32 604.923 1036.86 556.124 1037.09 551.322C1037.1 551.235 1037.09 551.148 1037.08 551.061L1072.24 550.801C1074.46 546.73 1074.72 515.484 1073.08 510.553C1072.88 509.945 1072.63 509.382 1072.34 508.815Q1109.94 509.385 1147.54 509.224C1149.27 511.895 1149.19 514.512 1149.24 517.581C1150.29 575.368 1149.02 633.432 1149.02 691.252C1149.02 701.5 1150.3 748.355 1149 754.214C1148.72 755.478 1147.92 756.472 1146.96 757.302C1134.59 756.683 1121.92 757.252 1109.52 757.252C1109.86 757.814 1110.16 758.38 1110.4 758.997C1112.19 763.571 1111.55 777.613 1109.54 782.135L1074.84 782.07C1075.63 780.788 1076.03 779.693 1076.19 778.202C1077.01 770.72 1077.29 716.051 1075.87 709.464C1075.55 707.945 1075.59 707.46 1074.32 706.619C1068.74 716.911 1076.96 747.877 1071.32 756.807C1071.22 756.956 1071.12 757.095 1071.01 757.239C1074.09 761.938 1073.78 773.145 1072.57 778.565C1072.32 779.708 1071.92 780.569 1071.35 781.581C1069.78 782.115 1068.51 782.184 1066.85 782.183C1053.85 780.515 1032.82 781.9 1018.98 781.873L912.085 781.759Q848.656 781.397 785.225 781.716C772.594 781.789 759.86 781.514 747.243 781.968L745.628 781.326C743.964 777.403 744.926 768.449 744.806 763.924C746.422 743.757 743.956 723.112 745.412 702.831L744.44 700.65L742.896 700.48C742.563 700.949 741.862 701.689 741.675 702.199C740.144 706.388 741.452 760.3 741.465 768.637L741.4 782.097C730.555 780.882 719.133 781.619 708.219 781.665L708.351 756.707L669.924 756.796C668.191 674.255 670.39 591.482 669.728 508.908Z"/>
		<path fill="#AFA9B6" transform="scale(0.879121 0.878906)" d="M744.806 763.924C746.422 743.757 743.956 723.112 745.412 702.831C746.276 720.975 745.675 739.33 745.616 757.499C752.431 757.529 760.936 758.568 767.546 757.368L768.956 755.73C774.684 752.873 814.063 754.669 823.068 754.733L973.241 755.044L994.117 755.008C1002.83 754.961 1059.74 753.5 1063.76 755.41C1066.36 757.21 1067.73 757.805 1071.01 757.239C1074.09 761.938 1073.78 773.145 1072.57 778.565C1072.32 779.708 1071.92 780.569 1071.35 781.581C1069.78 782.115 1068.51 782.184 1066.85 782.183C1053.85 780.515 1032.82 781.9 1018.98 781.873L912.085 781.759Q848.656 781.397 785.225 781.716C772.594 781.789 759.86 781.514 747.243 781.968L745.628 781.326C743.964 777.403 744.926 768.449 744.806 763.924Z"/>
		<path fill="#34234D" transform="scale(0.879121 0.878906)" d="M823.068 754.733L973.241 755.044L994.117 755.008C1002.83 754.961 1059.74 753.5 1063.76 755.41L1063.79 757.748C1055.87 760.092 991.036 758.234 977.344 758.232L882.13 758.237C866.21 758.239 849.911 758.948 834.033 758.136C819.273 758.223 779.721 760.18 767.546 757.368L768.956 755.73C774.684 752.873 814.063 754.669 823.068 754.733Z"/>
		<path fill="#AFA9B6" transform="scale(0.879121 0.878906)" d="M823.031 742.243L994.094 742.107L994.117 755.008L973.241 755.044L823.068 754.733L823.031 742.243Z"/>
		<path fill="#FE5168" transform="scale(0.879121 0.878906)" d="M783.324 650.53C784.684 650.897 786.032 651.331 787.37 651.773C800.534 656.124 827.045 669.591 832.721 682.844C833.821 685.412 833.415 686.12 832.533 688.631C828.2 687.117 813.705 671.109 807.317 666.71C799.895 661.599 788.567 659.855 782.156 653.911L783.324 650.53Z"/>
		<path fill="#FE5168" transform="scale(0.879121 0.878906)" d="M1029.9 651.913C1032.49 651.469 1034.56 651.366 1036.77 652.888C1036.67 654.498 1036.43 654.962 1034.99 655.807C1029.5 659.029 1023.06 661.34 1017.31 664.153C1007.2 669.1 998.58 678.483 991.534 687.047C991.013 687.241 990.804 687.355 990.193 687.389C988.241 687.497 987.62 686.689 986.471 685.371C986.55 685.076 986.618 684.778 986.707 684.486C987.353 682.379 990.082 679.909 991.581 678.264C1004.15 664.471 1013.99 661.001 1029.47 652.166L1029.9 651.913Z"/>
		<path fill="#FE5168" transform="scale(0.879121 0.878906)" d="M868.891 651.218C869.797 651.24 870.698 651.277 871.595 651.413C876.323 652.127 882.134 659.282 884.821 662.937C889.434 669.211 896.275 680.15 895.061 688.054L892.157 688.104C888.499 685.076 886.446 675.949 884.055 671.484C880.479 664.802 869.8 658.401 868.891 651.218Z"/>
		<path fill="#FE5168" transform="scale(0.879121 0.878906)" d="M946.23 650.365C947.771 651.232 948.395 651.705 949.14 653.327C948.295 656.206 945.6 658.323 943.574 660.456C935.373 669.093 931.389 677.672 927.23 688.666L924.441 687.425C923.834 686.021 923.533 685.528 923.67 683.959C924.648 672.691 937.692 657.359 946.23 650.365Z"/>
		<path fill="#FE5168" transform="scale(0.879121 0.878906)" d="M963.598 679.561C966.706 679.562 968.28 680.039 970.476 682.157C970.623 684.915 970.158 685.803 968.998 688.218C966.566 687.772 964.818 687.528 962.976 685.706C962.361 682.985 962.746 682.126 963.598 679.561Z"/>
		<path fill="#FE5168" transform="scale(0.879121 0.878906)" d="M849.865 679.574C850.293 679.591 850.722 679.596 851.148 679.643C853.54 679.906 854.303 680.405 855.766 682.161C856.08 684.763 855.198 686.35 854.075 688.59C851.791 688.068 850.632 687.649 849.112 685.826C848.39 683.338 848.956 681.884 849.865 679.574Z"/>
		<path fill="#6A5D7C" transform="scale(0.879121 0.878906)" d="M947.056 258.916C962.407 259.632 977.847 259.358 993.213 259.46C1002.26 259.52 1012.05 258.851 1020.91 260.903C1026.83 262.274 1032.5 265.058 1036.58 269.639C1038.56 271.861 1040.95 275.114 1041.47 278.084C1046.51 285.39 1046.39 321.678 1044.8 331.078C1044.61 332.202 1044.1 333.219 1043.49 334.176L948.727 334.182C931.861 334.187 914.797 333.711 897.951 334.364C885.789 333.242 872.699 334.176 860.469 334.201L786.78 334.233L785.891 334.441L772.253 334.31C772.472 315.023 767.449 282.371 781.719 267.752C787.857 261.464 795.13 259.404 803.69 259.394L804.302 259.62L947.056 258.916Z"/>
		<path fill="#E5E5E5" transform="scale(0.879121 0.878906)" d="M772.253 334.31C772.472 315.023 767.449 282.371 781.719 267.752C787.857 261.464 795.13 259.404 803.69 259.394L804.302 259.62C795.255 266.353 789.19 269.921 787.501 281.968C785.59 295.593 789.911 323.921 786.78 334.233L785.891 334.441L772.253 334.31Z"/>
		<path fill="#FE5168" transform="scale(0.879121 0.878906)" d="M859.668 784.889L996.407 784.936L1043.95 785.021C1051.65 785.025 1059.9 785.543 1067.55 784.836C1081.49 785.298 1095.63 784.391 1109.51 785.307C1111.56 789.505 1111.99 818.946 1110.42 823.365C1110.17 824.063 1109.86 824.689 1109.52 825.342C1109.44 825.489 1109.37 825.639 1109.3 825.788C1099.6 825.8 1089.77 825.472 1080.08 825.932C1058.96 824.658 1037.03 825.687 1015.86 825.914C981.358 824.473 946.173 825.773 911.623 825.783L708.125 825.815L708.066 785.4L750.586 785.288L773.824 785.071C801.118 785.059 832.949 786.518 859.668 784.889Z"/>
		<path fill="#FEFEFE" transform="scale(0.879121 0.878906)" d="M717.857 803.833C737.951 803.105 934.056 802.756 937.189 804C938.638 804.575 938.696 805.709 939.257 807.079C909.81 808.704 879.155 807.213 849.537 807.205C808.016 807.193 766.239 808.222 724.764 807.38C722.518 807.335 720.676 807.284 718.593 806.388L717.857 803.833Z"/>
		<path fill="#FEFEFE" transform="scale(0.879121 0.878906)" d="M1006.55 803.907C1015.24 802.832 1067.68 802.224 1074.62 804.09L1073.88 806.677C1067.45 808.154 1017.32 808.138 1010.48 806.848C1007.98 806.377 1007.99 805.921 1006.55 803.907Z"/>
		<path fill="#FEFEFE" transform="scale(0.879121 0.878906)" d="M962.771 803.895C967.211 802.967 973.843 802.271 978.279 803.367C980.631 803.948 980.581 804.282 981.77 806.286C977.828 807.338 971.995 807.771 967.934 807.181C964.86 806.735 964.574 806.384 962.771 803.895Z"/>
		<path fill="#FE5168" transform="scale(0.879121 0.878906)" d="M784.419 550.676L1033.05 550.502C1033.52 557.548 1005.54 595.372 1000.67 605.026C988.425 606.432 974.966 605.394 962.599 605.38L888.384 605.304L841.672 605.445C834.885 605.474 826.95 606.318 820.314 605.332C818.062 604.997 816.563 601.979 815.303 600.277C805.607 583.435 794.436 567.353 784.419 550.676Z"/>
		<path fill="#FEFEFE" transform="scale(0.879121 0.878906)" d="M916.221 592.387C927.48 592.1 981.449 590.6 989.126 593.014L990.235 595.319C981.625 596.332 922.213 596.965 916.604 594.742L916.221 592.387Z"/>
		<path fill="#E5E5E5" transform="scale(0.879121 0.878906)" d="M315.555 699.443C328.853 701.544 344.236 700.027 357.768 699.929L357.834 886.266L320.049 886.291C320.146 880.018 320.669 873.434 319.666 867.228C318.865 866.451 318.512 866.067 317.445 865.671L311.769 865.192C305.174 866.03 298.188 865.676 291.531 865.705L291.565 732.93C297.441 729.999 302.094 726.552 306.679 721.84C311.844 714.062 313.233 708.188 315.555 699.443Z"/>
		<path fill="#00B5F3" transform="scale(0.879121 0.878906)" d="M291.565 732.93C297.441 729.999 302.094 726.552 306.679 721.84C306.753 736.154 305.922 860.15 307.773 864.631C309.22 865.08 310.251 865.298 311.769 865.192C305.174 866.03 298.188 865.676 291.531 865.705L291.565 732.93Z"/>
		<path fill="#6A5D7C" transform="scale(0.879121 0.878906)" d="M1147.79 760.104C1165.2 760.791 1182.77 760.239 1200.2 760.181Q1239.66 759.964 1279.12 760.668C1281.66 764.736 1281.71 815.706 1280.47 822.644C1280.27 823.811 1279.74 824.885 1279.12 825.882L1191.55 825.672C1176.84 825.639 1161.6 824.72 1146.99 825.769C1135.94 824.794 1124.11 825.558 1112.99 825.57C1113.52 824.78 1113.89 824.014 1114.12 823.078C1115.51 817.327 1115.07 764.45 1112.85 760.785C1124.47 760.653 1136.19 760.825 1147.79 760.104Z"/>
		<path fill="#6A5D7C" transform="scale(0.879121 0.878906)" d="M670.046 760.455C681.402 760.299 692.796 760.554 704.154 760.626Q704.62 793.039 704.137 825.451L572.822 825.65L538.64 825.767L538.874 760.891L670.046 760.455Z"/>
		<path fill="#6A5D7C" transform="scale(0.879121 0.878906)" d="M1103.26 829.182C1118.22 829.834 1133.38 829.317 1148.37 829.266C1148.88 830.09 1149.22 830.656 1149.45 831.608C1150.83 837.271 1150.43 891.692 1148.38 895.026L1004.02 895.099C1004 874.924 1002.92 853.935 1004.08 833.833C1004.21 831.625 1004.1 830.551 1005.79 829.016C1038.04 830.404 1070.97 829.656 1103.26 829.182Z"/>
		<path fill="#6A5D7C" transform="scale(0.879121 0.878906)" d="M669.688 829.34L815.727 829.385L815.803 894.482L669.292 894.248L669.688 829.34Z"/>
		<path fill="#E5E5E5" transform="scale(0.879121 0.878906)" d="M1461.74 700.072Q1481.69 699.763 1501.63 700.15C1502.44 701.051 1513.68 726.357 1513.65 726.735C1513.58 727.51 1513.35 728.198 1513.04 728.899C1515.3 737.015 1514.15 847.787 1513.58 861.597C1513.5 863.553 1513.17 864.881 1512.23 866.592L1494.59 866.566C1494.98 867.155 1495.33 867.748 1495.6 868.402C1497.4 872.732 1497 881.6 1495.1 885.802L1462.97 885.954C1466.43 892.537 1463.48 923.198 1463.17 932.725C1461.77 913.348 1462.85 893.16 1462.86 873.686L1463.2 758.743C1463.3 741.07 1464.88 721.901 1463.25 704.372C1463.1 702.768 1462.56 701.442 1461.74 700.072Z"/>
		<path fill="#00B5F3" transform="scale(0.879121 0.878906)" d="M204.421 890.15L357.855 890.133Q357.638 913.776 357.737 937.417C348.229 939.402 325.08 937.754 314.291 937.758L204.215 937.877L204.421 890.15Z"/>
		<path fill="#34234D" transform="scale(0.879121 0.878906)" d="M328.526 904.017C331.612 902.856 335.078 902.398 338.221 903.692C340.792 904.751 342.609 906.904 343.565 909.479C344.847 912.936 344.682 917.169 342.955 920.445C341.549 923.112 339.244 924.945 336.287 925.591C333.273 926.25 329.768 925.702 327.021 924.364C325.742 923.391 324.4 922.176 323.471 920.86C321.798 918.488 321.115 915.264 321.709 912.421C322.548 908.406 325.25 906.081 328.526 904.017Z"/>
		<path fill="#00B5F3" transform="scale(0.879121 0.878906)" d="M327.084 909.627C329.63 908.022 331.827 906.499 335 907.131C336.92 907.514 338.617 908.476 339.677 910.159C340.825 911.981 341.242 914.253 340.614 916.327C339.959 918.488 338.419 920.049 336.406 921.015C334.115 922.114 331.71 921.856 329.274 921.622C327.972 920.271 326.583 918.636 325.799 916.93C324.672 914.479 326.08 911.867 327.084 909.627Z"/>
		<path fill="#34234D" transform="scale(0.879121 0.878906)" d="M220.897 923.789C218.259 920.462 215.885 917.147 216.266 912.644C216.473 910.189 217.669 908.049 219.593 906.525C222.587 904.154 226.816 903.391 230.533 903.944C233.522 904.389 236.597 905.774 238.463 908.224C239.901 910.11 240.367 912.492 240.015 914.814C239.454 918.523 237.584 921.085 235.234 923.88L234.753 924.458C229.014 926.439 226.405 926.324 220.897 923.789Z"/>
		<path fill="#00B5F3" transform="scale(0.879121 0.878906)" d="M222.904 920.808C221.551 918.131 220.268 915.544 221.259 912.512C221.933 910.446 223.5 908.469 225.495 907.544C227.117 906.791 229.015 906.827 230.615 907.531C232.667 908.432 234.042 909.908 234.806 912.031C235.64 914.35 235.497 916.69 234.36 918.87C233.901 919.751 233.147 920.626 232.878 921.573C229.083 922.166 226.574 921.935 222.904 920.808Z"/>
		<path fill="#00B5F3" transform="scale(0.879121 0.878906)" d="M1466.38 889.788C1514.94 889.772 1563.59 888.99 1612.14 889.449C1614.94 893.865 1614.59 928.242 1613.5 934.638C1613.32 935.711 1612.84 936.694 1612.27 937.612L1521.26 937.5C1505.65 937.521 1489.76 936.93 1474.21 937.81C1471.77 937.609 1469.34 937.303 1466.92 937.035C1468.81 931.11 1469.28 895.55 1466.67 890.281C1466.58 890.111 1466.48 889.952 1466.38 889.788Z"/>
		<path fill="#34234D" transform="scale(0.879121 0.878906)" d="M1483.55 903.554C1486.44 903.257 1488.75 903.231 1491.43 904.622Q1491.91 904.866 1492.37 905.159Q1492.82 905.451 1493.24 905.788Q1493.66 906.125 1494.05 906.504Q1494.43 906.882 1494.78 907.298Q1495.12 907.714 1495.42 908.163Q1495.72 908.612 1495.97 909.089Q1496.23 909.567 1496.43 910.068Q1496.63 910.568 1496.78 911.087Q1496.92 911.58 1497 912.085Q1497.08 912.59 1497.11 913.102Q1497.14 913.613 1497.12 914.124Q1497.09 914.635 1497.01 915.141Q1496.93 915.647 1496.8 916.141Q1496.66 916.635 1496.47 917.111Q1496.29 917.588 1496.05 918.042Q1495.81 918.496 1495.53 918.922C1493.46 922.064 1490.77 923.326 1487.19 924.001C1486.54 924.039 1485.99 924.072 1485.35 923.938C1482.57 923.355 1479.6 922.259 1477.95 919.81C1476.46 917.585 1476.37 914.751 1476.84 912.19C1477.66 907.739 1480.05 905.949 1483.55 903.554Z"/>
		<path fill="#00B5F3" transform="scale(0.879121 0.878906)" d="M1482.99 907.998C1484.06 907.774 1485.15 907.543 1486.25 907.474C1488.18 907.352 1490.39 908.296 1491.67 909.746C1493.29 911.562 1493.11 912.83 1493 915.065C1491.32 917.667 1490.49 918.156 1487.85 919.557C1486.68 920.033 1485.31 919.847 1484.06 919.841C1482.05 918.673 1481.46 918.27 1480.88 915.847C1480.12 912.66 1481.39 910.599 1482.99 907.998Z"/>
		<path fill="#34234D" transform="scale(0.879121 0.878906)" d="M1584.5 906.752C1586.84 905.299 1590.19 903.091 1593.01 903.148C1595 903.189 1595.34 903.624 1596.7 904.895C1599.63 906.104 1601.83 907.734 1603.17 910.712C1603.98 912.505 1603.92 914.526 1603.16 916.324C1601.8 919.517 1598.38 922 1595.16 923.095C1592.6 923.964 1589.49 924.241 1587 923.059C1584.84 922.034 1583.84 920.158 1583.22 917.938C1582.3 914.578 1582.55 911.718 1583.81 908.517C1584.05 907.927 1584.26 907.339 1584.5 906.752Z"/>
		<path fill="#00B5F3" transform="scale(0.879121 0.878906)" d="M1587.43 908.554C1589.82 907.649 1591.84 906.662 1594.45 907.313C1596.41 908.488 1598.15 909.207 1598.82 911.608C1599.36 913.544 1598.63 915.64 1597.42 917.159C1595.82 919.157 1593.76 919.891 1591.32 920.221C1589.34 919.533 1588.16 919.324 1587.23 917.225C1585.98 914.372 1586.71 911.421 1587.43 908.554Z"/>
		<path fill="#00B5F3" transform="scale(0.879121 0.878906)" d="M1516.72 727.522C1527.74 732.939 1539.87 737.875 1552.26 733.462C1555.5 732.309 1561.68 729.055 1563.31 725.988C1563.4 725.811 1563.45 725.612 1563.52 725.425C1564.23 727.064 1564.65 728.574 1564.74 730.362C1565.56 745.496 1566.28 859.463 1563.85 866.563C1560.73 866.659 1557.33 867.192 1554.51 865.662L1552.83 863.261C1553.81 861.502 1554.11 860.091 1554.24 858.098C1554.91 847.5 1555.53 767.36 1554.11 762.002C1553.75 760.683 1553.68 760.755 1552.51 760.091C1546.79 765.177 1554.54 856.807 1549.35 866.076C1549.27 866.221 1549.17 866.359 1549.08 866.501L1531.19 866.497C1532.39 864.246 1532.61 862.242 1532.73 859.737C1533.7 839.424 1532.48 818.425 1532.51 798.044C1532.52 785.239 1534.26 766.262 1532.33 754.216C1532.08 752.658 1531.88 752.754 1530.61 751.841L1529.15 752.571C1526.92 757.929 1528.94 850.717 1528.33 865.887C1526.31 867.38 1519.43 866.632 1516.66 866.647C1518.85 862.077 1519.05 754.894 1516.97 748.679C1518.48 743.469 1519.03 732.407 1516.72 727.522Z"/>
		<path fill="#00B5F3" transform="scale(0.879121 0.878906)" d="M254.214 727.203C263.726 732.807 270.497 735.66 281.698 735.286C283.92 734.93 285.549 734.166 287.486 735.471C288.693 750.872 287.807 766.838 287.759 782.295L287.584 865.649L268.412 865.564C268.413 852.179 270.139 752.567 266.757 748.291C265.059 750.123 264.726 752.951 264.475 755.421C263.359 766.432 264.253 778.277 264.218 789.383Q264.049 827.465 264.477 865.546L254.127 865.445C254.117 839.531 255.575 809.695 253.95 784.275C254.678 765.328 254.161 746.174 254.214 727.203Z"/>
		<path fill="#00B5F3" transform="scale(0.879121 0.878906)" d="M259.927 670.024C267.831 665.868 274.172 664.712 283.06 665.788C292.851 668.412 301.137 673.057 306.438 681.997C310.85 689.438 312.33 698.719 309.984 707.088C307.567 715.71 301.364 722.949 293.569 727.226C289.176 729.637 284.235 730.905 279.323 731.734C268.472 731.732 261.233 727.661 253.156 720.742C249.032 715.067 246.155 709.852 244.288 703.055C244.273 700.416 244.295 697.766 244.617 695.144C245.996 683.906 251.13 676.839 259.927 670.024Z"/>
		<path fill="#34234D" transform="scale(0.879121 0.878906)" d="M271.064 689.644C274.857 688.209 277.545 688.139 281.486 688.761C285.164 691.15 287.896 693.09 288.826 697.692C289.354 700.304 288.921 703.035 287.499 705.301C285.893 707.861 282.893 710.103 279.922 710.754C278.043 711.165 275.881 711.11 273.97 711.011C271.947 709.977 269.897 708.723 268.339 707.047C266.418 704.977 265.224 702.038 265.409 699.198C265.68 695.027 268.214 692.332 271.064 689.644Z"/>
		<path fill="#00B5F3" transform="scale(0.879121 0.878906)" d="M271.67 693.517C274.367 692.119 276.677 691.672 279.645 691.236C282.46 693.348 284.846 694.927 285.262 698.724C285.476 700.686 285.063 702.568 283.772 704.097C282.276 705.868 279.874 707.081 277.548 707.157C276.252 707.199 274.95 707.08 273.662 706.957C272.398 705.455 271.209 703.902 270.419 702.089C269.098 699.057 270.533 696.356 271.67 693.517Z"/>
		<path fill="#00B5F3" transform="scale(0.879121 0.878906)" d="M1506.83 698.812C1509.27 687.903 1512.85 678.416 1522.83 672.155Q1523.5 671.739 1524.2 671.358Q1524.89 670.976 1525.6 670.629Q1526.32 670.282 1527.04 669.971Q1527.77 669.659 1528.52 669.385Q1529.26 669.11 1530.01 668.872Q1530.77 668.634 1531.54 668.434Q1532.3 668.234 1533.08 668.072Q1533.85 667.91 1534.63 667.787Q1535.42 667.663 1536.2 667.579Q1536.99 667.494 1537.78 667.449Q1538.57 667.403 1539.36 667.397Q1540.16 667.391 1540.95 667.424Q1541.74 667.457 1542.53 667.529Q1543.32 667.601 1544.1 667.712Q1544.89 667.823 1545.66 667.972Q1546.44 668.122 1547.21 668.31Q1548.03 668.521 1548.84 668.774Q1549.65 669.026 1550.45 669.32Q1551.25 669.613 1552.03 669.946Q1552.81 670.279 1553.57 670.651Q1554.34 671.022 1555.08 671.432Q1555.82 671.842 1556.54 672.289Q1557.27 672.736 1557.97 673.219Q1558.66 673.702 1559.34 674.219Q1560.01 674.736 1560.66 675.287Q1561.3 675.838 1561.92 676.42Q1562.54 677.003 1563.13 677.616Q1563.71 678.229 1564.27 678.87Q1564.83 679.512 1565.35 680.181Q1565.87 680.85 1566.36 681.545Q1566.85 682.239 1567.3 682.958Q1567.75 683.676 1568.17 684.416C1572.15 691.355 1573.63 699.579 1571.45 707.354C1569.97 712.659 1566.74 717.949 1562.82 721.81C1557.87 726.216 1552.56 729.573 1545.99 730.906Q1545.24 731.053 1544.49 731.162Q1543.74 731.272 1542.98 731.344Q1542.22 731.417 1541.46 731.451Q1540.7 731.486 1539.94 731.483Q1539.17 731.48 1538.41 731.44Q1537.65 731.399 1536.89 731.321Q1536.14 731.243 1535.38 731.128Q1534.63 731.012 1533.88 730.86Q1533.14 730.708 1532.4 730.518Q1531.66 730.329 1530.94 730.104Q1530.21 729.879 1529.49 729.618Q1528.78 729.357 1528.07 729.061Q1527.37 728.765 1526.69 728.435Q1526 728.104 1525.33 727.741Q1524.66 727.377 1524.01 726.98Q1523.36 726.584 1522.73 726.156C1512.64 719.369 1509.01 710.198 1506.83 698.812Z"/>
		<path fill="#34234D" transform="scale(0.879121 0.878906)" d="M1525.81 702.37C1527.02 695.665 1528.64 691.312 1534.42 687.228C1536.29 685.905 1539.27 684.931 1541.56 685.426C1543.71 685.891 1545.63 687.174 1546.85 688.901C1549.74 690.044 1551.42 691.291 1552.71 694.202C1554.22 697.635 1553.88 701.529 1552.38 704.893C1550.84 708.331 1548.01 711.296 1544.46 712.637C1541.09 713.904 1537.44 713.416 1534.27 711.868C1530.1 709.837 1527.92 706.323 1525.81 702.37Z"/>
		<path fill="#00B5F3" transform="scale(0.879121 0.878906)" d="M1529.02 699.41C1530.74 696.507 1532.96 692.406 1536.04 690.803C1538.81 689.361 1541.58 689.995 1544.38 690.804C1547.21 692.737 1549.38 694.639 1549.9 698.283C1550.29 701.056 1549.34 704.002 1547.51 706.1C1545.75 708.119 1543.29 709.257 1540.61 709.249C1537.57 709.24 1534.58 707.812 1532.59 705.522C1531.07 703.776 1530.04 701.472 1529.02 699.41Z"/>
		<path fill="#00B5F3" transform="scale(0.879121 0.878906)" d="M434.694 619.223C438.797 611.689 450.735 582.841 456.442 579.508C458.26 578.446 459.954 579.302 461.864 579.751C462.099 580.596 462.613 581.78 462.665 582.627C462.905 586.486 448.886 613.495 446.586 619.143C451.662 624.741 455.582 630.632 457.179 638.14C457.577 640.01 457.495 643.989 458.558 645.468C458.976 646.048 459.994 646.696 460.562 647.183C467.903 651.897 485.11 660.623 488.367 668.386C488.088 670.297 488.213 670.702 486.501 671.846C485.318 672.636 483.624 672.91 482.217 673.015C475.726 667.842 466.112 663.854 460.449 658.213C458.36 656.133 459.692 653.251 457.708 651.032C454.035 652.689 450.847 662.419 446.943 665.924L446.224 666.561C441.371 669.436 436.345 671.705 431.2 673.99C435.343 681.201 441.337 687.319 445.452 694.611C446.903 697.181 448.223 699.76 447.35 702.761C445.826 704.161 444.925 704.658 442.858 704.872C435.018 700.072 429.238 684.513 423.01 676.892C419.218 672.252 413.331 669.573 409.169 665.231C402.867 658.656 402.419 649.555 402.465 641.011L403.863 638.396C405.89 638.167 406.387 638.46 407.992 639.797C411.222 642.488 413.891 647.304 416.218 650.808C419.754 653.947 423.304 656.646 428.312 656.451C430.413 656.369 432.681 655.983 434.553 655.02C436.356 653.974 437.771 652.928 439.092 651.319C441.385 648.527 442.588 645.486 442.128 641.808C441.5 636.792 437.882 633.748 434.02 631.01C428.865 629.259 426.045 629.494 420.982 631.476C417.4 634.132 415.829 637.53 413.98 641.462C411.166 638.484 408.214 635.615 405.332 632.702C407.705 629.986 410.272 627.656 412.999 625.3L419.455 621.6C424.305 621.329 429.739 619.787 434.694 619.223Z"/>
		<path fill="#00B5F3" transform="scale(0.879121 0.878906)" d="M1361.23 602.667C1361.27 602.531 1361.31 602.397 1361.34 602.259C1362.72 595.605 1353.61 590.315 1356.78 582.548C1358.2 581.555 1358.95 581.029 1360.72 581.083C1366.37 585.067 1380.36 613.851 1381.73 621.318C1381.86 622.06 1381.75 622.529 1381.6 623.256C1381.52 623.372 1381.44 623.488 1381.36 623.602C1377.22 629.252 1369.78 634.157 1371 642.139C1371.56 645.864 1373.17 648.717 1375.27 651.775C1375.64 652.306 1375.94 652.858 1376.25 653.424C1379.03 655.549 1382.23 657.575 1385.73 658.175C1390.48 658.988 1395.57 657.369 1399.43 654.597C1403.26 651.847 1408.24 646.338 1408.7 641.424C1408.89 639.384 1408.61 638.516 1407.33 637.014C1401.8 640.583 1402.92 649.913 1394.31 653.355C1388.64 655.618 1384.29 653.947 1379 651.572C1378.26 645.888 1373.2 643.898 1375.19 637.107C1376.41 632.914 1381.34 628.794 1385.08 626.75C1385.96 626.273 1385.9 625.716 1386.24 624.806C1391.15 623.399 1396.68 622.514 1401.45 625.008C1402.76 625.693 1404.13 626.582 1404.94 627.848C1409.76 630.667 1413.05 637.809 1414.38 643.078C1415.57 647.791 1415.94 653.402 1413.25 657.69C1412.84 658.351 1412.39 658.914 1411.88 659.505C1409.94 664.177 1404.67 667.178 1400.19 669.015Q1397.53 670.08 1394.81 670.991C1390.01 672.183 1385.6 671.936 1380.73 671.31C1378.07 669.237 1374.38 668 1371.56 665.865C1365.37 661.173 1362.92 655.033 1358.22 649.355C1358.09 649.197 1357.95 649.041 1357.82 648.885C1358.77 646.17 1358.13 642.847 1358.21 639.987C1358.59 626.907 1362.13 628.634 1368.86 619.656C1369.06 619.391 1369.25 619.121 1369.44 618.853C1369.47 618.245 1369.51 617.735 1369.34 617.139C1368.24 613.18 1364.69 604.926 1361.23 602.667Z"/>
		<path fill="#00B5F3" transform="scale(0.879121 0.878906)" d="M235.886 869.466L316.446 869.38L316.411 886.268L235.646 886.256Q235.579 877.858 235.886 869.466Z"/>
		<path fill="#FEFEFE" transform="scale(0.879121 0.878906)" d="M1595.01 494.963C1599.4 496.634 1641.52 540.831 1646.58 547.553L1646.54 549.478C1644.99 551.001 1643.46 551.879 1641.52 552.837C1638.3 555.1 1635.15 557.17 1631.66 558.977C1631.59 558.407 1631.6 558.185 1631.3 557.609C1628.46 552.185 1606.25 529.434 1601.18 527.159C1600.33 521.819 1588.81 514.57 1585.35 509.19C1585.14 507.116 1585.34 506.767 1586.18 504.947C1591.31 502.674 1593 499.924 1595.01 494.963Z"/>
		<path fill="#FEFEFE" transform="scale(0.879121 0.878906)" d="M222.673 496.251C225.895 501.012 228.242 504.869 233.877 506.724L234.09 508.42C223.028 521.656 209.113 532.956 197.324 545.639C191.693 549.239 185.982 556.616 181.282 561.531C177.868 557.81 171.229 553.459 169.96 548.502L171.795 545.982Q196.957 520.834 222.673 496.251Z"/>
		<path fill="#00B5F3" transform="scale(0.879121 0.878906)" d="M1499.78 872.036C1500.24 871.659 1500.99 870.831 1501.49 870.612C1504.72 869.211 1573.29 870.348 1581.76 870.492C1583.21 874.789 1584.06 880.998 1581.85 885.205C1581.73 885.432 1581.59 885.65 1581.46 885.872L1498.69 885.636C1500.92 881.806 1500.36 877.192 1499.76 872.969L1499.78 872.036Z"/>
		<path fill="#00B5F3" transform="scale(0.879121 0.878906)" d="M1558.51 471.249C1566.47 468.425 1569.75 465.389 1578.7 466.752C1584.51 468.933 1589.16 472.407 1591.85 478.175C1593.25 481.173 1594.1 485.132 1593.08 488.359C1592.85 489.106 1592.48 489.723 1592.09 490.395C1592.1 494.118 1589.85 497.06 1587.33 499.605C1585.92 501.043 1584.53 502.175 1582.73 503.118C1579.97 505.163 1577.51 505.892 1574.21 506.686C1572.23 506.592 1570.22 506.486 1568.3 505.959C1563.68 504.694 1558.48 502.125 1556.07 497.822C1553.16 492.602 1553 483.701 1555.38 478.289C1556.28 476.244 1557.79 474.407 1558.31 472.22C1558.38 471.898 1558.44 471.572 1558.51 471.249Z"/>
		<path fill="#34234D" transform="scale(0.879121 0.878906)" d="M1566.61 475.11C1569.39 474.684 1572.61 474.216 1575.28 475.241C1578.65 476.531 1581.73 479.458 1582.95 482.895C1583.74 485.14 1583.65 487.816 1582.6 489.967C1580.99 493.259 1578.21 494.977 1574.89 496.166C1573.52 497.033 1571.22 497.145 1569.58 496.996C1567.22 496.781 1565.14 495.422 1563.61 493.657C1561.44 491.149 1560.38 487.129 1560.72 483.826C1561.15 479.564 1563.52 477.642 1566.61 475.11Z"/>
		<path fill="#00B5F3" transform="scale(0.879121 0.878906)" d="M1567.41 478.666C1569.19 478.418 1571.23 478.154 1573.01 478.488C1575.25 478.911 1577.62 480.761 1578.75 482.721C1579.76 484.481 1579.86 486.521 1579.08 488.39C1578.13 490.704 1576.15 491.877 1574 492.89C1573.55 493.078 1573.36 493.182 1572.91 493.282C1571.04 493.692 1568.62 493.296 1567.09 492.123C1565.13 490.625 1564.4 488.237 1564.25 485.87C1564.04 482.568 1565.36 480.979 1567.41 478.666Z"/>
		<path fill="#00B5F3" transform="scale(0.879121 0.878906)" d="M224.418 483.75C226.359 477.584 228.812 472.057 234.741 468.808C240.564 465.616 246.581 466.384 252.698 468.142C257.854 471.477 262.354 475.234 263.796 481.499C264.756 485.671 263.978 490.044 262.788 494.078C261.118 496.619 259.509 499.228 257.644 501.631C251.205 506.265 246.778 506.995 238.977 505.926C236.777 504.868 234.482 503.755 232.603 502.18C226.678 497.209 225.046 491.205 224.418 483.75Z"/>
		<path fill="#6A5D7C" transform="scale(0.879121 0.878906)" d="M844.344 888.971C847.462 888.774 850.741 888.508 853.734 889.604C857.841 891.108 861.227 894.505 862.927 898.516C864.593 902.445 864.692 907.094 862.955 911.016C860.771 915.947 857.378 918.175 852.495 920.055C849.456 920.247 846.313 920.431 843.34 919.622C839.402 918.549 835.819 915.616 833.873 912.047C831.924 908.471 831.702 904.221 832.955 900.378C834.862 894.527 839.066 891.604 844.344 888.971Z"/>
		<path fill="#6A5D7C" transform="scale(0.879121 0.878906)" d="M966.877 889.018C969.423 888.92 972.302 888.957 974.742 889.775C978.706 891.104 982.243 893.98 984.068 897.773C985.98 901.746 985.92 906.168 984.365 910.246C982.309 915.639 978.244 918.077 973.235 920.417C970.16 920.71 967.088 920.799 964.136 919.72C960.36 918.34 957.08 915.32 955.414 911.659Q955.081 910.917 954.826 910.146Q954.571 909.374 954.395 908.58Q954.22 907.786 954.126 906.979Q954.033 906.171 954.022 905.358Q954.011 904.546 954.083 903.736Q954.155 902.926 954.309 902.128Q954.464 901.33 954.698 900.552Q954.933 899.773 955.246 899.023C957.496 893.509 961.633 891.246 966.877 889.018Z"/>
		<path fill="#6A5D7C" transform="scale(0.879121 0.878906)" d="M906.38 888.957C909.154 888.8 912.335 888.718 915.001 889.64Q915.75 889.904 916.47 890.239Q917.19 890.575 917.873 890.979Q918.557 891.384 919.198 891.853Q919.838 892.322 920.43 892.852Q921.022 893.381 921.56 893.966Q922.097 894.55 922.575 895.185Q923.053 895.819 923.467 896.497Q923.88 897.176 924.226 897.891Q924.561 898.581 924.825 899.301Q925.09 900.021 925.282 900.764Q925.474 901.506 925.591 902.264Q925.709 903.022 925.75 903.788Q925.792 904.554 925.757 905.321Q925.723 906.087 925.612 906.846Q925.502 907.605 925.316 908.349Q925.131 909.094 924.873 909.816C923.067 915 919.389 917.696 914.638 920.025C911.434 920.276 908.182 920.469 905.09 919.405C901.15 918.05 897.694 914.926 895.931 911.152Q895.607 910.458 895.352 909.735Q895.098 909.013 894.915 908.269Q894.732 907.525 894.622 906.767Q894.513 906.009 894.478 905.244Q894.444 904.478 894.484 903.713Q894.524 902.948 894.639 902.191Q894.754 901.434 894.942 900.691Q895.13 899.949 895.39 899.228C897.446 893.702 901.185 891.252 906.38 888.957Z"/>
		<path fill="#6A5D7C" transform="scale(0.879121 0.878906)" d="M628.341 889.821C631.597 889.665 634.755 889.608 637.818 890.927C641.853 892.665 645.23 896.115 646.753 900.254C648.121 903.97 648.045 908.017 646.287 911.593C643.969 916.311 640.418 918.336 635.623 919.99C632.442 920.171 628.833 920.414 625.802 919.273Q625.099 919.001 624.425 918.663Q623.751 918.325 623.113 917.923Q622.475 917.521 621.879 917.059Q621.283 916.597 620.735 916.08Q620.187 915.562 619.691 914.994Q619.195 914.426 618.757 913.812Q618.318 913.199 617.942 912.546Q617.565 911.892 617.253 911.206Q616.966 910.554 616.745 909.876Q616.523 909.199 616.37 908.503Q616.216 907.807 616.131 907.099Q616.046 906.392 616.03 905.679Q616.015 904.966 616.07 904.256Q616.125 903.545 616.249 902.844Q616.373 902.142 616.565 901.455Q616.757 900.769 617.016 900.105C619.161 894.576 623.122 892.092 628.341 889.821Z"/>
		<path fill="#6A5D7C" transform="scale(0.879121 0.878906)" d="M1243.57 889.331C1248.06 889.036 1251.62 888.999 1255.57 891.518Q1256.25 891.954 1256.88 892.456Q1257.52 892.957 1258.1 893.518Q1258.68 894.079 1259.2 894.695Q1259.72 895.31 1260.18 895.975Q1260.64 896.639 1261.04 897.345Q1261.43 898.052 1261.75 898.793Q1262.07 899.535 1262.32 900.304Q1262.56 901.074 1262.73 901.864C1263.56 905.806 1262.93 909.839 1260.71 913.226C1258.08 917.241 1254.2 919.065 1249.64 919.979C1247.52 920.309 1244.72 920.207 1242.65 919.552Q1241.95 919.334 1241.28 919.047Q1240.6 918.76 1239.96 918.408Q1239.32 918.056 1238.72 917.641Q1238.11 917.226 1237.56 916.753Q1237 916.281 1236.49 915.755Q1235.98 915.229 1235.52 914.654Q1235.07 914.08 1234.68 913.464Q1234.28 912.847 1233.95 912.194C1231.85 907.997 1231.77 903.116 1233.38 898.743C1235.23 893.716 1238.9 891.447 1243.57 889.331Z"/>
		<path fill="#6A5D7C" transform="scale(0.879121 0.878906)" d="M568.817 889.819C571.223 889.779 573.841 889.63 576.175 890.273C580.344 891.422 584.216 894.283 586.245 898.137Q586.581 898.778 586.851 899.45Q587.122 900.122 587.324 900.817Q587.526 901.512 587.659 902.224Q587.791 902.935 587.853 903.656Q587.914 904.378 587.903 905.102Q587.893 905.826 587.81 906.545Q587.728 907.264 587.574 907.972Q587.421 908.679 587.198 909.368C585.408 915.047 581.382 917.888 576.313 920.491C573.163 920.883 569.853 921.056 566.822 919.935Q566.125 919.681 565.457 919.359Q564.788 919.037 564.154 918.651Q563.521 918.265 562.929 917.818Q562.336 917.371 561.791 916.868Q561.245 916.365 560.752 915.811Q560.259 915.256 559.822 914.656Q559.386 914.056 559.011 913.416Q558.636 912.775 558.326 912.101Q557.997 911.368 557.743 910.606Q557.489 909.844 557.313 909.06Q557.137 908.276 557.041 907.478Q556.945 906.681 556.929 905.877Q556.913 905.074 556.979 904.273Q557.044 903.472 557.189 902.682Q557.334 901.892 557.558 901.121Q557.783 900.349 558.083 899.604C560.198 894.337 563.823 892.048 568.817 889.819Z"/>
		<path fill="#6A5D7C" transform="scale(0.879121 0.878906)" d="M1182.46 890.219C1187.32 889.395 1191.37 888.93 1195.83 891.418C1199.58 893.502 1202.49 897.07 1203.63 901.213C1204.65 904.894 1204.29 908.819 1202.39 912.155C1199.91 916.498 1196.66 918.283 1191.97 919.558C1190.09 920.317 1187.79 920.225 1185.82 919.923C1181.94 919.328 1178.63 917.675 1176.33 914.418C1173.67 910.658 1172.95 905.983 1173.71 901.498C1174.65 896.035 1178.15 893.236 1182.46 890.219Z"/>
		<path fill="#00B5F3" transform="scale(0.879121 0.878906)" d="M1397.09 673.819L1397.61 675.433C1396.8 676.371 1396.01 677.34 1395.15 678.235C1395.01 678.934 1394.81 679.375 1394.41 679.97C1389.61 687.071 1381.61 701.316 1372.93 702.97C1370.84 702.266 1370.8 702.181 1369.63 700.302C1369.68 693.065 1379.33 685.745 1382.96 679.519C1383.63 678.36 1384.26 677.425 1385.12 676.396C1389.17 675.788 1393.24 675.317 1397.09 673.819Z"/>
		<path fill="#00B5F3" transform="scale(0.879121 0.878906)" d="M422.003 635.285C425.539 633.371 428.133 633.445 431.945 634.111C434.586 636.514 437.653 638.992 437.989 642.823C438.234 645.616 436.775 647.817 434.961 649.749C434.061 650.708 433.126 651.539 432.079 652.329C426.961 652.83 424.569 651.918 420.094 649.631C419.115 648.114 418.239 646.566 417.956 644.754C417.397 641.17 420.087 638.046 422.003 635.285Z"/>
		<path fill="#00B5F3" transform="scale(0.879121 0.878906)" d="M1340.04 670.905C1338.53 672.086 1335.93 673.198 1334.02 673.375C1332.67 673.499 1332.58 673.129 1331.52 672.278C1330.97 670.341 1330.72 669.455 1331.62 667.493C1334.94 660.278 1348.05 654.583 1354.95 651.683C1356.54 653.469 1358.97 656.783 1358.83 659.344C1358.83 659.488 1358.78 659.626 1358.75 659.767C1353.3 664.084 1346.3 667.852 1340.04 670.905Z"/>
		<path fill="#584B6D" transform="scale(0.879121 0.878906)" d="M110.901 953.065C157.405 952.279 204.053 953.599 250.576 953.65L561.231 953.726L1481.59 953.518L1620.84 953.638C1646.97 953.469 1673.29 952.164 1699.39 952.683C1702.17 952.738 1704.74 952.689 1707.3 953.881L1707.68 955.609L1705.49 957.409C1693.83 958.529 1681.03 957.566 1669.25 957.58L1593.96 957.654L1351.54 957.879L540.366 957.794L212.245 957.652L136.583 957.44C130.335 957.421 118.769 958.696 113.189 957.418C112.76 957.32 111.858 956.546 111.446 956.276L110.901 953.065Z"/>
		<path fill="#34234D" transform="scale(0.879121 0.878906)" d="M57.0438 953.149C63.7219 953.025 81.755 951.229 87.4187 953.566C89.1389 954.275 89.1318 955.704 89.6433 957.314C82.9811 957.416 61.8026 959.068 57.5302 956.039L57.0438 953.149Z"/>
		<path fill="#34234D" transform="scale(0.879121 0.878906)" d="M1731.19 953.333C1737.81 952.133 1749.29 951.673 1755.95 952.993C1757.79 953.358 1758.01 953.315 1759.04 954.853L1757.6 956.89C1757.4 956.959 1757.2 957.032 1756.99 957.097C1753.42 958.21 1735.85 958.675 1732.51 956.56C1731.36 955.834 1731.46 954.604 1731.19 953.333Z"/>
	</g>
	<g>
		<path fill="#FEFEFE" transform="scale(0.879121 0.878906)" d="M0 0L1818.44 0C1820.58 3.35778 1819.99 8.22266 1820 12.0828L1820 742.336L1820.01 943.951L1820 997.417C1819.99 1004.76 1820.98 1013.76 1819.75 1020.9C1819.56 1022.02 1819.05 1023.05 1818.44 1024L0 1024L0 0ZM738.792 334.316C715.619 333.722 692.332 334.172 669.146 334.213L669.209 128.881L562.502 128.892L562.469 284.289C562.457 292.195 563.698 327.245 562.149 332.87C562.004 333.394 561.385 334.175 561.095 334.67C545.774 333.637 515.599 330.658 503.679 341.321C497.268 347.057 494.473 355.514 494.135 363.924C493.775 372.861 492.31 394.639 495.934 402.214L497.09 402.162C504.996 383.41 486.359 351.329 514.396 339.965C515.788 339.401 517.158 338.858 518.627 338.537C526.965 338.922 535.293 338.843 543.637 338.786C539.447 343.365 535.594 348.29 534.253 354.493C531.423 367.588 533.259 396.5 533.265 411.274C533.276 435.819 532.22 460.87 533.255 485.356C533.614 493.846 536.453 498.676 542.111 504.833L541.483 505.226C529.418 505.119 515.279 508.213 506.014 498.536C490.185 482.003 503.978 424.765 497.156 417.764L495.267 418.192C493.033 424.491 493.603 474.085 494.41 482.023C494.823 486.084 495.742 490.045 497.502 493.741C500.657 500.364 506.295 505.16 513.243 507.441C521.239 510.067 529.989 509.205 538.29 508.973L562.193 509.04L562.303 756.581L535.2 756.478C534.114 816.875 534.794 877.456 534.958 937.869L394.577 938.159C394.572 921.382 396.153 820.925 393.42 813.137C391.687 814.43 391.289 817.119 390.948 819.238C389.273 829.67 390.899 842.538 390.893 853.277L390.712 938.119L379.492 938.14L379.421 828.423C379.412 812.876 380.712 794.49 379.542 779.389C379.437 778.037 378.992 776.345 377.949 775.405C377.776 775.249 377.583 775.117 377.401 774.973C375.865 777.001 375.822 779.206 375.643 781.713C374.445 798.449 375.691 816.088 375.672 832.912L375.427 937.846L361.887 937.836L361.804 696.085C350.221 695.99 325.922 694.078 315.386 696.962Q314.576 693.161 313.58 689.404C310.193 677.076 302.606 670.102 291.88 664.056C285.042 656.043 276.869 648.727 269.399 641.287C242.483 614.48 212.88 588.861 188.691 559.585C194.567 553.957 200.523 548.392 206.033 542.4C213.379 537.506 231.719 517.051 239.214 509.557Q241.627 510.013 244.078 510.153C251.4 510.619 255.567 508.408 260.933 503.64C261.887 502.456 262.399 501.996 263.849 501.381L266.114 502.986C268.539 505.558 270.911 508.301 273.669 510.514L342.36 577.099C351.241 585.778 361.978 598.675 371.796 605.594C377.093 610.76 397.7 628.803 400.237 633.978C399.834 635.74 399.446 637.412 398.758 639.087C397.762 648.372 398.424 658.034 404.459 665.686C407.951 670.113 413.258 673.004 417.34 676.865C422.999 682.219 427.211 690.645 431.384 697.212C433.288 700.208 437.739 708.396 441.468 708.765C444.602 709.075 447.243 708.01 449.621 706.037C451.058 704.846 451.947 703.318 452.005 701.386C452.243 693.541 441.723 681.756 437.373 675.619C441.901 673.769 446.345 671.848 449.922 668.411C452.204 665.749 454.606 663.145 456.485 660.175Q467.938 668.254 479.651 675.95C481.413 676.398 483.738 677.195 485.574 676.949C487.725 676.661 489.888 674.578 491.015 672.837C492.127 671.118 492.499 669.248 492.028 667.248C489.85 658.016 469.898 648.545 462.094 643.768C462.141 633.595 457.637 625.59 451.195 618.134C454.588 610.996 466.268 590.153 466.843 583.983C467.077 581.472 466.244 580.503 464.858 578.615C463.169 576.562 461.437 574.92 458.638 574.719C456.624 574.575 454.771 575.618 453.363 576.974C446.384 583.699 436.379 614.58 428.826 615.903L428.008 616.051Q426.878 616.251 425.739 616.389C419.468 617.243 413.368 618.87 408.75 623.502C406.511 625.044 404.436 627.983 402.615 630.058C394.593 621.187 385.349 612.999 376.769 604.64C343.299 573.018 311.064 540.011 277.52 508.437C274.705 505.081 270.874 502.017 267.694 498.958L265.755 497.008C266.992 493.186 267.94 489.253 268.975 485.371C266.579 476.628 264.076 470.257 255.983 465.59C249.306 462.485 242.83 461.419 235.738 464.013Q235.189 464.215 234.65 464.445Q234.112 464.674 233.586 464.93Q233.059 465.186 232.546 465.468Q232.033 465.75 231.535 466.057Q231.037 466.364 230.554 466.696Q230.072 467.027 229.606 467.382Q229.141 467.737 228.694 468.115Q228.247 468.493 227.819 468.892Q227.391 469.292 226.984 469.712Q226.577 470.133 226.191 470.573Q225.805 471.013 225.441 471.472Q225.078 471.931 224.738 472.407Q224.397 472.883 224.081 473.376Q223.765 473.869 223.474 474.377Q223.183 474.884 222.917 475.406Q222.651 475.928 222.412 476.462C220.742 480.192 220.179 484.139 220.47 488.197C220.681 490.684 221.048 491.483 219.42 493.505C215.545 498.32 210.227 502.713 205.774 507.091C193.717 518.946 181.11 530.553 169.555 542.88L164.518 547.709C156.503 545.406 149.694 545.137 142.223 549.391C135.335 553.314 129.39 559.953 127.297 567.697C125.158 575.611 126.796 583.951 130.877 590.953C137.517 602.343 162.456 625.337 173.073 634.734C182.181 644.915 237.825 697.036 239.818 702.176C237.222 712.345 238.967 729.175 239.005 739.985L239.15 822.445C239.142 835.595 240.169 849.602 238.902 862.649C238.796 863.75 239.114 864.096 238.042 864.68C236.558 865.488 234.332 865.389 232.671 865.48C231.865 872.346 232.068 879.327 232.052 886.233L200.346 886.145C200.324 902.835 199.677 919.769 200.378 936.429C195.055 940.67 179.945 934.146 176.052 939.171C176.484 940.322 176.289 940.679 177.488 941.195C179 941.845 1631.88 943.12 1636.94 941.051C1637.41 940.862 1637.74 940.593 1638.16 940.31C1637.81 939.148 1637.58 938.597 1636.68 937.77C1642.63 932.909 1649.53 928.998 1655.73 924.442C1668.97 914.718 1680.01 902.953 1690.3 890.175C1709.08 866.849 1720.81 840.603 1726.36 811.201Q1727.65 804.096 1728.42 796.916Q1729.2 789.737 1729.45 782.52Q1729.71 775.304 1729.45 768.087Q1729.19 760.871 1728.41 753.692C1725.8 730.821 1720.62 708.771 1722.39 685.546C1724.94 652.175 1734.39 619.192 1741.3 586.537C1748.73 551.385 1752.03 512.64 1748.13 476.977C1739.27 395.885 1699.05 330.776 1635.71 280.148Q1632.37 277.501 1628.96 274.951Q1625.55 272.401 1622.07 269.949Q1618.59 267.498 1615.04 265.148Q1611.48 262.798 1607.87 260.551Q1604.25 258.304 1600.57 256.161Q1596.89 254.019 1593.15 251.983Q1589.41 249.948 1585.61 248.02Q1581.81 246.093 1577.96 244.275Q1574.11 242.458 1570.21 240.752Q1566.31 239.045 1562.36 237.452Q1558.41 235.858 1554.41 234.379Q1550.42 232.9 1546.39 231.536Q1542.35 230.172 1538.28 228.924Q1534.21 227.676 1530.1 226.546Q1526 225.416 1521.86 224.404Q1517.72 223.393 1513.56 222.5Q1509.4 221.608 1505.21 220.835Q1501.02 220.062 1496.81 219.41Q1492.6 218.759 1488.38 218.228Q1484.15 217.697 1479.92 217.288Q1475.68 216.878 1471.43 216.591Q1467.18 216.304 1462.92 216.138Q1458.67 215.973 1454.41 215.93Q1450.15 215.888 1445.89 215.967Q1441.64 216.046 1437.38 216.248Q1433.13 216.45 1428.88 216.773Q1424.64 217.097 1420.4 217.543Q1416.17 217.988 1411.95 218.555Q1407.73 219.122 1403.52 219.81Q1399.32 220.499 1395.14 221.307Q1390.96 222.115 1386.8 223.044Q1382.65 223.972 1378.52 225.019C1364.33 228.706 1350.4 233.527 1336.35 237.698Q1310.96 245.236 1285.12 251.047C1276.36 253.083 1267.23 255.765 1258.29 256.68L1257.3 256.774C1258.72 259.34 1258.45 262.494 1258.31 265.319C1255.91 257.281 1257.36 245.128 1257.37 236.608C1257.39 225.246 1258.98 135.87 1257.25 132.103C1256.89 131.332 1255.95 130.397 1255.42 129.697C1249.67 127.441 1163.4 129.155 1149.51 129.189C1151.57 133.557 1151.94 159.597 1150.41 163.862C1150.16 164.557 1149.86 165.209 1149.5 165.854C1151.13 171.351 1150.64 247.542 1150 256.881C1149.9 258.205 1149.5 259.554 1148.91 260.736C1148.83 260.896 1148.72 261.043 1148.63 261.197C1107.46 258.157 1068.02 252.086 1027.99 241.997C1013.96 238.46 999.917 234.985 986.43 229.639C986.369 237.174 985.073 247.266 987.005 254.45C991.289 256.681 998.23 253.23 1003.5 256.11L985.023 256.301C984.289 242.262 984.8 227.893 984.817 213.819Q985.36 163.546 984.851 113.273L834.679 112.835L834.56 255.677C817.212 254.785 793.629 251.588 779.864 264.221C771.991 271.447 768.829 281.715 768.509 292.148C768.08 306.132 768.434 320.222 768.466 334.215C758.601 334.228 748.646 333.951 738.792 334.316ZM1705.49 957.409L1707.68 955.609L1707.3 953.881C1704.74 952.689 1702.17 952.738 1699.39 952.683C1673.29 952.164 1646.97 953.469 1620.84 953.638L1481.59 953.518L561.231 953.726L250.576 953.65C204.053 953.599 157.405 952.279 110.901 953.065L111.446 956.276C111.858 956.546 112.76 957.32 113.189 957.418C118.769 958.696 130.335 957.421 136.583 957.44L212.245 957.652L540.366 957.794L1351.54 957.879L1593.96 957.654L1669.25 957.58C1681.03 957.566 1693.83 958.529 1705.49 957.409ZM1757.6 956.89L1759.04 954.853C1758.01 953.315 1757.79 953.358 1755.95 952.993C1749.29 951.673 1737.81 952.133 1731.19 953.333C1731.46 954.604 1731.36 955.834 1732.51 956.56C1735.85 958.675 1753.42 958.21 1756.99 957.097C1757.2 957.032 1757.4 956.959 1757.6 956.89ZM89.6433 957.314C89.1318 955.704 89.1389 954.275 87.4187 953.566C81.755 951.229 63.7219 953.025 57.0438 953.149L57.5302 956.039C61.8026 959.068 82.9811 957.416 89.6433 957.314Z"/>
	</g>
</svg>
