<?xml version="1.0" encoding="utf-8" ?>
<svg xmlns="http://www.w3.org/2000/svg" xmlns:xlink="http://www.w3.org/1999/xlink" width="1600" height="900">
	<g>
		<path fill="#5D4789" transform="scale(0.879121 0.878906)" d="M288.896 84.4779L306.572 84.4576Q306.468 97.1062 306.708 109.753Q306.403 159.354 306.665 208.952L655.761 209.09L655.768 216.1L628.102 216.116L482.474 349.058C534.05 395.455 584.377 443.533 636.939 488.792L654.437 488.842L663.933 495.295C660.307 495.353 656.092 494.987 652.558 495.666C634.091 496.768 615.17 495.956 596.646 495.961L491.166 495.96C515.362 568.966 518.871 643.283 516.118 719.579C538.108 725.15 555.328 733.299 567.333 753.316Q568.162 754.667 568.922 756.059Q569.682 757.451 570.371 758.879Q571.06 760.307 571.676 761.767Q572.292 763.228 572.834 764.718Q573.376 766.208 573.843 767.724Q574.309 769.239 574.698 770.776Q575.088 772.313 575.399 773.868Q575.711 775.423 575.944 776.991Q576.177 778.56 576.331 780.138Q576.485 781.716 576.559 783.3Q576.633 784.884 576.628 786.469Q576.622 788.055 576.537 789.638Q576.451 791.221 576.286 792.798Q576.122 794.375 575.877 795.942Q575.633 797.509 575.311 799.061Q574.988 800.614 574.588 802.148C571.455 814.338 565.161 824.551 557.429 834.346C575.704 842.455 590.141 856.171 597.351 875.082Q597.967 876.735 598.502 878.417Q599.036 880.098 599.487 881.804Q599.939 883.51 600.306 885.236Q600.673 886.961 600.955 888.703Q601.237 890.445 601.434 892.198Q601.63 893.952 601.741 895.713Q601.851 897.474 601.875 899.238Q601.898 901.003 601.836 902.766Q601.773 904.529 601.624 906.287Q601.475 908.046 601.24 909.794Q601.005 911.543 600.684 913.278Q600.363 915.013 599.958 916.731Q599.553 918.448 599.064 920.143Q598.575 921.839 598.004 923.508Q597.432 925.177 596.78 926.816Q596.127 928.456 595.395 930.061C593.926 933.262 592.156 936.347 590.417 939.408L575.947 939.619L575.96 959.555C565.593 964.628 555.847 968.493 544.691 971.424C525.801 972.284 506.695 971.684 487.783 971.663Q434.87 971.447 381.957 971.837L374.787 971.806C352.412 971.37 329.961 971.825 307.577 971.742C301.436 971.461 295.221 971.572 289.07 971.497L192.353 971.635C175.566 971.653 157.977 972.674 141.26 971.24C138.853 969.628 135.263 968.784 132.546 967.588C127.165 965.22 121.869 962.221 116.981 958.959C95.1319 944.378 79.1331 919.692 74.0395 893.987C68.7947 867.519 75.2457 839.118 90.1885 816.792C106.635 792.219 130.659 778.341 159.208 772.701L174.245 771.567C154.166 711.952 142.356 627.385 152.825 565.047C155.839 547.098 161.62 519.529 177.565 508.424C183.515 504.281 190.387 502.975 197.474 504.416C232.875 511.615 269.783 567.895 288.868 596.681C289.886 581.272 289.032 565.402 288.972 549.951L289.036 468.748L289.167 186.431L288.896 84.4779ZM307.263 640.132C311.264 647.39 315.091 654.753 318.989 662.067C332.98 597.624 348.721 552.758 382.552 495.986L306.961 495.987L307.263 640.132ZM146.959 826.941C151.074 824.828 154.284 822.708 155.842 818.135Q156.032 817.573 156.166 816.995Q156.3 816.417 156.377 815.828Q156.454 815.24 156.472 814.647Q156.491 814.053 156.452 813.461Q156.412 812.869 156.315 812.284Q156.218 811.698 156.064 811.125Q155.91 810.552 155.7 809.997Q155.491 809.442 155.228 808.91C153.632 805.707 150.201 803.031 146.737 802.127C145.067 801.691 143.197 801.719 141.479 801.707C137.185 803.714 133.759 805.617 132.032 810.32Q131.829 810.879 131.686 811.456Q131.542 812.033 131.459 812.622Q131.377 813.211 131.356 813.806Q131.335 814.4 131.376 814.994Q131.417 815.587 131.52 816.173Q131.622 816.759 131.785 817.331Q131.949 817.903 132.17 818.454Q132.392 819.006 132.67 819.532C134.314 822.707 137.702 825.399 141.162 826.337C142.999 826.835 145.064 826.86 146.959 826.941ZM306.792 488.753L324.377 488.77C348.386 463.869 374.949 441.256 399.749 417.132C423.785 393.99 449.27 372.192 473.017 348.805Q400.514 281.718 326.941 215.805L306.609 215.97L306.792 488.753ZM332.802 488.686L388.216 488.697C398.2 471.914 414.033 449.374 434.045 444.182C442.124 442.086 450.333 443.387 457.477 447.652C472.197 456.44 480.696 473.838 487.987 488.68C534.095 489.968 580.555 488.762 626.702 488.939C576.371 444.618 527.126 398.776 477.682 353.455C463.492 365.467 450.435 378.776 436.846 391.45C402.146 423.811 367.907 456.777 332.802 488.686ZM551.916 276.168C574.409 256.493 595.495 234.569 618.919 216.065L430.058 215.934C398.978 215.931 367.25 214.66 336.238 216.068C384.922 257.303 430.15 302.42 478.113 344.427C502.596 321.554 527.649 299.259 551.916 276.168Z"/>
		<path fill="#70A735" transform="scale(0.879121 0.878906)" d="M382.552 495.986L491.166 495.96C515.362 568.966 518.871 643.283 516.118 719.579C538.108 725.15 555.328 733.299 567.333 753.316Q568.162 754.667 568.922 756.059Q569.682 757.451 570.371 758.879Q571.06 760.307 571.676 761.767Q572.292 763.228 572.834 764.718Q573.376 766.208 573.843 767.724Q574.309 769.239 574.698 770.776Q575.088 772.313 575.399 773.868Q575.711 775.423 575.944 776.991Q576.177 778.56 576.331 780.138Q576.485 781.716 576.559 783.3Q576.633 784.884 576.628 786.469Q576.622 788.055 576.537 789.638Q576.451 791.221 576.286 792.798Q576.122 794.375 575.877 795.942Q575.633 797.509 575.311 799.061Q574.988 800.614 574.588 802.148C571.455 814.338 565.161 824.551 557.429 834.346C575.704 842.455 590.141 856.171 597.351 875.082Q597.967 876.735 598.502 878.417Q599.036 880.098 599.487 881.804Q599.939 883.51 600.306 885.236Q600.673 886.961 600.955 888.703Q601.237 890.445 601.434 892.198Q601.63 893.952 601.741 895.713Q601.851 897.474 601.875 899.238Q601.898 901.003 601.836 902.766Q601.773 904.529 601.624 906.287Q601.475 908.046 601.24 909.794Q601.005 911.543 600.684 913.278Q600.363 915.013 599.958 916.731Q599.553 918.448 599.064 920.143Q598.575 921.839 598.004 923.508Q597.432 925.177 596.78 926.816Q596.127 928.456 595.395 930.061C593.926 933.262 592.156 936.347 590.417 939.408L575.947 939.619L575.96 959.555C565.593 964.628 555.847 968.493 544.691 971.424C525.801 972.284 506.695 971.684 487.783 971.663Q434.87 971.447 381.957 971.837L374.787 971.806C352.412 971.37 329.961 971.825 307.577 971.742L307.596 827.721L307.617 816.793L307.263 640.132C311.264 647.39 315.091 654.753 318.989 662.067C332.98 597.624 348.721 552.758 382.552 495.986Z"/>
		<path fill="#70A735" transform="scale(0.879121 0.878906)" d="M307.596 827.721C324.301 840.739 339.153 856.41 354.353 871.124C363.83 880.299 373.89 888.882 383.221 898.198C381.417 922.77 377.37 947.287 374.787 971.806C352.412 971.37 329.961 971.825 307.577 971.742L307.596 827.721Z"/>
		<path fill="#4A8709" transform="scale(0.879121 0.878906)" d="M384.321 889.554Q395.439 792.547 407.912 695.708C410.947 672.804 412.286 649.312 416.239 626.59C416.732 623.754 417.664 621.371 419.657 619.25L421.467 619.037C423.4 621.015 423.535 623.931 423.512 626.578C423.409 638.538 420.503 651.627 418.892 663.564C416.427 681.817 414.489 700.145 411.987 718.392C419.784 712.392 453.033 686.91 460.134 685.224C462.14 685.704 462.194 685.593 463.483 687.37C463.128 690.664 460.476 692.771 458.026 694.715C443.723 706.064 427.156 715.981 411.837 725.962C406.405 754.327 404.039 784.032 401.1 812.785C398.595 837.297 394.806 861.634 392.098 886.118C388.953 914.55 386.821 943.676 381.957 971.837L374.787 971.806C377.37 947.287 381.417 922.77 383.221 898.198C373.89 888.882 363.83 880.299 354.353 871.124C339.153 856.41 324.301 840.739 307.596 827.721L307.617 816.793Q332.788 840.643 358.324 864.102C366.998 872.193 376.916 880.329 384.321 889.554Z"/>
		<path fill="#70A735" transform="scale(0.879121 0.878906)" d="M174.245 771.567C154.166 711.952 142.356 627.385 152.825 565.047C155.839 547.098 161.62 519.529 177.565 508.424C183.515 504.281 190.387 502.975 197.474 504.416C232.875 511.615 269.783 567.895 288.868 596.681Q289.374 661.97 288.965 727.26L288.834 742.289L288.78 789.312C288.778 796.135 288.904 802.983 288.761 809.802C290.001 863.623 289.134 917.654 289.07 971.497L192.353 971.635C175.566 971.653 157.977 972.674 141.26 971.24C138.853 969.628 135.263 968.784 132.546 967.588C127.165 965.22 121.869 962.221 116.981 958.959C95.1319 944.378 79.1331 919.692 74.0395 893.987C68.7947 867.519 75.2457 839.118 90.1885 816.792C106.635 792.219 130.659 778.341 159.208 772.701L174.245 771.567ZM146.959 826.941C151.074 824.828 154.284 822.708 155.842 818.135Q156.032 817.573 156.166 816.995Q156.3 816.417 156.377 815.828Q156.454 815.24 156.472 814.647Q156.491 814.053 156.452 813.461Q156.412 812.869 156.315 812.284Q156.218 811.698 156.064 811.125Q155.91 810.552 155.7 809.997Q155.491 809.442 155.228 808.91C153.632 805.707 150.201 803.031 146.737 802.127C145.067 801.691 143.197 801.719 141.479 801.707C137.185 803.714 133.759 805.617 132.032 810.32Q131.829 810.879 131.686 811.456Q131.542 812.033 131.459 812.622Q131.377 813.211 131.356 813.806Q131.335 814.4 131.376 814.994Q131.417 815.587 131.52 816.173Q131.622 816.759 131.785 817.331Q131.949 817.903 132.17 818.454Q132.392 819.006 132.67 819.532C134.314 822.707 137.702 825.399 141.162 826.337C142.999 826.835 145.064 826.86 146.959 826.941Z"/>
		<path fill="#4A8709" transform="scale(0.879121 0.878906)" d="M257.185 715.505C252.67 701.662 248.656 687.672 244.203 673.814C241.869 666.552 238.76 659.264 236.856 651.899C236.199 649.359 235.783 648.568 237.142 646.278C239.454 645.734 239.712 645.834 241.936 646.714C246.642 651.415 271.452 736.499 276.389 750.969C280.023 742.725 283.641 734.575 288.965 727.26L288.834 742.289L288.78 789.312C288.778 796.135 288.904 802.983 288.761 809.802C282.422 798.673 279.371 784.827 275.631 772.585C271.026 757.51 266.373 742.394 260.833 727.632C247.728 718.176 236.001 711.406 222.764 702.843C219.424 700.683 216.424 698.73 215.557 694.697C216.643 692.767 216.669 692.962 218.672 692.395C230.151 695.331 246.782 708.688 257.185 715.505Z"/>
		<path fill="#70A735" transform="scale(0.879121 0.878906)" d="M288.834 742.289L288.78 789.312C285.573 779.435 282.463 769.588 279.78 759.552C282.558 753.864 285.157 747.428 288.834 742.289Z"/>
		<path fill="#70A735" transform="scale(0.879121 0.878906)" d="M388.216 488.697C398.2 471.914 414.033 449.374 434.045 444.182C442.124 442.086 450.333 443.387 457.477 447.652C472.197 456.44 480.696 473.838 487.987 488.68Q438.101 489.004 388.216 488.697Z"/>
		<path fill="#F84F46" transform="scale(0.879121 0.878906)" d="M1483.42 672.123C1486.33 666.447 1485.19 656.678 1485.81 650.182C1488.48 621.961 1502.56 594.417 1523.4 575.381Q1524.63 574.254 1525.89 573.159Q1527.14 572.063 1528.42 571Q1529.71 569.936 1531.02 568.904Q1532.33 567.873 1533.66 566.874Q1535 565.876 1536.36 564.911Q1537.72 563.946 1539.1 563.016Q1540.48 562.085 1541.89 561.189Q1543.29 560.293 1544.72 559.433Q1546.15 558.573 1547.6 557.748Q1549.05 556.923 1550.51 556.135Q1551.98 555.347 1553.47 554.596Q1554.96 553.845 1556.47 553.131Q1557.97 552.417 1559.5 551.741Q1561.02 551.065 1562.56 550.427Q1564.1 549.789 1565.65 549.19Q1567.21 548.591 1568.78 548.031Q1570.35 547.471 1571.93 546.95Q1573.52 546.429 1575.11 545.948Q1576.71 545.467 1578.32 545.026Q1579.92 544.585 1581.54 544.184Q1583.16 543.783 1584.79 543.422Q1586.41 543.062 1588.05 542.742Q1589.69 542.423 1591.33 542.144Q1592.97 541.865 1594.62 541.628Q1596.27 541.39 1597.93 541.194Q1599.58 540.997 1601.24 540.842Q1602.9 540.687 1604.56 540.574Q1606.23 540.46 1607.89 540.388Q1609.56 540.316 1611.22 540.286Q1612.89 540.256 1614.56 540.267Q1616.22 540.278 1617.89 540.331Q1619.56 540.384 1621.22 540.478C1656.55 542.181 1687.62 557.679 1711.22 583.812C1718.25 591.6 1737.56 619.481 1737.05 629.194C1745.82 640.424 1744.85 678.849 1743.15 692.633C1732.2 781.252 1690.34 866.966 1635.66 936.776C1627.13 947.661 1616.85 962.79 1606.4 971.54C1614.31 972.075 1648.7 970.049 1653.01 972.523C1654.07 973.135 1653.99 973.932 1654.31 975.052L1653.33 976.214C1643.88 979.755 1544.35 977.698 1527.99 977.705L1225.71 977.745L360.608 977.625L147.825 977.57L91.546 977.71C78.4943 977.771 64.4906 978.934 51.662 976.406L52.1292 972.409C63.3705 968.695 125.155 971.12 141.26 971.24C157.977 972.674 175.566 971.653 192.353 971.635L289.07 971.497C295.221 971.572 301.436 971.461 307.577 971.742C329.961 971.825 352.412 971.37 374.787 971.806L381.957 971.837Q434.87 971.447 487.783 971.663C506.695 971.684 525.801 972.284 544.691 971.424C554.847 971.888 565.695 972.675 575.818 971.745C609.544 970.812 643.43 971.46 677.172 971.447L864.678 971.327C897.005 971.383 929.706 972.432 961.99 971.304L1022.04 971.493C1031.6 971.503 1041.72 972.212 1051.22 971.437C1050.65 969.378 1043.54 966.133 1041.36 964.621C999.914 935.834 1009.12 897.717 1027.26 858.753C1036.08 839.802 1046.38 821.729 1056.52 803.473C1058.74 799.463 1065.2 790.327 1064.38 785.843C1065.56 785.139 1066.35 784.502 1067.13 783.348C1068.95 780.653 1069.74 777.556 1069.06 774.367L1071.32 773.265C1077.81 775.146 1085.96 774.055 1092.71 774.112C1099.98 772.918 1108.13 773.538 1115.51 773.579Q1136.54 773.888 1157.58 773.841Q1218.67 773.434 1279.75 774.062C1292.07 774.173 1304.55 773.663 1316.84 774.043C1319.01 774.11 1320.97 774.006 1322.78 775.302L1323.21 776.947C1324.23 783.299 1308.8 803.874 1304.52 809.775C1293.25 825.322 1280.14 841.029 1266.29 854.32C1261.61 858.813 1245.65 869.832 1243.69 873.794L1244.09 874.591C1252.17 874.955 1260.55 874.258 1268.56 874.893C1296.89 874.165 1325.33 874.716 1353.67 874.772C1356.09 878.661 1356.17 928.133 1354.63 934.353C1354.42 935.216 1354.05 936.023 1353.63 936.8C1360.27 938.751 1369.05 937.719 1376.02 937.63C1377.02 936.026 1377.36 934.339 1377.43 932.456C1378.91 890.348 1377.89 847.78 1377.96 805.624C1378.01 778.837 1379.9 745.98 1377.17 720.042C1390.52 720.105 1405.49 721.446 1418.66 719.885C1427.75 720.072 1439.5 721.605 1448.29 719.821C1452.29 719.963 1456.52 720.401 1460.48 719.777C1466.9 719.853 1473.62 720.318 1480 719.794C1483.26 714.985 1480.9 707.067 1482.2 701.363L1482 700.445C1484.43 690.639 1482.61 675.194 1483.07 664.662C1484.04 666.782 1483.52 669.82 1483.42 672.123ZM1557.14 630.946C1561.94 630.109 1565.58 628.766 1568.52 624.667C1570.91 621.339 1571.72 617.191 1570.94 613.193Q1570.8 612.474 1570.59 611.772Q1570.38 611.07 1570.1 610.393Q1569.82 609.715 1569.47 609.069Q1569.13 608.423 1568.72 607.814Q1568.31 607.205 1567.85 606.64Q1567.38 606.075 1566.86 605.559Q1566.34 605.042 1565.77 604.58Q1565.2 604.118 1564.59 603.715C1561.27 601.529 1557.86 601.117 1553.97 601.333C1549.2 603.187 1545.68 605.401 1543.57 610.266C1541.86 614.234 1541.66 618.903 1543.39 622.9C1544.88 626.326 1547.68 628.666 1551.13 629.956C1553.16 630.712 1554.96 631.021 1557.14 630.946Z"/>
		<path fill="#70A735" transform="scale(0.879121 0.878906)" d="M1483.42 672.123C1486.33 666.447 1485.19 656.678 1485.81 650.182C1488.48 621.961 1502.56 594.417 1523.4 575.381Q1524.63 574.254 1525.89 573.159Q1527.14 572.063 1528.42 571Q1529.71 569.936 1531.02 568.904Q1532.33 567.873 1533.66 566.874Q1535 565.876 1536.36 564.911Q1537.72 563.946 1539.1 563.016Q1540.48 562.085 1541.89 561.189Q1543.29 560.293 1544.72 559.433Q1546.15 558.573 1547.6 557.748Q1549.05 556.923 1550.51 556.135Q1551.98 555.347 1553.47 554.596Q1554.96 553.845 1556.47 553.131Q1557.97 552.417 1559.5 551.741Q1561.02 551.065 1562.56 550.427Q1564.1 549.789 1565.65 549.19Q1567.21 548.591 1568.78 548.031Q1570.35 547.471 1571.93 546.95Q1573.52 546.429 1575.11 545.948Q1576.71 545.467 1578.32 545.026Q1579.92 544.585 1581.54 544.184Q1583.16 543.783 1584.79 543.422Q1586.41 543.062 1588.05 542.742Q1589.69 542.423 1591.33 542.144Q1592.97 541.865 1594.62 541.628Q1596.27 541.39 1597.93 541.194Q1599.58 540.997 1601.24 540.842Q1602.9 540.687 1604.56 540.574Q1606.23 540.46 1607.89 540.388Q1609.56 540.316 1611.22 540.286Q1612.89 540.256 1614.56 540.267Q1616.22 540.278 1617.89 540.331Q1619.56 540.384 1621.22 540.478C1656.55 542.181 1687.62 557.679 1711.22 583.812C1718.25 591.6 1737.56 619.481 1737.05 629.194C1745.82 640.424 1744.85 678.849 1743.15 692.633C1732.2 781.252 1690.34 866.966 1635.66 936.776C1627.13 947.661 1616.85 962.79 1606.4 971.54C1597.76 973.551 1570.66 972.173 1560.78 971.508C1561.42 970.628 1562 969.712 1562.27 968.642C1563.82 962.348 1564.74 943.21 1561.57 937.668Q1520.8 937.136 1480.03 937.562C1480.35 936.937 1480.63 936.317 1480.84 935.644C1482.91 928.996 1481.45 879.942 1481.46 869.72L1481.49 778.899C1481.49 762.85 1481.98 746.605 1481.35 730.576C1481.28 728.669 1480.97 727.249 1480.09 725.523C1481.9 725.356 1482.96 725.101 1484.45 724.003C1485.11 723.513 1484.96 722.689 1485.06 721.904C1483.25 720.185 1482.51 720.243 1480 719.794C1483.26 714.985 1480.9 707.067 1482.2 701.363L1482 700.445C1484.43 690.639 1482.61 675.194 1483.07 664.662C1484.04 666.782 1483.52 669.82 1483.42 672.123ZM1557.14 630.946C1561.94 630.109 1565.58 628.766 1568.52 624.667C1570.91 621.339 1571.72 617.191 1570.94 613.193Q1570.8 612.474 1570.59 611.772Q1570.38 611.07 1570.1 610.393Q1569.82 609.715 1569.47 609.069Q1569.13 608.423 1568.72 607.814Q1568.31 607.205 1567.85 606.64Q1567.38 606.075 1566.86 605.559Q1566.34 605.042 1565.77 604.58Q1565.2 604.118 1564.59 603.715C1561.27 601.529 1557.86 601.117 1553.97 601.333C1549.2 603.187 1545.68 605.401 1543.57 610.266C1541.86 614.234 1541.66 618.903 1543.39 622.9C1544.88 626.326 1547.68 628.666 1551.13 629.956C1553.16 630.712 1554.96 631.021 1557.14 630.946Z"/>
		<path fill="#FFFEFE" transform="scale(0.879121 0.878906)" d="M1482 700.445C1484.43 690.639 1482.61 675.194 1483.07 664.662C1484.04 666.782 1483.52 669.82 1483.42 672.123C1486.15 676.748 1487.27 694.966 1486.98 700.756C1485.21 701.491 1484.09 701.511 1482.2 701.363L1482 700.445Z"/>
		<path fill="#4A8709" transform="scale(0.879121 0.878906)" d="M1575.34 672.444C1577.34 672.736 1578.73 672.904 1580.22 674.355C1580.86 674.975 1580.84 676.365 1580.79 677.216C1580.16 688.369 1569.9 720.843 1566.63 733.636C1560.32 758.318 1555.57 783.941 1547.95 808.229C1547.24 810.462 1546.33 812.102 1544.62 813.719C1555.9 810.481 1602.88 783.695 1609.87 785.992L1610.54 787.728C1610.31 788.439 1610.27 788.707 1609.94 789.318C1608.69 791.595 1605.75 793.367 1603.56 794.626C1591.94 801.308 1578.67 806.369 1566.48 812C1559.13 815.396 1551.84 819.882 1544.16 822.369C1544.22 822.591 1544.3 822.81 1544.35 823.034C1544.79 824.889 1517.72 927.406 1515.76 930.222C1516.17 932.348 1516.33 933.679 1515.54 935.724C1513.6 936.963 1512.32 936.915 1510.08 936.715C1508.02 935.072 1507.7 934.002 1507.88 931.201C1508.28 925.214 1511.7 918.97 1513.15 913.11C1517.64 894.875 1551.81 772.297 1550.56 763.55C1548.28 755.888 1514.95 723.991 1514.99 714.76L1516.82 713.393C1519.99 713.469 1522.02 715.188 1524.16 717.324C1529.29 722.439 1551.89 750.001 1551.88 756.026C1560.56 744.066 1566.75 690.668 1575.34 672.444Z"/>
		<path fill="#FECE2D" transform="scale(0.879121 0.878906)" d="M1460.48 719.777C1466.9 719.853 1473.62 720.318 1480 719.794C1482.51 720.243 1483.25 720.185 1485.06 721.904C1484.96 722.689 1485.11 723.513 1484.45 724.003C1482.96 725.101 1481.9 725.356 1480.09 725.523C1480.97 727.249 1481.28 728.669 1481.35 730.576C1481.98 746.605 1481.49 762.85 1481.49 778.899L1481.46 869.72C1481.45 879.942 1482.91 928.996 1480.84 935.644C1480.63 936.317 1480.35 936.937 1480.03 937.562Q1520.8 937.136 1561.57 937.668C1564.74 943.21 1563.82 962.348 1562.27 968.642C1562 969.712 1561.42 970.628 1560.78 971.508C1552.59 973.229 1532.15 971.763 1522.8 971.759L1422.82 971.773L1338.32 972.216C1326.55 972.264 1311.51 973.915 1300.13 971.551C1300.4 970.912 1300.64 970.268 1300.84 969.598C1302.25 964.733 1302.44 941.566 1300.03 937.348C1315.69 936.766 1339.44 938.986 1353.63 936.8C1360.27 938.751 1369.05 937.719 1376.02 937.63C1377.02 936.026 1377.36 934.339 1377.43 932.456C1378.91 890.348 1377.89 847.78 1377.96 805.624C1378.01 778.837 1379.9 745.98 1377.17 720.042C1390.52 720.105 1405.49 721.446 1418.66 719.885C1427.75 720.072 1439.5 721.605 1448.29 719.821C1452.29 719.963 1456.52 720.401 1460.48 719.777Z"/>
		<path fill="#A63A2A" transform="scale(0.879121 0.878906)" d="M1460.48 719.777C1466.9 719.853 1473.62 720.318 1480 719.794C1482.51 720.243 1483.25 720.185 1485.06 721.904C1484.96 722.689 1485.11 723.513 1484.45 724.003C1482.96 725.101 1481.9 725.356 1480.09 725.523C1446.75 723.644 1413.07 727.159 1379.75 725.696C1377.86 724.325 1377.79 722.244 1377.17 720.042C1390.52 720.105 1405.49 721.446 1418.66 719.885C1427.75 720.072 1439.5 721.605 1448.29 719.821C1452.29 719.963 1456.52 720.401 1460.48 719.777Z"/>
		<path fill="#5B2448" transform="scale(0.879121 0.878906)" d="M1069.06 774.367L1071.32 773.265C1077.81 775.146 1085.96 774.055 1092.71 774.112L1096.01 774.329C1096.68 775.364 1096.84 775.348 1096.57 776.544C1095.36 782.026 1087.81 794.135 1084.98 799.96C1073.97 822.647 1063.84 846.421 1051.82 868.556C1051.22 869.662 1050.42 870.342 1049.36 871.014C1050.63 875.219 1046.59 883.492 1045.52 887.955C1040.76 907.907 1044.77 932.797 1057.7 949.102C1062.74 955.456 1068.76 960.038 1075.16 964.887C1075.78 965.361 1075.59 965.249 1076.04 966.104C1079.62 967.203 1084.68 968.429 1087.64 970.787C1094.79 972.263 1261.81 972.894 1268.63 971.495C1273.78 972.201 1296.31 973.739 1300.13 971.551C1311.51 973.915 1326.55 972.264 1338.32 972.216L1422.82 971.773L1522.8 971.759C1532.15 971.763 1552.59 973.229 1560.78 971.508C1570.66 972.173 1597.76 973.551 1606.4 971.54C1614.31 972.075 1648.7 970.049 1653.01 972.523C1654.07 973.135 1653.99 973.932 1654.31 975.052L1653.33 976.214C1643.88 979.755 1544.35 977.698 1527.99 977.705L1225.71 977.745L360.608 977.625L147.825 977.57L91.546 977.71C78.4943 977.771 64.4906 978.934 51.662 976.406L52.1292 972.409C63.3705 968.695 125.155 971.12 141.26 971.24C157.977 972.674 175.566 971.653 192.353 971.635L289.07 971.497C295.221 971.572 301.436 971.461 307.577 971.742C329.961 971.825 352.412 971.37 374.787 971.806L381.957 971.837Q434.87 971.447 487.783 971.663C506.695 971.684 525.801 972.284 544.691 971.424C554.847 971.888 565.695 972.675 575.818 971.745C609.544 970.812 643.43 971.46 677.172 971.447L864.678 971.327C897.005 971.383 929.706 972.432 961.99 971.304L1022.04 971.493C1031.6 971.503 1041.72 972.212 1051.22 971.437C1050.65 969.378 1043.54 966.133 1041.36 964.621C999.914 935.834 1009.12 897.717 1027.26 858.753C1036.08 839.802 1046.38 821.729 1056.52 803.473C1058.74 799.463 1065.2 790.327 1064.38 785.843C1065.56 785.139 1066.35 784.502 1067.13 783.348C1068.95 780.653 1069.74 777.556 1069.06 774.367Z"/>
		<path fill="#F84F46" transform="scale(0.879121 0.878906)" d="M1069.06 774.367L1071.32 773.265C1077.81 775.146 1085.96 774.055 1092.71 774.112C1092.7 776.485 1050.42 863.912 1045.82 872.133C1044.35 878.427 1042.09 884.603 1040.97 890.964C1037.7 909.664 1040.94 929.847 1051.02 946.041C1056.71 955.18 1064.51 962.693 1073.29 968.841C1074.44 969.425 1075.81 969.931 1076.72 970.84C1073.04 972.978 1056.68 971.537 1051.22 971.437C1050.65 969.378 1043.54 966.133 1041.36 964.621C999.914 935.834 1009.12 897.717 1027.26 858.753C1036.08 839.802 1046.38 821.729 1056.52 803.473C1058.74 799.463 1065.2 790.327 1064.38 785.843C1065.56 785.139 1066.35 784.502 1067.13 783.348C1068.95 780.653 1069.74 777.556 1069.06 774.367Z"/>
		<path fill="#5D4789" transform="scale(0.879121 0.878906)" d="M1268.56 874.893C1296.89 874.165 1325.33 874.716 1353.67 874.772C1356.09 878.661 1356.17 928.133 1354.63 934.353C1354.42 935.216 1354.05 936.023 1353.63 936.8C1339.44 938.986 1315.69 936.766 1300.03 937.348C1302.44 941.566 1302.25 964.733 1300.84 969.598C1300.64 970.268 1300.4 970.912 1300.13 971.551C1296.31 973.739 1273.78 972.201 1268.63 971.495C1268.85 971.034 1269.07 970.606 1269.21 970.12C1271.08 963.666 1270.41 889.285 1269.74 878.771C1269.65 877.352 1269.2 876.152 1268.56 874.893Z"/>
		<path fill="#5B2448" transform="scale(0.879121 0.878906)" d="M1244.09 874.591C1241.98 879.556 1231.62 884.639 1226.83 887.575C1216.68 893.804 1174.19 918.181 1163.5 915.624C1163.91 914.977 1164.18 914.561 1164.78 914.076C1170.6 909.412 1189.46 903.188 1197.71 899.275C1207.44 894.658 1216.52 889.33 1225.67 883.665C1229.69 881.175 1239.81 873.232 1243.69 873.794L1244.09 874.591Z"/>
		<path fill="#FECE2D" transform="scale(0.879121 0.878906)" d="M823.598 478.142C825.304 478.117 827.33 478.207 828.743 479.249C830.56 480.589 830.375 481.119 830.643 483.245C827.226 493.604 817.057 501.078 807.811 505.969C807.344 505.982 806.742 506.019 806.256 505.976C803.884 505.767 802.658 504.71 801.242 503.01C801.136 501.821 801.127 500.939 801.517 499.79C804.872 489.903 814.702 482.628 823.598 478.142Z"/>
		<path fill="#FECE2D" transform="scale(0.879121 0.878906)" d="M826.985 412.091C827.871 412.694 828.841 413.336 829.556 414.142C831.007 415.776 831.124 418.354 830.829 420.397C829.738 427.933 823.047 434.377 817.126 438.453C815.805 438.357 815.056 437.712 814.025 436.966C812.601 434.247 812.351 432.538 813.082 429.516C814.983 421.648 820.39 416.22 826.985 412.091Z"/>
		<path fill="#FECE2D" transform="scale(0.879121 0.878906)" d="M1116.79 455.321C1141.63 448.164 1165.03 448.456 1188.08 461.208C1198.94 467.217 1208.21 475.219 1217.38 483.508C1269.32 530.484 1304.6 600.086 1323.57 666.811C1332.08 696.753 1337.04 726.791 1340 757.73C1340.35 761.423 1342.25 771.114 1340.29 774.072C1339.61 775.095 1338.13 775.497 1336.98 775.759C1332.32 776.822 1327.71 774.603 1323.21 776.947L1322.78 775.302C1320.97 774.006 1319.01 774.11 1316.84 774.043C1304.55 773.663 1292.07 774.173 1279.75 774.062Q1218.67 773.434 1157.58 773.841Q1136.54 773.888 1115.51 773.579C1108.13 773.538 1099.98 772.918 1092.71 774.112C1085.96 774.055 1077.81 775.146 1071.32 773.265L1069.06 774.367C1069.74 777.556 1068.95 780.653 1067.13 783.348C1066.35 784.502 1065.56 785.139 1064.38 785.843C1024.65 796 985.093 807.845 945.093 816.768C942.853 819.66 941.057 821.676 937.803 823.402C934.189 823.617 931.918 823.287 928.866 825.308C926.483 829.587 928.032 837.058 928.351 841.959L928.031 845.976C914.351 845.799 900.659 845.883 886.978 845.858L887.192 841.886C887.848 835.76 887.508 829.311 887.507 823.141C885.061 823.15 882.591 823.188 880.147 823.095C876.64 822.962 873.239 821.568 870.965 818.807C869.192 816.655 868.701 813.759 869.1 811.052C870.63 800.671 878.416 804.205 884.687 799.571L884.904 797.92C882.839 795.819 876.639 795.763 873.658 794.88C871.307 794.183 868.818 792.679 867.809 790.35C866.746 787.898 867.363 785.223 868.195 782.811C871.222 774.04 878.04 776.16 884.946 772.876C883.819 767.11 874.799 769.097 870.755 765.5C868.938 763.885 868.113 761.633 867.945 759.25C867.713 755.974 868.995 752.536 871.337 750.226C875.201 746.416 881.902 747.349 886.927 747.347C900.239 747.144 914.677 746.036 927.865 747.589C930.459 745.483 932.895 743.118 935.372 740.873C936.978 736.221 940.434 732.116 942.628 727.649C946.458 722.352 952.016 717.438 956.419 712.487C976.778 689.597 989.401 672.114 992.449 641.088C992.207 611.992 990.992 581.74 998.921 553.501C1000.25 555.481 1002.3 557.84 1002.68 560.215C1004.26 560.661 1005.15 560.992 1006.34 562.148C1008.43 561.985 1010.49 561.492 1012.55 561.086C1024.05 553.32 1038.1 546.38 1048.16 536.826C1057.7 531.142 1066.91 523.483 1075.12 516.019C1078.96 512.526 1082.76 507.644 1087.15 504.952C1088.36 504.069 1088.74 503.696 1089.27 502.228C1095.01 495.194 1103.19 489.186 1108.34 482.055C1110.92 474.703 1120.2 466.788 1119.4 458.531C1119.23 456.844 1118.03 456.362 1116.79 455.321Z"/>
		<path fill="#FECE2D" transform="scale(0.879121 0.878906)" d="M1116.79 455.321C1141.63 448.164 1165.03 448.456 1188.08 461.208C1198.94 467.217 1208.21 475.219 1217.38 483.508C1269.32 530.484 1304.6 600.086 1323.57 666.811C1332.08 696.753 1337.04 726.791 1340 757.73C1340.35 761.423 1342.25 771.114 1340.29 774.072C1339.61 775.095 1338.13 775.497 1336.98 775.759C1332.32 776.822 1327.71 774.603 1323.21 776.947L1322.78 775.302C1320.97 774.006 1319.01 774.11 1316.84 774.043C1304.55 773.663 1292.07 774.173 1279.75 774.062Q1218.67 773.434 1157.58 773.841Q1136.54 773.888 1115.51 773.579C1108.13 773.538 1099.98 772.918 1092.71 774.112C1085.96 774.055 1077.81 775.146 1071.32 773.265C1079.03 770.263 1110.32 757.165 1113.3 751.098C1119.59 749.588 1127.67 742.087 1132.69 738.028C1141.57 730.846 1173.88 700.294 1175.01 689.778C1178.96 687.736 1183.08 679.286 1185.29 675.477C1189.46 668.264 1205.92 637.932 1203.89 630.27C1204.62 629.483 1205.4 628.678 1205.89 627.716C1208.75 622.146 1215.05 600.433 1213.1 594.813C1213.5 594.37 1213.81 593.986 1214.09 593.465C1221.1 580.605 1218.36 533.112 1214.12 517.866C1211.6 508.792 1206.03 492.793 1197.67 488.092C1197.56 487.171 1197.54 486.999 1197.04 486.264C1192.66 479.875 1181.04 473.621 1173.56 472.24C1173.44 472.122 1173.33 471.987 1173.2 471.885C1167.68 467.655 1150.54 468.008 1143.64 469.238C1133.85 470.049 1125.01 473.797 1116.06 477.57C1113.58 479.533 1111.25 480.81 1108.34 482.055C1110.92 474.703 1120.2 466.788 1119.4 458.531C1119.23 456.844 1118.03 456.362 1116.79 455.321Z"/>
		<path fill="#6A74EE" transform="scale(0.879121 0.878906)" d="M935.372 740.873C944.597 732.543 1001.6 675.265 1006.05 673.852L1009.57 677.537C1020.93 690.153 1065.58 756.809 1066.2 770.784L1069.06 774.367C1069.74 777.556 1068.95 780.653 1067.13 783.348C1066.35 784.502 1065.56 785.139 1064.38 785.843C1024.65 796 985.093 807.845 945.093 816.768C942.853 819.66 941.057 821.676 937.803 823.402C934.189 823.617 931.918 823.287 928.866 825.308C926.483 829.587 928.032 837.058 928.351 841.959L928.031 845.976C914.351 845.799 900.659 845.883 886.978 845.858L887.192 841.886C887.848 835.76 887.508 829.311 887.507 823.141C885.061 823.15 882.591 823.188 880.147 823.095C876.64 822.962 873.239 821.568 870.965 818.807C869.192 816.655 868.701 813.759 869.1 811.052C870.63 800.671 878.416 804.205 884.687 799.571L884.904 797.92C882.839 795.819 876.639 795.763 873.658 794.88C871.307 794.183 868.818 792.679 867.809 790.35C866.746 787.898 867.363 785.223 868.195 782.811C871.222 774.04 878.04 776.16 884.946 772.876C883.819 767.11 874.799 769.097 870.755 765.5C868.938 763.885 868.113 761.633 867.945 759.25C867.713 755.974 868.995 752.536 871.337 750.226C875.201 746.416 881.902 747.349 886.927 747.347C900.239 747.144 914.677 746.036 927.865 747.589C930.459 745.483 932.895 743.118 935.372 740.873Z"/>
		<path fill="#A29FF5" transform="scale(0.879121 0.878906)" d="M887.507 823.141C902.095 823.196 924.02 821.647 937.803 823.402C934.189 823.617 931.918 823.287 928.866 825.308C926.483 829.587 928.032 837.058 928.351 841.959L928.031 845.976C914.351 845.799 900.659 845.883 886.978 845.858L887.192 841.886C887.848 835.76 887.508 829.311 887.507 823.141Z"/>
		<path fill="#5B2448" transform="scale(0.879121 0.878906)" d="M887.192 841.886L928.351 841.959L928.031 845.976C914.351 845.799 900.659 845.883 886.978 845.858L887.192 841.886Z"/>
		<path fill="#FECE2D" transform="scale(0.879121 0.878906)" d="M1048.16 536.826C1057.7 531.142 1066.91 523.483 1075.12 516.019C1078.96 512.526 1082.76 507.644 1087.15 504.952C1086.66 507.698 1077.16 532.466 1075.72 534.923C1076.39 538.431 1075.59 542.489 1073.96 545.651C1075.2 552.082 1072.67 595.234 1069.93 600.055C1070.56 603.789 1070.21 606.77 1068.06 609.988C1068.86 615.858 1061.32 633.341 1057.53 638.279C1057 638.98 1056.32 639.575 1055.63 640.118C1055.57 640.38 1055.55 640.656 1055.44 640.905C1053.87 644.654 1047.3 648.784 1043.82 650.631C1045.42 641.552 1012.61 575.089 1006.34 562.148C1008.43 561.985 1010.49 561.492 1012.55 561.086C1024.05 553.32 1038.1 546.38 1048.16 536.826Z"/>
		<path fill="#FFFEFE" transform="scale(0.879121 0.878906)" d="M1048.16 536.826C1048.16 537.425 1048.35 538.723 1048.19 539.242C1046.57 544.195 1030.09 568.818 1026.01 572.845C1025.37 573.481 1024.63 574.003 1023.86 574.479C1022.66 569.352 1016.39 564.546 1012.55 561.086C1024.05 553.32 1038.1 546.38 1048.16 536.826Z"/>
		<path fill="#FECE2D" transform="scale(0.879121 0.878906)" d="M998.921 553.501C1000.25 555.481 1002.3 557.84 1002.68 560.215C1008.59 573.325 1041.88 644.061 1040.82 652.602C1040.81 652.73 1040.79 652.858 1040.78 652.985C1037.52 658.839 1013.5 671.67 1006.79 673.643C1006.55 673.716 1006.3 673.783 1006.05 673.852C1001.6 675.265 944.597 732.543 935.372 740.873C936.978 736.221 940.434 732.116 942.628 727.649C946.458 722.352 952.016 717.438 956.419 712.487C976.778 689.597 989.401 672.114 992.449 641.088C992.207 611.992 990.992 581.74 998.921 553.501Z"/>
		<path fill="#5B2448" transform="scale(0.879121 0.878906)" d="M1143.64 469.238C1150.54 468.008 1167.68 467.655 1173.2 471.885C1173.33 471.987 1173.44 472.122 1173.56 472.24C1181.04 473.621 1192.66 479.875 1197.04 486.264C1197.54 486.999 1197.56 487.171 1197.67 488.092C1206.03 492.793 1211.6 508.792 1214.12 517.866C1218.36 533.112 1221.1 580.605 1214.09 593.465C1213.81 593.986 1213.5 594.37 1213.1 594.813C1215.05 600.433 1208.75 622.146 1205.89 627.716C1205.4 628.678 1204.62 629.483 1203.89 630.27C1205.92 637.932 1189.46 668.264 1185.29 675.477C1183.08 679.286 1178.96 687.736 1175.01 689.778C1173.88 700.294 1141.57 730.846 1132.69 738.028C1127.67 742.087 1119.59 749.588 1113.3 751.098C1110.32 757.165 1079.03 770.263 1071.32 773.265L1069.06 774.367L1066.2 770.784C1076.5 769.894 1100.65 755.236 1109.71 749.214Q1112.15 747.788 1114.53 746.269C1128.54 737.364 1168.65 702.734 1172.16 687.106C1172.93 686.542 1173.67 685.924 1174.25 685.164C1181.09 676.297 1201.62 638.817 1200.66 628.434C1201.06 628.002 1201.47 627.535 1201.79 627.038C1205.84 620.57 1211.18 600.208 1210.07 593.001C1215.61 581.246 1215.38 550.231 1214.02 536.899C1212.47 521.691 1207.34 500.689 1195.02 490.645C1194.94 490.458 1194.89 490.261 1194.8 490.082C1191.27 483.278 1179.85 478.541 1172.99 475.635C1163.81 472.3 1154.6 472.196 1144.99 472.687Q1135.29 475.141 1125.53 477.341C1121.12 481.83 1113.66 483.454 1108.66 487.498C1103.22 491.905 1098.7 499.881 1092.92 503.202C1092.36 507.485 1085 520.858 1083.07 526.197C1081.74 529.851 1081.08 535.698 1078.58 538.593C1079.93 542.568 1078.3 549.007 1076.75 552.862C1078.54 559.162 1076.76 596.481 1073.91 602.514C1073.57 603.228 1072.97 603.849 1072.46 604.439C1073 606.481 1073.74 608.095 1072.67 610.125C1072.18 611.051 1071.32 611.916 1070.62 612.694C1071.97 615.976 1070.5 619.699 1069.23 622.806C1067.74 626.461 1066.08 629.37 1063.21 632.09L1064.09 631.604C1083.34 620.791 1091.67 588.316 1097.19 584.628L1098.87 585.472C1100.27 590.828 1093.17 602.21 1090.39 606.939C1084.05 617.705 1067.95 639.687 1056.52 644.764C1053.47 653.718 1018.13 672.56 1009.57 677.537L1006.05 673.852C1006.3 673.783 1006.55 673.716 1006.79 673.643C1013.5 671.67 1037.52 658.839 1040.78 652.985C1040.79 652.858 1040.81 652.73 1040.82 652.602C1041.88 644.061 1008.59 573.325 1002.68 560.215C1004.26 560.661 1005.15 560.992 1006.34 562.148C1012.61 575.089 1045.42 641.552 1043.82 650.631C1047.3 648.784 1053.87 644.654 1055.44 640.905C1055.55 640.656 1055.57 640.38 1055.63 640.118C1056.32 639.575 1057 638.98 1057.53 638.279C1061.32 633.341 1068.86 615.858 1068.06 609.988C1070.21 606.77 1070.56 603.789 1069.93 600.055C1072.67 595.234 1075.2 552.082 1073.96 545.651C1075.59 542.489 1076.39 538.431 1075.72 534.923C1077.16 532.466 1086.66 507.698 1087.15 504.952C1088.36 504.069 1088.74 503.696 1089.27 502.228C1095.01 495.194 1103.19 489.186 1108.34 482.055C1111.25 480.81 1113.58 479.533 1116.06 477.57C1125.01 473.797 1133.85 470.049 1143.64 469.238Z"/>
		<path fill="#A29FF5" transform="scale(0.879121 0.878906)" d="M755.372 125.279C754.64 152.642 755.41 180.098 755.325 207.475L755.325 416.11C755.352 454.894 756.05 493.845 755.207 532.611C749.79 532.192 745.23 531.989 740.164 534.165L738.433 536.356C742.529 545.581 747.26 549.903 755.345 555.726L755.258 938.948C783.309 938.972 811.53 938.357 839.564 939.116L839.418 970.999L864.678 970.852L886.947 970.913C887.286 930.468 888.895 885.957 886.978 845.858C900.659 845.883 914.351 845.799 928.031 845.976C927.249 887.614 927.911 929.35 927.991 970.998C939.298 970.973 950.701 970.644 961.99 971.304C929.706 972.432 897.005 971.383 864.678 971.327L677.172 971.447C643.43 971.46 609.544 970.812 575.818 971.745L575.96 959.555L575.947 939.619L590.417 939.408Q623.209 938.88 656.004 939.152L656.143 817.215C656.169 795.264 655.252 772.832 656.577 750.934C655.631 737.018 656.473 722.478 656.478 708.504C656.491 670.717 657.481 632.626 656.135 594.873C655.529 591.249 655.799 587.384 655.834 583.714C656.386 570.958 656.092 558.113 656.069 545.344C661.296 545.205 666.67 545.196 671.827 544.277C679.128 542.976 686.431 539.911 693.886 540.201L693.74 539.616L690.171 539.053C689.64 538.561 689.106 538.084 688.535 537.637C680.062 531.001 666.308 530.759 656.046 532.065C655.99 524.107 658.506 502.673 655.475 496.448L652.558 495.666C656.092 494.987 660.307 495.353 663.933 495.295L654.437 488.842C647.557 483.462 640.572 477.531 636.069 469.921C634.392 467.086 632.799 463.764 633.65 460.422C634.706 459.52 634.975 459.073 636.364 458.962C643.599 458.382 650.843 465.114 656.041 469.363L655.768 216.1L655.761 209.09L655.816 125.398L703.949 125.167L755.372 125.279Z"/>
		<path fill="#6A74EE" transform="scale(0.879121 0.878906)" d="M655.816 125.398L703.949 125.167L703.856 402.914L704.041 484.014C703.999 495.049 705.097 507.143 703.636 518.058C708.413 521.447 736.059 532.593 737.569 535.485L736.564 536.312L735.536 536.137C726.609 529.642 714.492 525.031 704.366 520.616C704.075 526.609 704.057 532.56 704.118 538.558C699.562 538.569 694.654 538.211 690.171 539.053C689.64 538.561 689.106 538.084 688.535 537.637C680.062 531.001 666.308 530.759 656.046 532.065C655.99 524.107 658.506 502.673 655.475 496.448L652.558 495.666C656.092 494.987 660.307 495.353 663.933 495.295L654.437 488.842C647.557 483.462 640.572 477.531 636.069 469.921C634.392 467.086 632.799 463.764 633.65 460.422C634.706 459.52 634.975 459.073 636.364 458.962C643.599 458.382 650.843 465.114 656.041 469.363L655.768 216.1L655.761 209.09L655.816 125.398Z"/>
		<path fill="#6A74EE" transform="scale(0.879121 0.878906)" d="M663.933 495.295C675.634 505.193 690.477 514.198 704.366 520.616C704.075 526.609 704.057 532.56 704.118 538.558C699.562 538.569 694.654 538.211 690.171 539.053C689.64 538.561 689.106 538.084 688.535 537.637C680.062 531.001 666.308 530.759 656.046 532.065C655.99 524.107 658.506 502.673 655.475 496.448L652.558 495.666C656.092 494.987 660.307 495.353 663.933 495.295Z"/>
		<path fill="#FECE2D" transform="scale(0.879121 0.878906)" d="M654.437 488.842C647.557 483.462 640.572 477.531 636.069 469.921C634.392 467.086 632.799 463.764 633.65 460.422C634.706 459.52 634.975 459.073 636.364 458.962C643.599 458.382 650.843 465.114 656.041 469.363C662.887 473.947 678.078 486.843 679.542 495.175C679.684 495.985 679.607 496.721 679.531 497.533C677.829 499.282 676.46 499.13 674.157 499.497C677.66 505.24 697.026 514.806 703.636 518.058C708.413 521.447 736.059 532.593 737.569 535.485L736.564 536.312L735.536 536.137C726.609 529.642 714.492 525.031 704.366 520.616C690.477 514.198 675.634 505.193 663.933 495.295L654.437 488.842Z"/>
		<path fill="#FECE2D" transform="scale(0.879121 0.878906)" d="M664.543 371.242C666.449 371.261 668.682 371.371 670.443 372.182C675.953 374.719 680.507 381.821 682.302 387.413C684.031 392.794 684.562 396.271 681.893 401.389C680.572 400.948 679.325 400.437 678.089 399.789C671.4 396.28 665.427 388.83 663.349 381.581C662.168 377.462 662.532 374.964 664.543 371.242Z"/>
		<path fill="#FECE2D" transform="scale(0.879121 0.878906)" d="M674.813 433.498C676.886 433.411 679.122 433.415 681.106 434.087C685.611 435.61 690.279 441.065 692.27 445.266C694.396 449.748 695.7 453.548 693.926 458.35C692.849 458.167 691.78 457.952 690.741 457.606C684.71 455.598 678.393 449.117 675.621 443.509C673.829 439.885 673.57 437.337 674.813 433.498Z"/>
		<path fill="#6A74EE" transform="scale(0.879121 0.878906)" d="M656.069 545.344C661.296 545.205 666.67 545.196 671.827 544.277C679.128 542.976 686.431 539.911 693.886 540.201L694.718 540.48C697.621 541.441 700.258 541.864 703.298 542.099C704.353 547 703.593 590.995 702.553 596.171L702.011 596.608L702.404 604.675C704.268 615.039 703.174 627.19 703.121 637.752L702.862 696.822L703.047 939.524Q679.981 939.35 656.917 939.701L656.975 810.513C656.989 793.361 658.633 767.252 656.577 750.934C655.631 737.018 656.473 722.478 656.478 708.504C656.491 670.717 657.481 632.626 656.135 594.873C655.529 591.249 655.799 587.384 655.834 583.714C656.386 570.958 656.092 558.113 656.069 545.344Z"/>
		<path fill="#FECE2D" transform="scale(0.879121 0.878906)" d="M655.834 583.714C659.694 579.279 665.179 572.53 671.487 572.196C672.999 572.116 673.415 572.667 674.617 573.493C675.491 575.935 675.137 577.868 674.082 580.17C670.641 587.676 663.401 591.842 656.135 594.873C655.529 591.249 655.799 587.384 655.834 583.714Z"/>
		<path fill="#FECE2D" transform="scale(0.879121 0.878906)" d="M702.404 604.675C700.907 607.944 696.406 614.011 693.039 615.369C690.722 616.304 689.991 615.882 687.882 614.912C686.89 613.504 686.337 612.348 686.257 610.593C686.102 607.219 687.329 604.102 689.598 601.629C692.9 598.031 697.268 596.65 702.011 596.608L702.404 604.675Z"/>
		<path fill="#FECE2D" transform="scale(0.879121 0.878906)" d="M710.262 417.546C711.818 417.602 713.792 417.566 715.226 418.223C718.831 419.875 721.284 425.48 722.343 429.022C725.095 438.23 725.461 450.556 720.73 459.161Q718.894 458.103 717.279 456.731C710.669 451.14 706.712 439.294 706.044 430.913C705.584 425.135 706.528 421.955 710.262 417.546Z"/>
		<path fill="#FECE2D" transform="scale(0.879121 0.878906)" d="M741.262 463.539C742.596 464 744.154 464.475 745.349 465.233C748.285 467.097 750.319 470.729 751.169 474.049C753.572 483.438 749.525 494.184 744.891 502.216L744.136 500.92C739.501 492.887 734.073 486.577 734.593 476.615C734.9 470.738 736.957 467.379 741.262 463.539Z"/>
		<path fill="#FECE2D" transform="scale(0.879121 0.878906)" d="M726.777 549.997C728.462 549.918 729.447 550.445 730.902 551.172C731.996 553.349 731.957 554.037 731.101 556.439C728.22 564.519 720.67 571.398 713.195 575.063C711.902 574.524 710.762 573.639 709.606 572.856C708.733 570.536 708.408 569.631 709.135 567.131C711.253 559.846 720.556 553.392 726.777 549.997Z"/>
		<path fill="#FECE2D" transform="scale(0.879121 0.878906)" d="M1384.16 92.6284C1396.32 92.3354 1470.38 90.7858 1475.94 94.1077C1479.04 95.9617 1480.57 99.3983 1481.51 102.723C1482.83 107.46 1482.66 117.362 1480.22 121.677L1480.22 125.336C1482.55 130.154 1482.51 160.284 1480.57 165.616C1480.51 165.786 1480.44 165.951 1480.37 166.119C1483.43 175.551 1481.56 239.462 1481.54 254.713L1481.5 586.783L1481.42 668.314C1481.46 678.242 1480.18 690.885 1482 700.445L1482.2 701.363C1480.9 707.067 1483.26 714.985 1480 719.794C1473.62 720.318 1466.9 719.853 1460.48 719.777C1456.52 720.401 1452.29 719.963 1448.29 719.821C1448.44 718.873 1448.46 719.167 1448.38 718.384C1447.94 714.31 1447.62 709.703 1449.8 706.008C1451.72 702.756 1456.38 701.981 1459.76 701.369C1461.32 699.314 1461.55 698.927 1461.8 696.378C1458.8 689.414 1424.9 652.182 1418.52 649.124C1420.52 654.521 1421.13 714.859 1418.89 719.451C1418.82 719.599 1418.74 719.741 1418.66 719.885C1405.49 721.446 1390.52 720.105 1377.17 720.042C1377.46 719.266 1377.69 718.611 1377.84 717.791C1379.54 708.248 1378.13 696.301 1378.11 686.524L1378.04 615.831L1378.15 355.815L1377.82 233.171C1377.89 211.446 1379.45 188.117 1377.98 166.546C1377.88 165.05 1377.42 163.888 1376.51 162.695C1376.59 162.543 1376.66 162.393 1376.73 162.239C1378.7 157.733 1378.67 130.214 1376.64 125.213L1376.75 122.52C1379.9 115.428 1375.27 105.707 1378.84 98.98C1379.97 96.8608 1382.24 95.411 1383.62 93.4263C1383.8 93.1626 1383.98 92.8944 1384.16 92.6284ZM1419.09 168.908C1419.2 169.179 1419.31 169.447 1419.41 169.721C1421.21 174.667 1420.99 218.72 1418.69 223.795C1424.41 220.876 1459.12 184.989 1461.37 180.381C1461.81 179.609 1462.15 179.058 1462.32 178.169C1463.03 174.336 1463.24 131.065 1462.19 128.528C1461.93 127.885 1461.08 127.031 1460.65 126.445C1454.27 124.777 1445.52 125.924 1438.74 125.554L1419.79 125.505C1420.1 134.489 1421.99 161.858 1419.09 168.908ZM1440.27 483.11C1445.06 486.17 1458.72 498.114 1460.09 503.582C1461.15 501.584 1461.6 499.794 1461.74 497.538C1462.42 486.331 1462.57 377.382 1461.6 374.416C1461.48 374.053 1461.19 373.567 1461.02 373.259L1459.09 372.886C1456.6 377.97 1423.83 411.389 1418.37 414.749C1420.87 419.804 1421.12 454.921 1419.2 460.403C1419.15 460.57 1419.07 460.73 1419 460.893C1422.89 463.323 1439.2 479.412 1440.27 483.11ZM1441.06 642.221C1444.54 644.704 1459.49 659.321 1460.1 663.079C1460.14 663.339 1460.16 663.602 1460.19 663.864C1462.8 658.07 1462.91 579.665 1460.91 570.411L1459.44 569.331C1459.32 569.49 1459.21 569.649 1459.1 569.806C1453.53 577.333 1419.32 609.452 1420.18 616.156C1421.29 624.909 1440.09 635.592 1441.06 642.221ZM1419.61 491.998C1420.42 504.909 1421.73 575.332 1418.12 582.608C1421.77 580.464 1438.22 564.456 1439.28 560.953C1439.33 560.788 1439.34 560.613 1439.36 560.443C1444.85 556.744 1460.33 541.839 1461.29 535.543C1461.61 533.454 1459.84 532.044 1458.57 530.529C1453.66 524.634 1424.1 493.325 1419.61 491.998ZM1459.42 211.998C1455.67 218.759 1423.36 250.651 1416.1 256.051C1420.05 258.662 1439.16 278.072 1439.91 281.675C1443.76 284.07 1458.9 298.829 1459.88 302.927C1459.95 303.214 1460 303.505 1460.06 303.794C1461.07 301.907 1461.61 300.134 1461.8 297.985C1463.27 280.764 1461.95 262.645 1461.86 245.334C1461.81 234.735 1463 223.474 1461.54 212.997C1460.77 212.373 1460.41 212.088 1459.42 211.998ZM1419.48 291.109C1420.52 303.857 1422.07 376.108 1417.98 383.77C1421.75 381.643 1439.61 364.93 1440.64 361.396C1440.7 361.185 1440.75 360.97 1440.8 360.756C1445.91 357.573 1460.98 342.724 1462.52 337.188C1461.92 332.526 1427.45 296.694 1421.8 292.284C1421.04 291.685 1420.45 291.3 1419.48 291.109Z"/>
		<path fill="#FECE2D" transform="scale(0.879121 0.878906)" d="M1384.16 92.6284C1396.32 92.3354 1470.38 90.7858 1475.94 94.1077C1479.04 95.9617 1480.57 99.3983 1481.51 102.723C1482.83 107.46 1482.66 117.362 1480.22 121.677L1480.22 125.336C1474.46 127.797 1447.23 125.171 1438.74 125.554L1419.79 125.505C1407.5 125.353 1388 128.026 1376.64 125.213L1376.75 122.52C1379.9 115.428 1375.27 105.707 1378.84 98.98C1379.97 96.8608 1382.24 95.411 1383.62 93.4263C1383.8 93.1626 1383.98 92.8944 1384.16 92.6284Z"/>
		<path fill="#A63A2A" transform="scale(0.879121 0.878906)" d="M1376.75 122.52C1377.29 122.033 1377.72 121.635 1378.42 121.403C1383.15 119.851 1477.69 120.679 1480.22 121.677L1480.22 125.336C1474.46 127.797 1447.23 125.171 1438.74 125.554L1419.79 125.505C1407.5 125.353 1388 128.026 1376.64 125.213L1376.75 122.52Z"/>
		<path fill="#70A735" transform="scale(0.879121 0.878906)" d="M1459.76 701.369C1462.58 705.232 1462.54 712.6 1461.49 717.284C1461.28 718.196 1460.95 718.975 1460.48 719.777C1456.52 720.401 1452.29 719.963 1448.29 719.821C1448.44 718.873 1448.46 719.167 1448.38 718.384C1447.94 714.31 1447.62 709.703 1449.8 706.008C1451.72 702.756 1456.38 701.981 1459.76 701.369Z"/>
		<path fill="#FECE2D" transform="scale(0.879121 0.878906)" d="M611.8 609.513C614.726 610.27 615.581 610.897 617.299 613.274C617.721 615.426 617.66 617.152 616.93 619.232C614.16 627.128 606.906 634.408 599.47 637.963C596.828 637.917 595.935 637.267 594.166 635.479C593.914 634.3 593.801 633.421 594.042 632.219C595.937 622.776 603.954 614.429 611.8 609.513Z"/>
		<path fill="#FECE2D" transform="scale(0.879121 0.878906)" d="M783.471 653.736C786.509 654.037 789.064 654.827 791.512 656.661C797.685 661.288 802.384 669.177 803.429 676.819C803.952 680.646 803.286 682.892 801.018 685.956C799.751 685.584 798.493 685.167 797.311 684.572C790.751 681.271 785.175 673.389 782.883 666.557C781.242 661.666 781.177 658.399 783.471 653.736Z"/>
		<path fill="#F84F46" transform="scale(0.879121 0.878906)" d="M921.848 464.178C917.025 448.424 913.911 429.911 921.258 414.41C931.094 393.659 964.797 372.549 985.797 365.316C1001.44 359.926 1020.2 363.387 1034.8 370.569C1041.28 373.755 1056.02 382.961 1058.47 390.157C1061.53 389.371 1063.5 388.925 1066.41 390.623C1072.49 394.165 1076.92 400.816 1079.21 407.32C1079.09 408.735 1079.05 409.464 1078.21 410.666C1083.77 414.327 1115.53 450.394 1116.79 455.321C1118.03 456.362 1119.23 456.844 1119.4 458.531C1120.2 466.788 1110.92 474.703 1108.34 482.055C1103.19 489.186 1095.01 495.194 1089.27 502.228C1088.74 503.696 1088.36 504.069 1087.15 504.952C1082.76 507.644 1078.96 512.526 1075.12 516.019C1066.91 523.483 1057.7 531.142 1048.16 536.826C1038.1 546.38 1024.05 553.32 1012.55 561.086C1010.49 561.492 1008.43 561.985 1006.34 562.148C1005.15 560.992 1004.26 560.661 1002.68 560.215C1002.3 557.84 1000.25 555.481 998.921 553.501C993.282 542.882 984.487 533.819 978.591 523.292C977.175 520.761 976.924 520.186 977.733 517.377L975.996 515.965C964.217 522.319 955.807 530.987 941.236 528.264C932.235 526.581 924.191 520.8 919.101 513.273C913.843 505.495 911.416 495.435 913.371 486.173C915.079 478.077 919.237 472.986 926.087 468.636L924.542 466.861L921.848 464.178Z"/>
		<path fill="#F84F46" transform="scale(0.879121 0.878906)" d="M1078.21 410.666C1083.77 414.327 1115.53 450.394 1116.79 455.321C1118.03 456.362 1119.23 456.844 1119.4 458.531C1120.2 466.788 1110.92 474.703 1108.34 482.055C1103.19 489.186 1095.01 495.194 1089.27 502.228C1088.74 503.696 1088.36 504.069 1087.15 504.952C1082.76 507.644 1078.96 512.526 1075.12 516.019C1066.91 523.483 1057.7 531.142 1048.16 536.826C1038.1 546.38 1024.05 553.32 1012.55 561.086C1010.49 561.492 1008.43 561.985 1006.34 562.148C1005.15 560.992 1004.26 560.661 1002.68 560.215C1002.3 557.84 1000.25 555.481 998.921 553.501C993.282 542.882 984.487 533.819 978.591 523.292C977.175 520.761 976.924 520.186 977.733 517.377C990.659 513.201 1002.47 503.129 1014.77 497.158C1018.84 495.738 1022.96 494.061 1026.33 491.323C1033.05 485.865 1037.79 477.651 1038.65 468.988C1039.21 463.385 1037.9 455.76 1034.29 451.307C1044.99 445.216 1058.74 431.566 1068.43 423.157C1072.35 419.757 1077.83 416.114 1078.21 410.666Z"/>
		<path fill="#5D4789" transform="scale(0.879121 0.878906)" d="M924.542 466.861L970.64 440.629C976.174 437.514 982.23 432.86 988.31 431.071C992.965 429.702 998.333 429.954 1002.97 431.269C1012.6 434.001 1020.49 441.426 1025.19 450.1C1030.01 458.997 1031.84 470.125 1028.72 479.896C1026.17 487.881 1021.49 492.507 1014.77 497.158C1002.47 503.129 990.659 513.201 977.733 517.377L975.996 515.965C964.217 522.319 955.807 530.987 941.236 528.264C932.235 526.581 924.191 520.8 919.101 513.273C913.843 505.495 911.416 495.435 913.371 486.173C915.079 478.077 919.237 472.986 926.087 468.636L924.542 466.861Z"/>
		<path fill="#FFFEFE" transform="scale(0.879121 0.878906)" d="M924.542 466.861L970.64 440.629C976.174 437.514 982.23 432.86 988.31 431.071C992.965 429.702 998.333 429.954 1002.97 431.269C1012.6 434.001 1020.49 441.426 1025.19 450.1C1030.01 458.997 1031.84 470.125 1028.72 479.896C1026.17 487.881 1021.49 492.507 1014.77 497.158C1002.47 503.129 990.659 513.201 977.733 517.377L975.996 515.965C986.916 509.722 1012.17 497.412 1020.29 489.07C1022.94 486.349 1024.85 482.42 1025.94 478.819C1028.73 469.645 1027.15 459.618 1022.66 451.266C1018.44 443.43 1011.26 436.606 1002.56 434.157C998.571 433.033 994.119 432.861 990.097 433.925C977.701 437.204 939.641 460.917 926.087 468.636L924.542 466.861Z"/>
		<path fill="#5D4789" transform="scale(0.879121 0.878906)" d="M1058.47 390.157C1061.53 389.371 1063.5 388.925 1066.41 390.623C1072.49 394.165 1076.92 400.816 1079.21 407.32C1079.09 408.735 1079.05 409.464 1078.21 410.666C1077.83 416.114 1072.35 419.757 1068.43 423.157C1058.74 431.566 1044.99 445.216 1034.29 451.307C1037.9 455.76 1039.21 463.385 1038.65 468.988C1037.79 477.651 1033.05 485.865 1026.33 491.323C1022.96 494.061 1018.84 495.738 1014.77 497.158C1021.49 492.507 1026.17 487.881 1028.72 479.896C1031.84 470.125 1030.01 458.997 1025.19 450.1C1020.49 441.426 1012.6 434.001 1002.97 431.269C998.333 429.954 992.965 429.702 988.31 431.071C982.23 432.86 976.174 437.514 970.64 440.629L924.542 466.861L921.848 464.178C928.545 456.726 983.993 425.384 994.315 423.553C1004.93 421.67 1013.16 425.921 1021.6 431.698C1033.9 420.566 1048.12 410.718 1059.55 398.833C1060.54 396.3 1059.09 392.737 1058.47 390.157Z"/>
		<path fill="#6A74EE" transform="scale(0.879121 0.878906)" d="M854.26 587.997C859.958 582.121 865.901 578.166 874.354 577.998C878.972 577.906 883.782 578.803 887.848 581.054C896.284 585.724 901.562 594.531 909.579 599.447C918.311 604.801 928.433 609.017 937.626 613.618L992.449 641.088C989.401 672.114 976.778 689.597 956.419 712.487C952.016 717.438 946.458 722.352 942.628 727.649C937.728 724.406 932.728 721.4 927.658 718.43C927.347 726.791 925.426 739.805 927.865 747.589C914.677 746.036 900.239 747.144 886.927 747.347C889.557 741.825 887.319 699.1 887.802 689.38C873.436 680.535 841.398 667.618 834.524 653.124C826.869 636.984 831.57 610.51 837.398 594.296C837.822 593.922 838.248 593.551 838.685 593.193C842.154 590.352 845.588 591.311 849.724 591.811L850.02 590.827C852.024 589.046 854.252 589.106 856.785 588.915L854.26 587.997Z"/>
		<path fill="#6A74EE" transform="scale(0.879121 0.878906)" d="M849.724 591.811L850.02 590.827C852.024 589.046 854.252 589.106 856.785 588.915C867.056 590.559 880.679 591.043 887.189 600.406C888.434 602.196 889.355 604.295 890.244 606.283C892.585 614.246 892.678 629.671 890.564 637.751L890.422 639.377C889.434 641.914 888.324 644.469 887.506 647.064C889.617 656.129 889.117 679.834 887.802 689.38C873.436 680.535 841.398 667.618 834.524 653.124C826.869 636.984 831.57 610.51 837.398 594.296C837.822 593.922 838.248 593.551 838.685 593.193C842.154 590.352 845.588 591.311 849.724 591.811Z"/>
		<path fill="#5B2448" transform="scale(0.879121 0.878906)" d="M849.724 591.811L850.02 590.827C852.024 589.046 854.252 589.106 856.785 588.915C867.056 590.559 880.679 591.043 887.189 600.406C888.434 602.196 889.355 604.295 890.244 606.283C892.585 614.246 892.678 629.671 890.564 637.751L890.422 639.377C889.434 641.914 888.324 644.469 887.506 647.064L886.729 647.105C885.106 649.572 882.047 652.91 879.369 654.142C875.372 655.981 867.583 657.501 863.421 655.805L863.053 654.461C864.783 652.74 865.529 652.942 867.813 652.654C876.002 651.624 879.556 650.531 884.833 643.746C886.292 638.43 887.578 633.783 887.941 628.229L887.581 609.91C886.827 607.405 885.526 604.888 884.011 602.754C877.616 593.747 859.771 593.468 849.724 591.811Z"/>
		<path fill="#A29FF5" transform="scale(0.879121 0.878906)" d="M890.422 639.377C900 639.141 916.079 636.737 924.887 640.297C929.671 646.809 927.672 706.062 927.658 718.43C927.347 726.791 925.426 739.805 927.865 747.589C914.677 746.036 900.239 747.144 886.927 747.347C889.557 741.825 887.319 699.1 887.802 689.38C889.117 679.834 889.617 656.129 887.506 647.064C888.324 644.469 889.434 641.914 890.422 639.377Z"/>
		<path fill="#6A74EE" transform="scale(0.879121 0.878906)" d="M655.238 120.591L655.362 119.8C656.654 111.288 654.053 101.549 662.137 95.6931C664.485 93.992 667.404 93.1821 670.25 92.8266C678.73 91.7672 734.31 91.7548 741.447 93.0578C744.866 93.6818 749.796 95.1124 751.915 98.0881C756.52 104.556 755.671 113.14 755.564 120.628L755.372 125.279L703.949 125.167L655.816 125.398L655.238 120.591Z"/>
		<path fill="#5B2448" transform="scale(0.879121 0.878906)" d="M655.238 120.591L755.564 120.628L755.372 125.279L703.949 125.167L655.816 125.398L655.238 120.591Z"/>
		<path fill="#FECE2D" transform="scale(0.879121 0.878906)" d="M738.433 536.356L740.164 534.165C745.23 531.989 749.79 532.192 755.207 532.611C758.24 534.158 771.507 542.177 773.95 541.241C775.059 540.816 776.148 540.09 777.17 539.486C781.237 539.198 803.084 554.664 807.053 558.187C809.316 560.196 810.359 562.051 810.521 565.073C810.55 565.606 810.554 566.139 810.559 566.673C809.113 570.775 807.827 573.486 804.37 576.328C797.903 574.47 786.92 578.659 776.931 574.14C770.731 571.334 767.844 566.477 765.476 560.384L755.345 555.726C747.26 549.903 742.529 545.581 738.433 536.356Z"/>
		<path fill="#FECE2D" transform="scale(0.879121 0.878906)" d="M656.069 545.344C654.45 545.004 652.822 544.717 651.203 544.381C643.516 542.79 634.62 545.61 626.719 545.522C621.219 545.46 614.274 544.761 610.23 540.651C609.501 538.257 609.563 538.256 610.625 535.978C618.719 528.62 633.814 529.049 644.012 530.553C647.837 531.118 651.588 532.463 655.482 532.13C655.671 532.114 655.858 532.087 656.046 532.065C666.308 530.759 680.062 531.001 688.535 537.637C689.106 538.084 689.64 538.561 690.171 539.053L693.74 539.616L693.886 540.201C686.431 539.911 679.128 542.976 671.827 544.277C666.67 545.196 661.296 545.205 656.069 545.344Z"/>
		<path fill="#5D4789" transform="scale(0.879121 0.878906)" d="M810.559 566.673C825.201 573.299 839.406 582.065 854.26 587.997L856.785 588.915C854.252 589.106 852.024 589.046 850.02 590.827L849.724 591.811C845.588 591.311 842.154 590.352 838.685 593.193C838.248 593.551 837.822 593.922 837.398 594.296C826.128 589.226 815.082 582.516 804.37 576.328C807.827 573.486 809.113 570.775 810.559 566.673Z"/>
		<path fill="#5B2448" transform="scale(0.879121 0.878906)" d="M1677.49 971.999Q1678.54 971.832 1679.59 971.724C1686.13 971.033 1728.48 970.068 1732.43 973.368L1732.61 975.773L1730.57 977.558C1724.87 978.606 1684.61 978.776 1677.96 977.34C1676.53 975.098 1676.99 974.663 1677.49 971.999Z"/>
	</g>
	<g>
		<path fill="#FFFEFE" transform="scale(0.879121 0.878906)" d="M0 0L1818.44 0C1820.58 3.35778 1819.99 8.22266 1820 12.0828L1820 742.336L1820.01 943.951L1820 997.417C1819.99 1004.76 1820.98 1013.76 1819.75 1020.9C1819.56 1022.02 1819.05 1023.05 1818.44 1024L0 1024L0 0ZM288.868 596.681C269.783 567.895 232.875 511.615 197.474 504.416C190.387 502.975 183.515 504.281 177.565 508.424C161.62 519.529 155.839 547.098 152.825 565.047C142.356 627.385 154.166 711.952 174.245 771.567L159.208 772.701C130.659 778.341 106.635 792.219 90.1885 816.792C75.2457 839.118 68.7947 867.519 74.0395 893.987C79.1331 919.692 95.1319 944.378 116.981 958.959C121.869 962.221 127.165 965.22 132.546 967.588C135.263 968.784 138.853 969.628 141.26 971.24C125.155 971.12 63.3705 968.695 52.1292 972.409L51.662 976.406C64.4906 978.934 78.4943 977.771 91.546 977.71L147.825 977.57L360.608 977.625L1225.71 977.745L1527.99 977.705C1544.35 977.698 1643.88 979.755 1653.33 976.214L1654.31 975.052C1653.99 973.932 1654.07 973.135 1653.01 972.523C1648.7 970.049 1614.31 972.075 1606.4 971.54C1616.85 962.79 1627.13 947.661 1635.66 936.776C1690.34 866.966 1732.2 781.252 1743.15 692.633C1744.85 678.849 1745.82 640.424 1737.05 629.194C1737.56 619.481 1718.25 591.6 1711.22 583.812C1687.62 557.679 1656.55 542.181 1621.22 540.478Q1619.56 540.384 1617.89 540.331Q1616.22 540.278 1614.56 540.267Q1612.89 540.256 1611.22 540.286Q1609.56 540.316 1607.89 540.388Q1606.23 540.46 1604.56 540.574Q1602.9 540.688 1601.24 540.842Q1599.58 540.997 1597.93 541.194Q1596.27 541.39 1594.62 541.628Q1592.97 541.865 1591.33 542.144Q1589.69 542.423 1588.05 542.742Q1586.41 543.062 1584.79 543.423Q1583.16 543.783 1581.54 544.184Q1579.92 544.585 1578.32 545.026Q1576.71 545.467 1575.11 545.948Q1573.52 546.429 1571.93 546.95Q1570.35 547.471 1568.78 548.031Q1567.21 548.591 1565.65 549.19Q1564.1 549.789 1562.56 550.427Q1561.02 551.065 1559.5 551.741Q1557.97 552.417 1556.47 553.131Q1554.96 553.845 1553.47 554.596Q1551.98 555.347 1550.51 556.135Q1549.05 556.923 1547.6 557.748Q1546.15 558.573 1544.72 559.433Q1543.29 560.293 1541.89 561.189Q1540.48 562.085 1539.1 563.016Q1537.72 563.946 1536.36 564.911Q1535 565.876 1533.66 566.874Q1532.33 567.873 1531.02 568.904Q1529.71 569.936 1528.42 571Q1527.14 572.063 1525.89 573.159Q1524.63 574.254 1523.4 575.381C1502.56 594.417 1488.48 621.961 1485.81 650.182C1485.19 656.678 1486.33 666.447 1483.42 672.123C1483.52 669.82 1484.04 666.782 1483.07 664.662C1482.61 675.194 1484.43 690.639 1482 700.445C1480.18 690.885 1481.46 678.242 1481.42 668.314L1481.5 586.783L1481.54 254.713C1481.56 239.462 1483.43 175.551 1480.37 166.119C1480.44 165.951 1480.51 165.786 1480.57 165.616C1482.51 160.284 1482.55 130.154 1480.22 125.336L1480.22 121.677C1482.66 117.362 1482.83 107.46 1481.51 102.723C1480.57 99.3983 1479.04 95.9617 1475.94 94.1077C1470.38 90.7858 1396.32 92.3354 1384.16 92.6284C1383.98 92.8944 1383.8 93.1626 1383.62 93.4263C1382.24 95.411 1379.97 96.8608 1378.84 98.98C1375.27 105.707 1379.9 115.428 1376.75 122.52L1376.64 125.213C1378.67 130.214 1378.7 157.733 1376.73 162.239C1376.66 162.393 1376.59 162.543 1376.51 162.695C1377.23 167.547 1378.57 179.587 1375.91 183.702C1366.17 189.073 1353.6 191.468 1343.19 195.563C1322.25 203.798 1301.5 214.269 1282.15 225.705C1270.2 232.764 1258.02 240.823 1247.05 249.359C1231.33 261.587 1217.29 274.125 1200.19 284.695C1125.19 331.068 1021.8 337.764 938.085 313.544C912.995 306.285 888.643 295.938 866.894 281.364C834.586 259.713 809.258 232.922 773.521 215.27C767.842 212.465 761.476 209.05 755.325 207.475C755.41 180.098 754.64 152.642 755.372 125.279L755.564 120.628C755.671 113.14 756.52 104.556 751.915 98.0881C749.796 95.1124 744.866 93.6818 741.447 93.0578C734.31 91.7548 678.73 91.7672 670.25 92.8266C667.404 93.1821 664.485 93.992 662.137 95.6931C654.053 101.549 656.654 111.288 655.362 119.8L655.238 120.591L655.816 125.398L655.761 209.09L306.665 208.952Q306.403 159.352 306.708 109.753Q306.468 97.1063 306.572 84.4576L288.896 84.4779L289.167 186.431L289.036 468.748L288.972 549.951C289.032 565.402 289.886 581.272 288.868 596.681ZM575.96 959.555L575.818 971.745C565.695 972.675 554.847 971.888 544.691 971.424C555.847 968.493 565.593 964.628 575.96 959.555ZM557.429 834.346C565.161 824.551 571.455 814.338 574.588 802.148Q574.988 800.614 575.311 799.061Q575.633 797.509 575.877 795.942Q576.122 794.375 576.286 792.798Q576.451 791.221 576.537 789.638Q576.622 788.055 576.628 786.469Q576.633 784.884 576.559 783.3Q576.485 781.716 576.331 780.138Q576.177 778.56 575.944 776.991Q575.711 775.423 575.4 773.868Q575.088 772.313 574.698 770.776Q574.309 769.239 573.843 767.724Q573.376 766.208 572.834 764.718Q572.292 763.228 571.676 761.767Q571.06 760.307 570.371 758.879Q569.682 757.451 568.922 756.059Q568.162 754.667 567.333 753.316C555.328 733.299 538.108 725.15 516.118 719.579C518.871 643.283 515.362 568.966 491.166 495.96L596.646 495.961C615.17 495.956 634.091 496.768 652.558 495.666L655.475 496.448C658.506 502.673 655.99 524.107 656.046 532.065C655.858 532.087 655.671 532.114 655.482 532.13C651.588 532.463 647.837 531.118 644.012 530.553C633.814 529.049 618.719 528.62 610.625 535.978C609.563 538.256 609.501 538.257 610.23 540.651C614.274 544.761 621.219 545.46 626.719 545.522C634.62 545.61 643.516 542.79 651.203 544.381C652.822 544.717 654.45 545.004 656.069 545.344C656.092 558.113 656.386 570.958 655.834 583.714C655.799 587.384 655.529 591.249 656.135 594.873C657.481 632.626 656.491 670.717 656.478 708.504C656.473 722.478 655.631 737.018 656.577 750.934C655.252 772.832 656.169 795.264 656.143 817.215L656.004 939.152Q623.209 938.88 590.417 939.408C592.156 936.347 593.926 933.262 595.395 930.061Q596.127 928.456 596.78 926.816Q597.432 925.177 598.004 923.508Q598.575 921.839 599.064 920.143Q599.553 918.448 599.958 916.731Q600.363 915.013 600.684 913.278Q601.005 911.543 601.24 909.794Q601.475 908.046 601.624 906.287Q601.773 904.529 601.836 902.766Q601.898 901.003 601.875 899.238Q601.851 897.474 601.741 895.713Q601.63 893.952 601.434 892.198Q601.237 890.445 600.955 888.703Q600.673 886.961 600.306 885.236Q599.939 883.51 599.487 881.804Q599.036 880.098 598.502 878.417Q597.967 876.735 597.351 875.082C590.141 856.171 575.704 842.455 557.429 834.346ZM636.939 488.792C584.377 443.533 534.05 395.455 482.474 349.058L628.102 216.116L655.768 216.1L656.041 469.363C650.843 465.114 643.599 458.382 636.364 458.962C634.975 459.073 634.706 459.52 633.65 460.422C632.799 463.764 634.392 467.086 636.069 469.921C640.572 477.531 647.557 483.462 654.437 488.842L636.939 488.792ZM1418.66 719.885C1418.74 719.741 1418.82 719.599 1418.89 719.451C1421.13 714.859 1420.52 654.521 1418.52 649.124C1424.9 652.182 1458.8 689.414 1461.8 696.378C1461.55 698.927 1461.32 699.314 1459.76 701.369C1456.38 701.981 1451.72 702.756 1449.8 706.008C1447.62 709.703 1447.94 714.31 1448.38 718.384C1448.46 719.167 1448.44 718.873 1448.29 719.821C1439.5 721.605 1427.75 720.072 1418.66 719.885ZM961.99 971.304C950.701 970.644 939.298 970.973 927.991 970.998C927.911 929.35 927.249 887.614 928.031 845.976L928.351 841.959C928.032 837.058 926.483 829.587 928.866 825.308C931.918 823.287 934.189 823.617 937.803 823.402C941.057 821.676 942.853 819.66 945.093 816.768C985.093 807.845 1024.65 796 1064.38 785.843C1065.2 790.327 1058.74 799.463 1056.52 803.473C1046.38 821.729 1036.08 839.802 1027.26 858.753C1009.12 897.717 999.914 935.834 1041.36 964.621C1043.54 966.133 1050.65 969.378 1051.22 971.437C1041.72 972.212 1031.6 971.503 1022.04 971.493L961.99 971.304ZM755.345 555.726L765.476 560.384C767.844 566.477 770.731 571.334 776.931 574.14C786.92 578.659 797.903 574.47 804.37 576.328C815.082 582.516 826.128 589.226 837.398 594.296C831.57 610.51 826.869 636.984 834.524 653.124C841.398 667.618 873.436 680.535 887.802 689.38C887.319 699.1 889.557 741.825 886.927 747.347C881.902 747.349 875.201 746.416 871.337 750.226C868.995 752.536 867.713 755.974 867.945 759.25C868.113 761.633 868.938 763.885 870.755 765.5C874.799 769.097 883.819 767.11 884.946 772.876C878.04 776.16 871.222 774.04 868.195 782.811C867.363 785.223 866.746 787.898 867.809 790.35C868.818 792.679 871.307 794.183 873.658 794.88C876.639 795.763 882.839 795.819 884.904 797.92L884.687 799.571C878.416 804.205 870.63 800.671 869.1 811.052C868.701 813.759 869.192 816.655 870.965 818.807C873.239 821.568 876.64 822.962 880.147 823.095C882.591 823.188 885.061 823.15 887.507 823.141C887.508 829.311 887.848 835.76 887.192 841.886L886.978 845.858C888.895 885.957 887.286 930.468 886.947 970.913L864.678 970.852L839.418 970.999L839.564 939.116C811.53 938.357 783.309 938.972 755.258 938.948L755.345 555.726ZM599.47 637.963C606.906 634.408 614.16 627.128 616.93 619.232C617.66 617.152 617.721 615.426 617.299 613.274C615.581 610.897 614.726 610.27 611.8 609.513C603.954 614.429 595.937 622.776 594.042 632.219C593.801 633.421 593.914 634.3 594.166 635.479C595.935 637.267 596.828 637.917 599.47 637.963ZM1677.49 971.999C1676.99 974.663 1676.53 975.098 1677.96 977.34C1684.61 978.776 1724.87 978.606 1730.57 977.558L1732.61 975.773L1732.43 973.368C1728.48 970.068 1686.13 971.033 1679.59 971.724Q1678.54 971.832 1677.49 971.999ZM942.628 727.649C940.434 732.116 936.978 736.221 935.372 740.873C932.895 743.118 930.459 745.483 927.865 747.589C925.426 739.805 927.347 726.791 927.658 718.43C932.728 721.4 937.728 724.406 942.628 727.649ZM801.018 685.956C803.286 682.892 803.952 680.646 803.429 676.819C802.384 669.177 797.685 661.288 791.512 656.661C789.064 654.827 786.509 654.037 783.471 653.736C781.177 658.399 781.242 661.666 782.883 666.557C785.175 673.389 790.751 681.271 797.311 684.572C798.493 685.167 799.751 685.584 801.018 685.956Z"/>
		<path fill="#FEF1E0" transform="scale(0.879121 0.878906)" d="M306.961 495.987L382.552 495.986C348.721 552.758 332.98 597.624 318.989 662.067C315.091 654.753 311.264 647.39 307.263 640.132L306.961 495.987Z"/>
		<path fill="#FFFEFE" transform="scale(0.879121 0.878906)" d="M141.479 801.707C143.197 801.719 145.067 801.691 146.737 802.127C150.201 803.031 153.632 805.707 155.228 808.91Q155.491 809.442 155.7 809.997Q155.91 810.552 156.064 811.125Q156.218 811.698 156.315 812.284Q156.412 812.869 156.452 813.461Q156.491 814.053 156.472 814.647Q156.454 815.24 156.377 815.828Q156.3 816.417 156.166 816.995Q156.032 817.573 155.842 818.135C154.284 822.708 151.074 824.828 146.959 826.941C145.064 826.86 142.999 826.835 141.162 826.337C137.702 825.399 134.314 822.707 132.67 819.532Q132.392 819.006 132.17 818.454Q131.949 817.903 131.785 817.331Q131.622 816.759 131.52 816.173Q131.417 815.587 131.376 814.994Q131.335 814.4 131.356 813.806Q131.377 813.212 131.459 812.623Q131.542 812.034 131.686 811.456Q131.829 810.879 132.032 810.32C133.759 805.617 137.185 803.714 141.479 801.707Z"/>
		<path fill="#FEF1E0" transform="scale(0.879121 0.878906)" d="M306.609 215.97L326.941 215.805Q400.514 281.718 473.017 348.805C449.27 372.192 423.785 393.99 399.749 417.132C374.949 441.256 348.386 463.869 324.377 488.77L306.792 488.753L306.609 215.97Z"/>
		<path fill="#FEF1E0" transform="scale(0.879121 0.878906)" d="M336.238 216.068C367.25 214.66 398.978 215.931 430.058 215.934L618.919 216.065C595.495 234.569 574.409 256.493 551.916 276.168C527.649 299.259 502.596 321.554 478.113 344.427C430.15 302.42 384.922 257.303 336.238 216.068Z"/>
		<path fill="#FEF1E0" transform="scale(0.879121 0.878906)" d="M332.802 488.686C367.907 456.777 402.146 423.811 436.846 391.45C450.435 378.776 463.492 365.467 477.682 353.455C527.126 398.776 576.371 444.618 626.702 488.939C580.555 488.762 534.095 489.968 487.987 488.68C480.696 473.838 472.197 456.44 457.477 447.652C450.333 443.387 442.124 442.086 434.045 444.182C414.033 449.374 398.2 471.914 388.216 488.697L332.802 488.686Z"/>
		<path fill="#FFFEFE" transform="scale(0.879121 0.878906)" d="M1553.97 601.333C1557.86 601.117 1561.27 601.529 1564.59 603.715Q1565.2 604.118 1565.77 604.58Q1566.34 605.042 1566.86 605.559Q1567.38 606.075 1567.85 606.64Q1568.31 607.205 1568.72 607.814Q1569.13 608.423 1569.47 609.069Q1569.82 609.715 1570.1 610.393Q1570.38 611.07 1570.59 611.772Q1570.8 612.474 1570.94 613.193C1571.72 617.191 1570.91 621.339 1568.52 624.667C1565.58 628.766 1561.94 630.109 1557.14 630.946C1554.96 631.021 1553.16 630.712 1551.13 629.956C1547.68 628.666 1544.88 626.326 1543.39 622.9C1541.66 618.903 1541.86 614.234 1543.57 610.266C1545.68 605.401 1549.2 603.187 1553.97 601.333Z"/>
		<path fill="#FEF1E0" transform="scale(0.879121 0.878906)" d="M1376.51 162.695C1377.42 163.888 1377.88 165.05 1377.98 166.546C1379.45 188.117 1377.89 211.446 1377.82 233.171L1378.15 355.815L1378.04 615.831L1378.11 686.524C1378.13 696.301 1379.54 708.248 1377.84 717.791C1377.69 718.611 1377.46 719.266 1377.17 720.042C1379.9 745.98 1378.01 778.837 1377.96 805.624C1377.89 847.78 1378.91 890.348 1377.43 932.456C1377.36 934.339 1377.02 936.026 1376.02 937.63C1369.05 937.719 1360.27 938.751 1353.63 936.8C1354.05 936.023 1354.42 935.216 1354.63 934.353C1356.17 928.133 1356.09 878.661 1353.67 874.772C1325.33 874.716 1296.89 874.165 1268.56 874.893C1260.55 874.258 1252.17 874.955 1244.09 874.591L1243.69 873.794C1245.65 869.832 1261.61 858.813 1266.29 854.32C1280.14 841.029 1293.25 825.322 1304.52 809.775C1308.8 803.874 1324.23 783.299 1323.21 776.947C1327.71 774.603 1332.32 776.822 1336.98 775.759C1338.13 775.497 1339.61 775.095 1340.29 774.072C1342.25 771.114 1340.35 761.423 1340 757.73C1337.04 726.791 1332.08 696.753 1323.57 666.811C1304.6 600.086 1269.32 530.484 1217.38 483.508C1208.21 475.219 1198.94 467.217 1188.08 461.208C1165.03 448.456 1141.63 448.164 1116.79 455.321C1115.53 450.394 1083.77 414.327 1078.21 410.666C1079.05 409.464 1079.09 408.735 1079.21 407.32C1076.92 400.816 1072.49 394.165 1066.41 390.623C1063.5 388.925 1061.53 389.371 1058.47 390.157C1056.02 382.961 1041.28 373.755 1034.8 370.569C1020.2 363.387 1001.44 359.926 985.797 365.316C964.797 372.549 931.094 393.659 921.258 414.41C913.911 429.911 917.025 448.424 921.848 464.178L924.542 466.861L926.087 468.636C919.237 472.986 915.079 478.077 913.371 486.173C911.416 495.435 913.843 505.495 919.101 513.273C924.191 520.8 932.235 526.581 941.236 528.264C955.807 530.987 964.217 522.319 975.996 515.965L977.733 517.377C976.924 520.186 977.175 520.761 978.591 523.292C984.487 533.819 993.282 542.882 998.921 553.501C990.992 581.74 992.207 611.992 992.449 641.088L937.626 613.618C928.433 609.017 918.311 604.801 909.579 599.447C901.562 594.531 896.284 585.724 887.848 581.054C883.782 578.803 878.972 577.906 874.354 577.998C865.901 578.166 859.958 582.121 854.26 587.997C839.406 582.065 825.201 573.299 810.559 566.673C810.554 566.139 810.55 565.606 810.521 565.073C810.359 562.051 809.316 560.196 807.053 558.187C803.084 554.664 781.237 539.198 777.17 539.486C776.148 540.09 775.059 540.816 773.95 541.241C771.507 542.177 758.24 534.158 755.207 532.611C756.05 493.845 755.352 454.894 755.325 416.11L755.325 207.475C761.476 209.05 767.842 212.465 773.521 215.27C809.258 232.922 834.586 259.713 866.894 281.364C888.643 295.938 912.995 306.285 938.085 313.544C1021.8 337.764 1125.19 331.068 1200.19 284.695C1217.29 274.125 1231.33 261.587 1247.05 249.359C1258.02 240.823 1270.2 232.764 1282.15 225.705C1301.5 214.269 1322.25 203.798 1343.19 195.563C1353.6 191.468 1366.17 189.073 1375.91 183.702C1378.57 179.587 1377.23 167.547 1376.51 162.695ZM807.811 505.969C817.057 501.078 827.226 493.604 830.643 483.245C830.375 481.119 830.56 480.589 828.743 479.249C827.33 478.207 825.304 478.117 823.598 478.142C814.702 482.628 804.872 489.903 801.517 499.79C801.127 500.939 801.136 501.821 801.242 503.01C802.658 504.71 803.884 505.767 806.256 505.976C806.742 506.019 807.344 505.982 807.811 505.969ZM817.126 438.453C823.047 434.377 829.738 427.933 830.829 420.397C831.124 418.354 831.007 415.776 829.556 414.142C828.841 413.336 827.871 412.694 826.985 412.091C820.39 416.22 814.983 421.648 813.082 429.516C812.351 432.538 812.601 434.247 814.025 436.966C815.056 437.712 815.805 438.357 817.126 438.453Z"/>
		<path fill="#FEF1E0" transform="scale(0.879121 0.878906)" d="M1480.37 166.119C1481.6 168.001 1482.14 169.675 1482.66 171.852C1485.93 174.926 1503.36 176.501 1508.71 177.974Q1522.15 181.559 1535.19 186.393Q1548.23 191.227 1560.76 197.267C1681.84 256.298 1748.99 386.511 1753.01 517.854C1753.97 548.939 1749.88 580.179 1743.81 610.617C1742.95 614.925 1741.74 624.357 1738.89 627.718C1738.35 628.345 1737.73 628.746 1737.05 629.194C1737.56 619.481 1718.25 591.6 1711.22 583.812C1687.62 557.679 1656.55 542.181 1621.22 540.478Q1619.56 540.384 1617.89 540.331Q1616.22 540.278 1614.56 540.267Q1612.89 540.256 1611.22 540.286Q1609.56 540.316 1607.89 540.388Q1606.23 540.46 1604.56 540.574Q1602.9 540.688 1601.24 540.842Q1599.58 540.997 1597.93 541.194Q1596.27 541.39 1594.62 541.628Q1592.97 541.865 1591.33 542.144Q1589.69 542.423 1588.05 542.742Q1586.41 543.062 1584.79 543.423Q1583.16 543.783 1581.54 544.184Q1579.92 544.585 1578.32 545.026Q1576.71 545.467 1575.11 545.948Q1573.52 546.429 1571.93 546.95Q1570.35 547.471 1568.78 548.031Q1567.21 548.591 1565.65 549.19Q1564.1 549.789 1562.56 550.427Q1561.02 551.065 1559.5 551.741Q1557.97 552.417 1556.47 553.131Q1554.96 553.845 1553.47 554.596Q1551.98 555.347 1550.51 556.135Q1549.05 556.923 1547.6 557.748Q1546.15 558.573 1544.72 559.433Q1543.29 560.293 1541.89 561.189Q1540.48 562.085 1539.1 563.016Q1537.72 563.946 1536.36 564.911Q1535 565.876 1533.66 566.874Q1532.33 567.873 1531.02 568.904Q1529.71 569.936 1528.42 571Q1527.14 572.063 1525.89 573.159Q1524.63 574.254 1523.4 575.381C1502.56 594.417 1488.48 621.961 1485.81 650.182C1485.19 656.678 1486.33 666.447 1483.42 672.123C1483.52 669.82 1484.04 666.782 1483.07 664.662C1482.61 675.194 1484.43 690.639 1482 700.445C1480.18 690.885 1481.46 678.242 1481.42 668.314L1481.5 586.783L1481.54 254.713C1481.56 239.462 1483.43 175.551 1480.37 166.119Z"/>
		<path fill="#FECE2D" transform="scale(0.879121 0.878906)" d="M1617.06 302.666C1620.39 303.897 1621.78 308.863 1624.12 311.433C1627.47 315.113 1633.08 316.232 1636.2 319.955C1634.7 322.777 1628.28 324.784 1625.73 327.283C1622.83 330.125 1621.06 334.457 1618.5 337.706L1618.09 338.225C1616.68 337.79 1609.11 323.97 1596.59 319.824Q1598.92 319.072 1601.2 318.165C1608.88 315.04 1613.89 310.278 1617.06 302.666Z"/>
		<path fill="#FEF1E0" transform="scale(0.879121 0.878906)" d="M159.208 772.701C154.721 763.546 145.291 754.739 139.261 746.207C123.28 723.597 109.303 700.522 97.9039 675.265C60.2081 591.741 62.521 494.011 94.6898 409.315C124.818 329.991 180.51 261.81 248.943 212.439C261.44 203.423 275.113 192.775 289.167 186.431L289.036 468.748L288.972 549.951C289.032 565.402 289.886 581.272 288.868 596.681C269.783 567.895 232.875 511.615 197.474 504.416C190.387 502.975 183.515 504.281 177.565 508.424C161.62 519.529 155.839 547.098 152.825 565.047C142.356 627.385 154.166 711.952 174.245 771.567L159.208 772.701Z"/>
		<path fill="#FECE2D" transform="scale(0.879121 0.878906)" d="M195.033 311.54C198.596 313.754 201.791 320.144 205.178 323.274C207.601 325.514 210.931 327.145 213.815 328.742C205.899 333.903 201.075 337.706 196.504 346.089C194.528 345.412 192.682 341.533 191.323 339.836C187.364 334.889 183.892 332.012 178.441 328.714C186.373 323.256 190.352 320.171 195.033 311.54Z"/>
		<path fill="#FFFEFE" transform="scale(0.879121 0.878906)" d="M1419.79 125.505L1438.74 125.554C1445.52 125.924 1454.27 124.777 1460.65 126.445C1461.08 127.031 1461.93 127.885 1462.19 128.528C1463.24 131.065 1463.03 174.336 1462.32 178.169C1462.15 179.058 1461.81 179.609 1461.37 180.381C1459.12 184.989 1424.41 220.876 1418.69 223.795C1420.99 218.72 1421.21 174.667 1419.41 169.721C1419.31 169.447 1419.2 169.179 1419.09 168.908C1421.99 161.858 1420.1 134.489 1419.79 125.505Z"/>
		<path fill="#FEF1E0" transform="scale(0.879121 0.878906)" d="M1460.65 126.445C1461.08 127.031 1461.93 127.885 1462.19 128.528C1463.24 131.065 1463.03 174.336 1462.32 178.169C1462.15 179.058 1461.81 179.609 1461.37 180.381C1459.12 184.989 1424.41 220.876 1418.69 223.795C1420.99 218.72 1421.21 174.667 1419.41 169.721C1419.31 169.447 1419.2 169.179 1419.09 168.908C1425.71 170.974 1450.22 168.577 1460.18 169.572C1460.25 169.433 1460.31 169.294 1460.38 169.157C1460.46 169.001 1460.55 168.85 1460.63 168.693C1462.89 164.047 1462.41 131.814 1460.65 126.445Z"/>
		<path fill="#FEF1E0" transform="scale(0.879121 0.878906)" d="M1459.09 372.886L1461.02 373.259C1461.19 373.567 1461.48 374.053 1461.6 374.416C1462.57 377.382 1462.42 486.331 1461.74 497.538C1461.6 499.794 1461.15 501.584 1460.09 503.582C1458.72 498.114 1445.06 486.17 1440.27 483.11C1439.2 479.412 1422.89 463.323 1419 460.893C1419.07 460.73 1419.15 460.57 1419.2 460.403C1421.12 454.921 1420.87 419.804 1418.37 414.749C1423.83 411.389 1456.6 377.97 1459.09 372.886Z"/>
		<path fill="#FEF1E0" transform="scale(0.879121 0.878906)" d="M1459.44 569.331L1460.91 570.411C1462.91 579.665 1462.8 658.07 1460.19 663.864C1460.16 663.602 1460.14 663.339 1460.1 663.079C1459.49 659.321 1444.54 644.704 1441.06 642.221C1440.09 635.592 1421.29 624.909 1420.18 616.156C1419.32 609.452 1453.53 577.333 1459.1 569.806C1459.21 569.649 1459.32 569.49 1459.44 569.331Z"/>
		<path fill="#FEF1E0" transform="scale(0.879121 0.878906)" d="M1459.42 211.998C1460.41 212.088 1460.77 212.373 1461.54 212.997C1463 223.474 1461.81 234.735 1461.86 245.334C1461.95 262.645 1463.27 280.764 1461.8 297.985C1461.61 300.134 1461.07 301.907 1460.06 303.794C1460 303.505 1459.95 303.214 1459.88 302.927C1458.9 298.829 1443.76 284.07 1439.91 281.675C1439.16 278.072 1420.05 258.662 1416.1 256.051C1423.36 250.651 1455.67 218.759 1459.42 211.998Z"/>
		<path fill="#FEF1E0" transform="scale(0.879121 0.878906)" d="M1419.48 291.109C1420.45 291.3 1421.04 291.685 1421.8 292.284C1427.45 296.694 1461.92 332.526 1462.52 337.188C1460.98 342.724 1445.91 357.573 1440.8 360.756C1440.75 360.97 1440.7 361.185 1440.64 361.396C1439.61 364.93 1421.75 381.643 1417.98 383.77C1422.07 376.108 1420.52 303.857 1419.48 291.109Z"/>
		<path fill="#FEF1E0" transform="scale(0.879121 0.878906)" d="M1419.61 491.998C1424.1 493.325 1453.66 524.634 1458.57 530.529C1459.84 532.044 1461.61 533.454 1461.29 535.543C1460.33 541.839 1444.85 556.744 1439.36 560.443C1439.34 560.613 1439.33 560.788 1439.28 560.953C1438.22 564.456 1421.77 580.464 1418.12 582.608C1421.73 575.332 1420.42 504.909 1419.61 491.998Z"/>
		<path fill="#FEF1E0" transform="scale(0.879121 0.878906)" d="M1020.9 78.5485C1021.18 78.5155 1021.46 78.4722 1021.74 78.4495C1068.06 74.7065 1126.39 88.6628 1162.22 119.27C1179.18 133.76 1191.59 152.408 1193.31 175.094C1194.98 196.952 1185.52 217.969 1171.4 234.268C1140.96 269.421 1089.35 282.781 1044.9 286.11C996.169 288.14 943.013 278.464 904.904 246.015C887.624 231.301 874.305 212.153 872.545 188.958C870.827 166.301 879.549 146.579 894.179 129.704C925.35 93.7498 975.414 81.8449 1020.9 78.5485Z"/>
		<path fill="#FECE2D" transform="scale(0.879121 0.878906)" d="M984.128 130.427C989.276 140.694 994.48 145.388 1005.09 149.601C994.827 153.603 989.619 157.939 984.196 167.489C982.547 166.207 981.483 163.502 980.25 161.779C975.892 155.685 970.508 152.513 964.058 149.078Q965.06 148.727 966.055 148.356C976.049 144.608 979.833 139.905 984.128 130.427Z"/>
		<path fill="#FEF1E0" transform="scale(0.879121 0.878906)" d="M652.558 495.666L655.475 496.448C658.506 502.673 655.99 524.107 656.046 532.065C655.858 532.087 655.671 532.114 655.482 532.13C651.588 532.463 647.837 531.118 644.012 530.553C633.814 529.049 618.719 528.62 610.625 535.978C609.563 538.256 609.501 538.257 610.23 540.651C614.274 544.761 621.219 545.46 626.719 545.522C634.62 545.61 643.516 542.79 651.203 544.381C652.822 544.717 654.45 545.004 656.069 545.344C656.092 558.113 656.386 570.958 655.834 583.714C655.799 587.384 655.529 591.249 656.135 594.873C657.481 632.626 656.491 670.717 656.478 708.504C656.473 722.478 655.631 737.018 656.577 750.934C655.252 772.832 656.169 795.264 656.143 817.215L656.004 939.152Q623.209 938.88 590.417 939.408C592.156 936.347 593.926 933.262 595.395 930.061Q596.127 928.456 596.78 926.816Q597.432 925.177 598.004 923.508Q598.575 921.839 599.064 920.143Q599.553 918.448 599.958 916.731Q600.363 915.013 600.684 913.278Q601.005 911.543 601.24 909.794Q601.475 908.046 601.624 906.287Q601.773 904.529 601.836 902.766Q601.898 901.003 601.875 899.238Q601.851 897.474 601.741 895.713Q601.63 893.952 601.434 892.198Q601.237 890.445 600.955 888.703Q600.673 886.961 600.306 885.236Q599.939 883.51 599.487 881.804Q599.036 880.098 598.502 878.417Q597.967 876.735 597.351 875.082C590.141 856.171 575.704 842.455 557.429 834.346C565.161 824.551 571.455 814.338 574.588 802.148Q574.988 800.614 575.311 799.061Q575.633 797.509 575.877 795.942Q576.122 794.375 576.286 792.798Q576.451 791.221 576.537 789.638Q576.622 788.055 576.628 786.469Q576.633 784.884 576.559 783.3Q576.485 781.716 576.331 780.138Q576.177 778.56 575.944 776.991Q575.711 775.423 575.4 773.868Q575.088 772.313 574.698 770.776Q574.309 769.239 573.843 767.724Q573.376 766.208 572.834 764.718Q572.292 763.228 571.676 761.767Q571.06 760.307 570.371 758.879Q569.682 757.451 568.922 756.059Q568.162 754.667 567.333 753.316C555.328 733.299 538.108 725.15 516.118 719.579C518.871 643.283 515.362 568.966 491.166 495.96L596.646 495.961C615.17 495.956 634.091 496.768 652.558 495.666ZM599.47 637.963C606.906 634.408 614.16 627.128 616.93 619.232C617.66 617.152 617.721 615.426 617.299 613.274C615.581 610.897 614.726 610.27 611.8 609.513C603.954 614.429 595.937 622.776 594.042 632.219C593.801 633.421 593.914 634.3 594.166 635.479C595.935 637.267 596.828 637.917 599.47 637.963Z"/>
		<path fill="#FEF1E0" transform="scale(0.879121 0.878906)" d="M755.345 555.726L765.476 560.384C767.844 566.477 770.731 571.334 776.931 574.14C786.92 578.659 797.903 574.47 804.37 576.328C815.082 582.516 826.128 589.226 837.398 594.296C831.57 610.51 826.869 636.984 834.524 653.124C841.398 667.618 873.436 680.535 887.802 689.38C887.319 699.1 889.557 741.825 886.927 747.347C881.902 747.349 875.201 746.416 871.337 750.226C868.995 752.536 867.713 755.974 867.945 759.25C868.113 761.633 868.938 763.885 870.755 765.5C874.799 769.097 883.819 767.11 884.946 772.876C878.04 776.16 871.222 774.04 868.195 782.811C867.363 785.223 866.746 787.898 867.809 790.35C868.818 792.679 871.307 794.183 873.658 794.88C876.639 795.763 882.839 795.819 884.904 797.92L884.687 799.571C878.416 804.205 870.63 800.671 869.1 811.052C868.701 813.759 869.192 816.655 870.965 818.807C873.239 821.568 876.64 822.962 880.147 823.095C882.591 823.188 885.061 823.15 887.507 823.141C887.508 829.311 887.848 835.76 887.192 841.886L886.978 845.858C888.895 885.957 887.286 930.468 886.947 970.913L864.678 970.852L839.418 970.999L839.564 939.116C811.53 938.357 783.309 938.972 755.258 938.948L755.345 555.726ZM801.018 685.956C803.286 682.892 803.952 680.646 803.429 676.819C802.384 669.177 797.685 661.288 791.512 656.661C789.064 654.827 786.509 654.037 783.471 653.736C781.177 658.399 781.242 661.666 782.883 666.557C785.175 673.389 790.751 681.271 797.311 684.572C798.493 685.167 799.751 685.584 801.018 685.956Z"/>
		<path fill="#FEF1E0" transform="scale(0.879121 0.878906)" d="M655.768 216.1L656.041 469.363C650.843 465.114 643.599 458.382 636.364 458.962C634.975 459.073 634.706 459.52 633.65 460.422C632.799 463.764 634.392 467.086 636.069 469.921C640.572 477.531 647.557 483.462 654.437 488.842L636.939 488.792C584.377 443.533 534.05 395.455 482.474 349.058L628.102 216.116L655.768 216.1Z"/>
		<path fill="#FEF1E0" transform="scale(0.879121 0.878906)" d="M306.708 109.753C309.666 131.839 305.984 154.802 307.603 177.011C323.165 170.73 338.35 163.205 354.223 157.776C435.703 129.907 525.031 122.864 610.5 129.811C625.483 131.029 640.413 133.413 655.33 135.277C655.092 131.055 653.966 124.552 655.238 120.591L655.816 125.398L655.761 209.09L306.665 208.952Q306.403 159.352 306.708 109.753Z"/>
		<path fill="#FEF1E0" transform="scale(0.879121 0.878906)" d="M1064.38 785.843C1065.2 790.327 1058.74 799.463 1056.52 803.473C1046.38 821.729 1036.08 839.802 1027.26 858.753C1009.12 897.717 999.914 935.834 1041.36 964.621C1043.54 966.133 1050.65 969.378 1051.22 971.437C1041.72 972.212 1031.6 971.503 1022.04 971.493L961.99 971.304C950.701 970.644 939.298 970.973 927.991 970.998C927.911 929.35 927.249 887.614 928.031 845.976L928.351 841.959C928.032 837.058 926.483 829.587 928.866 825.308C931.918 823.287 934.189 823.617 937.803 823.402C941.057 821.676 942.853 819.66 945.093 816.768C985.093 807.845 1024.65 796 1064.38 785.843Z"/>
		<path fill="#FEF1E0" transform="scale(0.879121 0.878906)" d="M1418.52 649.124C1424.9 652.182 1458.8 689.414 1461.8 696.378C1461.55 698.927 1461.32 699.314 1459.76 701.369C1456.38 701.981 1451.72 702.756 1449.8 706.008C1447.62 709.703 1447.94 714.31 1448.38 718.384C1448.46 719.167 1448.44 718.873 1448.29 719.821C1439.5 721.605 1427.75 720.072 1418.66 719.885C1418.74 719.741 1418.82 719.599 1418.89 719.451C1421.13 714.859 1420.52 654.521 1418.52 649.124Z"/>
		<path fill="#FEF1E0" transform="scale(0.879121 0.878906)" d="M927.658 718.43C932.728 721.4 937.728 724.406 942.628 727.649C940.434 732.116 936.978 736.221 935.372 740.873C932.895 743.118 930.459 745.483 927.865 747.589C925.426 739.805 927.347 726.791 927.658 718.43Z"/>
		<path fill="#FEF1E0" transform="scale(0.879121 0.878906)" d="M544.691 971.424C555.847 968.493 565.593 964.628 575.96 959.555L575.818 971.745C565.695 972.675 554.847 971.888 544.691 971.424Z"/>
	</g>
</svg>
